<svg xmlns="http://www.w3.org/2000/svg" xmlns:xlink="http://www.w3.org/1999/xlink" viewBox="0 0 259.88 87.19"><defs><clipPath id="a" transform="translate(-0.59 0.46)"><rect x="0.27" y="-0.65" width="261" height="88" fill="none"/></clipPath></defs><title>dkf_graphical</title><g clip-path="url(#a)"><path d="M5.67,10.64A11.18,11.18,0,0,1,4,10.58c-.14,0-.31,0-.47-.07s-.24.16-.37.37a12,12,0,0,0-.64,1.89c0,.24,0,.48.19.48s.28-.1.43-.38a3.89,3.89,0,0,1,.77-1.07c.33-.33.71-.4,1.46-.43,1.05,0,1.92,0,3,0,.08,0,.08.18,0,.26-.32.36-5.52,6.2-7.67,8.33-.23.22-.12.54,0,.54.35,0,1.27-.1,2.22-.1.73,0,4.36.1,5,.1a2.6,2.6,0,0,0,1-.15,1.47,1.47,0,0,0,.46-.63,7.81,7.81,0,0,0,.66-1.75c0-.19,0-.4-.19-.4s-.29.1-.51.48a4.45,4.45,0,0,1-1.31,1.46,4.31,4.31,0,0,1-1.84.3c-.51,0-2.89-.15-3.15-.22-.09,0-.09-.13,0-.19C4.43,17.86,7.86,14,9,12.83s1.59-1.6,1.7-1.71a.74.74,0,0,0,.21-.43.29.29,0,0,0-.29-.19c-.14,0-3.43.14-4.94.14" transform="translate(-0.59 0.46)"/><path d="M13.3,17a.45.45,0,0,0-.38.28c-.09.18-.32.71-.39.82a.28.28,0,0,1-.13.11c-.1,0-.67,0-.75,0a.57.57,0,0,0-.2.37c0,.1,0,.15.09.16l.74,0s0,.07,0,.1c-.21.66-.75,2.58-.88,3.07a2.86,2.86,0,0,0-.09.54c0,.07.13.43.42.43a3.67,3.67,0,0,0,1.74-1.2.7.7,0,0,0,.14-.41c0-.06-.12-.19-.17-.15-.37.32-.82.69-1,.69s-.13-.1,0-.48c.33-1.18.65-2.27.74-2.5a.21.21,0,0,1,.12-.11l1.08,0c.06,0,.24-.37.24-.44s0-.14-.08-.14H13.45c-.07,0-.11,0-.1-.1a10,10,0,0,0,.28-1c0-.05-.17-.1-.33-.1" transform="translate(-0.59 0.46)"/><path d="M15.19,20a.46.46,0,0,0-.16.11.9.9,0,0,0-.13.41.2.2,0,0,0,.18.21c.51,0,1.49-.07,2.21-.11a.55.55,0,0,0,.18-.14,1.06,1.06,0,0,0,.11-.44c0-.05-.08-.23-.14-.23-.29,0-2,.15-2.25.19" transform="translate(-0.59 0.46)"/><path d="M17.58,22.63c0,.11.16.18.38.18s.91-.06,1.62-.06c.55,0,.64,0,1.06,0,.22,0,.33-.1.33-.17s-.11-.19-.26-.23c-.74-.15-.86-.21-.67-1,.1-.47.7-2.71.9-3.47.27-1,.47-1.56.53-1.75a.16.16,0,0,0-.14-.15,1.53,1.53,0,0,0-.24.07,9.82,9.82,0,0,1-1.59.38c-.13,0-.3.11-.3.24s.19.16.3.17.46,0,.67,0c.06,0,.08.14.06.22-.06.26-.11.53-.51,2-.31,1.19-.5,1.74-.72,2.44-.15.5-.36.68-1,.79-.24.05-.46.1-.46.26" transform="translate(-0.59 0.46)"/><path d="M25.25,8.35h-.63s0,0,0,0V24.21s0,0,0,0h.63s0,0,0,0V8.37s0,0,0,0" transform="translate(-0.59 0.46)"/><path d="M28.4,10.86c0,.15.19.23.43.29.57.16,1.08.27,1.38.89s1.05,2.26,1.47,3.19a.77.77,0,0,1,0,.43,25.09,25.09,0,0,1-2.8,3.05A4.12,4.12,0,0,1,26.8,19.8c-.4.08-.53.17-.53.31s.23.29.51.29.72,0,1.67,0c.67,0,1.16,0,1.53,0,.22,0,.54-.11.54-.29s-.08-.23-.31-.31c-.76-.24-.73-.56-.66-.62A30.38,30.38,0,0,1,32,16.46c0-.07.19,0,.22,0,.54,1.07.87,1.84,1,2.19.27.62.25.93-.51,1.08-.38.08-.44.24-.44.37s.19.27.46.27.82,0,1.36,0,1.85,0,2,0c.33,0,.57-.13.57-.27s-.11-.3-.41-.37a1.8,1.8,0,0,1-1.29-.7c-.17-.31-1.6-3.44-1.75-3.73a.54.54,0,0,1,.07-.41c.67-.77,1.79-2,2.43-2.66a3.9,3.9,0,0,1,2.18-1.08c.27-.06.49-.16.49-.35s-.16-.27-.49-.27c-.5,0-1.1.08-1.75.08s-1,0-1.32,0a.44.44,0,0,0-.41.35c0,.11.08.21.35.27.5.13.62.32.27.73-.64.76-1.47,1.62-2.1,2.3-.08.08-.18.07-.21,0a18.76,18.76,0,0,1-1.14-2.43c-.15-.33.09-.55.51-.65.2-.06.38-.09.38-.24a.37.37,0,0,0-.4-.33c-.46,0-.89,0-1.51,0s-1.49-.08-1.65-.08-.53.11-.53.3" transform="translate(-0.59 0.46)"/><path d="M37.88,22.63c0,.11.16.18.38.18s.91-.06,1.62-.06c.55,0,.64,0,1.06,0,.22,0,.33-.1.33-.17s-.11-.19-.26-.23c-.74-.15-.86-.21-.67-1,.1-.47.7-2.71.9-3.47.27-1,.47-1.56.53-1.75a.16.16,0,0,0-.14-.15,1.53,1.53,0,0,0-.24.07,9.82,9.82,0,0,1-1.59.38c-.13,0-.3.11-.3.24s.19.16.3.17.46,0,.67,0,.08.14.06.22c-.06.26-.11.53-.51,2-.31,1.19-.5,1.74-.72,2.44-.15.5-.36.68-1,.79-.24.05-.46.1-.46.26" transform="translate(-0.59 0.46)"/><path d="M44,17.59a.67.67,0,1,0,.67.67.66.66,0,0,0-.67-.67m0,3.32a.67.67,0,1,0,.67.67A.66.66,0,0,0,44,20.91Z" transform="translate(-0.59 0.46)"/><path d="M48,17a.45.45,0,0,0-.38.28c-.09.18-.32.71-.39.82a.28.28,0,0,1-.13.11c-.1,0-.67,0-.75,0a.57.57,0,0,0-.2.37c0,.1,0,.15.09.16l.74,0s0,.07,0,.1c-.21.66-.75,2.58-.88,3.07a2.86,2.86,0,0,0-.09.54c0,.07.13.43.42.43a3.67,3.67,0,0,0,1.74-1.2.7.7,0,0,0,.14-.41c0-.06-.12-.19-.17-.15-.37.32-.82.69-1,.69s-.13-.1,0-.48c.33-1.18.65-2.27.74-2.5a.21.21,0,0,1,.12-.11l1.08,0c.06,0,.24-.37.24-.44s0-.14-.08-.14H48.15c-.07,0-.11,0-.1-.1a10,10,0,0,0,.28-1c0-.05-.17-.1-.33-.1" transform="translate(-0.59 0.46)"/><path d="M49.9,20a.41.41,0,0,0-.17.11.9.9,0,0,0-.13.41.2.2,0,0,0,.18.21c.51,0,1.49-.07,2.21-.11a.55.55,0,0,0,.18-.14,1.06,1.06,0,0,0,.11-.44c0-.05-.08-.23-.14-.23-.29,0-2,.15-2.24.19" transform="translate(-0.59 0.46)"/><path d="M52.28,22.63c0,.11.16.18.38.18s.91-.06,1.62-.06c.55,0,.64,0,1.06,0,.22,0,.33-.1.33-.17s-.11-.19-.26-.23c-.74-.15-.86-.21-.67-1,.1-.47.7-2.71.9-3.47.27-1,.47-1.56.53-1.75A.16.16,0,0,0,56,16a1.53,1.53,0,0,0-.24.07,9.82,9.82,0,0,1-1.59.38c-.13,0-.3.11-.3.24s.19.16.3.17.46,0,.67,0,.08.14.06.22c-.06.26-.11.53-.51,2-.31,1.19-.5,1.74-.72,2.44-.15.5-.36.68-1,.79-.25.05-.46.1-.46.26" transform="translate(-0.59 0.46)"/><path d="M72.19,3.24A1.4,1.4,0,0,0,71.1,4a.84.84,0,0,0-.23.42c0,.08.13.19.17.16a1.27,1.27,0,0,1,.72-.38.28.28,0,0,1,.26.3,5.8,5.8,0,0,1-.35,1.41c-.15.49-.6,1.67-.7,1.88a.35.35,0,0,0,.06.16.7.7,0,0,0,.33.21s.2-.07.21-.11a21.43,21.43,0,0,1,1.8-3.16c.45-.65.82-.7.94-.7.31,0,.4.32.32.66s-1.43,4.64-1.55,5a1.56,1.56,0,0,0-.12.57c0,.16.46.41.63.44s.25-.09.26-.16S75,5.75,75.18,4.81a4.52,4.52,0,0,0,.07-.8c0-.4-.24-.77-.62-.77a1.4,1.4,0,0,0-.77.32,7,7,0,0,0-1.43,1.76c0,.08-.16.11-.14,0s.23-.63.32-1a1.32,1.32,0,0,0,.07-.79.5.5,0,0,0-.49-.35" transform="translate(-0.59 0.46)" fill="#003c71"/><path d="M76.74,11a3.19,3.19,0,0,1,.38-1.24c.22-.42.77-1.16,1.25-1.16.07,0,.23.24.28.42a.52.52,0,0,1,0,.21A3.61,3.61,0,0,1,78,10.58c-.27.32-.61.67-.91.67-.13,0-.33-.15-.33-.23m-.62-.11a1.32,1.32,0,0,0,.13.57.63.63,0,0,0,.49.28,1,1,0,0,0,.48-.15,4.51,4.51,0,0,0,1.14-1s.08,0,.07,0c-.06.22-.22.78-.22.86a1.42,1.42,0,0,0,.05.16.48.48,0,0,0,.31.12,1.45,1.45,0,0,0,1.19-.89s.11-.29,0-.29a.19.19,0,0,0-.17.09c-.19.25-.42.46-.6.46a.23.23,0,0,1-.13,0s0-.07,0-.16c.14-.69.33-1.38.52-2.06.21-.84.47-1.88.55-2.31,0-.17,0-.31-.08-.31a4.78,4.78,0,0,0-.91.15c-.15,0-.18.11-.18.12a.25.25,0,0,0,.16.18c.29.1.33.13.32.25a11,11,0,0,1-.35,1.47s0,.07-.09,0a1.21,1.21,0,0,0-.46-.16,1.72,1.72,0,0,0-.89.35A3.27,3.27,0,0,0,76.12,10.91Z" transform="translate(-0.59 0.46)" fill="#003c71"/><path d="M85,10.7l.24-.3a6.59,6.59,0,0,1-2.2-5.28,6.62,6.62,0,0,1,2.2-5.28L85-.46a6.51,6.51,0,0,0-3,5.58,6.53,6.53,0,0,0,3,5.58" transform="translate(-0.59 0.46)" fill="#003c71"/><path d="M88.47,3.27a1.89,1.89,0,0,0-1.16.51,1.58,1.58,0,0,0-.58,1.13c0,.26.12.39.22.39a1.15,1.15,0,0,0,.52-.3s.11-.15.1-.18a2.26,2.26,0,0,1-.08-.51.37.37,0,0,1,.36-.39,3.6,3.6,0,0,1,.94.23c.3.08.6.15.79.18s0,.1,0,.13a32,32,0,0,0-2.5,2.24c-.53.57-.73.94-.73,1.1s.11.36.23.36a.38.38,0,0,0,.27-.22c.13-.26.39-.57.64-.57s.4.06.82.38.7.58,1.06.58a1.68,1.68,0,0,0,1-.51,1.41,1.41,0,0,0,.6-1c0-.31-.12-.64-.55-.64a.19.19,0,0,0-.14.19,1.52,1.52,0,0,1,.08.51c0,.56-.32.68-.47.68a1.17,1.17,0,0,1-.7-.26,2.35,2.35,0,0,0-1.35-.53s-.08,0-.06-.09C88,6.42,90.37,4.38,91,3.85a.62.62,0,0,0,.26-.38.48.48,0,0,0-.21-.29.37.37,0,0,0-.25.14,1.63,1.63,0,0,1-.67.45,2,2,0,0,1-.62-.17,3.85,3.85,0,0,0-1.06-.33" transform="translate(-0.59 0.46)" fill="#003c71"/><path d="M93.14,5.45a.33.33,0,0,0-.27.21l-.27.58a.25.25,0,0,1-.1.08l-.53,0a.37.37,0,0,0-.14.26c0,.08,0,.11.06.11l.52,0s0,0,0,.07c-.15.47-.53,1.84-.63,2.19a1.91,1.91,0,0,0-.06.38c0,.06.09.31.3.31a2.64,2.64,0,0,0,1.24-.86.47.47,0,0,0,.09-.29s-.08-.13-.11-.11c-.27.23-.59.5-.74.5s-.1-.08,0-.35C92.75,7.73,93,7,93,6.79a.17.17,0,0,1,.09-.08l.77,0s.17-.26.17-.32,0-.09-.06-.09h-.75a.07.07,0,0,1-.07-.08,5.43,5.43,0,0,0,.2-.73s-.12-.07-.24-.07" transform="translate(-0.59 0.46)" fill="#003c71"/><path d="M96.83,7.85a2.84,2.84,0,0,1-.76,2c-.07.07-.08.1-.08.14a.19.19,0,0,0,.15.17,2.76,2.76,0,0,0,1-2.26c0-.38-.06-1.19-.68-1.19a.64.64,0,1,0,0,1.28.68.68,0,0,0,.35-.1m.28-4.06a.64.64,0,0,0-.63-.65.65.65,0,1,0,0,1.29A.64.64,0,0,0,97.11,3.79Z" transform="translate(-0.59 0.46)" fill="#003c71"/><path d="M103.51,5a.07.07,0,0,1-.06-.11c.11-.22,1.41-2,1.68-2.28.09-.1.15-.16.18-.16s.07.07,0,.25-.24,1.73-.33,2.07c0,.06-.11.18-.14.18-.39,0-1.29,0-1.38,0m2.77-4a.33.33,0,0,0-.24.15,1.29,1.29,0,0,1-.54.36.72.72,0,0,0-.31.27c-.47.71-2.59,3.46-3.7,4.87a2,2,0,0,1-1.55,1c-.22,0-.33.15-.33.24s.16.18.33.18c.44,0,.88-.07,1.22-.07s.62,0,.91,0,.33-.08.33-.2-.07-.15-.29-.23-.37-.24-.25-.45a10.45,10.45,0,0,1,1-1.47.61.61,0,0,1,.22-.1c.22,0,1.5-.08,1.68-.08s.09.13.09.16A13.36,13.36,0,0,1,104.69,7c-.08.37-.21.43-.65.51-.21.06-.33.13-.33.25s.15.18.33.18.65,0,1,0,.86.06,1.19.06c.17,0,.3-.1.3-.18s-.07-.2-.33-.28c-.42-.12-.56-.18-.51-.78.17-2.14.49-4.2.69-5.37C106.46,1.1,106.39.93,106.28.93Z" transform="translate(-0.59 0.46)" fill="#003c71"/><path d="M109.57,3.27a1.89,1.89,0,0,0-1.16.51,1.58,1.58,0,0,0-.58,1.13c0,.26.12.39.22.39a1.15,1.15,0,0,0,.52-.3s.11-.15.1-.18a2.26,2.26,0,0,1-.08-.51.37.37,0,0,1,.36-.39,3.6,3.6,0,0,1,.94.23c.3.08.6.15.79.18,0,0,0,.1,0,.13a32,32,0,0,0-2.5,2.24c-.53.57-.73.94-.73,1.1s.11.36.23.36a.38.38,0,0,0,.27-.22c.13-.26.39-.57.64-.57s.39.06.82.38.7.58,1.06.58a1.71,1.71,0,0,0,1-.51,1.41,1.41,0,0,0,.6-1c0-.31-.12-.64-.55-.64a.19.19,0,0,0-.14.19,1.52,1.52,0,0,1,.08.51c0,.56-.32.68-.47.68a1.17,1.17,0,0,1-.7-.26,2.35,2.35,0,0,0-1.35-.53s-.08,0-.06-.09c.24-.28,2.61-2.32,3.27-2.85a.62.62,0,0,0,.26-.38.48.48,0,0,0-.21-.29.37.37,0,0,0-.25.14,1.63,1.63,0,0,1-.67.45,2,2,0,0,1-.62-.17,3.85,3.85,0,0,0-1.06-.33" transform="translate(-0.59 0.46)" fill="#003c71"/><path d="M114.25,5.45a.33.33,0,0,0-.28.21c-.06.12-.22.5-.27.58a.25.25,0,0,1-.1.08l-.53,0a.37.37,0,0,0-.14.26c0,.08,0,.11.06.11l.52,0s0,0,0,.07c-.15.47-.53,1.84-.63,2.19a1.91,1.91,0,0,0-.06.38c0,.06.09.31.3.31a2.64,2.64,0,0,0,1.24-.86.47.47,0,0,0,.09-.29s-.08-.13-.12-.11c-.26.23-.58.5-.73.5s-.1-.08,0-.35c.24-.84.46-1.61.52-1.78a.17.17,0,0,1,.09-.08l.77,0s.17-.26.17-.32,0-.09-.06-.09h-.75a.07.07,0,0,1-.07-.08,5.43,5.43,0,0,0,.2-.73s-.12-.07-.23-.07" transform="translate(-0.59 0.46)" fill="#003c71"/><path d="M115.56,7.56l-.12.08a.74.74,0,0,0-.1.29.15.15,0,0,0,.14.15c.36,0,1.06-.05,1.57-.08a.51.51,0,0,0,.13-.09.84.84,0,0,0,.08-.32s-.06-.16-.1-.16c-.21,0-1.43.1-1.6.13" transform="translate(-0.59 0.46)" fill="#003c71"/><path d="M117.24,9.46c0,.08.11.13.27.13s.64,0,1.15,0,.45,0,.75,0,.24-.08.24-.13-.08-.14-.19-.16c-.52-.11-.61-.15-.48-.7.08-.33.5-1.93.65-2.47.19-.71.33-1.11.37-1.25a.1.1,0,0,0-.09-.11.76.76,0,0,0-.18.06,9.51,9.51,0,0,1-1.13.27c-.09,0-.21.07-.21.16s.13.12.21.13.33,0,.48,0,.06.11,0,.16-.08.38-.36,1.42c-.22.85-.36,1.24-.51,1.74s-.26.48-.69.56c-.17,0-.32.07-.32.18" transform="translate(-0.59 0.46)" fill="#003c71"/><path d="M123.82,7.77a2.56,2.56,0,0,1-.87,2s-.07.08-.07.14a.17.17,0,0,0,.15.16,2.66,2.66,0,0,0,1.11-2.23c0-.69-.27-1.21-.78-1.21a.64.64,0,1,0,0,1.28.76.76,0,0,0,.45-.18" transform="translate(-0.59 0.46)" fill="#003c71"/><path d="M128.53,1.13c-.36,0-.82-.06-1.18-.06-.13,0-.3.09-.31.18s.1.19.35.24c.7.15.7.27.59.72-.37,1.41-.94,3.47-1.34,4.88,0,.1-.1.33-.8.44-.1,0-.3.12-.3.23s.09.22.33.22.54,0,.84,0c.48,0,1.28.07,1.65.07s.34-.09.34-.2,0-.18-.26-.24c-.58-.13-.73-.27-.69-.52.07-.54.36-1.75.46-2.15s.65-2.49.76-2.78.2-.41.34-.45a7.62,7.62,0,0,1,1.45-.07.39.39,0,0,1,.43.23,9,9,0,0,1,.05,1.06.25.25,0,0,0,.25.27c.08,0,.17-.21.19-.31s.29-1,.45-1.41c0-.09,0-.42-.12-.38s-1,.06-1.75.06h-1.73" transform="translate(-0.59 0.46)" fill="#003c71"/><path d="M133.32,10.7a6.53,6.53,0,0,0,3-5.58,6.51,6.51,0,0,0-3-5.58l-.26.3a6.57,6.57,0,0,1,2.22,5.28,6.55,6.55,0,0,1-2.22,5.28l.26.3" transform="translate(-0.59 0.46)" fill="#003c71"/><path d="M77.79,15.93H67.19a.38.38,0,0,0-.37.37.38.38,0,0,0,.37.36h10.6a.37.37,0,0,0,.37-.36.36.36,0,0,0-.37-.37" transform="translate(-0.59 0.46)"/><path d="M89,15.93H78.39a.38.38,0,0,0-.37.37.38.38,0,0,0,.37.36H89a.37.37,0,0,0,.37-.36.36.36,0,0,0-.37-.37" transform="translate(-0.59 0.46)"/><path d="M99.09,15.93H88.49a.38.38,0,0,0-.37.37.38.38,0,0,0,.37.36h10.6a.37.37,0,0,0,.37-.36.36.36,0,0,0-.37-.37" transform="translate(-0.59 0.46)"/><path d="M109.29,15.93H98.69a.38.38,0,0,0-.37.37.38.38,0,0,0,.37.36h10.6a.37.37,0,0,0,.37-.36.36.36,0,0,0-.37-.37" transform="translate(-0.59 0.46)"/><path d="M119.39,15.93h-10.6a.38.38,0,0,0-.37.37.38.38,0,0,0,.37.36h10.6a.37.37,0,0,0,.37-.36.36.36,0,0,0-.37-.37" transform="translate(-0.59 0.46)"/><path d="M129.49,15.93h-10.6a.38.38,0,0,0-.37.37.38.38,0,0,0,.37.36h10.6a.37.37,0,0,0,.37-.36.36.36,0,0,0-.37-.37" transform="translate(-0.59 0.46)"/><path d="M137,14c0,.37,1.06,1.15,1.83,1.92h-8.65a.38.38,0,0,0-.37.37.38.38,0,0,0,.37.36h8.65c-.74.74-1.83,1.53-1.83,1.91a.36.36,0,0,0,.36.37.36.36,0,0,0,.29-.15,5.71,5.71,0,0,1,3.19-2.14.36.36,0,0,0,.31-.35.37.37,0,0,0-.31-.37,5.66,5.66,0,0,1-3.19-2.14.36.36,0,0,0-.29-.15A.36.36,0,0,0,137,14" transform="translate(-0.59 0.46)"/><path d="M155.47,10.64a11.18,11.18,0,0,1-1.69-.06c-.14,0-.32,0-.47-.07s-.24.16-.37.37a12,12,0,0,0-.64,1.89c0,.24,0,.48.19.48s.27-.1.44-.38a3.66,3.66,0,0,1,.76-1.07c.33-.33.71-.4,1.46-.43,1,0,1.92,0,3,0,.07,0,.07.18,0,.26-.32.36-5.52,6.2-7.67,8.33-.23.22-.12.54,0,.54.35,0,1.27-.1,2.22-.1.73,0,4.36.1,5,.1a2.65,2.65,0,0,0,1-.15,1.47,1.47,0,0,0,.46-.63,7.81,7.81,0,0,0,.66-1.75c0-.19,0-.4-.19-.4s-.29.1-.51.48a4.45,4.45,0,0,1-1.31,1.46,4.31,4.31,0,0,1-1.84.3c-.51,0-2.89-.15-3.15-.22-.09,0-.09-.13,0-.19,1.37-1.49,4.8-5.36,5.93-6.52s1.59-1.6,1.7-1.71a.74.74,0,0,0,.21-.43.29.29,0,0,0-.29-.19c-.14,0-3.43.14-4.94.14" transform="translate(-0.59 0.46)"/><path d="M163.2,17a.45.45,0,0,0-.38.28c-.09.18-.32.71-.39.82a.28.28,0,0,1-.13.11c-.1,0-.67,0-.75,0a.57.57,0,0,0-.2.37c0,.1.05.15.09.16l.74,0s0,.07,0,.1c-.21.66-.75,2.58-.88,3.07a2.86,2.86,0,0,0-.09.54c0,.07.13.43.42.43a3.67,3.67,0,0,0,1.74-1.2.7.7,0,0,0,.14-.41c0-.06-.13-.19-.17-.15a2.85,2.85,0,0,1-1,.69c-.1,0-.13-.1,0-.48.34-1.18.65-2.27.74-2.5a.21.21,0,0,1,.12-.11l1.08,0c.06,0,.24-.37.24-.44s0-.14-.08-.14h-1.06c-.07,0-.11,0-.1-.1a10,10,0,0,0,.28-1c0-.05-.17-.1-.33-.1" transform="translate(-0.59 0.46)"/><path d="M158,39.84v-8.7a.36.36,0,0,0-.36-.36.38.38,0,0,0-.37.36v8.7a.38.38,0,0,0,.37.36.36.36,0,0,0,.36-.36" transform="translate(-0.59 0.46)"/><path d="M158,48.24v-8.7a.36.36,0,0,0-.36-.36.38.38,0,0,0-.37.36v8.7a.38.38,0,0,0,.37.36.36.36,0,0,0,.36-.36" transform="translate(-0.59 0.46)"/><path d="M158,56.54v-8.7a.36.36,0,0,0-.36-.36.38.38,0,0,0-.37.36v8.7a.38.38,0,0,0,.37.36.36.36,0,0,0,.36-.36" transform="translate(-0.59 0.46)"/><path d="M159.91,60.79c-.37,0-1.15,1.07-1.93,1.83v-6a.36.36,0,0,0-.36-.37.38.38,0,0,0-.37.37v6c-.73-.73-1.52-1.83-1.9-1.83a.36.36,0,0,0-.37.37.4.4,0,0,0,.14.28,5.7,5.7,0,0,1,2.15,3.18.36.36,0,0,0,.71,0,5.7,5.7,0,0,1,2.15-3.18.36.36,0,0,0,.14-.28.35.35,0,0,0-.36-.37" transform="translate(-0.59 0.46)"/><path d="M168.55,47.61c0-.29-.17-.34-.29-.34a.3.3,0,0,0-.3.27c-.05.47-.34,1.08-.85,1.08-.8,0-1.39-1.39-2.51-1.39-.9,0-1.44,1-1.44,1.61,0,.27.15.34.3.34a.3.3,0,0,0,.3-.26c0-.48.34-1.09.84-1.09.8,0,1.41,1.39,2.51,1.39s1.44-1.29,1.44-1.61m0,2c0-.29-.17-.35-.29-.35a.3.3,0,0,0-.3.28c-.05.47-.34,1.07-.85,1.07-.8,0-1.39-1.38-2.51-1.38-.9,0-1.44,1-1.44,1.61,0,.26.15.34.3.34a.3.3,0,0,0,.3-.27c0-.48.34-1.08.84-1.08.8,0,1.41,1.38,2.51,1.38S168.55,49.92,168.55,49.6Z" transform="translate(-0.59 0.46)" fill="#046a38"/><path d="M173,38.44a1.4,1.4,0,0,0-1.09.72.84.84,0,0,0-.23.42c0,.08.12.19.17.16a1.27,1.27,0,0,1,.72-.38.28.28,0,0,1,.26.3,6.73,6.73,0,0,1-.34,1.41c-.16.49-.61,1.67-.71,1.88a.35.35,0,0,0,.06.16.7.7,0,0,0,.33.21.57.57,0,0,0,.22-.11,20.71,20.71,0,0,1,1.79-3.16c.45-.65.82-.7.94-.7.31,0,.4.32.32.66s-1.43,4.64-1.55,5a1.56,1.56,0,0,0-.12.57c0,.16.45.41.63.44s.25-.09.26-.16S175.76,41,176,40a3.6,3.6,0,0,0,.06-.8c0-.4-.23-.77-.61-.77a1.4,1.4,0,0,0-.77.32,7,7,0,0,0-1.43,1.76c0,.08-.16.11-.14,0s.23-.63.32-1a1.32,1.32,0,0,0,.07-.79.5.5,0,0,0-.49-.35" transform="translate(-0.59 0.46)" fill="#046a38"/><path d="M177.54,46.22a3.19,3.19,0,0,1,.38-1.24c.22-.42.77-1.16,1.25-1.16.07,0,.23.24.28.42a.38.38,0,0,1,0,.21,3.61,3.61,0,0,1-.68,1.33c-.27.32-.61.67-.91.67-.13,0-.33-.15-.33-.23m-.61-.11a1.35,1.35,0,0,0,.12.57.63.63,0,0,0,.49.28,1,1,0,0,0,.48-.15,4.51,4.51,0,0,0,1.14-1s.08,0,.07,0a7.8,7.8,0,0,0-.22.86,1.42,1.42,0,0,0,.05.16.48.48,0,0,0,.31.12,1.45,1.45,0,0,0,1.19-.89s.12-.29,0-.29-.11,0-.17.09c-.19.25-.42.46-.6.46a.23.23,0,0,1-.13,0s0-.07,0-.16c.14-.69.33-1.38.52-2.06.21-.84.47-1.88.55-2.31,0-.17,0-.31-.08-.31a4.78,4.78,0,0,0-.91.15c-.15,0-.18.11-.18.12a.25.25,0,0,0,.16.18c.29.1.33.13.32.25a12.9,12.9,0,0,1-.35,1.47s-.05.07-.08,0a1.31,1.31,0,0,0-.47-.16,1.72,1.72,0,0,0-.89.35A3.25,3.25,0,0,0,176.93,46.11Z" transform="translate(-0.59 0.46)" fill="#046a38"/><path d="M185.81,45.9l.24-.3a6.59,6.59,0,0,1-2.2-5.28,6.62,6.62,0,0,1,2.2-5.28l-.24-.3a6.7,6.7,0,0,0,0,11.16" transform="translate(-0.59 0.46)" fill="#046a38"/><path d="M189.27,38.47a1.89,1.89,0,0,0-1.16.51,1.58,1.58,0,0,0-.58,1.13c0,.26.12.39.22.39a1.15,1.15,0,0,0,.52-.3c0-.05.11-.15.1-.18a2.26,2.26,0,0,1-.08-.51.37.37,0,0,1,.36-.39,3.6,3.6,0,0,1,.94.23c.3.08.6.15.79.18,0,0,0,.1,0,.13a32,32,0,0,0-2.5,2.24c-.53.57-.73.94-.73,1.1s.11.36.23.36a.38.38,0,0,0,.27-.22c.13-.26.39-.57.64-.57s.39.06.82.38.7.58,1.06.58a1.68,1.68,0,0,0,1-.51,1.41,1.41,0,0,0,.6-1c0-.31-.12-.64-.55-.64a.19.19,0,0,0-.14.19,1.52,1.52,0,0,1,.08.51c0,.56-.32.68-.47.68a1.17,1.17,0,0,1-.7-.26,2.35,2.35,0,0,0-1.35-.53s-.08-.05-.06-.09c.24-.28,2.61-2.32,3.27-2.85a.62.62,0,0,0,.26-.38.48.48,0,0,0-.21-.29.37.37,0,0,0-.25.14A1.63,1.63,0,0,1,191,39a2,2,0,0,1-.62-.17,3.85,3.85,0,0,0-1.06-.33" transform="translate(-0.59 0.46)" fill="#046a38"/><path d="M194,40.65a.31.31,0,0,0-.27.21c-.07.12-.23.5-.28.58a.25.25,0,0,1-.1.08l-.53,0a.37.37,0,0,0-.14.26c0,.08,0,.11.06.11l.52,0s0,0,0,.07c-.15.47-.53,1.84-.63,2.19a1.91,1.91,0,0,0-.06.38c0,.06.09.31.3.31a2.64,2.64,0,0,0,1.24-.86.47.47,0,0,0,.09-.29s-.08-.13-.11-.11c-.27.23-.59.5-.74.5s-.1-.08,0-.35c.24-.84.46-1.61.52-1.78a.17.17,0,0,1,.09-.08l.77,0s.17-.26.17-.32,0-.09-.06-.09h-.75a.07.07,0,0,1-.07-.08,5.43,5.43,0,0,0,.2-.73s-.12-.07-.23-.07" transform="translate(-0.59 0.46)" fill="#046a38"/><path d="M197.63,43.05a2.84,2.84,0,0,1-.76,2c-.07.07-.08.1-.08.14a.19.19,0,0,0,.15.17,2.76,2.76,0,0,0,1-2.26c0-.38-.06-1.19-.68-1.19a.64.64,0,1,0,0,1.28.68.68,0,0,0,.35-.1m.28-4.06a.64.64,0,0,0-.63-.65.65.65,0,1,0,0,1.29A.64.64,0,0,0,197.91,39Z" transform="translate(-0.59 0.46)" fill="#046a38"/><path d="M203.66,38.62s-.09,0-.08-.1a6.77,6.77,0,0,1,.75-2.06A1,1,0,0,1,205,36c.46,0,.64.28.69.76,0,.07.15.14.2.14a.59.59,0,0,0,.29-.11.66.66,0,0,0,.22-.49c0-.4-.32-.79-1.05-.79a2,2,0,0,0-1,.35,4.91,4.91,0,0,0-1.64,2.61s-.08.13-.16.13l-.71,0a.47.47,0,0,0-.24.34c0,.06.08.15.13.15l.72,0c.06,0,.09.09.08.14-.09.45-.81,3.82-1.15,5.05-.24.95-.48,1-.76,1a1.43,1.43,0,0,1-.79-.47c-.05-.06-.31,0-.37,0a.76.76,0,0,0-.23.51c0,.39.55.58.76.58a2.37,2.37,0,0,0,1.16-.43,2.34,2.34,0,0,0,1.14-1.62c.22-.82.58-2.17,1.09-4.65,0-.13.23-.19.29-.19.23,0,.76,0,.88-.05a.45.45,0,0,0,.26-.36c0-.07,0-.12-.28-.11l-.87,0" transform="translate(-0.59 0.46)" fill="#046a38"/><path d="M208.31,45.9l.24-.3a6.59,6.59,0,0,1-2.2-5.28,6.62,6.62,0,0,1,2.2-5.28l-.24-.3a6.7,6.7,0,0,0,0,11.16" transform="translate(-0.59 0.46)" fill="#046a38"/><path d="M214.84,39.53a.71.71,0,0,0,.25-.53.54.54,0,0,0-.52-.53,1.43,1.43,0,0,0-1.08.59,13.78,13.78,0,0,0-.89,1.09s-.07,0-.1,0c-.06-.21-.16-.51-.23-.73-.12-.38-.28-.94-.74-.94s-1,.64-1.22,1a2.07,2.07,0,0,0-.14.29c0,.14.18.3.23.24.23-.33.65-.73.82-.73s.24.2.34.52.17.57.33,1a.93.93,0,0,1-.11.28c-.52.88-1,1.38-1.23,1.38s-.33-.18-.4-.37-.2-.06-.24,0a1.08,1.08,0,0,0-.43.72.6.6,0,0,0,.57.55c.67,0,1.42-1.09,1.91-1.73,0,0,.13-.06.14,0s.15.43.23.64c.15.42.33,1,.85,1a1.5,1.5,0,0,0,1.28-1.24c0-.1-.08-.2-.13-.2s-.11,0-.22.18c-.28.38-.47.4-.6.4-.29,0-.5-.52-.8-1.55,0-.06,0-.2.06-.22.44-.69,1.12-1.49,1.32-1.49s.18.12.23.28.09.18.17.18a.67.67,0,0,0,.35-.12" transform="translate(-0.59 0.46)" fill="#046a38"/><path d="M216.85,40.65a.33.33,0,0,0-.28.21c-.06.12-.22.5-.27.58a.25.25,0,0,1-.1.08l-.53,0a.41.41,0,0,0-.14.26c0,.08,0,.11.06.11l.52,0s0,0,0,.07c-.15.47-.53,1.84-.63,2.19a1.91,1.91,0,0,0-.06.38c0,.06.09.31.3.31A2.64,2.64,0,0,0,217,44a.47.47,0,0,0,.09-.29s-.08-.13-.12-.11c-.26.23-.58.5-.73.5s-.1-.08,0-.35c.24-.84.46-1.61.52-1.78a.17.17,0,0,1,.09-.08l.77,0s.17-.26.17-.32,0-.09-.06-.09H217a.07.07,0,0,1-.07-.08,5.43,5.43,0,0,0,.2-.73s-.12-.07-.23-.07" transform="translate(-0.59 0.46)" fill="#046a38"/><path d="M219.62,45.9a6.7,6.7,0,0,0,0-11.16l-.26.3a6.57,6.57,0,0,1,2.22,5.28,6.55,6.55,0,0,1-2.22,5.28l.26.3" transform="translate(-0.59 0.46)" fill="#046a38"/><path d="M226.12,43a2.56,2.56,0,0,1-.87,2c0,.05-.07.08-.07.14a.17.17,0,0,0,.15.16,2.66,2.66,0,0,0,1.11-2.23c0-.69-.27-1.21-.78-1.21a.64.64,0,1,0,0,1.28.76.76,0,0,0,.45-.18" transform="translate(-0.59 0.46)" fill="#046a38"/><path d="M232.57,36.65c1.14,0,1.34,1.12,1.34,1.75a4.83,4.83,0,0,1-2.5,4.38,1,1,0,0,1-.5.13c-1,0-1.41-1.08-1.41-2a5.17,5.17,0,0,1,1.58-3.65,2.26,2.26,0,0,1,1.49-.64m0-.49a3.81,3.81,0,0,0-2,.63,4.77,4.77,0,0,0-2,3.84,2.61,2.61,0,0,0,1.66,2.6c.1.05.1.07,0,.1a16.66,16.66,0,0,0-2.32,1.13,1,1,0,0,0-.51.6.2.2,0,0,0,.1.2.36.36,0,0,0,.28,0,2.61,2.61,0,0,1,1.39-.59,4.58,4.58,0,0,1,2.08.74,4.08,4.08,0,0,0,2.2.83,3.31,3.31,0,0,0,2.26-1,.58.58,0,0,0,.17-.38c0-.13-.24-.14-.31-.07a2.2,2.2,0,0,1-1.51.61,4.66,4.66,0,0,1-1.91-.61A4.39,4.39,0,0,0,230,44.1c-.09,0-.14-.07-.06-.1.78-.38,1.73-.68,2.69-1.25A4.57,4.57,0,0,0,235,38.67,2.4,2.4,0,0,0,232.54,36.16Z" transform="translate(-0.59 0.46)" fill="#046a38"/><path d="M239.51,45.9l.24-.3a6.59,6.59,0,0,1-2.2-5.28,6.62,6.62,0,0,1,2.2-5.28l-.24-.3a6.7,6.7,0,0,0,0,11.16" transform="translate(-0.59 0.46)" fill="#046a38"/><path d="M245.94,39.53a.71.71,0,0,0,.25-.53.54.54,0,0,0-.52-.53,1.43,1.43,0,0,0-1.08.59,13.78,13.78,0,0,0-.89,1.09s-.07,0-.1,0c-.06-.21-.16-.51-.23-.73-.12-.38-.28-.94-.74-.94s-1,.64-1.22,1a2.07,2.07,0,0,0-.14.29c0,.14.18.3.22.24.24-.33.66-.73.83-.73s.24.2.34.52.17.57.33,1a.93.93,0,0,1-.11.28c-.51.88-1,1.38-1.23,1.38s-.33-.18-.4-.37-.2-.06-.24,0a1.08,1.08,0,0,0-.43.72.6.6,0,0,0,.57.55c.67,0,1.42-1.09,1.91-1.73,0,0,.13-.06.14,0s.15.43.23.64c.15.42.33,1,.85,1a1.5,1.5,0,0,0,1.28-1.24c0-.1-.08-.2-.13-.2s-.11,0-.22.18c-.28.38-.47.4-.6.4-.29,0-.5-.52-.79-1.55,0-.06,0-.2.05-.22.44-.69,1.12-1.49,1.32-1.49s.18.12.23.28.09.18.17.18a.67.67,0,0,0,.35-.12" transform="translate(-0.59 0.46)" fill="#046a38"/><path d="M248,40.65a.31.31,0,0,0-.27.21c-.07.12-.23.5-.28.58a.25.25,0,0,1-.1.08l-.53,0a.37.37,0,0,0-.14.26c0,.08,0,.11.06.11l.52,0s0,0,0,.07c-.15.47-.53,1.84-.63,2.19a1.91,1.91,0,0,0-.06.38c0,.06.09.31.3.31a2.64,2.64,0,0,0,1.24-.86.47.47,0,0,0,.09-.29s-.08-.13-.11-.11c-.27.23-.59.5-.74.5s-.1-.08,0-.35c.24-.84.46-1.61.52-1.78a.17.17,0,0,1,.09-.08l.77,0s.17-.26.17-.32,0-.09-.06-.09h-.75a.07.07,0,0,1-.07-.08,5.43,5.43,0,0,0,.2-.73s-.12-.07-.23-.07" transform="translate(-0.59 0.46)" fill="#046a38"/><path d="M250.72,45.9a6.7,6.7,0,0,0,0-11.16l-.26.3a6.57,6.57,0,0,1,2.22,5.28,6.55,6.55,0,0,1-2.22,5.28l.26.3" transform="translate(-0.59 0.46)" fill="#046a38"/><path d="M256.22,45.9a6.7,6.7,0,0,0,0-11.16L256,35a6.57,6.57,0,0,1,2.22,5.28A6.55,6.55,0,0,1,256,45.6l.26.3" transform="translate(-0.59 0.46)" fill="#046a38"/><line x1="170.62" y1="48.45" x2="259.88" y2="48.45" fill="none" stroke="#046a38" stroke-miterlimit="10" stroke-width="0.72"/><path d="M193.79,53.14a1.4,1.4,0,0,0-1.09.72.84.84,0,0,0-.23.42c0,.08.13.19.17.16a1.27,1.27,0,0,1,.72-.38.28.28,0,0,1,.26.3,5.8,5.8,0,0,1-.35,1.41c-.15.49-.6,1.67-.7,1.88a.35.35,0,0,0,.06.16A.7.7,0,0,0,193,58a.57.57,0,0,0,.22-.11A21.61,21.61,0,0,1,195,54.75c.45-.65.82-.7.94-.7.31,0,.4.32.32.66s-1.43,4.64-1.55,5a1.56,1.56,0,0,0-.12.57c0,.16.45.41.63.44s.25-.09.26-.16,1.12-4.89,1.33-5.83a4.52,4.52,0,0,0,.07-.8c0-.4-.24-.77-.62-.77a1.4,1.4,0,0,0-.77.32A7,7,0,0,0,194,55.22c0,.08-.16.11-.14,0s.23-.63.32-1a1.32,1.32,0,0,0,.07-.79.5.5,0,0,0-.49-.35" transform="translate(-0.59 0.46)" fill="#046a38"/><path d="M198.24,60.82a3.19,3.19,0,0,1,.38-1.24c.22-.42.77-1.16,1.25-1.16.07,0,.23.24.28.42a.38.38,0,0,1,0,.21,3.61,3.61,0,0,1-.68,1.33c-.27.32-.61.67-.91.67-.13,0-.33-.15-.33-.23m-.62-.11a1.32,1.32,0,0,0,.13.57.63.63,0,0,0,.49.28,1,1,0,0,0,.48-.15,4.51,4.51,0,0,0,1.14-1s.09,0,.07,0c-.06.22-.22.78-.22.86a1.42,1.42,0,0,0,0,.16.48.48,0,0,0,.31.12,1.45,1.45,0,0,0,1.19-.89s.12-.29,0-.29-.11,0-.17.09c-.19.25-.42.46-.6.46a.23.23,0,0,1-.13,0s0-.07,0-.16c.14-.69.33-1.38.52-2.06.21-.84.47-1.88.55-2.31,0-.17,0-.31-.08-.31a4.78,4.78,0,0,0-.91.15c-.15,0-.18.11-.18.12a.25.25,0,0,0,.16.18c.29.1.33.13.32.25a12.9,12.9,0,0,1-.35,1.47.06.06,0,0,1-.09,0,1.21,1.21,0,0,0-.46-.16,1.72,1.72,0,0,0-.89.35A3.27,3.27,0,0,0,197.62,60.71Z" transform="translate(-0.59 0.46)" fill="#046a38"/><path d="M206.51,60.6l.24-.3a6.59,6.59,0,0,1-2.2-5.28,6.62,6.62,0,0,1,2.2-5.28l-.24-.3a6.7,6.7,0,0,0,0,11.16" transform="translate(-0.59 0.46)" fill="#046a38"/><path d="M210.07,53.17a1.89,1.89,0,0,0-1.16.51,1.58,1.58,0,0,0-.58,1.13c0,.26.12.39.22.39a1.15,1.15,0,0,0,.52-.3s.11-.15.09-.18a3,3,0,0,1-.07-.51.37.37,0,0,1,.36-.39,3.6,3.6,0,0,1,.94.23c.3.08.6.15.79.18,0,0,0,.1,0,.13a32,32,0,0,0-2.5,2.24c-.53.57-.73.94-.73,1.1s.11.36.23.36a.38.38,0,0,0,.27-.22c.13-.26.39-.57.64-.57s.39.06.82.38.7.58,1.06.58a1.68,1.68,0,0,0,1-.51,1.41,1.41,0,0,0,.6-1c0-.31-.12-.64-.55-.64a.19.19,0,0,0-.14.19,1.52,1.52,0,0,1,.08.51c0,.56-.32.68-.47.68a1.17,1.17,0,0,1-.7-.26,2.35,2.35,0,0,0-1.35-.53s-.08,0-.06-.09c.24-.28,2.61-2.32,3.27-2.85a.62.62,0,0,0,.26-.38.48.48,0,0,0-.21-.29.37.37,0,0,0-.25.14,1.63,1.63,0,0,1-.67.45,2,2,0,0,1-.62-.17,3.85,3.85,0,0,0-1.06-.33" transform="translate(-0.59 0.46)" fill="#046a38"/><path d="M214.74,55.35a.31.31,0,0,0-.26.21c-.07.12-.24.5-.28.58a.25.25,0,0,1-.1.08l-.53,0a.37.37,0,0,0-.14.26c0,.08,0,.11.06.11l.52,0s0,0,0,.07c-.15.47-.53,1.84-.63,2.19a1.91,1.91,0,0,0-.06.38c0,.06.09.31.3.31a2.64,2.64,0,0,0,1.24-.86.47.47,0,0,0,.09-.29s-.08-.13-.11-.11c-.27.23-.59.5-.74.5s-.1-.08,0-.35c.24-.84.46-1.61.52-1.78a.17.17,0,0,1,.09-.08l.77,0s.17-.26.17-.32,0-.09-.06-.09h-.75a.07.07,0,0,1-.07-.08,5.43,5.43,0,0,0,.2-.73s-.12-.07-.24-.07" transform="translate(-0.59 0.46)" fill="#046a38"/><path d="M218.43,57.75a2.8,2.8,0,0,1-.77,2c-.06.07-.07.1-.07.14a.18.18,0,0,0,.15.17,2.76,2.76,0,0,0,1-2.26c0-.38-.06-1.19-.68-1.19a.64.64,0,1,0,0,1.28.68.68,0,0,0,.35-.1m.28-4.06a.64.64,0,0,0-.63-.65.65.65,0,1,0,0,1.29A.64.64,0,0,0,218.71,53.69Z" transform="translate(-0.59 0.46)" fill="#046a38"/><path d="M223.41,51.53c.45,0,.74.46.74,1.25a8.77,8.77,0,0,1-1.22,4.27,1.11,1.11,0,0,1-.85.51c-.47,0-.8-.44-.8-1.21a8.08,8.08,0,0,1,1-3.83c.5-.85.86-1,1.16-1m.14-.42a2.14,2.14,0,0,0-1.46.55,5.49,5.49,0,0,0-1.76,4.1c0,1.25.58,2.24,1.63,2.24a2.3,2.3,0,0,0,1.36-.47,5.68,5.68,0,0,0,1.82-4.12C225.14,52.31,224.7,51.11,223.55,51.11Z" transform="translate(-0.59 0.46)" fill="#046a38"/><path d="M227.52,57.67a2.56,2.56,0,0,1-.87,2s-.07.08-.07.14a.17.17,0,0,0,.15.16,2.66,2.66,0,0,0,1.11-2.23c0-.69-.27-1.21-.78-1.21a.64.64,0,1,0,0,1.28.76.76,0,0,0,.45-.18" transform="translate(-0.59 0.46)" fill="#046a38"/><path d="M232.63,50.83a2,2,0,0,0-2.19,2c0,.85.63,1.4,1.42,2.17.61.59.8,1,.8,1.36a1.22,1.22,0,0,1-1.22,1.28,1.49,1.49,0,0,1-1.56-1.46c0-.41-.22-.46-.3-.46s-.2.12-.2.39,0,.91,0,1.08a.62.62,0,0,0,0,.3.54.54,0,0,0,.23.16,3.58,3.58,0,0,0,1.69.43,2.81,2.81,0,0,0,1.56-.49,1.79,1.79,0,0,0,.79-1.52,1.82,1.82,0,0,0-.3-.94,11.69,11.69,0,0,0-1.55-1.62,1.58,1.58,0,0,1-.48-1.07,1.21,1.21,0,0,1,1.15-1.14,1.28,1.28,0,0,1,1.34,1.26c0,.17.07.29.21.29s.22-.16.24-.42c0-.43,0-.79,0-1a.34.34,0,0,0-.19-.24l-.28-.09a2.92,2.92,0,0,0-1.2-.28" transform="translate(-0.59 0.46)" fill="#046a38"/><path d="M235.42,60.6a6.7,6.7,0,0,0,0-11.16l-.26.3A6.57,6.57,0,0,1,237.38,55a6.55,6.55,0,0,1-2.22,5.28l.26.3" transform="translate(-0.59 0.46)" fill="#046a38"/><path d="M151.8,74.66c0,.15.19.23.43.29.57.16,1.08.27,1.38.89s1,2.26,1.47,3.19a.77.77,0,0,1,0,.43,25.09,25.09,0,0,1-2.8,3.05,4.12,4.12,0,0,1-2.06,1.09c-.4.08-.53.17-.53.31s.23.29.51.29.72,0,1.67,0c.67,0,1.16,0,1.53,0,.22,0,.54-.11.54-.29s-.08-.23-.31-.31c-.76-.24-.73-.56-.66-.62a30.38,30.38,0,0,1,2.45-2.72c0-.07.19,0,.22,0,.54,1.07.87,1.84,1,2.19.27.62.25.93-.51,1.08-.38.08-.45.24-.45.37s.2.27.47.27.82,0,1.36,0,1.85,0,2,0c.34,0,.57-.13.57-.27s-.11-.3-.41-.37a1.8,1.8,0,0,1-1.29-.7c-.17-.31-1.6-3.44-1.75-3.73a.54.54,0,0,1,.07-.41c.67-.77,1.79-2,2.43-2.66A3.9,3.9,0,0,1,161.31,75c.27-.06.49-.16.49-.35s-.16-.27-.49-.27c-.5,0-1.1.08-1.75.08s-1,0-1.32,0a.44.44,0,0,0-.41.35c0,.11.08.21.35.27.5.13.61.32.27.73-.64.76-1.47,1.62-2.1,2.3-.08.08-.18.07-.21,0A18.76,18.76,0,0,1,155,75.63c-.15-.33.09-.55.51-.65.2-.06.38-.09.38-.24a.37.37,0,0,0-.4-.33c-.46,0-.89,0-1.51,0s-1.49-.08-1.65-.08-.53.11-.53.3" transform="translate(-0.59 0.46)"/><path d="M163.4,80.8a.45.45,0,0,0-.38.28c-.09.18-.32.71-.39.82a.28.28,0,0,1-.13.11c-.1,0-.67,0-.75,0a.57.57,0,0,0-.2.37c0,.1,0,.15.09.16l.74,0s0,.07,0,.1c-.21.66-.75,2.58-.88,3.07a2.86,2.86,0,0,0-.09.54c0,.07.13.43.42.43a3.67,3.67,0,0,0,1.74-1.2.7.7,0,0,0,.14-.41c0-.06-.12-.19-.17-.15a2.85,2.85,0,0,1-1,.69c-.1,0-.13-.1,0-.48.34-1.18.65-2.27.74-2.5a.21.21,0,0,1,.12-.11l1.08,0c.06,0,.24-.37.24-.44s0-.14-.08-.14h-1.06c-.07,0-.11,0-.1-.1a10,10,0,0,0,.28-1c0-.05-.17-.1-.33-.1" transform="translate(-0.59 0.46)"/><path d="M130.77,43.35Z" transform="translate(-0.59 0.46)" fill="none" stroke="#000" stroke-miterlimit="10" stroke-width="0" opacity="0"/></g><polygon points="129.91 44.46 129.91 44.46 129.91 44.46 129.91 44.46 129.91 44.46 129.91 44.46 129.91 44.46 129.91 44.46 129.91 44.46 129.91 44.46 129.91 44.46 129.91 44.46 129.91 44.46 129.91 44.46 129.91 44.46 129.91 44.46 129.91 44.46 129.91 44.46 129.91 44.46 129.91 44.46 129.91 44.46 129.91 44.46 129.91 44.46 129.91 44.46 129.91 44.46 129.91 44.46 129.91 44.46 129.91 44.46 129.91 44.46 129.91 44.46 129.91 44.46 129.91 44.46 129.91 44.46 129.91 44.46 129.91 44.46 129.91 44.46 129.91 44.46 129.91 44.46 129.91 44.46 129.91 44.46 129.91 44.46 129.91 44.46 129.91 44.46 129.91 44.46 129.91 44.46 129.91 44.46 129.91 44.46 129.91 44.46 129.91 44.46 129.91 44.46 129.91 44.46 129.91 44.46 129.91 44.46 129.91 44.46 129.91 44.46 129.91 44.46 129.91 44.46 129.91 44.46 129.91 44.46 129.91 44.46 129.91 44.46 129.91 44.46 129.91 44.46 129.91 44.46 129.91 44.46 129.91 44.46 129.91 44.46 129.91 44.46 129.91 44.46 129.91 44.46 129.91 44.46 129.91 44.46 129.91 44.46 129.91 44.46 129.91 44.46 129.91 44.46 129.91 44.46 129.91 44.46 129.91 44.46 129.91 44.46 129.91 44.46 129.91 44.46 129.91 44.46 129.91 44.46 129.91 44.46 129.91 44.46 129.91 44.46 129.91 44.46 129.91 44.46 129.91 44.46 129.91 44.46 129.91 44.46 129.91 44.46 129.91 44.46 129.91 44.46 129.91 44.46 129.91 44.46 129.91 44.46 129.91 44.46 129.91 44.46 129.91 44.46 129.91 44.46 129.91 44.46 129.91 44.46 129.91 44.46 129.91 44.46 129.91 44.46 129.91 44.46 129.91 44.46 129.91 44.46 129.91 44.46 129.91 44.46 129.91 44.46 129.91 44.46 129.91 44.46 129.91 44.46 129.91 44.46 129.91 44.46 129.91 44.46 129.91 44.46 129.91 44.46 129.91 44.46 129.91 44.46 129.91 44.46 129.91 44.46 129.91 44.46 129.91 44.46 129.91 44.46 129.91 44.46 129.91 44.46 129.91 44.46 129.91 44.46 129.91 44.46 129.91 44.46 129.91 44.46 129.91 44.46 129.91 44.46 129.91 44.46 129.91 44.46 129.91 44.46 129.91 44.46 129.91 44.46 129.91 44.46 129.91 44.46 129.91 44.46 129.91 44.46 129.91 44.46 129.91 44.46 129.91 44.46 129.91 44.46 129.91 44.46 129.91 44.46 129.91 44.46 129.91 44.46 129.91 44.46 129.91 44.46 129.91 44.46 129.91 44.46 129.91 44.46 129.91 44.46 129.91 44.46 129.91 44.46 129.91 44.46 129.91 44.46 129.91 44.46 129.91 44.46 129.91 44.46 129.91 44.46 129.91 44.46 129.91 44.46 129.91 44.46 129.91 44.46 129.91 44.46 129.91 44.46 129.91 44.46 129.91 44.46 129.91 44.46 129.91 44.46 129.91 44.46 129.91 44.46 129.91 44.46 129.91 44.46 129.91 44.46 129.91 44.46 129.91 44.46 129.91 44.46 129.91 44.46 129.91 44.46 129.91 44.46 129.91 44.46 129.91 44.46 129.91 44.46 129.91 44.46 129.91 44.46 129.91 44.46 129.91 44.46 129.91 44.46 129.91 44.46" fill="none" stroke="#000" stroke-miterlimit="10" stroke-width="0" opacity="0"/></svg>