<svg xmlns="http://www.w3.org/2000/svg" xmlns:xlink="http://www.w3.org/1999/xlink" viewBox="0 0 257.51 76.13"><defs><clipPath id="a" transform="translate(-0.61 -0.05)"><rect x="0.31" y="-0.4" width="258" height="77" fill="none"/></clipPath></defs><title>graphical_model</title><g clip-path="url(#a)"><path d="M6.4.19A11.1,11.1,0,0,1,4.72.13C4.57.1,4.4.1,4.24.06S4,.22,3.88.43a12.32,12.32,0,0,0-.64,1.89c0,.24,0,.48.19.48s.27-.1.43-.38a3.8,3.8,0,0,1,.76-1.07C5,1,5.34,1,6.09.92c1,0,1.92,0,3,0,.08,0,.08.17,0,.25-.32.37-5.51,6.2-7.66,8.33-.24.22-.13.54,0,.54.35,0,1.27-.1,2.23-.1.73,0,4.35.1,5,.1a3.06,3.06,0,0,0,1-.14,1.7,1.7,0,0,0,.46-.64,7.16,7.16,0,0,0,.65-1.75c0-.19,0-.4-.19-.4s-.28.1-.51.48A4.34,4.34,0,0,1,8.82,9,4.17,4.17,0,0,1,7,9.32c-.5,0-2.89-.16-3.14-.23s-.1-.12,0-.19C5.16,7.41,8.6,3.55,9.72,2.39S11.31.78,11.43.67a.74.74,0,0,0,.2-.43c0-.11-.16-.19-.28-.19S7.91.19,6.4.19" transform="translate(-0.61 -0.05)"/><path d="M12,12.18c0,.11.15.18.38.18s.9-.06,1.62-.06c.54,0,.63,0,1.06,0,.22,0,.33-.1.33-.18s-.11-.19-.27-.22c-.73-.16-.86-.22-.67-1,.1-.46.71-2.71.91-3.46.27-1,.47-1.57.52-1.76a.15.15,0,0,0-.13-.15,1,1,0,0,0-.25.08A10.66,10.66,0,0,1,13.94,6c-.14,0-.3.12-.3.24s.19.17.3.18.46,0,.67,0c.05,0,.08.15.05.22-.05.26-.11.53-.5,2-.31,1.19-.5,1.74-.72,2.44-.15.51-.36.68-1,.79-.25.05-.46.1-.46.26" transform="translate(-0.61 -0.05)"/><path d="M37.73,5.49H27.12a.36.36,0,0,0-.36.36.38.38,0,0,0,.36.37H37.73a.37.37,0,0,0,.36-.37.35.35,0,0,0-.36-.36" transform="translate(-0.61 -0.05)"/><path d="M44.83,5.49H34.22a.36.36,0,0,0-.36.36.38.38,0,0,0,.36.37H44.83a.37.37,0,0,0,.36-.37.35.35,0,0,0-.36-.36" transform="translate(-0.61 -0.05)"/><path d="M55,5.49H44.42a.36.36,0,0,0-.36.36.38.38,0,0,0,.36.37H55a.37.37,0,0,0,.36-.37A.35.35,0,0,0,55,5.49" transform="translate(-0.61 -0.05)"/><path d="M65.13,5.49H54.52a.36.36,0,0,0-.36.36.38.38,0,0,0,.36.37H65.13a.37.37,0,0,0,.36-.37.35.35,0,0,0-.36-.36" transform="translate(-0.61 -0.05)"/><path d="M68.44,3.56c0,.37,1.07,1.15,1.83,1.93H61.62a.36.36,0,0,0-.36.36.38.38,0,0,0,.36.37h8.65c-.73.73-1.83,1.52-1.83,1.9a.36.36,0,0,0,.37.37.38.38,0,0,0,.29-.14A5.68,5.68,0,0,1,72.29,6.2a.36.36,0,0,0,0-.71A5.73,5.73,0,0,1,69.1,3.34a.35.35,0,0,0-.29-.14.36.36,0,0,0-.37.36" transform="translate(-0.61 -0.05)"/><path d="M91,5.14a1,1,0,0,0-1,1,1,1,0,1,0,2,0,1.07,1.07,0,0,0-1-1m-3.79,0a1,1,0,0,0-1,1,1,1,0,0,0,1,1,1,1,0,0,0,1-1A1,1,0,0,0,87.18,5.14Zm-3.75,0a1,1,0,0,0-1,1,1,1,0,0,0,1,1,1,1,0,0,0,1-1A1,1,0,0,0,83.43,5.14Z" transform="translate(-0.61 -0.05)"/><path d="M112.73,5.49H102.12a.36.36,0,0,0-.36.36.38.38,0,0,0,.36.37h10.61a.37.37,0,0,0,.36-.37.35.35,0,0,0-.36-.36" transform="translate(-0.61 -0.05)"/><path d="M119.93,5.49H109.32a.36.36,0,0,0-.36.36.38.38,0,0,0,.36.37h10.61a.37.37,0,0,0,.36-.37.35.35,0,0,0-.36-.36" transform="translate(-0.61 -0.05)"/><path d="M130,5.49h-10.6a.36.36,0,0,0-.37.36.38.38,0,0,0,.37.37H130a.37.37,0,0,0,.36-.37.35.35,0,0,0-.36-.36" transform="translate(-0.61 -0.05)"/><path d="M140.13,5.49H129.52a.36.36,0,0,0-.36.36.38.38,0,0,0,.36.37h10.61a.37.37,0,0,0,.36-.37.35.35,0,0,0-.36-.36" transform="translate(-0.61 -0.05)"/><path d="M143.54,3.56c0,.37,1.07,1.15,1.83,1.93h-8.64a.36.36,0,0,0-.37.36.38.38,0,0,0,.37.37h8.64c-.73.73-1.83,1.52-1.83,1.9a.36.36,0,0,0,.37.37.38.38,0,0,0,.29-.14,5.68,5.68,0,0,1,3.19-2.15.36.36,0,0,0,0-.71,5.73,5.73,0,0,1-3.19-2.15.35.35,0,0,0-.29-.14.36.36,0,0,0-.37.36" transform="translate(-0.61 -0.05)"/><path d="M162,.19a11.1,11.1,0,0,1-1.68-.06c-.14,0-.32,0-.48-.07s-.24.16-.36.37a12.32,12.32,0,0,0-.64,1.89c0,.24,0,.48.19.48s.27-.1.43-.38a3.8,3.8,0,0,1,.76-1.07c.34-.33.72-.39,1.47-.43,1,0,1.92,0,3,0,.08,0,.08.17,0,.25-.32.37-5.51,6.2-7.66,8.33-.24.22-.13.54,0,.54.35,0,1.27-.1,2.23-.1.73,0,4.35.1,5,.1a3.06,3.06,0,0,0,1-.14,1.7,1.7,0,0,0,.46-.64,7.16,7.16,0,0,0,.65-1.75c0-.19,0-.4-.19-.4s-.28.1-.51.48A4.34,4.34,0,0,1,164.42,9a4.17,4.17,0,0,1-1.85.31c-.5,0-2.89-.16-3.14-.23-.1,0-.1-.12,0-.19,1.36-1.49,4.8-5.35,5.92-6.51S166.91.78,167,.67a.74.74,0,0,0,.2-.43c0-.11-.16-.19-.28-.19s-3.44.14-4.95.14" transform="translate(-0.61 -0.05)"/><path d="M169.74,6.55a.44.44,0,0,0-.38.29c-.09.18-.32.7-.39.81a.23.23,0,0,1-.13.11c-.11,0-.68,0-.75,0a.5.5,0,0,0-.2.36c0,.1,0,.15.09.16l.73,0s0,.07,0,.1c-.22.66-.75,2.58-.88,3.07a3.34,3.34,0,0,0-.1.54c0,.08.14.43.43.43a3.72,3.72,0,0,0,1.74-1.2.67.67,0,0,0,.13-.4c0-.07-.12-.19-.16-.16a2.85,2.85,0,0,1-1,.69c-.1,0-.14-.1,0-.48.33-1.18.64-2.26.73-2.5a.2.2,0,0,1,.13-.11l1.08,0a1,1,0,0,0,.23-.44c0-.07,0-.14-.08-.14h-1.06a.09.09,0,0,1-.1-.1,7.38,7.38,0,0,0,.28-1c0-.05-.16-.1-.32-.1" transform="translate(-0.61 -0.05)"/><path d="M171.53,9.51a.67.67,0,0,0-.17.12.93.93,0,0,0-.13.4.21.21,0,0,0,.19.21c.5,0,1.48-.07,2.21-.11a.89.89,0,0,0,.18-.14,1.24,1.24,0,0,0,.11-.44c0-.05-.08-.22-.15-.22-.29,0-2,.14-2.24.18" transform="translate(-0.61 -0.05)"/><path d="M174,12.18c0,.11.16.18.38.18s.9-.06,1.62-.06c.54,0,.63,0,1.06,0,.22,0,.33-.1.33-.18s-.11-.19-.27-.22c-.73-.16-.86-.22-.67-1,.1-.46.71-2.71.91-3.46.27-1,.47-1.57.52-1.76a.15.15,0,0,0-.13-.15,1,1,0,0,0-.25.08,10.66,10.66,0,0,1-1.58.37c-.14,0-.3.12-.3.24s.19.17.3.18.46,0,.67,0c0,0,.08.15,0,.22,0,.26-.11.53-.5,2-.31,1.19-.5,1.74-.72,2.44-.15.51-.36.68-1,.79-.25.05-.46.1-.46.26" transform="translate(-0.61 -0.05)"/><path d="M199.63,5.49H189a.36.36,0,0,0-.36.36.38.38,0,0,0,.36.37h10.61a.37.37,0,0,0,.36-.37.35.35,0,0,0-.36-.36" transform="translate(-0.61 -0.05)"/><path d="M206.83,5.49h-10.6a.36.36,0,0,0-.37.36.38.38,0,0,0,.37.37h10.6a.37.37,0,0,0,.36-.37.35.35,0,0,0-.36-.36" transform="translate(-0.61 -0.05)"/><path d="M216.93,5.49H206.32a.36.36,0,0,0-.36.36.38.38,0,0,0,.36.37h10.61a.37.37,0,0,0,.36-.37.35.35,0,0,0-.36-.36" transform="translate(-0.61 -0.05)"/><path d="M227,5.49h-10.6a.36.36,0,0,0-.37.36.38.38,0,0,0,.37.37H227a.37.37,0,0,0,.36-.37.35.35,0,0,0-.36-.36" transform="translate(-0.61 -0.05)"/><path d="M230.44,3.56c0,.37,1.07,1.15,1.83,1.93h-8.65a.36.36,0,0,0-.36.36.38.38,0,0,0,.36.37h8.65c-.73.73-1.83,1.52-1.83,1.9a.36.36,0,0,0,.37.37.4.4,0,0,0,.29-.14,5.68,5.68,0,0,1,3.19-2.15.36.36,0,0,0,0-.71,5.73,5.73,0,0,1-3.19-2.15.37.37,0,0,0-.29-.14.36.36,0,0,0-.37.36" transform="translate(-0.61 -0.05)"/><path d="M248.9.19a11.1,11.1,0,0,1-1.68-.06c-.15,0-.32,0-.48-.07s-.24.16-.36.37a12.32,12.32,0,0,0-.64,1.89c0,.24,0,.48.19.48s.27-.1.43-.38a3.8,3.8,0,0,1,.76-1.07c.34-.33.72-.39,1.47-.43,1,0,1.92,0,3,0,.08,0,.08.17,0,.25-.32.37-5.51,6.2-7.66,8.33-.24.22-.13.54,0,.54.35,0,1.27-.1,2.23-.1.73,0,4.35.1,5,.1a3.06,3.06,0,0,0,1-.14,1.7,1.7,0,0,0,.46-.64,7.16,7.16,0,0,0,.65-1.75c0-.19,0-.4-.19-.4s-.28.1-.51.48A4.34,4.34,0,0,1,251.32,9a4.15,4.15,0,0,1-1.84.31c-.51,0-2.9-.16-3.15-.23s-.1-.12,0-.19c1.36-1.49,4.8-5.35,5.93-6.51s1.58-1.61,1.7-1.72a.74.74,0,0,0,.2-.43c0-.11-.16-.19-.28-.19s-3.44.14-4.95.14" transform="translate(-0.61 -0.05)"/><path d="M256.64,6.55a.44.44,0,0,0-.38.29c-.09.18-.32.7-.39.81a.23.23,0,0,1-.13.11c-.11,0-.67,0-.75,0a.5.5,0,0,0-.2.36c0,.1,0,.15.09.16l.73,0s0,.07,0,.1c-.22.66-.75,2.58-.89,3.07a3.47,3.47,0,0,0-.08.54c0,.08.13.43.42.43a3.72,3.72,0,0,0,1.74-1.2.67.67,0,0,0,.13-.4c0-.07-.12-.19-.16-.16a2.85,2.85,0,0,1-1,.69c-.1,0-.14-.1,0-.48.33-1.18.64-2.26.73-2.5a.2.2,0,0,1,.13-.11l1.08,0a1,1,0,0,0,.23-.44c0-.07,0-.14-.08-.14h-1.06a.09.09,0,0,1-.1-.1,7.38,7.38,0,0,0,.28-1c0-.05-.16-.1-.32-.1" transform="translate(-0.61 -0.05)"/><path d="M9.72,29.39V20.7a.38.38,0,0,0-.37-.37A.38.38,0,0,0,9,20.7v8.69a.38.38,0,0,0,.36.37.38.38,0,0,0,.37-.37" transform="translate(-0.61 -0.05)"/><path d="M9.72,37.69V29a.38.38,0,0,0-.37-.37A.38.38,0,0,0,9,29v8.69a.38.38,0,0,0,.36.37.38.38,0,0,0,.37-.37" transform="translate(-0.61 -0.05)"/><path d="M9.72,46.09V37.4A.38.38,0,0,0,9.35,37,.38.38,0,0,0,9,37.4v8.69a.38.38,0,0,0,.36.37.38.38,0,0,0,.37-.37" transform="translate(-0.61 -0.05)"/><path d="M11.64,50.34c-.36,0-1.14,1.07-1.92,1.83v-6a.36.36,0,0,0-.37-.37.37.37,0,0,0-.36.37v6c-.73-.73-1.53-1.83-1.91-1.83a.36.36,0,0,0-.22.65A5.67,5.67,0,0,1,9,54.17a.38.38,0,0,0,.35.32.37.37,0,0,0,.37-.32A5.69,5.69,0,0,1,11.87,51a.4.4,0,0,0,.14-.28.36.36,0,0,0-.37-.37" transform="translate(-0.61 -0.05)"/><path d="M168.52,29.39V20.7a.38.38,0,0,0-.37-.37.38.38,0,0,0-.36.37v8.69a.38.38,0,0,0,.36.37.38.38,0,0,0,.37-.37" transform="translate(-0.61 -0.05)"/><path d="M168.52,37.69V29a.38.38,0,0,0-.37-.37.38.38,0,0,0-.36.37v8.69a.38.38,0,0,0,.36.37.38.38,0,0,0,.37-.37" transform="translate(-0.61 -0.05)"/><path d="M168.52,46.09V37.4a.38.38,0,0,0-.37-.37.38.38,0,0,0-.36.37v8.69a.38.38,0,0,0,.36.37.38.38,0,0,0,.37-.37" transform="translate(-0.61 -0.05)"/><path d="M170.44,50.34c-.36,0-1.14,1.07-1.92,1.83v-6a.36.36,0,0,0-.37-.37.37.37,0,0,0-.36.37v6c-.73-.73-1.53-1.83-1.91-1.83a.37.37,0,0,0-.37.37.38.38,0,0,0,.15.28,5.67,5.67,0,0,1,2.14,3.18.38.38,0,0,0,.35.32.37.37,0,0,0,.37-.32A5.72,5.72,0,0,1,170.66,51a.38.38,0,0,0,.15-.28.37.37,0,0,0-.37-.37" transform="translate(-0.61 -0.05)"/><path d="M251.42,29.39V20.7a.38.38,0,0,0-.37-.37.38.38,0,0,0-.36.37v8.69a.38.38,0,0,0,.36.37.38.38,0,0,0,.37-.37" transform="translate(-0.61 -0.05)"/><path d="M251.42,37.69V29a.38.38,0,0,0-.37-.37.38.38,0,0,0-.36.37v8.69a.38.38,0,0,0,.36.37.38.38,0,0,0,.37-.37" transform="translate(-0.61 -0.05)"/><path d="M251.42,46.09V37.4a.38.38,0,0,0-.37-.37.38.38,0,0,0-.36.37v8.69a.38.38,0,0,0,.36.37.38.38,0,0,0,.37-.37" transform="translate(-0.61 -0.05)"/><path d="M253.34,50.34c-.36,0-1.14,1.07-1.92,1.83v-6a.36.36,0,0,0-.37-.37.37.37,0,0,0-.36.37v6c-.73-.73-1.53-1.83-1.91-1.83a.37.37,0,0,0-.37.37.38.38,0,0,0,.15.28,5.72,5.72,0,0,1,2.14,3.18.38.38,0,0,0,.35.32.38.38,0,0,0,.37-.32A5.69,5.69,0,0,1,253.57,51a.4.4,0,0,0,.14-.28.36.36,0,0,0-.37-.37" transform="translate(-0.61 -0.05)"/><path d="M2.74,64.11c0,.15.19.23.43.29.57.16,1.08.27,1.38.89s1,2.26,1.46,3.2a.67.67,0,0,1,0,.42A26.75,26.75,0,0,1,3.2,72a4.2,4.2,0,0,1-2.07,1.08c-.39.08-.52.17-.52.31s.22.29.51.29.71-.05,1.67-.05c.66,0,1.16.05,1.52.05s.54-.11.54-.29-.08-.23-.3-.31c-.76-.24-.73-.56-.67-.62a32,32,0,0,1,2.45-2.72.16.16,0,0,1,.22,0,21.55,21.55,0,0,1,1,2.2c.27.62.26.92-.5,1.08-.39.07-.45.23-.45.36s.19.27.46.27.83-.05,1.37-.05,1.84.05,2,.05c.33,0,.57-.13.57-.27s-.11-.3-.41-.36a1.88,1.88,0,0,1-1.29-.7c-.18-.32-1.61-3.45-1.75-3.74a.54.54,0,0,1,.06-.41c.67-.76,1.8-2,2.44-2.66a3.92,3.92,0,0,1,2.17-1.08c.27-.06.5-.16.5-.35s-.16-.27-.5-.27c-.49,0-1.09.08-1.74.08s-1,0-1.33,0a.45.45,0,0,0-.41.35c0,.11.08.21.35.27.51.13.62.32.27.73-.63.76-1.46,1.62-2.1,2.31-.08.08-.17.06-.2,0a20,20,0,0,1-1.15-2.43c-.14-.34.1-.56.51-.66.21-.06.38-.09.38-.24a.37.37,0,0,0-.39-.33c-.46,0-.89,0-1.51,0s-1.5-.08-1.66-.08-.52.11-.52.3" transform="translate(-0.61 -0.05)"/><path d="M12.22,75.88c0,.11.15.18.38.18s.9-.06,1.62-.06c.54,0,.63,0,1.06,0,.22,0,.33-.1.33-.18s-.11-.19-.27-.22c-.73-.16-.86-.22-.67-1,.1-.46.71-2.71.91-3.46.27-1,.47-1.57.52-1.76a.15.15,0,0,0-.13-.15,1,1,0,0,0-.25.08,10.66,10.66,0,0,1-1.58.37c-.14,0-.3.12-.3.24s.19.17.3.18.46,0,.67,0c0,0,.08.15,0,.22,0,.26-.11.53-.5,2-.31,1.19-.5,1.74-.72,2.44-.15.51-.36.68-1,.79-.25,0-.46.1-.46.26" transform="translate(-0.61 -0.05)"/><path d="M158.34,64.11c0,.15.19.23.43.29.57.16,1.08.27,1.38.89s1,2.26,1.46,3.2a.67.67,0,0,1,0,.42A26.75,26.75,0,0,1,158.8,72a4.2,4.2,0,0,1-2.07,1.08c-.39.08-.52.17-.52.31s.22.29.51.29.71-.05,1.67-.05c.66,0,1.16.05,1.52.05s.54-.11.54-.29-.08-.23-.3-.31c-.76-.24-.73-.56-.67-.62a32,32,0,0,1,2.45-2.72.16.16,0,0,1,.22,0,21.55,21.55,0,0,1,1,2.2c.28.62.26.92-.5,1.08-.39.07-.45.23-.45.36s.19.27.46.27.83-.05,1.37-.05,1.84.05,2,.05.57-.13.57-.27-.11-.3-.41-.36a1.88,1.88,0,0,1-1.29-.7c-.18-.32-1.61-3.45-1.75-3.74a.54.54,0,0,1,.06-.41c.67-.76,1.8-2,2.43-2.66a4,4,0,0,1,2.18-1.08c.27-.06.5-.16.5-.35s-.16-.27-.5-.27c-.49,0-1.09.08-1.74.08s-1,0-1.33,0a.45.45,0,0,0-.41.35c0,.11.08.21.35.27.51.13.62.32.27.73-.63.76-1.46,1.62-2.1,2.31-.08.08-.17.06-.2,0a20,20,0,0,1-1.15-2.43c-.14-.34.1-.56.51-.66.21-.06.38-.09.38-.24a.37.37,0,0,0-.39-.33c-.46,0-.89,0-1.52,0s-1.49-.08-1.65-.08-.52.11-.52.3" transform="translate(-0.61 -0.05)"/><path d="M169.94,70.25a.44.44,0,0,0-.38.29c-.09.18-.32.7-.39.81a.23.23,0,0,1-.13.11c-.11,0-.67,0-.75,0a.5.5,0,0,0-.2.36c0,.1,0,.15.09.16l.73,0s.05.07,0,.1c-.22.66-.75,2.58-.88,3.07a2.86,2.86,0,0,0-.09.54c0,.08.13.43.42.43a3.72,3.72,0,0,0,1.74-1.2.67.67,0,0,0,.13-.4c0-.07-.12-.19-.16-.16a2.85,2.85,0,0,1-1,.69c-.1,0-.14-.1,0-.48.33-1.18.64-2.26.73-2.5a.2.2,0,0,1,.13-.11l1.08,0a1,1,0,0,0,.23-.44c0-.07,0-.14-.08-.14h-1.06a.09.09,0,0,1-.1-.1,7.38,7.38,0,0,0,.28-1s-.16-.1-.32-.1" transform="translate(-0.61 -0.05)"/><path d="M171.83,73.21a.67.67,0,0,0-.17.12.93.93,0,0,0-.13.4.21.21,0,0,0,.19.21c.5,0,1.48-.07,2.21-.11a.89.89,0,0,0,.18-.14,1.24,1.24,0,0,0,.11-.44s-.08-.22-.15-.22c-.29,0-2,.14-2.24.18" transform="translate(-0.61 -0.05)"/><path d="M174.22,75.88c0,.11.16.18.38.18s.9-.06,1.62-.06c.54,0,.63,0,1.06,0,.22,0,.33-.1.33-.18s-.11-.19-.27-.22c-.73-.16-.86-.22-.67-1,.1-.46.71-2.71.91-3.46.27-1,.46-1.57.52-1.76a.15.15,0,0,0-.13-.15,1,1,0,0,0-.25.08,11,11,0,0,1-1.58.37c-.14,0-.3.12-.3.24s.19.17.3.18.46,0,.67,0c.05,0,.08.15.05.22-.05.26-.11.53-.5,2-.31,1.19-.5,1.74-.72,2.44-.15.51-.36.68-1,.79-.25,0-.46.1-.46.26" transform="translate(-0.61 -0.05)"/><path d="M245.24,64.11c0,.15.19.23.43.29.57.16,1.08.27,1.38.89s1,2.26,1.46,3.2a.85.85,0,0,1,0,.42A26.75,26.75,0,0,1,245.7,72a4.2,4.2,0,0,1-2.07,1.08c-.39.08-.52.17-.52.31s.22.29.51.29.71-.05,1.67-.05c.66,0,1.16.05,1.52.05s.54-.11.54-.29-.08-.23-.3-.31c-.76-.24-.73-.56-.67-.62a32,32,0,0,1,2.45-2.72.16.16,0,0,1,.22,0,21.55,21.55,0,0,1,1,2.2c.27.62.26.92-.51,1.08-.38.07-.44.23-.44.36s.19.27.46.27.83-.05,1.37-.05,1.84.05,2,.05c.33,0,.57-.13.57-.27s-.11-.3-.41-.36a1.88,1.88,0,0,1-1.29-.7c-.18-.32-1.61-3.45-1.75-3.74a.54.54,0,0,1,.06-.41c.67-.76,1.8-2,2.44-2.66a3.92,3.92,0,0,1,2.17-1.08c.27-.06.5-.16.5-.35s-.16-.27-.5-.27c-.49,0-1.09.08-1.75.08s-1,0-1.31,0a.45.45,0,0,0-.42.35c0,.11.08.21.35.27.51.13.62.32.27.73-.63.76-1.46,1.62-2.1,2.31-.08.08-.17.06-.2,0a20,20,0,0,1-1.15-2.43c-.14-.34.1-.56.51-.66.21-.06.38-.09.38-.24a.37.37,0,0,0-.39-.33c-.47,0-.89,0-1.52,0s-1.49-.08-1.65-.08-.52.11-.52.3" transform="translate(-0.61 -0.05)"/><path d="M256.84,70.25a.44.44,0,0,0-.38.29c-.09.18-.32.7-.39.81a.23.23,0,0,1-.13.11c-.11,0-.68,0-.75,0a.5.5,0,0,0-.2.36c0,.1,0,.15.09.16l.73,0s.05.07,0,.1c-.22.66-.75,2.58-.89,3.07a3.47,3.47,0,0,0-.08.54c0,.08.13.43.42.43A3.72,3.72,0,0,0,257,75a.67.67,0,0,0,.13-.4c0-.07-.12-.19-.16-.16a2.85,2.85,0,0,1-1,.69c-.1,0-.14-.1,0-.48.33-1.18.64-2.26.73-2.5a.2.2,0,0,1,.13-.11l1.08,0a1,1,0,0,0,.23-.44c0-.07,0-.14-.08-.14H257a.09.09,0,0,1-.1-.1,7.38,7.38,0,0,0,.28-1s-.17-.1-.32-.1" transform="translate(-0.61 -0.05)"/><path d="M129.31,38.1Z" transform="translate(-0.61 -0.05)" fill="none" stroke="#000" stroke-miterlimit="10" stroke-width="0" opacity="0"/></g><polygon points="128.39 38.45 128.39 38.45 128.39 38.45 128.39 38.45 128.39 38.45 128.39 38.45 128.39 38.45 128.39 38.45 128.39 38.45 128.39 38.45 128.39 38.45 128.39 38.45 128.39 38.45 128.39 38.45 128.39 38.45 128.39 38.45 128.39 38.45 128.39 38.45 128.39 38.45 128.39 38.45 128.39 38.45 128.39 38.45 128.39 38.45 128.39 38.45 128.39 38.45 128.39 38.45 128.39 38.45 128.39 38.45 128.39 38.45 128.39 38.45 128.39 38.45 128.39 38.45 128.39 38.45 128.39 38.45 128.39 38.45 128.39 38.45 128.39 38.45 128.39 38.45 128.39 38.45 128.39 38.45 128.39 38.45 128.39 38.45 128.39 38.45 128.39 38.45 128.39 38.45 128.39 38.45 128.39 38.45 128.39 38.45 128.39 38.45 128.39 38.45 128.39 38.45 128.39 38.45 128.39 38.45 128.39 38.45 128.39 38.45 128.39 38.45 128.39 38.45 128.39 38.45 128.39 38.45 128.39 38.45 128.39 38.45 128.39 38.45 128.39 38.45 128.39 38.45 128.39 38.45 128.39 38.45 128.39 38.45 128.39 38.45 128.39 38.45 128.39 38.45 128.39 38.45 128.39 38.45 128.39 38.45 128.39 38.45 128.39 38.45 128.39 38.45 128.39 38.45 128.39 38.45 128.39 38.45 128.39 38.45 128.39 38.45 128.39 38.45 128.39 38.45 128.39 38.45 128.39 38.45 128.39 38.45 128.39 38.45 128.39 38.45 128.39 38.45 128.39 38.45 128.39 38.45 128.39 38.45 128.39 38.45 128.39 38.45 128.39 38.45 128.39 38.45 128.39 38.45 128.39 38.45 128.39 38.45 128.39 38.45 128.39 38.45 128.39 38.45 128.39 38.45 128.39 38.45 128.39 38.45 128.39 38.45 128.39 38.45 128.39 38.45 128.39 38.45 128.39 38.45 128.39 38.45 128.39 38.45 128.39 38.45 128.39 38.45 128.39 38.45 128.39 38.45 128.39 38.45 128.39 38.45 128.39 38.45 128.39 38.45 128.39 38.45 128.39 38.45 128.39 38.45 128.39 38.45 128.39 38.45 128.39 38.45 128.39 38.45 128.39 38.45 128.39 38.45 128.39 38.45 128.39 38.45 128.39 38.45 128.39 38.45 128.39 38.45 128.39 38.45 128.39 38.45 128.39 38.45 128.39 38.45 128.39 38.45 128.39 38.45 128.39 38.45 128.39 38.45 128.39 38.45 128.39 38.45 128.39 38.45 128.39 38.45 128.39 38.45 128.39 38.45 128.39 38.45 128.39 38.45 128.39 38.45 128.39 38.45 128.39 38.45 128.39 38.45 128.39 38.45 128.39 38.45 128.39 38.45 128.39 38.45 128.39 38.45 128.39 38.45 128.39 38.45 128.39 38.45 128.39 38.45 128.39 38.45 128.39 38.45 128.39 38.45 128.39 38.45 128.39 38.45 128.39 38.45 128.39 38.45 128.39 38.45 128.39 38.45 128.39 38.45 128.39 38.45 128.39 38.45 128.39 38.45 128.39 38.45 128.39 38.45 128.39 38.45 128.39 38.45 128.39 38.45 128.39 38.45 128.39 38.45 128.39 38.45 128.39 38.45 128.39 38.45 128.39 38.45" fill="none" stroke="#000" stroke-miterlimit="10" stroke-width="0" opacity="0"/></svg>