<svg xmlns="http://www.w3.org/2000/svg" xmlns:xlink="http://www.w3.org/1999/xlink" viewBox="0 0 452.79 125.35"><defs><style>.a,.c,.t,.v{fill:none;}.b{clip-path:url(#a);}.c,.t,.v{stroke:#000;stroke-miterlimit:10;}.c{stroke-width:0.72px;}.d{clip-path:url(#b);}.e{clip-path:url(#c);}.f{clip-path:url(#e);}.g{clip-path:url(#f);}.h{clip-path:url(#h);}.i{clip-path:url(#i);}.j{clip-path:url(#k);}.k{clip-path:url(#l);}.l{clip-path:url(#n);}.m{clip-path:url(#o);}.n{clip-path:url(#q);}.o{clip-path:url(#r);}.p{clip-path:url(#t);}.q{clip-path:url(#u);}.r{clip-path:url(#w);}.s{clip-path:url(#x);}.t{stroke-width:0.64px;}.u{fill:#046a38;}.v{stroke-width:0px;opacity:0;}</style><clipPath id="a" transform="translate(-0.64 -0.44)"><rect class="a" width="454" height="126"/></clipPath><clipPath id="b" transform="translate(-0.64 -0.44)"><rect class="a" x="39.51" width="5.65" height="12.54"/></clipPath><clipPath id="c" transform="translate(-0.64 -0.44)"><rect class="a" x="107.46" width="5.65" height="12.54"/></clipPath><clipPath id="e" transform="translate(-0.64 -0.44)"><rect class="a" x="19.08" y="17.81" width="12.56" height="5.65"/></clipPath><clipPath id="f" transform="translate(-0.64 -0.44)"><rect class="a" x="19.08" y="41.59" width="12.56" height="5.65"/></clipPath><clipPath id="h" transform="translate(-0.64 -0.44)"><rect class="a" x="141.41" width="5.65" height="12.54"/></clipPath><clipPath id="i" transform="translate(-0.64 -0.44)"><rect class="a" x="209.15" width="5.65" height="12.54"/></clipPath><clipPath id="k" transform="translate(-0.64 -0.44)"><rect class="a" x="120.98" y="17.81" width="12.56" height="5.65"/></clipPath><clipPath id="l" transform="translate(-0.64 -0.44)"><rect class="a" x="120.98" y="41.59" width="12.56" height="5.65"/></clipPath><clipPath id="n" transform="translate(-0.64 -0.44)"><rect class="a" x="239.4" width="5.65" height="12.54"/></clipPath><clipPath id="o" transform="translate(-0.64 -0.44)"><rect class="a" x="307.14" width="5.65" height="12.54"/></clipPath><clipPath id="q" transform="translate(-0.64 -0.44)"><rect class="a" x="352.05" width="5.65" height="12.54"/></clipPath><clipPath id="r" transform="translate(-0.64 -0.44)"><rect class="a" x="420" width="5.65" height="12.54"/></clipPath><clipPath id="t" transform="translate(-0.64 -0.44)"><rect class="a" x="326.14" y="17.93" width="12.56" height="5.65"/></clipPath><clipPath id="u" transform="translate(-0.64 -0.44)"><rect class="a" x="326.14" y="41.59" width="12.56" height="5.65"/></clipPath><clipPath id="w" transform="translate(-0.64 -0.44)"><rect class="a" x="432.7" y="17.93" width="12.56" height="5.65"/></clipPath><clipPath id="x" transform="translate(-0.64 -0.44)"><rect class="a" x="432.7" y="41.59" width="12.56" height="5.65"/></clipPath></defs><title>nonstationaritiesAsset 2</title><g class="b"><path d="M22.4.59A10.59,10.59,0,0,1,20.71.52c-.14,0-.31,0-.47-.06s-.24.16-.37.37a11.62,11.62,0,0,0-.64,1.89c0,.24,0,.47.2.47s.27-.09.42-.38a4,4,0,0,1,.77-1.06c.33-.33.71-.4,1.46-.43,1.05-.05,1.92-.05,3-.05.08,0,.08.18,0,.26-.32.36-5.52,6.19-7.67,8.32-.23.23-.12.54,0,.54.35,0,1.27-.09,2.22-.09.73,0,4.36.09,5,.09a2.69,2.69,0,0,0,1-.14,1.54,1.54,0,0,0,.46-.63,8,8,0,0,0,.66-1.75c0-.19,0-.4-.19-.4s-.29.1-.51.48a4.56,4.56,0,0,1-1.31,1.46,4.31,4.31,0,0,1-1.84.3c-.51,0-2.89-.16-3.15-.22-.09,0-.09-.13,0-.19,1.37-1.5,4.8-5.36,5.93-6.52s1.59-1.6,1.7-1.71a.76.76,0,0,0,.21-.43.29.29,0,0,0-.29-.2c-.14,0-3.43.15-4.94.15" transform="translate(-0.64 -0.44)"/><path d="M28,12.58c0,.11.16.18.38.18s.91-.06,1.62-.06c.55,0,.64,0,1.06,0,.22,0,.33-.1.33-.18s-.11-.18-.26-.22c-.74-.15-.86-.21-.67-1,.1-.47.7-2.71.9-3.47.27-1,.47-1.56.53-1.75A.16.16,0,0,0,31.76,6a1.68,1.68,0,0,0-.24.08,11,11,0,0,1-1.59.38c-.13,0-.3.11-.3.23s.19.17.3.18.46,0,.67,0c.06,0,.08.14.06.22-.06.26-.11.52-.51,2-.31,1.19-.5,1.73-.72,2.44-.15.5-.36.68-1,.79-.24,0-.46.1-.46.26" transform="translate(-0.64 -0.44)"/><path d="M124.3.59a10.59,10.59,0,0,1-1.69-.07c-.14,0-.31,0-.47-.06s-.24.16-.37.37a11.62,11.62,0,0,0-.64,1.89c0,.24,0,.47.2.47s.26-.09.42-.38a4,4,0,0,1,.77-1.06c.33-.33.71-.4,1.46-.43,1-.05,1.92-.05,3-.05.07,0,.07.18,0,.26-.32.36-5.52,6.19-7.66,8.32-.24.23-.13.54,0,.54.35,0,1.27-.09,2.22-.09.73,0,4.36.09,5,.09a2.74,2.74,0,0,0,1-.14,1.54,1.54,0,0,0,.46-.63,8,8,0,0,0,.66-1.75c0-.19,0-.4-.19-.4s-.29.1-.51.48a4.56,4.56,0,0,1-1.31,1.46,4.31,4.31,0,0,1-1.84.3c-.51,0-2.89-.16-3.15-.22-.09,0-.09-.13,0-.19,1.37-1.5,4.8-5.36,5.93-6.52s1.59-1.6,1.7-1.71a.76.76,0,0,0,.21-.43.29.29,0,0,0-.29-.2c-.14,0-3.43.15-4.94.15" transform="translate(-0.64 -0.44)"/><path d="M132.62,6a2.72,2.72,0,0,0-2.23,1.41c-.07.14-.08.38.09.38a.46.46,0,0,0,.25-.17,2.46,2.46,0,0,1,1.54-.87,1,1,0,0,1,1,1.1c0,.83-.67,1.49-1.38,2.18s-1.75,1.62-2.57,2.29a.31.31,0,0,0-.1.25.36.36,0,0,0,.29.17h1.17c.76,0,1.6.06,2.3,0a1.09,1.09,0,0,0,.38-.16,4.32,4.32,0,0,0,.68-1.18c.06-.13.08-.41-.08-.41s-.18.08-.31.24a1.87,1.87,0,0,1-.81.61c-.37.05-1.17,0-2.19,0,0,0-.09,0-.06-.09,1-.85,2-1.75,2.59-2.25a2.7,2.7,0,0,0,1.11-1.91A1.62,1.62,0,0,0,132.62,6" transform="translate(-0.64 -0.44)"/><path d="M231.67,5.39a.86.86,0,1,0,0,1.71.86.86,0,1,0,0-1.71m-4.56,0a.86.86,0,1,0,0,1.71.86.86,0,1,0,0-1.71Zm-4.56,0a.86.86,0,1,0,0,1.71.86.86,0,1,0,0-1.71Z" transform="translate(-0.64 -0.44)"/><path d="M324,.59a10.59,10.59,0,0,1-1.69-.07c-.14,0-.31,0-.47-.06s-.24.16-.37.37a11.62,11.62,0,0,0-.64,1.89c0,.24,0,.47.2.47s.26-.09.42-.38a4,4,0,0,1,.77-1.06c.33-.33.71-.4,1.46-.43,1.05-.05,1.92-.05,3-.05.07,0,.07.18,0,.26-.32.36-5.52,6.19-7.66,8.32-.24.23-.13.54,0,.54.35,0,1.27-.09,2.22-.09.73,0,4.36.09,5,.09a2.74,2.74,0,0,0,1-.14,1.54,1.54,0,0,0,.46-.63,8,8,0,0,0,.66-1.75c0-.19,0-.4-.19-.4s-.29.1-.51.48a4.56,4.56,0,0,1-1.31,1.46,4.31,4.31,0,0,1-1.84.3c-.51,0-2.89-.16-3.15-.22-.09,0-.09-.13,0-.19,1.37-1.5,4.8-5.36,5.93-6.52s1.59-1.6,1.7-1.71a.76.76,0,0,0,.21-.43.29.29,0,0,0-.29-.2c-.14,0-3.43.15-4.94.15" transform="translate(-0.64 -0.44)"/><path d="M331.63,6.94a.48.48,0,0,0-.38.29c-.09.18-.32.71-.39.82a.28.28,0,0,1-.13.11c-.1,0-.67,0-.75,0a.57.57,0,0,0-.2.37c0,.1,0,.15.09.16l.74,0s0,.07,0,.1c-.21.66-.75,2.58-.88,3.07a3,3,0,0,0-.09.53c0,.08.13.44.42.44a3.63,3.63,0,0,0,1.74-1.21.67.67,0,0,0,.14-.4c0-.06-.12-.19-.17-.15-.37.32-.82.69-1,.69s-.13-.1,0-.48c.33-1.19.65-2.27.74-2.5a.18.18,0,0,1,.12-.11l1.08,0c.06,0,.24-.37.24-.45s0-.13-.08-.13h-1.06a.09.09,0,0,1-.1-.1A9.27,9.27,0,0,0,332,7s-.17-.1-.33-.1" transform="translate(-0.64 -0.44)"/><path d="M333.73,10.17H339a.3.3,0,0,0,.3-.3.29.29,0,0,0-.3-.3h-5.25a.3.3,0,0,0-.31.3.31.31,0,0,0,.31.3" transform="translate(-0.64 -0.44)"/><path d="M340.51,12.58c0,.11.16.18.38.18s.91-.06,1.62-.06c.55,0,.63,0,1.06,0,.22,0,.34-.1.34-.18s-.12-.18-.27-.22c-.74-.15-.86-.21-.67-1,.1-.47.7-2.71.9-3.47.27-1,.47-1.56.52-1.75a.14.14,0,0,0-.13-.16,1.68,1.68,0,0,0-.24.08,11,11,0,0,1-1.59.38c-.13,0-.3.11-.3.23s.19.17.3.18.46,0,.67,0c.06,0,.08.14.06.22-.06.26-.12.52-.5,2-.32,1.19-.51,1.73-.73,2.44-.15.5-.36.68-1,.79-.24,0-.46.1-.46.26" transform="translate(-0.64 -0.44)"/><path d="M436.8.59a10.59,10.59,0,0,1-1.69-.07c-.14,0-.32,0-.47-.06s-.24.16-.37.37a11.62,11.62,0,0,0-.64,1.89c0,.24,0,.47.19.47s.28-.09.44-.38A3.75,3.75,0,0,1,435,1.75c.33-.33.71-.4,1.46-.43,1-.05,1.92-.05,3-.05.08,0,.08.18,0,.26-.32.36-5.52,6.19-7.67,8.32-.23.23-.12.54,0,.54.35,0,1.27-.09,2.22-.09.73,0,4.36.09,5,.09a2.69,2.69,0,0,0,1-.14,1.54,1.54,0,0,0,.46-.63,8,8,0,0,0,.66-1.75c0-.19,0-.4-.19-.4s-.29.1-.51.48a4.56,4.56,0,0,1-1.31,1.46,4.31,4.31,0,0,1-1.84.3c-.51,0-2.89-.16-3.15-.22-.09,0-.09-.13,0-.19,1.37-1.5,4.8-5.36,5.93-6.52s1.59-1.6,1.7-1.71A.76.76,0,0,0,442,.64a.29.29,0,0,0-.29-.2c-.14,0-3.43.15-4.94.15" transform="translate(-0.64 -0.44)"/><path d="M444.53,6.94a.47.47,0,0,0-.38.29c-.09.18-.32.71-.39.82a.28.28,0,0,1-.13.11c-.1,0-.67,0-.75,0a.57.57,0,0,0-.2.37c0,.1.05.15.09.16l.74,0s0,.07,0,.1c-.21.66-.75,2.58-.88,3.07a3,3,0,0,0-.09.53c0,.08.13.44.42.44a3.63,3.63,0,0,0,1.74-1.21.67.67,0,0,0,.14-.4c0-.06-.12-.19-.17-.15-.37.32-.82.69-1,.69s-.13-.1,0-.48c.34-1.19.65-2.27.74-2.5a.18.18,0,0,1,.12-.11l1.08,0c.06,0,.24-.37.24-.45s0-.13-.08-.13h-1.06a.09.09,0,0,1-.1-.1,9.27,9.27,0,0,0,.28-1s-.17-.1-.33-.1" transform="translate(-0.64 -0.44)"/><path d="M18.73,52.61c0,.14.19.22.43.29.57.16,1.08.27,1.38.89S21.59,56,22,57a.78.78,0,0,1,0,.43,25.86,25.86,0,0,1-2.8,3.05,4.09,4.09,0,0,1-2.06,1.08c-.4.08-.53.18-.53.32s.22.29.51.29.72,0,1.67,0c.67,0,1.16,0,1.53,0s.54-.11.54-.29-.08-.24-.31-.32c-.76-.24-.73-.55-.66-.62a33.34,33.34,0,0,1,2.44-2.71.15.15,0,0,1,.23,0,23.17,23.17,0,0,1,1,2.19c.27.62.25.92-.51,1.08-.38.08-.44.24-.44.37s.19.27.46.27.82,0,1.36,0,1.85,0,2,0c.33,0,.57-.13.57-.27s-.11-.31-.41-.37a1.8,1.8,0,0,1-1.29-.7c-.17-.31-1.6-3.45-1.75-3.73a.56.56,0,0,1,.07-.42c.67-.76,1.79-2,2.43-2.65a3.9,3.9,0,0,1,2.18-1.08c.27-.06.49-.16.49-.35s-.16-.27-.49-.27c-.5,0-1.1.08-1.75.08s-1,0-1.32,0a.44.44,0,0,0-.41.35c0,.11.08.2.35.27.5.12.62.32.27.73-.64.76-1.47,1.62-2.1,2.3-.08.08-.18.07-.21,0a19.42,19.42,0,0,1-1.14-2.43c-.15-.33.09-.56.51-.65.2-.06.38-.1.38-.24a.37.37,0,0,0-.4-.33c-.46,0-.89,0-1.51,0s-1.49-.08-1.65-.08-.53.11-.53.3" transform="translate(-0.64 -0.44)"/><path d="M28.21,64.38c0,.11.16.18.38.18s.91-.06,1.62-.06c.55,0,.64,0,1.06,0,.22,0,.33-.1.33-.18s-.11-.18-.26-.22c-.74-.16-.86-.21-.67-1,.1-.47.7-2.71.9-3.47.27-1,.47-1.56.53-1.75a.16.16,0,0,0-.14-.16,1.68,1.68,0,0,0-.24.08,11,11,0,0,1-1.59.38c-.13,0-.3.11-.3.23s.19.17.3.18.46,0,.67,0c.06,0,.08.14.06.22-.06.26-.11.52-.51,2-.31,1.19-.5,1.73-.72,2.44-.15.5-.36.68-1,.79-.24,0-.46.1-.46.26" transform="translate(-0.64 -0.44)"/><path d="M120.63,52.61c0,.14.19.22.43.29.57.16,1.08.27,1.38.89s1,2.25,1.47,3.19a.78.78,0,0,1,0,.43,25.86,25.86,0,0,1-2.8,3.05A4.09,4.09,0,0,1,119,61.54c-.4.08-.53.18-.53.32s.23.29.51.29.72,0,1.67,0c.67,0,1.16,0,1.53,0s.54-.11.54-.29-.08-.24-.31-.32c-.76-.24-.73-.55-.66-.62a33.45,33.45,0,0,1,2.45-2.71c0-.07.19,0,.22,0a23.17,23.17,0,0,1,1,2.19c.27.62.25.92-.51,1.08-.38.08-.44.24-.44.37s.19.27.46.27.82,0,1.36,0,1.85,0,2,0c.33,0,.57-.13.57-.27s-.11-.31-.41-.37a1.8,1.8,0,0,1-1.29-.7c-.17-.31-1.6-3.45-1.75-3.73a.56.56,0,0,1,.07-.42c.67-.76,1.79-2,2.43-2.65a3.9,3.9,0,0,1,2.18-1.08c.27-.06.49-.16.49-.35s-.16-.27-.49-.27c-.5,0-1.1.08-1.75.08s-1,0-1.32,0a.44.44,0,0,0-.41.35c0,.11.08.2.35.27.5.12.61.32.27.73-.64.76-1.47,1.62-2.1,2.3-.08.08-.18.07-.21,0a19.42,19.42,0,0,1-1.14-2.43c-.15-.33.09-.56.51-.65.2-.06.38-.1.38-.24a.37.37,0,0,0-.4-.33c-.46,0-.89,0-1.51,0s-1.49-.08-1.65-.08-.53.11-.53.3" transform="translate(-0.64 -0.44)"/><path d="M132.92,57.76a2.72,2.72,0,0,0-2.23,1.41c-.07.14-.08.38.09.38a.46.46,0,0,0,.25-.17,2.46,2.46,0,0,1,1.54-.87,1,1,0,0,1,1,1.1c0,.83-.67,1.49-1.38,2.18s-1.75,1.62-2.57,2.29a.35.35,0,0,0-.1.25.37.37,0,0,0,.29.17H131c.76,0,1.6.06,2.3,0a1.09,1.09,0,0,0,.38-.16,4.4,4.4,0,0,0,.68-1.17c.06-.14.08-.42-.08-.42s-.18.08-.31.24a1.87,1.87,0,0,1-.81.61c-.37,0-1.17,0-2.19,0,0,0-.09,0-.06-.09,1-.85,2-1.75,2.59-2.25a2.7,2.7,0,0,0,1.11-1.91,1.62,1.62,0,0,0-1.67-1.65" transform="translate(-0.64 -0.44)"/><path d="M320.33,52.61c0,.14.19.22.43.29.57.16,1.08.27,1.38.89S323.19,56,323.61,57a.78.78,0,0,1,0,.43,25.86,25.86,0,0,1-2.8,3.05,4.09,4.09,0,0,1-2.06,1.08c-.4.08-.53.18-.53.32s.22.29.51.29.72,0,1.67,0c.67,0,1.16,0,1.53,0,.22,0,.54-.11.54-.29s-.08-.24-.31-.32c-.76-.24-.73-.55-.66-.62a35.31,35.31,0,0,1,2.44-2.71.15.15,0,0,1,.23,0,23.17,23.17,0,0,1,1,2.19c.27.62.25.92-.51,1.08-.38.08-.45.24-.45.37s.2.27.47.27.82,0,1.36,0,1.85,0,2,0c.34,0,.57-.13.57-.27s-.11-.31-.41-.37a1.8,1.8,0,0,1-1.29-.7c-.17-.31-1.6-3.45-1.75-3.73a.56.56,0,0,1,.07-.42c.66-.76,1.79-2,2.43-2.65a3.9,3.9,0,0,1,2.18-1.08c.27-.06.49-.16.49-.35s-.16-.27-.49-.27c-.5,0-1.1.08-1.75.08s-1,0-1.32,0a.44.44,0,0,0-.41.35c0,.11.08.2.35.27.5.12.61.32.27.73-.64.76-1.47,1.62-2.1,2.3-.08.08-.18.07-.21,0a19.42,19.42,0,0,1-1.14-2.43c-.15-.33.09-.56.51-.65.2-.06.38-.1.38-.24a.37.37,0,0,0-.4-.33c-.46,0-.89,0-1.51,0s-1.49-.08-1.65-.08-.53.11-.53.3" transform="translate(-0.64 -0.44)"/><path d="M331.83,58.74a.48.48,0,0,0-.38.29c-.09.18-.32.71-.39.82a.28.28,0,0,1-.13.11c-.1,0-.67,0-.75,0a.54.54,0,0,0-.2.37c0,.1,0,.15.09.16l.74,0s0,.07,0,.1c-.21.66-.75,2.58-.88,3.07a2.82,2.82,0,0,0-.09.53c0,.08.13.44.42.44A3.63,3.63,0,0,0,332,63.47a.65.65,0,0,0,.14-.4c0-.07-.13-.19-.17-.15a2.85,2.85,0,0,1-1,.69c-.1,0-.13-.1,0-.48.34-1.18.65-2.27.74-2.5a.18.18,0,0,1,.12-.11l1.08,0c.06,0,.24-.37.24-.45s0-.13-.08-.13H332a.09.09,0,0,1-.1-.1,9.27,9.27,0,0,0,.28-1s-.17-.1-.33-.1" transform="translate(-0.64 -0.44)"/><path d="M333.93,62h5.25a.3.3,0,0,0,.3-.3.29.29,0,0,0-.3-.3h-5.25a.29.29,0,0,0-.3.3.3.3,0,0,0,.3.3" transform="translate(-0.64 -0.44)"/><path d="M340.71,64.38c0,.11.16.18.38.18s.91-.06,1.62-.06c.55,0,.64,0,1.06,0,.22,0,.33-.1.33-.18s-.11-.18-.26-.22c-.74-.16-.86-.21-.67-1,.1-.47.7-2.71.9-3.47.27-1,.47-1.56.53-1.75a.16.16,0,0,0-.14-.16,1.68,1.68,0,0,0-.24.08,11,11,0,0,1-1.59.38c-.13,0-.3.11-.3.23s.19.17.3.18.46,0,.67,0c.06,0,.08.14.06.22-.06.26-.11.52-.51,2-.31,1.19-.5,1.73-.72,2.44-.15.5-.36.68-1,.79-.25,0-.46.1-.46.26" transform="translate(-0.64 -0.44)"/><path d="M433.13,52.61c0,.14.19.22.43.29.57.16,1.08.27,1.38.89S436,56,436.41,57a.78.78,0,0,1,0,.43,25.86,25.86,0,0,1-2.8,3.05,4.09,4.09,0,0,1-2.06,1.08c-.4.08-.53.18-.53.32s.23.29.51.29.72,0,1.67,0c.67,0,1.16,0,1.53,0s.54-.11.54-.29-.08-.24-.31-.32c-.76-.24-.73-.55-.66-.62a31.68,31.68,0,0,1,2.45-2.71c0-.07.19,0,.22,0a23.17,23.17,0,0,1,1,2.19c.27.62.25.92-.51,1.08-.38.08-.44.24-.44.37s.19.27.46.27.82,0,1.36,0,1.85,0,2,0c.33,0,.57-.13.57-.27s-.11-.31-.41-.37a1.8,1.8,0,0,1-1.29-.7c-.17-.31-1.6-3.45-1.75-3.73a.56.56,0,0,1,.07-.42c.66-.76,1.79-2,2.43-2.65a3.9,3.9,0,0,1,2.18-1.08c.27-.06.49-.16.49-.35s-.16-.27-.49-.27c-.5,0-1.1.08-1.75.08s-1,0-1.32,0a.44.44,0,0,0-.41.35c0,.11.08.2.35.27.5.12.62.32.27.73-.64.76-1.47,1.62-2.1,2.3-.08.08-.18.07-.21,0a19.42,19.42,0,0,1-1.14-2.43c-.15-.33.09-.56.51-.65.2-.06.38-.1.38-.24a.37.37,0,0,0-.4-.33c-.46,0-.89,0-1.51,0s-1.49-.08-1.65-.08-.53.11-.53.3" transform="translate(-0.64 -0.44)"/><path d="M444.73,58.74a.48.48,0,0,0-.38.29c-.09.18-.32.71-.39.82a.28.28,0,0,1-.13.11c-.1,0-.67,0-.75,0a.54.54,0,0,0-.2.37c0,.1,0,.15.09.16l.74,0s0,.07,0,.1c-.21.66-.75,2.58-.88,3.07a2.82,2.82,0,0,0-.09.53c0,.08.13.44.42.44a3.63,3.63,0,0,0,1.74-1.21.65.65,0,0,0,.14-.4c0-.07-.13-.19-.17-.15a2.85,2.85,0,0,1-1,.69c-.1,0-.13-.1,0-.48.33-1.18.65-2.27.74-2.5a.18.18,0,0,1,.12-.11l1.08,0c.06,0,.24-.37.24-.45s0-.13-.08-.13h-1.06a.09.09,0,0,1-.1-.1,9.27,9.27,0,0,0,.28-1s-.17-.1-.33-.1" transform="translate(-0.64 -0.44)"/><line class="c" x1="44.52" y1="5.81" x2="106.82" y2="5.81"/></g><g class="d"><path d="M47.7,8.54a.36.36,0,0,0,.36.37.36.36,0,0,0,.29-.15,5.71,5.71,0,0,1,3.19-2.14.37.37,0,0,0,.31-.37.36.36,0,0,0-.31-.35,5.66,5.66,0,0,1-3.19-2.14.36.36,0,0,0-.29-.15A.36.36,0,0,0,47.7,4c0,.37,1.06,1.14,1.83,1.91H40.88a.37.37,0,0,0-.37.36.36.36,0,0,0,.37.37h8.65c-.73.75-1.83,1.54-1.83,1.92" transform="translate(-0.64 -0.44)"/></g><g class="e"><path d="M107.94,4c0,.36,1.06,1.14,1.83,1.92h-8.65a.38.38,0,0,0-.37.37.38.38,0,0,0,.37.36h8.65c-.74.73-1.83,1.53-1.83,1.91a.36.36,0,0,0,.36.37.36.36,0,0,0,.29-.15,5.66,5.66,0,0,1,3.19-2.14.36.36,0,0,0,.31-.35.37.37,0,0,0-.31-.37,5.71,5.71,0,0,1-3.19-2.14.36.36,0,0,0-.29-.15.36.36,0,0,0-.36.37" transform="translate(-0.64 -0.44)"/></g><g class="b"><line class="c" x1="24.72" y1="23.01" x2="24.72" y2="41.14"/></g><g class="f"><path d="M23.06,26a.36.36,0,0,0-.37.36.36.36,0,0,0,.15.29A5.71,5.71,0,0,1,25,29.84a.37.37,0,0,0,.37.31.36.36,0,0,0,.35-.31,5.66,5.66,0,0,1,2.14-3.19.36.36,0,0,0,.15-.29.36.36,0,0,0-.37-.36c-.37,0-1.14,1.06-1.91,1.83V19.18a.37.37,0,0,0-.36-.37.36.36,0,0,0-.37.37v8.65c-.75-.74-1.54-1.83-1.92-1.83" transform="translate(-0.64 -0.44)"/></g><g class="g"><path d="M27.64,42.14c-.36,0-1.14,1.06-1.92,1.83V35.32a.38.38,0,0,0-.37-.37.38.38,0,0,0-.36.37V44c-.73-.74-1.53-1.83-1.91-1.83a.36.36,0,0,0-.37.36.36.36,0,0,0,.15.29A5.66,5.66,0,0,1,25,46a.36.36,0,0,0,.35.31.37.37,0,0,0,.37-.31,5.71,5.71,0,0,1,2.14-3.19A.36.36,0,0,0,28,42.5a.36.36,0,0,0-.37-.36" transform="translate(-0.64 -0.44)"/></g><g class="b"><line class="c" x1="146.42" y1="5.81" x2="208.51" y2="5.81"/></g><g class="h"><path d="M149.6,8.54a.36.36,0,0,0,.36.37.35.35,0,0,0,.29-.15,5.71,5.71,0,0,1,3.19-2.14.37.37,0,0,0,.31-.37.36.36,0,0,0-.31-.35,5.66,5.66,0,0,1-3.19-2.14.35.35,0,0,0-.29-.15.36.36,0,0,0-.36.37c0,.37,1.06,1.14,1.83,1.91h-8.65a.37.37,0,0,0-.37.36.36.36,0,0,0,.37.37h8.65c-.73.75-1.83,1.54-1.83,1.92" transform="translate(-0.64 -0.44)"/></g><g class="i"><path d="M209.64,4c0,.36,1.06,1.14,1.83,1.92h-8.65a.38.38,0,0,0-.37.37.38.38,0,0,0,.37.36h8.65c-.74.73-1.83,1.53-1.83,1.91a.36.36,0,0,0,.36.37.36.36,0,0,0,.29-.15,5.66,5.66,0,0,1,3.19-2.14.36.36,0,0,0,.31-.35.37.37,0,0,0-.31-.37,5.71,5.71,0,0,1-3.19-2.14.36.36,0,0,0-.29-.15.36.36,0,0,0-.36.37" transform="translate(-0.64 -0.44)"/></g><g class="b"><line class="c" x1="126.62" y1="23.01" x2="126.62" y2="41.14"/></g><g class="j"><path d="M125,26a.36.36,0,0,0-.37.36.36.36,0,0,0,.15.29,5.71,5.71,0,0,1,2.14,3.19.37.37,0,0,0,.37.31.36.36,0,0,0,.35-.31,5.66,5.66,0,0,1,2.14-3.19.36.36,0,0,0,.15-.29.36.36,0,0,0-.37-.36c-.36,0-1.15,1.06-1.91,1.83V19.18a.37.37,0,0,0-.36-.37.36.36,0,0,0-.37.37v8.65c-.75-.74-1.54-1.83-1.92-1.83" transform="translate(-0.64 -0.44)"/></g><g class="k"><path d="M129.54,42.14c-.36,0-1.14,1.06-1.92,1.83V35.32a.38.38,0,0,0-.37-.37.38.38,0,0,0-.36.37V44c-.73-.74-1.53-1.83-1.91-1.83a.36.36,0,0,0-.37.36.36.36,0,0,0,.15.29A5.66,5.66,0,0,1,126.9,46a.36.36,0,0,0,.35.31.37.37,0,0,0,.37-.31,5.71,5.71,0,0,1,2.14-3.19.36.36,0,0,0,.15-.29.36.36,0,0,0-.37-.36" transform="translate(-0.64 -0.44)"/></g><g class="b"><line class="c" x1="244.41" y1="5.81" x2="306.5" y2="5.81"/></g><g class="l"><path d="M247.6,8.54a.36.36,0,0,0,.36.37.36.36,0,0,0,.29-.15,5.71,5.71,0,0,1,3.19-2.14.37.37,0,0,0,.31-.37.36.36,0,0,0-.31-.35,5.66,5.66,0,0,1-3.19-2.14.36.36,0,0,0-.29-.15.36.36,0,0,0-.36.37c0,.37,1.06,1.14,1.83,1.91h-8.65a.37.37,0,0,0-.37.36.36.36,0,0,0,.37.37h8.65c-.74.75-1.83,1.54-1.83,1.92" transform="translate(-0.64 -0.44)"/></g><g class="m"><path d="M307.64,4c0,.36,1.06,1.14,1.83,1.92h-8.65a.38.38,0,0,0-.37.37.38.38,0,0,0,.37.36h8.65c-.74.73-1.83,1.53-1.83,1.91a.36.36,0,0,0,.36.37.36.36,0,0,0,.29-.15,5.66,5.66,0,0,1,3.19-2.14.36.36,0,0,0,.31-.35.37.37,0,0,0-.31-.37,5.71,5.71,0,0,1-3.19-2.14.36.36,0,0,0-.29-.15.36.36,0,0,0-.36.37" transform="translate(-0.64 -0.44)"/></g><g class="b"><line class="c" x1="357.06" y1="5.81" x2="419.36" y2="5.81"/></g><g class="n"><path d="M360.2,8.54a.36.36,0,0,0,.36.37.36.36,0,0,0,.29-.15A5.71,5.71,0,0,1,364,6.62a.37.37,0,0,0,.31-.37A.36.36,0,0,0,364,5.9a5.66,5.66,0,0,1-3.19-2.14.36.36,0,0,0-.29-.15.36.36,0,0,0-.36.37c0,.37,1.06,1.14,1.83,1.91h-8.65a.37.37,0,0,0-.37.36.36.36,0,0,0,.37.37H362c-.74.75-1.83,1.54-1.83,1.92" transform="translate(-0.64 -0.44)"/></g><g class="o"><path d="M420.54,4c0,.36,1.06,1.14,1.83,1.92h-8.65a.38.38,0,0,0-.37.37.38.38,0,0,0,.37.36h8.65c-.74.73-1.83,1.53-1.83,1.91a.36.36,0,0,0,.36.37.36.36,0,0,0,.29-.15,5.66,5.66,0,0,1,3.19-2.14.36.36,0,0,0,.31-.35.37.37,0,0,0-.31-.37,5.71,5.71,0,0,1-3.19-2.14.36.36,0,0,0-.29-.15.36.36,0,0,0-.36.37" transform="translate(-0.64 -0.44)"/></g><g class="b"><polyline class="c" points="331.78 23.14 331.78 24.39 333.15 26.05 330.42 29.37 333.15 32.68 330.42 36 331.78 37.66 331.78 41.14"/></g><g class="p"><path d="M330.16,26.1a.36.36,0,0,0-.37.36.36.36,0,0,0,.15.29,5.71,5.71,0,0,1,2.14,3.19.37.37,0,0,0,.37.31.36.36,0,0,0,.35-.31,5.66,5.66,0,0,1,2.14-3.19.36.36,0,0,0,.15-.29.36.36,0,0,0-.37-.36c-.37,0-1.15,1.06-1.91,1.83V19.28a.37.37,0,0,0-.36-.37.36.36,0,0,0-.37.37v8.65c-.75-.74-1.54-1.83-1.92-1.83" transform="translate(-0.64 -0.44)"/></g><g class="q"><path d="M334.74,42.14c-.36,0-1.14,1.06-1.92,1.83V35.32a.38.38,0,0,0-.37-.37.38.38,0,0,0-.36.37V44c-.73-.74-1.53-1.83-1.91-1.83a.36.36,0,0,0-.37.36.36.36,0,0,0,.15.29A5.66,5.66,0,0,1,332.1,46a.36.36,0,0,0,.35.31.37.37,0,0,0,.37-.31A5.71,5.71,0,0,1,335,42.79a.36.36,0,0,0,.15-.29.36.36,0,0,0-.37-.36" transform="translate(-0.64 -0.44)"/></g><g class="b"><polyline class="c" points="438.34 23.14 438.34 24.39 439.7 26.05 436.98 29.37 439.7 32.68 436.98 36 438.34 37.66 438.34 41.14"/></g><g class="r"><path d="M436.76,26.1a.36.36,0,0,0-.37.36.36.36,0,0,0,.15.29,5.71,5.71,0,0,1,2.14,3.19.37.37,0,0,0,.37.31.36.36,0,0,0,.35-.31,5.66,5.66,0,0,1,2.14-3.19.36.36,0,0,0,.15-.29.36.36,0,0,0-.37-.36c-.37,0-1.15,1.06-1.91,1.83V19.28a.37.37,0,0,0-.36-.37.36.36,0,0,0-.37.37v8.65c-.75-.74-1.54-1.83-1.92-1.83" transform="translate(-0.64 -0.44)"/></g><g class="s"><path d="M441.24,42.14c-.36,0-1.14,1.06-1.92,1.83V35.32A.38.38,0,0,0,439,35a.38.38,0,0,0-.36.37V44c-.73-.74-1.53-1.83-1.91-1.83a.36.36,0,0,0-.37.36.36.36,0,0,0,.15.29A5.66,5.66,0,0,1,438.6,46a.36.36,0,0,0,.35.31.37.37,0,0,0,.37-.31,5.71,5.71,0,0,1,2.14-3.19.36.36,0,0,0,.15-.29.36.36,0,0,0-.37-.36" transform="translate(-0.64 -0.44)"/></g><g class="b"><path class="t" d="M10.38,70.19c2.39,4.78,8,8,15.94,8H60.37c8,0,13.55,3.19,15.94,8,2.39-4.78,8-8,15.94-8H126.3c8,0,13.55-3.19,15.94-8" transform="translate(-0.64 -0.44)"/><path d="M8.77,92.68c0,.13.06.22.38.35s.47.24.51.43,0,1.72,0,3.86c0,2.74,0,3.72-.06,4s-.06.52-.79.79c-.29.1-.4.22-.4.38s.2.19.46.19.7-.06,1.32-.06c.41,0,1.06.05,1.51.05s.46-.1.46-.23-.08-.23-.33-.33c-.77-.29-.82-.3-.86-1,0-.38,0-2.93,0-3.88,0-1.48,0-3.5,0-4.75,0-.45-.06-.69-.19-.69a1.36,1.36,0,0,0-.33.07,13.62,13.62,0,0,0-1.43.51c-.11,0-.3.15-.3.28" transform="translate(-0.64 -0.44)"/><path d="M15.47,101.73a1.06,1.06,0,0,1-1.07-1c0-.4.15-.57.59-.73a14.19,14.19,0,0,1,1.7-.41s.13,0,.13.09l0,1a1.76,1.76,0,0,1-.12.48,2,2,0,0,1-1.21.54M16.1,96a3.83,3.83,0,0,0-1.87.71c-.69.48-1.15,1-1.15,1.24a.52.52,0,0,0,.19.26,2.66,2.66,0,0,0,.67.08,1.22,1.22,0,0,0,.46-.13.52.52,0,0,0,.15-.35A1.76,1.76,0,0,1,14.7,97a1.39,1.39,0,0,1,.72-.21,1.5,1.5,0,0,1,1.4.89,1.13,1.13,0,0,1,.05.42v.6a.3.3,0,0,1-.18.24,14.69,14.69,0,0,1-2.7.76,1.57,1.57,0,0,0-.64.46,1.23,1.23,0,0,0-.23.77,1.8,1.8,0,0,0,1.51,1.87,1.71,1.71,0,0,0,.84-.24,11.82,11.82,0,0,0,1.22-.76s.16.06.16.08a1.1,1.1,0,0,0,1.13,1,1.4,1.4,0,0,0,1.16-.57,2,2,0,0,0,.14-.41c0-.13-.08-.29-.14-.26a1.56,1.56,0,0,1-.54.15c-.3,0-.57-.26-.57-.78,0-1.78.06-2.45.06-3a2.34,2.34,0,0,0-.54-1.37A1.92,1.92,0,0,0,16.1,96Z" transform="translate(-0.64 -0.44)"/><path d="M25.59,99.4a2.92,2.92,0,0,1-.76,2.33,2.13,2.13,0,0,1-1.07.28,1.52,1.52,0,0,1-1.57-.92,5.94,5.94,0,0,1-.16-2,12.55,12.55,0,0,1,0-1.67,1.4,1.4,0,0,1,.22-.32,1.47,1.47,0,0,1,1.07-.32,2.38,2.38,0,0,1,2.22,2.59m1.48-.19A3.3,3.3,0,0,0,26,96.73,2.85,2.85,0,0,0,24,96a4.4,4.4,0,0,0-1.84.54c-.06,0-.16,0-.16-.11,0-1.77.07-3,.13-4.19,0-.19-.08-.38-.16-.38a.93.93,0,0,0-.35.1c-.43.21-1.16.41-1.48.54-.08,0-.22.25-.22.3s0,.13.24.26c.38.22.46.31.49.46a12.18,12.18,0,0,1,.08,2.32c0,1.86-.08,6.2-.08,6.32a.29.29,0,0,0,.24.29,2,2,0,0,1,.44,0,6,6,0,0,0,1.88.35,4,4,0,0,0,2.38-.79A3.61,3.61,0,0,0,27.07,99.21Z" transform="translate(-0.64 -0.44)"/><path d="M31.56,96.53c.84,0,1.22.43,1.22.9s-.73.58-1.33.58-1,0-1.16,0a.17.17,0,0,1-.1-.15,1.75,1.75,0,0,1,1.37-1.29M32,96a3.38,3.38,0,0,0-1.86.54,3.48,3.48,0,0,0-1.54,3,3,3,0,0,0,3.11,3.29,3.17,3.17,0,0,0,2.27-1,.73.73,0,0,0,.21-.49c0-.17-.13-.25-.19-.2a3.31,3.31,0,0,1-1.61.6A2.43,2.43,0,0,1,30,99.21a1.48,1.48,0,0,1,.08-.49.43.43,0,0,1,.26-.17l3.41,0c.16,0,.43-.3.43-.48a2,2,0,0,0-.27-1.11A2.16,2.16,0,0,0,32,96Z" transform="translate(-0.64 -0.44)"/><path d="M35.37,92.68c0,.13.06.22.38.35s.47.24.51.43,0,1.72,0,3.86c0,2.74,0,3.72-.06,4s-.06.52-.79.79c-.29.1-.4.22-.4.38s.2.19.46.19.7-.06,1.32-.06c.41,0,1.06.05,1.51.05s.46-.1.46-.23-.08-.23-.33-.33c-.77-.29-.82-.3-.86-1,0-.38,0-2.93,0-3.88,0-1.48,0-3.5,0-4.75,0-.45-.06-.69-.19-.69a1.36,1.36,0,0,0-.33.07,13.62,13.62,0,0,0-1.43.51c-.11,0-.3.15-.3.28" transform="translate(-0.64 -0.44)"/><path d="M39.87,92.68c0,.13.06.22.38.35s.47.24.51.43,0,1.72,0,3.86c0,2.74,0,3.72-.06,4s-.06.52-.79.79c-.29.1-.4.22-.4.38s.2.19.46.19.7-.06,1.32-.06c.41,0,1.06.05,1.51.05s.46-.1.46-.23-.08-.23-.33-.33c-.77-.29-.82-.3-.86-1,0-.38,0-2.93,0-3.88,0-1.48,0-3.5,0-4.75,0-.45-.06-.69-.19-.69a1.36,1.36,0,0,0-.33.07,13.62,13.62,0,0,0-1.43.51c-.11,0-.3.15-.3.28" transform="translate(-0.64 -0.44)"/><path d="M47,96.53c.84,0,1.22.43,1.22.9s-.73.58-1.33.58-1,0-1.16,0a.17.17,0,0,1-.1-.15A1.75,1.75,0,0,1,47,96.53m.48-.57a3.38,3.38,0,0,0-1.86.54,3.48,3.48,0,0,0-1.54,3,3,3,0,0,0,3.11,3.29,3.17,3.17,0,0,0,2.27-1,.73.73,0,0,0,.21-.49c0-.17-.13-.25-.19-.2a3.31,3.31,0,0,1-1.61.6,2.43,2.43,0,0,1-2.43-2.5,1.48,1.48,0,0,1,.08-.49.43.43,0,0,1,.26-.17l3.41,0c.16,0,.43-.3.43-.48a2,2,0,0,0-.27-1.11A2.16,2.16,0,0,0,47.44,96Z" transform="translate(-0.64 -0.44)"/><path d="M54.21,96.64a2,2,0,0,1,1.64.79,2,2,0,0,1,.12.62c0,1,0,2,0,3a.93.93,0,0,1-.15.4,2.44,2.44,0,0,1-1.25.4c-1.41,0-2.19-1.47-2.19-2.69a2.74,2.74,0,0,1,.75-2.07,1.66,1.66,0,0,1,1.08-.44m.67-.68a4.64,4.64,0,0,0-2.21.63,3.49,3.49,0,0,0-1.77,3.08,3,3,0,0,0,3,3.12,4.86,4.86,0,0,0,2-.79s.13,0,.13,0,0,.47,0,.65.21.21.29.21c.24,0,.92-.23,2-.47a.58.58,0,0,0,.35-.42c0-.18-.13-.29-.22-.27a8.47,8.47,0,0,1-.88.09c-.13,0-.27-.13-.29-.63s-.06-.74-.06-3.93c0-1.29.06-3.46.06-4.47,0-.73,0-1-.2-1s-1.59.27-2,.38-.33.16-.33.21a.41.41,0,0,0,.3.34c.7.17.77.22.81.74,0,.34,0,2.28,0,2.37s-.06.19-.12.18A4.34,4.34,0,0,0,54.88,96Z" transform="translate(-0.64 -0.44)"/><path d="M64.63,96.15c-.11,0-.12-.13-.12-.19s0-.61,0-.78-.08-.24-.14-.24a1,1,0,0,0-.64.41,7.36,7.36,0,0,1-1.14,1c-.14.12-.33.27-.33.33a.71.71,0,0,0,.47.46c.45.06.49.08.49.25,0,1.52-.07,2.48-.07,3.6a2.09,2.09,0,0,0,.22,1.12,1.79,1.79,0,0,0,1.4.74,2.88,2.88,0,0,0,1.62-.5.78.78,0,0,0,.38-.55c0-.13-.08-.24-.14-.24a2.26,2.26,0,0,0-.35.09,2.43,2.43,0,0,1-.73.15,1.47,1.47,0,0,1-.86-.35c-.19-.22-.26-.48-.24-1.19l.05-2.9c0-.17.08-.24.11-.24h1.79c.18,0,.32,0,.37-.21a3.56,3.56,0,0,0,0-.51c0-.09-.1-.27-.21-.27-.37,0-1.78.07-2,.07" transform="translate(-0.64 -0.44)"/><path d="M68,96.88c0,.09.18.24.35.36.38.27.4.38.4.48,0,.84,0,2.8,0,3.51,0,.37-.06.61-.68.83-.19.06-.37.16-.37.33s.15.26.43.26c.45,0,.73-.05,1.29-.05s1.27.06,1.76.06c.19,0,.4-.14.4-.27s-.21-.27-.57-.36c-.71-.19-.84-.35-.89-1.1,0-.56,0-2.84,0-3a.84.84,0,0,1,.14-.37.86.86,0,0,1,.73-.36,1,1,0,0,1,.57.19.67.67,0,0,0,.37.16.43.43,0,0,0,.25-.13,1.63,1.63,0,0,0,.64-1c0-.18-.41-.49-.87-.49a2.56,2.56,0,0,0-1.72.93c0,.07-.16,0-.16,0,0-.24,0-.56,0-.78,0,0-.13-.22-.19-.22a1.21,1.21,0,0,0-.46.15c-.34.18-.83.4-1.08.54a.4.4,0,0,0-.23.34" transform="translate(-0.64 -0.44)"/><path d="M75.87,101.73a1.06,1.06,0,0,1-1.07-1c0-.4.15-.57.59-.73a14.19,14.19,0,0,1,1.7-.41s.13,0,.13.09l0,1a1.45,1.45,0,0,1-.13.48,1.94,1.94,0,0,1-1.2.54M76.5,96a3.83,3.83,0,0,0-1.87.71c-.69.48-1.15,1-1.15,1.24a.52.52,0,0,0,.19.26,2.66,2.66,0,0,0,.67.08,1.22,1.22,0,0,0,.46-.13.52.52,0,0,0,.15-.35A1.76,1.76,0,0,1,75.1,97a1.39,1.39,0,0,1,.72-.21,1.51,1.51,0,0,1,1.4.89,1.13,1.13,0,0,1,0,.42v.6a.3.3,0,0,1-.18.24,15,15,0,0,1-2.7.76,1.57,1.57,0,0,0-.64.46,1.23,1.23,0,0,0-.23.77A1.8,1.8,0,0,0,75,102.79a1.71,1.71,0,0,0,.84-.24,11.82,11.82,0,0,0,1.22-.76s.16.06.16.08a1.1,1.1,0,0,0,1.13,1,1.4,1.4,0,0,0,1.16-.57,2,2,0,0,0,.14-.41c0-.13-.08-.29-.14-.26a1.56,1.56,0,0,1-.54.15c-.3,0-.57-.26-.57-.78,0-1.78.06-2.45.06-3A2.34,2.34,0,0,0,78,96.56,1.92,1.92,0,0,0,76.5,96Z" transform="translate(-0.64 -0.44)"/><path d="M82.2,92.67a.87.87,0,0,0-.92.9.85.85,0,0,0,.15.48,1,1,0,0,0,.69.36.89.89,0,0,0,.84-.9,1.17,1.17,0,0,0-.27-.65.7.7,0,0,0-.49-.19m-1.38,4A.45.45,0,0,0,81,97c.46.3.6.48.62.61s0,.92,0,1.24c0,.9,0,2-.07,2.32-.06.65-.09.78-.79,1-.22.06-.38.18-.38.32s.16.24.47.24.53-.05,1.34-.05c.35,0,1,.05,1.33.05s.46-.07.46-.21-.16-.3-.38-.37c-.57-.15-.63-.31-.65-.44s0-.44-.06-2.53V96.2s-.1-.26-.16-.26a8.4,8.4,0,0,0-1.72.53C80.93,96.5,80.82,96.58,80.82,96.66Z" transform="translate(-0.64 -0.44)"/><path d="M85.12,96.83s0,.1.22.24c.39.24.55.41.55.67,0,1.62,0,2.81-.09,3.57,0,.35-.11.54-.81.76-.16.05-.35.18-.35.34s.17.24.46.24.76-.05,1.25-.05.86.05,1.39.05c.28,0,.44-.13.44-.26s-.12-.27-.41-.38c-.64-.24-.62-.43-.62-.67V97.66a.67.67,0,0,1,.19-.4,2.39,2.39,0,0,1,1.37-.35,1.32,1.32,0,0,1,1.13.43,3.47,3.47,0,0,1,.3,1.87c0,.7,0,1.39,0,2.17,0,.39-.13.54-.52.68s-.35.24-.35.33.22.26.43.26.54-.05,1-.05,1,.05,1.19.05.46-.1.46-.26-.11-.3-.48-.44-.39-.29-.41-.75c0-.71,0-1.6,0-2.38a3.88,3.88,0,0,0-.47-2.12A1.64,1.64,0,0,0,89.46,96a3.92,3.92,0,0,0-2.26.81s-.13,0-.11,0,0-.62,0-.7-.23-.19-.27-.19a1.84,1.84,0,0,0-.42.16c-.31.16-.73.3-1,.44a.6.6,0,0,0-.28.4" transform="translate(-0.64 -0.44)"/><path d="M94.9,92.67a.87.87,0,0,0-.92.9.85.85,0,0,0,.15.48,1,1,0,0,0,.69.36.9.9,0,0,0,.84-.9,1.17,1.17,0,0,0-.27-.65.7.7,0,0,0-.49-.19m-1.38,4a.45.45,0,0,0,.17.31c.46.3.6.48.62.61s0,.92,0,1.24c0,.9,0,2-.07,2.32-.06.65-.09.78-.79,1-.23.06-.38.18-.38.32s.15.24.47.24.53-.05,1.34-.05c.35,0,1,.05,1.33.05s.46-.07.46-.21-.16-.3-.38-.37c-.57-.15-.63-.31-.65-.44s0-.44-.06-2.53V96.2s-.1-.26-.16-.26a8.4,8.4,0,0,0-1.72.53C93.63,96.5,93.52,96.58,93.52,96.66Z" transform="translate(-0.64 -0.44)"/><path d="M97.92,96.83s0,.1.22.24c.39.24.55.41.55.67,0,1.62,0,2.81-.09,3.57,0,.35-.11.54-.81.76-.16.05-.35.18-.35.34s.17.24.46.24.76-.05,1.26-.05.85.05,1.38.05c.28,0,.44-.13.44-.26s-.12-.27-.41-.38c-.64-.24-.62-.43-.62-.67V97.66a.67.67,0,0,1,.19-.4,2.39,2.39,0,0,1,1.37-.35,1.32,1.32,0,0,1,1.13.43,3.36,3.36,0,0,1,.3,1.87c0,.7,0,1.39,0,2.17,0,.39-.12.54-.52.68s-.35.24-.35.33.22.26.43.26.54-.05,1-.05,1,.05,1.19.05.46-.1.46-.26-.11-.3-.47-.44-.4-.29-.42-.75c0-.71,0-1.6,0-2.38a3.88,3.88,0,0,0-.47-2.12,1.65,1.65,0,0,0-1.47-.74,3.91,3.91,0,0,0-2.25.81s-.13,0-.11,0,0-.62,0-.7-.22-.19-.27-.19a1.68,1.68,0,0,0-.42.16c-.31.16-.73.3-1,.44a.6.6,0,0,0-.28.4" transform="translate(-0.64 -0.44)"/><path d="M109.5,105.83c-1.11,0-2.3-.48-2.3-1.58a1.15,1.15,0,0,1,.67-1,3.2,3.2,0,0,1,1.27-.23,8.76,8.76,0,0,1,1.36.09c.56.1,1.13.4,1.15,1.11a1.41,1.41,0,0,1-.79,1.32,3,3,0,0,1-1.36.34m-.63-9.25a1.57,1.57,0,0,1,1.55,1.73,2.66,2.66,0,0,1-.36,1.38,1.21,1.21,0,0,1-.83.33c-.66,0-1.52-.49-1.52-1.89C107.71,97.42,108.07,96.58,108.87,96.58Zm.22-.62a3.59,3.59,0,0,0-1.84.62,2.31,2.31,0,0,0,.3,3.84s0,.08,0,.15a4.77,4.77,0,0,1-1.13.81s-.08.11-.08.15a1.32,1.32,0,0,0,.46,1.09,1.27,1.27,0,0,0,.46.22s0,.13,0,.16c-.27.24-.73.59-1,.78a1.39,1.39,0,0,0-.33.82c0,1.53,1.84,2,2.86,2a5,5,0,0,0,2.69-.73,2.86,2.86,0,0,0,1.38-2.28,1.83,1.83,0,0,0-.62-1.33,1.86,1.86,0,0,0-1.22-.46c-.5,0-1.64-.07-2.59-.07-.08,0-.61-.08-.61-.54a.8.8,0,0,1,.37-.49.35.35,0,0,1,.24-.08l.43,0a3.38,3.38,0,0,0,2-.64,2.25,2.25,0,0,0,.86-1.81,2.31,2.31,0,0,0-.31-1.11c.35,0,1,.09,1.39.09a.36.36,0,0,0,.19-.27c0-.22-.11-.65-.24-.65l-1.73,0a2.41,2.41,0,0,1-.59-.11A4.32,4.32,0,0,0,109.09,96Z" transform="translate(-0.64 -0.44)"/><path d="M120.41,96.64a2,2,0,0,1,1.64.79,2,2,0,0,1,.12.62c0,1,0,2,0,3a.93.93,0,0,1-.15.4,2.43,2.43,0,0,1-1.24.4c-1.42,0-2.2-1.47-2.2-2.69a2.74,2.74,0,0,1,.75-2.07,1.66,1.66,0,0,1,1.08-.44m.67-.68a4.64,4.64,0,0,0-2.21.63,3.48,3.48,0,0,0-1.76,3.08,2.94,2.94,0,0,0,3,3.12,4.86,4.86,0,0,0,2-.79s.13,0,.13,0,0,.47,0,.65.21.21.29.21c.24,0,.92-.23,2-.47a.58.58,0,0,0,.35-.42c0-.18-.13-.29-.22-.27a8.47,8.47,0,0,1-.88.09c-.13,0-.27-.13-.28-.63s-.07-.74-.07-3.93c0-1.29.07-3.46.07-4.47,0-.73,0-1-.21-1a20,20,0,0,0-2,.38c-.27.08-.33.16-.33.21a.41.41,0,0,0,.3.34c.7.17.76.22.81.74,0,.34,0,2.28,0,2.37s-.06.19-.12.18A4.34,4.34,0,0,0,121.08,96Z" transform="translate(-0.64 -0.44)"/><path d="M128.07,101.73a1.06,1.06,0,0,1-1.07-1c0-.4.14-.57.59-.73a14.19,14.19,0,0,1,1.7-.41c.05,0,.13,0,.13.09l0,1a1.76,1.76,0,0,1-.12.48,2,2,0,0,1-1.21.54M128.7,96a3.83,3.83,0,0,0-1.87.71c-.69.48-1.15,1-1.15,1.24a.52.52,0,0,0,.19.26,2.66,2.66,0,0,0,.67.08,1.22,1.22,0,0,0,.46-.13.48.48,0,0,0,.14-.35,1.64,1.64,0,0,1,.17-.78,1.31,1.31,0,0,1,.71-.21,1.5,1.5,0,0,1,1.4.89,1.13,1.13,0,0,1,.05.42v.6a.3.3,0,0,1-.18.24,14.69,14.69,0,0,1-2.7.76,1.57,1.57,0,0,0-.64.46,1.23,1.23,0,0,0-.23.77,1.8,1.8,0,0,0,1.51,1.87,1.71,1.71,0,0,0,.84-.24,11.82,11.82,0,0,0,1.22-.76s.16.06.16.08a1.1,1.1,0,0,0,1.13,1,1.4,1.4,0,0,0,1.16-.57,2,2,0,0,0,.14-.41c0-.13-.08-.29-.14-.26a1.56,1.56,0,0,1-.54.15c-.3,0-.57-.26-.57-.78,0-1.78.06-2.45.06-3a2.34,2.34,0,0,0-.54-1.37A1.92,1.92,0,0,0,128.7,96Z" transform="translate(-0.64 -0.44)"/><path d="M134.63,96.15c-.11,0-.12-.13-.12-.19s0-.61,0-.78-.08-.24-.14-.24a1,1,0,0,0-.64.41,7.36,7.36,0,0,1-1.14,1c-.14.12-.33.27-.33.33a.71.71,0,0,0,.47.46c.45.06.49.08.49.25,0,1.52-.07,2.48-.07,3.6a2.09,2.09,0,0,0,.22,1.12,1.79,1.79,0,0,0,1.4.74,2.88,2.88,0,0,0,1.62-.5.78.78,0,0,0,.38-.55c0-.13-.08-.24-.14-.24a2.26,2.26,0,0,0-.35.09,2.43,2.43,0,0,1-.73.15,1.49,1.49,0,0,1-.86-.35c-.19-.22-.26-.48-.24-1.19l0-2.9c0-.17.08-.24.11-.24h1.79c.18,0,.32,0,.37-.21a3.56,3.56,0,0,0,0-.51c0-.09-.1-.27-.21-.27-.37,0-1.78.07-2,.07" transform="translate(-0.64 -0.44)"/><path d="M140.17,101.73a1.06,1.06,0,0,1-1.07-1c0-.4.15-.57.59-.73a14.19,14.19,0,0,1,1.7-.41c.05,0,.13,0,.13.09l0,1a1.45,1.45,0,0,1-.13.48,1.94,1.94,0,0,1-1.2.54M140.8,96a3.83,3.83,0,0,0-1.87.71c-.69.48-1.15,1-1.15,1.24a.46.46,0,0,0,.19.26,2.66,2.66,0,0,0,.67.08,1.22,1.22,0,0,0,.46-.13.52.52,0,0,0,.15-.35,1.57,1.57,0,0,1,.16-.78,1.31,1.31,0,0,1,.71-.21,1.5,1.5,0,0,1,1.4.89,1.13,1.13,0,0,1,0,.42v.6a.3.3,0,0,1-.18.24,14.69,14.69,0,0,1-2.7.76,1.57,1.57,0,0,0-.64.46,1.23,1.23,0,0,0-.23.77,1.8,1.8,0,0,0,1.51,1.87,1.71,1.71,0,0,0,.84-.24,11.82,11.82,0,0,0,1.22-.76s.16.06.16.08a1.1,1.1,0,0,0,1.13,1,1.4,1.4,0,0,0,1.16-.57,2,2,0,0,0,.14-.41c0-.13-.08-.29-.14-.26a1.56,1.56,0,0,1-.54.15c-.3,0-.57-.26-.57-.78,0-1.78.06-2.45.06-3a2.34,2.34,0,0,0-.54-1.37A1.92,1.92,0,0,0,140.8,96Z" transform="translate(-0.64 -0.44)"/><path d="M1.56,116.22a.28.28,0,0,1,.13.2c0,2.59,0,3.82-.05,4.07s-.19.48-.6.65c-.24.1-.4.18-.4.32s.18.29.51.29,1,0,1.18,0c.89,0,1.47,0,1.68,0s.52-.13.52-.32-.2-.27-.47-.32c-.83-.13-1-.24-1-1C3,118.87,3,118,3,116.63c0-.4.07-.48.14-.48l1.83,0c.1,0,.27-.27.27-.3s0-.67-.22-.67-1.32,0-1.83,0c-.08,0-.12-.1-.12-.42a7.35,7.35,0,0,1,.28-2.19,1.24,1.24,0,0,1,1.16-.94,2.57,2.57,0,0,1,1.15.59.82.82,0,0,0,.41.16.88.88,0,0,0,.63-.45.49.49,0,0,0,.08-.25.83.83,0,0,0-.11-.43,1.79,1.79,0,0,0-1.41-.49,3.47,3.47,0,0,0-1.77.65,4.45,4.45,0,0,0-1.22,1.37,5.15,5.15,0,0,0-.56,2.21s-.08.19-.14.2c-.65.29-.86.4-.86.62s.13.19.27.22l.62.12" transform="translate(-0.64 -0.44)"/><path d="M9,115.72c1.35,0,2.07,1.42,2.07,2.77a3.75,3.75,0,0,1-.43,2.13,1.67,1.67,0,0,1-1.21.62,2,2,0,0,1-1.21-.43,3.52,3.52,0,0,1-1-2.54,3.24,3.24,0,0,1,.65-2.1A1.73,1.73,0,0,1,9,115.72m.24-.66a3.66,3.66,0,0,0-2.23.81,3.39,3.39,0,0,0-.33,5,3.62,3.62,0,0,0,2.51,1,3.47,3.47,0,0,0,2.4-1,3.43,3.43,0,0,0-2.35-5.88Z" transform="translate(-0.64 -0.44)"/><path d="M14.08,116c0,.09.18.24.35.36.38.27.4.38.4.48,0,.84,0,2.8-.05,3.51,0,.37-.06.61-.68.83-.19.06-.37.16-.37.33s.15.26.43.26c.45,0,.73,0,1.29,0s1.27.06,1.76.06c.19,0,.4-.14.4-.27s-.21-.27-.57-.36c-.72-.19-.84-.35-.89-1.1,0-.56,0-2.84,0-3a.84.84,0,0,1,.14-.37.86.86,0,0,1,.73-.36,1,1,0,0,1,.57.19.67.67,0,0,0,.37.16.43.43,0,0,0,.25-.13,1.63,1.63,0,0,0,.64-1c0-.18-.41-.49-.87-.49a2.56,2.56,0,0,0-1.72.93c-.05.07-.16,0-.16,0,0-.24,0-.56,0-.78,0,0-.13-.22-.19-.22a1.21,1.21,0,0,0-.46.15c-.34.18-.83.4-1.08.54a.4.4,0,0,0-.23.34" transform="translate(-0.64 -0.44)"/><path class="u" d="M23.34,116s.07.11.35.33A.76.76,0,0,1,24,117c0,1.46,0,2.75-.06,3.34s-.08.63-.7.88c-.24.1-.38.2-.38.34s.17.27.44.27.72-.08,1.08-.08,1,0,1.39,0,.39-.11.39-.27,0-.19-.35-.35-.49-.26-.52-.7,0-.78,0-3.58a1.86,1.86,0,0,1,.17-.41,2.32,2.32,0,0,1,1.37-.43,1.46,1.46,0,0,1,1.22.49,1.52,1.52,0,0,1,.24.7l-.05,3c0,.62-.2.72-.63.88-.26.09-.4.19-.4.32s.22.28.48.28l1.13,0,1.33,0c.19,0,.38-.09.38-.27s-.09-.27-.41-.38a.7.7,0,0,1-.56-.68c0-.37-.05-1-.05-3.45a1,1,0,0,1,.16-.5,2.81,2.81,0,0,1,1.4-.39,1.34,1.34,0,0,1,1.16.52,2.06,2.06,0,0,1,.26,1.18c0,.68,0,1.92,0,2.68a.62.62,0,0,1-.51.7c-.3.08-.38.26-.38.32s.19.27.45.27l1.17,0,1.23,0c.14,0,.35-.06.35-.25s-.16-.24-.37-.32-.6-.29-.6-.56-.07-2.14-.11-3.14-.58-2.4-2-2.4a2.53,2.53,0,0,0-1.1.22,7.25,7.25,0,0,0-1.18.68c-.06,0-.19,0-.2,0a1.9,1.9,0,0,0-1.67-.85,4.3,4.3,0,0,0-2.19.81.1.1,0,0,1-.16-.08v-.67A.38.38,0,0,0,25,115s-.06,0-.17.09a7,7,0,0,1-1.23.62.55.55,0,0,0-.27.38" transform="translate(-0.64 -0.44)"/><path class="u" d="M38.76,115.63c.84,0,1.22.43,1.22.9s-.73.58-1.33.58-1,0-1.16,0a.17.17,0,0,1-.1-.15,1.75,1.75,0,0,1,1.37-1.29m.48-.57a3.38,3.38,0,0,0-1.86.54,3.48,3.48,0,0,0-1.54,3A3,3,0,0,0,39,121.89a3.17,3.17,0,0,0,2.27-1,.73.73,0,0,0,.21-.49c0-.17-.13-.25-.19-.2a3.31,3.31,0,0,1-1.61.6,2.43,2.43,0,0,1-2.43-2.5,1.48,1.48,0,0,1,.08-.49.43.43,0,0,1,.26-.17L41,117.6c.16,0,.43-.3.43-.48a2,2,0,0,0-.27-1.11A2.16,2.16,0,0,0,39.24,115.06Z" transform="translate(-0.64 -0.44)"/><path class="u" d="M45.07,120.83a1.06,1.06,0,0,1-1.07-1c0-.4.15-.57.59-.73a14.19,14.19,0,0,1,1.7-.41c.05,0,.13,0,.13.09l0,1a1.76,1.76,0,0,1-.12.48,2,2,0,0,1-1.21.54m.63-5.77a3.83,3.83,0,0,0-1.87.71c-.69.48-1.15,1-1.15,1.24a.52.52,0,0,0,.19.26,2.66,2.66,0,0,0,.67.08,1.22,1.22,0,0,0,.46-.13.52.52,0,0,0,.15-.35,1.76,1.76,0,0,1,.15-.78,1.39,1.39,0,0,1,.72-.21,1.5,1.5,0,0,1,1.4.89,1.13,1.13,0,0,1,0,.42v.6a.3.3,0,0,1-.18.24,14.69,14.69,0,0,1-2.7.76,1.57,1.57,0,0,0-.64.46,1.23,1.23,0,0,0-.23.77,1.8,1.8,0,0,0,1.51,1.87,1.71,1.71,0,0,0,.84-.24,11.82,11.82,0,0,0,1.22-.76s.16.06.16.08a1.1,1.1,0,0,0,1.13,1,1.4,1.4,0,0,0,1.16-.57,2,2,0,0,0,.14-.41c0-.13-.08-.29-.14-.26a1.56,1.56,0,0,1-.54.15c-.3,0-.57-.26-.57-.78,0-1.78.06-2.45.06-3a2.34,2.34,0,0,0-.54-1.37A1.92,1.92,0,0,0,45.7,115.06Z" transform="translate(-0.64 -0.44)"/><path class="u" d="M52.37,115.06a3.15,3.15,0,0,0-1.39.41,1.81,1.81,0,0,0-.81,1.49,2,2,0,0,0,1.15,1.74c.48.27.84.44,1.25.7a1.08,1.08,0,0,1,.58.89,1,1,0,0,1-1.12,1,1.87,1.87,0,0,1-1.44-1c-.21-.31-.32-.43-.42-.43s-.28.12-.28.53a2.54,2.54,0,0,0,.32,1.14,2.34,2.34,0,0,0,1.62.4,3.23,3.23,0,0,0,1.36-.3,1.89,1.89,0,0,0,1.2-1.75c0-.94-.7-1.43-1.53-1.86s-1.51-.63-1.51-1.41a1,1,0,0,1,.92-.94,1.55,1.55,0,0,1,1.21.92c.14.29.29.43.35.43.22,0,.35-.35.35-.46a7.87,7.87,0,0,0,0-.88.88.88,0,0,0-.27-.31l-.51-.15a3.27,3.27,0,0,0-1-.12" transform="translate(-0.64 -0.44)"/><path class="u" d="M58.85,120.87a1.63,1.63,0,0,1-.85-.2c-.22-.18-.38-.37-.39-1.23,0-1.11,0-3.08,0-3.76,0-.34-.05-.51-.16-.51s-1.22.08-1.57.08c-.06,0-.49,0-.49.27s.16.27.33.36c.46.24.6.56.6.7v3.85a1.45,1.45,0,0,0,.37.92,1.87,1.87,0,0,0,1.25.54,4.14,4.14,0,0,0,2.48-1c.07,0,.15,0,.15.06,0,.21,0,.62.05.73s.11.27.17.27a3.74,3.74,0,0,0,.68-.11,12.27,12.27,0,0,1,1.31-.22.43.43,0,0,0,.27-.43.57.57,0,0,0-.13-.27c-.16,0-.7.09-.81.09s-.24,0-.26-.6,0-4.12,0-4.8c0-.17-.11-.38-.18-.38-.65,0-1.27,0-1.89,0-.2,0-.4.16-.4.25s.16.27.39.35a5.11,5.11,0,0,1,.52.21c.11,0,.24.31.24.49,0,.76,0,2.7-.06,3.23a1.11,1.11,0,0,1-.43.74,2.48,2.48,0,0,1-1.16.35" transform="translate(-0.64 -0.44)"/><path class="u" d="M63.88,116c0,.09.18.24.35.36.38.27.4.38.4.48,0,.84,0,2.8,0,3.51,0,.37-.06.61-.68.83-.19.06-.37.16-.37.33s.15.26.43.26c.45,0,.73,0,1.29,0s1.27.06,1.76.06c.19,0,.4-.14.4-.27s-.21-.27-.57-.36c-.71-.19-.84-.35-.89-1.1,0-.56,0-2.84,0-3a.84.84,0,0,1,.14-.37.86.86,0,0,1,.73-.36,1,1,0,0,1,.57.19.67.67,0,0,0,.37.16.43.43,0,0,0,.25-.13,1.63,1.63,0,0,0,.64-1c0-.18-.41-.49-.87-.49A2.56,2.56,0,0,0,66,116c0,.07-.16,0-.16,0,0-.24,0-.56,0-.78,0,0-.13-.22-.19-.22a1.21,1.21,0,0,0-.46.15c-.34.18-.83.4-1.08.54a.4.4,0,0,0-.23.34" transform="translate(-0.64 -0.44)"/><path class="u" d="M72.36,115.63c.84,0,1.22.43,1.22.9s-.73.58-1.33.58-1,0-1.16,0a.17.17,0,0,1-.1-.15,1.75,1.75,0,0,1,1.37-1.29m.48-.57a3.38,3.38,0,0,0-1.86.54,3.48,3.48,0,0,0-1.54,3,3,3,0,0,0,3.11,3.29,3.17,3.17,0,0,0,2.27-1,.73.73,0,0,0,.21-.49c0-.17-.13-.25-.19-.2a3.31,3.31,0,0,1-1.61.6,2.43,2.43,0,0,1-2.43-2.5,1.48,1.48,0,0,1,.08-.49.43.43,0,0,1,.26-.17l3.41-.05c.16,0,.43-.3.43-.48a2,2,0,0,0-.27-1.11A2.16,2.16,0,0,0,72.84,115.06Z" transform="translate(-0.64 -0.44)"/><path class="u" d="M76.54,116s.07.11.35.33a.76.76,0,0,1,.35.58c0,1.46,0,2.75-.06,3.34s-.08.63-.7.88c-.24.1-.38.2-.38.34s.17.27.44.27.72-.08,1.08-.08,1,0,1.39,0c.23,0,.39-.11.39-.27s0-.19-.35-.35-.49-.26-.52-.7,0-.78,0-3.58a1.86,1.86,0,0,1,.17-.41A2.32,2.32,0,0,1,80,116a1.46,1.46,0,0,1,1.22.49,1.52,1.52,0,0,1,.24.7l0,3c0,.62-.2.72-.63.88-.26.09-.4.19-.4.32s.22.28.48.28l1.13,0,1.33,0c.19,0,.38-.09.38-.27s-.09-.27-.41-.38a.7.7,0,0,1-.56-.68c0-.37,0-1,0-3.45a1,1,0,0,1,.15-.5,2.77,2.77,0,0,1,1.4-.39,1.34,1.34,0,0,1,1.16.52,2.06,2.06,0,0,1,.26,1.18c0,.68,0,1.92,0,2.68a.63.63,0,0,1-.5.7c-.31.08-.39.26-.39.32s.19.27.45.27l1.17,0,1.23,0c.14,0,.35-.06.35-.25s-.16-.24-.37-.32-.6-.29-.6-.56-.07-2.14-.11-3.14-.58-2.4-2-2.4a2.53,2.53,0,0,0-1.1.22,7.25,7.25,0,0,0-1.18.68c-.06,0-.19,0-.2,0a1.9,1.9,0,0,0-1.67-.85,4.3,4.3,0,0,0-2.19.81.1.1,0,0,1-.16-.08v-.67a.38.38,0,0,0-.26-.17s-.06,0-.17.09a7,7,0,0,1-1.23.62.55.55,0,0,0-.27.38" transform="translate(-0.64 -0.44)"/><path class="u" d="M92.06,115.63c.84,0,1.22.43,1.22.9s-.73.58-1.33.58-1,0-1.16,0a.17.17,0,0,1-.1-.15,1.75,1.75,0,0,1,1.37-1.29m.48-.57a3.38,3.38,0,0,0-1.86.54,3.48,3.48,0,0,0-1.54,3,3,3,0,0,0,3.11,3.29,3.17,3.17,0,0,0,2.27-1,.73.73,0,0,0,.21-.49c0-.17-.13-.25-.19-.2a3.27,3.27,0,0,1-1.61.6,2.43,2.43,0,0,1-2.43-2.5,1.48,1.48,0,0,1,.08-.49.43.43,0,0,1,.26-.17l3.41-.05c.16,0,.43-.3.43-.48a2,2,0,0,0-.27-1.11A2.16,2.16,0,0,0,92.54,115.06Z" transform="translate(-0.64 -0.44)"/><path class="u" d="M96.12,115.93s0,.1.22.24c.39.24.55.41.55.67,0,1.62,0,2.81-.09,3.57,0,.35-.11.54-.81.76-.16,0-.35.18-.35.34s.17.24.46.24.76,0,1.25,0,.86,0,1.39,0c.28,0,.44-.13.44-.26s-.12-.27-.41-.38c-.64-.24-.62-.43-.62-.67v-3.68a.67.67,0,0,1,.19-.4,2.39,2.39,0,0,1,1.37-.35,1.32,1.32,0,0,1,1.13.43,3.47,3.47,0,0,1,.3,1.87c0,.7,0,1.39,0,2.17,0,.39-.13.54-.52.68s-.35.24-.35.33.22.26.43.26.54,0,1,0,1,0,1.19,0,.46-.1.46-.26-.11-.3-.48-.44-.39-.29-.41-.75c0-.71,0-1.6,0-2.38a3.88,3.88,0,0,0-.47-2.12,1.64,1.64,0,0,0-1.46-.74,3.92,3.92,0,0,0-2.26.81s-.13,0-.11-.05,0-.62,0-.7-.23-.19-.27-.19a1.84,1.84,0,0,0-.42.16c-.31.16-.73.3-1,.44a.6.6,0,0,0-.28.4" transform="translate(-0.64 -0.44)"/><path class="u" d="M106.43,115.25c-.11,0-.12-.13-.12-.19s0-.61,0-.78-.08-.24-.14-.24a1,1,0,0,0-.64.41,7.36,7.36,0,0,1-1.14,1c-.14.12-.33.27-.33.33a.71.71,0,0,0,.47.46c.45.06.49.08.49.25,0,1.52-.07,2.48-.07,3.6a2.09,2.09,0,0,0,.22,1.12,1.79,1.79,0,0,0,1.4.74,2.88,2.88,0,0,0,1.62-.5.78.78,0,0,0,.38-.55c0-.13-.08-.24-.14-.24a2.26,2.26,0,0,0-.35.09,2.43,2.43,0,0,1-.73.15,1.49,1.49,0,0,1-.86-.35c-.19-.22-.26-.48-.24-1.19l0-2.9c0-.17.08-.24.11-.24h1.79c.18,0,.32,0,.37-.21s0-.33,0-.51-.09-.27-.2-.27c-.37,0-1.78.07-2,.07" transform="translate(-0.64 -0.44)"/><path class="u" d="M113,116s.07.11.35.33a.76.76,0,0,1,.35.58c0,1.46,0,2.75-.06,3.34s-.08.63-.7.88c-.24.1-.38.2-.38.34s.17.27.44.27.72-.08,1.08-.08,1,0,1.39,0c.23,0,.39-.11.39-.27s0-.19-.35-.35-.49-.26-.52-.7,0-.78,0-3.58a1.86,1.86,0,0,1,.17-.41,2.32,2.32,0,0,1,1.37-.43,1.46,1.46,0,0,1,1.22.49,1.52,1.52,0,0,1,.24.7l0,3c0,.62-.2.72-.63.88-.26.09-.4.19-.4.32s.22.28.48.28l1.13,0,1.33,0c.19,0,.38-.09.38-.27s-.09-.27-.41-.38a.7.7,0,0,1-.56-.68c0-.37,0-1,0-3.45a1,1,0,0,1,.15-.5,2.81,2.81,0,0,1,1.4-.39,1.34,1.34,0,0,1,1.16.52,2.06,2.06,0,0,1,.26,1.18c0,.68,0,1.92,0,2.68a.62.62,0,0,1-.51.7c-.3.08-.38.26-.38.32s.19.27.45.27l1.17,0,1.23,0c.14,0,.35-.06.35-.25s-.16-.24-.37-.32-.6-.29-.6-.56-.07-2.14-.11-3.14-.58-2.4-2-2.4a2.53,2.53,0,0,0-1.1.22,7.25,7.25,0,0,0-1.18.68c-.06,0-.19,0-.2,0a1.9,1.9,0,0,0-1.67-.85,4.37,4.37,0,0,0-2.2.81c-.07.06-.15,0-.15-.08v-.67a.38.38,0,0,0-.26-.17s-.06,0-.17.09a7,7,0,0,1-1.23.62.55.55,0,0,0-.27.38" transform="translate(-0.64 -0.44)"/><path class="u" d="M128.73,115.72c1.35,0,2.07,1.42,2.07,2.77a3.75,3.75,0,0,1-.43,2.13,1.67,1.67,0,0,1-1.21.62,2,2,0,0,1-1.21-.43,3.52,3.52,0,0,1-1-2.54,3.24,3.24,0,0,1,.65-2.1,1.73,1.73,0,0,1,1.08-.45m.24-.66a3.66,3.66,0,0,0-2.23.81,3.39,3.39,0,0,0-.33,5,3.62,3.62,0,0,0,2.51,1,3.47,3.47,0,0,0,2.4-1,3.42,3.42,0,0,0-2.35-5.88Z" transform="translate(-0.64 -0.44)"/><path class="u" d="M137.11,115.74a2,2,0,0,1,1.64.79,2,2,0,0,1,.12.62c0,1,0,2,0,3a.93.93,0,0,1-.15.4,2.43,2.43,0,0,1-1.24.4c-1.42,0-2.2-1.47-2.2-2.69a2.74,2.74,0,0,1,.75-2.07,1.66,1.66,0,0,1,1.08-.44m.67-.68a4.64,4.64,0,0,0-2.21.63,3.48,3.48,0,0,0-1.76,3.08,2.94,2.94,0,0,0,3,3.12,4.86,4.86,0,0,0,2-.79c.05,0,.13,0,.13,0s0,.47,0,.65.21.21.29.21c.24,0,.92-.23,2-.47a.58.58,0,0,0,.35-.42c0-.18-.13-.29-.22-.27a8.2,8.2,0,0,1-.88.09c-.13,0-.27-.13-.28-.63s-.07-.74-.07-3.93c0-1.29.07-3.46.07-4.47,0-.73,0-1-.21-1a20,20,0,0,0-2,.38c-.27.08-.33.16-.33.21a.41.41,0,0,0,.3.34c.7.17.77.22.81.74,0,.34,0,2.28,0,2.37s-.06.19-.12.18A4.34,4.34,0,0,0,137.78,115.06Z" transform="translate(-0.64 -0.44)"/><path class="u" d="M145.16,115.63c.84,0,1.22.43,1.22.9s-.73.58-1.33.58-1,0-1.16,0a.17.17,0,0,1-.1-.15,1.75,1.75,0,0,1,1.37-1.29m.48-.57a3.38,3.38,0,0,0-1.86.54,3.48,3.48,0,0,0-1.54,3,3,3,0,0,0,3.11,3.29,3.17,3.17,0,0,0,2.27-1,.73.73,0,0,0,.21-.49c0-.17-.13-.25-.19-.2a3.27,3.27,0,0,1-1.61.6,2.43,2.43,0,0,1-2.43-2.5,1.48,1.48,0,0,1,.08-.49.43.43,0,0,1,.26-.17l3.41-.05c.16,0,.43-.3.43-.48a2,2,0,0,0-.27-1.11A2.16,2.16,0,0,0,145.64,115.06Z" transform="translate(-0.64 -0.44)"/><path class="u" d="M149.07,111.78c0,.13.06.22.38.35s.47.24.51.43,0,1.72,0,3.86c0,2.74,0,3.72-.06,4s-.06.52-.8.79c-.28.1-.39.22-.39.38s.2.19.46.19.7-.06,1.32-.06c.41,0,1.06,0,1.51,0s.46-.1.46-.23-.08-.23-.33-.33c-.77-.29-.81-.3-.86-1,0-.38,0-2.93,0-3.88,0-1.48,0-3.5,0-4.75,0-.45-.06-.69-.19-.69a1.36,1.36,0,0,0-.33.07,13.62,13.62,0,0,0-1.43.51c-.11,0-.3.15-.3.28" transform="translate(-0.64 -0.44)"/><path class="t" d="M312,70.31c2.39,4.79,8,8,15.94,8h38.71c8,0,13.55,3.18,15.94,8,2.39-4.79,8-8,15.94-8H437.2c8,0,13.55-3.19,15.94-8" transform="translate(-0.64 -0.44)"/><path d="M318.61,96.84a2,2,0,0,1,1.64.79,2,2,0,0,1,.12.62c0,1,0,2,0,3a.93.93,0,0,1-.15.4,2.43,2.43,0,0,1-1.24.4c-1.42,0-2.2-1.47-2.2-2.69a2.74,2.74,0,0,1,.75-2.07,1.66,1.66,0,0,1,1.08-.44m.67-.68a4.64,4.64,0,0,0-2.21.63,3.48,3.48,0,0,0-1.76,3.08,2.94,2.94,0,0,0,3,3.12,4.86,4.86,0,0,0,2-.79c.05,0,.13,0,.13,0s0,.47,0,.65.21.21.29.21c.24,0,.92-.23,2-.47a.58.58,0,0,0,.35-.42c0-.18-.13-.29-.22-.27a8.2,8.2,0,0,1-.88.09c-.13,0-.27-.13-.28-.63s-.07-.74-.07-3.93c0-1.29.07-3.46.07-4.47,0-.73-.05-1-.21-1s-1.59.27-2,.38-.33.16-.33.21a.41.41,0,0,0,.3.34c.7.17.76.22.81.74,0,.34,0,2.28,0,2.37s-.06.19-.12.18A4.34,4.34,0,0,0,319.28,96.16Z" transform="translate(-0.64 -0.44)"/><path d="M325.8,92.87a.87.87,0,0,0-.92.9.85.85,0,0,0,.15.48,1,1,0,0,0,.69.36.89.89,0,0,0,.84-.9,1.17,1.17,0,0,0-.27-.65.7.7,0,0,0-.49-.19m-1.38,4a.45.45,0,0,0,.17.31c.46.3.6.48.62.61s0,.92,0,1.24c0,.9,0,2-.07,2.32-.06.65-.09.78-.79,1-.23.06-.38.18-.38.32s.15.24.47.24.53,0,1.34,0c.35,0,1,0,1.33,0s.46-.07.46-.21-.16-.3-.38-.37c-.57-.15-.63-.31-.65-.44s-.05-.44-.06-2.53V96.4c0-.05-.1-.26-.16-.26a8.4,8.4,0,0,0-1.72.53C324.53,96.7,324.42,96.78,324.42,96.86Z" transform="translate(-0.64 -0.44)"/><path d="M330.84,96.33c-.08,0-.15-.11-.15-.24a4.82,4.82,0,0,1,.34-1.9A1.59,1.59,0,0,1,332.52,93a2.49,2.49,0,0,1,1.89.86.27.27,0,0,1,.07.27,6.23,6.23,0,0,0-.43,2c0,.08-.07.2-.15.21h-3.06m3,.86c.13,0,.14.25.14.27,0,1.84,0,3.8-.06,4a.73.73,0,0,1-.62.79c-.25,0-.46.19-.46.33s.29.26.46.26.78,0,1.34,0c.89,0,1.51,0,1.71,0,.37,0,.48-.13.48-.29s-.18-.27-.45-.33c-.71-.16-1-.21-1-1,0-1.25-.07-2.57-.07-3.92a.17.17,0,0,1,.14-.16h1.77c.11,0,.3-.06.3-.17s0-.78-.2-.78-1.31,0-1.82,0c-.08,0-.12-.14-.12-.24a7.93,7.93,0,0,1,.28-2.21,1.37,1.37,0,0,1,1.18-1,1.82,1.82,0,0,1,1.19.54.65.65,0,0,0,.33.21.84.84,0,0,0,.7-.75.66.66,0,0,0-.16-.41,1.68,1.68,0,0,0-1.32-.51,3.25,3.25,0,0,0-2.19,1,.15.15,0,0,1-.21,0,2.78,2.78,0,0,0-2-.73,3.76,3.76,0,0,0-2,.65,4,4,0,0,0-1.76,3.15.34.34,0,0,1-.16.25c-.41.21-.89.41-.89.63a.27.27,0,0,0,.19.23l.72.06a.25.25,0,0,1,.14.25c0,2.69-.05,3.74-.06,4,0,.44-.16.63-.66.79-.23,0-.44.19-.44.33s.29.26.46.26.78,0,1.34,0c.89,0,1.17,0,1.44,0s.48-.16.48-.32-.14-.24-.43-.3c-.56-.15-.81-.24-.83-1,0-1.25,0-2.57,0-3.92,0-.07,0-.16.19-.16Z" transform="translate(-0.64 -0.44)"/><path d="M341.16,96.73c.84,0,1.22.43,1.22.9s-.73.58-1.33.58-1,0-1.16,0a.17.17,0,0,1-.1-.15,1.75,1.75,0,0,1,1.37-1.29m.48-.57a3.38,3.38,0,0,0-1.86.54,3.48,3.48,0,0,0-1.54,3,3,3,0,0,0,3.11,3.29,3.17,3.17,0,0,0,2.27-1,.73.73,0,0,0,.21-.49c0-.17-.13-.25-.19-.2a3.27,3.27,0,0,1-1.61.6,2.43,2.43,0,0,1-2.43-2.5,1.48,1.48,0,0,1,.08-.49.43.43,0,0,1,.26-.17l3.41,0c.16,0,.43-.3.43-.48a2,2,0,0,0-.27-1.11A2.16,2.16,0,0,0,341.64,96.16Z" transform="translate(-0.64 -0.44)"/><path d="M345.18,97.08c0,.09.18.24.35.36.38.27.4.38.4.48,0,.84,0,2.8-.05,3.51,0,.37-.06.61-.68.83-.19.06-.37.16-.37.33s.15.26.43.26c.45,0,.73,0,1.29,0s1.27.06,1.76.06c.2,0,.4-.14.4-.27s-.2-.27-.57-.36c-.72-.19-.84-.35-.89-1.1-.05-.56,0-2.84,0-3a.84.84,0,0,1,.14-.37.86.86,0,0,1,.73-.36,1,1,0,0,1,.57.19.67.67,0,0,0,.37.16.43.43,0,0,0,.25-.13,1.63,1.63,0,0,0,.64-1c0-.18-.41-.49-.88-.49a2.56,2.56,0,0,0-1.71.93c-.05.07-.16,0-.16,0,0-.24,0-.56,0-.78,0,0-.13-.22-.19-.22a1.21,1.21,0,0,0-.46.15c-.34.18-.83.4-1.08.54a.4.4,0,0,0-.23.34" transform="translate(-0.64 -0.44)"/><path d="M353.56,96.73c.84,0,1.22.43,1.22.9s-.73.58-1.33.58-1,0-1.16,0a.17.17,0,0,1-.1-.15,1.75,1.75,0,0,1,1.37-1.29m.48-.57a3.38,3.38,0,0,0-1.86.54,3.48,3.48,0,0,0-1.54,3,3,3,0,0,0,3.11,3.29,3.17,3.17,0,0,0,2.27-1,.73.73,0,0,0,.21-.49c0-.17-.13-.25-.19-.2a3.27,3.27,0,0,1-1.61.6,2.43,2.43,0,0,1-2.43-2.5,1.48,1.48,0,0,1,.08-.49.43.43,0,0,1,.26-.17l3.41,0c.16,0,.43-.3.43-.48a2,2,0,0,0-.27-1.11A2.16,2.16,0,0,0,354,96.16Z" transform="translate(-0.64 -0.44)"/><path d="M357.72,97s0,.1.22.24c.39.24.55.41.55.67,0,1.62,0,2.81-.09,3.57,0,.35-.11.54-.81.76-.16,0-.35.18-.35.34s.17.24.46.24.76,0,1.25,0,.86,0,1.39,0c.28,0,.44-.13.44-.26s-.12-.27-.41-.38c-.64-.24-.62-.43-.62-.67V97.86a.67.67,0,0,1,.19-.4,2.39,2.39,0,0,1,1.37-.35,1.32,1.32,0,0,1,1.13.43,3.36,3.36,0,0,1,.3,1.87c0,.7,0,1.39,0,2.17,0,.39-.12.54-.52.68s-.35.24-.35.33.22.26.43.26.54,0,1,0,1,0,1.19,0,.46-.1.46-.26-.11-.3-.48-.44-.39-.29-.41-.75c0-.71,0-1.6-.05-2.38a3.88,3.88,0,0,0-.47-2.12,1.64,1.64,0,0,0-1.46-.74,3.92,3.92,0,0,0-2.26.81c-.05,0-.13,0-.11,0s0-.62,0-.7-.22-.19-.27-.19a1.84,1.84,0,0,0-.42.16c-.31.16-.73.3-1,.44a.6.6,0,0,0-.28.4" transform="translate(-0.64 -0.44)"/><path d="M367.93,96.35c-.11,0-.12-.13-.12-.19s0-.61,0-.78-.08-.24-.14-.24a1,1,0,0,0-.64.41,7.36,7.36,0,0,1-1.14,1c-.14.12-.33.27-.33.33a.71.71,0,0,0,.47.46c.45.06.49.08.49.25,0,1.52-.07,2.48-.07,3.6a2.09,2.09,0,0,0,.22,1.12,1.79,1.79,0,0,0,1.4.74,2.88,2.88,0,0,0,1.62-.5.78.78,0,0,0,.38-.55c0-.13-.08-.24-.14-.24a2.26,2.26,0,0,0-.35.09,2.43,2.43,0,0,1-.73.15,1.47,1.47,0,0,1-.86-.35c-.19-.22-.26-.48-.24-1.19l.05-2.9c0-.17.08-.24.11-.24h1.79c.18,0,.32,0,.37-.21a3.56,3.56,0,0,0,0-.51c0-.09-.1-.27-.21-.27-.37,0-1.78.07-2,.07" transform="translate(-0.64 -0.44)"/><path d="M374.38,97.08c0,.09.18.24.35.36.38.27.4.38.4.48,0,.84,0,2.8-.05,3.51,0,.37-.06.61-.68.83-.19.06-.37.16-.37.33s.15.26.43.26c.45,0,.73,0,1.29,0s1.27.06,1.76.06c.19,0,.4-.14.4-.27s-.21-.27-.57-.36c-.71-.19-.84-.35-.89-1.1-.05-.56,0-2.84,0-3a.84.84,0,0,1,.14-.37.86.86,0,0,1,.73-.36,1,1,0,0,1,.57.19.67.67,0,0,0,.37.16.41.41,0,0,0,.25-.13,1.63,1.63,0,0,0,.64-1c0-.18-.41-.49-.87-.49a2.56,2.56,0,0,0-1.72.93c0,.07-.16,0-.16,0,0-.24,0-.56,0-.78,0,0-.13-.22-.19-.22a1.21,1.21,0,0,0-.46.15c-.34.18-.83.4-1.08.54a.4.4,0,0,0-.23.34" transform="translate(-0.64 -0.44)"/><path d="M382.86,96.73c.84,0,1.22.43,1.22.9s-.73.58-1.33.58-1,0-1.16,0a.17.17,0,0,1-.1-.15,1.75,1.75,0,0,1,1.37-1.29m.48-.57a3.38,3.38,0,0,0-1.86.54,3.48,3.48,0,0,0-1.54,3,3,3,0,0,0,3.11,3.29,3.17,3.17,0,0,0,2.27-1,.73.73,0,0,0,.21-.49c0-.17-.13-.25-.19-.2a3.31,3.31,0,0,1-1.61.6,2.43,2.43,0,0,1-2.43-2.5,1.48,1.48,0,0,1,.08-.49.43.43,0,0,1,.26-.17l3.41,0c.16,0,.43-.3.43-.48a2,2,0,0,0-.27-1.11A2.16,2.16,0,0,0,383.34,96.16Z" transform="translate(-0.64 -0.44)"/><path d="M386.67,92.88c0,.13.06.22.38.35s.47.24.51.43,0,1.72,0,3.86c0,2.74,0,3.72-.06,4s-.06.52-.79.79c-.29.1-.4.22-.4.38s.21.19.46.19.7-.06,1.32-.06c.41,0,1.06,0,1.51,0s.46-.1.46-.23-.08-.23-.33-.33c-.77-.29-.82-.3-.86-1,0-.38,0-2.93,0-3.88,0-1.48,0-3.5,0-4.75,0-.45-.06-.69-.19-.69a1.36,1.36,0,0,0-.33.07,13.62,13.62,0,0,0-1.43.51c-.11,0-.3.15-.3.28" transform="translate(-0.64 -0.44)"/><path d="M393.47,101.93a1.06,1.06,0,0,1-1.07-1c0-.4.14-.57.59-.73a14.19,14.19,0,0,1,1.7-.41c.05,0,.13,0,.13.09l0,1a1.45,1.45,0,0,1-.13.48,1.94,1.94,0,0,1-1.2.54m.63-5.77a3.83,3.83,0,0,0-1.87.71c-.69.48-1.15,1-1.15,1.24a.46.46,0,0,0,.19.26,2.66,2.66,0,0,0,.67.08,1.22,1.22,0,0,0,.46-.13.48.48,0,0,0,.14-.35,1.86,1.86,0,0,1,.16-.78,1.39,1.39,0,0,1,.72-.21,1.5,1.5,0,0,1,1.4.89,1.13,1.13,0,0,1,.05.42v.6a.3.3,0,0,1-.18.24,14.69,14.69,0,0,1-2.7.76,1.57,1.57,0,0,0-.64.46,1.23,1.23,0,0,0-.23.77,1.8,1.8,0,0,0,1.51,1.87,1.71,1.71,0,0,0,.84-.24,11.82,11.82,0,0,0,1.22-.76s.16.06.16.08a1.1,1.1,0,0,0,1.13,1,1.4,1.4,0,0,0,1.16-.57,2,2,0,0,0,.14-.41c0-.13-.08-.29-.14-.26a1.56,1.56,0,0,1-.54.15c-.3,0-.57-.26-.57-.78,0-1.78.06-2.45.06-3.05a2.34,2.34,0,0,0-.54-1.37A1.92,1.92,0,0,0,394.1,96.16Z" transform="translate(-0.64 -0.44)"/><path d="M400,96.35c-.11,0-.12-.13-.12-.19s0-.61,0-.78-.08-.24-.14-.24a1,1,0,0,0-.64.41,7.36,7.36,0,0,1-1.14,1c-.14.12-.33.27-.33.33a.71.71,0,0,0,.47.46c.45.06.49.08.49.25,0,1.52-.07,2.48-.07,3.6a2.09,2.09,0,0,0,.22,1.12,1.79,1.79,0,0,0,1.4.74,2.88,2.88,0,0,0,1.62-.5.78.78,0,0,0,.38-.55c0-.13-.08-.24-.14-.24a2.26,2.26,0,0,0-.35.09,2.43,2.43,0,0,1-.73.15,1.49,1.49,0,0,1-.86-.35c-.19-.22-.26-.48-.24-1.19l.05-2.9c0-.17.08-.24.11-.24h1.79c.18,0,.32,0,.37-.21s0-.33,0-.51-.09-.27-.2-.27c-.37,0-1.78.07-2,.07" transform="translate(-0.64 -0.44)"/><path d="M404.9,92.87a.87.87,0,0,0-.92.9.85.85,0,0,0,.15.48,1,1,0,0,0,.69.36.9.9,0,0,0,.84-.9,1.17,1.17,0,0,0-.27-.65.7.7,0,0,0-.49-.19m-1.38,4a.45.45,0,0,0,.17.31c.46.3.6.48.62.61s0,.92,0,1.24c0,.9,0,2-.07,2.32-.06.65-.09.78-.79,1-.22.06-.38.18-.38.32s.16.24.47.24.53,0,1.34,0c.35,0,1,0,1.33,0s.46-.07.46-.21-.16-.3-.38-.37c-.57-.15-.63-.31-.65-.44s-.05-.44-.06-2.53V96.4c0-.05-.1-.26-.16-.26a8.4,8.4,0,0,0-1.72.53C403.63,96.7,403.52,96.78,403.52,96.86Z" transform="translate(-0.64 -0.44)"/><path d="M410.83,96.82c1.35,0,2.07,1.42,2.07,2.77a3.75,3.75,0,0,1-.43,2.13,1.67,1.67,0,0,1-1.21.62,2,2,0,0,1-1.21-.43,3.52,3.52,0,0,1-.95-2.54,3.24,3.24,0,0,1,.65-2.1,1.73,1.73,0,0,1,1.08-.45m.24-.66a3.66,3.66,0,0,0-2.23.81,3.39,3.39,0,0,0-.33,5,3.62,3.62,0,0,0,2.51,1,3.47,3.47,0,0,0,2.4-.95,3.43,3.43,0,0,0-2.35-5.88Z" transform="translate(-0.64 -0.44)"/><path d="M415.92,97s0,.1.22.24c.39.24.55.41.55.67,0,1.62,0,2.81-.09,3.57,0,.35-.11.54-.81.76-.16,0-.35.18-.35.34s.17.24.46.24.76,0,1.26,0,.85,0,1.38,0c.28,0,.44-.13.44-.26s-.12-.27-.41-.38c-.64-.24-.62-.43-.62-.67V97.86a.67.67,0,0,1,.19-.4,2.39,2.39,0,0,1,1.37-.35,1.32,1.32,0,0,1,1.13.43,3.47,3.47,0,0,1,.3,1.87c0,.7,0,1.39,0,2.17,0,.39-.13.54-.52.68s-.35.24-.35.33.22.26.43.26.54,0,1,0,1,0,1.19,0,.46-.1.46-.26-.11-.3-.47-.44-.4-.29-.42-.75c0-.71,0-1.6-.05-2.38a3.88,3.88,0,0,0-.47-2.12,1.64,1.64,0,0,0-1.46-.74A3.92,3.92,0,0,0,418,97c-.05,0-.13,0-.11,0s0-.62,0-.7-.23-.19-.27-.19a1.68,1.68,0,0,0-.42.16c-.31.16-.73.3-1,.44a.6.6,0,0,0-.28.4" transform="translate(-0.64 -0.44)"/><path d="M426.67,96.16a3.15,3.15,0,0,0-1.39.41,1.81,1.81,0,0,0-.81,1.49,2,2,0,0,0,1.15,1.74c.48.27.84.44,1.25.7a1.08,1.08,0,0,1,.58.89,1,1,0,0,1-1.12,1,1.89,1.89,0,0,1-1.44-1c-.21-.31-.32-.43-.42-.43s-.28.12-.28.53a2.54,2.54,0,0,0,.32,1.14,2.34,2.34,0,0,0,1.62.4,3.23,3.23,0,0,0,1.36-.3,1.89,1.89,0,0,0,1.2-1.75c0-.94-.7-1.43-1.53-1.86s-1.51-.63-1.51-1.41a1,1,0,0,1,.92-.94,1.55,1.55,0,0,1,1.21.92c.14.29.29.43.35.43.22,0,.35-.35.35-.46a7.87,7.87,0,0,0,0-.88.88.88,0,0,0-.27-.31l-.51-.15a3.27,3.27,0,0,0-1-.12" transform="translate(-0.64 -0.44)"/><path d="M434.25,96.16a2.57,2.57,0,0,0-1,.16,5.89,5.89,0,0,0-1.06.57s-.11,0-.11-.15c0-.71.05-3.41.05-4S432,92,431.93,92a1.51,1.51,0,0,0-.48.13,10.11,10.11,0,0,1-1.11.43c-.17,0-.33.16-.33.32s.09.24.35.4.35.25.38.63.06,1.11.06,3.29c0,3.48-.06,4.07-.09,4.37s-.24.53-.7.67c-.25.08-.41.16-.41.33s.14.26.46.26.85,0,1.27,0,.92,0,1.21,0a.38.38,0,0,0,.41-.34c0-.08-.13-.16-.32-.24-.38-.19-.54-.34-.54-.46,0-.36,0-3.6,0-3.94a1,1,0,0,1,.17-.38,1.84,1.84,0,0,1,1.42-.46,1.78,1.78,0,0,1,1.21.54,1.9,1.9,0,0,1,.33,1.08c0,.7,0,2.39,0,2.77,0,.57-.09.7-.62.87-.25.1-.37.21-.37.3s.21.26.48.26c.43,0,.83,0,1.16,0s.75,0,1.18,0c.17,0,.46,0,.46-.26s-.14-.28-.4-.36c-.51-.18-.57-.32-.57-.67s-.05-2-.05-2.56a3.38,3.38,0,0,0-.59-2.13,2,2,0,0,0-1.62-.71" transform="translate(-0.64 -0.44)"/><path d="M440,92.87a.87.87,0,0,0-.92.9.85.85,0,0,0,.15.48,1,1,0,0,0,.69.36.9.9,0,0,0,.84-.9,1.17,1.17,0,0,0-.27-.65.7.7,0,0,0-.49-.19m-1.38,4a.45.45,0,0,0,.17.31c.46.3.6.48.62.61s0,.92,0,1.24c0,.9,0,2-.07,2.32-.06.65-.09.78-.79,1-.22.06-.38.18-.38.32s.16.24.47.24.53,0,1.34,0c.35,0,1,0,1.33,0s.46-.07.46-.21-.16-.3-.38-.37c-.57-.15-.63-.31-.65-.44s-.05-.44-.06-2.53V96.4c0-.05-.1-.26-.16-.26a8.4,8.4,0,0,0-1.72.53C438.73,96.7,438.62,96.78,438.62,96.86Z" transform="translate(-0.64 -0.44)"/><path d="M446.26,97.09c1.4,0,2,1.47,2,2.66a2.94,2.94,0,0,1-.75,2,1.7,1.7,0,0,1-1.24.51,2,2,0,0,1-1.37-.86c-.09-.14-.14-.35-.14-1.27,0-.65,0-1.85.05-2.37a.53.53,0,0,1,.21-.3,2.11,2.11,0,0,1,1.2-.34m.7-.92a2.71,2.71,0,0,0-1,.19,9.22,9.22,0,0,0-1.06.53c-.06,0-.16,0-.16-.08s.05-.51.05-.64a.4.4,0,0,0-.22-.22,1.33,1.33,0,0,0-.54.24,9.48,9.48,0,0,1-1,.49c-.18.1-.37.29-.37.43s.07.13.29.27c.51.37.54.49.54.6,0,.66.05,1.23,0,4.26,0,1,0,1.85-.09,2.8,0,.54-.13.84-.88,1-.3.08-.42.22-.42.32s.27.28.46.28,1-.14,1.65-.14,1.34,0,1.46,0,.45-.13.45-.3-.11-.21-.48-.32c-.81-.24-.86-.41-.86-.64,0-.52,0-1.28,0-2,0-.13.11-.33.16-.32a3.39,3.39,0,0,0,.59,0,5.75,5.75,0,0,0,1.75-.33,3.61,3.61,0,0,0,2.4-3.45,3.36,3.36,0,0,0-1-2.35A2.49,2.49,0,0,0,447,96.17Z" transform="translate(-0.64 -0.44)"/><path d="M328,121a1.06,1.06,0,0,1-1.07-1c0-.4.14-.57.59-.73a14.19,14.19,0,0,1,1.7-.41c.05,0,.13,0,.13.09l0,1a1.45,1.45,0,0,1-.13.48,1.94,1.94,0,0,1-1.2.54m.63-5.77a3.83,3.83,0,0,0-1.87.71c-.69.48-1.15,1-1.15,1.24a.46.46,0,0,0,.19.26,2.66,2.66,0,0,0,.67.08,1.22,1.22,0,0,0,.46-.13.48.48,0,0,0,.14-.35,1.86,1.86,0,0,1,.16-.78,1.39,1.39,0,0,1,.72-.21,1.5,1.5,0,0,1,1.4.89,1.13,1.13,0,0,1,.05.42v.6a.3.3,0,0,1-.18.24,14.69,14.69,0,0,1-2.7.76,1.57,1.57,0,0,0-.64.46,1.23,1.23,0,0,0-.23.77,1.8,1.8,0,0,0,1.51,1.87,1.71,1.71,0,0,0,.84-.24,11.82,11.82,0,0,0,1.22-.76s.16.06.16.08a1.1,1.1,0,0,0,1.13,1,1.4,1.4,0,0,0,1.16-.57,2,2,0,0,0,.14-.41c0-.13-.08-.29-.14-.26a1.56,1.56,0,0,1-.54.15c-.3,0-.57-.26-.57-.78,0-1.78.06-2.45.06-3a2.34,2.34,0,0,0-.54-1.37A1.92,1.92,0,0,0,328.6,115.26Z" transform="translate(-0.64 -0.44)"/><path d="M334.53,115.45c-.11,0-.12-.13-.12-.19s0-.61,0-.78-.08-.24-.14-.24a1,1,0,0,0-.64.41,7.36,7.36,0,0,1-1.14,1c-.14.12-.33.27-.33.33a.71.71,0,0,0,.47.46c.45.06.49.08.49.25,0,1.52-.07,2.48-.07,3.6a2.09,2.09,0,0,0,.22,1.12,1.79,1.79,0,0,0,1.4.74,2.88,2.88,0,0,0,1.62-.5.78.78,0,0,0,.38-.55c0-.13-.08-.24-.14-.24a2.26,2.26,0,0,0-.35.09,2.43,2.43,0,0,1-.73.15,1.49,1.49,0,0,1-.86-.35c-.19-.22-.26-.48-.24-1.19l.05-2.9c0-.17.08-.24.11-.24h1.79c.18,0,.32,0,.37-.21s0-.33,0-.51-.09-.27-.2-.27c-.37,0-1.78.07-2,.07" transform="translate(-0.64 -0.44)"/><path d="M344.46,116.19c1.4,0,2,1.47,2,2.66a2.94,2.94,0,0,1-.75,2,1.7,1.7,0,0,1-1.24.51,2,2,0,0,1-1.37-.86c-.09-.14-.14-.35-.14-1.27,0-.65,0-1.85.05-2.37a.53.53,0,0,1,.21-.3,2.11,2.11,0,0,1,1.2-.34m.7-.92a2.68,2.68,0,0,0-1,.19,9.22,9.22,0,0,0-1.06.53c-.06,0-.16,0-.16-.08s0-.51,0-.64a.39.39,0,0,0-.23-.22,1.36,1.36,0,0,0-.53.24,9.48,9.48,0,0,1-1,.49c-.18.1-.37.29-.37.43s.07.13.29.27c.51.37.54.49.54.6,0,.66.05,1.23,0,4.26,0,1,0,1.85-.09,2.8,0,.54-.13.84-.87,1-.31.08-.43.22-.43.32s.27.28.46.28,1-.14,1.65-.14,1.34,0,1.46,0c.27,0,.45-.13.45-.3s-.11-.21-.48-.32c-.81-.24-.86-.41-.86-.64,0-.52,0-1.28,0-2,0-.13.11-.33.16-.32a3.39,3.39,0,0,0,.59,0,5.75,5.75,0,0,0,1.75-.33,3.61,3.61,0,0,0,2.4-3.45,3.36,3.36,0,0,0-1-2.35A2.49,2.49,0,0,0,345.16,115.27Z" transform="translate(-0.64 -0.44)"/><path d="M349.38,116.18c0,.09.18.24.35.36.38.27.4.38.4.48,0,.84,0,2.8-.05,3.51,0,.37-.06.61-.68.83-.19.06-.37.16-.37.33s.15.26.43.26c.45,0,.73,0,1.29,0s1.27.06,1.76.06c.19,0,.4-.14.4-.27s-.21-.27-.57-.36c-.71-.19-.84-.35-.89-1.1-.05-.56,0-2.84,0-3a.84.84,0,0,1,.14-.37.86.86,0,0,1,.73-.36,1,1,0,0,1,.57.19.67.67,0,0,0,.37.16.41.41,0,0,0,.25-.13,1.63,1.63,0,0,0,.64-1c0-.18-.41-.49-.87-.49a2.56,2.56,0,0,0-1.72.93c0,.07-.16,0-.16,0,0-.24,0-.56,0-.78,0-.05-.13-.22-.19-.22a1.21,1.21,0,0,0-.46.15c-.34.18-.83.4-1.08.54a.4.4,0,0,0-.23.34" transform="translate(-0.64 -0.44)"/><path d="M357.86,115.83c.84,0,1.22.43,1.22.9s-.73.58-1.33.58-1,0-1.16,0a.17.17,0,0,1-.1-.15,1.75,1.75,0,0,1,1.37-1.29m.48-.57a3.38,3.38,0,0,0-1.86.54,3.48,3.48,0,0,0-1.54,3,3,3,0,0,0,3.11,3.29,3.17,3.17,0,0,0,2.27-1,.73.73,0,0,0,.21-.49c0-.17-.13-.25-.19-.2a3.31,3.31,0,0,1-1.61.6,2.43,2.43,0,0,1-2.43-2.5,1.48,1.48,0,0,1,.08-.49.43.43,0,0,1,.26-.17l3.41,0c.16,0,.43-.3.43-.48a2,2,0,0,0-.27-1.11A2.16,2.16,0,0,0,358.34,115.26Z" transform="translate(-0.64 -0.44)"/><path d="M365,115.94a2,2,0,0,1,1.64.79,2,2,0,0,1,.12.62c0,1,0,2,0,3a.93.93,0,0,1-.15.4,2.43,2.43,0,0,1-1.24.4c-1.42,0-2.2-1.47-2.2-2.69a2.74,2.74,0,0,1,.75-2.07,1.66,1.66,0,0,1,1.08-.44m.67-.68a4.64,4.64,0,0,0-2.21.63A3.49,3.49,0,0,0,361.7,119a3,3,0,0,0,3,3.12,4.86,4.86,0,0,0,2-.79c.05,0,.13,0,.13,0s0,.47,0,.65.21.21.29.21c.24,0,.92-.23,2-.47a.58.58,0,0,0,.35-.42c0-.18-.13-.29-.22-.27a8.2,8.2,0,0,1-.88.09c-.13,0-.27-.13-.28-.63s-.07-.74-.07-3.93c0-1.29.07-3.46.07-4.47,0-.73-.05-1-.21-1s-1.59.27-2,.38-.33.16-.33.21a.41.41,0,0,0,.3.34c.7.17.76.22.81.74,0,.34,0,2.28,0,2.37s-.06.19-.12.18A4.34,4.34,0,0,0,365.68,115.26Z" transform="translate(-0.64 -0.44)"/><path d="M372.1,112a.87.87,0,0,0-.92.9.85.85,0,0,0,.15.48,1,1,0,0,0,.69.36.89.89,0,0,0,.84-.9,1.17,1.17,0,0,0-.27-.65.7.7,0,0,0-.49-.19m-1.38,4a.45.45,0,0,0,.17.31c.46.3.6.48.62.61s0,.92,0,1.24c0,.9,0,2-.07,2.32-.06.65-.09.78-.79,1-.23.06-.38.18-.38.32s.15.24.47.24.53,0,1.34,0c.35,0,1,0,1.33,0s.46-.07.46-.21-.16-.3-.38-.37c-.57-.15-.63-.31-.65-.44s-.05-.44-.06-2.53v-2.9s-.1-.26-.16-.26a8.4,8.4,0,0,0-1.72.53C370.83,115.8,370.72,115.88,370.72,116Z" transform="translate(-0.64 -0.44)"/><path d="M378.46,115.26a3.75,3.75,0,0,0-2.11.63,3.44,3.44,0,0,0-1.62,3,3.35,3.35,0,0,0,.9,2.35,3.08,3.08,0,0,0,2.13.83A2.89,2.89,0,0,0,380.1,121a1,1,0,0,0,.2-.61c0-.12-.19-.22-.28-.14a2.17,2.17,0,0,1-1.59.67,2.41,2.41,0,0,1-2.36-2.56,2.79,2.79,0,0,1,.55-1.88,1.38,1.38,0,0,1,1.06-.52,2,2,0,0,1,1.51.58,1.13,1.13,0,0,0,.54.37c.22,0,.51-.38.51-.83a.84.84,0,0,0-.14-.38,2.21,2.21,0,0,0-1.64-.47" transform="translate(-0.64 -0.44)"/><path d="M383.73,115.45c-.11,0-.12-.13-.12-.19s0-.61,0-.78-.08-.24-.14-.24a1,1,0,0,0-.64.41,7.36,7.36,0,0,1-1.14,1c-.14.12-.33.27-.33.33a.71.71,0,0,0,.47.46c.45.06.49.08.49.25,0,1.52-.07,2.48-.07,3.6a2.09,2.09,0,0,0,.22,1.12,1.79,1.79,0,0,0,1.4.74,2.88,2.88,0,0,0,1.62-.5.78.78,0,0,0,.38-.55c0-.13-.08-.24-.14-.24a2.26,2.26,0,0,0-.35.09,2.43,2.43,0,0,1-.73.15,1.49,1.49,0,0,1-.86-.35c-.19-.22-.26-.48-.24-1.19l.05-2.9c0-.17.08-.24.11-.24h1.79c.18,0,.32,0,.37-.21s0-.33,0-.51-.09-.27-.2-.27c-.37,0-1.78.07-2,.07" transform="translate(-0.64 -0.44)"/><path d="M388.7,112a.87.87,0,0,0-.92.9.85.85,0,0,0,.15.48,1,1,0,0,0,.69.36.89.89,0,0,0,.84-.9,1.17,1.17,0,0,0-.27-.65.7.7,0,0,0-.49-.19m-1.38,4a.45.45,0,0,0,.17.31c.46.3.6.48.62.61s0,.92,0,1.24c0,.9,0,2-.07,2.32-.06.65-.09.78-.79,1-.23.06-.38.18-.38.32s.15.24.47.24.53,0,1.34,0c.35,0,1,0,1.33,0s.46-.07.46-.21-.16-.3-.38-.37c-.57-.15-.63-.31-.65-.44s0-.44-.06-2.53v-2.9s-.1-.26-.16-.26a8.4,8.4,0,0,0-1.72.53C387.43,115.8,387.32,115.88,387.32,116Z" transform="translate(-0.64 -0.44)"/><path d="M394.63,115.92c1.35,0,2.07,1.42,2.07,2.77a3.75,3.75,0,0,1-.43,2.13,1.67,1.67,0,0,1-1.21.62,2,2,0,0,1-1.21-.43,3.52,3.52,0,0,1-1-2.54,3.24,3.24,0,0,1,.65-2.1,1.73,1.73,0,0,1,1.08-.45m.24-.66a3.66,3.66,0,0,0-2.23.81,3.39,3.39,0,0,0-.33,5,3.62,3.62,0,0,0,2.51,1,3.47,3.47,0,0,0,2.4-1,3.42,3.42,0,0,0-2.35-5.88Z" transform="translate(-0.64 -0.44)"/><path d="M399.72,116.13s0,.1.22.24c.39.24.55.41.55.67,0,1.62,0,2.81-.09,3.57,0,.35-.11.54-.81.76-.16,0-.35.18-.35.34s.17.24.46.24.76,0,1.25,0,.86,0,1.39,0c.28,0,.44-.13.44-.26s-.12-.27-.41-.38c-.64-.24-.62-.43-.62-.67V117a.67.67,0,0,1,.19-.4,2.39,2.39,0,0,1,1.37-.35,1.32,1.32,0,0,1,1.13.43,3.36,3.36,0,0,1,.3,1.87c0,.7,0,1.39,0,2.17,0,.39-.12.54-.52.68s-.35.24-.35.33.22.26.43.26.54,0,1,0,1,0,1.19,0,.46-.1.46-.26-.11-.3-.48-.44-.39-.29-.41-.75c0-.71,0-1.6-.05-2.38a3.88,3.88,0,0,0-.47-2.12,1.64,1.64,0,0,0-1.46-.74,3.92,3.92,0,0,0-2.26.81c-.05,0-.13,0-.11,0s0-.62,0-.7-.22-.19-.27-.19a1.84,1.84,0,0,0-.42.16c-.31.16-.73.3-1,.44a.6.6,0,0,0-.28.4" transform="translate(-0.64 -0.44)"/><path d="M413.43,115.45c-.11,0-.12-.13-.12-.19s0-.61,0-.78-.08-.24-.14-.24a1,1,0,0,0-.64.41,7.36,7.36,0,0,1-1.14,1c-.14.12-.33.27-.33.33a.71.71,0,0,0,.47.46c.45.06.49.08.49.25,0,1.52-.07,2.48-.07,3.6a2.09,2.09,0,0,0,.22,1.12,1.79,1.79,0,0,0,1.4.74,2.88,2.88,0,0,0,1.62-.5.78.78,0,0,0,.38-.55c0-.13-.08-.24-.14-.24a2.26,2.26,0,0,0-.35.09,2.43,2.43,0,0,1-.73.15,1.47,1.47,0,0,1-.86-.35c-.19-.22-.26-.48-.24-1.19l.05-2.9c0-.17.08-.24.11-.24h1.79c.18,0,.32,0,.37-.21a3.56,3.56,0,0,0,0-.51c0-.09-.1-.27-.21-.27-.37,0-1.78.07-2,.07" transform="translate(-0.64 -0.44)"/><path d="M418.3,112a.87.87,0,0,0-.92.9.85.85,0,0,0,.15.48,1,1,0,0,0,.69.36.89.89,0,0,0,.84-.9,1.17,1.17,0,0,0-.27-.65.7.7,0,0,0-.49-.19m-1.38,4a.45.45,0,0,0,.17.31c.46.3.6.48.62.61s0,.92,0,1.24c0,.9,0,2-.07,2.32-.06.65-.09.78-.79,1-.23.06-.38.18-.38.32s.15.24.47.24.53,0,1.34,0c.35,0,1,0,1.33,0s.46-.07.46-.21-.16-.3-.38-.37c-.57-.15-.63-.31-.65-.44s-.05-.44-.06-2.53v-2.9s-.1-.26-.16-.26a8.4,8.4,0,0,0-1.72.53C417,115.8,416.92,115.88,416.92,116Z" transform="translate(-0.64 -0.44)"/><path d="M421.44,116.24c0,.05.07.11.35.33a.76.76,0,0,1,.35.58c0,1.46,0,2.75-.06,3.34s-.08.63-.7.88c-.24.1-.38.2-.38.34s.17.27.44.27.72-.08,1.08-.08,1,0,1.39,0c.23,0,.39-.11.39-.27s0-.19-.35-.35-.49-.26-.52-.7,0-.78,0-3.58a1.86,1.86,0,0,1,.17-.41,2.32,2.32,0,0,1,1.37-.43,1.46,1.46,0,0,1,1.22.49,1.52,1.52,0,0,1,.24.7l0,3c0,.62-.2.72-.63.88-.26.09-.4.19-.4.32s.22.28.48.28l1.13,0,1.33,0c.19,0,.38-.09.38-.27s-.09-.27-.41-.38a.7.7,0,0,1-.56-.68c0-.37,0-1,0-3.45a1,1,0,0,1,.15-.5,2.77,2.77,0,0,1,1.4-.39,1.34,1.34,0,0,1,1.16.52,2.06,2.06,0,0,1,.26,1.18c0,.68,0,1.92,0,2.68a.62.62,0,0,1-.51.7c-.3.08-.38.26-.38.32s.19.27.45.27l1.17,0,1.23,0c.14,0,.35-.06.35-.25s-.16-.24-.37-.32-.6-.29-.6-.56-.07-2.14-.11-3.14-.58-2.4-2-2.4a2.53,2.53,0,0,0-1.1.22,7.25,7.25,0,0,0-1.18.68c-.06,0-.19,0-.2,0a1.9,1.9,0,0,0-1.67-.85,4.3,4.3,0,0,0-2.19.81.1.1,0,0,1-.16-.08v-.67a.38.38,0,0,0-.26-.17s-.06,0-.17.09a7,7,0,0,1-1.23.62.55.55,0,0,0-.27.38" transform="translate(-0.64 -0.44)"/><path d="M436.86,115.83c.84,0,1.22.43,1.22.9s-.73.58-1.33.58-1,0-1.16,0a.17.17,0,0,1-.1-.15,1.75,1.75,0,0,1,1.37-1.29m.48-.57a3.38,3.38,0,0,0-1.86.54,3.48,3.48,0,0,0-1.54,3,3,3,0,0,0,3.11,3.29,3.17,3.17,0,0,0,2.27-1,.73.73,0,0,0,.21-.49c0-.17-.13-.25-.19-.2a3.31,3.31,0,0,1-1.61.6,2.43,2.43,0,0,1-2.43-2.5,1.48,1.48,0,0,1,.08-.49.43.43,0,0,1,.26-.17l3.41,0c.16,0,.43-.3.43-.48a2,2,0,0,0-.27-1.11A2.16,2.16,0,0,0,437.34,115.26Z" transform="translate(-0.64 -0.44)"/></g><polygon class="v" points="228.88 62.59 228.88 62.59 228.88 62.59 228.88 62.59 228.88 62.59 228.88 62.59 228.88 62.59 228.88 62.59 228.88 62.59 228.88 62.59 228.88 62.59 228.88 62.59 228.88 62.59 228.88 62.59 228.88 62.59 228.88 62.59 228.88 62.59 228.88 62.59 228.88 62.59 228.88 62.59 228.88 62.59 228.88 62.59 228.88 62.59 228.88 62.59 228.88 62.59 228.88 62.59 228.88 62.59 228.88 62.59 228.88 62.59 228.88 62.59 228.88 62.59 228.88 62.59 228.88 62.59 228.88 62.59 228.88 62.59 228.88 62.59 228.88 62.59 228.88 62.59 228.88 62.59 228.88 62.59 228.88 62.59 228.88 62.59 228.88 62.59 228.88 62.59 228.88 62.59 228.88 62.59 228.88 62.59 228.88 62.59 228.88 62.59 228.88 62.59 228.88 62.59 228.88 62.59 228.88 62.59 228.88 62.59 228.88 62.59 228.88 62.59 228.88 62.59 228.88 62.59 228.88 62.59 228.88 62.59 228.88 62.59 228.88 62.59 228.88 62.59 228.88 62.59 228.88 62.59 228.88 62.59 228.88 62.59 228.88 62.59 228.88 62.59 228.88 62.59 228.88 62.59 228.88 62.59 228.88 62.59 228.88 62.59 228.88 62.59 228.88 62.59 228.88 62.59 228.88 62.59 228.88 62.59 228.88 62.59 228.88 62.59 228.88 62.59 228.88 62.59 228.88 62.59 228.88 62.59 228.88 62.59 228.88 62.59 228.88 62.59 228.88 62.59 228.88 62.59 228.88 62.59 228.88 62.59 228.88 62.59 228.88 62.59 228.88 62.59 228.88 62.59 228.88 62.59 228.88 62.59 228.88 62.59 228.88 62.59 228.88 62.59 228.88 62.59 228.88 62.59 228.88 62.59 228.88 62.59 228.88 62.59 228.88 62.59 228.88 62.59 228.88 62.59 228.88 62.59 228.88 62.59 228.88 62.59 228.88 62.59 228.88 62.59 228.88 62.59 228.88 62.59 228.88 62.59 228.88 62.59 228.88 62.59 228.88 62.59 228.88 62.59 228.88 62.59 228.88 62.59 228.88 62.59 228.88 62.59 228.88 62.59 228.88 62.59 228.88 62.59 228.88 62.59 228.88 62.59 228.88 62.59 228.88 62.59 228.88 62.59 228.88 62.59 228.88 62.59 228.88 62.59 228.88 62.59 228.88 62.59 228.88 62.59 228.88 62.59 228.88 62.59 228.88 62.59 228.88 62.59 228.88 62.59 228.88 62.59 228.88 62.59 228.88 62.59 228.88 62.59 228.88 62.59 228.88 62.59 228.88 62.59 228.88 62.59 228.88 62.59 228.88 62.59 228.88 62.59 228.88 62.59 228.88 62.59 228.88 62.59 228.88 62.59 228.88 62.59 228.88 62.59 228.88 62.59 228.88 62.59 228.88 62.59 228.88 62.59 228.88 62.59 228.88 62.59 228.88 62.59 228.88 62.59 228.88 62.59 228.88 62.59 228.88 62.59 228.88 62.59 228.88 62.59 228.88 62.59 228.88 62.59 228.88 62.59 228.88 62.59 228.88 62.59 228.88 62.59 228.88 62.59 228.88 62.59 228.88 62.59 228.88 62.59 228.88 62.59 228.88 62.59 228.88 62.59 228.88 62.59 228.88 62.59 228.88 62.59 228.88 62.59 228.88 62.59 228.88 62.59 228.88 62.59 228.88 62.59 228.88 62.59 228.88 62.59 228.88 62.59 228.88 62.59 228.88 62.59 228.88 62.59 228.88 62.59 228.88 62.59 228.88 62.59 228.88 62.59 228.88 62.59 228.88 62.59 228.88 62.59 228.88 62.59 228.88 62.59 228.88 62.59 228.88 62.59 228.88 62.59 228.88 62.59 228.88 62.59 228.88 62.59 228.88 62.59 228.88 62.59 228.88 62.59 228.88 62.59 228.88 62.59 228.88 62.59 228.88 62.59 228.88 62.59 228.88 62.59 228.88 62.59 228.88 62.59 228.88 62.59 228.88 62.59 228.88 62.59 228.88 62.59 228.88 62.59 228.88 62.59 228.88 62.59 228.88 62.59 228.88 62.59 228.88 62.59 228.88 62.59 228.88 62.59 228.88 62.59 228.88 62.59 228.88 62.59 228.88 62.59 228.88 62.59 228.88 62.59 228.88 62.59 228.88 62.59 228.88 62.59 228.88 62.59 228.88 62.59 228.88 62.59 228.88 62.59 228.88 62.59 228.88 62.59 228.88 62.59 228.88 62.59 228.88 62.59 228.88 62.59 228.88 62.59 228.88 62.59 228.88 62.59 228.88 62.59 228.88 62.59 228.88 62.59 228.88 62.59 228.88 62.59 228.88 62.59 228.88 62.59 228.88 62.59 228.88 62.59 228.88 62.59 228.88 62.59 228.88 62.59 228.88 62.59 228.88 62.59 228.88 62.59"/></svg>