<svg xmlns="http://www.w3.org/2000/svg" viewBox="0 0 319.35 84.81"><defs><clipPath id="clip-path" transform="translate(-.05 -.23)"><path fill="none" d="M0 0h320v86H0z"/></clipPath><style>.cls-3{fill:#ed1c24}.cls-4{fill:#046a38}.cls-5{fill:#003c71}</style></defs><g id="Layer_2" data-name="Layer 2"><g clip-path="url(#clip-path)" id="Layer_1-2" data-name="Layer 1"><path class="cls-3" d="M7.07 14.54A7.11 7.11 0 016 17.59C5.71 18.07 4.83 19 4.31 19c-.19 0-.45-.29-.57-.54a.71.71 0 01-.07-.32c.16-.76.73-3 1-4.11a.67.67 0 01.26-.39 5.58 5.58 0 011.24-.15 1 1 0 01.93 1.08m1.28.11a1.73 1.73 0 00-1.94-1.93c-.21 0-.85.1-1.37.16 0 0-.13-.09-.13-.16a5 5 0 00.18-.87c0-.21-.46-.49-.56-.49a.83.83 0 00-.4.24A4.66 4.66 0 003.67 13s0 .09-.22.17c-.38.19-1 .38-1.13.51a1.22 1.22 0 00-.28.52.2.2 0 00.25.13c.27-.11.79-.27 1-.33.06 0 .12.11.12.16C3 16 2 20.62 1.61 21.69c-.18.49-.29.64-1.15.79a.63.63 0 00-.41.45c0 .11.14.22.49.22H1.8c.81 0 1.65.09 1.7.09.38 0 .6-.17.6-.34s-.27-.27-.44-.31c-.78-.2-.83-.39-.73-.95a21.15 21.15 0 01.46-2.08s.12-.13.17-.11a2.46 2.46 0 00.8.2 4 4 0 001.86-1c.54-.46 2.13-2.24 2.13-4zm5.9 8.6l.31-.35c-2.17-1.85-3-4.74-3-7.58s.81-5.76 3-7.6l-.31-.35a9.44 9.44 0 00-3.91 8 9.43 9.43 0 003.91 7.93m4.89-10.61a2.75 2.75 0 00-1.65.74 2.24 2.24 0 00-.82 1.6c0 .38.17.56.31.56a1.65 1.65 0 00.75-.43c0-.07.14-.21.13-.26a3.51 3.51 0 01-.12-.71.55.55 0 01.53-.56 5.09 5.09 0 011.33.32 10.13 10.13 0 001.13.25v.2a43.08 43.08 0 00-3.56 3.19c-.76.81-1.05 1.33-1.05 1.56s.16.52.34.52a.56.56 0 00.38-.32c.19-.36.55-.81.92-.81s.56.08 1.16.54 1 .83 1.51.83a2.44 2.44 0 001.41-.73 2 2 0 00.86-1.4c0-.43-.17-.91-.79-.91a.27.27 0 00-.19.28 2.49 2.49 0 01.11.73c0 .79-.46 1-.67 1a1.68 1.68 0 01-1-.39 3.42 3.42 0 00-1.92-.74s-.12-.08-.08-.13c.33-.4 3.72-3.31 4.65-4.07.19-.16.37-.36.37-.54a.67.67 0 00-.3-.41.54.54 0 00-.35.2 2.43 2.43 0 01-1 .64 3.13 3.13 0 01-.89-.24 5.78 5.78 0 00-1.51-.48m6.67 3.19a.47.47 0 00-.38.29c-.09.18-.32.71-.39.82a.28.28 0 01-.13.11h-.75a.54.54 0 00-.2.37c0 .1 0 .15.09.16h.74v.1c-.21.66-.75 2.58-.88 3.07a3 3 0 00-.09.53c0 .08.13.44.42.44A3.63 3.63 0 0026 20.67a.65.65 0 00.14-.4c0-.07-.12-.19-.17-.15-.37.32-.82.69-1 .69s-.13-.1 0-.48c.33-1.18.65-2.27.74-2.5a.18.18 0 01.12-.11h1.08c.06 0 .24-.37.24-.45s0-.13-.08-.13H26a.09.09 0 01-.1-.1 9.27 9.27 0 00.28-1s-.17-.1-.33-.1m3.83-8.54h-.63v15.86h.63V7.42m8.92 6.81a.94.94 0 00.37-.74.79.79 0 00-.75-.77 2.09 2.09 0 00-1.54.85 18.66 18.66 0 00-1.26 1.55c0 .05-.11 0-.14 0l-.33-1c-.18-.55-.4-1.36-1.05-1.36s-1.47.93-1.75 1.47a2 2 0 00-.19.41c0 .19.25.43.32.33.33-.46.93-1 1.17-1s.34.29.48.73.25.83.48 1.5a1.39 1.39 0 01-.16.39c-.73 1.26-1.37 2-1.75 2-.21 0-.48-.26-.57-.53s-.29-.08-.34 0a1.55 1.55 0 00-.62 1 .86.86 0 00.81.78c1 0 2-1.54 2.72-2.47 0 0 .19-.07.21 0 .09.29.2.62.32.92.22.59.47 1.43 1.22 1.43a2.11 2.11 0 001.81-1.76c0-.14-.11-.29-.17-.29s-.16 0-.32.26c-.4.54-.67.57-.86.57-.41 0-.71-.75-1.13-2.21 0-.08.07-.29.08-.32.62-1 1.59-2.11 1.88-2.11.12 0 .25.17.33.39s.13.26.24.26a.81.81 0 00.49-.18m.71 7.25c0 .11.16.18.38.18s.91-.06 1.62-.06h1.06c.22 0 .33-.1.33-.18s-.11-.18-.26-.22c-.74-.15-.86-.21-.67-1 .1-.47.7-2.71.9-3.47.27-1 .47-1.56.53-1.75a.16.16 0 00-.14-.16 1.68 1.68 0 00-.24.08 11 11 0 01-1.59.38c-.13 0-.3.11-.3.23s.19.17.3.18.46 0 .67 0 .08.14.06.22c-.06.26-.11.52-.51 2-.31 1.19-.5 1.74-.72 2.44-.15.5-.36.68-1 .79-.25.05-.46.1-.46.26m6.19-4.97a.67.67 0 10.67.67.67.67 0 00-.67-.67m0 3.33a.67.67 0 10.67.67.66.66 0 00-.67-.67zm3.97-3.92a.47.47 0 00-.38.29c-.09.18-.32.71-.39.82a.28.28 0 01-.13.11h-.75a.54.54 0 00-.2.37c0 .1.05.15.09.16h.74v.1c-.21.66-.75 2.58-.88 3.07a3 3 0 00-.09.53c0 .08.13.44.42.44a3.63 3.63 0 001.74-1.21.65.65 0 00.14-.4c0-.07-.12-.19-.17-.15a2.85 2.85 0 01-1 .69c-.1 0-.13-.1 0-.48.34-1.18.65-2.27.74-2.5a.18.18 0 01.12-.11h1.08c.06 0 .24-.37.24-.45s0-.13-.08-.13h-1.09a.09.09 0 01-.1-.1 9.27 9.27 0 00.28-1s-.17-.1-.33-.1m3.44 7.39a9.43 9.43 0 003.91-7.93 9.44 9.44 0 00-3.91-7.95l-.3.35c2.16 1.84 3 4.74 3 7.6s-.81 5.73-3 7.58l.3.35" transform="translate(-.05 -.23)"/><path d="M69.71 14.82c-.89-1-1.91-2.22-3.44-2.22a2.74 2.74 0 000 5.48c1.51 0 2.45-1.18 3.44-2.22 1.08 1.11 2 2.22 3.43 2.22h.62a.36.36 0 00.36-.36.35.35 0 00-.36-.37h-.62c-1.16 0-2-1-2.92-2 1-1 1.76-2 2.92-2h.62a.35.35 0 00.36-.37.36.36 0 00-.36-.36h-.62c-1.49 0-2.43 1.17-3.43 2.22m-.51.53c-.94 1-1.75 2-2.93 2a2 2 0 010-4c1.18-.04 1.99.99 2.93 1.98z" transform="translate(-.05 -.23)"/><path class="cls-4" d="M85.07 14.54a7.11 7.11 0 01-1 3.05c-.31.48-1.19 1.38-1.71 1.38-.19 0-.45-.29-.57-.54a.71.71 0 01-.07-.32c.16-.76.73-3 1-4.11a.67.67 0 01.26-.39 5.58 5.58 0 011.24-.15 1 1 0 01.93 1.08m1.27.11a1.72 1.72 0 00-1.93-1.93c-.21 0-.85.1-1.37.16-.05 0-.13-.09-.13-.16a5 5 0 00.18-.87c0-.21-.46-.49-.56-.49a.83.83 0 00-.4.24 4.37 4.37 0 00-.54 1.4s0 .09-.22.17c-.38.19-1 .38-1.13.51a1.22 1.22 0 00-.28.52.2.2 0 00.25.13c.27-.11.79-.27 1-.33.06 0 .12.11.12.16C81 16 80 20.62 79.61 21.69c-.18.49-.29.64-1.15.79a.63.63 0 00-.41.45c0 .11.14.22.49.22h1.26c.81 0 1.65.09 1.7.09.38 0 .6-.17.6-.34s-.27-.27-.44-.31c-.78-.2-.83-.39-.73-.95a21.15 21.15 0 01.46-2.08s.12-.13.17-.11a2.46 2.46 0 00.8.2 4 4 0 001.86-1c.54-.46 2.12-2.24 2.12-4zm5.96 8.63l.31-.35c-2.17-1.85-3-4.74-3-7.58s.81-5.76 3-7.6l-.31-.35a9.44 9.44 0 00-3.91 8 9.43 9.43 0 003.91 7.93m9.02-9.1a.94.94 0 00.37-.74.79.79 0 00-.75-.77 2.09 2.09 0 00-1.54.85 18.66 18.66 0 00-1.26 1.55c0 .05-.11 0-.14 0l-.33-1c-.18-.55-.4-1.36-1-1.36s-1.47.93-1.75 1.47a2 2 0 00-.19.41c0 .19.25.43.32.33.33-.46.93-1 1.17-1s.34.29.48.73.25.83.48 1.5a1.39 1.39 0 01-.16.39c-.73 1.26-1.37 2-1.75 2-.21 0-.48-.26-.57-.53s-.29-.08-.34 0a1.55 1.55 0 00-.62 1 .86.86 0 00.81.78c1 0 2-1.54 2.72-2.47 0 0 .19-.07.21 0 .09.29.2.62.32.92.22.59.47 1.43 1.22 1.43a2.11 2.11 0 001.81-1.76c0-.14-.11-.29-.17-.29s-.16 0-.32.26c-.4.54-.67.57-.86.57-.41 0-.71-.75-1.13-2.21a.61.61 0 01.08-.32c.62-1 1.59-2.11 1.88-2.11.12 0 .25.17.33.39s.13.26.24.26a.81.81 0 00.49-.18m2.78 1.61a.47.47 0 00-.38.29c-.09.18-.32.71-.39.82a.28.28 0 01-.13.11h-.75a.54.54 0 00-.2.37c0 .1.05.15.09.16h.74v.1c-.21.66-.75 2.58-.88 3.07a3 3 0 00-.09.53c0 .08.13.44.42.44a3.63 3.63 0 001.74-1.21.65.65 0 00.14-.4c0-.07-.13-.19-.17-.15-.37.32-.82.69-1 .69s-.13-.1 0-.48c.34-1.18.65-2.27.74-2.5a.18.18 0 01.12-.11h1.08c.06 0 .24-.37.24-.45s0-.13-.08-.13h-1.06a.09.09 0 01-.1-.1 9.27 9.27 0 00.28-1s-.17-.1-.33-.1m3.92-8.49h-.63v15.86h.63V7.42m4.69 5.3a2.75 2.75 0 00-1.65.74 2.24 2.24 0 00-.82 1.6c0 .38.17.56.31.56a1.65 1.65 0 00.75-.43c.05-.07.14-.21.13-.26a3.51 3.51 0 01-.12-.71.55.55 0 01.53-.56 5.19 5.19 0 011.33.32 10.13 10.13 0 001.13.25c.05 0 0 .15 0 .2a43.08 43.08 0 00-3.56 3.19c-.76.81-1.05 1.33-1.05 1.56s.16.52.34.52a.56.56 0 00.38-.32c.19-.36.55-.81.92-.81s.56.08 1.16.54 1 .83 1.51.83a2.44 2.44 0 001.41-.73 2 2 0 00.86-1.4c0-.43-.17-.91-.79-.91a.27.27 0 00-.19.28 2.49 2.49 0 01.11.73c0 .79-.46 1-.67 1a1.68 1.68 0 01-1-.39 3.42 3.42 0 00-1.92-.74s-.11-.08-.08-.13c.33-.4 3.72-3.31 4.65-4.07.19-.16.37-.36.37-.54a.67.67 0 00-.3-.41.54.54 0 00-.35.2 2.43 2.43 0 01-1 .64 3.13 3.13 0 01-.89-.24 5.78 5.78 0 00-1.51-.48m6.67 3.19a.47.47 0 00-.38.29c-.09.18-.32.71-.39.82a.28.28 0 01-.13.11h-.75a.54.54 0 00-.2.37c0 .1 0 .15.09.16h.74v.1c-.21.66-.75 2.58-.88 3.07a3 3 0 00-.09.53c0 .08.13.44.42.44a3.63 3.63 0 001.74-1.21.65.65 0 00.14-.4c0-.07-.13-.19-.17-.15a2.85 2.85 0 01-1 .69c-.1 0-.13-.1 0-.48.34-1.18.65-2.27.74-2.5a.18.18 0 01.12-.11h1.08c.06 0 .24-.37.24-.45s0-.13-.08-.13h-1.06a.09.09 0 01-.1-.1 9.27 9.27 0 00.28-1s-.17-.1-.33-.1m3.31 7.39a9.43 9.43 0 003.91-7.93 9.44 9.44 0 00-3.91-7.95l-.3.35c2.16 1.84 3 4.74 3 7.6s-.81 5.73-3 7.58l.3.35" transform="translate(-.05 -.23)"/><path d="M132.29 29.15a.65.65 0 00.16.4 4 4 0 002.43.8c3.33 0 4.09-4.12 4.72-7.73L142.2 8c.36-2.07 1.39-7 3.35-7a2.18 2.18 0 011.49.6.57.57 0 001.12-.17A.59.59 0 00148 1a4.11 4.11 0 00-2.41-.79c-3.34 0-4.11 4.11-4.74 7.72l-2.59 14.67c-.35 2.07-1.4 7-3.36 7a2.13 2.13 0 01-1.49-.63.55.55 0 00-.54-.37.57.57 0 00-.56.57" transform="translate(-.05 -.23)"/><path class="cls-5" d="M158.27 14.54a7.27 7.27 0 01-1 3.05c-.32.48-1.2 1.38-1.72 1.38-.19 0-.45-.29-.57-.54a.71.71 0 01-.07-.32c.16-.76.73-3 1-4.11a.67.67 0 01.26-.39 5.58 5.58 0 011.24-.15 1 1 0 01.93 1.08m1.27.11a1.72 1.72 0 00-1.93-1.93c-.21 0-.85.1-1.37.16-.05 0-.13-.09-.13-.16a5 5 0 00.18-.87c0-.21-.46-.49-.56-.49a.83.83 0 00-.4.24 4.66 4.66 0 00-.46 1.43s-.05.09-.22.17c-.38.19-1 .38-1.13.51a1.22 1.22 0 00-.28.52.2.2 0 00.25.13c.27-.11.79-.27 1-.33.06 0 .12.11.12.16-.43 1.84-1.44 6.43-1.82 7.5-.18.49-.29.64-1.15.79a.63.63 0 00-.41.45c0 .11.14.22.49.22h1.26c.81 0 1.65.09 1.7.09.38 0 .6-.17.6-.34s-.27-.27-.44-.31c-.78-.2-.83-.39-.73-.95a21.15 21.15 0 01.46-2.08s.12-.13.17-.11a2.46 2.46 0 00.8.2 4 4 0 001.86-1c.53-.46 2.07-2.24 2.07-4zm5.97 8.63l.31-.35c-2.17-1.85-3-4.74-3-7.58s.81-5.76 3-7.6l-.31-.35a9.44 9.44 0 00-3.91 8 9.43 9.43 0 003.91 7.93m4.89-10.61a2.75 2.75 0 00-1.65.74 2.25 2.25 0 00-.83 1.6c0 .38.18.56.32.56a1.65 1.65 0 00.75-.43c.05-.07.14-.21.13-.26a3.51 3.51 0 01-.12-.71.55.55 0 01.53-.56 5.19 5.19 0 011.33.32 10.13 10.13 0 001.13.25c.05 0 0 .15 0 .2a43.08 43.08 0 00-3.56 3.19c-.76.81-1.05 1.33-1.05 1.56s.16.52.34.52a.56.56 0 00.38-.32c.19-.36.55-.81.92-.81s.56.08 1.16.54 1 .83 1.51.83a2.44 2.44 0 001.41-.73 2 2 0 00.86-1.4c0-.43-.17-.91-.79-.91a.27.27 0 00-.19.28 2.49 2.49 0 01.11.73c0 .79-.46 1-.67 1a1.68 1.68 0 01-1-.39 3.42 3.42 0 00-1.92-.74s-.11-.08-.08-.13c.33-.4 3.72-3.31 4.65-4.07a.83.83 0 00.37-.54.67.67 0 00-.3-.41.54.54 0 00-.35.2 2.43 2.43 0 01-1 .64 3.13 3.13 0 01-.89-.24 5.78 5.78 0 00-1.51-.48m6.54 3.19a.47.47 0 00-.38.29c-.09.18-.32.71-.39.82a.28.28 0 01-.13.11h-.75a.54.54 0 00-.2.37c0 .1 0 .15.09.16h.74v.1c-.21.66-.75 2.58-.88 3.07a3 3 0 00-.09.53c0 .08.13.44.42.44a3.63 3.63 0 001.74-1.21.65.65 0 00.14-.4c0-.07-.13-.19-.17-.15a2.85 2.85 0 01-1 .69c-.1 0-.13-.1 0-.48.34-1.18.65-2.27.74-2.5a.18.18 0 01.12-.11h1.08c.06 0 .24-.37.24-.45s0-.13-.08-.13h-1.06a.09.09 0 01-.1-.1 9.27 9.27 0 00.28-1s-.17-.1-.33-.1M181 7.4h-.63v15.86h.63V7.42m4.67 5.3a2.75 2.75 0 00-1.65.74 2.24 2.24 0 00-.82 1.6c0 .38.17.56.31.56a1.65 1.65 0 00.75-.43c.05-.07.14-.21.13-.26a3.49 3.49 0 01-.11-.71.54.54 0 01.52-.56 5.19 5.19 0 011.33.32 10.13 10.13 0 001.13.25c.05 0 0 .15 0 .2a43.08 43.08 0 00-3.56 3.19c-.76.81-1 1.33-1 1.56s.16.52.34.52a.56.56 0 00.38-.32c.19-.36.55-.81.92-.81s.56.08 1.16.54 1 .83 1.51.83a2.44 2.44 0 001.41-.73 2 2 0 00.86-1.4c0-.43-.17-.91-.79-.91a.27.27 0 00-.19.28 2.49 2.49 0 01.11.73c0 .79-.46 1-.67 1a1.68 1.68 0 01-1-.39 3.42 3.42 0 00-1.92-.74c-.05 0-.12-.08-.08-.13.33-.4 3.72-3.31 4.65-4.07a.83.83 0 00.37-.54.67.67 0 00-.3-.41.54.54 0 00-.35.2 2.43 2.43 0 01-1 .64 3.13 3.13 0 01-.89-.24 5.78 5.78 0 00-1.51-.48m6.62 3.19a.48.48 0 00-.38.29c-.09.18-.32.71-.39.82a.28.28 0 01-.13.11h-.75a.54.54 0 00-.2.37c0 .1.05.15.09.16h.74v.1c-.21.66-.75 2.58-.88 3.07a3 3 0 00-.09.53c0 .08.13.44.42.44a3.63 3.63 0 001.74-1.21.65.65 0 00.14-.4c0-.07-.13-.19-.17-.15-.37.32-.82.69-1 .69s-.13-.1 0-.48c.34-1.18.65-2.27.74-2.5a.18.18 0 01.12-.11h1.08c.06 0 .24-.37.24-.45s0-.13-.08-.13h-1.06a.09.09 0 01-.1-.1 9.27 9.27 0 00.28-1s-.17-.1-.33-.1m1.87 3.02a.41.41 0 00-.17.11 1 1 0 00-.13.4.2.2 0 00.18.22c.51 0 1.49-.07 2.21-.11a1 1 0 00.18-.14 1.07 1.07 0 00.11-.45s-.08-.22-.14-.22c-.29 0-2 .15-2.24.19m2.38 2.67c0 .11.16.18.38.18s.91-.06 1.62-.06h1.06c.22 0 .34-.1.34-.18s-.12-.18-.27-.22c-.74-.15-.86-.21-.67-1 .1-.47.7-2.71.9-3.47.27-1 .47-1.56.52-1.75a.14.14 0 00-.13-.16 1.68 1.68 0 00-.24.08 11 11 0 01-1.59.38c-.13 0-.3.11-.3.23s.19.17.3.18.46 0 .67 0 .08.14.06.22c-.06.26-.11.52-.5 2-.32 1.19-.51 1.74-.73 2.44-.15.5-.36.68-1 .79-.25.05-.46.1-.46.26m7.2 1.78a9.43 9.43 0 003.91-7.93 9.44 9.44 0 00-3.91-7.95l-.3.35c2.16 1.84 3 4.74 3 7.6s-.81 5.73-3 7.58l.3.35" transform="translate(-.05 -.23)"/><path class="cls-3" d="M218.87 14.54a7.11 7.11 0 01-1.05 3.05c-.31.48-1.19 1.38-1.71 1.38-.19 0-.45-.29-.57-.54a.71.71 0 01-.07-.32c.16-.76.73-3 1-4.11a.67.67 0 01.26-.39 5.58 5.58 0 011.24-.15 1 1 0 01.93 1.08m1.28.11a1.73 1.73 0 00-1.94-1.93c-.21 0-.85.1-1.37.16-.05 0-.13-.09-.13-.16a5 5 0 00.18-.87c0-.21-.46-.49-.56-.49a.83.83 0 00-.4.24 4.66 4.66 0 00-.46 1.43s0 .09-.22.17c-.38.19-1 .38-1.13.51a1.22 1.22 0 00-.28.52.2.2 0 00.25.13c.27-.11.79-.27 1-.33.06 0 .12.11.12.16-.42 1.84-1.44 6.43-1.82 7.5-.18.49-.29.64-1.15.79a.63.63 0 00-.41.45c0 .11.14.22.49.22h1.26c.81 0 1.65.09 1.7.09.38 0 .6-.17.6-.34s-.27-.27-.44-.31c-.78-.2-.83-.39-.73-.95a21.15 21.15 0 01.46-2.08s.12-.13.17-.11a2.46 2.46 0 00.8.2 4 4 0 001.86-1c.53-.46 2.12-2.24 2.12-4zm5.9 8.63l.31-.35c-2.17-1.85-3-4.74-3-7.58s.81-5.76 3-7.6l-.31-.35a9.44 9.44 0 00-3.91 8 9.43 9.43 0 003.91 7.93M231 12.72a2.75 2.75 0 00-1.65.74 2.25 2.25 0 00-.83 1.6c0 .38.18.56.32.56a1.65 1.65 0 00.75-.43c.05-.07.14-.21.13-.26a3.51 3.51 0 01-.12-.71.55.55 0 01.53-.56 5.19 5.19 0 011.33.32 10.13 10.13 0 001.13.25c.05 0 0 .15 0 .2a43.08 43.08 0 00-3.59 3.19c-.76.81-1.05 1.33-1.05 1.56s.16.52.34.52a.56.56 0 00.38-.32c.19-.36.55-.81.92-.81s.56.08 1.16.54 1 .83 1.51.83a2.44 2.44 0 001.41-.73 2 2 0 00.86-1.4c0-.43-.17-.91-.79-.91a.27.27 0 00-.19.28 2.49 2.49 0 01.11.73c0 .79-.46 1-.67 1a1.68 1.68 0 01-1-.39 3.42 3.42 0 00-1.92-.74s-.11-.08-.08-.13c.33-.4 3.72-3.31 4.65-4.07A.83.83 0 00235 13a.67.67 0 00-.3-.41.54.54 0 00-.35.2 2.43 2.43 0 01-1 .64 3.13 3.13 0 01-.89-.24 5.78 5.78 0 00-1.51-.48m6.68 3.23a.48.48 0 00-.38.29c-.09.18-.32.71-.39.82a.28.28 0 01-.13.11h-.75a.54.54 0 00-.2.37c0 .1 0 .15.09.16h.74v.1c-.21.66-.75 2.58-.88 3.07a3 3 0 00-.09.53c0 .08.13.44.42.44a3.63 3.63 0 001.74-1.21.65.65 0 00.14-.4c0-.07-.13-.19-.17-.15-.37.32-.82.69-1 .69s-.13-.1 0-.48c.33-1.18.65-2.27.74-2.5a.18.18 0 01.12-.11h1.08c.06 0 .24-.37.24-.45s0-.13-.08-.13h-1.06a.09.09 0 01-.1-.1 9.27 9.27 0 00.28-1s-.17-.1-.33-.1m1.87 3.02a.41.41 0 00-.17.11.89.89 0 00-.13.4.2.2 0 00.18.22c.51 0 1.49-.07 2.21-.11 0 0 .15-.11.18-.14a1.07 1.07 0 00.11-.45s-.08-.22-.14-.22c-.29 0-2 .15-2.24.19m2.38 2.67c0 .11.16.18.38.18s.91-.06 1.62-.06h1.06c.22 0 .34-.1.34-.18s-.12-.18-.27-.22c-.74-.15-.86-.21-.67-1 .1-.47.7-2.71.9-3.47.27-1 .47-1.56.52-1.75a.14.14 0 00-.13-.16 1.68 1.68 0 00-.24.08 11 11 0 01-1.59.38c-.13 0-.3.11-.3.23s.19.17.3.18.46 0 .67 0c.06 0 .08.14.06.22-.06.26-.11.52-.5 2-.32 1.19-.51 1.74-.73 2.44-.15.5-.36.68-1 .79-.25.05-.46.1-.46.26m7.71-14.1H249v15.86h.63V7.42m8.87 6.81a.94.94 0 00.37-.74.79.79 0 00-.75-.77 2.09 2.09 0 00-1.54.85 18.66 18.66 0 00-1.26 1.55c0 .05-.11 0-.14 0l-.33-1c-.18-.55-.4-1.36-1-1.36s-1.47.93-1.75 1.47a2 2 0 00-.19.41c0 .19.25.43.32.33.33-.46.93-1 1.17-1s.34.29.48.73.25.83.48 1.5a1.39 1.39 0 01-.16.39c-.73 1.26-1.37 2-1.75 2-.21 0-.48-.26-.57-.53s-.29-.08-.34 0a1.59 1.59 0 00-.62 1 .86.86 0 00.81.78c1 0 2-1.54 2.72-2.47 0 0 .19-.07.21 0 .09.29.2.62.32.92.22.59.47 1.43 1.22 1.43a2.11 2.11 0 001.8-1.86c0-.14-.11-.29-.17-.29s-.16 0-.32.26c-.4.54-.67.57-.86.57-.41 0-.71-.75-1.13-2.21a.61.61 0 01.08-.32c.62-1 1.59-2.11 1.88-2.11.12 0 .25.17.33.39s.13.26.24.26a.81.81 0 00.49-.18m.67 7.35c0 .11.16.18.38.18s.91-.06 1.62-.06h1.06c.22 0 .33-.1.33-.18s-.11-.18-.26-.22c-.74-.15-.86-.21-.67-1 .1-.47.7-2.71.9-3.47.27-1 .47-1.56.53-1.75a.16.16 0 00-.1-.08 1.68 1.68 0 00-.24.08 11 11 0 01-1.59.38c-.13 0-.3.11-.3.23s.19.17.3.18.46 0 .67 0c.06 0 .08.14.06.22-.06.26-.11.52-.51 2-.31 1.19-.5 1.74-.72 2.44-.15.5-.36.68-1 .79-.24.05-.46.1-.46.26m6.15-5.05a.67.67 0 10.67.67.67.67 0 00-.67-.67m0 3.33a.67.67 0 10.67.67.66.66 0 00-.67-.67zm3.97-3.92a.47.47 0 00-.38.29c-.09.18-.32.71-.39.82a.28.28 0 01-.13.11h-.75a.54.54 0 00-.2.37c0 .1 0 .15.09.16h.74v.1c-.21.66-.75 2.58-.88 3.07a3 3 0 00-.09.53c0 .08.13.44.42.44a3.63 3.63 0 001.74-1.21.65.65 0 00.14-.4c0-.07-.13-.19-.17-.15-.37.32-.82.69-1 .69s-.13-.1 0-.48c.34-1.18.65-2.27.74-2.5a.18.18 0 01.12-.11h1.08c.06 0 .24-.37.24-.45s0-.13-.08-.13h-1.06a.09.09 0 01-.1-.1 9.27 9.27 0 00.28-1s-.17-.1-.33-.1m1.86 3.02a.46.46 0 00-.16.11 1 1 0 00-.13.4.2.2 0 00.18.22c.51 0 1.49-.07 2.21-.11 0 0 .15-.11.18-.14a1.07 1.07 0 00.11-.45s-.08-.22-.14-.22c-.29 0-2 .15-2.25.19m2.39 2.67c0 .11.16.18.38.18s.91-.06 1.62-.06h1.06c.22 0 .33-.1.33-.18s-.11-.18-.26-.22c-.74-.15-.86-.21-.67-1 .1-.47.7-2.71.9-3.47.27-1 .47-1.56.53-1.75a.16.16 0 00-.14-.16 1.68 1.68 0 00-.24.08 11 11 0 01-1.59.38c-.13 0-.3.11-.3.23s.19.17.3.18.46 0 .67 0 .08.14.06.22c-.06.26-.11.52-.51 2-.31 1.19-.5 1.74-.72 2.44-.15.5-.36.68-1 .79-.25.05-.46.1-.46.26m7.2 1.78a9.43 9.43 0 003.91-7.93 9.44 9.44 0 00-3.91-7.95l-.3.35c2.16 1.84 3 4.74 3 7.6s-.81 5.73-3 7.58l.3.35" transform="translate(-.05 -.23)"/><path d="M292 18.13a6.29 6.29 0 01.74-2.46c.45-.85 1.55-2.33 2.52-2.33.12 0 .44.46.55.83a1.07 1.07 0 010 .43 7.14 7.14 0 01-1.37 2.65c-.52.64-1.21 1.34-1.81 1.34-.27 0-.65-.3-.65-.46m-1.24-.22a2.46 2.46 0 00.25 1.14 1.27 1.27 0 001 .57 2 2 0 001-.3 9 9 0 002.28-2.07c.07-.06.17 0 .14.08-.13.45-.43 1.56-.43 1.72s.08.29.09.32a1 1 0 00.62.25 3 3 0 002.31-1.78c0-.08.22-.59 0-.59s-.22.07-.33.2c-.38.49-.85.92-1.21.92a.41.41 0 01-.25-.08c-.05-.08 0-.13 0-.3.29-1.4.67-2.77 1-4.14.43-1.67 1-3.76 1.12-4.61.06-.35 0-.62-.16-.62a8.32 8.32 0 00-1.83.31c-.3.07-.35.2-.35.23a.48.48 0 00.3.35c.59.21.67.27.65.5a25.81 25.81 0 01-.7 3c0 .07-.11.13-.17.08a2.41 2.41 0 00-.92-.32 3.27 3.27 0 00-1.78.7 6.53 6.53 0 00-2.66 4.44zm10.93-5.19a2.75 2.75 0 00-1.65.74 2.25 2.25 0 00-.83 1.6c0 .38.18.56.32.56a1.65 1.65 0 00.75-.43c.05-.07.14-.21.13-.26a3.49 3.49 0 01-.11-.71.54.54 0 01.52-.56 5.09 5.09 0 011.33.32 10.13 10.13 0 001.13.25c.05 0 0 .15 0 .2a43.08 43.08 0 00-3.56 3.19c-.76.81-1.05 1.33-1.05 1.56s.16.52.34.52a.56.56 0 00.38-.32c.19-.36.55-.81.92-.81s.56.08 1.16.54 1 .83 1.51.83a2.44 2.44 0 001.41-.73 2 2 0 00.86-1.4c0-.43-.17-.91-.79-.91a.27.27 0 00-.19.28 2.49 2.49 0 01.11.73c0 .79-.46 1-.67 1a1.68 1.68 0 01-1-.39 3.42 3.42 0 00-1.92-.74c-.05 0-.11-.08-.08-.13.33-.4 3.72-3.31 4.65-4.07.19-.16.37-.36.37-.54a.67.67 0 00-.3-.41.54.54 0 00-.35.2 2.43 2.43 0 01-1 .64 3.13 3.13 0 01-.89-.24 5.78 5.78 0 00-1.51-.48m6.67 3.19a.47.47 0 00-.38.29c-.09.18-.32.71-.39.82a.28.28 0 01-.13.11h-.75a.54.54 0 00-.2.37c0 .1 0 .15.09.16h.74v.1c-.21.66-.75 2.58-.88 3.07a3 3 0 00-.09.53c0 .08.13.44.42.44a3.63 3.63 0 001.74-1.21.65.65 0 00.14-.4c0-.07-.13-.19-.17-.15-.37.32-.82.69-1 .69s-.13-.1 0-.48c.34-1.18.65-2.27.74-2.5a.18.18 0 01.12-.11h1.08c.06 0 .24-.37.24-.45s0-.13-.08-.13h-1.06a.09.09 0 01-.1-.1 9.27 9.27 0 00.28-1s-.17-.1-.33-.1m1.77 3.02a.41.41 0 00-.13.09 1 1 0 00-.14.4.21.21 0 00.19.22c.51 0 1.49-.07 2.21-.11 0 0 .15-.11.18-.14a1.07 1.07 0 00.11-.45s-.08-.22-.14-.22c-.29 0-2 .15-2.24.19m2.44 2.69c0 .11.16.18.38.18s.91-.06 1.62-.06h1.06c.22 0 .33-.1.33-.18s-.11-.18-.26-.22c-.74-.15-.86-.21-.67-1 .1-.47.7-2.71.9-3.47.27-1 .47-1.56.53-1.75a.16.16 0 00-.14-.16 1.68 1.68 0 00-.24.08 11 11 0 01-1.59.38c-.13 0-.3.11-.3.23s.19.17.3.18.46 0 .67 0 .08.14.06.22c-.06.26-.11.52-.51 2-.31 1.19-.5 1.74-.72 2.44-.15.5-.36.68-1 .79-.25.05-.46.1-.46.26M137.76 38.58h1.35v-1.24h-1.35c-2.64 0-5.43-.61-6.52-2.9h-.3a.06.06 0 00-.05.05V35c1.2 2.52 4.07 3.53 6.9 3.53" transform="translate(-.05 -.23)"/><path d="M138.21 37.34v1.19H140v-1.19h-1.76" transform="translate(-.05 -.23)"/><path d="M139.11 37.34v1.19h1.82v-1.19h-1.82" transform="translate(-.05 -.23)"/><path d="M140 37.34v1.19h1.86v-1.19H140" transform="translate(-.05 -.23)"/><path d="M140.91 37.34v1.19h1.82v-1.19H141" transform="translate(-.05 -.23)"/><path d="M141.81 37.34v1.19h1.77v-1.19h-1.77" transform="translate(-.05 -.23)"/><path d="M142.71 37.34v1.19h1.76v-1.19h-1.76" transform="translate(-.05 -.23)"/><path d="M143.61 37.34v1.19h1.82v-1.19h-1.82" transform="translate(-.05 -.23)"/><path d="M144.51 37.34v1.19h1.86v-1.19h-1.86" transform="translate(-.05 -.23)"/><path d="M145.41 37.34v1.19h1.82v-1.19h-1.82" transform="translate(-.05 -.23)"/><path d="M146.31 37.34v1.19h1.77v-1.19h-1.77" transform="translate(-.05 -.23)"/><path d="M147.21 37.34v1.19H149v-1.19h-1.76" transform="translate(-.05 -.23)"/><path d="M148 37.34v1.19h1.86v-1.19H148" transform="translate(-.05 -.23)"/><path d="M148.91 37.34v1.19h1.82v-1.19H149" transform="translate(-.05 -.23)"/><path d="M149.81 37.34v1.19h1.77v-1.19h-1.77" transform="translate(-.05 -.23)"/><path d="M150.71 37.34v1.19h1.76v-1.19h-1.76" transform="translate(-.05 -.23)"/><path d="M151.61 37.34v1.19h1.82v-1.19h-1.82" transform="translate(-.05 -.23)"/><path d="M152.51 37.34v1.19h1.86v-1.19h-1.86" transform="translate(-.05 -.23)"/><path d="M153.41 37.34v1.19h1.82v-1.19h-1.82" transform="translate(-.05 -.23)"/><path d="M154.31 37.34v1.19h1.77v-1.19h-1.77" transform="translate(-.05 -.23)"/><path d="M155.21 37.34v1.19H157v-1.19h-1.76" transform="translate(-.05 -.23)"/><path d="M156.11 37.34v1.19h1.82v-1.19h-1.82" transform="translate(-.05 -.23)"/><path d="M157 37.34v1.19h1.86v-1.19H157" transform="translate(-.05 -.23)"/><path d="M157.91 37.34v1.19h1.82v-1.19H158" transform="translate(-.05 -.23)"/><path d="M158.71 37.34v1.19h1.76v-1.19h-1.76" transform="translate(-.05 -.23)"/><path d="M159.61 37.34v1.19h1.82v-1.19h-1.82" transform="translate(-.05 -.23)"/><path d="M160.51 37.34v1.19h1.86v-1.19h-1.86" transform="translate(-.05 -.23)"/><path d="M161.41 37.34v1.19h1.82v-1.19h-1.82" transform="translate(-.05 -.23)"/><path d="M162.31 37.34v1.19h1.77v-1.19h-1.77" transform="translate(-.05 -.23)"/><path d="M163.21 37.34v1.19H165v-1.19h-1.76" transform="translate(-.05 -.23)"/><path d="M164.11 37.34v1.19h1.82v-1.19h-1.82" transform="translate(-.05 -.23)"/><path d="M165 37.34v1.19h1.86v-1.19H165" transform="translate(-.05 -.23)"/><path d="M165.91 37.34v1.19h1.82v-1.19H166" transform="translate(-.05 -.23)"/><path d="M166.81 37.34v1.19h1.77v-1.19h-1.77" transform="translate(-.05 -.23)"/><path d="M167.71 37.34v1.19h1.76v-1.19h-1.76" transform="translate(-.05 -.23)"/><path d="M168.51 37.34v1.19h1.86v-1.19h-1.86" transform="translate(-.05 -.23)"/><path d="M169.41 37.34v1.19h1.82v-1.19h-1.82" transform="translate(-.05 -.23)"/><path d="M170.31 37.34v1.19h1.77v-1.19h-1.77" transform="translate(-.05 -.23)"/><path d="M171.21 37.34v1.19H173v-1.19h-1.76" transform="translate(-.05 -.23)"/><path d="M172.11 37.34v1.19h1.82v-1.19h-1.82" transform="translate(-.05 -.23)"/><path d="M173 37.34v1.19h1.86v-1.19H173" transform="translate(-.05 -.23)"/><path d="M173.91 37.34v1.19h1.82v-1.19H174" transform="translate(-.05 -.23)"/><path d="M174.81 37.34v1.19h1.77v-1.19h-1.77" transform="translate(-.05 -.23)"/><path d="M175.71 37.34v1.19h1.76v-1.19h-1.76" transform="translate(-.05 -.23)"/><path d="M176.61 37.34v1.19h1.82v-1.19h-1.82" transform="translate(-.05 -.23)"/><path d="M177.51 37.34v1.19h1.86v-1.19h-1.86" transform="translate(-.05 -.23)"/><path d="M178.41 37.34v1.19h1.82v-1.19h-1.82" transform="translate(-.05 -.23)"/><path d="M179.21 37.34v1.19H181v-1.19h-1.76" transform="translate(-.05 -.23)"/><path d="M180.11 37.34v1.19h1.82v-1.19h-1.82" transform="translate(-.05 -.23)"/><path d="M181 37.34v1.19h1.86v-1.19H181" transform="translate(-.05 -.23)"/><path d="M181.91 37.34v1.19h1.82v-1.19H182" transform="translate(-.05 -.23)"/><path d="M182.81 37.34v1.19h1.77v-1.19h-1.77" transform="translate(-.05 -.23)"/><path d="M183.71 37.34v1.19h1.76v-1.19h-1.76" transform="translate(-.05 -.23)"/><path d="M184.61 37.34v1.19h1.82v-1.19h-1.82" transform="translate(-.05 -.23)"/><path d="M185.51 37.34v1.19h1.86v-1.19h-1.86" transform="translate(-.05 -.23)"/><path d="M186.41 37.34v1.19h1.82v-1.19h-1.82" transform="translate(-.05 -.23)"/><path d="M187.31 37.34v1.19h1.77v-1.19h-1.77" transform="translate(-.05 -.23)"/><path d="M188.21 37.34v1.19H190v-1.19h-1.76" transform="translate(-.05 -.23)"/><path d="M189 37.34v1.19h1.86v-1.19H189" transform="translate(-.05 -.23)"/><path d="M189.91 37.34v1.19h1.82v-1.19H190" transform="translate(-.05 -.23)"/><path d="M190.81 37.34v1.19h1.77v-1.19h-1.77" transform="translate(-.05 -.23)"/><path d="M191.71 37.34v1.19h1.76v-1.19h-1.76" transform="translate(-.05 -.23)"/><path d="M192.61 37.34v1.19h1.82v-1.19h-1.82" transform="translate(-.05 -.23)"/><path d="M193.51 37.34v1.19h1.86v-1.19h-1.86" transform="translate(-.05 -.23)"/><path d="M194.41 37.34v1.19h1.82v-1.19h-1.82" transform="translate(-.05 -.23)"/><path d="M195.31 37.34v1.19h1.77v-1.19h-1.77" transform="translate(-.05 -.23)"/><path d="M196.21 37.34v1.19H198v-1.19h-1.76" transform="translate(-.05 -.23)"/><path d="M197.11 37.34v1.19h1.82v-1.19h-1.82" transform="translate(-.05 -.23)"/><path d="M198 37.34v1.19h1.86v-1.19H198" transform="translate(-.05 -.23)"/><path d="M198.91 37.34v1.19h1.82v-1.19H199" transform="translate(-.05 -.23)"/><path d="M199.71 37.34v1.19h1.76v-1.19h-1.76" transform="translate(-.05 -.23)"/><path d="M200.61 37.34v1.19h1.82v-1.19h-1.82" transform="translate(-.05 -.23)"/><path d="M201.51 37.34v1.19h1.86v-1.19h-1.86" transform="translate(-.05 -.23)"/><path d="M202.41 37.34v1.19h1.82v-1.19h-1.82" transform="translate(-.05 -.23)"/><path d="M203.31 37.34v1.19h1.77v-1.19h-1.77" transform="translate(-.05 -.23)"/><path d="M204.21 37.34v1.19H206v-1.19h-1.76" transform="translate(-.05 -.23)"/><path d="M205.11 37.34v1.19h1.82v-1.19h-1.82" transform="translate(-.05 -.23)"/><path d="M206 37.34v1.19h1.86v-1.19H206" transform="translate(-.05 -.23)"/><path d="M206.91 37.34v1.19h1.82v-1.19H207" transform="translate(-.05 -.23)"/><path d="M207.81 37.34v1.19h1.77v-1.19h-1.77" transform="translate(-.05 -.23)"/><path d="M208.71 37.34v1.19h1.76v-1.19h-1.76" transform="translate(-.05 -.23)"/><path d="M209.51 37.34v1.19h1.86v-1.19h-1.86" transform="translate(-.05 -.23)"/><path d="M210.41 37.34v1.19h1.82v-1.19h-1.82" transform="translate(-.05 -.23)"/><path d="M211.31 37.34v1.19h1.77v-1.19h-1.77" transform="translate(-.05 -.23)"/><path d="M212.21 37.34v1.19H214v-1.19h-1.76" transform="translate(-.05 -.23)"/><path d="M213.11 37.34v1.19h1.82v-1.19h-1.82" transform="translate(-.05 -.23)"/><path d="M214 37.34v1.19h1.86v-1.19H214" transform="translate(-.05 -.23)"/><path d="M214.91 37.34v1.19h1.82v-1.19H215" transform="translate(-.05 -.23)"/><path d="M232 38.58h1.35v-1.24H232c-3.12 0-6.57.54-7 3-.45-2.46-3.9-3-7-3h-1.29v1.19H218c3.26 0 6.82.16 6.82 2.88h.3c0-2.72 3.57-2.88 6.82-2.88" transform="translate(-.05 -.23)"/><path d="M232.61 37.34v1.19h1.82v-1.19h-1.82" transform="translate(-.05 -.23)"/><path d="M233.51 37.34v1.19h1.86v-1.19h-1.86" transform="translate(-.05 -.23)"/><path d="M234.41 37.34v1.19h1.82v-1.19h-1.82" transform="translate(-.05 -.23)"/><path d="M235.31 37.34v1.19h1.77v-1.19h-1.77" transform="translate(-.05 -.23)"/><path d="M236.21 37.34v1.19H238v-1.19h-1.76" transform="translate(-.05 -.23)"/><path d="M237.11 37.34v1.19h1.82v-1.19h-1.82" transform="translate(-.05 -.23)"/><path d="M237.91 37.34v1.19h1.82v-1.19H238" transform="translate(-.05 -.23)"/><path d="M238.81 37.34v1.19h1.77v-1.19h-1.77" transform="translate(-.05 -.23)"/><path d="M239.71 37.34v1.19h1.76v-1.19h-1.76" transform="translate(-.05 -.23)"/><path d="M240.61 37.34v1.19h1.82v-1.19h-1.82" transform="translate(-.05 -.23)"/><path d="M241.51 37.34v1.19h1.86v-1.19h-1.86" transform="translate(-.05 -.23)"/><path d="M242.41 37.34v1.19h1.82v-1.19h-1.82" transform="translate(-.05 -.23)"/><path d="M243.31 37.34v1.19h1.77v-1.19h-1.77" transform="translate(-.05 -.23)"/><path d="M244.21 37.34v1.19H246v-1.19h-1.76" transform="translate(-.05 -.23)"/><path d="M245.11 37.34v1.19h1.82v-1.19h-1.82" transform="translate(-.05 -.23)"/><path d="M246 37.34v1.19h1.86v-1.19H246" transform="translate(-.05 -.23)"/><path d="M246.91 37.34v1.19h1.82v-1.19H247" transform="translate(-.05 -.23)"/><path d="M247.81 37.34v1.19h1.77v-1.19h-1.77" transform="translate(-.05 -.23)"/><path d="M248.61 37.34v1.19h1.81v-1.19h-1.81" transform="translate(-.05 -.23)"/><path d="M249.51 37.34v1.19h1.86v-1.19h-1.86" transform="translate(-.05 -.23)"/><path d="M250.41 37.34v1.19h1.82v-1.19h-1.82" transform="translate(-.05 -.23)"/><path d="M251.31 37.34v1.19h1.77v-1.19h-1.77" transform="translate(-.05 -.23)"/><path d="M252.21 37.34v1.19H254v-1.19h-1.77" transform="translate(-.05 -.23)"/><path d="M253.11 37.34v1.19h1.81v-1.19h-1.81" transform="translate(-.05 -.23)"/><path d="M254 37.34v1.19h1.86v-1.19H254" transform="translate(-.05 -.23)"/><path d="M254.91 37.34v1.19h1.77v-1.19H255" transform="translate(-.05 -.23)"/><path d="M255.81 37.34v1.19h1.82v-1.19h-1.82" transform="translate(-.05 -.23)"/><path d="M256.71 37.34v1.19h1.82v-1.19h-1.82" transform="translate(-.05 -.23)"/><path d="M257.61 37.34v1.19h1.86v-1.19h-1.86" transform="translate(-.05 -.23)"/><path d="M258.41 37.34v1.19h1.77v-1.19h-1.77" transform="translate(-.05 -.23)"/><path d="M259.31 37.34v1.19h1.82v-1.19h-1.82" transform="translate(-.05 -.23)"/><path d="M260.21 37.34v1.19h1.84v-1.19h-1.82" transform="translate(-.05 -.23)"/><path d="M261.11 37.34v1.19h1.86v-1.19h-1.86" transform="translate(-.05 -.23)"/><path d="M262 37.34v1.19h1.86v-1.19H262" transform="translate(-.05 -.23)"/><path d="M262.91 37.34v1.19h1.77v-1.19H263" transform="translate(-.05 -.23)"/><path d="M263.81 37.34v1.19h1.82v-1.19h-1.82" transform="translate(-.05 -.23)"/><path d="M264.71 37.34v1.19h1.82v-1.19h-1.82" transform="translate(-.05 -.23)"/><path d="M265.61 37.34v1.19h1.86v-1.19h-1.86" transform="translate(-.05 -.23)"/><path d="M266.51 37.34v1.19h1.86v-1.19h-1.86" transform="translate(-.05 -.23)"/><path d="M267.41 37.34v1.19h1.77v-1.19h-1.77" transform="translate(-.05 -.23)"/><path d="M268.21 37.34v1.19h1.84v-1.19h-1.82" transform="translate(-.05 -.23)"/><path d="M269.11 37.34v1.19h1.86v-1.19h-1.86" transform="translate(-.05 -.23)"/><path d="M270 37.34v1.19h1.86v-1.19H270" transform="translate(-.05 -.23)"/><path d="M270.91 37.34v1.19h1.77v-1.19H271" transform="translate(-.05 -.23)"/><path d="M271.81 37.34v1.19h1.82v-1.19h-1.82" transform="translate(-.05 -.23)"/><path d="M272.71 37.34v1.19h1.82v-1.19h-1.82" transform="translate(-.05 -.23)"/><path d="M273.61 37.34v1.19h1.86v-1.19h-1.86" transform="translate(-.05 -.23)"/><path d="M274.51 37.34v1.19h1.86v-1.19h-1.86" transform="translate(-.05 -.23)"/><path d="M275.41 37.34v1.19h1.77v-1.19h-1.77" transform="translate(-.05 -.23)"/><path d="M276.31 37.34v1.19h1.82v-1.19h-1.82" transform="translate(-.05 -.23)"/><path d="M277.21 37.34v1.19h1.84v-1.19h-1.82" transform="translate(-.05 -.23)"/><path d="M278.11 37.34v1.19h1.86v-1.19h-1.86" transform="translate(-.05 -.23)"/><path d="M278.91 37.34v1.19h1.77v-1.19H279" transform="translate(-.05 -.23)"/><path d="M279.81 37.34v1.19h1.82v-1.19h-1.82" transform="translate(-.05 -.23)"/><path d="M280.71 37.34v1.19h1.82v-1.19h-1.82" transform="translate(-.05 -.23)"/><path d="M281.61 37.34v1.19h1.86v-1.19h-1.86" transform="translate(-.05 -.23)"/><path d="M282.51 37.34v1.19h1.86v-1.19h-1.86" transform="translate(-.05 -.23)"/><path d="M283.41 37.34v1.19h1.77v-1.19h-1.77" transform="translate(-.05 -.23)"/><path d="M284.31 37.34v1.19h1.82v-1.19h-1.82" transform="translate(-.05 -.23)"/><path d="M285.21 37.34v1.19h1.84v-1.19h-1.82" transform="translate(-.05 -.23)"/><path d="M286.11 37.34v1.19h1.86v-1.19h-1.86" transform="translate(-.05 -.23)"/><path d="M287 37.34v1.19h1.86v-1.19H287" transform="translate(-.05 -.23)"/><path d="M287.91 37.34v1.19h1.77v-1.19H288" transform="translate(-.05 -.23)"/><path d="M288.71 37.34v1.19h1.82v-1.19h-1.82" transform="translate(-.05 -.23)"/><path d="M289.61 37.34v1.19h1.86v-1.19h-1.86" transform="translate(-.05 -.23)"/><path d="M290.51 37.34v1.19h1.86v-1.19h-1.86" transform="translate(-.05 -.23)"/><path d="M291.41 37.34v1.19h1.77v-1.19h-1.77" transform="translate(-.05 -.23)"/><path d="M292.31 37.34v1.19h1.82v-1.19h-1.82" transform="translate(-.05 -.23)"/><path d="M293.21 37.34v1.19h1.84v-1.19h-1.82" transform="translate(-.05 -.23)"/><path d="M294.11 37.34v1.19h1.86v-1.19h-1.86" transform="translate(-.05 -.23)"/><path d="M295 37.34v1.19h1.86v-1.19H295" transform="translate(-.05 -.23)"/><path d="M295.91 37.34v1.19h1.77v-1.19H296" transform="translate(-.05 -.23)"/><path d="M296.81 37.34v1.19h1.82v-1.19h-1.82" transform="translate(-.05 -.23)"/><path d="M297.71 37.34v1.19h1.82v-1.19h-1.82" transform="translate(-.05 -.23)"/><path d="M298.61 37.34v1.19h1.86v-1.19h-1.86" transform="translate(-.05 -.23)"/><path d="M299.41 37.34v1.19h1.77v-1.19h-1.77" transform="translate(-.05 -.23)"/><path d="M300.31 37.34v1.19h1.82v-1.19h-1.82" transform="translate(-.05 -.23)"/><path d="M301.21 37.34v1.19h1.84v-1.19h-1.82" transform="translate(-.05 -.23)"/><path d="M302.11 37.34v1.19h1.86v-1.19h-1.86" transform="translate(-.05 -.23)"/><path d="M303 37.34v1.19h1.86v-1.19H303" transform="translate(-.05 -.23)"/><path d="M303.91 37.34v1.19h1.77v-1.19H304" transform="translate(-.05 -.23)"/><path d="M304.81 37.34v1.19h1.82v-1.19h-1.82" transform="translate(-.05 -.23)"/><path d="M305.71 37.34v1.19h1.82v-1.19h-1.82" transform="translate(-.05 -.23)"/><path d="M306.61 37.34v1.19h1.86v-1.19h-1.86" transform="translate(-.05 -.23)"/><path d="M307.51 37.34v1.19h1.86v-1.19h-1.86" transform="translate(-.05 -.23)"/><path d="M308.41 37.34v1.19h1.77v-1.19h-1.77" transform="translate(-.05 -.23)"/><path d="M309.21 37.34v1.19h1.84v-1.19h-1.82" transform="translate(-.05 -.23)"/><path d="M312.17 37.3h-1.34v1.19h1.34c2.84 0 5.72-1 6.91-3.53v-.6a.06.06 0 00-.05-.05h-.3c-.14 0-.76 2.93-6.58 2.93" transform="translate(-.05 -.23)"/><path class="cls-5" d="M162.25 49.24a2.2 2.2 0 00-1 .29 1.25 1.25 0 00-.57 1 1.38 1.38 0 00.81 1.21c.33.19.59.31.88.49a.77.77 0 01.4.63.72.72 0 01-.78.69 1.33 1.33 0 01-1-.72c-.14-.22-.22-.3-.29-.3s-.2.08-.2.37a1.67 1.67 0 00.23.8 1.6 1.6 0 001.13.28 2.2 2.2 0 001-.21 1.32 1.32 0 00.84-1.22c0-.66-.49-1-1.07-1.31s-1.06-.45-1.06-1a.68.68 0 01.65-.66 1.08 1.08 0 01.84.65c.1.2.2.3.25.3s.25-.25.25-.33a3.83 3.83 0 000-.61.5.5 0 00-.19-.22 2.92 2.92 0 00-.35-.1 2.23 2.23 0 00-.71-.09m3.69.19c-.08 0-.09-.09-.09-.13v-.55c0-.12-.06-.17-.1-.17a.75.75 0 00-.45.29 4.66 4.66 0 01-.8.67c-.1.09-.23.19-.23.24a.49.49 0 00.33.32c.31 0 .35.06.35.18 0 1.06-.06 1.74-.06 2.52a1.48 1.48 0 00.16.79 1.24 1.24 0 001 .52 2 2 0 001.14-.35.54.54 0 00.27-.39c0-.09-.06-.17-.1-.17a2 2 0 00-.25.07 2 2 0 01-.51.1 1 1 0 01-.61-.25c-.13-.15-.18-.33-.16-.83v-2c0-.13.06-.17.08-.17h1.26c.12 0 .22 0 .26-.15a3.33 3.33 0 000-.35c0-.07-.07-.19-.15-.19h-1.37m3.88 3.92a.74.74 0 01-.74-.69c0-.28.1-.41.41-.52a11.57 11.57 0 011.19-.29s.09 0 .09.07v.71a1.18 1.18 0 01-.09.34 1.38 1.38 0 01-.85.38m.45-4a2.75 2.75 0 00-1.32.5c-.48.33-.8.68-.8.87a.32.32 0 00.13.18 1.93 1.93 0 00.47.05.78.78 0 00.33-.09.36.36 0 00.1-.24 1.1 1.1 0 01.11-.55 1 1 0 01.5-.14 1 1 0 011 .62.89.89 0 010 .29v.43a.2.2 0 01-.12.16 9.81 9.81 0 01-1.89.54 1 1 0 00-.45.32.84.84 0 00-.17.54 1.26 1.26 0 001.06 1.23 1.19 1.19 0 00.59-.16 8.32 8.32 0 00.86-.54s.11.05.11.06a.78.78 0 00.8.69 1 1 0 00.81-.4 1.66 1.66 0 00.1-.29c0-.09-.05-.2-.1-.18a1.34 1.34 0 01-.38.1c-.21 0-.4-.18-.4-.55v-2.14a1.62 1.62 0 00-.38-1 1.34 1.34 0 00-.97-.35zm4.11.08c-.08 0-.09-.09-.09-.13v-.55c0-.12-.06-.17-.1-.17a.75.75 0 00-.45.29 4.66 4.66 0 01-.8.67c-.1.09-.23.19-.23.24a.49.49 0 00.33.32c.31 0 .35.06.35.18 0 1.06-.06 1.74-.06 2.52a1.48 1.48 0 00.16.79 1.24 1.24 0 001 .52 2 2 0 001.14-.35.54.54 0 00.27-.39c0-.09-.06-.17-.11-.17s-.14 0-.24.07a2 2 0 01-.51.1 1 1 0 01-.61-.25c-.13-.15-.18-.33-.16-.83v-2c0-.13.06-.17.08-.17h1.26c.12 0 .22 0 .26-.15a3.33 3.33 0 000-.35c0-.07-.07-.19-.15-.19h-1.37m4.31.27c.59 0 .86.3.86.63s-.52.41-.94.41h-.81a.1.1 0 01-.07-.11 1.21 1.21 0 011-.9m.33-.4a2.36 2.36 0 00-1.3.38 2.45 2.45 0 00-1.08 2.11 2.09 2.09 0 002.18 2.3 2.22 2.22 0 001.6-.69.51.51 0 00.14-.34c0-.13-.09-.18-.13-.15a2.22 2.22 0 01-1.13.43 1.7 1.7 0 01-1.7-1.76 1.08 1.08 0 010-.34.31.31 0 01.18-.13h2.4c.11 0 .3-.21.3-.33a1.44 1.44 0 00-.19-.78 1.52 1.52 0 00-1.34-.73zm6.93 4.05a1.11 1.11 0 01-.59-.14c-.16-.13-.27-.26-.28-.86v-2.65c0-.23 0-.36-.11-.36s-.86.06-1.11.06c0 0-.34 0-.34.19s.11.19.23.26a.67.67 0 01.42.49V53a1 1 0 00.26.64 1.29 1.29 0 00.88.38 2.88 2.88 0 001.74-.72h.1v.52c0 .08.08.19.12.19a3 3 0 00.48-.08 6.82 6.82 0 01.91-.16.29.29 0 00.19-.3s-.06-.19-.09-.19l-.56.07s-.17 0-.18-.43 0-2.89 0-3.37c0-.12-.08-.26-.13-.26h-1.32c-.15 0-.28.11-.28.18s.11.19.26.24l.37.15c.08 0 .17.22.17.35v2.26a.83.83 0 01-.31.53 1.81 1.81 0 01-.81.24m5.8-3.34c1 0 1.43 1 1.43 1.86a2.1 2.1 0 01-.52 1.38 1.19 1.19 0 01-.87.36 1.37 1.37 0 01-1-.6c-.07-.1-.1-.25-.1-.9v-1.66a.33.33 0 01.15-.21 1.5 1.5 0 01.84-.23m.49-.65a1.84 1.84 0 00-.68.13 5.51 5.51 0 00-.74.37.08.08 0 01-.11-.06v-.44a.25.25 0 00-.16-.16 1.05 1.05 0 00-.38.17 5.73 5.73 0 01-.71.34c-.12.07-.26.21-.26.31s0 .09.2.19c.36.25.38.34.38.42v3c0 .69 0 1.29-.06 2 0 .38-.09.59-.62.74-.21.06-.3.16-.3.22s.19.2.32.2.71-.1 1.17-.1h1c.07 0 .31-.09.31-.21s-.07-.15-.33-.22c-.57-.17-.6-.29-.6-.45v-1.41c0-.09.07-.23.11-.22a2.49 2.49 0 00.41 0 4.19 4.19 0 001.23-.23 2.54 2.54 0 001.68-2.42 2.33 2.33 0 00-.71-1.65 1.72 1.72 0 00-1.08-.52zm5.4.47a1.38 1.38 0 011.15.55 1.23 1.23 0 01.09.44v2.1a.59.59 0 01-.11.28 1.65 1.65 0 01-.87.27 1.75 1.75 0 01-1.54-1.88 1.87 1.87 0 01.53-1.45 1.13 1.13 0 01.75-.31m.47-.48a3.28 3.28 0 00-1.55.44 2.46 2.46 0 00-1.24 2.17 2.06 2.06 0 002.12 2.15 3.43 3.43 0 001.38-.55.05.05 0 01.08 0v.46c0 .13.14.14.2.14s.65-.15 1.42-.32a.42.42 0 00.24-.3c0-.13-.09-.2-.15-.19a5.34 5.34 0 01-.62.06c-.09 0-.19-.09-.2-.44s0-.52 0-2.76v-3.13c0-.52 0-.68-.14-.68s-1.12.19-1.38.26-.23.12-.23.15a.28.28 0 00.21.23c.49.13.54.16.57.53s0 1.59 0 1.66 0 .13-.09.12a3.39 3.39 0 00-.62 0zm4.89 4.05a.74.74 0 01-.74-.69c0-.28.1-.41.41-.52a11.57 11.57 0 011.19-.29s.09 0 .09.07v.71a1.18 1.18 0 01-.09.34 1.38 1.38 0 01-.85.38m.45-4a2.75 2.75 0 00-1.32.5c-.48.33-.8.68-.8.87a.32.32 0 00.13.18 1.93 1.93 0 00.47.05.78.78 0 00.33-.09.42.42 0 00.1-.24 1.1 1.1 0 01.11-.55 1 1 0 01.5-.14 1 1 0 011 .62.89.89 0 010 .29v.43a.2.2 0 01-.12.16 9.81 9.81 0 01-1.89.54 1 1 0 00-.45.32.84.84 0 00-.17.54 1.26 1.26 0 001.01 1.23 1.19 1.19 0 00.59-.16 8.32 8.32 0 00.86-.54s.11.05.11.06a.78.78 0 00.8.69 1 1 0 00.81-.4 1.66 1.66 0 00.1-.29c0-.09-.06-.2-.1-.18a1.34 1.34 0 01-.38.1c-.21 0-.4-.18-.4-.55v-2.14a1.62 1.62 0 00-.38-1 1.34 1.34 0 00-.97-.35zm4.16.08c-.08 0-.09-.09-.09-.13v-.55c0-.12-.06-.17-.1-.17a.75.75 0 00-.45.29 4.66 4.66 0 01-.8.67c-.1.09-.23.19-.23.24a.49.49 0 00.33.32c.31 0 .35.06.35.18 0 1.06-.06 1.74-.06 2.52a1.48 1.48 0 00.16.79 1.24 1.24 0 001 .52 2 2 0 001.14-.35.52.52 0 00.26-.39c0-.09-.05-.17-.09-.17a2 2 0 00-.25.07 2 2 0 01-.51.1 1 1 0 01-.61-.25c-.13-.15-.18-.33-.16-.83v-2c0-.13.06-.17.08-.17h1.26c.12 0 .22 0 .25-.15a1.68 1.68 0 000-.35c0-.07-.07-.19-.15-.19h-1.37m4.22.27c.59 0 .86.3.86.63s-.51.41-.94.41h-.81a.1.1 0 01-.07-.11 1.21 1.21 0 011-.9m.33-.4a2.36 2.36 0 00-1.3.38 2.45 2.45 0 00-1.08 2.11 2.09 2.09 0 002.18 2.3 2.22 2.22 0 001.6-.69.51.51 0 00.14-.34c0-.13-.09-.18-.13-.15a2.22 2.22 0 01-1.13.43 1.7 1.7 0 01-1.7-1.76 1.08 1.08 0 010-.34.31.31 0 01.18-.13h2.4c.11 0 .3-.21.3-.33a1.44 1.44 0 00-.19-.78 1.52 1.52 0 00-1.31-.73z" transform="translate(-.05 -.23)"/><path d="M215.22 52.43a.66.66 0 00-.69.62.52.52 0 00.41.46c.23.07.4.17.4.41s-.07.53-.63.87c-.18.1-.22.19-.22.27s.12.17.27.17a1.68 1.68 0 001.37-1.62c0-.62-.39-1.18-.91-1.18m6.28 3.73c-.78 0-1.62-.33-1.62-1.1a.82.82 0 01.47-.74 2.22 2.22 0 01.89-.16 7.11 7.11 0 011 .06.85.85 0 01.76.78 1 1 0 01-.56.93 2.07 2.07 0 01-.95.23m-.45-6.49a1.11 1.11 0 011.1 1.22 1.82 1.82 0 01-.26 1 .85.85 0 01-.58.23c-.47 0-1.07-.34-1.07-1.32.01-.54.26-1.13.82-1.13zm.16-.43a2.5 2.5 0 00-1.29.43 1.58 1.58 0 00-.63 1.32 1.56 1.56 0 00.84 1.38v.1a3 3 0 01-.8.57s-.05.08-.05.11a.91.91 0 00.32.76.83.83 0 00.33.16v.11c0 .02-.51.41-.69.55a.93.93 0 00-.23.58c0 1.07 1.29 1.42 2 1.42a3.38 3.38 0 001.88-.51 2 2 0 001-1.6 1.32 1.32 0 00-.43-.93 1.33 1.33 0 00-.86-.33h-1.82c-.06 0-.42-.06-.42-.38a.52.52 0 01.25-.34.24.24 0 01.17-.06h.3a2.37 2.37 0 001.41-.45 1.56 1.56 0 00.6-1.27 1.68 1.68 0 00-.21-.78c.24 0 .72.07 1 .07a.25.25 0 00.13-.19c0-.16-.08-.46-.17-.46h-1.21a1.34 1.34 0 01-.41-.08 3.35 3.35 0 00-1-.18zm4.47-2.31a.61.61 0 00-.64.63.55.55 0 00.11.34.69.69 0 00.48.25.63.63 0 00.59-.63.88.88 0 00-.19-.46.48.48 0 00-.35-.13m-1 2.8a.35.35 0 00.12.22c.33.21.43.34.44.43s0 .64 0 .87v1.62c0 .46-.07.55-.56.67-.16.05-.27.13-.27.23s.11.16.34.16h1.87c.15 0 .32 0 .32-.14s-.11-.21-.26-.26c-.41-.11-.45-.22-.46-.31s0-.31-.05-1.77V49.4s-.06-.17-.11-.17a5.61 5.61 0 00-1.2.36c-.07.03-.15.08-.15.14zm2.5-.23c0 .1.12.17.28.23a.77.77 0 01.51.4c.08.13.75 1.68 1 2.25s.45 1.42.48 1.5a.4.4 0 00.25.19.34.34 0 00.28-.23c.09-.27.31-.9.6-1.6.42-1 .71-1.58.91-2a.81.81 0 01.57-.5c.17 0 .29-.13.29-.25s-.11-.17-.28-.17-.58.06-.78.06h-.61c-.18 0-.33 0-.33.19s.06.18.31.23.36.23.26.51c-.2.54-.62 1.52-.89 2.17h-.09c-.47-1.14-.89-2.19-.93-2.3s0-.32.15-.35.37-.13.37-.27-.1-.17-.25-.17h-.87c-.26 0-.74-.06-.85-.06s-.34.12-.34.19m7.39.12c.59 0 .86.3.86.63s-.51.41-.94.41h-.81a.1.1 0 01-.07-.11 1.21 1.21 0 011-.9m.33-.4a2.36 2.36 0 00-1.3.38 2.45 2.45 0 00-1.08 2.11 2.09 2.09 0 002.18 2.3 2.22 2.22 0 001.6-.69.51.51 0 00.14-.34c0-.13-.09-.18-.13-.15a2.22 2.22 0 01-1.13.43 1.7 1.7 0 01-1.7-1.76 1.08 1.08 0 01.05-.34.31.31 0 01.18-.13h2.4c.11 0 .3-.21.3-.33a1.35 1.35 0 00-.19-.78 1.52 1.52 0 00-1.36-.73zm4.08-.03a2.2 2.2 0 00-1 .29 1.25 1.25 0 00-.57 1 1.38 1.38 0 00.81 1.21c.33.19.59.31.88.49a.77.77 0 01.4.63.72.72 0 01-.78.69 1.33 1.33 0 01-1-.72c-.14-.22-.22-.3-.29-.3s-.2.08-.2.37a1.79 1.79 0 00.23.8 1.6 1.6 0 001.13.28 2.2 2.2 0 001-.21 1.32 1.32 0 00.84-1.22c0-.66-.49-1-1.07-1.31s-1.06-.45-1.06-1a.68.68 0 01.65-.66 1.08 1.08 0 01.84.65c.1.2.2.3.25.3s.24-.25.24-.33a5.72 5.72 0 000-.61.5.5 0 00-.19-.22 2.92 2.92 0 00-.35-.1 2.23 2.23 0 00-.71-.09m8.18 1.31a5 5 0 01-.73 2.14c-.23.33-.84 1-1.21 1-.13 0-.31-.2-.4-.38a.39.39 0 010-.22c.11-.54.51-2.15.68-2.89a.48.48 0 01.17-.27 4 4 0 01.88-.11.72.72 0 01.65.76m.9.07a1.22 1.22 0 00-1.37-1.35c-.14 0-.59.07-1 .12 0 0-.08-.07-.08-.12a4.34 4.34 0 00.12-.61c0-.14-.33-.35-.39-.35a.57.57 0 00-.28.17 3.1 3.1 0 00-.32 1s0 .06-.16.12a7.21 7.21 0 00-.79.36.77.77 0 00-.2.36.14.14 0 00.18.09c.18-.07.55-.19.71-.23s.09.08.09.11c-.3 1.29-1 4.52-1.28 5.27-.13.34-.21.44-.81.55a.46.46 0 00-.29.32c0 .07.1.15.35.15h.88c.57 0 1.16.07 1.19.07.27 0 .43-.13.43-.25s-.19-.19-.32-.21c-.54-.14-.57-.28-.51-.67.09-.56.2-.94.33-1.46 0 0 .08-.09.12-.08a1.69 1.69 0 00.55.15 2.81 2.81 0 001.31-.68 4.51 4.51 0 001.5-2.86zm4.52 6.05l.24-.3a6.57 6.57 0 01-2.2-5.27 6.62 6.62 0 012.2-5.28l-.24-.3a6.69 6.69 0 000 11.15m3.56-7.43a1.91 1.91 0 00-1.16.52 1.56 1.56 0 00-.58 1.12c0 .27.12.4.22.4a1.16 1.16 0 00.53-.31s.1-.14.09-.17a2.26 2.26 0 01-.08-.51.37.37 0 01.36-.39 3.6 3.6 0 01.94.23c.3.07.6.15.79.17v.14a32 32 0 00-2.5 2.24c-.53.57-.73.94-.73 1.09s.11.37.23.37a.38.38 0 00.27-.22c.13-.26.39-.57.65-.57s.38.06.81.38.7.58 1.06.58a1.74 1.74 0 001-.51 1.42 1.42 0 00.61-1c0-.3-.13-.63-.56-.63a.19.19 0 00-.14.19 1.52 1.52 0 01.08.51c0 .56-.32.68-.47.68a1.13 1.13 0 01-.7-.27 2.4 2.4 0 00-1.35-.52s-.08-.06-.06-.09c.24-.28 2.61-2.32 3.27-2.86a.58.58 0 00.26-.37.48.48 0 00-.21-.3.4.4 0 00-.25.15 1.74 1.74 0 01-.67.45 2.07 2.07 0 01-.62-.17 3.94 3.94 0 00-1.06-.34m4.67 2.2a.33.33 0 00-.27.21l-.27.58a.25.25 0 01-.1.08 4.52 4.52 0 00-.53 0 .41.41 0 00-.14.26c0 .07 0 .1.06.11h.52v.07c-.15.47-.53 1.84-.63 2.19a1.81 1.81 0 00-.06.38s.09.31.3.31a2.64 2.64 0 001.24-.86.49.49 0 00.09-.29s-.08-.13-.11-.11c-.27.23-.59.49-.74.49s-.1-.07 0-.34c.24-.84.46-1.61.52-1.78a.17.17 0 01.09-.08h.77s.17-.26.17-.32 0-.1-.06-.1h-.75c-.05 0-.08 0-.07-.07a6.42 6.42 0 00.2-.73s-.12-.07-.24-.07m3.15-5.84h-.54v11.13h.54V45.51m6.33 4.76a.67.67 0 00.25-.52.55.55 0 00-.52-.54 1.44 1.44 0 00-1.08.6 13.78 13.78 0 00-.89 1.09h-.1c-.06-.21-.16-.51-.23-.73-.12-.38-.28-.95-.74-.95s-1 .65-1.22 1a1.63 1.63 0 00-.14.29c0 .13.18.3.23.24.23-.33.65-.73.82-.73s.24.2.34.51.17.58.33 1.05a.93.93 0 01-.11.28c-.51.88-1 1.37-1.23 1.37a.54.54 0 01-.4-.37c0-.08-.2-.05-.24 0a1.08 1.08 0 00-.43.72.6.6 0 00.57.54c.67 0 1.42-1.08 1.91-1.73h.14c.07.21.15.44.23.65.15.42.33 1 .85 1a1.5 1.5 0 001.28-1.24c0-.1-.08-.2-.13-.2s-.11 0-.22.18c-.28.38-.47.4-.6.4-.29 0-.5-.53-.79-1.55v-.23c.44-.68 1.12-1.48 1.32-1.48s.18.12.23.28.09.18.17.18a.6.6 0 00.35-.13m.58 5.16c0 .08.11.13.27.13h1.9c.3 0 .24-.07.24-.12s-.08-.14-.19-.16c-.52-.11-.61-.15-.48-.7.08-.34.5-1.93.65-2.47.19-.71.33-1.12.37-1.25a.1.1 0 00-.09-.11h-.18a6.73 6.73 0 01-1.13.27c-.09 0-.21.08-.21.17s.13.12.21.13h.48s.06.1 0 .16-.08.37-.36 1.42c-.22.85-.36 1.24-.52 1.74s-.25.48-.68.56c-.17 0-.32.07-.32.18m4.44-3.67a.54.54 0 10.53.54.53.53 0 00-.53-.54m0 2.49a.54.54 0 100 1.07.52.52 0 00.53-.53.53.53 0 00-.53-.54zm2.98-2.78a.33.33 0 00-.28.21c-.06.12-.22.5-.27.58a.25.25 0 01-.1.08 4.52 4.52 0 00-.53 0 .41.41 0 00-.14.26c0 .07 0 .1.06.11h.52v.07c-.15.47-.53 1.84-.63 2.19a1.81 1.81 0 00-.06.38s.09.31.3.31a2.64 2.64 0 001.24-.86.49.49 0 00.09-.29s-.08-.13-.11-.11c-.27.23-.59.49-.74.49s-.1-.07 0-.34c.24-.84.46-1.61.52-1.78a.17.17 0 01.09-.08h.77s.17-.26.17-.32 0-.1-.06-.1h-.75c-.05 0-.08 0-.07-.07a6.42 6.42 0 00.2-.73s-.12-.07-.23-.07m1.32 2.18a.28.28 0 00-.12.08.61.61 0 00-.1.29.15.15 0 00.14.15c.36 0 1.06-.05 1.57-.08a.38.38 0 00.13-.1.75.75 0 00.08-.31s-.06-.16-.1-.16c-.21 0-1.43.1-1.6.13m1.78 1.9c0 .08.11.13.27.13h1.9c.3 0 .24-.07.24-.12s-.08-.14-.19-.16c-.52-.11-.61-.15-.48-.7.08-.34.5-1.93.65-2.47.19-.71.33-1.12.37-1.25a.1.1 0 00-.09-.11h-.18a6.73 6.73 0 01-1.13.27c-.09 0-.21.08-.21.17s.13.12.21.13h.48s.06.1 0 .16-.08.37-.36 1.42c-.22.85-.36 1.24-.52 1.74s-.25.48-.68.56c-.17 0-.32.07-.32.18m5.57 1.28a6.69 6.69 0 000-11.15l-.26.3a6.57 6.57 0 012.22 5.28 6.53 6.53 0 01-2.22 5.27l.26.3M86.36 67h1.4v-1.26h-1.4c-2.64 0-5.43-.61-6.51-2.9h-.3v.6C80.66 66 83.53 67 86.36 67" transform="translate(-.05 -.23)"/><path d="M86.91 65.74v1.19h1.77v-1.19H87" transform="translate(-.05 -.23)"/><path d="M87.81 65.74v1.19h1.76v-1.19h-1.71" transform="translate(-.05 -.23)"/><path d="M88.71 65.74v1.19h1.81v-1.19h-1.81" transform="translate(-.05 -.23)"/><path d="M89.61 65.74v1.19h1.77v-1.19h-1.73" transform="translate(-.05 -.23)"/><path d="M90.51 65.74v1.19h1.82v-1.19h-1.78" transform="translate(-.05 -.23)"/><path d="M91.31 65.74v1.19h1.76v-1.19h-1.71" transform="translate(-.05 -.23)"/><path d="M92.21 65.74v1.19H94v-1.19h-1.79" transform="translate(-.05 -.23)"/><path d="M93.11 65.74v1.19h1.77v-1.19h-1.73" transform="translate(-.05 -.23)"/><path d="M94 65.74v1.19h1.82v-1.19h-1.77" transform="translate(-.05 -.23)"/><path d="M94.91 65.74v1.19h1.77v-1.19H95" transform="translate(-.05 -.23)"/><path d="M95.81 65.74v1.19h1.76v-1.19h-1.71" transform="translate(-.05 -.23)"/><path d="M96.71 65.74v1.19h1.81v-1.19h-1.81" transform="translate(-.05 -.23)"/><path d="M97.61 65.74v1.19h1.77v-1.19h-1.73" transform="translate(-.05 -.23)"/><path d="M98.51 65.74v1.19h1.82v-1.19h-1.78" transform="translate(-.05 -.23)"/><path d="M99.41 65.74v1.19h1.77v-1.19h-1.73" transform="translate(-.05 -.23)"/><path d="M100.31 65.74v1.19h1.76v-1.19h-1.76" transform="translate(-.05 -.23)"/><path d="M101.11 65.74v1.19h1.77v-1.19h-1.77" transform="translate(-.05 -.23)"/><path d="M102 65.74v1.19h1.82v-1.19H102" transform="translate(-.05 -.23)"/><path d="M102.91 65.74v1.19h1.77v-1.19H103" transform="translate(-.05 -.23)"/><path d="M103.81 65.74v1.19h1.76v-1.19h-1.76" transform="translate(-.05 -.23)"/><path d="M104.71 65.74v1.19h1.81v-1.19h-1.81" transform="translate(-.05 -.23)"/><path d="M105.61 65.74v1.19h1.77v-1.19h-1.77" transform="translate(-.05 -.23)"/><path d="M106.51 65.74v1.19h1.82v-1.19h-1.82" transform="translate(-.05 -.23)"/><path d="M107.41 65.74v1.19h1.77v-1.19h-1.77" transform="translate(-.05 -.23)"/><path d="M108.31 65.74v1.19h1.76v-1.19h-1.76" transform="translate(-.05 -.23)"/><path d="M109.21 65.74v1.19H111v-1.19h-1.81" transform="translate(-.05 -.23)"/><path d="M110.11 65.74v1.19h1.77v-1.19h-1.77" transform="translate(-.05 -.23)"/><path d="M111 65.74v1.19h1.82v-1.19H111" transform="translate(-.05 -.23)"/><path d="M111.81 65.74v1.19h1.76v-1.19h-1.76" transform="translate(-.05 -.23)"/><path d="M112.71 65.74v1.19h1.81v-1.19h-1.81" transform="translate(-.05 -.23)"/><path d="M113.61 65.74v1.19h1.77v-1.19h-1.77" transform="translate(-.05 -.23)"/><path d="M114.51 65.74v1.19h1.82v-1.19h-1.82" transform="translate(-.05 -.23)"/><path d="M115.41 65.74v1.19h1.77v-1.19h-1.77" transform="translate(-.05 -.23)"/><path d="M116.31 65.74v1.19h1.76v-1.19h-1.76" transform="translate(-.05 -.23)"/><path d="M117.21 65.74v1.19H119v-1.19h-1.81" transform="translate(-.05 -.23)"/><path d="M118.11 65.74v1.19h1.77v-1.19h-1.77" transform="translate(-.05 -.23)"/><path d="M119 65.74v1.19h1.81v-1.19H119" transform="translate(-.05 -.23)"/><path d="M119.91 65.74v1.19h1.77v-1.19H120" transform="translate(-.05 -.23)"/><path d="M120.81 65.74v1.19h1.77v-1.19h-1.77" transform="translate(-.05 -.23)"/><path d="M121.61 65.74v1.19h1.77v-1.19h-1.77" transform="translate(-.05 -.23)"/><path d="M122.51 65.74v1.19h1.81v-1.19h-1.81" transform="translate(-.05 -.23)"/><path d="M123.41 65.74v1.19h1.77v-1.19h-1.77" transform="translate(-.05 -.23)"/><path d="M124.31 65.74v1.19h1.77v-1.19h-1.77" transform="translate(-.05 -.23)"/><path d="M125.21 65.74v1.19H127v-1.19h-1.81" transform="translate(-.05 -.23)"/><path d="M126.11 65.74v1.19h1.77v-1.19h-1.77" transform="translate(-.05 -.23)"/><path d="M127 65.74v1.19h1.81v-1.19H127" transform="translate(-.05 -.23)"/><path d="M127.91 65.74v1.19h1.82v-1.19H128" transform="translate(-.05 -.23)"/><path d="M128.81 65.74v1.19h1.77v-1.19h-1.77" transform="translate(-.05 -.23)"/><path d="M129.71 65.74v1.19h1.76v-1.19h-1.76" transform="translate(-.05 -.23)"/><path d="M130.61 65.74v1.19h1.82v-1.19h-1.82" transform="translate(-.05 -.23)"/><path d="M131.51 65.74v1.19h1.86v-1.19h-1.86" transform="translate(-.05 -.23)"/><path d="M132.31 65.74v1.19h1.77v-1.19h-1.77" transform="translate(-.05 -.23)"/><path d="M133.21 65.74v1.19H135v-1.19h-1.76" transform="translate(-.05 -.23)"/><path d="M134.11 65.74v1.19h1.82v-1.19h-1.82" transform="translate(-.05 -.23)"/><path d="M135 65.74v1.19h1.86v-1.19H135" transform="translate(-.05 -.23)"/><path d="M135.91 65.74v1.19h1.82v-1.19H136" transform="translate(-.05 -.23)"/><path d="M136.81 65.74v1.19h1.77v-1.19h-1.77" transform="translate(-.05 -.23)"/><path d="M137.71 65.74v1.19h1.76v-1.19h-1.76" transform="translate(-.05 -.23)"/><path d="M138.61 65.74v1.19h1.82v-1.19h-1.82" transform="translate(-.05 -.23)"/><path d="M139.51 65.74v1.19h1.86v-1.19h-1.86" transform="translate(-.05 -.23)"/><path d="M140.41 65.74v1.19h1.82v-1.19h-1.82" transform="translate(-.05 -.23)"/><path d="M141.31 65.74v1.19h1.77v-1.19h-1.77" transform="translate(-.05 -.23)"/><path d="M142.11 65.74v1.19h1.82v-1.19h-1.82" transform="translate(-.05 -.23)"/><path d="M143 65.74v1.19h1.86v-1.19H143" transform="translate(-.05 -.23)"/><path d="M143.91 65.74v1.19h1.82v-1.19H144" transform="translate(-.05 -.23)"/><path d="M144.81 65.74v1.19h1.77v-1.19h-1.77" transform="translate(-.05 -.23)"/><path d="M145.71 65.74v1.19h1.76v-1.19h-1.76" transform="translate(-.05 -.23)"/><path d="M146.61 65.74v1.19h1.82v-1.19h-1.82" transform="translate(-.05 -.23)"/><path d="M147.51 65.74v1.19h1.86v-1.19h-1.86" transform="translate(-.05 -.23)"/><path d="M148.41 65.74v1.19h1.82v-1.19h-1.82" transform="translate(-.05 -.23)"/><path d="M149.31 65.74v1.19h1.77v-1.19h-1.77" transform="translate(-.05 -.23)"/><path d="M150.21 65.74v1.19H152v-1.19h-1.76" transform="translate(-.05 -.23)"/><path d="M151.11 65.74v1.19h1.82v-1.19h-1.82" transform="translate(-.05 -.23)"/><path d="M152 65.74v1.19h1.86v-1.19H152" transform="translate(-.05 -.23)"/><path d="M152.81 65.74v1.19h1.77v-1.19h-1.77" transform="translate(-.05 -.23)"/><path d="M153.71 65.74v1.19h1.76v-1.19h-1.76" transform="translate(-.05 -.23)"/><path d="M154.61 65.74v1.19h1.82v-1.19h-1.82" transform="translate(-.05 -.23)"/><path d="M155.51 65.74v1.19h1.86v-1.19h-1.86" transform="translate(-.05 -.23)"/><path d="M156.41 65.74v1.19h1.82v-1.19h-1.82" transform="translate(-.05 -.23)"/><path d="M157.31 65.74v1.19h1.77v-1.19h-1.77" transform="translate(-.05 -.23)"/><path d="M158.21 65.74v1.19H160v-1.19h-1.76" transform="translate(-.05 -.23)"/><path d="M159.11 65.74v1.19h1.82v-1.19h-1.82" transform="translate(-.05 -.23)"/><path d="M160 65.74v1.19h1.86v-1.19H160" transform="translate(-.05 -.23)"/><path d="M160.91 65.74v1.19h1.82v-1.19H161" transform="translate(-.05 -.23)"/><path d="M161.81 65.74v1.19h1.77v-1.19h-1.77" transform="translate(-.05 -.23)"/><path d="M162.61 65.74v1.19h1.82v-1.19h-1.82" transform="translate(-.05 -.23)"/><path d="M163.51 65.74v1.19h1.86v-1.19h-1.86" transform="translate(-.05 -.23)"/><path d="M164.41 65.74v1.19h1.82v-1.19h-1.82" transform="translate(-.05 -.23)"/><path d="M165.31 65.74v1.19h1.77v-1.19h-1.77" transform="translate(-.05 -.23)"/><path d="M166.21 65.74v1.19H168v-1.19h-1.76" transform="translate(-.05 -.23)"/><path d="M167.11 65.74v1.19h1.82v-1.19h-1.82" transform="translate(-.05 -.23)"/><path d="M168 65.74v1.19h1.86v-1.19H168" transform="translate(-.05 -.23)"/><path d="M168.91 65.74v1.19h1.82v-1.19H169" transform="translate(-.05 -.23)"/><path d="M169.81 65.74v1.19h1.77v-1.19h-1.77" transform="translate(-.05 -.23)"/><path d="M170.71 65.74v1.19h1.76v-1.19h-1.76" transform="translate(-.05 -.23)"/><path d="M171.61 65.74v1.19h1.82v-1.19h-1.82" transform="translate(-.05 -.23)"/><path d="M172.51 65.74v1.19h1.86v-1.19h-1.86" transform="translate(-.05 -.23)"/><path d="M173.31 65.74v1.19h1.77v-1.19h-1.77" transform="translate(-.05 -.23)"/><path d="M174.21 65.74v1.19H176v-1.19h-1.76" transform="translate(-.05 -.23)"/><path d="M175.11 65.74v1.19h1.82v-1.19h-1.82" transform="translate(-.05 -.23)"/><path d="M176 65.74v1.19h1.86v-1.19H176" transform="translate(-.05 -.23)"/><path d="M176.91 65.74v1.19h1.82v-1.19H177" transform="translate(-.05 -.23)"/><path d="M177.81 65.74v1.19h1.77v-1.19h-1.77" transform="translate(-.05 -.23)"/><path d="M178.71 65.74v1.19h1.76v-1.19h-1.76" transform="translate(-.05 -.23)"/><path d="M179.61 65.74v1.19h1.82v-1.19h-1.82" transform="translate(-.05 -.23)"/><path d="M180.51 65.74v1.19h1.86v-1.19h-1.86" transform="translate(-.05 -.23)"/><path d="M181.41 65.74v1.19h1.82v-1.19h-1.82" transform="translate(-.05 -.23)"/><path d="M182.31 65.74v1.19h1.77v-1.19h-1.77" transform="translate(-.05 -.23)"/><path d="M183.11 65.74v1.19h1.82v-1.19h-1.82" transform="translate(-.05 -.23)"/><path d="M184 65.74v1.19h1.86v-1.19H184" transform="translate(-.05 -.23)"/><path d="M184.91 65.74v1.19h1.82v-1.19H185" transform="translate(-.05 -.23)"/><path d="M185.81 65.74v1.19h1.77v-1.19h-1.77" transform="translate(-.05 -.23)"/><path d="M186.71 65.74v1.19h1.76v-1.19h-1.76" transform="translate(-.05 -.23)"/><path d="M187.61 65.74v1.19h1.82v-1.19h-1.82" transform="translate(-.05 -.23)"/><path d="M188.51 65.74v1.19h1.86v-1.19h-1.86" transform="translate(-.05 -.23)"/><path d="M189.41 65.74v1.19h1.82v-1.19h-1.82" transform="translate(-.05 -.23)"/><path d="M206.46 67h1.35v-1.26h-1.35c-3.12 0-6.57.54-7 3-.45-2.46-3.9-3-7-3h-1.29v1.19h1.29c3.26 0 6.82.16 6.82 2.88h.3c0-2.72 3.57-2.88 6.82-2.88" transform="translate(-.05 -.23)"/><path d="M207.11 65.74v1.19h1.82v-1.19h-1.82" transform="translate(-.05 -.23)"/><path d="M208 65.74v1.19h1.86v-1.19H208" transform="translate(-.05 -.23)"/><path d="M208.91 65.74v1.19h1.82v-1.19H209" transform="translate(-.05 -.23)"/><path d="M209.81 65.74v1.19h1.77v-1.19h-1.77" transform="translate(-.05 -.23)"/><path d="M210.71 65.74v1.19h1.76v-1.19h-1.76" transform="translate(-.05 -.23)"/><path d="M211.51 65.74v1.19h1.86v-1.19h-1.86" transform="translate(-.05 -.23)"/><path d="M212.41 65.74v1.19h1.82v-1.19h-1.82" transform="translate(-.05 -.23)"/><path d="M213.31 65.74v1.19h1.77v-1.19h-1.77" transform="translate(-.05 -.23)"/><path d="M214.21 65.74v1.19H216v-1.19h-1.76" transform="translate(-.05 -.23)"/><path d="M215.11 65.74v1.19h1.82v-1.19h-1.82" transform="translate(-.05 -.23)"/><path d="M216 65.74v1.19h1.86v-1.19H216" transform="translate(-.05 -.23)"/><path d="M216.91 65.74v1.19h1.82v-1.19H217" transform="translate(-.05 -.23)"/><path d="M217.81 65.74v1.19h1.77v-1.19h-1.77" transform="translate(-.05 -.23)"/><path d="M218.71 65.74v1.19h1.76v-1.19h-1.76" transform="translate(-.05 -.23)"/><path d="M219.61 65.74v1.19h1.82v-1.19h-1.82" transform="translate(-.05 -.23)"/><path d="M220.51 65.74v1.19h1.86v-1.19h-1.86" transform="translate(-.05 -.23)"/><path d="M221.41 65.74v1.19h1.82v-1.19h-1.82" transform="translate(-.05 -.23)"/><path d="M222.21 65.74v1.19H224v-1.19h-1.76" transform="translate(-.05 -.23)"/><path d="M223.11 65.74v1.19h1.82v-1.19h-1.82" transform="translate(-.05 -.23)"/><path d="M224 65.74v1.19h1.86v-1.19H224" transform="translate(-.05 -.23)"/><path d="M224.91 65.74v1.19h1.82v-1.19H225" transform="translate(-.05 -.23)"/><path d="M225.81 65.74v1.19h1.77v-1.19h-1.77" transform="translate(-.05 -.23)"/><path d="M226.71 65.74v1.19h1.76v-1.19h-1.76" transform="translate(-.05 -.23)"/><path d="M227.61 65.74v1.19h1.82v-1.19h-1.82" transform="translate(-.05 -.23)"/><path d="M228.51 65.74v1.19h1.86v-1.19h-1.86" transform="translate(-.05 -.23)"/><path d="M229.41 65.74v1.19h1.82v-1.19h-1.82" transform="translate(-.05 -.23)"/><path d="M230.31 65.74v1.19h1.77v-1.19h-1.77" transform="translate(-.05 -.23)"/><path d="M231.21 65.74v1.19H233v-1.19h-1.76" transform="translate(-.05 -.23)"/><path d="M232 65.74v1.19h1.86v-1.19H232" transform="translate(-.05 -.23)"/><path d="M232.91 65.74v1.19h1.82v-1.19H233" transform="translate(-.05 -.23)"/><path d="M233.81 65.74v1.19h1.77v-1.19h-1.77" transform="translate(-.05 -.23)"/><path d="M234.71 65.74v1.19h1.76v-1.19h-1.76" transform="translate(-.05 -.23)"/><path d="M235.61 65.74v1.19h1.82v-1.19h-1.82" transform="translate(-.05 -.23)"/><path d="M236.51 65.74v1.19h1.86v-1.19h-1.86" transform="translate(-.05 -.23)"/><path d="M237.41 65.74v1.19h1.82v-1.19h-1.82" transform="translate(-.05 -.23)"/><path d="M238.31 65.74v1.19h1.77v-1.19h-1.77" transform="translate(-.05 -.23)"/><path d="M239.21 65.74v1.19H241v-1.19h-1.76" transform="translate(-.05 -.23)"/><path d="M240.11 65.74v1.19h1.82v-1.19h-1.82" transform="translate(-.05 -.23)"/><path d="M241 65.74v1.19h1.86v-1.19H241" transform="translate(-.05 -.23)"/><path d="M241.81 65.74v1.19h1.77v-1.19h-1.77" transform="translate(-.05 -.23)"/><path d="M242.71 65.74v1.19h1.76v-1.19h-1.76" transform="translate(-.05 -.23)"/><path d="M243.61 65.74v1.19h1.82v-1.19h-1.82" transform="translate(-.05 -.23)"/><path d="M244.51 65.74v1.19h1.86v-1.19h-1.86" transform="translate(-.05 -.23)"/><path d="M245.41 65.74v1.19h1.82v-1.19h-1.82" transform="translate(-.05 -.23)"/><path d="M246.31 65.74v1.19h1.77v-1.19h-1.77" transform="translate(-.05 -.23)"/><path d="M247.21 65.74v1.19H249v-1.19h-1.77" transform="translate(-.05 -.23)"/><path d="M248.11 65.74v1.19h1.81v-1.19h-1.81" transform="translate(-.05 -.23)"/><path d="M249 65.74v1.19h1.86v-1.19H249" transform="translate(-.05 -.23)"/><path d="M249.91 65.74v1.19h1.82v-1.19H250" transform="translate(-.05 -.23)"/><path d="M250.81 65.74v1.19h1.77v-1.19h-1.77" transform="translate(-.05 -.23)"/><path d="M251.71 65.74v1.19h1.77v-1.19h-1.77" transform="translate(-.05 -.23)"/><path d="M252.51 65.74v1.19h1.86v-1.19h-1.86" transform="translate(-.05 -.23)"/><path d="M253.41 65.74v1.19h1.82v-1.19h-1.82" transform="translate(-.05 -.23)"/><path d="M254.31 65.74v1.19h1.82v-1.19h-1.82" transform="translate(-.05 -.23)"/><path d="M255.21 65.74v1.19h1.84v-1.19h-1.82" transform="translate(-.05 -.23)"/><path d="M256.11 65.74v1.19h1.86v-1.19h-1.86" transform="translate(-.05 -.23)"/><path d="M257 65.74v1.19h1.86v-1.19H257" transform="translate(-.05 -.23)"/><path d="M257.91 65.74v1.19h1.77v-1.19H258" transform="translate(-.05 -.23)"/><path d="M258.81 65.74v1.19h1.82v-1.19h-1.82" transform="translate(-.05 -.23)"/><path d="M259.71 65.74v1.19h1.82v-1.19h-1.82" transform="translate(-.05 -.23)"/><path d="M260.61 65.74v1.19h1.86v-1.19h-1.86" transform="translate(-.05 -.23)"/><path d="M261.51 65.74v1.19h1.86v-1.19h-1.86" transform="translate(-.05 -.23)"/><path d="M262.31 65.74v1.19h1.82v-1.19h-1.82" transform="translate(-.05 -.23)"/><path d="M263.21 65.74v1.19h1.84v-1.19h-1.82" transform="translate(-.05 -.23)"/><path d="M264.11 65.74v1.19h1.86v-1.19h-1.86" transform="translate(-.05 -.23)"/><path d="M265 65.74v1.19h1.86v-1.19H265" transform="translate(-.05 -.23)"/><path d="M265.91 65.74v1.19h1.77v-1.19H266" transform="translate(-.05 -.23)"/><path d="M266.81 65.74v1.19h1.82v-1.19h-1.82" transform="translate(-.05 -.23)"/><path d="M267.71 65.74v1.19h1.82v-1.19h-1.82" transform="translate(-.05 -.23)"/><path d="M268.61 65.74v1.19h1.86v-1.19h-1.86" transform="translate(-.05 -.23)"/><path d="M269.51 65.74v1.19h1.86v-1.19h-1.86" transform="translate(-.05 -.23)"/><path d="M270.41 65.74v1.19h1.77v-1.19h-1.77" transform="translate(-.05 -.23)"/><path d="M271.31 65.74v1.19h1.82v-1.19h-1.82" transform="translate(-.05 -.23)"/><path d="M272.21 65.74v1.19h1.84v-1.19h-1.82" transform="translate(-.05 -.23)"/><path d="M273 65.74v1.19h1.86v-1.19H273" transform="translate(-.05 -.23)"/><path d="M273.91 65.74v1.19h1.77v-1.19H274" transform="translate(-.05 -.23)"/><path d="M274.81 65.74v1.19h1.82v-1.19h-1.82" transform="translate(-.05 -.23)"/><path d="M275.71 65.74v1.19h1.82v-1.19h-1.82" transform="translate(-.05 -.23)"/><path d="M276.61 65.74v1.19h1.86v-1.19h-1.86" transform="translate(-.05 -.23)"/><path d="M277.51 65.74v1.19h1.86v-1.19h-1.86" transform="translate(-.05 -.23)"/><path d="M278.41 65.74v1.19h1.77v-1.19h-1.77" transform="translate(-.05 -.23)"/><path d="M279.31 65.74v1.19h1.82v-1.19h-1.82" transform="translate(-.05 -.23)"/><path d="M280.21 65.74v1.19h1.84v-1.19h-1.82" transform="translate(-.05 -.23)"/><path d="M281.11 65.74v1.19h1.86v-1.19h-1.86" transform="translate(-.05 -.23)"/><path d="M282 65.74v1.19h1.86v-1.19H282" transform="translate(-.05 -.23)"/><path d="M282.81 65.74v1.19h1.82v-1.19h-1.82" transform="translate(-.05 -.23)"/><path d="M283.71 65.74v1.19h1.82v-1.19h-1.82" transform="translate(-.05 -.23)"/><path d="M284.61 65.74v1.19h1.86v-1.19h-1.86" transform="translate(-.05 -.23)"/><path d="M285.51 65.74v1.19h1.86v-1.19h-1.86" transform="translate(-.05 -.23)"/><path d="M286.41 65.74v1.19h1.77v-1.19h-1.77" transform="translate(-.05 -.23)"/><path d="M287.31 65.74v1.19h1.82v-1.19h-1.82" transform="translate(-.05 -.23)"/><path d="M288.21 65.74v1.19h1.84v-1.19h-1.82" transform="translate(-.05 -.23)"/><path d="M289.11 65.74v1.19h1.86v-1.19h-1.86" transform="translate(-.05 -.23)"/><path d="M290 65.74v1.19h1.86v-1.19H290" transform="translate(-.05 -.23)"/><path d="M290.91 65.74v1.19h1.77v-1.19H291" transform="translate(-.05 -.23)"/><path d="M291.81 65.74v1.19h1.82v-1.19h-1.82" transform="translate(-.05 -.23)"/><path d="M292.71 65.74v1.19h1.82v-1.19h-1.82" transform="translate(-.05 -.23)"/><path d="M293.51 65.74v1.19h1.86v-1.19h-1.86" transform="translate(-.05 -.23)"/><path d="M294.41 65.74v1.19h1.77v-1.19h-1.77" transform="translate(-.05 -.23)"/><path d="M295.31 65.74v1.19h1.82v-1.19h-1.82" transform="translate(-.05 -.23)"/><path d="M296.21 65.74v1.19h1.84v-1.19h-1.82" transform="translate(-.05 -.23)"/><path d="M297.11 65.74v1.19h1.86v-1.19h-1.86" transform="translate(-.05 -.23)"/><path d="M298 65.74v1.19h1.86v-1.19H298" transform="translate(-.05 -.23)"/><path d="M298.91 65.74v1.19h1.77v-1.19H299" transform="translate(-.05 -.23)"/><path d="M299.81 65.74v1.19h1.82v-1.19h-1.82" transform="translate(-.05 -.23)"/><path d="M300.71 65.74v1.19h1.82v-1.19h-1.82" transform="translate(-.05 -.23)"/><path d="M301.61 65.74v1.19h1.86v-1.19h-1.86" transform="translate(-.05 -.23)"/><path d="M302.51 65.74v1.19h1.86v-1.19h-1.86" transform="translate(-.05 -.23)"/><path d="M303.31 65.74v1.19h1.82v-1.19h-1.82" transform="translate(-.05 -.23)"/><path d="M304.21 65.74v1.19h1.84v-1.19h-1.82" transform="translate(-.05 -.23)"/><path d="M305.11 65.74v1.19h1.86v-1.19h-1.86" transform="translate(-.05 -.23)"/><path d="M306 65.74v1.19h1.86v-1.19H306" transform="translate(-.05 -.23)"/><path d="M306.91 65.74v1.19h1.77v-1.19H307" transform="translate(-.05 -.23)"/><path d="M307.81 65.74v1.19h1.82v-1.19h-1.82" transform="translate(-.05 -.23)"/><path d="M308.71 65.74v1.19h1.82v-1.19h-1.82" transform="translate(-.05 -.23)"/><path d="M309.61 65.74v1.19h1.86v-1.19h-1.86" transform="translate(-.05 -.23)"/><path d="M312.47 65.7h-1.34v1.19h1.34c2.84 0 5.72-1 6.91-3.53v-.6h-.3c-.14 0-.76 2.93-6.58 2.93" transform="translate(-.05 -.23)"/><path class="cls-4" d="M108.89 78.23s0 .08.25.23a.52.52 0 01.24.4v2.35c0 .42-.06.44-.49.62-.17.07-.27.14-.27.24s.12.19.31.19.5-.06.76-.06h1c.3 0 .28-.08.28-.19s0-.13-.25-.24a.51.51 0 01-.36-.49v-2.51a1 1 0 01.13-.29 1.55 1.55 0 011-.3.87.87 0 011 .83v2.14c0 .44-.15.51-.45.62s-.28.13-.28.22.16.2.34.2h1.73c.13 0 .26-.07.26-.19s-.06-.19-.29-.26a.5.5 0 01-.39-.48v-2.43a.64.64 0 01.11-.34 1.86 1.86 0 011-.28.93.93 0 01.81.37 1.42 1.42 0 01.18.82v1.89a.44.44 0 01-.36.49c-.21.06-.27.18-.27.22s.14.19.32.19h1.68c.1 0 .25 0 .25-.18s-.12-.16-.26-.22-.42-.2-.42-.39 0-1.51-.08-2.21-.4-1.68-1.39-1.68a1.79 1.79 0 00-.77.15 5.76 5.76 0 00-.82.48.15.15 0 01-.15 0 1.3 1.3 0 00-1.17-.6 3 3 0 00-1.54.57s-.11 0-.11-.06v-.47a.26.26 0 00-.18-.12l-.12.07a4.85 4.85 0 01-.86.43.37.37 0 00-.19.27m10.63-.29c.59 0 .86.3.86.63s-.52.41-.94.41h-.81a.1.1 0 01-.07-.11 1.21 1.21 0 011-.9m.33-.4a2.36 2.36 0 00-1.3.38 2.45 2.45 0 00-1.12 2.05 2.09 2.09 0 002.18 2.3 2.22 2.22 0 001.6-.69.51.51 0 00.14-.34c0-.13-.09-.18-.13-.15a2.22 2.22 0 01-1.13.43 1.7 1.7 0 01-1.7-1.76 1.08 1.08 0 010-.34.31.31 0 01.18-.13h2.4c.11 0 .3-.21.3-.33a1.44 1.44 0 00-.19-.78 1.52 1.52 0 00-1.3-.67zm4.08 4.02a.74.74 0 01-.74-.69c0-.28.1-.41.41-.52a11.57 11.57 0 011.19-.29s.09 0 .09.07v.71a1.18 1.18 0 01-.09.34 1.38 1.38 0 01-.85.38m.45-4a2.75 2.75 0 00-1.32.5c-.48.33-.8.68-.8.87a.32.32 0 00.13.18 1.93 1.93 0 00.47 0 .78.78 0 00.33-.09.42.42 0 00.1-.24 1.1 1.1 0 01.11-.55 1 1 0 01.5-.14 1 1 0 011 .62.89.89 0 010 .29v.43a.2.2 0 01-.12.16 9.81 9.81 0 01-1.89.54 1 1 0 00-.45.32.84.84 0 00-.17.54 1.26 1.26 0 001.06 1.31 1.19 1.19 0 00.59-.16 8.32 8.32 0 00.86-.54s.11.05.11.06a.78.78 0 00.8.69 1 1 0 00.81-.4 1.66 1.66 0 00.1-.29c0-.09 0-.2-.1-.18a1.34 1.34 0 01-.38.1c-.21 0-.4-.18-.4-.55v-2.14a1.62 1.62 0 00-.38-1 1.34 1.34 0 00-.97-.38zm4.64-.05a2.2 2.2 0 00-1 .29 1.25 1.25 0 00-.57 1 1.38 1.38 0 00.81 1.21c.33.19.59.31.88.49a.77.77 0 01.4.63.72.72 0 01-.78.69 1.33 1.33 0 01-1-.72c-.14-.22-.22-.3-.29-.3s-.2.08-.2.37a1.67 1.67 0 00.23.8 1.6 1.6 0 001.13.28 2.2 2.2 0 001-.21 1.32 1.32 0 00.84-1.22c0-.66-.49-1-1.07-1.31s-1.06-.45-1.06-1a.68.68 0 01.65-.66 1.08 1.08 0 01.84.65c.1.2.2.3.25.3s.25-.25.25-.33a3.83 3.83 0 000-.61.5.5 0 00-.19-.22 2.92 2.92 0 00-.35-.1 2.23 2.23 0 00-.71-.09m4.49 4.14a1.11 1.11 0 01-.59-.14c-.16-.13-.27-.26-.28-.86v-2.65c0-.23 0-.36-.11-.36s-.86.06-1.11.06c0 0-.34 0-.34.19s.11.19.23.26a.67.67 0 01.42.49v2.7a1 1 0 00.26.64 1.29 1.29 0 00.88.38 2.88 2.88 0 001.74-.72h.1v.52c0 .08.07.19.12.19a3 3 0 00.48-.08 6.82 6.82 0 01.91-.16.29.29 0 00.19-.3.42.42 0 00-.08-.19l-.58.07s-.16 0-.17-.43 0-2.89 0-3.37c0-.12-.08-.26-.13-.26h-1.32c-.15 0-.28.11-.28.18s.11.19.27.24l.36.15c.08 0 .17.22.17.35v2.26a.83.83 0 01-.31.53 1.81 1.81 0 01-.81.24m3.56-3.37c0 .07.12.17.24.26s.28.27.28.34v2.46c0 .26 0 .42-.48.58-.13.05-.26.11-.26.23s.1.18.31.18h2.14c.13 0 .28-.11.28-.2s-.15-.18-.41-.25c-.5-.14-.59-.25-.62-.77s0-2 0-2.11a.52.52 0 01.1-.26.58.58 0 01.51-.25.71.71 0 01.4.13.43.43 0 00.26.11.3.3 0 00.18-.09 1.15 1.15 0 00.44-.68c0-.12-.29-.34-.61-.34a1.76 1.76 0 00-1.2.66.07.07 0 01-.11 0v-.55c0-.16-.09-.15-.13-.15a.84.84 0 00-.33.11c-.23.12-.58.28-.75.38a.26.26 0 00-.16.23m5.84-.26c.59 0 .86.3.86.63s-.51.41-.94.41h-.81a.1.1 0 01-.07-.11 1.21 1.21 0 011-.9m.33-.4a2.36 2.36 0 00-1.3.38 2.45 2.45 0 00-1.12 2.05 2.09 2.09 0 002.18 2.3 2.22 2.22 0 001.6-.69.51.51 0 00.14-.34c0-.13-.09-.18-.13-.15a2.22 2.22 0 01-1.13.43 1.7 1.7 0 01-1.7-1.76 1.08 1.08 0 010-.34.31.31 0 01.18-.13h2.4c.11 0 .3-.21.3-.33a1.44 1.44 0 00-.19-.78 1.52 1.52 0 00-1.27-.67zm2.52.66s.05.08.25.23a.52.52 0 01.24.4v2.35c0 .42-.06.44-.49.62-.17.07-.27.14-.27.24s.12.19.31.19.5-.06.76-.06h1c.3 0 .28-.08.28-.19s0-.13-.25-.24a.51.51 0 01-.36-.49v-2.51a1 1 0 01.13-.29 1.56 1.56 0 011-.3 1 1 0 01.86.34 1.16 1.16 0 01.16.49v2.14c0 .44-.15.51-.45.62s-.28.13-.28.22.16.2.34.2h1.73c.13 0 .26-.07.26-.19s-.06-.19-.29-.26a.5.5 0 01-.39-.48v-2.43a.64.64 0 01.11-.34 1.89 1.89 0 011-.28.93.93 0 01.82.37 1.42 1.42 0 01.18.82v1.89a.44.44 0 01-.36.49c-.21.06-.27.18-.27.22s.14.19.32.19h1.68c.1 0 .25 0 .25-.18s-.12-.16-.26-.22-.42-.2-.42-.39 0-1.51-.08-2.21-.4-1.68-1.39-1.68a1.79 1.79 0 00-.77.15 5.76 5.76 0 00-.82.48.15.15 0 01-.15 0 1.3 1.3 0 00-1.17-.6 3 3 0 00-1.54.57c-.05 0-.11 0-.11-.06v-.47a.26.26 0 00-.18-.12l-.12.07a4.85 4.85 0 01-.86.43.37.37 0 00-.19.27m10.6-.29c.59 0 .86.3.86.63s-.52.41-.94.41h-.81a.1.1 0 01-.07-.11 1.21 1.21 0 011-.9m.33-.4a2.36 2.36 0 00-1.3.38A2.45 2.45 0 00155 80a2.09 2.09 0 002.18 2.3 2.22 2.22 0 001.6-.69.51.51 0 00.14-.34c0-.13-.09-.18-.13-.15a2.22 2.22 0 01-1.13.43 1.7 1.7 0 01-1.7-1.76 1.08 1.08 0 01.05-.34.31.31 0 01.18-.13h2.4c.11 0 .3-.21.3-.33a1.44 1.44 0 00-.19-.78 1.52 1.52 0 00-1.37-.67zm2.53.58s0 .07.16.17c.28.16.39.29.39.47 0 1.13 0 2-.07 2.51 0 .24-.08.38-.57.53-.11 0-.24.12-.24.24s.12.16.32.16h1.88c.2 0 .32-.09.32-.18s-.09-.18-.29-.26c-.45-.17-.44-.3-.44-.47v-2.59a.48.48 0 01.13-.28 1.78 1.78 0 011-.24.94.94 0 01.8.3 2.37 2.37 0 01.21 1.31v1.52a.45.45 0 01-.37.48c-.19.08-.25.17-.25.23s.16.18.3.18h1.54c.14 0 .33-.06.33-.18s-.08-.21-.34-.31-.28-.2-.29-.52v-1.67a2.7 2.7 0 00-.34-1.49 1.14 1.14 0 00-1-.52 2.77 2.77 0 00-1.59.57h-.07c.01 0 0-.43 0-.49s-.16-.13-.19-.13a1 1 0 00-.29.11c-.23.11-.52.21-.73.31a.42.42 0 00-.2.28m7.11-.52c-.08 0-.09-.09-.09-.13v-.55c0-.12-.06-.17-.1-.17a.75.75 0 00-.45.29 4.66 4.66 0 01-.8.67c-.1.09-.23.19-.23.24a.49.49 0 00.33.32c.31 0 .35.06.35.18 0 1.06-.06 1.74-.06 2.52a1.48 1.48 0 00.16.79 1.24 1.24 0 001 .52 2 2 0 001.14-.35.52.52 0 00.26-.39c0-.09-.05-.17-.09-.17a2 2 0 00-.25.07 2 2 0 01-.51.1 1 1 0 01-.61-.25c-.13-.15-.18-.33-.16-.83v-2c0-.13.06-.17.08-.17h1.26c.12 0 .22 0 .25-.15a1.68 1.68 0 000-.35c0-.07-.07-.19-.15-.19h-1.37m6.72 3.95a1.11 1.11 0 01-.59-.14c-.16-.13-.27-.26-.28-.86v-2.65c0-.23 0-.36-.11-.36s-.86.06-1.11.06c0 0-.34 0-.34.19s.11.19.23.26a.67.67 0 01.42.49v2.7a1 1 0 00.26.64 1.29 1.29 0 00.88.38 2.88 2.88 0 001.74-.72h.1v.52c0 .08.07.19.12.19a3 3 0 00.48-.08 6.82 6.82 0 01.91-.16.29.29 0 00.19-.3.42.42 0 00-.08-.19l-.58.07s-.16 0-.17-.43 0-2.89 0-3.37c0-.12-.08-.26-.13-.26h-1.32c-.15 0-.28.11-.28.18s.11.19.27.24l.36.15c.08 0 .17.22.17.35v2.26a.83.83 0 01-.31.53 1.81 1.81 0 01-.81.24m5.9-3.35c1 0 1.43 1 1.43 1.86a2.1 2.1 0 01-.52 1.38 1.19 1.19 0 01-.87.36 1.37 1.37 0 01-1-.6c-.07-.1-.1-.25-.1-.9v-1.66a.36.36 0 01.14-.21 1.56 1.56 0 01.85-.23m.49-.65a1.84 1.84 0 00-.68.13 5.51 5.51 0 00-.74.37.08.08 0 01-.11-.06v-.44a.25.25 0 00-.16-.16 1.05 1.05 0 00-.38.17 5.73 5.73 0 01-.71.34c-.12.07-.26.21-.26.31s.05.09.2.19c.36.25.38.34.38.42v3c0 .69 0 1.29-.06 2 0 .38-.09.59-.62.74-.21.06-.3.16-.3.22s.19.2.32.2.71-.1 1.16-.1h1c.06 0 .31-.09.31-.21s-.07-.15-.33-.22c-.57-.17-.6-.29-.6-.45v-1.41c0-.09.08-.23.11-.22a2.49 2.49 0 00.41 0 4.25 4.25 0 001.23-.23 2.54 2.54 0 001.68-2.42 2.33 2.33 0 00-.71-1.65 1.73 1.73 0 00-1.07-.52zm5.3.45a1.38 1.38 0 011.15.55 1.23 1.23 0 01.09.44v2.1a.71.71 0 01-.11.28 1.65 1.65 0 01-.87.27 1.75 1.75 0 01-1.54-1.88 1.87 1.87 0 01.53-1.45 1.13 1.13 0 01.75-.31m.47-.48a3.28 3.28 0 00-1.55.44 2.46 2.46 0 00-1.24 2.17 2.06 2.06 0 002.12 2.18 3.43 3.43 0 001.38-.55.05.05 0 01.08 0v.46c0 .13.14.14.2.14s.65-.15 1.42-.32a.42.42 0 00.24-.3c0-.13-.09-.2-.15-.19a5.34 5.34 0 01-.62.06c-.09 0-.19-.09-.2-.44s0-.52 0-2.76v-3.13c0-.52 0-.68-.14-.68s-1.12.19-1.38.26-.23.12-.23.15a.28.28 0 00.21.23c.49.13.54.16.57.53s0 1.59 0 1.66 0 .13-.09.12a3.39 3.39 0 00-.62-.01zm4.94 4.07a.74.74 0 01-.74-.69c0-.28.1-.41.41-.52a11.57 11.57 0 011.19-.29s.09 0 .09.07v.71a1.18 1.18 0 01-.09.34 1.38 1.38 0 01-.85.38m.45-4A2.75 2.75 0 00190 78c-.48.33-.8.68-.8.87a.32.32 0 00.13.18 1.93 1.93 0 00.47 0 .78.78 0 00.33-.09.36.36 0 00.1-.24 1.1 1.1 0 01.11-.55 1 1 0 01.5-.14 1 1 0 011 .62.89.89 0 010 .29v.43a.2.2 0 01-.12.16 9.81 9.81 0 01-1.89.54 1 1 0 00-.45.32.84.84 0 00-.17.54 1.26 1.26 0 001.06 1.31 1.19 1.19 0 00.59-.16 8.32 8.32 0 00.86-.54s.11.05.11.06a.78.78 0 00.8.69 1 1 0 00.81-.4 1.66 1.66 0 00.1-.29c0-.09-.05-.2-.1-.18a1.34 1.34 0 01-.38.1c-.21 0-.4-.18-.4-.55v-2.14a1.62 1.62 0 00-.38-1 1.34 1.34 0 00-.98-.29zm4.11.08c-.08 0-.09-.09-.09-.13v-.55c0-.12-.06-.17-.1-.17a.75.75 0 00-.45.29 4.66 4.66 0 01-.8.67c-.1.09-.23.19-.23.24a.49.49 0 00.33.32c.31 0 .35.06.35.18 0 1.06-.06 1.74-.06 2.52a1.48 1.48 0 00.16.79 1.24 1.24 0 001 .52 2 2 0 001.14-.35.54.54 0 00.27-.39c0-.09-.06-.17-.11-.17s-.14 0-.24.07a2 2 0 01-.51.1 1 1 0 01-.61-.25c-.13-.15-.18-.33-.16-.83v-2c0-.13.06-.17.08-.17h1.26c.12 0 .22 0 .26-.15a3.33 3.33 0 000-.35c0-.07-.07-.19-.15-.19h-1.37m4.31.27c.59 0 .86.3.86.63s-.52.41-.94.41h-.81a.1.1 0 01-.07-.11 1.21 1.21 0 011-.9m.33-.4a2.36 2.36 0 00-1.3.38 2.45 2.45 0 00-1.12 2.05 2.09 2.09 0 002.18 2.3 2.22 2.22 0 001.6-.69.51.51 0 00.14-.34c0-.13-.09-.18-.13-.15a2.22 2.22 0 01-1.13.43 1.7 1.7 0 01-1.7-1.76 1.08 1.08 0 010-.34.31.31 0 01.18-.13h2.4c.11 0 .3-.21.3-.33a1.44 1.44 0 00-.19-.78 1.52 1.52 0 00-1.3-.67z" transform="translate(-.05 -.23)"/><path d="M203 80.73a.66.66 0 00-.69.62.52.52 0 00.41.46c.23.07.4.17.4.41s-.07.53-.63.87c-.18.1-.22.19-.22.27s.12.17.27.17a1.68 1.68 0 001.37-1.62c0-.62-.39-1.18-.91-1.18m6.4 3.73c-.78 0-1.62-.33-1.62-1.1a.82.82 0 01.47-.74 2.22 2.22 0 01.89-.16 7.11 7.11 0 011 .06.85.85 0 01.81.78 1 1 0 01-.56.93 2.07 2.07 0 01-.95.23M209 78a1.11 1.11 0 011.1 1.22 1.82 1.82 0 01-.26 1 .85.85 0 01-.58.23c-.47 0-1.07-.34-1.07-1.32-.05-.57.21-1.13.81-1.13zm.16-.43a2.5 2.5 0 00-1.29.43 1.58 1.58 0 00-.63 1.32 1.56 1.56 0 00.84 1.38v.1a3 3 0 01-.8.57v.11a.91.91 0 00.32.76.83.83 0 00.33.16v.11c-.2.17-.52.41-.7.55a.93.93 0 00-.23.58c0 1.07 1.29 1.42 2 1.42a3.38 3.38 0 001.88-.51 2 2 0 001-1.59 1.29 1.29 0 00-1.29-1.27h-1.82c-.06 0-.42-.06-.42-.38a.52.52 0 01.25-.34.24.24 0 01.17-.06h.3a2.37 2.37 0 001.41-.45 1.56 1.56 0 00.6-1.27 1.68 1.68 0 00-.21-.78c.24 0 .72.07 1 .07a.25.25 0 00.13-.19c0-.16-.08-.46-.17-.46h-1.21a1.34 1.34 0 01-.41-.08 3.35 3.35 0 00-1.1-.21zm4.31-2.34a.61.61 0 00-.65.63.56.56 0 00.12.34.69.69 0 00.48.25.63.63 0 00.59-.63.88.88 0 00-.19-.46.48.48 0 00-.35-.13m-1 2.8a.35.35 0 00.12.22c.33.21.43.34.44.43s0 .64 0 .87v1.62c-.05.46-.07.55-.56.67-.16 0-.27.13-.27.23s.11.16.34.16h1.87c.15 0 .32 0 .32-.14s-.11-.21-.26-.26c-.41-.11-.45-.22-.46-.31s0-.31 0-1.77v-2s-.06-.17-.11-.17a5.61 5.61 0 00-1.2.36c-.12-.02-.2.06-.2.06zm2.53-.23c0 .1.12.17.28.23a.77.77 0 01.51.4c.08.13.75 1.68 1 2.25s.45 1.42.48 1.5a.4.4 0 00.25.19.34.34 0 00.28-.23c.09-.27.31-.9.59-1.6.43-1 .72-1.58.92-2a.81.81 0 01.57-.5c.17 0 .29-.13.29-.25s-.11-.17-.28-.17-.58.06-.78.06h-.61c-.18 0-.33 0-.33.19s.06.18.31.23.36.23.26.51c-.2.54-.62 1.52-.89 2.17h-.09c-.47-1.14-.89-2.19-.93-2.3s0-.32.15-.35.37-.13.37-.27-.1-.17-.25-.17h-.87c-.26 0-.73-.06-.85-.06s-.34.12-.34.19m7.46.12c.59 0 .86.3.86.63s-.52.41-.94.41h-.81a.1.1 0 01-.07-.11 1.21 1.21 0 011-.9m.33-.4a2.36 2.36 0 00-1.3.38 2.45 2.45 0 00-1.12 2.05 2.09 2.09 0 002.18 2.3 2.22 2.22 0 001.6-.69.51.51 0 00.14-.34c0-.13-.09-.18-.13-.15a2.22 2.22 0 01-1.13.43 1.7 1.7 0 01-1.7-1.76 1.08 1.08 0 01.05-.34.31.31 0 01.18-.13h2.4c.11 0 .3-.21.3-.33a1.44 1.44 0 00-.19-.78 1.52 1.52 0 00-1.32-.67zm4.13-.03a2.2 2.2 0 00-1 .29 1.25 1.25 0 00-.57 1 1.38 1.38 0 00.81 1.21c.33.19.59.31.88.49a.77.77 0 01.4.63.72.72 0 01-.78.69 1.33 1.33 0 01-1-.72c-.14-.22-.22-.3-.29-.3s-.2.08-.2.37a1.67 1.67 0 00.23.8 1.6 1.6 0 001.13.28 2.2 2.2 0 001-.21 1.32 1.32 0 00.84-1.22c0-.66-.49-1-1.07-1.31s-1.06-.45-1.06-1a.68.68 0 01.65-.66 1.08 1.08 0 01.84.65c.1.2.2.3.25.3s.25-.25.25-.33a3.83 3.83 0 000-.61.5.5 0 00-.19-.22 2.92 2.92 0 00-.35-.1 2.23 2.23 0 00-.71-.09m8.02 1.31a5 5 0 01-.73 2.14c-.23.33-.84 1-1.21 1-.13 0-.31-.2-.4-.38a.39.39 0 010-.22c.11-.54.51-2.15.68-2.89a.44.44 0 01.18-.27 3.78 3.78 0 01.87-.11.72.72 0 01.65.76m.9.07a1.22 1.22 0 00-1.37-1.35c-.14 0-.59.07-1 .12 0 0-.08-.07-.08-.12a4.34 4.34 0 00.12-.61c0-.14-.33-.35-.39-.35a.57.57 0 00-.28.17 3.1 3.1 0 00-.32 1s0 .06-.16.12a7.21 7.21 0 00-.79.36.77.77 0 00-.2.36.14.14 0 00.18.09c.18-.07.55-.19.71-.23s.09.08.09.11c-.3 1.29-1 4.52-1.29 5.27-.12.34-.2.44-.8.55a.46.46 0 00-.29.32c0 .07.1.15.35.15h.88c.57 0 1.16.07 1.19.07.27 0 .43-.13.43-.25s-.19-.19-.32-.21c-.54-.14-.58-.28-.51-.67.09-.56.2-.94.32-1.46 0 0 .09-.09.13-.08a1.68 1.68 0 00.56.15 2.83 2.83 0 001.3-.68 4.51 4.51 0 001.52-2.86zm4.52 6.05l.24-.3a7.42 7.42 0 010-10.55l-.24-.3a6.69 6.69 0 000 11.15m6.53-6.37a.67.67 0 00.25-.52.55.55 0 00-.52-.54 1.44 1.44 0 00-1.08.6 13.78 13.78 0 00-.89 1.09h-.1c-.06-.21-.16-.51-.23-.73-.12-.38-.28-.95-.74-.95s-1 .65-1.22 1a1.63 1.63 0 00-.14.29c0 .13.18.3.22.24.24-.33.66-.73.83-.73s.24.2.34.51.17.58.33 1.05a.93.93 0 01-.11.28c-.52.88-1 1.37-1.23 1.37a.54.54 0 01-.4-.37c0-.08-.2-.05-.23 0a1.05 1.05 0 00-.44.72.6.6 0 00.57.54c.67 0 1.42-1.08 1.91-1.73h.14c.01 0 .15.44.23.65.15.42.33 1 .85 1a1.5 1.5 0 001.28-1.24c0-.1-.08-.2-.13-.2s-.11 0-.22.18c-.28.38-.47.4-.6.4-.29 0-.5-.53-.79-1.55 0-.06 0-.2.05-.23.44-.68 1.12-1.48 1.32-1.48s.18.12.23.28.09.18.17.18a.6.6 0 00.35-.13m2 1.15a.31.31 0 00-.26.21c-.07.12-.24.5-.28.58a.25.25 0 01-.1.08 4.52 4.52 0 00-.53 0 .41.41 0 00-.14.26c0 .07 0 .1.06.11h.52v.07c-.15.47-.53 1.84-.63 2.19a1.81 1.81 0 00-.06.38s.09.31.3.31a2.64 2.64 0 001.24-.86.49.49 0 00.09-.29s-.08-.13-.12-.11c-.26.23-.58.49-.73.49s-.1-.07 0-.34c.24-.84.46-1.61.52-1.78a.17.17 0 01.09-.08h.77s.17-.26.17-.32 0-.1-.06-.1h-.75c-.05 0-.08 0-.07-.07a6.42 6.42 0 00.2-.73s-.12-.07-.24-.07M253 82a2.57 2.57 0 01-.87 2s-.07.08-.07.14a.17.17 0 00.15.15 2.64 2.64 0 001.11-2.22c0-.69-.27-1.21-.78-1.21a.64.64 0 100 1.28.76.76 0 00.46-.14m3.7-4.49a1.91 1.91 0 00-1.16.52 1.56 1.56 0 00-.58 1.12c0 .27.12.4.22.4a1.1 1.1 0 00.52-.31s.11-.14.09-.17a3 3 0 01-.07-.51.37.37 0 01.36-.39 3.6 3.6 0 01.94.23c.3.07.6.15.79.17s0 .11 0 .14a32 32 0 00-2.5 2.24c-.53.57-.73.94-.73 1.09s.11.37.23.37a.38.38 0 00.27-.22c.13-.26.39-.57.64-.57s.4.06.82.38.7.58 1.06.58a1.77 1.77 0 001-.51 1.42 1.42 0 00.61-1c0-.3-.13-.63-.56-.63a.19.19 0 00-.14.19 1.52 1.52 0 01.08.51c0 .56-.32.68-.47.68a1.13 1.13 0 01-.7-.27A2.4 2.4 0 00256 81c.24-.28 2.62-2.32 3.27-2.86a.58.58 0 00.26-.37.45.45 0 00-.21-.29.37.37 0 00-.25.14 1.74 1.74 0 01-.67.45 2 2 0 01-.62-.17 3.94 3.94 0 00-1.06-.34m4.66 2.14a.33.33 0 00-.28.21c-.06.12-.22.5-.27.58a.25.25 0 01-.1.08 4.52 4.52 0 00-.53 0 .41.41 0 00-.14.26c0 .07 0 .1.06.11h.52v.07c-.15.47-.53 1.84-.63 2.19a1.81 1.81 0 00-.06.38s.09.31.3.31a2.64 2.64 0 001.24-.86.49.49 0 00.09-.29s-.08-.13-.11-.11c-.27.23-.59.49-.74.49s-.1-.07 0-.34c.24-.84.46-1.61.52-1.78a.17.17 0 01.09-.08h.77s.17-.26.17-.32 0-.1-.06-.1h-.75c-.05 0-.08 0-.07-.07a6.42 6.42 0 00.2-.73s-.12-.07-.23-.07m3.17-5.84H264v11.13h.54V73.81m6.33 4.76a.67.67 0 00.25-.52.55.55 0 00-.52-.54 1.44 1.44 0 00-1.08.6 13.78 13.78 0 00-.89 1.09h-.1c-.06-.21-.16-.51-.23-.73-.12-.38-.28-.95-.74-.95s-1 .65-1.22 1a1.63 1.63 0 00-.14.29c0 .13.18.3.23.24.23-.33.65-.73.82-.73s.24.2.34.51.17.58.33 1.05a.93.93 0 01-.11.28c-.52.88-1 1.37-1.23 1.37a.54.54 0 01-.4-.37c0-.08-.2-.05-.24 0a1.08 1.08 0 00-.43.72.6.6 0 00.57.54c.67 0 1.42-1.08 1.91-1.73h.14c.01 0 .15.44.23.65.15.42.33 1 .85 1a1.5 1.5 0 001.28-1.24c0-.1-.08-.2-.13-.2s-.11 0-.22.18c-.28.38-.47.4-.6.4-.29 0-.5-.53-.79-1.55 0-.06 0-.2.05-.23.44-.68 1.12-1.48 1.32-1.48s.18.12.23.28.09.18.17.18a.6.6 0 00.35-.13m.5 5.16c0 .08.11.13.27.13h1.9c.3 0 .24-.07.24-.12s-.08-.14-.19-.16c-.52-.11-.61-.15-.48-.7.08-.34.5-1.93.65-2.47.19-.71.33-1.12.37-1.25A.1.1 0 00274 79h-.18a6.73 6.73 0 01-1.13.27c-.09 0-.21.08-.21.17s.13.12.21.13h.48s.06.1 0 .16-.08.37-.36 1.42c-.22.85-.36 1.24-.51 1.74-.11.35-.26.48-.69.56-.17 0-.32.07-.32.18M275.8 80a.54.54 0 10.53.54.53.53 0 00-.53-.54m0 2.49a.54.54 0 100 1.07.52.52 0 00.53-.53.53.53 0 00-.53-.55zm2.98-2.79a.33.33 0 00-.28.21c-.06.12-.22.5-.27.58a.25.25 0 01-.1.08 4.61 4.61 0 00-.53 0 .37.37 0 00-.14.26c0 .07 0 .1.06.11h.52v.07c-.15.47-.53 1.84-.63 2.19a1.81 1.81 0 00-.06.38s.09.31.3.31a2.64 2.64 0 001.24-.86.49.49 0 00.09-.29s-.08-.13-.11-.11c-.27.23-.59.49-.74.49s-.1-.07 0-.34c.24-.84.46-1.61.52-1.78a.17.17 0 01.09-.08h.77s.17-.26.17-.32 0-.1-.06-.1h-.75c-.05 0-.08 0-.07-.07a6.42 6.42 0 00.2-.73s-.12-.07-.23-.07m1.32 2.18a.28.28 0 00-.12.08.61.61 0 00-.1.29.15.15 0 00.14.15c.36 0 1.06 0 1.57-.08a.38.38 0 00.13-.1.75.75 0 00.08-.31s-.06-.16-.1-.16c-.21 0-1.43.1-1.6.13m1.78 1.9c0 .08.11.13.27.13h1.9c.3 0 .24-.07.24-.12s-.08-.14-.19-.16c-.52-.11-.61-.15-.48-.7.08-.34.5-1.93.65-2.47.19-.71.33-1.12.37-1.25a.1.1 0 00-.09-.11h-.18a6.73 6.73 0 01-1.13.27c-.09 0-.21.08-.21.17s.13.12.21.13h.48s.06.1 0 .16-.08.37-.36 1.42c-.22.85-.36 1.24-.51 1.74-.11.35-.26.48-.69.56-.17 0-.32.07-.32.18m5.52 1.28a6.69 6.69 0 000-11.15l-.26.3a7.38 7.38 0 010 10.55l.26.3" transform="translate(-.05 -.23)"/></g></g></svg>