<svg xmlns="http://www.w3.org/2000/svg" viewBox="0 0 257.51 76.13"><defs><clipPath id="a" transform="translate(-.61 -.05)"><path fill="none" d="M.31-.4h258v77H.31z"/></clipPath></defs><g clip-path="url(#a)"><path d="M5.79.14A11.1 11.1 0 014.11.08C3.96.05 3.79.05 3.63.01s-.24.16-.36.37a12.32 12.32 0 00-.64 1.89c0 .24 0 .48.19.48s.27-.1.43-.38a3.8 3.8 0 01.76-1.07c.38-.35.72-.35 1.47-.43h3c.08 0 .08.17 0 .25-.32.37-5.51 6.2-7.66 8.33-.24.22-.13.54 0 .54.35 0 1.27-.1 2.23-.1.73 0 4.35.1 5 .1a3.06 3.06 0 001-.14 1.7 1.7 0 00.46-.64 7.16 7.16 0 00.65-1.75c0-.19 0-.4-.19-.4s-.28.1-.51.48a4.34 4.34 0 01-1.25 1.41 4.17 4.17 0 01-1.82.32c-.5 0-2.89-.16-3.14-.23s-.1-.12 0-.19c1.3-1.49 4.74-5.35 5.86-6.51S10.7.73 10.82.62a.74.74 0 00.2-.43c0-.11-.16-.19-.28-.19S7.3.14 5.79.14m5.6 11.99c0 .11.15.18.38.18s.9-.06 1.62-.06h1.06c.22 0 .33-.1.33-.18s-.11-.19-.27-.22c-.73-.16-.86-.22-.67-1 .1-.46.71-2.71.91-3.46.27-1 .47-1.57.52-1.76a.15.15 0 00-.13-.15 1 1 0 00-.25.08 10.66 10.66 0 01-1.56.39c-.14 0-.3.12-.3.24s.19.17.3.18.46 0 .67 0c.05 0 .08.15.05.22-.05.26-.11.53-.5 2-.31 1.19-.5 1.74-.72 2.44-.15.51-.36.68-1 .79-.25.05-.46.1-.46.26m25.75-6.64H26.51a.36.36 0 00-.36.36.38.38 0 00.36.37h10.61a.37.37 0 00.36-.37.35.35 0 00-.36-.36"/><path d="M44.22 5.44H33.61a.36.36 0 00-.36.36.38.38 0 00.36.37h10.61a.37.37 0 00.36-.37.35.35 0 00-.36-.36"/><path d="M54.39 5.44H43.81a.36.36 0 00-.36.36.38.38 0 00.36.37h10.58a.37.37 0 00.36-.37.35.35 0 00-.36-.36"/><path d="M64.52 5.44H53.91a.36.36 0 00-.36.36.38.38 0 00.36.37h10.61a.37.37 0 00.36-.37.35.35 0 00-.36-.36"/><path d="M67.83 3.51c0 .37 1.07 1.15 1.83 1.93h-8.65a.36.36 0 00-.36.36.38.38 0 00.36.37h8.65c-.73.73-1.83 1.52-1.83 1.9a.36.36 0 00.37.37.38.38 0 00.29-.14 5.68 5.68 0 013.19-2.15.36.36 0 000-.71 5.73 5.73 0 01-3.19-2.15.35.35 0 00-.29-.14.36.36 0 00-.37.36m22.56 1.58a1 1 0 00-1 1 1 1 0 102 0 1.07 1.07 0 00-1-1m-3.79 0a1 1 0 00-1 1 1 1 0 001 1 1 1 0 001-1 1 1 0 00-1.03-1zm-3.75 0a1 1 0 00-1 1 1 1 0 001 1 1 1 0 001-1 1 1 0 00-1.03-1zm29.27.35h-10.61a.36.36 0 00-.36.36.38.38 0 00.36.37h10.61a.37.37 0 00.36-.37.35.35 0 00-.36-.36"/><path d="M119.32 5.44h-10.61a.36.36 0 00-.36.36.38.38 0 00.36.37h10.61a.37.37 0 00.36-.37.35.35 0 00-.36-.36"/><path d="M129.39 5.44h-10.6a.36.36 0 00-.37.36.38.38 0 00.37.37h10.6a.37.37 0 00.36-.37.35.35 0 00-.36-.36"/><path d="M139.52 5.44h-10.61a.36.36 0 00-.36.36.38.38 0 00.36.37h10.61a.37.37 0 00.36-.37.35.35 0 00-.36-.36"/><path d="M142.93 3.51c0 .37 1.07 1.15 1.83 1.93h-8.64a.36.36 0 00-.37.36.38.38 0 00.37.37h8.64c-.73.73-1.83 1.52-1.83 1.9a.36.36 0 00.37.37.38.38 0 00.29-.14 5.68 5.68 0 013.19-2.15.36.36 0 000-.71 5.73 5.73 0 01-3.19-2.15.35.35 0 00-.29-.14.36.36 0 00-.37.36M161.39.14a11.1 11.1 0 01-1.68-.06c-.14 0-.32 0-.48-.07s-.24.16-.36.37a12.32 12.32 0 00-.64 1.89c0 .24 0 .48.19.48s.27-.1.43-.38a3.8 3.8 0 01.76-1.07c.34-.33.72-.39 1.47-.43h3c.08 0 .08.17 0 .25-.32.37-5.51 6.2-7.66 8.33-.24.22-.13.54 0 .54.35 0 1.27-.1 2.23-.1.73 0 4.35.1 5 .1a3.06 3.06 0 001-.14 1.7 1.7 0 00.46-.64 7.16 7.16 0 00.65-1.75c0-.19 0-.4-.19-.4s-.28.1-.51.48a4.34 4.34 0 01-1.25 1.41 4.17 4.17 0 01-1.85.31c-.5 0-2.89-.16-3.14-.23-.1 0-.1-.12 0-.19 1.36-1.49 4.8-5.35 5.92-6.51s1.56-1.6 1.65-1.71a.74.74 0 00.2-.43c0-.11-.16-.19-.28-.19s-3.44.14-4.95.14m7.77 6.36a.44.44 0 00-.38.29c-.09.18-.32.7-.39.81a.23.23 0 01-.13.11h-.75a.5.5 0 00-.2.36c0 .1 0 .15.09.16h.73v.1c-.22.66-.75 2.58-.88 3.07a3.34 3.34 0 00-.1.54c0 .08.14.43.43.43a3.72 3.72 0 001.74-1.2.67.67 0 00.13-.4c0-.07-.12-.19-.16-.16a2.85 2.85 0 01-1 .69c-.1 0-.14-.1 0-.48.33-1.18.64-2.26.73-2.5a.2.2 0 01.13-.11h1.08a1 1 0 00.23-.44c0-.07 0-.14-.08-.14h-1.06a.09.09 0 01-.1-.1 7.38 7.38 0 00.28-1c0-.05-.16-.1-.32-.1m1.77 3.03a.67.67 0 00-.17.12.93.93 0 00-.13.4.21.21 0 00.19.21c.5 0 1.48-.07 2.21-.11a.89.89 0 00.18-.14 1.24 1.24 0 00.11-.44c0-.05-.08-.22-.15-.22-.29 0-2 .14-2.24.18m2.47 2.67c0 .11.16.18.38.18s.9-.06 1.62-.06h1.06c.22 0 .33-.1.33-.18s-.11-.19-.27-.22c-.73-.16-.86-.22-.67-1 .1-.46.71-2.71.91-3.46.27-1 .47-1.57.52-1.76a.15.15 0 00-.13-.15 1 1 0 00-.25.08 10.66 10.66 0 01-1.58.37c-.14 0-.3.12-.3.24s.19.17.3.18.46 0 .67 0c0 0 .08.15 0 .22 0 .26-.11.53-.5 2-.31 1.19-.5 1.74-.72 2.44-.15.51-.36.68-1 .79-.25.05-.46.1-.46.26m25.72-6.62h-10.63a.36.36 0 00-.36.36.38.38 0 00.36.37H199a.37.37 0 00.36-.37.35.35 0 00-.36-.36"/><path d="M206.22 5.44h-10.6a.36.36 0 00-.37.36.38.38 0 00.37.37h10.6a.37.37 0 00.36-.37.35.35 0 00-.36-.36"/><path d="M216.32 5.44h-10.61a.36.36 0 00-.36.36.38.38 0 00.36.37h10.61a.37.37 0 00.36-.37.35.35 0 00-.36-.36"/><path d="M226.39 5.44h-10.6a.36.36 0 00-.37.36.38.38 0 00.37.37h10.6a.37.37 0 00.36-.37.35.35 0 00-.36-.36"/><path d="M229.83 3.51c0 .37 1.07 1.15 1.83 1.93h-8.65a.36.36 0 00-.36.36.38.38 0 00.36.37h8.65c-.73.73-1.83 1.52-1.83 1.9a.36.36 0 00.37.37.4.4 0 00.29-.14 5.68 5.68 0 013.19-2.15.36.36 0 000-.71 5.73 5.73 0 01-3.19-2.15.37.37 0 00-.29-.14.36.36 0 00-.37.36M248.29.14a11.1 11.1 0 01-1.68-.06c-.15 0-.32 0-.48-.07s-.24.16-.36.37a12.32 12.32 0 00-.64 1.89c0 .24 0 .48.19.48s.27-.1.43-.38a3.8 3.8 0 01.76-1.07c.34-.33.72-.39 1.47-.43h3c.08 0 .08.17 0 .25-.32.37-5.51 6.2-7.66 8.33-.24.22-.13.54 0 .54.35 0 1.27-.1 2.23-.1.73 0 4.35.1 5 .1a3.06 3.06 0 001-.14 1.7 1.7 0 00.46-.64 7.16 7.16 0 00.65-1.75c0-.19 0-.4-.19-.4s-.28.1-.51.48a4.34 4.34 0 01-1.25 1.41 4.15 4.15 0 01-1.84.31c-.51 0-2.9-.16-3.15-.23s-.1-.12 0-.19c1.36-1.49 4.8-5.35 5.93-6.51s1.58-1.61 1.7-1.72a.74.74 0 00.2-.43c0-.11-.16-.19-.28-.19s-3.44.14-4.95.14m7.71 6.37a.44.44 0 00-.38.29c-.09.18-.32.7-.39.81a.23.23 0 01-.13.11h-.75a.5.5 0 00-.2.36c0 .1 0 .15.09.16h.73v.1c-.22.66-.75 2.58-.89 3.07a3.47 3.47 0 00-.08.54c0 .08.13.43.42.43a3.72 3.72 0 001.74-1.2.67.67 0 00.13-.4c0-.07-.12-.19-.16-.16a2.85 2.85 0 01-1 .69c-.1 0-.14-.1 0-.48.33-1.18.64-2.26.73-2.5a.2.2 0 01.13-.11h1.08a1 1 0 00.23-.44c0-.07 0-.14-.08-.14h-1.06a.09.09 0 01-.1-.1 7.38 7.38 0 00.28-1c0-.05-.16-.1-.32-.1M9.11 29.34v-8.69a.38.38 0 00-.37-.37.38.38 0 00-.35.37v8.69a.38.38 0 00.36.37.38.38 0 00.37-.37"/><path d="M9.11 37.64v-8.69a.38.38 0 00-.37-.37.38.38 0 00-.35.37v8.69a.38.38 0 00.36.37.38.38 0 00.37-.37"/><path d="M9.11 46.04v-8.69a.38.38 0 00-.37-.4.38.38 0 00-.35.4v8.69a.38.38 0 00.36.37.38.38 0 00.37-.37"/><path d="M11.03 50.29c-.36 0-1.14 1.07-1.92 1.83v-6a.36.36 0 00-.37-.37.37.37 0 00-.36.37v6c-.73-.73-1.53-1.83-1.91-1.83a.36.36 0 00-.22.65 5.67 5.67 0 012.14 3.18.38.38 0 00.35.32.37.37 0 00.37-.32 5.69 5.69 0 012.15-3.17.4.4 0 00.14-.28.36.36 0 00-.37-.37m156.88-20.96v-8.69a.38.38 0 00-.37-.37.38.38 0 00-.36.37v8.69a.38.38 0 00.36.37.38.38 0 00.37-.37"/><path d="M167.91 37.64v-8.69a.38.38 0 00-.37-.37.38.38 0 00-.36.37v8.69a.38.38 0 00.36.37.38.38 0 00.37-.37"/><path d="M167.91 46.04v-8.69a.38.38 0 00-.37-.37.38.38 0 00-.36.37v8.69a.38.38 0 00.36.37.38.38 0 00.37-.37"/><path d="M169.83 50.29c-.36 0-1.14 1.07-1.92 1.83v-6a.36.36 0 00-.37-.37.37.37 0 00-.36.37v6c-.73-.73-1.53-1.83-1.91-1.83a.37.37 0 00-.37.37.38.38 0 00.15.28 5.67 5.67 0 012.14 3.18.38.38 0 00.35.32.37.37 0 00.37-.32 5.72 5.72 0 012.14-3.17.38.38 0 00.15-.28.37.37 0 00-.37-.37m80.98-20.96v-8.69a.38.38 0 00-.37-.37.38.38 0 00-.36.37v8.69a.38.38 0 00.36.37.38.38 0 00.37-.37"/><path d="M250.81 37.64v-8.69a.38.38 0 00-.37-.37.38.38 0 00-.36.37v8.69a.38.38 0 00.36.37.38.38 0 00.37-.37"/><path d="M250.81 46.04v-8.69a.38.38 0 00-.37-.37.38.38 0 00-.36.37v8.69a.38.38 0 00.36.37.38.38 0 00.37-.37"/><path d="M252.73 50.29c-.36 0-1.14 1.07-1.92 1.83v-6a.36.36 0 00-.37-.37.37.37 0 00-.36.37v6c-.73-.73-1.53-1.83-1.91-1.83a.37.37 0 00-.37.37.38.38 0 00.15.28 5.72 5.72 0 012.14 3.18.38.38 0 00.35.32.38.38 0 00.37-.32 5.69 5.69 0 012.15-3.17.4.4 0 00.14-.28.36.36 0 00-.37-.37M2.13 64.06c0 .15.19.23.43.29.57.16 1.08.27 1.38.89s1 2.26 1.46 3.2a.67.67 0 010 .42 26.75 26.75 0 01-2.81 3.09 4.2 4.2 0 01-2.07 1.08c-.39.08-.52.17-.52.31s.22.29.51.29.71-.05 1.67-.05c.66 0 1.16.05 1.52.05s.54-.11.54-.29-.08-.23-.3-.31c-.76-.24-.73-.56-.67-.62a32 32 0 012.45-2.72.16.16 0 01.22 0 21.55 21.55 0 011 2.2c.27.62.26.92-.5 1.08-.39.07-.45.23-.45.36s.19.27.46.27.83-.05 1.37-.05 1.84.05 2 .05c.33 0 .57-.13.57-.27s-.11-.3-.41-.36a1.88 1.88 0 01-1.29-.7c-.18-.32-1.61-3.45-1.75-3.74a.54.54 0 01.06-.41c.67-.76 1.8-2 2.44-2.66a3.92 3.92 0 012.17-1.08c.27-.06.5-.16.5-.35s-.16-.27-.5-.27c-.49 0-1.09.08-1.74.08H8.54a.45.45 0 00-.41.35c0 .11.08.21.35.27.51.13.62.32.27.73-.63.76-1.46 1.62-2.1 2.31-.08.08-.17.06-.2 0a20 20 0 01-1.15-2.43c-.14-.34.1-.56.51-.66.21-.06.38-.09.38-.24a.37.37 0 00-.39-.33H4.29c-.62 0-1.5-.08-1.66-.08s-.52.11-.52.3m9.5 11.77c0 .11.15.18.38.18s.9-.06 1.62-.06h1.06c.22 0 .33-.1.33-.18s-.11-.19-.27-.22c-.73-.16-.86-.22-.67-1 .1-.46.71-2.71.91-3.46.27-1 .47-1.57.52-1.76a.15.15 0 00-.13-.15 1 1 0 00-.25.08 10.66 10.66 0 01-1.58.37c-.14 0-.3.12-.3.24s.19.17.3.18.46 0 .67 0c0 0 .08.15 0 .22 0 .26-.11.53-.5 2-.31 1.19-.5 1.74-.72 2.44-.15.51-.36.68-1 .79-.25 0-.46.1-.46.26m146.21-11.7c0 .15.19.23.43.29.57.16 1.08.27 1.38.89s1 2.26 1.46 3.2a.67.67 0 010 .42 26.75 26.75 0 01-2.81 3.09 4.2 4.2 0 01-2.07 1.08c-.39.08-.52.17-.52.31s.22.29.51.29.71-.05 1.67-.05c.66 0 1.16.05 1.52.05s.54-.11.54-.29-.08-.23-.3-.31c-.76-.24-.73-.56-.67-.62a32 32 0 012.45-2.72.16.16 0 01.22 0 21.55 21.55 0 011 2.2c.28.62.26.92-.5 1.08-.39.07-.45.23-.45.36s.19.27.46.27.83-.05 1.37-.05 1.84.05 2 .05.57-.13.57-.27-.11-.3-.41-.36a1.88 1.88 0 01-1.29-.7c-.18-.32-1.61-3.45-1.75-3.74a.54.54 0 01.06-.41c.67-.76 1.8-2 2.43-2.66a4 4 0 012.18-1.08c.27-.06.5-.16.5-.35s-.16-.27-.5-.27c-.49 0-1.09.08-1.74.08h-1.33a.45.45 0 00-.41.35c0 .11.08.21.35.27.51.13.62.32.27.73-.63.76-1.46 1.62-2.1 2.31-.08.08-.17.06-.2 0a20 20 0 01-1.15-2.43c-.14-.34.1-.56.51-.66.21-.06.38-.09.38-.24a.37.37 0 00-.39-.33h-1.52c-.63 0-1.49-.08-1.65-.08s-.52.11-.52.3m11.62 6.14a.44.44 0 00-.38.29c-.09.18-.32.7-.39.81a.23.23 0 01-.13.11h-.75a.5.5 0 00-.2.36c0 .1 0 .15.09.16h.73s.05.07 0 .1c-.22.66-.75 2.58-.88 3.07a2.86 2.86 0 00-.09.54c0 .08.13.43.42.43a3.72 3.72 0 001.74-1.2.67.67 0 00.13-.4c0-.07-.12-.19-.16-.16a2.85 2.85 0 01-1 .69c-.1 0-.14-.1 0-.48.33-1.18.64-2.26.73-2.5a.2.2 0 01.13-.11h1.08a1 1 0 00.23-.44c0-.07 0-.14-.08-.14h-1.06a.09.09 0 01-.1-.1 7.38 7.38 0 00.28-1s-.16-.1-.32-.1m1.87 3.03a.67.67 0 00-.17.12.93.93 0 00-.13.4.21.21 0 00.19.21c.5 0 1.48-.07 2.21-.11a.89.89 0 00.18-.14 1.24 1.24 0 00.11-.44s-.08-.22-.15-.22c-.29 0-2 .14-2.24.18m2.39 2.67c0 .11.16.18.38.18s.9-.06 1.62-.06h1.06c.22 0 .33-.1.33-.18s-.11-.19-.27-.22c-.73-.16-.86-.22-.67-1 .1-.46.71-2.71.91-3.46.27-1 .46-1.57.52-1.76a.15.15 0 00-.13-.15 1 1 0 00-.25.08 11 11 0 01-1.58.37c-.14 0-.3.12-.3.24s.19.17.3.18.46 0 .67 0c.05 0 .08.15.05.22-.05.26-.11.53-.5 2-.31 1.19-.5 1.74-.72 2.44-.15.51-.36.68-1 .79-.25 0-.46.1-.46.26m71.06-11.7c0 .15.19.23.43.29.57.16 1.08.27 1.38.89s1 2.26 1.46 3.2a.85.85 0 010 .42 26.75 26.75 0 01-2.81 3.09 4.2 4.2 0 01-2.07 1.08c-.39.08-.52.17-.52.31s.22.29.51.29.71-.05 1.67-.05c.66 0 1.16.05 1.52.05s.54-.11.54-.29-.08-.23-.3-.31c-.76-.24-.73-.56-.67-.62a32 32 0 012.45-2.72.16.16 0 01.22 0 21.55 21.55 0 011 2.2c.27.62.26.92-.51 1.08-.38.07-.44.23-.44.36s.19.27.46.27.83-.05 1.37-.05 1.84.05 2 .05c.33 0 .57-.13.57-.27s-.11-.3-.41-.36a1.88 1.88 0 01-1.29-.7c-.18-.32-1.61-3.45-1.75-3.74a.54.54 0 01.06-.41c.67-.76 1.8-2 2.44-2.66a3.92 3.92 0 012.17-1.08c.27-.06.5-.16.5-.35s-.16-.27-.5-.27c-.49 0-1.09.08-1.75.08h-1.31a.45.45 0 00-.42.35c0 .11.08.21.35.27.51.13.62.32.27.73-.63.76-1.46 1.62-2.1 2.31-.08.08-.17.06-.2 0a20 20 0 01-1.15-2.43c-.14-.34.1-.56.51-.66.21-.06.38-.09.38-.24a.37.37 0 00-.39-.33h-1.52c-.63 0-1.49-.08-1.65-.08s-.52.11-.52.3m11.62 6.14a.44.44 0 00-.38.29c-.09.18-.32.7-.39.81a.23.23 0 01-.13.11h-.75a.5.5 0 00-.2.36c0 .1 0 .15.09.16h.73s.05.07 0 .1c-.22.66-.75 2.58-.89 3.07a3.47 3.47 0 00-.08.54c0 .08.13.43.42.43a3.72 3.72 0 001.74-1.12.67.67 0 00.13-.4c0-.07-.12-.19-.16-.16a2.85 2.85 0 01-1 .69c-.1 0-.14-.1 0-.48.33-1.18.64-2.26.73-2.5a.2.2 0 01.13-.11h1.08a1 1 0 00.23-.44c0-.07 0-.14-.08-.14h-1.06a.09.09 0 01-.1-.1 7.38 7.38 0 00.28-1s-.17-.1-.32-.1"/></g></svg>