<svg xmlns="http://www.w3.org/2000/svg" viewBox="0 0 64.78 55.03"><defs><style>.cls-1{fill:#7f7c9d}.cls-3{fill:#3f84c5}.cls-4{fill:#004583}</style></defs><g id="Layer_2" data-name="Layer 2"><g id="Layer_1-2" data-name="Layer 1"><path class="cls-1" d="M42.78 28.29a3.3 3.3 0 11-3.54-3 3.3 3.3 0 013.54 3"/><path d="M43.89 24.28a31.79 31.79 0 001.85 4.6 25.64 25.64 0 0119-2.51 24.19 24.19 0 00-3.81-11.11 25.16 25.16 0 00-1.83-2.53 25.67 25.67 0 01-15.2 11.55m12.63 3.31a23.5 23.5 0 00-9.87 3 31.47 31.47 0 0010.1 10.55 11.88 11.88 0 002.08-1c3.8-2.42 5.81-6.77 5.94-11.71a23.32 23.32 0 00-8.25-.81" fill="#ac2338"/><path class="cls-3" d="M33.69 29.41a32.76 32.76 0 00.91-4.34 25.66 25.66 0 01-22.77-21 23.39 23.39 0 00-9.4 8.71c-6 11.11 1 17.5 1 17.5a10.21 10.21 0 006.28 3.3h.28a23.3 23.3 0 0123.71-4.19"/><path class="cls-3" d="M34.82 23.14a34.3 34.3 0 000-5.17A32.57 32.57 0 0027.72 0a37 37 0 00-14.06 3.17 23.73 23.73 0 0021.16 20"/><path class="cls-4" d="M45 31.64a23 23 0 00-3.44 2.86 23.21 23.21 0 016.69 12.94c2.73-.54 5.5-1.93 6.53-5.26A33 33 0 0145 31.64"/><path class="cls-1" d="M34.89 32.09a34.9 34.9 0 01-6.12 10.68 7.51 7.51 0 004.36 3.75 25.64 25.64 0 015.65-11.88 20.87 20.87 0 00-3.89-2.55"/><path class="cls-4" d="M40.24 35.94a23.72 23.72 0 00-5.35 11.92l4.16 6.41a1.73 1.73 0 001.53.76h.89s.47 0 .47-.6l-.51-4.31-.25-1.49s-.3-.87.46-1a41.35 41.35 0 004.67.06 21.25 21.25 0 00-6.07-11.76"/><path class="cls-1" d="M23.65 29.87A21.1 21.1 0 0012 34.44a9.7 9.7 0 001.59 3.94A9.21 9.21 0 0018 42.11a12 12 0 003.58 1 11.47 11.47 0 004.51-.32 32.63 32.63 0 007-11.53 21.24 21.24 0 00-9.44-1.42"/><path d="M36.78 23.24q1 0 2.13-.06c.87-.07 1.71-.19 2.54-.34a33.16 33.16 0 01-.85-5.32 32.81 32.81 0 012.45-15.27A43.23 43.23 0 0030.17 0a34.53 34.53 0 016.61 17.82 35 35 0 010 5.42m8.11-20.33a31.09 31.09 0 00-2.34 14.46 32 32 0 00.81 5 23.66 23.66 0 0014.36-11.16 35.61 35.61 0 00-12.83-8.3" fill="#ea8c1c"/></g></g></svg>