<svg xmlns="http://www.w3.org/2000/svg" viewBox="0 0 70.17 119.75"><defs><style>.cls-4{fill:#231f20}</style></defs><g id="Layer_2" data-name="Layer 2"><g id="Layer_1-2" data-name="Layer 1"><path d="M24.19 15.87l.55.9c.63 1 1.61 5 2.88 6.3a13.84 13.84 0 012.5-1.29 26.84 26.84 0 00-1.65-2.5c-1.52-2-2.61-3.1-2.73-3.27a5.53 5.53 0 01-1.55-.14m11.41 5.26a16 16 0 00-.79-6.35 9 9 0 01-1.49-.53 21.74 21.74 0 00-.57 3.75 10.56 10.56 0 00.16 3.15 15 15 0 012.69 0m9.83 12.15a11 11 0 00-11.08-11.09A11.08 11.08 0 0023.26 33.3a10.9 10.9 0 00.16 1.48c3.19-.74 7.42-.62 9.3.87a11.14 11.14 0 0110.63 0 11.19 11.19 0 012-.74 13.33 13.33 0 00.11-1.64m-13.54-3.75a1.29 1.29 0 01-2.58-.13v-.15c-.11-.16-.69-.35-1.55.17-.43.27-.92.08-.16-.57a4.52 4.52 0 012.22-1.18 8.82 8.82 0 013.28.43c.28.12 0 1.51-.08 1.49a2.76 2.76 0 00-1.16-.17zm3.7 3.86c-.23.66-2.56.87-3 0-.17-.34-.4-1.21-.08-1a6.48 6.48 0 002.74 0c.32-.08.11-.52.3-.46s.24.86 0 1.48m5.48-3.64c-.59-.49-1.35-.7-1.65-.49v.1a1.29 1.29 0 11-2.57.23v-.06a4.57 4.57 0 00-1.3.07c-.06 0-.37-1.34 0-1.51 1.12-.45 4.7-.67 5.74 1.34.12.25 0 .57-.26.32m.75-14.01c-1.3 1.1-3.29 3.78-3.55 5.92a21.71 21.71 0 012.45 1.2c1.6-1.58 1.28-3.32 1.9-4.67.28-.58.54-1 .69-1.3a5.67 5.67 0 01-1.49-1.15M49.55 20a12.13 12.13 0 00-1.19.74c-1.54 1.16-4.88 2.72-5.65 3.57a9.41 9.41 0 011.93 2.33c.37 0 1.45-.86 3.59-3.37a8.74 8.74 0 012.73-2A7.71 7.71 0 0149.55 20m-26.88 9.26a5.21 5.21 0 00-4-1.17 35.16 35.16 0 01-7.78-.15 24.87 24.87 0 00-5.24 0c-3.76 0 .11.34.55.51a21.24 21.24 0 008.13 1.37 13 13 0 014.06.88 14.2 14.2 0 003.82.93 15.7 15.7 0 01.48-2.36m3.05-4.7c-1.92-1.54-3.68-1.88-6.5-3.2a18.79 18.79 0 01-1.76-1.05l-.39-.25a6.19 6.19 0 01-.81 1.65c.43.56 3.58 4.15 7.61 5.27a14.57 14.57 0 011.85-2.42m40.35 2.78a9.58 9.58 0 00-1.36-.12c-.61 0-4.59 0-5.67.19a62.77 62.77 0 01-8.9.08 10.46 10.46 0 00-4.42.95 11.23 11.23 0 01.73 2.85c.75.14 1.47-.81 3.61-.78s7.73-.26 10.51-1.34a30.33 30.33 0 015.23-1.49c.47-.1 1.22-.19.27-.34" fill="#ffc629"/><path d="M16.35 16.24a.68.68 0 01.65-.06c1.88.61 4.58.2 5.84-1.8a.68.68 0 01.83-.25c1.3.53 4 .77 7.21-2.52a.68.68 0 01.91 0 6.89 6.89 0 008.84.43c.18-.13.42-.29.63-.2a.66.66 0 01.41.48c1 4.45 5.6 4.06 7 3.83a.7.7 0 01.52.13.65.65 0 01.26.45 6.53 6.53 0 003.31 4.09 5.77 5.77 0 005.53-.2.64.64 0 01.63 0c2.52 1.35 4.79 1.43 6.23.22a3.24 3.24 0 001-3.45c-.45-1.36-1.8-2.2-3.69-2.31a.68.68 0 01-.63-.58A3.57 3.57 0 0060.1 12a7.11 7.11 0 00-5.83-.28.71.71 0 01-.57-.07.7.7 0 01-.32-.48 3.55 3.55 0 00-1.52-2.61c-1.11-.67-2.77-.65-4.82.05a.68.68 0 01-.82-.33 8.69 8.69 0 00-5.35-4.78 7.48 7.48 0 00-5.95 1 .69.69 0 01-.78 0 6.76 6.76 0 00-6.05-1.21 6.48 6.48 0 00-4.18 4.29.66.66 0 01-.36.39A.68.68 0 0123 8c-3-1.2-5.42-1.16-7 .09a4.55 4.55 0 00-1.77 3.28.66.66 0 01-.5.74l-.71.18c-1.66.37-3.37.77-3.89 3.4a.68.68 0 01-.6.55c-2.87.28-4.75 1.35-5.15 2.92a2.91 2.91 0 001.25 3.05A2.82 2.82 0 008 22a.69.69 0 01.64-.08 6.76 6.76 0 006.09-.81 4.27 4.27 0 001.41-4.24.67.67 0 01.23-.62m45.6.19a2.55 2.55 0 013.18 3.15c-.1.39-1.07.42-1 0 .14-1.93-.81-2.08-2.07-2.07-.48 0-.44-1-.08-1.1M54.64 13a4.3 4.3 0 016.11 2.25c.18.52-.5 1.39-.93.61-1.27-2.34-3.34-2.34-5.06-1.68-.39.15-.74-.83-.12-1.18M47.5 9.53c1.5-.53 4.16-.79 4.86 1.79.2.72-.68 1.06-.88.55-.71-1.86-2.06-1.79-3.67-1.27-.74.24-.56-1-.31-1.07m-12.6-2.9c1.1-1.81 6.92-3.49 9.9 1.62.32.56-.1.88-.44 1.11s-.37-.22-.53-.47c-2.53-4-7.11-2.89-8.34-1.09-.25.38-.91-.64-.59-1.17m-9.36.29c1-1.62 4.52-4.11 7.62-1.37.35.31-.06 1.43-.45 1.17-2.84-1.95-5.07-.38-6.25 1-.57.67-1.16-.44-.92-.83M8.79 18.23a3.52 3.52 0 00-3 .93c-.89 1-.67 1.5-.84 1.67s-.85-.18-.84-.66c0-2.28 2.8-3.16 4.43-3 .62.07.78 1 .23 1m4.83-3.82a2.59 2.59 0 00-2.56 2c-.12.36-1.1.1-.94-.62a3.35 3.35 0 013.62-2.48c.28.06.2 1.06-.12 1.09m1.5-2.24c.36-1.89 2.21-4.64 6.42-3.57.52.13.22 1.45-.34 1.23-3.08-1.21-4.62 1.12-5.12 3-.07.25-1.1.15-1-.63M6.55 35.3c-2 0-3.74.53-4.34 1.58a3 3 0 001 4.06c1.79 1.06 3.43.37 3.56-.28-.48-.55-1.32-1.79-1.79-1.8-.68 0-.63-.9-.13-1.06 1.18-.39 2.34 1.86 4 3.08 1.52 1.08 3.65.29 3.65-.16-.93-.84-2-5.33-6-5.42m40.67 5.31c1.41 1.43 3.34.82 3.43.35a7.09 7.09 0 00-1.6-1.88c-.43-.24-.71-.63-.48-1 .39-.54 1.16-.16 1.65.44a19.58 19.58 0 002.33 2.64c1.24.69 4 .44 3.75-.35-.76-1.2-1.28-3.61-3.53-4.67s-5.33-.81-8.1.18a25.34 25.34 0 002.52 4.25M30.78 36.1c-2.34-1.1-5.64-.73-8.42.25.77 1 2.05 3.42 2.71 4.23 1.28 1.55 3.46.76 3.55.3a10 10 0 00-1.77-2.06c-.41-.24-.65-.61-.42-.94.39-.54 1.3 0 1.79.6a25.5 25.5 0 002.34 2.64c1.36.92 4 .44 3.74-.35-.89-1.18-1.28-3.61-3.52-4.67M13.26 54c-1.66 0-3.26.69-4.26.52v11.12s.61.46 2.27 0c2.16-.61 3.12.06 3.12.06V54.47s-.23-.47-1.13-.47m5.95 46.48c1.67.47 2.27 0 2.27 0v-11.1c-.95.16-2.58-.49-4.24-.54-.89 0-1.14.48-1.14.48v11.21s1-.67 3.11 0M55.42 54c-.9 0-1.15.49-1.15.49v11.19s1-.67 3.12-.06c1.66.48 2.26 0 2.26 0v-11.1c-.95.17-2.57-.49-4.23-.54M17.24 54a1.16 1.16 0 00-1.14.49v11.19s1-.67 3.11-.06c1.67.48 2.27 0 2.27 0v-11.1c-.95.17-2.58-.49-4.24-.54m-2.83 46.55V89.32s-.25-.51-1.15-.48c-1.66 0-3.28.7-4.23.54v11.11s.6.46 2.26 0c2.16-.62 3.12 0 3.12 0m40.07-11.17v11.21s1-.67 3.11 0c1.67.47 2.27 0 2.27 0V89.38c-1 .16-2.58-.49-4.24-.54-.89 0-1.14.48-1.14.48M51.44 54c-1.66.05-3.29.71-4.24.54v11.1s.6.46 2.27 0c2.15-.61 3.11.06 3.11.06V54.47a1.16 1.16 0 00-1.14-.47m-4.03 35.38v11.11s.6.46 2.26 0c2.16-.62 3.12 0 3.12 0V89.32s-.25-.51-1.15-.48c-1.66 0-3.28.7-4.23.54" fill="#fff"/><path d="M66.83 49H40.17v24.22h26.66zm-4 19.25h-7.61v1h-3.17v-1h-7.64V55.38H46V53c1.65.4 4.36-.52 5.57-.51a3.25 3.25 0 012 .58 3.33 3.33 0 012-.58c1.21 0 3.91.9 5.57.51v2.35h1.63zM28.54 49H1.86v24.22h26.68zm-4.06 19.29h-7.64v1h-3.17v-1H6V55.38h1.66V53c1.65.4 4.36-.52 5.57-.51a3.3 3.3 0 012 .58 3.28 3.28 0 012-.58c1.21 0 3.91.9 5.57.51v2.35h1.63zm15.69 48.16c6.72-1.94 13.38-4.54 17.89-8.67a24.89 24.89 0 004-4.64h-6.84v1h-3.17v-1h-7.64V90.23H46v-2.35c1.66.4 4.36-.51 5.57-.51a3.25 3.25 0 012 .58 3.33 3.33 0 012-.58c1.21 0 3.91.9 5.57.51v2.35h1.63v11.68c2.46-4.25 3.62-9.45 4-16.76v-1.09h-26.6zM6 101.77V90.23h1.66v-2.35c1.66.4 4.36-.51 5.57-.51a3.3 3.3 0 012 .58 3.28 3.28 0 012-.58c1.21 0 3.91.9 5.57.51v2.35h1.63v12.91h-7.59v1h-3.17v-1H6.86a25.87 25.87 0 003.89 4.6c4.25 4 10.92 6.68 17.79 8.69V84.06H1.85l.06 1c.27 6.71 1.52 12.16 4.09 16.71" fill="#dcddde"/><path class="cls-4" d="M69.8 26.66a28.64 28.64 0 00-5.32-.82c-.64 0-4.31 0-5.73.25a39.3 39.3 0 01-8.82 0 7.77 7.77 0 00-3.12.43 5.23 5.23 0 00.62-.58c.84-.86 1.79-2.51 3.46-3.33.43-.21.82-.42 1.21-.64a7.09 7.09 0 006.37-.11c4.11 2.05 6.57.66 7.43-.07a4.66 4.66 0 001.65-3.54 4.33 4.33 0 00-.22-1.38c-.59-1.79-2.22-2.9-4.46-3.16a5.3 5.3 0 00-.57-1.34l.67-.83c.19-.25.87-1.37-.94-.43l-.49.27a4.79 4.79 0 00-.85-.68 8.16 8.16 0 00-6.31-.53 4.62 4.62 0 00-1.94-2.9 5.58 5.58 0 00-3.86-.59c.09-.22.18-.42.25-.58.68-1.42.32-1.78-.4-1.15s-1.32 1.23-1.71 1.64a9.64 9.64 0 00-5.62-4.5 8.67 8.67 0 00-6 .68 13.9 13.9 0 00-.38-2.2c-.33-1.16-.72-.25-.82.11s-.19 1.15-.32 1.92a7.82 7.82 0 00-6-.7 7.69 7.69 0 00-4.8 4.54 13.49 13.49 0 00-2.17-.57A13.75 13.75 0 0018.79 4c-.56-.49-1-.23-.68.74l.35 1A6.06 6.06 0 0015 6.91a6 6 0 00-2.25 3.89h-.2a6 6 0 00-4.05 2.46l-.38-.24c-3.19-2.12-1.72.6-.48 1.8-4.25.6-5.44 2.64-5.75 3.85a3.73 3.73 0 00-.12.94 4.39 4.39 0 001.93 3.57 4.1 4.1 0 004.66-.08 8 8 0 006.85-.93c1.16 1.26 2.1 2.15 2.62 2.66a13.08 13.08 0 004.09 2.59 8.56 8.56 0 00-4.09-.54 23.18 23.18 0 01-7.09-.29 43.9 43.9 0 00-6.07.18 27.46 27.46 0 00-4 .74c-1 .14-.91.78.44 1.14s3.82.58 4.49.87a20.35 20.35 0 008.34 1.52A10.1 10.1 0 0118 32a20 20 0 004 .87 18 18 0 00.1 1.92 8 8 0 00-1 .37A12.9 12.9 0 0010.31 35a9.41 9.41 0 00-6.89-.64c-4.1 1.31-3.42 5.06-2.08 6.78 1.83 2.33 5.21 1.86 6.2.68a5.39 5.39 0 006.07 0 15.42 15.42 0 0010.35 0 5.41 5.41 0 005.57.14c1.63 1 4.33 1 5.71-.18.51.43 2 1 5.21 1 3.85 0 4.75-.62 5.29-1.09a6.5 6.5 0 005.66.38 6.38 6.38 0 005.88-.17c2.83 1.29 8 .71 9.31-.19 2.33-1.61 1.2-4.89-1.35-6.45a12.39 12.39 0 00-11 .07c-1.48-1-4.57-1.64-7.79-1a11.6 11.6 0 000-1.31v-.15a9.52 9.52 0 013.39-1c2.51-.17 8.44-.09 11.4-1.61 1.69-.86 7.57-2 8.36-2.47s.59-.81.18-1.09m-21.57-3.4c-2.14 2.51-3.22 3.39-3.59 3.37a9.41 9.41 0 00-1.93-2.33c.77-.85 4.11-2.41 5.65-3.57a12.13 12.13 0 011.21-.77A8 8 0 0051 21.3a8.74 8.74 0 00-2.73 2m-30.81-5.49a6.61 6.61 0 005.4-1.51c1.87 3 1.92 5.68 3.72 7.54-2.28-2.2-4.26-2.16-7.51-3.91-.56-.31-1.4-.85-1.64-1a7.74 7.74 0 00.06-.86v-.28m13.85 3.32l.05.11-1.11-1.68c-.34-.52-.78-1-1.27-1.65-.77-.93-1.46-1.7-2-2.27a9.64 9.64 0 004.37-2.56c.17.13.34.22.51.33-.08.51-.16 1-.22 1.31a26.23 26.23 0 00-.42 4.21c0 .63 0 1.62.07 2.2m-2.84-1.85a26.84 26.84 0 011.65 2.5 13.84 13.84 0 00-2.5 1.29c-1.27-1.31-2.25-5.26-2.88-6.3l-.55-.9a5.93 5.93 0 001.55.14c.12.17 1.21 1.25 2.73 3.27m5.88 2.93A11 11 0 0145.43 33.3a13.33 13.33 0 01-.11 1.64 11.19 11.19 0 00-2 .74 11.14 11.14 0 00-10.63 0c-1.88-1.49-6.11-1.61-9.3-.87a12.83 12.83 0 01-.16-1.48 11.08 11.08 0 0111.12-11.12M32.75 18a21.54 21.54 0 01.57-3.73 8.16 8.16 0 001.49.52 16.11 16.11 0 01.79 6.36 15 15 0 00-2.69 0 10.56 10.56 0 01-.16-3.15m9.82.22c-.62 1.35-.3 3.09-1.9 4.67a21.71 21.71 0 00-2.45-1.2c.26-2.14 2.25-4.82 3.55-5.92a5.67 5.67 0 001.49 1.15c-.15.26-.41.72-.69 1.3m1.7-.43l.18-.33a9.06 9.06 0 003.78.36 6.62 6.62 0 00.6 1.32c-.63.3-2.56 1.62-5.38 3.19A5.64 5.64 0 0042 23.38a7.15 7.15 0 00.92-1.58c.5-1.27.37-2.29 1.36-4m-6.82 1.62a15 15 0 00-.55 1.58 19.44 19.44 0 00-.69-6.19 8.37 8.37 0 004.37-1.18 5.71 5.71 0 00.41.9 16.13 16.13 0 00-3.55 4.85M14.71 21.1a6.76 6.76 0 01-6.09.81A.69.69 0 008 22a2.82 2.82 0 01-3.39.2 2.91 2.91 0 01-1.25-3.05c.4-1.57 2.28-2.64 5.15-2.93a.66.66 0 00.6-.54c.52-2.63 2.23-3 3.89-3.4l.71-.18a.66.66 0 00.5-.74A4.53 4.53 0 0116 8.07c1.59-1.26 4-1.29 7-.07a.68.68 0 00.54 0 .66.66 0 00.36-.39 6.48 6.48 0 014.18-4.29 6.76 6.76 0 016.06 1.18.69.69 0 00.78 0 7.53 7.53 0 015.95-1 8.74 8.74 0 015.35 4.74.68.68 0 00.82.33c2.05-.7 3.71-.72 4.82-.05a3.55 3.55 0 011.52 2.61.7.7 0 00.32.48.67.67 0 00.57.06 7.15 7.15 0 015.83.33 3.57 3.57 0 011.75 2.55.68.68 0 00.63.58c1.89.11 3.24 1 3.69 2.31a3.24 3.24 0 01-1 3.45c-1.44 1.21-3.71 1.13-6.23-.22a.64.64 0 00-.63 0 5.77 5.77 0 01-5.53.2 6.53 6.53 0 01-3.31-4.09.67.67 0 00-.26-.46.74.74 0 00-.52-.12c-1.4.23-6 .62-7-3.83a.7.7 0 00-.41-.49c-.21-.08-.45.08-.63.21a6.89 6.89 0 01-8.84-.43.68.68 0 00-.91 0c-3.25 3.29-5.91 3.05-7.21 2.52a.67.67 0 00-.83.25c-1.26 2-4 2.41-5.84 1.8a.68.68 0 00-.65.06.67.67 0 00-.23.62 4.27 4.27 0 01-1.41 4.24m1.57.62a6.19 6.19 0 00.81-1.65l.39.25a18.79 18.79 0 001.76 1.05c2.82 1.32 4.58 1.65 6.5 3.2A14.57 14.57 0 0023.89 27c-4-1.12-7.18-4.71-7.61-5.27m2.09 9a13 13 0 00-4.06-.88 21.24 21.24 0 01-8.13-1.37c-.44-.17-4.31-.51-.55-.51a24.87 24.87 0 015.24 0 35.16 35.16 0 007.78.15 5.21 5.21 0 014 1.17 15.7 15.7 0 00-.48 2.36 14.2 14.2 0 01-3.82-.93M8.89 40.87c-1.7-1.21-2.86-3.46-4-3.07-.5.16-.55 1 .13 1.06.47 0 1.31 1.25 1.79 1.8-.13.65-1.82 1.35-3.59.28a3 3 0 01-1-4.06c.6-1.05 2.3-1.62 4.34-1.58 4 .09 5.06 4.58 6 5.42 0 .45-2.13 1.24-3.65.15m5.73-.06c-1.49-.66-2.67-4.09-3.11-4.53-.17-.18 2.64-1.2 5.5-1 4.87.41 4.88 3.44 6.08 5 .44.55-3.95 1.8-8.47.53m15.94.31a25.5 25.5 0 01-2.34-2.64c-.49-.6-1.4-1.14-1.79-.6-.23.33 0 .7.42.94a10 10 0 011.77 2.06c-.09.46-2.27 1.25-3.55-.3-.66-.81-1.94-3.2-2.71-4.23 2.78-1 6.08-1.35 8.42-.25s2.63 3.49 3.52 4.67c.22.79-2.38 1.27-3.74.35m6.11-.06C35.18 40.4 34 37 33.56 36.52c-.18-.17 2.64-1.19 5.5-.94 4.87.41 4.88 3.44 6.08 4.94.44.55-4 1.82-8.47.54M61 35.42c4.87.41 6 3.61 5.54 4.65s-3.41 2.1-7.93.83c-1.49-.67-2.67-4.1-3.1-4.54-.18-.17 2.63-1.19 5.49-.94m-8.27.76c2.25 1.06 2.77 3.47 3.53 4.67.22.79-2.51 1-3.75.35a19.58 19.58 0 01-2.33-2.64c-.49-.6-1.26-1-1.65-.44-.23.33.05.72.48 1A7.09 7.09 0 0150.6 41c-.09.47-2 1.08-3.43-.35a25.34 25.34 0 01-2.52-4.25c2.77-1 5.77-1.28 8.1-.18m13.07-8.49a30.33 30.33 0 00-5.23 1.49c-2.78 1.08-8.28 1.38-10.51 1.34s-2.86.92-3.61.78a11.23 11.23 0 00-.73-2.85 10.59 10.59 0 014.42-1 61.34 61.34 0 008.9-.07c1.08-.17 5.06-.19 5.67-.19a9.58 9.58 0 011.36.12c1 .14.2.24-.27.34"/><path class="cls-4" d="M8.79 18.23a3.52 3.52 0 00-3 .93c-.89 1-.67 1.5-.84 1.67s-.85-.18-.84-.66c0-2.28 2.8-3.16 4.43-3 .62.07.78 1 .23 1m4.85-3.76a2.59 2.59 0 00-2.56 2c-.12.36-1.1.1-.94-.62a3.35 3.35 0 013.62-2.48c.28.06.2 1.06-.12 1.09m7.56-4.64c-3.08-1.21-4.62 1.12-5.12 3-.07.25-1.1.15-1-.63.36-1.89 2.21-4.64 6.43-3.57.51.13.21 1.45-.35 1.23m11.57-3.07c-2.84-1.95-5.07-.38-6.25 1-.57.67-1.16-.44-.92-.83 1-1.62 4.52-4.11 7.62-1.37.35.31-.06 1.43-.45 1.17m11.65 2.67c-.23.17-.37-.22-.53-.47-2.53-4-7.11-2.89-8.34-1.09-.25.38-.91-.64-.59-1.17 1.1-1.81 6.92-3.49 9.9 1.62.32.56-.1.88-.44 1.11m7.12 2.51c-.71-1.86-2.06-1.79-3.67-1.27-.74.24-.56-1-.31-1.07 1.5-.53 4.16-.79 4.86 1.79.2.72-.68 1.06-.88.55m8.34 4.01c-1.27-2.34-3.34-2.34-5.06-1.68-.39.15-.74-.83-.12-1.18a4.3 4.3 0 016.11 2.25c.18.52-.5 1.39-.93.61m5.31 3.7c-.1.39-1.07.42-1 0 .14-1.93-.81-2.08-2.07-2.07-.48 0-.44-1-.08-1.1a2.55 2.55 0 013.18 3.15m-33.24 9.96a1.29 1.29 0 01-2.58-.13v-.14c-.11-.17-.69-.36-1.56.16-.43.27-.91.08-.16-.57a4.52 4.52 0 012.22-1.18 8.82 8.82 0 013.28.43c.28.12 0 1.51-.08 1.49a2.76 2.76 0 00-1.16-.17v.11m3.74 3.86c-.23.66-2.56.87-3 0-.17-.34-.4-1.21-.08-1a6.48 6.48 0 002.74 0c.32-.08.11-.52.3-.46s.24.86 0 1.48m5.52-3.66c-.59-.49-1.35-.7-1.65-.49v.1a1.29 1.29 0 11-2.57.23v-.06a4.57 4.57 0 00-1.3.07c-.06 0-.37-1.34 0-1.51 1.12-.45 4.7-.67 5.74 1.34.12.25 0 .57-.26.32M40.17 49h26.66v24.22H40.17zM1.85 49h26.69v24.22H1.85zm26.69 67.39c-6.87-2-13.54-4.71-17.79-8.69a25.87 25.87 0 01-3.89-4.6h6.81v1h3.17v-1h7.64V90.23h-1.63v-2.35c-1.66.39-4.36-.51-5.57-.51a3.28 3.28 0 00-2 .58 3.3 3.3 0 00-2-.58c-1.21 0-3.91.91-5.57.51v2.35H6v11.54c-2.6-4.55-3.85-10-4.12-16.68l-.06-1h26.72zM9 100.49V89.38c1 .16 2.57-.49 4.24-.54.89 0 1.14.48 1.14.48v11.21s-1-.67-3.12 0c-1.66.47-2.26 0-2.26 0m7.07 0V89.32s.25-.51 1.14-.48c1.66 0 3.29.7 4.24.54v11.11s-.6.46-2.27 0c-2.15-.62-3.11 0-3.11 0m22.68 16.35L34.36 118l-4.43-1.14V82.58H1.85v-7.87h28.08V49h8.85v25.71h28.05v7.87h-28zm24.08-15V90.23h-1.6v-2.35c-1.66.39-4.36-.51-5.57-.51a3.28 3.28 0 00-2 .58 3.3 3.3 0 00-2-.58c-1.21 0-3.91.91-5.57.51v2.35h-1.68v12.91h7.64v1h3.17v-1h6.87a25.26 25.26 0 01-4 4.65c-4.51 4.12-11.17 6.72-17.89 8.66V84.06h26.63v1.09c-.4 7.31-1.56 12.51-4 16.76m-3-12.53v11.11s-.6.46-2.27 0c-2.15-.62-3.11 0-3.11 0V89.32s.25-.51 1.14-.48c1.66 0 3.29.7 4.24.54m-7.07-.06v11.21s-1-.67-3.12 0c-1.66.47-2.26 0-2.26 0V89.38c1 .16 2.57-.49 4.23-.54.9 0 1.15.48 1.15.48M.22 47.42V83.2c0 11.82 3 20 9.28 25.77s15.67 8.61 24.86 10.78c9.43-2.23 18.52-5 24.85-10.78s9.26-14 9.26-25.77V47.42z"/><path class="cls-4" d="M22.85 55.38V53c-1.66.39-4.36-.51-5.57-.51a3.28 3.28 0 00-2 .58 3.3 3.3 0 00-2-.58c-1.21 0-3.92.91-5.57.51v2.35H6v12.94h7.64v1h3.17v-1h7.64V55.38zm-8.44 10.3s-1-.67-3.12-.06c-1.66.48-2.27 0-2.27 0v-11.1c1 .17 2.58-.49 4.24-.54.9 0 1.15.49 1.15.49zm7.07 0s-.6.46-2.27 0c-2.15-.61-3.11.06-3.11.06V54.47a1.16 1.16 0 011.14-.47c1.66.05 3.29.71 4.24.54zm39.75-10.3V53c-1.66.39-4.36-.51-5.57-.51a3.33 3.33 0 00-2 .58 3.25 3.25 0 00-2-.58c-1.21 0-3.91.91-5.57.51v2.35h-1.68v12.94h7.64v1h3.17v-1h7.64V55.38zm-8.65 10.3s-1-.67-3.11-.06c-1.67.48-2.27 0-2.27 0v-11.1c.95.17 2.58-.49 4.24-.54a1.16 1.16 0 011.14.49zm7.08 0s-.61.46-2.27 0c-2.16-.61-3.12.06-3.12.06V54.47a1.19 1.19 0 011.15-.47c1.66.05 3.28.71 4.24.54z"/><path d="M29.93 116.86l4.43 1.14 4.42-1.12v-34.3h28.05v-7.87H38.78V49.04h-8.85v25.67H1.85v7.87h28.08v34.28zM17 35.33c-2.86-.25-5.67.78-5.5 1 .44.44 1.62 3.87 3.11 4.53 4.52 1.28 8.91 0 8.47-.53-1.2-1.51-1.21-4.53-6.08-5m22.06.25c-2.86-.25-5.68.77-5.5.94.44.44 1.62 3.88 3.11 4.54 4.52 1.28 8.91 0 8.47-.54-1.2-1.5-1.21-4.53-6.08-4.94m19.57 5.32c4.52 1.27 7.5.09 7.93-.83s-.67-4.24-5.54-4.65c-2.86-.25-5.67.77-5.49.94.43.44 1.61 3.87 3.1 4.54" fill="#e81e25"/></g></g></svg>