<svg version="1.1" id="Layer_1" xmlns="http://www.w3.org/2000/svg" x="0" y="0" viewBox="0 0 212.2 212.2" xml:space="preserve"><style>.st2{fill:#e31837}.st3{fill-rule:evenodd;clip-rule:evenodd;fill:#6a737b}.st4{fill:none}</style><path d="M145.9 30.1c.4.2 2.6 1.4 3.1 1.7.7.3 1.3.9 1.8 1.5.5 1 .4 2.2-.3 3.1-.4.7-1 1.3-1.8 1.6-.4.1-.8.2-1.2.1l-.2 1.7-.3 3.6-.1.1c-1.1-.6-1.4-.8-2.4-1.2l-.1-.1c.1-.7.1-.9.6-3.6l.1-1-.5-.3c-.7 1.2-1.4 2.5-2.1 3.8h-.1c-1-.6-1.2-.7-2.2-1.2v-.1c1-1.7 2-3.3 2.6-4.3s1.1-1.9 1.6-2.8 1-1.8 1.5-2.6zm.5 6c.7.2 1.5-.2 1.7-.9.2-.3.3-.6.3-1s-.3-.8-.7-.9l-.6-.3c-.9 1.5-.9 1.6-1.6 2.7.4.2.6.3.9.4m16.5 5.8l-.3.4c-.4.5-2.5 3-3 3.6l-.7.8c-1.2 1.5-1.8 2.1-2.8 2.4-1.2.3-2.5-.1-3.4-1-.4-.3-2.2-1.8-1.4-3.9.4-.9.9-1.7 1.6-2.4l1.5-1.9c1.6-2 1.8-2.2 2.3-3h.1c.9.7 1.1.8 2.1 1.6v.1c-1.4 1.7-2.8 3.4-4.1 5.1-.4.5-.7 1-1 1.5-.3.5-.1 1.2.4 1.6.3.2.6.3 1 .3.6-.1 1-.6 1.8-1.5l2.9-3.6c.6-.8.8-1 1.3-1.6h.1c.7.6.9.8 1.7 1.3l-.1.2zm-1.3 14.4c-.8-.9-1-1.1-1.8-1.9v-.1c1-.8 1.1-.9 2.8-2.5l2-1.8c1.1-1 1.3-1.2 2-1.9-1-1.1-1.3-1.3-1.6-1.7v-.1c.6-.5.7-.6 1.3-1.2h.1l2.4 2.5c1.2 1.3 1.8 1.9 2.5 2.7v.1c-.6.5-.8.6-1.4 1.1h-.1c-.1-.1-.6-.6-.7-.8-.2-.3-.5-.6-.8-.9l-1.5 1.3c-1.8 1.6-3.5 3.3-5.2 5v.2zm12.6 7.5c-.5.3-.8.5-1.8 1.2-.8.5-1.6 1.1-2.4 1.7h-.1c-.9-.6-1.6-1.4-2.2-2.2-1-1.2-1.3-2.9-.9-4.4.5-1.3 1.4-2.3 2.5-3.1 1.3-1 2.9-1.5 4.5-1.3 1.4.2 2.6 1 3.3 2.2.6.8.9 1.6 1.1 2.6l-.1.1-1 .5c-.3.2-.6.3-.8.5l-.1-.1c.1-.8-.1-1.5-.6-2.1-1.1-1.7-3-1.5-4.8-.2-1.5 1-2.6 2.5-1.6 3.9l.6.6c.4-.2.6-.4 1.1-.7s1.1-.8 1.6-1.2h.1c.8.9.9 1.1 1.6 2zm3 6.9l-2.6 1.3.3.6c.8 1.5 1 1.9 1.3 2.5v.1c-.8.3-.9.4-1.7.7h-.1l-1.1-2.3c-.9-1.8-1.1-2.1-1.6-3l.1-.1c1.1-.5 1.9-.9 3.7-1.8 2-1 4.6-2.3 6.1-3.1h.1c.9 1.8 1.8 3.6 2.6 5.3v.1c-.7.3-.9.4-1.6.7h-.1l-.1-.3c-.2-.4-.4-.9-.6-1.3l-.4-.8-.3-.5c-1 .5-1.3.6-2.3 1.2l.3.6c.4.7.6 1.2 1.1 2.1v.1c-.8.3-.9.3-1.6.7h-.1c-.3-.7-.6-1.4-1-2l-.4-.8zm9.2 5.3c.2.5 1 2.8 1.1 3.3.3.7.4 1.5.4 2.3-.3 1.1-1.2 1.9-2.3 2.1-.8.3-1.6.3-2.4 0-.4-.1-.7-.4-1-.7l-1.3 1.2c-.9.8-1.8 1.6-2.6 2.5h-.1c-.4-1.2-.5-1.5-.9-2.5l.1-.2c.5-.4.7-.6 2.8-2.3l.8-.7-.2-.6c-1.4.4-2.7.9-4 1.4h-.1c-.4-1.2-.4-1.3-.8-2.4l.1-.1c1.9-.6 3.7-1.1 4.8-1.5s2.1-.7 3.1-1 1.7-.6 2.6-.9l-.1.1zm-3.6 4.8c.4.6 1.2.8 1.9.5.3-.1.6-.3.9-.5.3-.3.3-.8.1-1.1-.1-.2-.1-.4-.2-.6l-3 1c.1.2.2.5.3.7m5.8 13.1c.4-.5.5-1.2.4-1.9 0-.7-.6-1.1-1.2-1.1h-.1c-.5.1-.9.5-1.1 1-.1.2-.5 1.1-.6 1.3-.4 1.2-1.4 2.1-2.6 2.3-.8.2-1.7 0-2.5-.4-.9-.6-1.5-1.6-1.6-2.8-.2-.8-.1-1.6.1-2.4l.1-.1c.3 0 .7-.1 1-.1s.6-.1.9-.1l.1.1c-.4.6-.5 1.3-.4 2 .1.7.7 1.3 1.4 1.2h.2c.7-.1 1-.6 1.4-1.4l.3-.7c.4-1.2 1.4-2.1 2.7-2.3.8-.2 1.7 0 2.5.5.7.6 1.2 1.5 1.3 2.4.1.8.1 1.6-.1 2.4l-.1.1c-.3 0-.7.1-1 .1l-1.1-.1zm-8 15.5v-2.6l.1-.1c1.3.1 1.4.1 3.7.2l2.7.1 2.8.1v-2.3l.1-.1c.8.1.9.1 1.8.1l.1.1-.1 3.5c0 1.8-.1 2.6-.1 3.7l-.1.1c-.8-.1-1-.1-1.8-.2l-.1-.1c0-.2.1-.8.1-1 0-.4 0-.8.1-1.2l-2-.1c-2.4-.1-4.8-.1-7.2-.1l-.1-.1zm-1.2 10.8c1.8.3 2.8.6 4.8.9.1-.4.1-.7.2-1.1.1-.7.2-1.2.2-1.5-.9-.2-2.9-.5-4.8-.8l-.1-.1c.2-1.2.3-1.5.4-2.5l.1-.1c1.7.3 3.5.7 5.2 1 2.6.5 4.1.7 5.6.9l.1.1c-.2.8-.3 1.7-.4 2.6l-.1.1-2.9-.6-1.2-.2c-.1.6-.4 2.1-.4 2.6.6.1 2.3.4 4 .6l.1.1c-.2 1.3-.2 1.4-.4 2.5l-.1.1c-1-.2-2.3-.4-4.5-.8-.7-.1-4.4-.8-6.3-1l-.1-.1c.2-1.1.2-1.3.4-2.5l.2-.2zm2.1 10.8l-2.7-.9-.2.6c-.5 1.6-.6 2-.8 2.7l-.1.1c-.8-.3-.9-.4-1.7-.7l-.1-.1.8-2.4c.6-1.9.8-2.3 1-3.2h.1c1.2.4 2 .7 3.9 1.3 2.1.7 4.9 1.6 6.5 2.1l.1.1c-.6 1.9-1.3 3.8-1.8 5.6h-.1c-.7-.3-.9-.4-1.6-.6l-.1-.1.1-.3c.1-.4.3-.9.5-1.4l.3-.9.2-.6-2.5-.8-.2.6c-.3.8-.4 1.2-.7 2.3l-.1.1c-.7-.3-.9-.4-1.6-.6l-.1-.1c.2-.7.5-1.4.7-2.1l.2-.7zm-4.4 18.9c.6-.2 1.2-.6 1.5-1.2.4-.5.3-1.3-.2-1.7 0 0-.1 0-.1-.1-.4-.2-1-.2-1.4 0-.5.2-.9.4-1.3.6-1.1.7-2.4.7-3.5.1-.8-.4-1.3-1.1-1.6-1.9-.3-1.1-.1-2.2.5-3.2.4-.7.9-1.3 1.6-1.8h.2l.9.6c.3.2.5.3.8.5v.1c-.7.2-1.3.7-1.6 1.3-.4.6-.3 1.4.3 1.9.1 0 .1.1.2.1.6.4 1.1.1 2-.2l.7-.4c1.1-.7 2.4-.7 3.6-.1.8.4 1.4 1.1 1.6 1.9.2.9 0 1.9-.5 2.7-.4.7-.9 1.3-1.6 1.8h-.1l-.8-.6-1.3-.3.1-.1zm-12.5 2.4c.8-1 .9-1.2 1.5-2.1h.1c1 .8 1.1.9 2.9 2.3l2.1 1.6c1.2 1 1.4 1.1 2.2 1.7.9-1.2 1.1-1.5 1.4-1.9h.2c.6.5.7.6 1.4 1.1v.1l-2.1 2.8c-1.1 1.4-1.6 2.1-2.2 2.9h-.1c-.6-.5-.8-.7-1.4-1.2v-.1c.1-.1.5-.7.6-.8.3-.3.5-.6.7-.9-.6-.5-.9-.7-1.6-1.2-1.9-1.4-3.8-2.9-5.7-4.3zm-6.8 7.6c.7.4 1.3.9 2.5 1.6.6-.6 1.3-1.3 1.9-2-.5-.8-1-1.7-1.6-2.5v-.1l1.6-1.6h.1c.6 1.1.8 1.5 1.6 2.9l1.6 2.8c.4.6.7 1.2 1.1 1.9l1.3 2.3v.1c-.9.9-1.2 1.2-2.1 2.2h-.1l-.5-.3c-1.3-.8-2.2-1.3-3.6-2.1l-2.6-1.5-2.2-1.3-.9-.5v-.1c.8-.8 1-1.1 1.7-1.8h.2zm5.5 1.2l-1.4 1.4 1.8 1.1c1 .6 1.1.7 2.1 1.4-.6-.9-.8-1.2-1.4-2.2l-1.1-1.7zm-12.2 4.5c1-.7 1.2-.9 2-1.6h.1c.8 1.1.8 1.1 2.3 3 .6.7 1.1 1.4 1.6 2.1l1.7 2.2c1.2-.9 1.4-1.1 1.8-1.5h.1c.5.7.5.8 1 1.4v.1l-2.7 2.2c-1.4 1.1-2.1 1.6-2.9 2.3h-.1c-.4-.7-.6-.9-1-1.5v-.1c.1-.1.7-.5.8-.6.3-.2.6-.5.9-.7-.4-.6-.7-.9-1.2-1.6-1.5-1.9-3-3.7-4.5-5.6l.1-.1zm-4.3 8.7l-1.5-2.5-.6.3c-1.5.9-1.8 1.1-2.4 1.5h-.1c-.4-.7-.4-.9-.9-1.7v-.1l2.2-1.3c1.7-1 2.1-1.2 2.9-1.8h.1c.6 1.1 1 1.9 2.1 3.6 1.1 1.9 2.6 4.4 3.6 5.8v.1c-1.7 1-3.5 2.1-5.1 3h-.1c-.3-.7-.4-.9-.8-1.5v-.1l.2-.1 1.2-.7.8-.5.5-.3c-.6-1-.7-1.2-1.3-2.2l-.6.4c-.7.4-1.1.7-2 1.2h-.1c-.4-.7-.4-.8-.8-1.5v-.1c.7-.4 1.3-.8 2-1.1l.7-.4zm-17.5 14.3l-.1-.5c-.2-.6-1.2-3.8-1.4-4.5l-.3-1c-.6-1.8-.8-2.6-.5-3.7.4-1.2 1.4-2 2.7-2.3.5-.2 2.7-.9 4.1.9.5.8.9 1.7 1.1 2.6l.8 2.3 1.2 3.6v.1c-1.1.4-1.3.4-2.5.9l-.1-.1c-.7-2.1-1.3-4.1-2-6.2-.2-.6-.4-1.2-.7-1.7-.3-.5-.9-.7-1.5-.5-.4.1-.7.4-.8.7-.2.8-.1 1.6.3 2.3l1.4 4.4c.3 1 .4 1.2.7 1.9v.1c-.9.3-1.1.4-2 .7h-.4zm-8.5-2.1l-.5-2.9c-.4-2.1-.5-2.6-.8-4.1l.1-.1c1-.1 1.2-.2 2-.4l.1.1c.1 1 .2 1.8.4 2.8.2 1.5.7 4.4.9 5.3.1.4.3 1.5.5 2.7l-.1.1c-1.2.2-1.3.2-2.4.4l-.1-.1c-.6-.8-.8-1.1-2.4-3.2l-2.3-2.9.6 3.1.3 1.7c.2 1 .2 1.1.3 1.8l-.1.1c-1 .2-1.2.2-2 .4l-.1-.1c-.4-2.3-.7-4.4-.8-5.1-.2-1.2-.6-3.9-1-5.8l.1-.1c1.1-.2 1.2-.2 2.2-.4l.1.1c.5.6.6.8 2.1 2.7l2.9 3.9zm-14.1-5.8c1.1 0 1.4 0 2.6-.1l.1.1c0 2.1.1 4.1.1 6.2 0 1.5.1 2.4.2 4.8l-.1.1c-1.1 0-1.4 0-2.6.1l-.1-.1v-4.2c-.1-2.3-.1-4.5-.3-6.8l.1-.1zm-8.6-.5c1.3.1 1.6.1 2.7.2l.1.1c.1.6.1.8.3 1.7l.2 1.4.6 3.5.3 1.8c.1.9.3 1.9.5 2.6l-.1.1c-1.2-.1-1.5-.1-2.6-.1l-.1-.1c-.2-2-.3-3.2-.6-5l-.4-3.5-1.2 3.8c-.6 1.8-.8 2.6-1.3 4.4l-.1.1c-.8-.1-1.1-.1-2.2-.1v-.1c.3-.8.3-.8 1.8-4.7l.8-2.3c.5-1.4.6-1.7 1.3-3.8zm-9.6 3.3l.6-2.8-.6-.1c-1.7-.4-2.1-.4-2.8-.6l-.1-.1c.2-.8.3-1 .5-1.8l.1-.1 2.4.6c1.9.4 2.3.5 3.3.7l.1.1c-.3 1.2-.5 2.1-1 4-.5 2.2-1.1 5-1.4 6.7l-.1.1c-1.9-.5-4-.9-5.8-1.3l-.1-.1c.2-.7.3-.9.5-1.7l.1-.1.3.1 1.4.3.9.2.6.1c.2-1.1.3-1.4.6-2.6l-.7-.1c-.8-.2-1.3-.3-2.3-.5l-.1-.1c.2-.8.3-.9.5-1.6l.1-.1c.7.2 1.5.4 2.2.5l.8.3zm-10 3.8l-3.3-1.2c-.7-.2-1.4-.6-2-1.2-.6-.9-.7-2.1-.2-3.1.2-.8.8-1.4 1.5-1.9.3-.2.7-.3 1.1-.3l-.1-1.7c-.1-1.2-.1-2.4-.3-3.6l.1-.1c1.2.4 1.5.5 2.5.9l.1.1v4.7l.6.2c.5-1.3 1-2.7 1.4-4l.1-.1c1.1.5 1.3.5 2.3.9l.1.1c-.8 1.9-1.4 3.6-1.8 4.6s-.8 2-1.1 3.1-.6 1.7-1 2.6zm-1.5-5.8c-.7-.1-1.4.4-1.6 1.1-.1.3-.2.7-.1 1 .1.4.4.7.8.8.2.1.4.1.7.2.6-1.6.7-1.7 1.2-2.9-.4-.1-.7-.2-1-.2m-13.8-3.9c.2.6.6 1.2 1.2 1.5.5.4 1.3.3 1.6-.2l.1-.1c.2-.5.2-1-.1-1.4-.1-.2-.5-1.1-.6-1.3-.7-1-.7-2.4-.1-3.5.4-.8 1.1-1.4 1.9-1.7 1.1-.3 2.2-.1 3.2.5.7.4 1.3.9 1.8 1.6v.2l-.6.9c-.2.3-.3.5-.5.8H71c-.2-.7-.7-1.3-1.3-1.6-.6-.4-1.5-.3-1.9.3 0 .1-.1.1-.1.2-.3.6-.1 1.1.3 2l.4.7c.7 1.1.7 2.4.1 3.6-.4.8-1.1 1.4-1.9 1.6-.9.2-1.9 0-2.7-.5-.7-.4-1.3-.9-1.8-1.6v-.1c.2-.3.4-.5.5-.8l.5-.8.1-.3zM61.6 166c.9.7 1.1.8 2.1 1.5v.1c-1.2 1.6-2.4 3.3-3.6 5-.9 1.2-1.4 1.9-2.7 3.9h-.1c-.9-.6-1.2-.8-2.2-1.5v-.1c.9-1.1 1.7-2.2 2.5-3.4 1.3-1.9 2.6-3.7 3.9-5.6l.1.1zm-6.2-5.2c.9.8 1.1 1 1.9 1.7v.1c-.9.9-1 1-2.5 2.8-.6.7-1.2 1.3-1.8 2l-1.9 2c1.1 1 1.4 1.2 1.8 1.5v.1c-.6.6-.6.6-1.2 1.3h-.1L49 170c-1.4-1.2-2-1.8-2.8-2.4v-.1c.6-.6.7-.7 1.3-1.2h.1l.7.7.9.8c.5-.5.8-.9 1.3-1.5 1.6-1.8 3.2-3.6 4.7-5.4l.2-.1zm-9.7-3.8s2.5-2.2 3.2-2.9h.1c.8.9 1 1.2 1.7 1.9v.1c-1.2.9-3 2.6-3.2 2.7l-1.3 2.8c-.2.5-.4.9-.7 1.4-.7 1.5-.8 1.6-1.1 2.4h-.1c-.8-.9-1-1.1-1.8-1.9v-.1c.2-.3.3-.6 1.2-2.1l1.1-2.1-1.8.6c-1 .4-1.6.6-2.7 1h-.1c-.7-.8-.8-1-1.5-1.6v-.1c.6-.1.8-.2 1.6-.4l2.5-.7 2.9-1zm-13.9-14.7c.6-.6 1.3-1.1 2-1.4.6-.4 1.3-.6 2-.8 2-.8 4.3.1 5.2 2.1.7 1.1.8 2.4.3 3.6-.7 1.3-1.8 2.4-3.1 3.1-3.2 1.8-5.9 1.5-7.4-1.2-1-1.8-.6-4.1 1-5.4m2 1.8c-.7.5-1.8 1.5-1.2 2.6.8 1.5 3.2.4 4.3-.2.8-.4 1.6-1 2.2-1.8.4-.5.5-1.2.2-1.7-.1-.2-.3-.4-.6-.6-1.1-.6-3 .4-3.7.8l-1.2.9M31 131.3c.3.7.4 1.1 1 2.6.7-.3 1.3-.5 2.1-.8l2.1-.9.1.1c.4 1 .5 1.3.9 2.3l-.1.1c-1 .3-2.4.9-4.4 1.6-2.8 1.1-3.7 1.4-5.9 2.3l-.1-.1-.6-1.5-.8-2c-.5-1.1-.5-1.2-.8-2l.1-.1c.8-.2 1.1-.3 1.7-.5l.1.1c.3.8.3 1 .9 2.6l.2.5c1.3-.4 1.5-.5 2.6-1-.3-.9-.7-1.8-1.1-2.7v-.1c.7-.2.9-.3 1.7-.5h.3zm-5.5-11.6l2.9-.5c2.1-.3 2.6-.4 4.1-.7l.1.1c.1 1 .2 1.2.3 2l-.1.1c-1 .1-1.8.2-2.8.4-1.5.2-4.4.7-5.4.8-.4.1-1.5.2-2.7.5l-.1-.1c-.2-1.2-.2-1.3-.4-2.4l.1-.1c.8-.6 1.1-.8 3.2-2.4l2.9-2.2-3.1.5-1.7.3c-1 .2-1.1.2-1.8.3l-.1-.1c-.1-1-.2-1.2-.3-2l.1-.1 5.1-.7c1.2-.2 4-.6 5.8-.9l.1.1c.1 1.1.2 1.2.4 2.2v.2c-.6.5-.8.6-2.7 2l-3.9 2.7zm1.2-14.1h2.9v-3.4l.1-.1c.8.1 1 .1 1.9.2l.1.1v5.9l-.1.1c-1.2 0-2.1-.1-4.1-.1-2.2 0-5.2-.1-6.8 0l-.1-.1c0-2 .1-4.1.1-5.9l.1-.1c.8.1 1 .1 1.8.1l.1.1v3.2H25v-3.1l.1-.1c.8.1.9.1 1.7.1l.1.1c0 .8 0 1.5-.1 2.3l-.1.7zm-1.8-14.4l2.5 1 2.4.9 2.6.9.1.1c-.2 1.2-.3 1.6-.5 2.8l-.1.1H24l-3.2.1-.1-.1c.2-1.1.2-1.4.4-2.5l.1-.1c1 0 1.3 0 3.3.1l3.4.1H30l-2.5-1c-2.5-.9-3.5-1.3-5.7-2l-.1-.1c.2-1.2.2-1.4.4-2.7l.1-.1h.5c3.1.1 3.4.1 5.5.1h2.6l-2.3-.8c-.9-.3-1.9-.7-2.8-1s-2.1-.8-3-1.1l-.1-.1c.2-1 .2-1.2.3-2.1l.1-.1c1.6.7 3.1 1.3 4.7 2l2.7 1.1c.4.2.9.4 1.4.6.6.2 1.3.5 1.6.7l.1.1c-.2 1.2-.3 1.5-.5 2.9l-.1.1h-.6c-2.3-.1-2.5-.1-3.8-.1l-3.6.2zm3.3-20.9c.4.2.8.3 1.5.7l5.3 2.2c.8.3 1.5.7 2.2 1.3.6.8.7 2 .2 2.9-.2.4-.4.7-.6 1h-.1l-.8-.4c-.3-.2-.7-.3-1-.4v-.1c.2-.1.3-.3.4-.4v-.4c-.1-.5-.6-.8-1.7-1.2l-2.2-.9-4.2-1.7v-.1c.4-1.1.5-1.4 1-2.5zm9.1-4l2.5 1.4.3-.6c.8-1.5 1-1.8 1.3-2.5h.1c.7.5.8.6 1.6 1v.1L41.9 68c-1 1.7-1.2 2.1-1.7 2.9h-.1c-1.1-.7-1.8-1.1-3.6-2.1-1.9-1.1-4.5-2.6-6-3.3v-.1c1-1.7 2.1-3.5 3-5.1h.1c.6.4.8.5 1.5 1v.1l-.1.2-.7 1.2-.5.8-.3.5 2.3 1.3.3-.6c.4-.7.6-1.1 1.2-2.1h.1c.7.5.8.5 1.4.9v.1c-.4.6-.8 1.3-1.2 2l-.3.6zm-.6-10.6c.3-.4 1.8-2.3 2.2-2.8.4-.6 1-1.2 1.7-1.6 1.1-.3 2.2 0 3 .7.7.5 1.1 1.2 1.3 2 .1.4.1.8 0 1.2l1.7.4c1.2.3 2.3.6 3.5.8v.1c-.8 1-1 1.3-1.6 2.2h-.2c-.6-.2-.9-.3-3.5-1.1l-1-.3c-.2.2-.2.3-.4.5 1.1.9 2.2 1.8 3.4 2.6v.1c-.8.9-.9 1.1-1.5 2h-.1c-1.5-1.3-3-2.5-3.9-3.2s-1.7-1.3-2.6-2-1.4-1.1-2.2-1.6h.2zm6 .3c.3-.7 0-1.5-.6-1.8-.3-.2-.6-.4-.9-.4-.4 0-.8.2-1 .5-.2.2-.3.4-.4.5 1.3 1.1 1.5 1.2 2.5 2 .1-.2.3-.5.4-.8m7.7-12c-.7 0-1.3.2-1.8.7-.5.4-.6 1.1-.2 1.7l.1.1c.4.4.9.5 1.4.4.2 0 1.2-.2 1.4-.2 1.2-.3 2.5 0 3.4.9.6.6.9 1.4 1 2.3 0 1.1-.5 2.2-1.4 2.9-.6.6-1.3 1-2 1.3h-.2l-.7-.8c-.2-.2-.4-.5-.6-.7l.1-.1c.7 0 1.4-.3 1.9-.8.6-.5.7-1.3.2-1.9l-.1-.1c-.5-.5-1.1-.5-2-.3l-.8.1c-1.2.3-2.5 0-3.4-.9-.6-.6-1-1.4-1-2.3.1-1 .5-1.8 1.3-2.4.6-.6 1.2-1 2-1.2h.1l.6.8.7.5zm8.8-2l1.7 2.3.5-.4c1.4-1 1.7-1.3 2.2-1.7h.1c.4.7.5.9 1 1.6v.1l-2 1.5c-1.6 1.2-1.9 1.4-2.7 2h-.1c-.7-1-1.2-1.7-2.4-3.4-1.3-1.8-3-4.2-4.1-5.5v-.1c1.6-1.2 3.3-2.4 4.8-3.5h.1c.4.7.5.8 1 1.5v.1l-.3.2-1.2.8-.7.5-.5.3 1.5 2.1.5-.4c.7-.5 1-.8 1.9-1.4h.1c.4.7.5.8.9 1.4v.1c-.6.4-1.2.9-1.8 1.3l-.5.6zm10.4-6s1.6 2.9 2.1 3.8v.1c-1.1.6-1.3.7-2.2 1.3h-.1c-.6-1.4-1.8-3.5-2-3.8l-2.5-1.9-1.2-.9c-1.3-1-1.4-1.1-2.1-1.6v-.1c1-.6 1.2-.7 2.3-1.4h.1c.3.3.6.5 1.8 1.6l1.8 1.5-.2-1.9c-.1-1.1-.2-1.7-.4-2.8v-.1c1-.5 1.1-.6 1.9-1.1l.1.1c0 .6 0 .8.1 1.7.1 1.1.1 1.6.2 2.6l.3 2.9z" fill="#231f20"/><path d="M92.3 32.8c-1.3.2-1.6.3-2.6.6l-.1-.1c-.4-2-.7-3.5-1.1-5.6-.2-.9-.5-2.4-.7-3.3-.5.1-.6.2-1.1.3l-.1-.1c-.2-.8-.2-.9-.3-1.7l.1-.1c1.4-.5 1.6-.6 3.6-1.3l.1.1c.2.7.8 4.2 1 5 .4 2 .9 4 1.4 6l-.2.2zm7.1-10.1l-1 .1c-1.2.1-1.7.2-3.3.4L95 23v-2l.1-.1c.6 0 1.3-.1 1.7-.1l2.4-.2 3-.3.1.1c0 .2-.1.3-.1.5-.3 1.3-.4 1.6-.7 3.1l-.7 3.4c-.5 2.5-.6 3.1-.8 4.4l-.1.1c-1.2.1-1.5.1-2.8.3L97 32c.3-.9.3-1.1.8-3.1.2-.9.4-1.7.7-2.5l.9-3.7zm12.7.2c-.4-.4-1-.7-1.6-.7-2.1-.1-2.3 2.1-2.3 2.5.5-.4 1.2-.6 1.9-.6 1.8.1 2.9 1.5 2.8 3.8s-1.4 4-3.9 3.9c-.5 0-.9-.1-1.4-.3-1.7-.7-2.4-2.6-2.3-5.3 0-.8.1-1.5.3-2.3.2-1 .7-2 1.4-2.7.9-.8 2-1.2 3.2-1.1.7 0 1.4.2 2.1.5l.1.1c-.1.9-.1 1-.2 2l-.1.2zm-4.1 5.2c0 .6.2 1.7 1.1 1.7.2 0 .3 0 .5-.1.6-.4.7-1.3.7-1.6 0-1.2-.5-1.7-1-1.8-.5 0-.9.2-1.2.6 0 .4 0 .8-.1 1.2m16.5-3.4c-.4-.5-.9-.8-1.5-.9-2-.4-2.5 1.7-2.6 2.2.6-.3 1.3-.4 2-.3 1.7.3 2.7 2 2.2 4.1s-2 3.7-4.4 3.3c-.5-.1-.9-.2-1.3-.5-1.6-1-2-2.9-1.5-5.5.1-.8.3-1.5.6-2.2.4-1 1-1.8 1.8-2.5 1-.7 2.2-.9 3.3-.6.7.1 1.4.4 2 .8l.1.2c-.2.9-.3 1-.5 1.9h-.2zm-4.8 4.6c0 .6 0 1.7.8 1.9h.5c.7-.3.9-1.2.9-1.5.2-1.2-.2-1.8-.8-1.9-.5 0-1 .1-1.3.4 0 .3-.1.7-.1 1.1" fill="#6a737b"/><path class="st2" d="M106.1 197.9c-50.7 0-91.8-41.1-91.8-91.8s41.1-91.8 91.8-91.8 91.8 41.1 91.8 91.8c-.1 50.7-41.2 91.7-91.8 91.8m0-181.5c-49.6 0-89.7 40.2-89.7 89.7s40.2 89.7 89.7 89.7 89.7-40.2 89.7-89.7c-.1-49.5-40.2-89.7-89.7-89.7"/><path class="st3" d="M5.3 108.9c-1.9-1-3.8-1.4-4.9-3.3-1.1-2.4.4-6.3.4-6.3.9 1.8 2.6 3.2 4.5 3.8 1.9 1 3.8 1.5 4.9 3.3 1.1 2.4-.4 6.4-.4 6.4-.9-1.8-2.5-3.2-4.5-3.9"/><path class="st4" d="M0 0h212.2v212.2H0z"/><path class="st3" d="M5.6 98.4C3.8 97.2 2 96.6 1 94.6c-.9-2.5 1-6.3 1-6.3.8 1.9 2.3 3.5 4.1 4.3 1.8 1.2 3.6 1.9 4.5 3.8.9 2.5-1 6.3-1 6.3-.6-1.9-2.1-3.5-4-4.3M7 87.9c-1.7-1.4-3.4-2.2-4.1-4.2-.6-2.6 1.7-6.1 1.7-6.1.5 2 1.8 3.7 3.6 4.7 1.7 1.4 3.4 2.2 4.1 4.3.6 2.6-1.7 6.1-1.7 6.1-.5-2-1.8-3.7-3.6-4.8m2.4-10.2c-1.5-1.5-3.1-2.5-3.7-4.7-.3-2.7 2.3-5.9 2.3-5.9.3 2 1.5 3.8 3.1 5.1 1.5 1.5 3.1 2.6 3.6 4.7.3 2.7-2.3 5.9-2.3 5.9-.2-2.1-1.3-3.9-3-5.1m3.5-10c-1.4-1.7-2.9-2.8-3.2-5 0-2.7 3-5.7 3-5.7.1 2.1 1.1 4 2.6 5.4 1.4 1.7 2.8 2.9 3.1 5 0 2.7-2.9 5.6-2.9 5.6-.2-2-1.1-3.9-2.6-5.3m4.5-9.5c-1.2-1.8-2.5-3.1-2.6-5.3.2-2.7 3.5-5.3 3.5-5.3-.1 2.1.6 4.1 2 5.6 1.2 1.8 2.5 3.2 2.6 5.3-.2 2.7-3.5 5.3-3.5 5.3.1-2.1-.6-4.1-2-5.6m5.5-9c-1-1.9-2.2-3.4-2-5.6.5-2.6 4-4.9 4-4.9-.3 2 .2 4.1 1.4 5.8 1 1.9 2.2 3.4 2 5.6-.5 2.6-4 4.9-4 4.9.3-2.1-.2-4.2-1.4-5.8m6.4-8.4c-.8-2-1.8-3.6-1.4-5.7.8-2.6 4.5-4.5 4.5-4.5-.5 2-.2 4.1.8 5.9.8 2 1.8 3.6 1.4 5.8-.8 2.5-4.5 4.5-4.5 4.5.5-2.1.2-4.2-.8-6m7.3-7.7c-.6-2.1-1.5-3.8-.8-5.9 1-2.5 5-4 5-4-.7 1.9-.7 4.1.2 5.9.6 2.1 1.4 3.8.8 5.9-1 2.5-5 4-5 4 .7-1.9.6-4-.2-5.9m8-6.9c-.3-2.1-1-3.9-.2-5.9 1.3-2.3 5.3-3.4 5.3-3.4-.9 1.8-1.1 4-.4 5.9.3 2.1 1 3.9.2 5.9-1.3 2.3-5.3 3.4-5.3 3.4.8-1.8 1-3.9.4-5.9m8.6-5.9c-.1-2.2-.6-4 .4-5.9 1.5-2.2 5.7-2.9 5.7-2.9-1.1 1.7-1.5 3.8-1 5.9.1 2.1.6 4-.4 5.9-1.5 2.2-5.7 2.8-5.7 2.8 1.1-1.7 1.5-3.8 1-5.8m9.3-5.1c.1-2.2-.2-4 1-5.8 1.8-2 6-2.2 6-2.2a7.89 7.89 0 00-1.7 5.7c-.1 2.2.2 4-1 5.9-1.8 2-6 2.2-6 2.2 1.4-1.7 2-3.7 1.7-5.8m9.7-4.1c.3-2.1.2-4 1.6-5.7 2-1.8 6.2-1.6 6.2-1.6-1.4 1.5-2.3 3.4-2.3 5.5-.3 2.1-.2 4-1.7 5.7-2 1.8-6.2 1.6-6.2 1.6 1.6-1.4 2.4-3.4 2.4-5.5m10.2-3c.6-2.1.6-4 2.2-5.5 2.1-1.6 6.3-1 6.3-1-1.6 1.3-2.7 3.2-2.9 5.3-.6 2.1-.7 4-2.2 5.5-2.1 1.6-6.3 1-6.3 1 1.6-1.3 2.6-3.2 2.9-5.3m10.3-1.9c.8-2 1-3.9 2.8-5.2 2.3-1.4 6.3-.3 6.3-.3-1.7 1.1-2.9 2.9-3.3 4.9-.8 2-1.1 3.9-2.8 5.2-2.3 1.4-6.3.3-6.3.3 1.7-1.1 2.9-2.9 3.3-4.9m10.5-.9c1-1.9 1.4-3.8 3.3-4.9 2.5-1.1 6.3.4 6.3.4-1.8.9-3.2 2.6-3.8 4.5-1 1.9-1.5 3.8-3.3 4.9-2.4 1.1-6.3-.4-6.3-.4 1.8-.9 3.2-2.5 3.8-4.5"/><path class="st4" d="M0 0h212.2v212.2H0z"/><path class="st3" d="M113.8 5.6c1.2-1.8 1.8-3.6 3.8-4.6 2.5-.9 6.3 1 6.3 1-1.9.8-3.5 2.2-4.3 4.1-1.2 1.8-1.9 3.6-3.8 4.5-2.5.9-6.3-1-6.3-1 1.9-.6 3.4-2.1 4.3-4M124.2 7c1.3-1.7 2.2-3.4 4.2-4.1 2.6-.6 6.1 1.7 6.1 1.7-2 .5-3.7 1.9-4.7 3.6-1.4 1.7-2.2 3.4-4.3 4.1-2.6.6-6.1-1.7-6.1-1.7 2.1-.5 3.8-1.8 4.8-3.6m10.3 2.4c1.5-1.5 2.5-3.1 4.7-3.7 2.6-.3 5.9 2.3 5.9 2.3-2 .3-3.9 1.4-5.1 3.1-1.5 1.5-2.6 3.1-4.7 3.6-2.6.3-5.9-2.3-5.9-2.3 2-.2 3.9-1.3 5.1-3m10 3.5c1.7-1.4 2.8-2.9 5-3.2 2.7-.1 5.6 2.9 5.6 2.9-2.1.1-4 1.1-5.4 2.6-1.7 1.4-2.9 2.8-5.1 3.1-2.7 0-5.6-2.9-5.6-2.9 2.1-.1 4.1-1 5.5-2.5m9.5 4.5c1.8-1.2 3.1-2.6 5.3-2.6 2.7.2 5.3 3.5 5.3 3.5-2.1-.1-4.1.6-5.6 2-1.8 1.2-3.2 2.5-5.4 2.6-2.7-.2-5.3-3.5-5.3-3.5 2.1.1 4.2-.6 5.7-2m9 5.5c1.9-1 3.4-2.2 5.6-2 2.6.5 4.9 4 4.9 4-2-.3-4.1.2-5.8 1.4-1.9 1-3.4 2.2-5.6 2-2.6-.5-4.9-4-4.9-4 2 .3 4.1-.2 5.8-1.4m8.4 6.4c2-.8 3.6-1.8 5.8-1.5 2.6.8 4.5 4.5 4.5 4.5-2-.5-4.1-.2-5.9.8-2 .8-3.6 1.8-5.8 1.4-2.6-.8-4.5-4.5-4.5-4.5 2 .6 4.1.3 5.9-.7m7.6 7.3c2.1-.6 3.8-1.5 5.9-.8 2.5 1 4 5 4 5-1.9-.7-4.1-.7-5.9.2-2.1.6-3.8 1.4-5.9.8-2.5-1-4-5-4-5 1.9.7 4 .6 5.9-.2m6.9 8c2.1-.3 3.9-1 5.9-.2 2.3 1.3 3.4 5.4 3.4 5.4-1.8-.9-4-1.1-5.9-.4-2.1.3-3.9 1-5.9.2-2.3-1.3-3.4-5.4-3.4-5.4 1.8.8 3.9 1 5.9.4m6 8.6c2.2-.1 4-.6 5.9.4 2.2 1.5 2.9 5.7 2.9 5.7-1.7-1.1-3.9-1.5-5.9-1-2.1.1-4 .6-5.9-.4-2.2-1.5-2.8-5.7-2.8-5.7 1.7 1.1 3.8 1.5 5.8 1m5.1 9.3c2.2.1 4-.2 5.8 1 2 1.7 2.2 6 2.2 6a7.89 7.89 0 00-5.7-1.7c-2.2-.1-4 .2-5.9-1-2-1.7-2.2-6-2.2-6 1.7 1.3 3.7 1.9 5.8 1.7m4 9.7c2.1.3 4 .2 5.7 1.6 1.8 2 1.6 6.2 1.6 6.2-1.5-1.5-3.4-2.3-5.5-2.2-2.1-.3-4-.2-5.7-1.7-1.8-2-1.6-6.2-1.6-6.2 1.5 1.5 3.4 2.3 5.5 2.3m3 10.2c2.1.6 4 .6 5.5 2.2 1.6 2.1.9 6.3.9 6.3-1.3-1.6-3.2-2.6-5.2-2.8-2.1-.6-4-.7-5.5-2.2-1.6-2.1-1-6.3-1-6.3 1.3 1.5 3.2 2.5 5.3 2.8m2 10.3c2 .8 3.9 1 5.2 2.8 1.4 2.3.3 6.4.3 6.4-1.1-1.7-2.9-2.9-4.9-3.3-2-.8-3.9-1.1-5.2-2.8-1.4-2.3-.3-6.4-.3-6.4 1.1 1.7 2.9 2.9 4.9 3.3m.8 10.5c1.9 1 3.8 1.4 4.9 3.3 1.1 2.4-.4 6.3-.4 6.3-.9-1.8-2.6-3.2-4.5-3.8-1.9-1-3.8-1.5-4.9-3.3-1.1-2.4.4-6.3.4-6.3.9 1.8 2.6 3.2 4.5 3.8"/><path class="st4" d="M0 0h212.2v212.2H0z"/><path class="st3" d="M206.6 113.8c1.8 1.2 3.6 1.8 4.6 3.8.9 2.5-1 6.3-1 6.3-.8-1.9-2.2-3.5-4.1-4.3-1.8-1.2-3.6-1.8-4.5-3.8-.9-2.5 1-6.3 1-6.3.6 1.9 2.1 3.4 4 4.3m-1.4 10.4c1.7 1.4 3.4 2.2 4.1 4.2.6 2.6-1.7 6.1-1.7 6.1-.5-2-1.8-3.7-3.6-4.7-1.7-1.4-3.4-2.2-4.1-4.3-.6-2.6 1.7-6.1 1.7-6.1.5 2.1 1.8 3.8 3.6 4.8m-2.4 10.3c1.5 1.5 3.1 2.5 3.7 4.7.3 2.6-2.3 5.9-2.3 5.9-.3-2-1.4-3.9-3.1-5.1-1.5-1.5-3.1-2.6-3.6-4.7-.3-2.6 2.3-5.9 2.3-5.9.2 2 1.3 3.8 3 5.1m-3.5 9.9c1.4 1.7 2.9 2.9 3.1 5 .1 2.7-2.9 5.6-2.9 5.6-.1-2.1-1.1-4-2.6-5.4-1.4-1.7-2.8-2.9-3.1-5 0-2.7 2.9-5.6 2.9-5.6.1 2.2 1 4.1 2.6 5.4m-4.5 9.6c1.2 1.8 2.5 3.1 2.6 5.3-.2 2.7-3.5 5.3-3.5 5.3.1-2.1-.6-4.1-2-5.6-1.2-1.8-2.5-3.2-2.6-5.4.2-2.7 3.5-5.3 3.5-5.3-.1 2.1.6 4.2 2 5.7m-5.5 9c1 1.9 2.2 3.4 2 5.6-.5 2.6-4 4.9-4 4.9.3-2-.2-4.1-1.4-5.8-1-1.9-2.2-3.4-2-5.6.5-2.6 4-4.9 4-4.9-.4 2 .1 4.1 1.4 5.8m-6.4 8.4c.8 2 1.8 3.6 1.4 5.8-.8 2.6-4.5 4.5-4.5 4.5.5-2 .2-4.1-.8-5.9-.8-2-1.8-3.6-1.4-5.8.8-2.6 4.5-4.5 4.5-4.5-.6 2-.3 4.1.8 5.9m-7.3 7.6c.6 2.1 1.5 3.8.8 5.9-1 2.5-5 4-5 4 .7-1.9.7-4.1-.2-5.9-.6-2.1-1.4-3.8-.8-5.9 1-2.4 5-4 5-4-.7 1.9-.6 4 .2 5.9m-8 6.9c.4 2.1 1.1 3.9.2 5.9-1.3 2.3-5.4 3.4-5.4 3.4.9-1.8 1.1-4 .4-5.9-.4-2.1-1-3.9-.2-5.9 1.3-2.3 5.4-3.4 5.4-3.4-.9 1.8-1 3.9-.4 5.9m-8.7 6c.1 2.2.6 4-.4 5.9-1.5 2.2-5.7 2.9-5.7 2.9 1.1-1.7 1.5-3.8 1.1-5.9-.1-2.2-.6-4 .4-5.9 1.5-2.2 5.7-2.9 5.7-2.9-1.1 1.7-1.5 3.8-1.1 5.9m-9.2 5.1c-.1 2.2.2 4-1 5.8-1.8 2-6 2.2-6 2.2 1.3-1.6 1.9-3.7 1.7-5.7.1-2.2-.2-4 1-5.8 1.7-2 6-2.2 6-2.2-1.4 1.6-2 3.6-1.7 5.7m-9.8 4c-.3 2.1-.2 4-1.6 5.7-1.9 1.8-6.2 1.6-6.2 1.6 1.5-1.5 2.3-3.4 2.2-5.5.3-2.1.2-4 1.7-5.7 1.9-1.8 6.2-1.6 6.2-1.6-1.4 1.5-2.3 3.4-2.3 5.5m-10.1 3c-.6 2.1-.6 4-2.2 5.5-2.1 1.6-6.3.9-6.3.9 1.6-1.3 2.6-3.2 2.8-5.2.6-2.1.7-4 2.2-5.5 2.1-1.6 6.3-1 6.3-1-1.5 1.3-2.6 3.2-2.8 5.3m-10.3 2c-.8 2-1 3.9-2.8 5.2-2.3 1.4-6.4.3-6.4.3 1.7-1.1 2.9-2.9 3.3-4.9.8-2 1.1-3.9 2.8-5.2 2.3-1.4 6.3-.3 6.3-.3-1.6 1.1-2.8 2.9-3.2 4.9m-10.6.8c-1 1.9-1.4 3.8-3.3 4.9-2.4 1.1-6.3-.4-6.3-.4 1.8-.9 3.2-2.6 3.8-4.5 1-1.9 1.5-3.8 3.3-4.9 2.4-1.1 6.4.4 6.4.4-1.8.9-3.2 2.6-3.9 4.5"/><path class="st4" d="M0 0h212.2v212.2H0z"/><path class="st3" d="M98.4 206.6c-1.2 1.8-1.8 3.6-3.8 4.6-2.5.9-6.3-1-6.3-1 1.9-.8 3.5-2.2 4.3-4.1 1.2-1.8 1.8-3.6 3.8-4.5 2.5-.9 6.3 1 6.3 1-1.9.6-3.5 2.1-4.3 4m-10.5-1.4c-1.4 1.7-2.2 3.4-4.3 4.1-2.6.6-6.1-1.7-6.1-1.7 2-.5 3.7-1.9 4.7-3.6 1.4-1.7 2.2-3.4 4.3-4.1 2.6-.6 6.1 1.7 6.1 1.7-1.9.5-3.6 1.8-4.7 3.6m-10.2-2.4c-1.5 1.5-2.5 3.1-4.7 3.7-2.7.3-5.9-2.3-5.9-2.3 2-.3 3.8-1.5 5-3.1 1.5-1.5 2.6-3.1 4.7-3.6 2.7-.3 5.9 2.3 5.9 2.3-2 .2-3.9 1.3-5 3m-10-3.5c-1.7 1.4-2.8 2.9-5 3.1-2.7 0-5.6-2.9-5.6-2.9 2.1-.1 4-1 5.3-2.6 1.7-1.4 2.9-2.8 5-3.1 2.7 0 5.6 2.9 5.6 2.9-2 .1-3.9 1-5.3 2.6m-9.5-4.5c-1.8 1.2-3.1 2.5-5.3 2.6-2.7-.2-5.3-3.5-5.3-3.5 2.1.1 4.1-.6 5.6-2 1.8-1.2 3.2-2.5 5.3-2.6 2.7.2 5.3 3.5 5.3 3.5-2.1-.1-4.1.6-5.6 2m-9-5.5c-1.9 1-3.4 2.2-5.6 2.1-2.6-.5-4.9-4-4.9-4 2 .3 4.1-.2 5.8-1.4 1.9-1 3.4-2.2 5.6-2 2.6.5 4.9 4 4.9 4-2.1-.4-4.1.1-5.8 1.3m-8.4-6.4c-2 .8-3.6 1.8-5.7 1.4-2.6-.8-4.5-4.5-4.5-4.5 2 .5 4.1.2 5.9-.8 2-.8 3.6-1.8 5.8-1.4 2.5.8 4.5 4.5 4.5 4.5-2.1-.5-4.2-.3-6 .8m-7.7-7.3c-2.1.6-3.8 1.4-5.9.8-2.5-1-4-5-4-5 1.9.7 4.1.7 5.9-.2 2.1-.6 3.8-1.4 5.9-.8 2.5 1 4 5 4 5-1.8-.7-4-.6-5.9.2m-6.8-8c-2.1.4-3.9 1.1-5.9.2-2.3-1.3-3.4-5.4-3.4-5.4 1.8.9 4 1.1 5.9.4 2.1-.4 3.9-1 5.9-.2 2.3 1.3 3.4 5.4 3.4 5.4-1.8-.9-4-1-5.9-.4m-6-8.7c-2.1.1-4 .6-5.9-.4-2.2-1.5-2.9-5.7-2.9-5.7 1.7 1.1 3.8 1.5 5.9 1.1 2.2-.1 4-.6 5.9.4 2.2 1.5 2.9 5.7 2.9 5.7-1.8-1.1-3.9-1.5-5.9-1.1m-5.1-9.2c-2.2-.1-4 .2-5.8-1-2-1.8-2.2-5.9-2.2-5.9 1.6 1.3 3.7 1.9 5.7 1.7 2.2.1 4-.2 5.8 1 2 1.7 2.2 6 2.2 6-1.6-1.4-3.6-2-5.7-1.8m-4-9.8c-2.1-.3-4-.2-5.7-1.6-1.8-1.9-1.6-6.1-1.6-6.1 1.5 1.4 3.4 2.3 5.5 2.2 2.1.3 4 .2 5.7 1.6 1.8 2 1.6 6.1 1.6 6.1-1.5-1.3-3.5-2.2-5.5-2.2m-3.1-10.1c-2.1-.6-4-.6-5.5-2.2-1.6-2.1-1-6.3-1-6.3 1.3 1.6 3.2 2.6 5.2 2.8 2.1.6 4 .7 5.5 2.2 1.6 2.1 1 6.3 1 6.3-1.2-1.5-3.1-2.5-5.2-2.8m-1.9-10.3c-2-.8-3.9-1-5.2-2.8-1.4-2.3-.3-6.4-.3-6.4 1.1 1.7 2.9 2.9 4.9 3.3 2 .8 3.9 1.1 5.2 2.8 1.4 2.3.3 6.3.3 6.3-1.1-1.6-2.9-2.8-4.9-3.2"/><path class="st4" d="M0 0h212.2v212.2H0z"/><path class="st2" d="M88.2 37.7c5.7-1.5 11.6-2.3 17.5-2.3l-3 43.7-.7.1-13.8-41.5zm-17.1 7c5.1-2.9 10.6-5.2 16.3-6.8l8.4 43-.6.3-24.1-36.5zM56.4 55.8c4.2-4.2 8.9-7.8 14-10.8l19.3 39.4-.6.4-32.7-29zM45 70.3c3-5.1 6.6-9.8 10.8-14l28.8 33-.4.6L45 70.3zm-7.1 17c1.6-5.7 3.8-11.2 6.8-16.3L81 95.5l-.2.7-42.9-8.9zm-2.5 18.3c0-5.9.8-11.8 2.3-17.5l41.5 14.2-.1.7-43.7 2.6zm2.2 18.4c-1.5-5.7-2.3-11.6-2.3-17.5l43.8 3 .1.7L37.6 124zm7 17.1c-2.9-5.1-5.2-10.6-6.8-16.3l43.1-8.5.3.7-36.6 24.1zm11.2 14.7c-4.2-4.2-7.8-8.9-10.8-14l39.4-19.3.4.6-29 32.7zm14.6 11.3c-5.1-3-9.8-6.6-14-10.8l33.1-28.9.5.6-19.6 39.1zm17 7.2c-5.7-1.6-11.2-3.8-16.3-6.8L95.6 131l.7.3-8.9 43zm18.3 2.5c-5.9 0-11.8-.8-17.5-2.3l14.3-41.5.7.1 2.5 43.7zm18.3-2.3c-5.7 1.5-11.6 2.3-17.5 2.3l3-43.8.7-.1 13.8 41.6zm17.1-7c-5.1 2.9-10.6 5.2-16.3 6.8l-8.4-43.1.7-.3 24 36.6zm14.7-11.2c-4.2 4.2-8.9 7.8-14 10.8l-19.3-39.4.6-.4 32.7 29zm11.3-14.6c-3 5.1-6.6 9.8-10.7 14l-28.8-33.1.4-.6 39.1 19.7zm7.2-17c-1.5 5.7-3.8 11.2-6.7 16.3l-36.4-24.5.3-.7 42.8 8.9zm2.5-18.3c0 5.9-.8 11.8-2.2 17.5L133 109.7l.1-.7 43.7-2.6zm-2.3-18.3c1.5 5.7 2.3 11.6 2.3 17.5l-43.7-3-.1-.7 41.5-13.8zm-7-17c2.9 5.1 5.2 10.6 6.8 16.3l-43 8.4-.3-.7 36.5-24zm-11.1-14.8c4.1 4.2 7.8 8.9 10.7 14l-39.3 19.2-.4-.6 29-32.6zM141.8 45c5.1 3 9.8 6.6 14 10.7l-33 28.8-.6-.4L141.8 45zm-17-7.2c5.7 1.6 11.2 3.8 16.3 6.7l-24.5 36.4-.7-.3 8.9-42.8zm-18.3-2.5c5.9 0 11.8.8 17.5 2.3L109.8 79l-.7-.1-2.6-43.6z"/></svg>