<svg xmlns="http://www.w3.org/2000/svg" viewBox="0 0 167.49 167.49"><defs><mask id="a" x="0" y="0" width="167.49" height="167.49" maskUnits="userSpaceOnUse"><g data-name="spotify logo rgb green-b"><path data-name="spotify logo rgb green-a" fill="#fff" d="M167.49 167.43H0V0h167.49v167.43z"/></g></mask></defs><g data-name="Layer 2"><g mask="url(#a)" data-name="Layer 1"><path d="M133.28 74.24c-27-16-71.52-17.5-97.29-9.68a7.83 7.83 0 11-4.55-15c29.59-9 78.76-7.25 109.83 11.2a7.83 7.83 0 11-8 13.47zM132.4 98a6.53 6.53 0 01-9 2.15C100.91 86.3 66.59 82.29 40 90.38a6.53 6.53 0 11-3.8-12.5c30.39-9.23 68.2-4.76 94.05 11.12a6.53 6.53 0 012.15 9zm-10.25 22.81a5.22 5.22 0 01-7.18 1.73c-19.66-12-44.41-14.73-73.57-8.07a5.22 5.22 0 01-2.32-10.17c31.9-7.3 59.26-4.16 81.34 9.33a5.23 5.23 0 011.73 7.16zM83.74 0a83.75 83.75 0 1083.75 83.74A83.74 83.74 0 0083.74 0z" fill="#1ed760"/></g></g></svg>