<svg xmlns="http://www.w3.org/2000/svg" viewBox="0 0 69.25 80.52"><path d="M69.25,77.18v.45c0,.77-.72,1.37-2.18,1.79a34.44,34.44,0,0,1-4.92,1c-1.84.25-3.67.44-5.51.57a30.62,30.62,0,0,0-3.9.45c-.6,5-1.22,9.22-1.86,12.54A16.61,16.61,0,0,1,47.36,102,14,14,0,0,1,40,106.11a57.91,57.91,0,0,1-13.5,1.22,21.5,21.5,0,0,1-6.72-1.16,21.42,21.42,0,0,1-6.47-3.39,19.48,19.48,0,0,1-4.93-5.57,14.69,14.69,0,0,1-2-7.68,4.85,4.85,0,0,1,.83-3.07,2.62,2.62,0,0,1,2.11-1,5.15,5.15,0,0,1,4.93,2.69,15.94,15.94,0,0,1,1.86,5.37,12.64,12.64,0,0,0,1.09,3.59,10.55,10.55,0,0,0,2.3,3.2,10.82,10.82,0,0,0,3.65,2.24,14.83,14.83,0,0,0,5.25.83A7.33,7.33,0,0,0,34,101a18.2,18.2,0,0,0,3.59-5.63,29,29,0,0,0,1.86-6.66,38.39,38.39,0,0,0,.51-5.44V82a7,7,0,0,0-.13-1.28c0-.17-.64-.38-1.92-.64s-2.69-.49-4.22-.7-3-.39-4.29-.51-2.07-.2-2.24-.2a5.27,5.27,0,0,0-2.76.64,1.91,1.91,0,0,1-1.34.52c-.6,0-.9-.39-.9-1.16A4.85,4.85,0,0,1,25,73.85a15.88,15.88,0,0,1,6.73-1.34h9.34c.26,0,.4-.66.45-2s.1-3,.19-5.12.21-4.42.38-7a77.23,77.23,0,0,1,.9-7.68,46,46,0,0,1,1.79-7.23,14.7,14.7,0,0,1,3.07-5.44q-2.68-.51-6.91-1.16c-2.81-.42-5.87-.81-9.15-1.15s-6.64-.64-10-.89-6.61-.39-9.6-.39c-.51,0-1.22,0-2.11.13a7.79,7.79,0,0,0-2.56.7A6.06,6.06,0,0,0,5.38,37a4.79,4.79,0,0,0-.9,3.13A6.07,6.07,0,0,0,6.66,44.6q2.17,2.05,4.8,4.23a36.28,36.28,0,0,1,4.8,4.8,9.78,9.78,0,0,1,2.17,6.46,6.25,6.25,0,0,1-.7,2.82,2.55,2.55,0,0,1-2.5,1.41c-1.36,0-2.92-.86-4.67-2.56a35.34,35.34,0,0,1-5-6.27,45.16,45.16,0,0,1-4-7.81A20.35,20.35,0,0,1,0,40.38,11.89,11.89,0,0,1,1.54,34q1.53-2.49,6.84-4t15.62-2q10.31-.51,27.84-.51a33.76,33.76,0,0,0,5.83-.38,17.32,17.32,0,0,1,2.62-.39q.65,0,2,1.92a51.07,51.07,0,0,1,3.52,6.4q0,.65-1.53,1a9.15,9.15,0,0,0-3.33,1.6,12.88,12.88,0,0,0-4.48,5.89,40.62,40.62,0,0,0-2.5,8.9,79.24,79.24,0,0,0-1,10.17q-.2,5.25-.19,9.86c0,.17.77.28,2.3.32s3.27.17,5.19.38a34.62,34.62,0,0,1,5.56,1.09q2.7.77,3.33,2.31A1.2,1.2,0,0,1,69.25,77.18Z" transform="translate(0 -26.81)"/></svg>