<svg xmlns="http://www.w3.org/2000/svg" viewBox="0 0 400 400"><g data-name="Layer 2"><rect width="400" height="400" rx="50" data-name="Dark Blue"/><path d="M153.62 301.59c94.35 0 145.94-78.16 145.94-145.94q0-3.33-.15-6.63A104.36 104.36 0 00325 122.47a102.42 102.42 0 01-29.46 8.07 51.52 51.52 0 0022.56-28.37 102.91 102.91 0 01-32.57 12.45 51.34 51.34 0 00-87.41 46.77A145.62 145.62 0 0192.4 107.81a51.31 51.31 0 0015.88 68.47 50.87 50.87 0 01-23.23-6.42v.66a51.31 51.31 0 0041.15 50.28 51.42 51.42 0 01-23.17.88 51.34 51.34 0 0047.92 35.62 102.91 102.91 0 01-63.7 22 105.19 105.19 0 01-12.25-.75 145.17 145.17 0 0078.62 23" fill="#fff" data-name="Logo — FIXED"/></g></svg>