<svg xmlns="http://www.w3.org/2000/svg" viewBox="0 0 302.34 86.19"><defs><clipPath id="a" transform="translate(-.14 .48)"><path fill="none" d="M.04-.67h303v87H.04z"/></clipPath></defs><g clip-path="url(#a)"><path d="M5.79 10.1a11 11 0 0 1-1.68-.06c-.15 0-.32 0-.48-.07s-.24.16-.36.37a12.3 12.3 0 0 0-.64 1.89c0 .24 0 .48.19.48s.27-.1.43-.38a3.8 3.8 0 0 1 .76-1.07c.34-.33.72-.39 1.47-.43h3c.08 0 .08.17 0 .25-.32.37-5.51 6.2-7.66 8.33-.24.22-.13.54 0 .54.35 0 1.27-.1 2.23-.1.73 0 4.35.1 5 .1a3 3 0 0 0 1-.14 1.7 1.7 0 0 0 .46-.64 7.2 7.2 0 0 0 .65-1.75c0-.19 0-.4-.19-.4s-.28.1-.51.48a4.34 4.34 0 0 1-1.3 1.46 4.2 4.2 0 0 1-1.85.31c-.5 0-2.89-.16-3.14-.23s-.1-.12 0-.19c1.36-1.49 4.8-5.35 5.92-6.51s1.61-1.65 1.77-1.76a.74.74 0 0 0 .2-.43c0-.11-.16-.19-.28-.19s-3.44.14-5 .14m5.53 11.99c0 .11.15.18.38.18s.9-.06 1.62-.06h1.06c.22 0 .33-.1.33-.18s-.11-.19-.27-.22c-.73-.16-.86-.22-.67-1 .1-.46.71-2.71.91-3.46.27-1 .47-1.57.52-1.76a.15.15 0 0 0-.13-.11 1 1 0 0 0-.25.08 11 11 0 0 1-1.58.37c-.14 0-.3.12-.3.24s.19.17.3.18.46 0 .67 0c.05 0 .08.15.05.22-.05.26-.11.53-.5 2-.31 1.19-.5 1.74-.72 2.44-.15.51-.36.68-1 .79-.25 0-.46.1-.46.26"/><path fill="#003c71" d="M33.86 5a5 5 0 0 1-.74 2.14c-.22.34-.83 1-1.2 1-.14 0-.31-.2-.4-.38a.42.42 0 0 1-.03-.28c.11-.54.51-2.14.68-2.89a.5.5 0 0 1 .18-.27 4 4 0 0 1 .87-.11.73.73 0 0 1 .66.76m.89.08a1.21 1.21 0 0 0-1.36-1.35c-.15 0-.59.07-1 .11 0 0-.09-.07-.09-.11a3.4 3.4 0 0 0 .12-.62c0-.14-.32-.34-.39-.34a.6.6 0 0 0-.28.17 3.2 3.2 0 0 0-.32 1s0 .07-.15.12-.7.27-.8.36a.9.9 0 0 0-.2.37.16.16 0 0 0 .18.09c.19-.08.56-.19.72-.24s.08.08.08.11c-.3 1.3-1 4.52-1.28 5.27-.12.35-.2.45-.8.56a.41.41 0 0 0-.29.31c0 .08.1.16.34.16h.89c.56 0 1.16.07 1.19.07.27 0 .42-.12.42-.24s-.19-.19-.31-.22c-.55-.14-.58-.28-.51-.67.09-.55.2-.93.32-1.46 0 0 .09-.09.12-.08a1.7 1.7 0 0 0 .56.15 2.8 2.8 0 0 0 1.31-.68 4.45 4.45 0 0 0 1.53-2.81Zm4.57 6.11.24-.3a6.6 6.6 0 0 1-2.21-5.28A6.63 6.63 0 0 1 39.58.3l-.24-.3a6.54 6.54 0 0 0-3 5.58 6.51 6.51 0 0 0 3 5.58m3.52-7.43a1.9 1.9 0 0 0-1.16.51 1.58 1.58 0 0 0-.58 1.13c0 .27.13.39.23.39a1.15 1.15 0 0 0 .51-.28c0-.05.1-.15.09-.18a3 3 0 0 1-.08-.5.38.38 0 0 1 .37-.39 3.8 3.8 0 0 1 .94.22 6 6 0 0 0 .79.18s0 .1 0 .13a32 32 0 0 0-2.5 2.24c-.54.57-.74.94-.74 1.1s.11.37.24.37a.41.41 0 0 0 .26-.23c.14-.25.39-.57.65-.57s.39.06.82.38.7.58 1.06.58a1.73 1.73 0 0 0 1-.51 1.42 1.42 0 0 0 .6-1c0-.3-.12-.64-.56-.64a.19.19 0 0 0-.13.19 1.9 1.9 0 0 1 .08.52c0 .55-.33.68-.47.68a1.2 1.2 0 0 1-.7-.27 2.4 2.4 0 0 0-1.35-.53.07.07 0 0 1-.06-.09c.23-.27 2.61-2.32 3.27-2.85.13-.11.26-.26.26-.38a.46.46 0 0 0-.22-.29.37.37 0 0 0-.24.14 1.6 1.6 0 0 1-.67.45 2.1 2.1 0 0 1-.63-.17 4.1 4.1 0 0 0-1.08-.33m5.2 1.48a1.92 1.92 0 0 0-1.59 1c0 .1-.06.27.07.27a.3.3 0 0 0 .17-.12 1.75 1.75 0 0 1 1.15-.61.72.72 0 0 1 .72.78c0 .59-.48 1.06-1 1.55s-1.25 1.16-1.83 1.63a.22.22 0 0 0-.07.19.27.27 0 0 0 .21.11h2.47a.8.8 0 0 0 .27-.12 3.1 3.1 0 0 0 .48-.84c0-.09.06-.29-.05-.29s-.13.06-.22.17a1.25 1.25 0 0 1-.59.43H46.7s-.07 0 0-.07c.71-.61 1.44-1.24 1.84-1.6a1.93 1.93 0 0 0 .79-1.36 1.16 1.16 0 0 0-1.27-1.12M51.94 0h-.54v11.14h.54V.02m3.35 3.71a1.9 1.9 0 0 0-1.16.51 1.58 1.58 0 0 0-.58 1.13c0 .27.13.39.23.39a1.15 1.15 0 0 0 .52-.3c0-.05.1-.15.09-.18a3 3 0 0 1-.08-.5.38.38 0 0 1 .37-.39 3.8 3.8 0 0 1 .94.22 6 6 0 0 0 .79.18s0 .1 0 .13a32 32 0 0 0-2.55 2.24c-.54.57-.74.94-.74 1.1s.11.37.24.37a.41.41 0 0 0 .26-.23c.14-.25.39-.57.65-.57s.39.06.82.38.7.58 1.06.58a1.73 1.73 0 0 0 1-.51 1.42 1.42 0 0 0 .6-1c0-.3-.12-.64-.56-.64a.19.19 0 0 0-.13.19 1.9 1.9 0 0 1 .08.52c0 .55-.33.68-.47.68a1.2 1.2 0 0 1-.7-.27 2.4 2.4 0 0 0-1.35-.53.07.07 0 0 1-.06-.09c.3-.25 2.63-2.3 3.3-2.83.13-.11.26-.26.26-.38a.46.46 0 0 0-.26-.29.37.37 0 0 0-.24.14 1.6 1.6 0 0 1-.67.45 2.1 2.1 0 0 1-.63-.17 4.1 4.1 0 0 0-1.06-.33m3.2 6.2c0 .08.11.12.27.12h1.91c.3 0 .24-.07.24-.13s-.08-.14-.19-.16c-.53-.11-.62-.15-.48-.7.07-.33.5-1.93.64-2.47.19-.71.34-1.11.38-1.25a.11.11 0 0 0-.1-.11.7.7 0 0 0-.17.06 8 8 0 0 1-1.1.26c-.1 0-.22.08-.22.16s.14.12.22.13h.48v.15c0 .05-.08.38-.35 1.42-.23.85-.36 1.24-.52 1.74s-.25.48-.68.56c-.18 0-.33.08-.33.19m5.49 1.26a6.54 6.54 0 0 0 3-5.58 6.56 6.56 0 0 0-3-5.58l-.26.3a6.6 6.6 0 0 1 2.22 5.28 6.58 6.58 0 0 1-2.22 5.28z"/><path d="M37.02 15.4H26.41a.36.36 0 0 0-.36.36.38.38 0 0 0 .36.37h10.61a.37.37 0 0 0 .36-.37.35.35 0 0 0-.36-.36"/><path d="M44.22 15.4H33.61a.36.36 0 0 0-.36.36.38.38 0 0 0 .36.37h10.61a.37.37 0 0 0 .36-.37.35.35 0 0 0-.36-.36"/><path d="M54.32 15.4H43.71a.36.36 0 0 0-.36.36.38.38 0 0 0 .36.37h10.61a.37.37 0 0 0 .36-.37.35.35 0 0 0-.36-.36"/><path d="M64.42 15.4H53.86a.36.36 0 0 0-.36.36.38.38 0 0 0 .36.37h10.56a.37.37 0 0 0 .36-.37.35.35 0 0 0-.36-.36"/><path d="M67.86 13.48c0 .37 1.07 1.15 1.83 1.93h-8.68a.36.36 0 0 0-.36.36.38.38 0 0 0 .36.37h8.65c-.73.73-1.83 1.52-1.83 1.9a.36.36 0 0 0 .37.37.38.38 0 0 0 .29-.14 5.68 5.68 0 0 1 3.19-2.15.36.36 0 0 0 0-.71 5.73 5.73 0 0 1-3.19-2.15.35.35 0 0 0-.29-.14.36.36 0 0 0-.34.36m22.4 1.57a1 1 0 0 0-1 1 1 1 0 1 0 2 0 1.07 1.07 0 0 0-1-1m-3.79 0a1 1 0 0 0-1 1 1 1 0 0 0 1 1 1 1 0 0 0 1-1 1 1 0 0 0-1-1m-3.75 0a1 1 0 0 0-1 1 1 1 0 0 0 1 1 1 1 0 0 0 1-1 1 1 0 0 0-1-1"/><path fill="#003c71" d="M108.68 5a5 5 0 0 1-.74 2.14c-.22.34-.83 1-1.2 1-.14 0-.31-.2-.4-.38a.4.4 0 0 1 0-.22c.11-.54.51-2.14.68-2.89a.5.5 0 0 1 .18-.27 4 4 0 0 1 .87-.11.73.73 0 0 1 .66.76m.89.08a1.21 1.21 0 0 0-1.36-1.35c-.14 0-.59.07-1 .11 0 0-.09-.07-.09-.11a3.4 3.4 0 0 0 .12-.62c0-.14-.32-.34-.39-.34a.6.6 0 0 0-.28.17 3.2 3.2 0 0 0-.32 1s0 .07-.15.12-.7.27-.8.36a.9.9 0 0 0-.2.37.16.16 0 0 0 .18.09c.19-.08.56-.19.72-.24s.08.08.08.11c-.3 1.3-1 4.52-1.28 5.27-.12.35-.2.45-.8.56a.41.41 0 0 0-.29.31c0 .08.1.16.34.16h.89c.56 0 1.16.07 1.19.07.27 0 .42-.12.42-.24s-.19-.19-.31-.22c-.55-.14-.58-.28-.51-.67.09-.55.2-.93.32-1.46 0 0 .09-.09.12-.08a1.7 1.7 0 0 0 .56.15 2.85 2.85 0 0 0 1.31-.68 4.45 4.45 0 0 0 1.48-2.87Zm4.62 6.05.24-.3a6.6 6.6 0 0 1-2.21-5.28A6.63 6.63 0 0 1 114.48.3l-.24-.3a6.54 6.54 0 0 0-3 5.58 6.51 6.51 0 0 0 3 5.58m3.45-7.43a1.9 1.9 0 0 0-1.16.51 1.58 1.58 0 0 0-.58 1.13c0 .27.13.39.23.39a1.15 1.15 0 0 0 .52-.3c0-.05.1-.15.09-.18a3 3 0 0 1-.08-.5.38.38 0 0 1 .37-.39 3.8 3.8 0 0 1 .94.22 6 6 0 0 0 .79.18s0 .1 0 .13a32 32 0 0 0-2.5 2.24c-.54.57-.74.94-.74 1.1s.11.37.24.37a.39.39 0 0 0 .26-.23c.14-.25.39-.57.65-.57s.39.06.82.38.7.58 1.06.58a1.73 1.73 0 0 0 1-.51 1.42 1.42 0 0 0 .6-1c0-.3-.12-.64-.56-.64a.19.19 0 0 0-.13.19 1.9 1.9 0 0 1 .08.52c0 .55-.33.68-.47.68a1.2 1.2 0 0 1-.7-.27 2.4 2.4 0 0 0-1.35-.53.07.07 0 0 1-.06-.09c.24-.27 2.61-2.32 3.27-2.85a.62.62 0 0 0 .25-.38.44.44 0 0 0-.21-.29.37.37 0 0 0-.24.14 1.6 1.6 0 0 1-.67.45 2.1 2.1 0 0 1-.63-.17 4.1 4.1 0 0 0-1.06-.33m4.65 2.2a.35.35 0 0 0-.27.21c-.06.13-.23.5-.28.58a.18.18 0 0 1-.09.08h-.53a.38.38 0 0 0-.15.27c0 .07 0 .1.07.11h.52v.07c-.16.47-.54 1.84-.63 2.19a2.4 2.4 0 0 0-.07.38c0 .06.1.31.3.31a2.55 2.55 0 0 0 1.24-.86.42.42 0 0 0 .1-.28s-.09-.14-.12-.11a2 2 0 0 1-.74.49c-.07 0-.09-.07 0-.34.23-.85.46-1.62.52-1.78a.12.12 0 0 1 .09-.08h.77s.17-.26.17-.32 0-.09-.06-.09h-.76a.08.08 0 0 1-.07-.07 6 6 0 0 0 .2-.74s-.12-.07-.23-.07m1.43 2.17a.3.3 0 0 0-.11.08.57.57 0 0 0-.1.28.15.15 0 0 0 .14.15c.35 0 1.05 0 1.57-.08l.12-.09a.8.8 0 0 0 .08-.32s-.05-.16-.1-.16c-.21 0-1.42.11-1.6.14m1.68 1.9c0 .08.11.12.27.12h1.91c.3 0 .24-.07.24-.13s-.08-.14-.19-.16c-.53-.11-.62-.15-.48-.7.07-.33.5-1.93.64-2.47.19-.71.34-1.11.38-1.25a.11.11 0 0 0-.1-.11.7.7 0 0 0-.17.06 8 8 0 0 1-1.13.27c-.1 0-.22.08-.22.16s.14.12.22.13.32 0 .47 0 .06.1 0 .15-.08.38-.35 1.42c-.23.85-.36 1.24-.52 1.74s-.25.48-.68.56c-.18 0-.33.08-.33.19M131.34 0h-.54v11.14h.54V.02m3.35 3.71a1.9 1.9 0 0 0-1.16.51 1.58 1.58 0 0 0-.58 1.13c0 .27.13.39.23.39a1.15 1.15 0 0 0 .52-.3c0-.05.1-.15.09-.18a3 3 0 0 1-.08-.5.38.38 0 0 1 .37-.39 3.8 3.8 0 0 1 .94.22 6 6 0 0 0 .79.18s0 .1 0 .13a32 32 0 0 0-2.5 2.24c-.54.57-.74.94-.74 1.1s.11.37.24.37a.41.41 0 0 0 .26-.23c.14-.25.39-.57.65-.57s.39.06.82.38.7.58 1.06.58a1.73 1.73 0 0 0 1-.51 1.42 1.42 0 0 0 .6-1c0-.3-.12-.64-.56-.64a.19.19 0 0 0-.13.19 1.9 1.9 0 0 1 .08.52c0 .55-.33.68-.47.68a1.2 1.2 0 0 1-.7-.27 2.4 2.4 0 0 0-1.35-.53.07.07 0 0 1-.06-.09c.23-.27 2.61-2.32 3.27-2.85.13-.11.26-.26.26-.38a.46.46 0 0 0-.22-.29.37.37 0 0 0-.24.14 1.6 1.6 0 0 1-.67.45 2.1 2.1 0 0 1-.63-.17 4.1 4.1 0 0 0-1.06-.33m4.65 2.2a.35.35 0 0 0-.27.21c-.06.13-.23.5-.28.58a.18.18 0 0 1-.09.08h-.53a.38.38 0 0 0-.15.27c0 .07 0 .1.07.11h.52v.07c-.15.47-.53 1.84-.62 2.19a2.4 2.4 0 0 0-.07.38c0 .06.1.31.3.31a2.6 2.6 0 0 0 1.24-.86.42.42 0 0 0 .1-.28s-.09-.14-.12-.11a2 2 0 0 1-.74.49c-.07 0-.09-.07 0-.34.23-.85.46-1.62.52-1.78a.12.12 0 0 1 .09-.08h.77s.17-.26.17-.32 0-.09-.06-.09h-.76a.08.08 0 0 1-.07-.07 6 6 0 0 0 .2-.74s-.12-.07-.23-.07m1.32 2.17a.3.3 0 0 0-.11.08.57.57 0 0 0-.1.28.15.15 0 0 0 .13.15c.36 0 1.06 0 1.58-.08l.13-.09a1 1 0 0 0 .07-.32s-.05-.16-.1-.16c-.21 0-1.42.11-1.6.14m4.18-2.82a1.93 1.93 0 0 0-1.6 1c0 .1-.06.27.07.27a.3.3 0 0 0 .17-.12 1.75 1.75 0 0 1 1.1-.62.72.72 0 0 1 .72.78c0 .59-.48 1.06-1 1.55s-1.25 1.16-1.83 1.63a.22.22 0 0 0-.07.19.27.27 0 0 0 .21.11h2.47a.8.8 0 0 0 .27-.12 3.1 3.1 0 0 0 .49-.8c0-.09.06-.29 0-.29s-.13.06-.22.17a1.25 1.25 0 0 1-.59.43h-1.55s-.07 0 0-.07c.71-.61 1.45-1.24 1.84-1.6a1.93 1.93 0 0 0 .79-1.36 1.16 1.16 0 0 0-1.27-1.15m3.39 5.95a6.54 6.54 0 0 0 3-5.58 6.56 6.56 0 0 0-3-5.58l-.26.3a6.6 6.6 0 0 1 2.22 5.28 6.58 6.58 0 0 1-2.22 5.28z"/><path d="M112.12 15.4h-10.61a.36.36 0 0 0-.36.36.38.38 0 0 0 .36.37h10.61a.37.37 0 0 0 .36-.37.35.35 0 0 0-.36-.36"/><path d="M118.72 15.4h-10.61a.36.36 0 0 0-.36.36.38.38 0 0 0 .36.37h10.61a.37.37 0 0 0 .36-.37.35.35 0 0 0-.36-.36"/><path d="M128.86 15.4h-10.6a.36.36 0 0 0-.37.36.38.38 0 0 0 .37.37h10.6a.37.37 0 0 0 .36-.37.35.35 0 0 0-.36-.36"/><path d="M139.02 15.4h-10.61a.36.36 0 0 0-.36.36.38.38 0 0 0 .36.37h10.61a.37.37 0 0 0 .36-.37.35.35 0 0 0-.36-.36"/><path d="M149.12 15.4h-10.61a.36.36 0 0 0-.36.36.38.38 0 0 0 .36.37h10.61a.37.37 0 0 0 .36-.37.35.35 0 0 0-.36-.36"/><path d="M151.93 13.48c0 .37 1.07 1.15 1.83 1.93h-8.64a.36.36 0 0 0-.37.36.38.38 0 0 0 .37.37h8.64c-.73.73-1.83 1.52-1.83 1.9a.36.36 0 0 0 .37.37.38.38 0 0 0 .29-.14 5.68 5.68 0 0 1 3.19-2.15.36.36 0 0 0 0-.71 5.73 5.73 0 0 1-3.19-2.15.35.35 0 0 0-.29-.14.36.36 0 0 0-.37.36m18.56-3.38a11 11 0 0 1-1.63-.06c-.15 0-.32 0-.48-.07s-.24.16-.36.37a12.3 12.3 0 0 0-.64 1.89c0 .24 0 .48.19.48s.27-.1.43-.38a3.8 3.8 0 0 1 .76-1.07c.34-.33.72-.39 1.47-.43h3c.08 0 .08.17 0 .25-.32.37-5.51 6.2-7.66 8.33-.24.22-.13.54 0 .54.35 0 1.27-.1 2.23-.1.73 0 4.35.1 5 .1a3 3 0 0 0 1-.14 1.7 1.7 0 0 0 .46-.64 7.6 7.6 0 0 0 .65-1.75c0-.19 0-.4-.19-.4s-.29.1-.51.48a4.34 4.34 0 0 1-1.3 1.46 4.15 4.15 0 0 1-1.84.31c-.51 0-2.9-.16-3.15-.23-.1 0-.1-.12 0-.19 1.36-1.49 4.8-5.35 5.93-6.51s1.58-1.61 1.7-1.72a.74.74 0 0 0 .2-.43c0-.11-.16-.19-.28-.19s-3.44.14-5 .14m7.76 6.34a.44.44 0 0 0-.38.29c-.09.18-.32.7-.39.81a.23.23 0 0 1-.13.11h-.75a.5.5 0 0 0-.2.36c0 .1 0 .15.09.16h.73v.1c-.22.66-.75 2.58-.89 3.07a4 4 0 0 0-.09.54c0 .08.14.43.43.43a3.7 3.7 0 0 0 1.74-1.2.67.67 0 0 0 .13-.4c0-.07-.12-.19-.16-.16a2.85 2.85 0 0 1-1 .69c-.1 0-.14-.1 0-.48.33-1.18.64-2.26.73-2.5a.2.2 0 0 1 .13-.11h1.08a1 1 0 0 0 .23-.44c0-.07 0-.14-.08-.14h-1.06a.09.09 0 0 1-.1-.1 7 7 0 0 0 .28-1s-.17-.1-.32-.1m1.77 3.01a.7.7 0 0 0-.17.12.9.9 0 0 0-.13.4.21.21 0 0 0 .19.21c.5 0 1.48-.07 2.21-.11a1 1 0 0 0 .18-.14 1.2 1.2 0 0 0 .11-.44c0-.05-.08-.22-.15-.22-.29 0-2 .14-2.24.18m2.39 2.67c0 .11.16.18.38.18s.9-.06 1.62-.06h1.06c.22 0 .33-.1.33-.18s-.11-.19-.27-.22c-.73-.16-.86-.22-.67-1 .1-.46.71-2.71.91-3.46.27-1 .47-1.57.52-1.76a.15.15 0 0 0-.13-.15 1 1 0 0 0-.25.08 11 11 0 0 1-1.58.37c-.14 0-.3.12-.3.24s.19.17.3.18.46 0 .67 0c.05 0 .08.15.05.22-.05.26-.11.53-.5 2-.31 1.19-.5 1.74-.72 2.44-.15.51-.36.68-1 .79-.25 0-.46.1-.46.26"/><path fill="#003c71" d="M204.78 5a5 5 0 0 1-.74 2.14c-.22.34-.83 1-1.2 1-.14 0-.31-.2-.4-.38a.4.4 0 0 1-.05-.22c.11-.54.51-2.14.68-2.89a.5.5 0 0 1 .18-.27 4 4 0 0 1 .87-.11.73.73 0 0 1 .66.76m.89.08a1.21 1.21 0 0 0-1.36-1.35c-.15 0-.59.07-1 .11 0 0-.09-.07-.09-.11a3.4 3.4 0 0 0 .12-.62c0-.14-.32-.34-.39-.34a.6.6 0 0 0-.28.17 3.2 3.2 0 0 0-.32 1s0 .07-.15.12-.7.27-.8.36a.9.9 0 0 0-.2.37.16.16 0 0 0 .18.09c.19-.08.56-.19.71-.24s.09.08.09.11c-.3 1.3-1 4.52-1.28 5.27-.12.35-.2.45-.8.56a.41.41 0 0 0-.29.31c0 .08.1.16.34.16h.89c.56 0 1.16.07 1.19.07.27 0 .42-.12.42-.24s-.19-.19-.31-.22c-.55-.14-.58-.28-.51-.67.09-.55.2-.93.32-1.46 0 0 .09-.09.12-.08a1.7 1.7 0 0 0 .56.15 2.85 2.85 0 0 0 1.31-.68 4.45 4.45 0 0 0 1.53-2.87Zm4.57 6.05.24-.3a6.6 6.6 0 0 1-2.21-5.28A6.63 6.63 0 0 1 210.48.3l-.24-.3a6.54 6.54 0 0 0-3 5.58 6.51 6.51 0 0 0 3 5.58m3.55-7.43a1.9 1.9 0 0 0-1.16.51 1.58 1.58 0 0 0-.58 1.13c0 .27.13.39.23.39a1.15 1.15 0 0 0 .52-.3c0-.05.1-.15.09-.18a3 3 0 0 1-.08-.5.38.38 0 0 1 .37-.39 3.8 3.8 0 0 1 .94.22 6 6 0 0 0 .79.18s0 .1 0 .13a32 32 0 0 0-2.5 2.24c-.54.57-.74.94-.74 1.1s.11.37.24.37a.39.39 0 0 0 .26-.23c.14-.25.39-.57.65-.57s.39.06.82.38.7.58 1.06.58a1.73 1.73 0 0 0 1-.51 1.42 1.42 0 0 0 .6-1c0-.3-.12-.64-.56-.64a.19.19 0 0 0-.13.19 1.9 1.9 0 0 1 .08.52c0 .55-.33.68-.47.68a1.2 1.2 0 0 1-.7-.27 2.4 2.4 0 0 0-1.35-.53.07.07 0 0 1-.06-.09c.24-.27 2.61-2.32 3.27-2.85a.62.62 0 0 0 .25-.38.44.44 0 0 0-.21-.29.37.37 0 0 0-.24.14 1.6 1.6 0 0 1-.67.45 2.1 2.1 0 0 1-.63-.17 4.1 4.1 0 0 0-1.06-.33m4.65 2.2a.35.35 0 0 0-.27.21c-.06.13-.23.5-.28.58a.18.18 0 0 1-.09.08h-.53a.38.38 0 0 0-.15.27c0 .07 0 .1.07.11h.52v.07c-.15.47-.53 1.84-.62 2.19a2.4 2.4 0 0 0-.07.38c0 .06.1.31.3.31a2.6 2.6 0 0 0 1.25-.86.46.46 0 0 0 .09-.28s-.09-.14-.12-.11a2 2 0 0 1-.74.49c-.07 0-.09-.07 0-.34.23-.85.46-1.62.52-1.78a.12.12 0 0 1 .09-.08h.77s.16-.26.16-.32 0-.09-.05-.09h-.76a.08.08 0 0 1-.07-.07 4.4 4.4 0 0 0 .2-.74s-.12-.07-.23-.07M221.64 0h-.54v11.14h.54V.02m3.35 3.71a1.9 1.9 0 0 0-1.16.51 1.58 1.58 0 0 0-.58 1.13c0 .27.13.39.23.39a1.15 1.15 0 0 0 .52-.3c0-.05.1-.15.09-.18a3 3 0 0 1-.08-.5.38.38 0 0 1 .37-.39 3.8 3.8 0 0 1 .94.22 6 6 0 0 0 .79.18s0 .1 0 .13a32 32 0 0 0-2.5 2.24c-.54.57-.74.94-.74 1.1s.11.37.24.37a.41.41 0 0 0 .26-.23c.14-.25.39-.57.65-.57s.39.06.82.38.7.58 1.06.58a1.73 1.73 0 0 0 1-.51 1.42 1.42 0 0 0 .6-1c0-.3-.12-.64-.56-.64a.19.19 0 0 0-.13.19 1.9 1.9 0 0 1 .08.52c0 .55-.33.68-.47.68a1.2 1.2 0 0 1-.7-.27 2.4 2.4 0 0 0-1.35-.53.07.07 0 0 1-.06-.09c.23-.27 2.61-2.32 3.27-2.85.13-.11.26-.26.26-.38a.46.46 0 0 0-.22-.29.37.37 0 0 0-.24.14 1.6 1.6 0 0 1-.67.45 2.1 2.1 0 0 1-.63-.17 4.1 4.1 0 0 0-1.06-.33m4.65 2.2a.35.35 0 0 0-.27.21c-.06.13-.23.5-.28.58a.18.18 0 0 1-.09.08h-.53a.38.38 0 0 0-.15.27c0 .07 0 .1.07.11h.52v.07c-.15.47-.53 1.84-.62 2.19a2.4 2.4 0 0 0-.07.38c0 .06.1.31.3.31a2.66 2.66 0 0 0 1.31-.83.46.46 0 0 0 .09-.28s-.09-.14-.12-.11a2 2 0 0 1-.74.49c-.07 0-.09-.07 0-.34.23-.85.46-1.62.52-1.78a.12.12 0 0 1 .09-.08h.77s.17-.26.17-.32 0-.09-.06-.09h-.76a.08.08 0 0 1-.07-.07 4.4 4.4 0 0 0 .2-.74s-.12-.07-.23-.07m1.26 2.14a.3.3 0 0 0-.11.08.57.57 0 0 0-.1.28.15.15 0 0 0 .13.15c.36 0 1.06 0 1.58-.08l.12-.09a.8.8 0 0 0 .08-.32s0-.16-.1-.16c-.21 0-1.42.11-1.6.14m1.78 1.9c0 .08.11.12.27.12h1.91c.3 0 .24-.07.24-.13s-.08-.14-.19-.16c-.53-.11-.62-.15-.48-.7.07-.33.5-1.93.64-2.47.19-.71.34-1.11.38-1.25a.11.11 0 0 0-.1-.11.7.7 0 0 0-.17.06 8 8 0 0 1-1.13.27c-.1 0-.22.08-.22.16s.14.12.22.13.32 0 .47 0 .06.1 0 .15-.07.38-.35 1.42c-.22.85-.36 1.24-.52 1.74s-.25.48-.68.56c-.18 0-.33.08-.33.19m5.53 1.25a6.54 6.54 0 0 0 3-5.58 6.56 6.56 0 0 0-3-5.58l-.26.3a6.6 6.6 0 0 1 2.22 5.28 6.58 6.58 0 0 1-2.22 5.28z"/><path d="M208.12 15.4h-10.61a.36.36 0 0 0-.36.36.38.38 0 0 0 .36.37h10.61a.37.37 0 0 0 .36-.37.35.35 0 0 0-.36-.36"/><path d="M216.72 15.4h-10.6a.36.36 0 0 0-.37.36.38.38 0 0 0 .37.37h10.6a.37.37 0 0 0 .36-.37.35.35 0 0 0-.36-.36"/><path d="M226.92 15.4h-10.6a.36.36 0 0 0-.37.36.38.38 0 0 0 .37.37h10.6a.37.37 0 0 0 .36-.37.35.35 0 0 0-.36-.36"/><path d="M237.02 15.4h-10.61a.36.36 0 0 0-.36.36.38.38 0 0 0 .36.37h10.61a.37.37 0 0 0 .36-.37.35.35 0 0 0-.36-.36"/><path d="M241.86 13.48c0 .37 1.07 1.15 1.83 1.93h-8.65a.36.36 0 0 0-.36.36.38.38 0 0 0 .36.37h8.65c-.73.73-1.83 1.52-1.83 1.9a.36.36 0 0 0 .65.23 5.73 5.73 0 0 1 3.2-2.15.36.36 0 0 0 0-.71 5.78 5.78 0 0 1-3.2-2.15.34.34 0 0 0-.28-.14.36.36 0 0 0-.37.36m18.53-3.38a11 11 0 0 1-1.68-.06c-.15 0-.32 0-.48-.07s-.24.16-.36.37a12.3 12.3 0 0 0-.64 1.89c0 .24 0 .48.19.48s.27-.1.43-.38a3.8 3.8 0 0 1 .76-1.07c.34-.33.72-.39 1.47-.43h3c.08 0 .08.17 0 .25-.32.37-5.51 6.2-7.66 8.33-.24.22-.13.54 0 .54.35 0 1.27-.1 2.23-.1.73 0 4.35.1 5 .1a3 3 0 0 0 1-.14 1.7 1.7 0 0 0 .46-.64 7.2 7.2 0 0 0 .75-1.79c0-.19 0-.4-.19-.4s-.28.1-.51.48a4.34 4.34 0 0 1-1.3 1.46 4.15 4.15 0 0 1-1.84.31c-.51 0-2.9-.16-3.15-.23-.1 0-.1-.12 0-.19 1.36-1.49 4.8-5.35 5.93-6.51s1.58-1.61 1.7-1.72a.74.74 0 0 0 .2-.43c0-.11-.16-.19-.28-.19s-3.44.14-5 .14m7.71 6.38a.44.44 0 0 0-.38.29c-.09.18-.32.7-.39.81a.23.23 0 0 1-.13.11h-.75a.5.5 0 0 0-.2.36c0 .1 0 .15.09.16h.73s.05.07 0 .1c-.22.66-.75 2.58-.89 3.07a4 4 0 0 0-.09.54c0 .08.14.43.43.43a3.7 3.7 0 0 0 1.74-1.2.67.67 0 0 0 .13-.4c0-.07-.12-.19-.16-.16a2.85 2.85 0 0 1-1 .69c-.1 0-.14-.1 0-.48.33-1.18.64-2.26.73-2.5a.2.2 0 0 1 .13-.11h1.08a1 1 0 0 0 .23-.44c0-.07 0-.14-.08-.14h-1.06a.09.09 0 0 1-.1-.1 7 7 0 0 0 .28-1s-.17-.1-.32-.1M9.11 39.3v-8.69a.38.38 0 0 0-.37-.37.38.38 0 0 0-.36.37v8.69a.38.38 0 0 0 .36.37.38.38 0 0 0 .37-.37"/><path d="M9.11 47.7v-8.69a.38.38 0 0 0-.37-.37.38.38 0 0 0-.36.37v8.69a.38.38 0 0 0 .36.37.38.38 0 0 0 .37-.37"/><path d="M9.11 56v-8.69a.38.38 0 0 0-.37-.37.38.38 0 0 0-.36.37V56a.38.38 0 0 0 .36.37.38.38 0 0 0 .37-.37"/><path d="M11.03 60.25c-.36 0-1.14 1.07-1.92 1.83v-6a.36.36 0 0 0-.37-.37.37.37 0 0 0-.36.37v6c-.73-.73-1.53-1.83-1.91-1.83a.36.36 0 0 0-.22.65 5.67 5.67 0 0 1 2.14 3.18.38.38 0 0 0 .35.32.37.37 0 0 0 .37-.32 5.7 5.7 0 0 1 2.15-3.18.4.4 0 0 0 .14-.28.36.36 0 0 0-.37-.37"/><path fill="#046a38" d="M17.58 47a5 5 0 0 1-.72 2.14c-.22.34-.83 1-1.2 1-.14 0-.31-.2-.4-.38a.4.4 0 0 1-.05-.22c.11-.54.51-2.14.68-2.89a.5.5 0 0 1 .18-.27 4 4 0 0 1 .87-.11.73.73 0 0 1 .66.76m.89.08a1.21 1.21 0 0 0-1.36-1.35c-.15 0-.59.07-1 .11 0 0-.09-.07-.09-.11a3.4 3.4 0 0 0 .12-.62c0-.14-.32-.34-.39-.34a.6.6 0 0 0-.28.17 3.2 3.2 0 0 0-.32 1s0 .07-.15.12-.7.27-.8.36a.9.9 0 0 0-.2.37.16.16 0 0 0 .18.09c.19-.08.56-.19.72-.24s.08.08.08.11c-.3 1.3-1 4.52-1.28 5.27-.12.35-.2.45-.8.56a.41.41 0 0 0-.29.31c0 .08.1.16.34.16h.89c.56 0 1.16.07 1.19.07.27 0 .42-.12.42-.24s-.19-.19-.31-.22c-.55-.14-.58-.28-.51-.67.09-.55.2-.93.32-1.46 0 0 .09-.09.12-.08a1.7 1.7 0 0 0 .56.15 2.8 2.8 0 0 0 1.31-.68 4.45 4.45 0 0 0 1.51-2.87Zm4.55 6.05.24-.3a6.6 6.6 0 0 1-2.21-5.28 6.63 6.63 0 0 1 2.21-5.28l-.24-.3a6.7 6.7 0 0 0 0 11.16m6.52-6.37a.68.68 0 0 0 .26-.53.55.55 0 0 0-.53-.53 1.46 1.46 0 0 0-1.08.59c-.31.33-.63.77-.88 1.09h-.1c-.07-.21-.17-.51-.23-.72-.13-.38-.28-1-.74-1s-1 .64-1.23 1a1.4 1.4 0 0 0-.13.3c0 .13.18.3.22.23.24-.32.66-.73.83-.73s.23.2.33.52.18.58.34 1a1 1 0 0 1-.11.28c-.52.88-1 1.37-1.23 1.37a.53.53 0 0 1-.4-.37c-.05-.09-.2-.06-.24 0a1.06 1.06 0 0 0-.43.71.6.6 0 0 0 .57.55c.66 0 1.41-1.09 1.9-1.73 0 0 .14-.06.15 0s.14.43.22.65c.16.41.34 1 .86 1a1.47 1.47 0 0 0 1.27-1.24c0-.1-.08-.2-.12-.2s-.11 0-.22.18c-.28.38-.47.4-.61.4-.29 0-.5-.52-.79-1.55 0-.06.05-.2.06-.22.43-.58 1.11-1.36 1.36-1.36s.18.13.24.28.09.18.17.18a.63.63 0 0 0 .34-.12m.45 5.11c0 .08.11.12.27.12h1.91c.3 0 .24-.07.24-.13s-.08-.14-.19-.16c-.53-.11-.62-.15-.48-.7.07-.33.5-1.93.64-2.47.19-.71.34-1.11.38-1.25a.11.11 0 0 0-.1-.11.7.7 0 0 0-.17.06 8 8 0 0 1-1.13.27c-.1 0-.22.08-.22.16s.14.12.22.13.32 0 .48 0 .05.1 0 .15-.08.38-.35 1.42c-.23.85-.36 1.24-.52 1.74s-.25.48-.68.56c-.18 0-.33.08-.33.19M35.94 42h-.54v11.14h.54V42.02m3.35 3.71a1.9 1.9 0 0 0-1.16.51 1.58 1.58 0 0 0-.58 1.13c0 .27.13.39.23.39a1.15 1.15 0 0 0 .52-.3s.1-.15.09-.18a3 3 0 0 1-.08-.5.38.38 0 0 1 .37-.39 3.8 3.8 0 0 1 .94.22 6 6 0 0 0 .79.18s0 .1 0 .13a32 32 0 0 0-2.55 2.24c-.54.57-.74.94-.74 1.1s.11.37.24.37a.41.41 0 0 0 .26-.23c.14-.25.39-.57.65-.57s.39.06.82.38.7.58 1.06.58a1.73 1.73 0 0 0 1-.51 1.42 1.42 0 0 0 .6-1c0-.3-.12-.64-.56-.64a.19.19 0 0 0-.13.19 1.9 1.9 0 0 1 .08.52c0 .55-.33.68-.47.68a1.2 1.2 0 0 1-.7-.27 2.4 2.4 0 0 0-1.35-.53.07.07 0 0 1-.06-.09c.23-.27 2.61-2.32 3.27-2.85.13-.11.26-.26.26-.38a.46.46 0 0 0-.22-.29.37.37 0 0 0-.24.14 1.6 1.6 0 0 1-.67.45 2.1 2.1 0 0 1-.63-.17 4.1 4.1 0 0 0-1.06-.33m3.19 6.22c0 .08.11.12.27.12h1.91c.3 0 .24-.07.24-.13s-.08-.14-.19-.16c-.53-.11-.62-.15-.48-.7.07-.33.5-1.93.64-2.47.19-.71.34-1.11.38-1.25a.11.11 0 0 0-.1-.11.7.7 0 0 0-.17.06 8 8 0 0 1-1.13.27c-.1 0-.22.08-.22.16s.14.12.22.13.32 0 .48 0 0 .1 0 .15-.08.38-.35 1.42c-.23.85-.36 1.24-.52 1.74s-.25.48-.68.56c-.18 0-.33.08-.33.19m5.52 1.25a6.7 6.7 0 0 0 0-11.16l-.26.3a6.6 6.6 0 0 1 2.22 5.28 6.58 6.58 0 0 1-2.22 5.28z"/><path d="M177.01 39.3v-8.69a.38.38 0 0 0-.37-.37.38.38 0 0 0-.36.37v8.69a.38.38 0 0 0 .36.37.38.38 0 0 0 .37-.37"/><path d="M177.01 47.7v-8.69a.38.38 0 0 0-.37-.37.38.38 0 0 0-.36.37v8.69a.38.38 0 0 0 .36.37.38.38 0 0 0 .37-.37"/><path d="M177.01 56v-8.69a.38.38 0 0 0-.37-.37.38.38 0 0 0-.36.37V56a.38.38 0 0 0 .36.37.38.38 0 0 0 .37-.37"/><path d="M178.93 60.25c-.36 0-1.14 1.07-1.92 1.83v-6a.36.36 0 0 0-.37-.37.37.37 0 0 0-.36.37v6c-.73-.73-1.53-1.83-1.91-1.83a.36.36 0 0 0-.22.65 5.67 5.67 0 0 1 2.14 3.18.38.38 0 0 0 .35.32.37.37 0 0 0 .37-.32 5.72 5.72 0 0 1 2.14-3.18.38.38 0 0 0 .15-.28.37.37 0 0 0-.37-.37"/><path fill="#046a38" d="M185.48 47a5 5 0 0 1-.74 2.14c-.22.34-.84 1-1.2 1-.14 0-.31-.2-.4-.38a.4.4 0 0 1-.05-.22c.11-.54.51-2.14.68-2.89a.44.44 0 0 1 .18-.27 4 4 0 0 1 .87-.11.73.73 0 0 1 .66.76m.89.08a1.21 1.21 0 0 0-1.36-1.35c-.14 0-.59.07-1 .11 0 0-.09-.07-.09-.11a3.4 3.4 0 0 0 .12-.62c0-.14-.32-.34-.39-.34a.6.6 0 0 0-.28.17 3.2 3.2 0 0 0-.32 1s0 .07-.16.12-.69.27-.79.36a.9.9 0 0 0-.2.37.16.16 0 0 0 .18.09c.19-.08.56-.19.72-.24s.08.08.08.11c-.3 1.3-1 4.52-1.28 5.27-.12.35-.2.45-.8.56a.41.41 0 0 0-.29.31c0 .08.1.16.34.16h.89c.56 0 1.15.07 1.19.07.27 0 .42-.12.42-.24s-.19-.19-.31-.22c-.55-.14-.58-.28-.51-.67.09-.55.2-.93.32-1.46 0 0 .09-.09.12-.08a1.7 1.7 0 0 0 .56.15 2.85 2.85 0 0 0 1.31-.68 4.45 4.45 0 0 0 1.53-2.87Zm4.56 6.05.25-.3a6.6 6.6 0 0 1-2.21-5.28 6.63 6.63 0 0 1 2.21-5.28l-.25-.3a6.71 6.71 0 0 0 0 11.16m6.53-6.37a.68.68 0 0 0 .26-.53.55.55 0 0 0-.53-.53 1.46 1.46 0 0 0-1.08.59c-.31.33-.63.77-.88 1.09h-.1c-.07-.21-.17-.51-.23-.72-.13-.38-.28-1-.74-1s-1 .64-1.23 1a2 2 0 0 0-.13.3c0 .13.18.3.22.23.24-.32.66-.73.83-.73s.23.2.33.52.18.58.34 1a.9.9 0 0 1-.12.28c-.51.88-.95 1.37-1.22 1.37a.53.53 0 0 1-.4-.37c0-.09-.2-.06-.24 0a1.06 1.06 0 0 0-.43.71.59.59 0 0 0 .57.55c.66 0 1.41-1.09 1.9-1.73 0 0 .14-.06.15 0s.14.43.22.65c.16.41.34 1 .86 1a1.47 1.47 0 0 0 1.27-1.24c0-.1-.08-.2-.12-.2s-.11 0-.22.18c-.28.38-.47.4-.61.4-.29 0-.5-.52-.79-1.55 0-.06.05-.2.06-.22.43-.68 1.11-1.49 1.31-1.49s.18.13.24.28.09.18.17.18a.63.63 0 0 0 .34-.12m2.01 1.22a.35.35 0 0 0-.27.21c-.06.13-.23.5-.28.58a.18.18 0 0 1-.09.08h-.53a.38.38 0 0 0-.15.27c0 .07 0 .1.07.11h.52v.07c-.15.47-.53 1.84-.62 2.19a2.4 2.4 0 0 0-.07.38c0 .06.1.31.3.31a2.6 2.6 0 0 0 1.25-.86.46.46 0 0 0 .09-.28c0-.05-.09-.14-.12-.11a2 2 0 0 1-.74.49c-.07 0-.09-.07 0-.34.23-.85.46-1.62.52-1.78a.12.12 0 0 1 .09-.08h.77s.16-.26.16-.32 0-.09-.05-.09h-.76a.08.08 0 0 1-.07-.07 4.4 4.4 0 0 0 .2-.74s-.12-.07-.23-.07m1.32 2.17a.5.5 0 0 0-.12.08.7.7 0 0 0-.09.28.15.15 0 0 0 .14.15c.35 0 1.05 0 1.57-.08l.12-.09a.8.8 0 0 0 .08-.32s-.05-.16-.1-.16c-.21 0-1.42.11-1.6.14m1.78 1.9c0 .08.11.12.27.12h1.91c.3 0 .24-.07.24-.13s-.08-.14-.19-.16c-.53-.11-.62-.15-.48-.7.07-.33.5-1.93.64-2.47.19-.71.34-1.11.38-1.25a.11.11 0 0 0-.1-.11.7.7 0 0 0-.17.06 8 8 0 0 1-1.13.27c-.1 0-.22.08-.22.16s.14.12.22.13.32 0 .47 0 .06.1 0 .15-.07.38-.35 1.42c-.22.85-.36 1.24-.52 1.74s-.25.48-.68.56c-.18 0-.33.08-.33.19m5.82-9.91h-.54v11.14h.54V42.02m3.45 3.71a1.9 1.9 0 0 0-1.16.51 1.58 1.58 0 0 0-.58 1.13c0 .27.13.39.23.39a1.15 1.15 0 0 0 .52-.3s.1-.15.09-.18a3 3 0 0 1-.08-.5.38.38 0 0 1 .37-.39 3.8 3.8 0 0 1 .94.22 6 6 0 0 0 .79.18s0 .1 0 .13a32 32 0 0 0-2.5 2.24c-.54.57-.74.94-.74 1.1s.11.37.24.37a.39.39 0 0 0 .26-.23c.14-.25.39-.57.65-.57s.39.06.82.38.7.58 1.06.58a1.73 1.73 0 0 0 1-.51 1.42 1.42 0 0 0 .6-1c0-.3-.12-.64-.56-.64a.19.19 0 0 0-.13.19 1.9 1.9 0 0 1 .08.52c0 .55-.33.68-.47.68a1.2 1.2 0 0 1-.7-.27 2.4 2.4 0 0 0-1.35-.53.07.07 0 0 1-.06-.09c.24-.27 2.61-2.32 3.27-2.85a.62.62 0 0 0 .25-.38.44.44 0 0 0-.21-.29.37.37 0 0 0-.24.14 1.6 1.6 0 0 1-.67.45 2.1 2.1 0 0 1-.63-.17 4.1 4.1 0 0 0-1.06-.33m4.65 2.2a.35.35 0 0 0-.27.21c-.06.13-.23.5-.28.58a.18.18 0 0 1-.09.08h-.53a.38.38 0 0 0-.15.27c0 .07 0 .1.07.11h.52v.07c-.15.47-.53 1.84-.62 2.19a2.4 2.4 0 0 0-.07.38c0 .06.1.31.3.31a2.6 2.6 0 0 0 1.25-.86.46.46 0 0 0 .09-.28c0-.05-.09-.14-.12-.11a2 2 0 0 1-.74.49c-.07 0-.09-.07 0-.34.23-.85.46-1.62.52-1.78a.12.12 0 0 1 .09-.08h.77s.16-.26.16-.32 0-.09-.05-.09h-.76a.08.08 0 0 1-.07-.07 4.4 4.4 0 0 0 .2-.74s-.12-.07-.23-.07m1.32 2.17a.5.5 0 0 0-.12.08.7.7 0 0 0-.09.28.15.15 0 0 0 .14.15c.35 0 1.05 0 1.57-.08l.12-.09a.8.8 0 0 0 .08-.32s-.05-.16-.1-.16c-.21 0-1.42.11-1.6.14m1.68 1.9c0 .08.11.12.27.12h1.91c.3 0 .24-.07.24-.13s-.08-.14-.19-.16c-.53-.11-.62-.15-.48-.7.07-.33.5-1.93.64-2.47.19-.71.34-1.11.38-1.25a.11.11 0 0 0-.1-.11.7.7 0 0 0-.17.06 8 8 0 0 1-1.13.27c-.1 0-.22.08-.22.16s.14.12.22.13.32 0 .48 0 .05.1 0 .15-.08.38-.35 1.42c-.23.85-.36 1.24-.52 1.74s-.25.48-.68.56c-.18 0-.33.08-.33.19m5.52 1.25a6.71 6.71 0 0 0 0-11.16l-.26.3a6.6 6.6 0 0 1 2.22 5.28 6.58 6.58 0 0 1-2.22 5.28z"/><path d="M262.91 39.3v-8.69a.38.38 0 0 0-.37-.37.38.38 0 0 0-.36.37v8.69a.38.38 0 0 0 .36.37.38.38 0 0 0 .37-.37"/><path d="M262.91 47.7v-8.69a.38.38 0 0 0-.37-.37.38.38 0 0 0-.36.37v8.69a.38.38 0 0 0 .36.37.38.38 0 0 0 .37-.37"/><path d="M262.91 56v-8.69a.38.38 0 0 0-.37-.37.38.38 0 0 0-.36.37V56a.38.38 0 0 0 .36.37.38.38 0 0 0 .37-.37"/><path d="M264.86 60.25c-.36 0-1.14 1.07-1.92 1.83v-6a.36.36 0 0 0-.37-.37.37.37 0 0 0-.36.37v6c-.73-.73-1.53-1.83-1.91-1.83a.36.36 0 0 0-.22.65 5.67 5.67 0 0 1 2.14 3.18.38.38 0 0 0 .35.32.37.37 0 0 0 .37-.32 5.7 5.7 0 0 1 2.15-3.18.4.4 0 0 0 .14-.28.36.36 0 0 0-.37-.37"/><path fill="#046a38" d="M271.38 47a5 5 0 0 1-.74 2.14c-.22.34-.83 1-1.2 1-.14 0-.31-.2-.4-.38a.4.4 0 0 1-.05-.22c.11-.54.51-2.14.68-2.89a.5.5 0 0 1 .18-.27 4 4 0 0 1 .87-.11.73.73 0 0 1 .66.76m.89.08a1.21 1.21 0 0 0-1.36-1.35c-.15 0-.59.07-1 .11 0 0-.09-.07-.09-.11a3.4 3.4 0 0 0 .12-.62c0-.14-.32-.34-.39-.34a.6.6 0 0 0-.28.17 3.2 3.2 0 0 0-.32 1s0 .07-.15.12c-.27.14-.7.27-.8.36a.9.9 0 0 0-.2.37.16.16 0 0 0 .18.09c.19-.08.56-.19.72-.24s.08.08.08.11c-.3 1.3-1 4.52-1.28 5.27-.12.35-.2.45-.8.56a.41.41 0 0 0-.29.31c0 .08.1.16.34.16h.89c.56 0 1.16.07 1.19.07.27 0 .42-.12.42-.24s-.19-.19-.31-.22c-.55-.14-.58-.28-.51-.67.09-.55.2-.93.32-1.46 0 0 .09-.09.12-.08a1.7 1.7 0 0 0 .56.15 2.85 2.85 0 0 0 1.31-.68 4.45 4.45 0 0 0 1.53-2.87Zm4.59 6.05.24-.3a6.6 6.6 0 0 1-2.24-5.28 6.63 6.63 0 0 1 2.21-5.28l-.24-.3a6.7 6.7 0 0 0 0 11.16m6.53-6.37a.68.68 0 0 0 .26-.53.55.55 0 0 0-.53-.53 1.46 1.46 0 0 0-1.08.59c-.31.33-.63.77-.88 1.09h-.1c-.07-.21-.17-.51-.23-.72-.13-.38-.28-1-.74-1s-1 .64-1.23 1a1.4 1.4 0 0 0-.13.3c0 .13.18.3.22.23.24-.32.66-.73.83-.73s.23.2.33.52.18.58.34 1a1 1 0 0 1-.11.28c-.52.88-1 1.37-1.23 1.37a.53.53 0 0 1-.4-.37c-.05-.09-.2-.06-.24 0a1.06 1.06 0 0 0-.43.71.59.59 0 0 0 .57.55c.66 0 1.41-1.09 1.9-1.73 0 0 .14-.06.15 0s.14.43.22.65c.16.41.34 1 .86 1a1.47 1.47 0 0 0 1.27-1.24c0-.1-.08-.2-.12-.2s-.11 0-.22.18c-.28.38-.47.4-.61.4-.29 0-.5-.52-.79-1.55 0-.06.05-.2.06-.22.43-.68 1.11-1.49 1.32-1.49s.17.13.23.28.09.18.17.18a.63.63 0 0 0 .34-.12m2.01 1.22a.35.35 0 0 0-.27.21c-.06.13-.23.5-.28.58a.18.18 0 0 1-.09.08h-.53a.38.38 0 0 0-.15.27c0 .07 0 .1.07.11h.52v.07c-.15.47-.53 1.84-.62 2.19a2.4 2.4 0 0 0-.07.38c0 .06.1.31.3.31a2.55 2.55 0 0 0 1.24-.86.42.42 0 0 0 .1-.28c0-.05-.09-.14-.12-.11a2 2 0 0 1-.74.49c-.07 0-.09-.07 0-.34.23-.85.46-1.62.52-1.78a.12.12 0 0 1 .09-.08h.77s.16-.26.16-.32 0-.09-.05-.09h-.76a.08.08 0 0 1-.07-.07 6 6 0 0 0 .2-.74s-.12-.07-.23-.07m3.18-5.86H288v11.14h.54V42.02m3.32 3.71a1.9 1.9 0 0 0-1.16.51 1.58 1.58 0 0 0-.58 1.13c0 .27.13.39.23.39a1.15 1.15 0 0 0 .51-.28s.1-.15.09-.18a3 3 0 0 1-.08-.5.38.38 0 0 1 .37-.39 3.8 3.8 0 0 1 .94.22 6 6 0 0 0 .79.18s0 .1 0 .13a32 32 0 0 0-2.5 2.24c-.54.57-.74.94-.74 1.1s.11.37.24.37a.41.41 0 0 0 .26-.23c.14-.25.39-.57.65-.57s.39.06.82.38.7.58 1.06.58a1.73 1.73 0 0 0 1-.51 1.42 1.42 0 0 0 .6-1c0-.3-.12-.64-.56-.64a.19.19 0 0 0-.13.19 1.9 1.9 0 0 1 .08.52c0 .55-.33.68-.47.68a1.2 1.2 0 0 1-.7-.27 2.4 2.4 0 0 0-1.35-.53.07.07 0 0 1-.06-.09c.23-.27 2.61-2.32 3.27-2.85.13-.11.26-.26.26-.38a.46.46 0 0 0-.22-.29.37.37 0 0 0-.24.14 1.6 1.6 0 0 1-.67.45 2.1 2.1 0 0 1-.63-.17 4.1 4.1 0 0 0-1.06-.33m4.69 2.18a.35.35 0 0 0-.27.21c-.06.13-.23.5-.28.58a.18.18 0 0 1-.09.08h-.53a.38.38 0 0 0-.15.27c0 .07 0 .1.07.11h.54v.07c-.16.47-.54 1.84-.63 2.19a2.4 2.4 0 0 0-.07.38c0 .06.1.31.3.31a2.66 2.66 0 0 0 1.25-.86.46.46 0 0 0 .09-.28c0-.05-.09-.14-.12-.11a2 2 0 0 1-.74.49c-.07 0-.09-.07 0-.34.23-.85.46-1.62.52-1.78a.12.12 0 0 1 .09-.08h.77s.16-.26.16-.32 0-.09-.05-.09h-.76a.08.08 0 0 1-.07-.07 4.4 4.4 0 0 0 .2-.74s-.12-.07-.23-.07m2.78 5.3a6.7 6.7 0 0 0 0-11.16l-.26.3a6.6 6.6 0 0 1 2.22 5.28 6.58 6.58 0 0 1-2.22 5.28z"/><path d="M2.13 74.12c0 .15.19.23.43.29.57.16 1.08.27 1.38.89s1 2.26 1.46 3.2a.67.67 0 0 1 0 .42 27 27 0 0 1-2.8 3.06 4.2 4.2 0 0 1-2.08 1.08c-.39.08-.52.17-.52.31s.22.29.51.29.71-.05 1.67-.05c.66 0 1.16.05 1.52.05s.54-.11.54-.29-.08-.23-.3-.31c-.76-.24-.73-.56-.67-.62a32 32 0 0 1 2.45-2.72.16.16 0 0 1 .22 0 22 22 0 0 1 1 2.2c.27.62.26.92-.5 1.08-.39.07-.45.23-.45.36s.19.27.46.27.83-.05 1.37-.05 1.84.05 2 .05c.33 0 .57-.13.57-.27s-.11-.3-.41-.36a1.88 1.88 0 0 1-1.29-.7c-.18-.32-1.61-3.45-1.75-3.74a.54.54 0 0 1 .06-.41c.67-.76 1.8-2 2.44-2.66a3.92 3.92 0 0 1 2.19-1.01c.27-.06.5-.16.5-.35s-.16-.27-.5-.27c-.49 0-1.09.08-1.74.08H8.56a.45.45 0 0 0-.41.35c0 .11.08.21.35.27.51.13.62.32.27.73-.63.76-1.46 1.62-2.1 2.31-.08.08-.17.06-.2 0a20 20 0 0 1-1.15-2.43c-.14-.34.1-.56.51-.66.21-.06.38-.09.38-.24a.37.37 0 0 0-.35-.4H4.35c-.62 0-1.5-.08-1.66-.08s-.52.11-.52.3m9.44 11.8c0 .11.15.18.38.18s.9-.06 1.62-.06h1.06c.22 0 .33-.1.33-.18s-.11-.19-.27-.22c-.73-.16-.86-.22-.67-1 .1-.46.71-2.71.91-3.46.27-1 .47-1.57.52-1.76a.15.15 0 0 0-.13-.15 1 1 0 0 0-.25.08 11 11 0 0 1-1.58.37c-.14 0-.3.12-.3.24s.19.17.3.18.46 0 .67 0c.05 0 .08.15.05.22-.05.26-.11.53-.5 2-.31 1.19-.5 1.74-.72 2.44-.15.51-.36.68-1 .79-.25 0-.46.1-.46.26m155.29-11.7c0 .15.19.23.43.29.57.16 1.08.27 1.38.89s1.05 2.26 1.46 3.2a.85.85 0 0 1 0 .42 27 27 0 0 1-2.8 3.06 4.2 4.2 0 0 1-2.07 1.08c-.39.08-.52.17-.52.31s.22.29.51.29.71-.05 1.67-.05c.66 0 1.16.05 1.52.05s.54-.11.54-.29-.08-.23-.3-.31c-.76-.24-.73-.56-.67-.62a32 32 0 0 1 2.45-2.72.16.16 0 0 1 .22 0 22 22 0 0 1 1 2.2c.27.62.26.92-.51 1.08-.38.07-.44.23-.44.36s.19.27.46.27.83-.05 1.37-.05 1.84.05 2 .05.57-.13.57-.27-.11-.3-.41-.36a1.88 1.88 0 0 1-1.29-.7c-.18-.32-1.61-3.45-1.75-3.74a.54.54 0 0 1 .06-.41c.67-.76 1.8-2 2.43-2.66a4 4 0 0 1 2.16-1.01c.27-.06.5-.16.5-.35s-.16-.27-.5-.27c-.49 0-1.09.08-1.74.08h-1.33a.45.45 0 0 0-.41.35c0 .11.08.21.35.27.51.13.62.32.27.73-.63.76-1.46 1.62-2.1 2.31-.08.08-.17.06-.2 0a20 20 0 0 1-1.15-2.43c-.14-.34.1-.56.51-.66.21-.06.38-.09.38-.24a.37.37 0 0 0-.39-.33h-1.51c-.62 0-1.5-.08-1.66-.08s-.52.11-.52.3m11.6 6.1a.44.44 0 0 0-.38.29c-.09.18-.32.7-.39.81a.23.23 0 0 1-.13.11h-.75a.5.5 0 0 0-.2.36c0 .1 0 .15.09.16h.73s.05.07 0 .1c-.22.66-.75 2.58-.88 3.07a3.3 3.3 0 0 0-.1.54c0 .08.14.43.43.43a3.7 3.7 0 0 0 1.74-1.2.67.67 0 0 0 .13-.4c0-.07-.12-.19-.16-.16a2.85 2.85 0 0 1-1 .69c-.1 0-.14-.1 0-.48.33-1.18.64-2.26.73-2.5a.2.2 0 0 1 .13-.11h1.08a1 1 0 0 0 .23-.44c0-.07 0-.14-.08-.14h-1.06a.09.09 0 0 1-.1-.1 7 7 0 0 0 .28-1s-.16-.1-.32-.1m1.77 3.03a.7.7 0 0 0-.17.12.9.9 0 0 0-.13.4.21.21 0 0 0 .19.21c.5 0 1.48-.07 2.21-.11a1 1 0 0 0 .18-.14 1.2 1.2 0 0 0 .11-.44s-.08-.22-.15-.22c-.29 0-2 .14-2.24.18m2.49 2.67c0 .11.16.18.38.18s.9-.06 1.62-.06h1.06c.22 0 .33-.1.33-.18s-.11-.19-.27-.22c-.73-.16-.86-.22-.67-1 .1-.46.71-2.71.91-3.46.27-1 .47-1.57.52-1.76a.15.15 0 0 0-.13-.15 1 1 0 0 0-.25.08 11 11 0 0 1-1.58.37c-.14 0-.3.12-.3.24s.19.17.3.18.46 0 .67 0c.05 0 .08.15.05.22-.05.26-.11.53-.5 2-.31 1.19-.5 1.74-.72 2.44-.15.51-.36.68-1 .79-.25 0-.46.1-.46.26m74.06-11.7c0 .15.19.23.43.29.57.16 1.08.27 1.38.89s1.05 2.26 1.46 3.2a.85.85 0 0 1 0 .42 27 27 0 0 1-2.8 3.06 4.2 4.2 0 0 1-2.07 1.08c-.39.08-.52.17-.52.31s.22.29.51.29.71-.05 1.67-.05c.66 0 1.16.05 1.52.05s.54-.11.54-.29-.08-.23-.3-.31c-.76-.24-.73-.56-.67-.62a32 32 0 0 1 2.45-2.72.16.16 0 0 1 .22 0 22 22 0 0 1 1 2.2c.27.62.26.92-.51 1.08-.38.07-.44.23-.44.36s.19.27.46.27.83-.05 1.37-.05 1.84.05 2 .05c.33 0 .57-.13.57-.27s-.11-.3-.41-.36a1.88 1.88 0 0 1-1.29-.7c-.18-.32-1.61-3.45-1.75-3.74a.54.54 0 0 1 .06-.41c.67-.76 1.8-2 2.44-2.66a3.92 3.92 0 0 1 2.18-1.01c.27-.06.5-.16.5-.35s-.16-.27-.5-.27c-.49 0-1.09.08-1.75.08h-1.32a.45.45 0 0 0-.41.35c0 .11.08.21.35.27.51.13.62.32.27.73-.63.76-1.46 1.62-2.1 2.31-.08.08-.17.06-.2 0a20 20 0 0 1-1.15-2.43c-.14-.34.1-.56.51-.66.21-.06.38-.09.38-.24a.37.37 0 0 0-.39-.33h-1.51c-.62 0-1.5-.08-1.66-.08s-.52.11-.52.3m11.6 6.1a.44.44 0 0 0-.38.29c-.09.18-.32.7-.39.81a.23.23 0 0 1-.13.11h-.75a.5.5 0 0 0-.2.36c0 .1 0 .15.09.16h.73s.05.07 0 .1c-.22.66-.75 2.58-.88 3.07a3 3 0 0 0-.09.54c0 .08.13.43.42.43a3.7 3.7 0 0 0 1.74-1.2.67.67 0 0 0 .13-.4c0-.07-.12-.19-.16-.16a2.85 2.85 0 0 1-1 .69c-.1 0-.14-.1 0-.48.33-1.18.64-2.26.73-2.5a.2.2 0 0 1 .13-.11h1.08a1 1 0 0 0 .23-.44c0-.07 0-.14-.08-.14h-1.06a.09.09 0 0 1-.1-.1 7 7 0 0 0 .28-1s-.17-.1-.32-.1"/></g></svg>