<svg xmlns="http://www.w3.org/2000/svg" viewBox="0 0 319.35 84.81"><defs><clipPath id="clip-path" transform="translate(-.05 -.23)"><path fill="none" d="M0 0h320v86H0z"/></clipPath><style>.cls-3{fill:#ed1c24}.cls-4{fill:#046a38}.cls-5{fill:#003c71}</style></defs><g id="Layer_2" data-name="Layer 2"><g id="Layer_1-2" clip-path="url(#clip-path)" data-name="Layer 1"><path d="M7.02 14.31a7.11 7.11 0 0 1-1.07 3.05c-.29.48-1.17 1.41-1.69 1.41-.19 0-.45-.29-.57-.54a.71.71 0 0 1-.07-.32c.16-.76.73-3 1-4.11a.67.67 0 0 1 .26-.39 5.58 5.58 0 0 1 1.24-.15 1 1 0 0 1 .93 1.08m1.28.11a1.73 1.73 0 0 0-1.94-1.93c-.21 0-.85.1-1.37.16 0 0-.13-.09-.13-.16a5 5 0 0 0 .18-.87c0-.21-.46-.49-.56-.49a.83.83 0 0 0-.4.24 4.66 4.66 0 0 0-.49 1.37s0 .09-.22.17c-.38.19-1 .38-1.13.51a1.22 1.22 0 0 0-.28.52.2.2 0 0 0 .25.13c.27-.11.79-.27 1-.33.06 0 .12.11.12.16-.41 1.84-1.41 6.46-1.8 7.53-.18.49-.29.64-1.15.79a.63.63 0 0 0-.41.45c0 .11.14.22.49.22h1.26c.81 0 1.65.09 1.7.09.38 0 .6-.17.6-.34s-.27-.27-.44-.31c-.78-.2-.83-.39-.73-.95a21.15 21.15 0 0 1 .46-2.08s.12-.13.17-.11a2.46 2.46 0 0 0 .8.2 4 4 0 0 0 1.86-1c.54-.46 2.13-2.24 2.13-4zm5.9 8.6.31-.35c-2.17-1.85-3-4.74-3-7.58s.81-5.76 3-7.6l-.31-.35a9.44 9.44 0 0 0-3.91 8 9.43 9.43 0 0 0 3.91 7.93m4.89-10.61a2.75 2.75 0 0 0-1.65.74 2.24 2.24 0 0 0-.82 1.6c0 .38.17.56.31.56a1.65 1.65 0 0 0 .75-.43c0-.07.14-.21.13-.26a3.51 3.51 0 0 1-.12-.71.55.55 0 0 1 .53-.56 5.09 5.09 0 0 1 1.33.32 10.13 10.13 0 0 0 1.13.25v.2a43.08 43.08 0 0 0-3.56 3.19c-.76.81-1.05 1.33-1.05 1.56s.16.52.34.52a.56.56 0 0 0 .38-.32c.19-.36.55-.81.92-.81s.56.08 1.16.54 1 .83 1.51.83a2.44 2.44 0 0 0 1.41-.73 2 2 0 0 0 .86-1.4c0-.43-.17-.91-.79-.91a.27.27 0 0 0-.19.28 2.49 2.49 0 0 1 .11.73c0 .79-.46 1-.67 1a1.68 1.68 0 0 1-1-.39 3.42 3.42 0 0 0-1.92-.74s-.12-.08-.08-.13c.33-.4 3.72-3.31 4.65-4.07.19-.16.37-.36.37-.54a.67.67 0 0 0-.3-.41.54.54 0 0 0-.35.2 2.43 2.43 0 0 1-1 .64 3.13 3.13 0 0 1-.89-.24 5.78 5.78 0 0 0-1.51-.48m6.67 3.19a.47.47 0 0 0-.38.29c-.09.18-.32.71-.39.82a.28.28 0 0 1-.13.11h-.75a.54.54 0 0 0-.2.37c0 .1 0 .15.09.16h.74v.1c-.21.66-.75 2.58-.88 3.07a3 3 0 0 0-.09.53c0 .08.13.44.42.44a3.63 3.63 0 0 0 1.74-1.16.65.65 0 0 0 .14-.4c0-.07-.12-.19-.17-.15-.37.32-.82.69-1 .69s-.13-.1 0-.48c.33-1.18.65-2.27.74-2.5a.18.18 0 0 1 .12-.11h1.08c.06 0 .24-.37.24-.45s0-.13-.08-.13h-1.07a.09.09 0 0 1-.1-.1 9.27 9.27 0 0 0 .28-1s-.17-.1-.33-.1m3.83-8.54H29v15.86h.63V7.19M38.55 14a.94.94 0 0 0 .37-.74.79.79 0 0 0-.75-.77 2.09 2.09 0 0 0-1.54.85 18.66 18.66 0 0 0-1.26 1.55c0 .05-.11 0-.14 0l-.33-1c-.18-.55-.4-1.36-1.05-1.36s-1.47.93-1.75 1.47a2 2 0 0 0-.19.41c0 .19.25.43.32.33.33-.46.93-1 1.17-1s.34.29.48.73.25.83.48 1.5a1.39 1.39 0 0 1-.16.39c-.73 1.26-1.37 2-1.75 2-.21 0-.48-.26-.57-.53s-.29-.08-.34 0a1.55 1.55 0 0 0-.62 1 .86.86 0 0 0 .81.78c1 0 2-1.54 2.72-2.47 0 0 .19-.07.21 0 .09.29.2.62.32.92.22.59.47 1.43 1.22 1.43a2.11 2.11 0 0 0 1.81-1.76c0-.14-.11-.29-.17-.29s-.16 0-.32.26c-.4.54-.67.57-.86.57-.41 0-.71-.75-1.13-2.21 0-.08.07-.29.08-.32.62-1 1.59-2.11 1.88-2.11.12 0 .25.17.33.39s.13.26.24.26a.81.81 0 0 0 .49-.18m.71 7.25c0 .11.16.18.38.18s.91-.06 1.62-.06h1.06c.22 0 .33-.1.33-.18s-.11-.18-.26-.22c-.74-.15-.86-.21-.67-1 .1-.47.7-2.71.9-3.47.27-1 .47-1.56.53-1.75a.16.16 0 0 0-.14-.16 1.68 1.68 0 0 0-.24.08 11 11 0 0 1-1.59.38c-.13 0-.3.11-.3.23s.19.17.3.18.46 0 .67 0 .08.14.06.22c-.06.26-.11.52-.51 2-.31 1.19-.5 1.74-.72 2.44-.15.5-.36.68-1 .79-.25.05-.46.1-.46.26m6.19-4.97a.67.67 0 1 0 .67.67.67.67 0 0 0-.67-.67m0 3.33a.67.67 0 1 0 .67.67.66.66 0 0 0-.67-.67zm3.97-3.92A.47.47 0 0 0 49 16c-.09.18-.32.71-.39.82a.28.28 0 0 1-.13.11h-.75a.54.54 0 0 0-.2.37c0 .1.05.15.09.16h.74v.1c-.21.66-.75 2.58-.88 3.07a3 3 0 0 0-.09.53c0 .08.13.44.42.44a3.63 3.63 0 0 0 1.74-1.21.65.65 0 0 0 .14-.4c0-.07-.12-.19-.17-.15a2.85 2.85 0 0 1-1 .69c-.1 0-.13-.1 0-.48.34-1.18.65-2.27.74-2.5a.18.18 0 0 1 .12-.11h1.08c.06 0 .24-.37.24-.45s0-.13-.08-.13h-1.09a.09.09 0 0 1-.1-.1 9.27 9.27 0 0 0 .28-1s-.17-.1-.33-.1m3.44 7.39a9.43 9.43 0 0 0 3.91-7.93 9.44 9.44 0 0 0-3.91-7.95l-.3.35c2.16 1.84 3 4.74 3 7.6s-.81 5.73-3 7.58l.3.35" class="cls-3"/><path d="M69.66 14.59c-.89-1-1.91-2.22-3.44-2.22a2.74 2.74 0 0 0 0 5.48c1.51 0 2.45-1.18 3.44-2.22 1.08 1.11 2 2.22 3.43 2.22h.62a.36.36 0 0 0 .36-.36.35.35 0 0 0-.36-.37h-.62c-1.16 0-2-1-2.92-2 1-1 1.76-2 2.92-2h.62a.35.35 0 0 0 .36-.37.36.36 0 0 0-.36-.36h-.62c-1.49 0-2.43 1.17-3.43 2.22m-.51.53c-.94 1-1.75 2-2.93 2a2 2 0 0 1 0-4c1.18-.04 1.99.99 2.93 1.98z"/><path d="M85.02 14.31a7.11 7.11 0 0 1-1 3.05c-.31.48-1.19 1.38-1.71 1.38-.19 0-.45-.29-.57-.54a.71.71 0 0 1-.07-.32c.16-.76.73-3 1-4.11a.67.67 0 0 1 .26-.39 5.58 5.58 0 0 1 1.24-.15 1 1 0 0 1 .93 1.08m1.27.11a1.72 1.72 0 0 0-1.93-1.93c-.21 0-.85.1-1.37.16-.05 0-.13-.09-.13-.16a5 5 0 0 0 .18-.87c0-.21-.46-.49-.56-.49a.83.83 0 0 0-.4.24 4.37 4.37 0 0 0-.54 1.4s0 .09-.22.17c-.38.19-1 .38-1.13.51a1.22 1.22 0 0 0-.28.52.2.2 0 0 0 .25.13c.27-.11.79-.27 1-.33.06 0 .12.11.12.16-.41 1.84-1.41 6.46-1.8 7.53-.18.49-.29.64-1.15.79a.63.63 0 0 0-.41.45c0 .11.14.22.49.22h1.26c.81 0 1.65.09 1.7.09.38 0 .6-.17.6-.34s-.27-.27-.44-.31c-.78-.2-.83-.39-.73-.95a21.15 21.15 0 0 1 .46-2.08s.12-.13.17-.11a2.46 2.46 0 0 0 .8.2 4 4 0 0 0 1.86-1c.54-.46 2.12-2.24 2.12-4zm5.96 8.63.31-.35c-2.17-1.85-3-4.74-3-7.58s.81-5.76 3-7.6l-.31-.35a9.44 9.44 0 0 0-3.91 8 9.43 9.43 0 0 0 3.91 7.93m9.02-9.1a.94.94 0 0 0 .37-.74.79.79 0 0 0-.75-.77 2.09 2.09 0 0 0-1.54.85 18.66 18.66 0 0 0-1.26 1.55c0 .05-.11 0-.14 0l-.33-1c-.18-.55-.4-1.36-1-1.36s-1.47.93-1.75 1.47a2 2 0 0 0-.19.41c0 .19.25.43.32.33.33-.46.93-1 1.17-1s.34.29.48.73.25.83.48 1.5a1.39 1.39 0 0 1-.16.39c-.73 1.26-1.37 2-1.75 2-.21 0-.48-.26-.57-.53s-.29-.08-.34 0a1.55 1.55 0 0 0-.62 1 .86.86 0 0 0 .81.78c1 0 2-1.54 2.72-2.47 0 0 .19-.07.21 0 .09.29.2.62.32.92.22.59.47 1.43 1.22 1.43a2.11 2.11 0 0 0 1.81-1.76c0-.14-.11-.29-.17-.29s-.16 0-.32.26c-.4.54-.67.57-.86.57-.41 0-.71-.75-1.13-2.21a.61.61 0 0 1 .08-.32c.62-1 1.59-2.11 1.88-2.11.12 0 .25.17.33.39s.13.26.24.26a.81.81 0 0 0 .49-.18m2.78 1.61a.47.47 0 0 0-.38.29c-.09.18-.32.71-.39.82a.28.28 0 0 1-.13.11h-.75a.54.54 0 0 0-.2.37c0 .1.05.15.09.16h.74v.1c-.21.66-.75 2.58-.88 3.07a3 3 0 0 0-.09.53c0 .08.13.44.42.44a3.63 3.63 0 0 0 1.74-1.21.65.65 0 0 0 .14-.4c0-.07-.13-.19-.17-.15-.37.32-.82.69-1 .69s-.13-.1 0-.48c.34-1.18.65-2.27.74-2.5a.18.18 0 0 1 .12-.11h1.08c.06 0 .24-.37.24-.45s0-.13-.08-.13h-1.06a.09.09 0 0 1-.1-.1 9.27 9.27 0 0 0 .28-1s-.17-.1-.33-.1m3.92-8.49h-.63v15.86h.63V7.19m4.69 5.3a2.75 2.75 0 0 0-1.65.74 2.24 2.24 0 0 0-.82 1.6c0 .38.17.56.31.56a1.65 1.65 0 0 0 .75-.43c.05-.07.14-.21.13-.26a3.51 3.51 0 0 1-.12-.71.55.55 0 0 1 .53-.56 5.19 5.19 0 0 1 1.33.32 10.13 10.13 0 0 0 1.13.25c.05 0 0 .15 0 .2a43.08 43.08 0 0 0-3.56 3.19c-.76.81-1.05 1.33-1.05 1.56s.16.52.34.52a.56.56 0 0 0 .38-.32c.19-.36.55-.81.92-.81s.56.08 1.16.54 1 .83 1.51.83a2.44 2.44 0 0 0 1.41-.73 2 2 0 0 0 .86-1.4c0-.43-.17-.91-.79-.91a.27.27 0 0 0-.19.28 2.49 2.49 0 0 1 .11.73c0 .79-.46 1-.67 1a1.68 1.68 0 0 1-1-.39 3.42 3.42 0 0 0-1.92-.74s-.11-.08-.08-.13c.33-.4 3.72-3.31 4.65-4.07.19-.16.37-.36.37-.54a.67.67 0 0 0-.3-.41.54.54 0 0 0-.35.2 2.43 2.43 0 0 1-1 .64 3.13 3.13 0 0 1-.89-.24 5.78 5.78 0 0 0-1.51-.48m6.67 3.19a.47.47 0 0 0-.38.29c-.09.18-.32.71-.39.82a.28.28 0 0 1-.13.11h-.75a.54.54 0 0 0-.2.37c0 .1 0 .15.09.16h.74v.1c-.21.66-.75 2.58-.88 3.07a3 3 0 0 0-.09.53c0 .08.13.44.42.44a3.63 3.63 0 0 0 1.74-1.21.65.65 0 0 0 .14-.4c0-.07-.13-.19-.17-.15a2.85 2.85 0 0 1-1 .69c-.1 0-.13-.1 0-.48.34-1.18.65-2.27.74-2.5a.18.18 0 0 1 .12-.11h1.08c.06 0 .24-.37.24-.45s0-.13-.08-.13h-1.06a.09.09 0 0 1-.1-.1 9.27 9.27 0 0 0 .28-1s-.17-.1-.33-.1m3.31 7.39a9.43 9.43 0 0 0 3.91-7.93 9.44 9.44 0 0 0-3.91-7.95l-.3.35c2.16 1.84 3 4.74 3 7.6s-.81 5.73-3 7.58l.3.35" class="cls-4"/><path d="M132.24 28.92a.65.65 0 0 0 .16.4 4 4 0 0 0 2.43.8c3.33 0 4.09-4.12 4.72-7.73l2.6-14.62c.36-2.07 1.39-7 3.35-7a2.18 2.18 0 0 1 1.49.6.57.57 0 0 0 1.12-.17.59.59 0 0 0-.16-.43 4.11 4.11 0 0 0-2.41-.79c-3.34 0-4.11 4.11-4.74 7.72l-2.59 14.67c-.35 2.07-1.4 7-3.36 7a2.13 2.13 0 0 1-1.49-.63.55.55 0 0 0-.54-.37.57.57 0 0 0-.56.57"/><path d="M158.22 14.31a7.27 7.27 0 0 1-1 3.05c-.32.48-1.2 1.38-1.72 1.38-.19 0-.45-.29-.57-.54a.71.71 0 0 1-.07-.32c.16-.76.73-3 1-4.11a.67.67 0 0 1 .26-.39 5.58 5.58 0 0 1 1.24-.15 1 1 0 0 1 .93 1.08m1.27.11a1.72 1.72 0 0 0-1.93-1.93c-.21 0-.85.1-1.37.16-.05 0-.13-.09-.13-.16a5 5 0 0 0 .18-.87c0-.21-.46-.49-.56-.49a.83.83 0 0 0-.4.24 4.66 4.66 0 0 0-.46 1.43s-.05.09-.22.17c-.38.19-1 .38-1.13.51a1.22 1.22 0 0 0-.28.52.2.2 0 0 0 .25.13c.27-.11.79-.27 1-.33.06 0 .12.11.12.16-.43 1.84-1.44 6.43-1.82 7.5-.18.49-.29.64-1.15.79a.63.63 0 0 0-.41.45c0 .11.14.22.49.22H153c.81 0 1.65.09 1.7.09.38 0 .6-.17.6-.34s-.27-.27-.44-.31c-.78-.2-.83-.39-.73-.95a21.15 21.15 0 0 1 .46-2.08s.12-.13.17-.11a2.46 2.46 0 0 0 .8.2 4 4 0 0 0 1.86-1c.53-.46 2.07-2.24 2.07-4zm5.97 8.63.31-.35c-2.17-1.85-3-4.74-3-7.58s.81-5.76 3-7.6l-.31-.35a9.44 9.44 0 0 0-3.91 8 9.43 9.43 0 0 0 3.91 7.93m4.89-10.61a2.75 2.75 0 0 0-1.65.74 2.25 2.25 0 0 0-.83 1.6c0 .38.18.56.32.56a1.65 1.65 0 0 0 .75-.43c.05-.07.14-.21.13-.26a3.51 3.51 0 0 1-.12-.71.55.55 0 0 1 .53-.56 5.19 5.19 0 0 1 1.33.32 10.13 10.13 0 0 0 1.13.25c.05 0 0 .15 0 .2a43.08 43.08 0 0 0-3.56 3.19c-.76.81-1.05 1.33-1.05 1.56s.16.52.34.52a.56.56 0 0 0 .38-.32c.19-.36.55-.81.92-.81s.56.08 1.16.54 1 .83 1.51.83a2.44 2.44 0 0 0 1.41-.73 2 2 0 0 0 .86-1.4c0-.43-.17-.91-.79-.91a.27.27 0 0 0-.19.28 2.49 2.49 0 0 1 .11.73c0 .79-.46 1-.67 1a1.68 1.68 0 0 1-1-.39 3.42 3.42 0 0 0-1.92-.74s-.11-.08-.08-.13c.33-.4 3.72-3.31 4.65-4.07a.83.83 0 0 0 .37-.54.67.67 0 0 0-.3-.41.54.54 0 0 0-.35.2 2.43 2.43 0 0 1-1 .64 3.13 3.13 0 0 1-.89-.24 5.78 5.78 0 0 0-1.51-.48m6.54 3.19a.47.47 0 0 0-.38.29c-.09.18-.32.71-.39.82a.28.28 0 0 1-.13.11h-.75a.54.54 0 0 0-.2.37c0 .1 0 .15.09.16h.74v.1c-.21.66-.75 2.58-.88 3.07a3 3 0 0 0-.09.53c0 .08.13.44.42.44a3.63 3.63 0 0 0 1.74-1.21.65.65 0 0 0 .14-.4c0-.07-.13-.19-.17-.15a2.85 2.85 0 0 1-1 .69c-.1 0-.13-.1 0-.48.34-1.18.65-2.27.74-2.5a.18.18 0 0 1 .12-.11h1.08c.06 0 .24-.37.24-.45s0-.13-.08-.13h-1.06a.09.09 0 0 1-.1-.1 9.27 9.27 0 0 0 .28-1s-.17-.1-.33-.1m3.97-8.49h-.63v15.86h.63V7.19m4.67 5.3a2.75 2.75 0 0 0-1.65.74 2.24 2.24 0 0 0-.82 1.6c0 .38.17.56.31.56a1.65 1.65 0 0 0 .75-.43c.05-.07.14-.21.13-.26a3.49 3.49 0 0 1-.11-.71.54.54 0 0 1 .52-.56 5.19 5.19 0 0 1 1.33.32 10.13 10.13 0 0 0 1.13.25c.05 0 0 .15 0 .2a43.08 43.08 0 0 0-3.56 3.19c-.76.81-1 1.33-1 1.56s.16.52.34.52a.56.56 0 0 0 .38-.32c.19-.36.55-.81.92-.81s.56.08 1.16.54 1 .83 1.51.83a2.44 2.44 0 0 0 1.41-.73 2 2 0 0 0 .86-1.4c0-.43-.17-.91-.79-.91a.27.27 0 0 0-.19.28 2.49 2.49 0 0 1 .11.73c0 .79-.46 1-.67 1a1.68 1.68 0 0 1-1-.39 3.42 3.42 0 0 0-1.92-.74c-.05 0-.12-.08-.08-.13.33-.4 3.72-3.31 4.65-4.07a.83.83 0 0 0 .37-.54.67.67 0 0 0-.3-.41.54.54 0 0 0-.35.2 2.43 2.43 0 0 1-1 .64 3.13 3.13 0 0 1-.89-.24 5.78 5.78 0 0 0-1.51-.48m6.62 3.19a.48.48 0 0 0-.38.29c-.09.18-.32.71-.39.82a.28.28 0 0 1-.13.11h-.75a.54.54 0 0 0-.2.37c0 .1.05.15.09.16h.74v.1c-.21.66-.75 2.58-.88 3.07a3 3 0 0 0-.09.53c0 .08.13.44.42.44a3.63 3.63 0 0 0 1.74-1.21.65.65 0 0 0 .14-.4c0-.07-.13-.19-.17-.15-.37.32-.82.69-1 .69s-.13-.1 0-.48c.34-1.18.65-2.27.74-2.5a.18.18 0 0 1 .12-.11h1.08c.06 0 .24-.37.24-.45s0-.13-.08-.13h-1.06a.09.09 0 0 1-.1-.1 9.27 9.27 0 0 0 .28-1s-.17-.1-.33-.1m1.87 3.02a.41.41 0 0 0-.17.11 1 1 0 0 0-.13.4.2.2 0 0 0 .18.22c.51 0 1.49-.07 2.21-.11a1 1 0 0 0 .18-.14 1.07 1.07 0 0 0 .11-.45s-.08-.22-.14-.22c-.29 0-2 .15-2.24.19m2.38 2.67c0 .11.16.18.38.18s.91-.06 1.62-.06h1.06c.22 0 .34-.1.34-.18s-.12-.18-.27-.22c-.74-.15-.86-.21-.67-1 .1-.47.7-2.71.9-3.47.27-1 .47-1.56.52-1.75a.14.14 0 0 0-.13-.16 1.68 1.68 0 0 0-.24.08 11 11 0 0 1-1.59.38c-.13 0-.3.11-.3.23s.19.17.3.18.46 0 .67 0 .08.14.06.22c-.06.26-.11.52-.5 2-.32 1.19-.51 1.74-.73 2.44-.15.5-.36.68-1 .79-.25.05-.46.1-.46.26m7.2 1.78a9.43 9.43 0 0 0 3.91-7.93 9.44 9.44 0 0 0-3.91-7.95l-.3.35c2.16 1.84 3 4.74 3 7.6s-.81 5.73-3 7.58l.3.35" class="cls-5"/><path d="M218.82 14.31a7.11 7.11 0 0 1-1.05 3.05c-.31.48-1.19 1.38-1.71 1.38-.19 0-.45-.29-.57-.54a.71.71 0 0 1-.07-.32c.16-.76.73-3 1-4.11a.67.67 0 0 1 .26-.39 5.58 5.58 0 0 1 1.24-.15 1 1 0 0 1 .93 1.08m1.28.11a1.73 1.73 0 0 0-1.94-1.93c-.21 0-.85.1-1.37.16-.05 0-.13-.09-.13-.16a5 5 0 0 0 .18-.87c0-.21-.46-.49-.56-.49a.83.83 0 0 0-.4.24 4.66 4.66 0 0 0-.46 1.43s0 .09-.22.17c-.38.19-1 .38-1.13.51a1.22 1.22 0 0 0-.28.52.2.2 0 0 0 .25.13c.27-.11.79-.27 1-.33.06 0 .12.11.12.16-.42 1.84-1.44 6.43-1.82 7.5-.18.49-.29.64-1.15.79a.63.63 0 0 0-.41.45c0 .11.14.22.49.22h1.26c.81 0 1.65.09 1.7.09.38 0 .6-.17.6-.34s-.27-.27-.44-.31c-.78-.2-.83-.39-.73-.95a21.15 21.15 0 0 1 .46-2.08s.12-.13.17-.11a2.46 2.46 0 0 0 .8.2 4 4 0 0 0 1.86-1c.53-.46 2.12-2.24 2.12-4zm5.9 8.63.31-.35c-2.17-1.85-3-4.74-3-7.58s.81-5.76 3-7.6l-.31-.35a9.44 9.44 0 0 0-3.91 8 9.43 9.43 0 0 0 3.91 7.93m4.92-10.61a2.75 2.75 0 0 0-1.65.74 2.25 2.25 0 0 0-.83 1.6c0 .38.18.56.32.56a1.65 1.65 0 0 0 .75-.43c.05-.07.14-.21.13-.26a3.51 3.51 0 0 1-.12-.71.55.55 0 0 1 .53-.56 5.19 5.19 0 0 1 1.33.32 10.13 10.13 0 0 0 1.13.25c.05 0 0 .15 0 .2a43.08 43.08 0 0 0-3.59 3.19c-.76.81-1.05 1.33-1.05 1.56s.16.52.34.52a.56.56 0 0 0 .38-.32c.19-.36.55-.81.92-.81s.56.08 1.16.54 1 .83 1.51.83a2.44 2.44 0 0 0 1.41-.73 2 2 0 0 0 .86-1.4c0-.43-.17-.91-.79-.91a.27.27 0 0 0-.19.28 2.49 2.49 0 0 1 .11.73c0 .79-.46 1-.67 1a1.68 1.68 0 0 1-1-.39 3.42 3.42 0 0 0-1.92-.74s-.11-.08-.08-.13c.33-.4 3.72-3.31 4.65-4.07a.83.83 0 0 0 .36-.58.67.67 0 0 0-.3-.41.54.54 0 0 0-.35.2 2.43 2.43 0 0 1-1 .64 3.13 3.13 0 0 1-.89-.24 5.78 5.78 0 0 0-1.51-.48m6.68 3.23a.48.48 0 0 0-.38.29c-.09.18-.32.71-.39.82a.28.28 0 0 1-.13.11h-.75a.54.54 0 0 0-.2.37c0 .1 0 .15.09.16h.74v.1c-.21.66-.75 2.58-.88 3.07a3 3 0 0 0-.09.53c0 .08.13.44.42.44a3.63 3.63 0 0 0 1.74-1.21.65.65 0 0 0 .14-.4c0-.07-.13-.19-.17-.15-.37.32-.82.69-1 .69s-.13-.1 0-.48c.33-1.18.65-2.27.74-2.5a.18.18 0 0 1 .12-.11h1.08c.06 0 .24-.37.24-.45s0-.13-.08-.13h-1.06a.09.09 0 0 1-.1-.1 9.27 9.27 0 0 0 .28-1s-.17-.1-.33-.1m1.87 3.02a.41.41 0 0 0-.17.11.89.89 0 0 0-.13.4.2.2 0 0 0 .18.22c.51 0 1.49-.07 2.21-.11 0 0 .15-.11.18-.14a1.07 1.07 0 0 0 .11-.45s-.08-.22-.14-.22c-.29 0-2 .15-2.24.19m2.38 2.67c0 .11.16.18.38.18s.91-.06 1.62-.06h1.06c.22 0 .34-.1.34-.18s-.12-.18-.27-.22c-.74-.15-.86-.21-.67-1 .1-.47.7-2.71.9-3.47.27-1 .47-1.56.52-1.75a.14.14 0 0 0-.13-.16 1.68 1.68 0 0 0-.24.08 11 11 0 0 1-1.59.38c-.13 0-.3.11-.3.23s.19.17.3.18.46 0 .67 0c.06 0 .08.14.06.22-.06.26-.11.52-.5 2-.32 1.19-.51 1.74-.73 2.44-.15.5-.36.68-1 .79-.25.05-.46.1-.46.26m7.71-14.1h-.58v15.86h.63V7.19m8.87 6.81a.94.94 0 0 0 .37-.74.79.79 0 0 0-.75-.77 2.09 2.09 0 0 0-1.54.85 18.66 18.66 0 0 0-1.26 1.55c0 .05-.11 0-.14 0l-.33-1c-.18-.55-.4-1.36-1-1.36s-1.47.93-1.75 1.47a2 2 0 0 0-.19.41c0 .19.25.43.32.33.33-.46.93-1 1.17-1s.34.29.48.73.25.83.48 1.5a1.39 1.39 0 0 1-.16.39c-.73 1.26-1.37 2-1.75 2-.21 0-.48-.26-.57-.53s-.29-.08-.34 0a1.59 1.59 0 0 0-.62 1 .86.86 0 0 0 .81.78c1 0 2-1.54 2.72-2.47 0 0 .19-.07.21 0 .09.29.2.62.32.92.22.59.47 1.43 1.22 1.43a2.11 2.11 0 0 0 1.8-1.86c0-.14-.11-.29-.17-.29s-.16 0-.32.26c-.4.54-.67.57-.86.57-.41 0-.71-.75-1.13-2.21a.61.61 0 0 1 .08-.32c.62-1 1.59-2.11 1.88-2.11.12 0 .25.17.33.39s.13.26.24.26a.81.81 0 0 0 .49-.18m.67 7.35c0 .11.16.18.38.18s.91-.06 1.62-.06h1.06c.22 0 .33-.1.33-.18s-.11-.18-.26-.22c-.74-.15-.86-.21-.67-1 .1-.47.7-2.71.9-3.47.27-1 .47-1.56.53-1.75a.16.16 0 0 0-.1-.08 1.68 1.68 0 0 0-.24.08 11 11 0 0 1-1.59.38c-.13 0-.3.11-.3.23s.19.17.3.18.46 0 .67 0c.06 0 .08.14.06.22-.06.26-.11.52-.51 2-.31 1.19-.5 1.74-.72 2.44-.15.5-.36.68-1 .79-.24.05-.46.1-.46.26m6.15-5.05a.67.67 0 1 0 .67.67.67.67 0 0 0-.67-.67m0 3.33a.67.67 0 1 0 .67.67.66.66 0 0 0-.67-.67zm3.97-3.92a.47.47 0 0 0-.38.29c-.09.18-.32.71-.39.82a.28.28 0 0 1-.13.11h-.75a.54.54 0 0 0-.2.37c0 .1 0 .15.09.16h.74v.1c-.21.66-.75 2.58-.88 3.07a3 3 0 0 0-.09.53c0 .08.13.44.42.44a3.63 3.63 0 0 0 1.74-1.21.65.65 0 0 0 .14-.4c0-.07-.13-.19-.17-.15-.37.32-.82.69-1 .69s-.13-.1 0-.48c.34-1.18.65-2.27.74-2.5a.18.18 0 0 1 .12-.11h1.08c.06 0 .24-.37.24-.45s0-.13-.08-.13h-1.06a.09.09 0 0 1-.1-.1 9.27 9.27 0 0 0 .28-1s-.17-.1-.33-.1m1.86 3.02a.46.46 0 0 0-.16.11 1 1 0 0 0-.13.4.2.2 0 0 0 .18.22c.51 0 1.49-.07 2.21-.11 0 0 .15-.11.18-.14a1.07 1.07 0 0 0 .11-.45s-.08-.22-.14-.22c-.29 0-2 .15-2.25.19m2.39 2.67c0 .11.16.18.38.18s.91-.06 1.62-.06h1.06c.22 0 .33-.1.33-.18s-.11-.18-.26-.22c-.74-.15-.86-.21-.67-1 .1-.47.7-2.71.9-3.47.27-1 .47-1.56.53-1.75a.16.16 0 0 0-.14-.16 1.68 1.68 0 0 0-.24.08 11 11 0 0 1-1.59.38c-.13 0-.3.11-.3.23s.19.17.3.18.46 0 .67 0 .08.14.06.22c-.06.26-.11.52-.51 2-.31 1.19-.5 1.74-.72 2.44-.15.5-.36.68-1 .79-.25.05-.46.1-.46.26m7.2 1.78a9.43 9.43 0 0 0 3.91-7.93 9.44 9.44 0 0 0-3.91-7.95l-.3.35c2.16 1.84 3 4.74 3 7.6s-.81 5.73-3 7.58l.3.35" class="cls-3"/><path d="M291.95 17.9a6.29 6.29 0 0 1 .74-2.46c.45-.85 1.55-2.33 2.52-2.33.12 0 .44.46.55.83a1.07 1.07 0 0 1 0 .43 7.14 7.14 0 0 1-1.37 2.65c-.52.64-1.21 1.34-1.81 1.34-.27 0-.65-.3-.65-.46m-1.24-.22a2.46 2.46 0 0 0 .25 1.14 1.27 1.27 0 0 0 1 .57 2 2 0 0 0 1-.3 9 9 0 0 0 2.28-2.07c.07-.06.17 0 .14.08-.13.45-.43 1.56-.43 1.72s.08.29.09.32a1 1 0 0 0 .62.25 3 3 0 0 0 2.31-1.78c0-.08.22-.59 0-.59s-.22.07-.33.2c-.38.49-.85.92-1.21.92a.41.41 0 0 1-.25-.08c-.05-.08 0-.13 0-.3.29-1.4.67-2.77 1-4.14.43-1.67 1-3.76 1.12-4.61.06-.35 0-.62-.16-.62a8.32 8.32 0 0 0-1.83.31c-.3.07-.35.2-.35.23a.48.48 0 0 0 .3.35c.59.21.67.27.65.5a25.81 25.81 0 0 1-.7 3c0 .07-.11.13-.17.08a2.41 2.41 0 0 0-.92-.32 3.27 3.27 0 0 0-1.78.7 6.53 6.53 0 0 0-2.66 4.44zm10.93-5.19a2.75 2.75 0 0 0-1.65.74 2.25 2.25 0 0 0-.83 1.6c0 .38.18.56.32.56a1.65 1.65 0 0 0 .75-.43c.05-.07.14-.21.13-.26a3.49 3.49 0 0 1-.11-.71.54.54 0 0 1 .52-.56 5.09 5.09 0 0 1 1.33.32 10.13 10.13 0 0 0 1.13.25c.05 0 0 .15 0 .2a43.08 43.08 0 0 0-3.56 3.19c-.76.81-1.05 1.33-1.05 1.56s.16.52.34.52a.56.56 0 0 0 .38-.32c.19-.36.55-.81.92-.81s.56.08 1.16.54 1 .83 1.51.83a2.44 2.44 0 0 0 1.41-.73 2 2 0 0 0 .86-1.4c0-.43-.17-.91-.79-.91a.27.27 0 0 0-.19.28 2.49 2.49 0 0 1 .11.73c0 .79-.46 1-.67 1a1.68 1.68 0 0 1-1-.39 3.42 3.42 0 0 0-1.92-.74c-.05 0-.11-.08-.08-.13.33-.4 3.72-3.31 4.65-4.07.19-.16.37-.36.37-.54a.67.67 0 0 0-.3-.41.54.54 0 0 0-.35.2 2.43 2.43 0 0 1-1 .64 3.13 3.13 0 0 1-.89-.24 5.78 5.78 0 0 0-1.51-.48m6.67 3.19a.47.47 0 0 0-.38.29c-.09.18-.32.71-.39.82a.28.28 0 0 1-.13.11h-.75a.54.54 0 0 0-.2.37c0 .1 0 .15.09.16h.74v.1c-.21.66-.75 2.58-.88 3.07a3 3 0 0 0-.09.53c0 .08.13.44.42.44a3.63 3.63 0 0 0 1.74-1.21.65.65 0 0 0 .14-.4c0-.07-.13-.19-.17-.15-.37.32-.82.69-1 .69s-.13-.1 0-.48c.34-1.18.65-2.27.74-2.5a.18.18 0 0 1 .12-.11h1.08c.06 0 .24-.37.24-.45s0-.13-.08-.13h-1.06a.09.09 0 0 1-.1-.1 9.27 9.27 0 0 0 .28-1s-.17-.1-.33-.1m1.77 3.02a.41.41 0 0 0-.13.09 1 1 0 0 0-.14.4.21.21 0 0 0 .19.22c.51 0 1.49-.07 2.21-.11 0 0 .15-.11.18-.14a1.07 1.07 0 0 0 .11-.45s-.08-.22-.14-.22c-.29 0-2 .15-2.24.19m2.44 2.69c0 .11.16.18.38.18s.91-.06 1.62-.06h1.06c.22 0 .33-.1.33-.18s-.11-.18-.26-.22c-.74-.15-.86-.21-.67-1 .1-.47.7-2.71.9-3.47.27-1 .47-1.56.53-1.75a.16.16 0 0 0-.14-.16 1.68 1.68 0 0 0-.24.08 11 11 0 0 1-1.59.38c-.13 0-.3.11-.3.23s.19.17.3.18.46 0 .67 0 .08.14.06.22c-.06.26-.11.52-.51 2-.31 1.19-.5 1.74-.72 2.44-.15.5-.36.68-1 .79-.25.05-.46.1-.46.26M137.71 38.35h1.35v-1.24h-1.35c-2.64 0-5.43-.61-6.52-2.9h-.3a.06.06 0 0 0-.05.05v.51c1.2 2.52 4.07 3.53 6.9 3.53"/><path d="M138.16 37.11v1.19h1.79v-1.19h-1.76"/><path d="M139.06 37.11v1.19h1.82v-1.19h-1.82"/><path d="M139.95 37.11v1.19h1.86v-1.19h-1.86"/><path d="M140.86 37.11v1.19h1.82v-1.19h-1.73"/><path d="M141.76 37.11v1.19h1.77v-1.19h-1.77"/><path d="M142.66 37.11v1.19h1.76v-1.19h-1.76"/><path d="M143.56 37.11v1.19h1.82v-1.19h-1.82"/><path d="M144.46 37.11v1.19h1.86v-1.19h-1.86"/><path d="M145.36 37.11v1.19h1.82v-1.19h-1.82"/><path d="M146.26 37.11v1.19h1.77v-1.19h-1.77"/><path d="M147.16 37.11v1.19h1.79v-1.19h-1.76"/><path d="M147.95 37.11v1.19h1.86v-1.19h-1.86"/><path d="M148.86 37.11v1.19h1.82v-1.19h-1.73"/><path d="M149.76 37.11v1.19h1.77v-1.19h-1.77"/><path d="M150.66 37.11v1.19h1.76v-1.19h-1.76"/><path d="M151.56 37.11v1.19h1.82v-1.19h-1.82"/><path d="M152.46 37.11v1.19h1.86v-1.19h-1.86"/><path d="M153.36 37.11v1.19h1.82v-1.19h-1.82"/><path d="M154.26 37.11v1.19h1.77v-1.19h-1.77"/><path d="M155.16 37.11v1.19h1.79v-1.19h-1.76"/><path d="M156.06 37.11v1.19h1.82v-1.19h-1.82"/><path d="M156.95 37.11v1.19h1.86v-1.19h-1.86"/><path d="M157.86 37.11v1.19h1.82v-1.19h-1.73"/><path d="M158.66 37.11v1.19h1.76v-1.19h-1.76"/><path d="M159.56 37.11v1.19h1.82v-1.19h-1.82"/><path d="M160.46 37.11v1.19h1.86v-1.19h-1.86"/><path d="M161.36 37.11v1.19h1.82v-1.19h-1.82"/><path d="M162.26 37.11v1.19h1.77v-1.19h-1.77"/><path d="M163.16 37.11v1.19h1.79v-1.19h-1.76"/><path d="M164.06 37.11v1.19h1.82v-1.19h-1.82"/><path d="M164.95 37.11v1.19h1.86v-1.19h-1.86"/><path d="M165.86 37.11v1.19h1.82v-1.19h-1.73"/><path d="M166.76 37.11v1.19h1.77v-1.19h-1.77"/><path d="M167.66 37.11v1.19h1.76v-1.19h-1.76"/><path d="M168.46 37.11v1.19h1.86v-1.19h-1.86"/><path d="M169.36 37.11v1.19h1.82v-1.19h-1.82"/><path d="M170.26 37.11v1.19h1.77v-1.19h-1.77"/><path d="M171.16 37.11v1.19h1.79v-1.19h-1.76"/><path d="M172.06 37.11v1.19h1.82v-1.19h-1.82"/><path d="M172.95 37.11v1.19h1.86v-1.19h-1.86"/><path d="M173.86 37.11v1.19h1.82v-1.19h-1.73"/><path d="M174.76 37.11v1.19h1.77v-1.19h-1.77"/><path d="M175.66 37.11v1.19h1.76v-1.19h-1.76"/><path d="M176.56 37.11v1.19h1.82v-1.19h-1.82"/><path d="M177.46 37.11v1.19h1.86v-1.19h-1.86"/><path d="M178.36 37.11v1.19h1.82v-1.19h-1.82"/><path d="M179.16 37.11v1.19h1.79v-1.19h-1.76"/><path d="M180.06 37.11v1.19h1.82v-1.19h-1.82"/><path d="M180.95 37.11v1.19h1.86v-1.19h-1.86"/><path d="M181.86 37.11v1.19h1.82v-1.19h-1.73"/><path d="M182.76 37.11v1.19h1.77v-1.19h-1.77"/><path d="M183.66 37.11v1.19h1.76v-1.19h-1.76"/><path d="M184.56 37.11v1.19h1.82v-1.19h-1.82"/><path d="M185.46 37.11v1.19h1.86v-1.19h-1.86"/><path d="M186.36 37.11v1.19h1.82v-1.19h-1.82"/><path d="M187.26 37.11v1.19h1.77v-1.19h-1.77"/><path d="M188.16 37.11v1.19h1.79v-1.19h-1.76"/><path d="M188.95 37.11v1.19h1.86v-1.19h-1.86"/><path d="M189.86 37.11v1.19h1.82v-1.19h-1.73"/><path d="M190.76 37.11v1.19h1.77v-1.19h-1.77"/><path d="M191.66 37.11v1.19h1.76v-1.19h-1.76"/><path d="M192.56 37.11v1.19h1.82v-1.19h-1.82"/><path d="M193.46 37.11v1.19h1.86v-1.19h-1.86"/><path d="M194.36 37.11v1.19h1.82v-1.19h-1.82"/><path d="M195.26 37.11v1.19h1.77v-1.19h-1.77"/><path d="M196.16 37.11v1.19h1.79v-1.19h-1.76"/><path d="M197.06 37.11v1.19h1.82v-1.19h-1.82"/><path d="M197.95 37.11v1.19h1.86v-1.19h-1.86"/><path d="M198.86 37.11v1.19h1.82v-1.19h-1.73"/><path d="M199.66 37.11v1.19h1.76v-1.19h-1.76"/><path d="M200.56 37.11v1.19h1.82v-1.19h-1.82"/><path d="M201.46 37.11v1.19h1.86v-1.19h-1.86"/><path d="M202.36 37.11v1.19h1.82v-1.19h-1.82"/><path d="M203.26 37.11v1.19h1.77v-1.19h-1.77"/><path d="M204.16 37.11v1.19h1.79v-1.19h-1.76"/><path d="M205.06 37.11v1.19h1.82v-1.19h-1.82"/><path d="M205.95 37.11v1.19h1.86v-1.19h-1.86"/><path d="M206.86 37.11v1.19h1.82v-1.19h-1.73"/><path d="M207.76 37.11v1.19h1.77v-1.19h-1.77"/><path d="M208.66 37.11v1.19h1.76v-1.19h-1.76"/><path d="M209.46 37.11v1.19h1.86v-1.19h-1.86"/><path d="M210.36 37.11v1.19h1.82v-1.19h-1.82"/><path d="M211.26 37.11v1.19h1.77v-1.19h-1.77"/><path d="M212.16 37.11v1.19h1.79v-1.19h-1.76"/><path d="M213.06 37.11v1.19h1.82v-1.19h-1.82"/><path d="M213.95 37.11v1.19h1.86v-1.19h-1.86"/><path d="M214.86 37.11v1.19h1.82v-1.19h-1.73"/><path d="M231.95 38.35h1.35v-1.24h-1.35c-3.12 0-6.57.54-7 3-.45-2.46-3.9-3-7-3h-1.29v1.19h1.29c3.26 0 6.82.16 6.82 2.88h.3c0-2.72 3.57-2.88 6.82-2.88"/><path d="M232.56 37.11v1.19h1.82v-1.19h-1.82"/><path d="M233.46 37.11v1.19h1.86v-1.19h-1.86"/><path d="M234.36 37.11v1.19h1.82v-1.19h-1.82"/><path d="M235.26 37.11v1.19h1.77v-1.19h-1.77"/><path d="M236.16 37.11v1.19h1.79v-1.19h-1.76"/><path d="M237.06 37.11v1.19h1.82v-1.19h-1.82"/><path d="M237.86 37.11v1.19h1.82v-1.19h-1.73"/><path d="M238.76 37.11v1.19h1.77v-1.19h-1.77"/><path d="M239.66 37.11v1.19h1.76v-1.19h-1.76"/><path d="M240.56 37.11v1.19h1.82v-1.19h-1.82"/><path d="M241.46 37.11v1.19h1.86v-1.19h-1.86"/><path d="M242.36 37.11v1.19h1.82v-1.19h-1.82"/><path d="M243.26 37.11v1.19h1.77v-1.19h-1.77"/><path d="M244.16 37.11v1.19h1.79v-1.19h-1.76"/><path d="M245.06 37.11v1.19h1.82v-1.19h-1.82"/><path d="M245.95 37.11v1.19h1.86v-1.19h-1.86"/><path d="M246.86 37.11v1.19h1.82v-1.19h-1.73"/><path d="M247.76 37.11v1.19h1.77v-1.19h-1.77"/><path d="M248.56 37.11v1.19h1.81v-1.19h-1.81"/><path d="M249.46 37.11v1.19h1.86v-1.19h-1.86"/><path d="M250.36 37.11v1.19h1.82v-1.19h-1.82"/><path d="M251.26 37.11v1.19h1.77v-1.19h-1.77"/><path d="M252.16 37.11v1.19h1.79v-1.19h-1.77"/><path d="M253.06 37.11v1.19h1.81v-1.19h-1.81"/><path d="M253.95 37.11v1.19h1.86v-1.19h-1.86"/><path d="M254.86 37.11v1.19h1.77v-1.19h-1.68"/><path d="M255.76 37.11v1.19h1.82v-1.19h-1.82"/><path d="M256.66 37.11v1.19h1.82v-1.19h-1.82"/><path d="M257.56 37.11v1.19h1.86v-1.19h-1.86"/><path d="M258.36 37.11v1.19h1.77v-1.19h-1.77"/><path d="M259.26 37.11v1.19h1.82v-1.19h-1.82"/><path d="M260.16 37.11v1.19H262v-1.19h-1.82"/><path d="M261.06 37.11v1.19h1.86v-1.19h-1.86"/><path d="M261.95 37.11v1.19h1.86v-1.19h-1.86"/><path d="M262.86 37.11v1.19h1.77v-1.19h-1.68"/><path d="M263.76 37.11v1.19h1.82v-1.19h-1.82"/><path d="M264.66 37.11v1.19h1.82v-1.19h-1.82"/><path d="M265.56 37.11v1.19h1.86v-1.19h-1.86"/><path d="M266.46 37.11v1.19h1.86v-1.19h-1.86"/><path d="M267.36 37.11v1.19h1.77v-1.19h-1.77"/><path d="M268.16 37.11v1.19H270v-1.19h-1.82"/><path d="M269.06 37.11v1.19h1.86v-1.19h-1.86"/><path d="M269.95 37.11v1.19h1.86v-1.19h-1.86"/><path d="M270.86 37.11v1.19h1.77v-1.19h-1.68"/><path d="M271.76 37.11v1.19h1.82v-1.19h-1.82"/><path d="M272.66 37.11v1.19h1.82v-1.19h-1.82"/><path d="M273.56 37.11v1.19h1.86v-1.19h-1.86"/><path d="M274.46 37.11v1.19h1.86v-1.19h-1.86"/><path d="M275.36 37.11v1.19h1.77v-1.19h-1.77"/><path d="M276.26 37.11v1.19h1.82v-1.19h-1.82"/><path d="M277.16 37.11v1.19H279v-1.19h-1.82"/><path d="M278.06 37.11v1.19h1.86v-1.19h-1.86"/><path d="M278.86 37.11v1.19h1.77v-1.19h-1.68"/><path d="M279.76 37.11v1.19h1.82v-1.19h-1.82"/><path d="M280.66 37.11v1.19h1.82v-1.19h-1.82"/><path d="M281.56 37.11v1.19h1.86v-1.19h-1.86"/><path d="M282.46 37.11v1.19h1.86v-1.19h-1.86"/><path d="M283.36 37.11v1.19h1.77v-1.19h-1.77"/><path d="M284.26 37.11v1.19h1.82v-1.19h-1.82"/><path d="M285.16 37.11v1.19H287v-1.19h-1.82"/><path d="M286.06 37.11v1.19h1.86v-1.19h-1.86"/><path d="M286.95 37.11v1.19h1.86v-1.19h-1.86"/><path d="M287.86 37.11v1.19h1.77v-1.19h-1.68"/><path d="M288.66 37.11v1.19h1.82v-1.19h-1.82"/><path d="M289.56 37.11v1.19h1.86v-1.19h-1.86"/><path d="M290.46 37.11v1.19h1.86v-1.19h-1.86"/><path d="M291.36 37.11v1.19h1.77v-1.19h-1.77"/><path d="M292.26 37.11v1.19h1.82v-1.19h-1.82"/><path d="M293.16 37.11v1.19H295v-1.19h-1.82"/><path d="M294.06 37.11v1.19h1.86v-1.19h-1.86"/><path d="M294.95 37.11v1.19h1.86v-1.19h-1.86"/><path d="M295.86 37.11v1.19h1.77v-1.19h-1.68"/><path d="M296.76 37.11v1.19h1.82v-1.19h-1.82"/><path d="M297.66 37.11v1.19h1.82v-1.19h-1.82"/><path d="M298.56 37.11v1.19h1.86v-1.19h-1.86"/><path d="M299.36 37.11v1.19h1.77v-1.19h-1.77"/><path d="M300.26 37.11v1.19h1.82v-1.19h-1.82"/><path d="M301.16 37.11v1.19H303v-1.19h-1.82"/><path d="M302.06 37.11v1.19h1.86v-1.19h-1.86"/><path d="M302.95 37.11v1.19h1.86v-1.19h-1.86"/><path d="M303.86 37.11v1.19h1.77v-1.19h-1.68"/><path d="M304.76 37.11v1.19h1.82v-1.19h-1.82"/><path d="M305.66 37.11v1.19h1.82v-1.19h-1.82"/><path d="M306.56 37.11v1.19h1.86v-1.19h-1.86"/><path d="M307.46 37.11v1.19h1.86v-1.19h-1.86"/><path d="M308.36 37.11v1.19h1.77v-1.19h-1.77"/><path d="M309.16 37.11v1.19H311v-1.19h-1.82"/><path d="M312.12 37.07h-1.34v1.19h1.34c2.84 0 5.72-1 6.91-3.53v-.6a.06.06 0 0 0-.05-.05h-.3c-.14 0-.76 2.93-6.58 2.93"/><path d="M162.2 49.01a2.2 2.2 0 0 0-1 .29 1.25 1.25 0 0 0-.57 1 1.38 1.38 0 0 0 .81 1.21c.33.19.59.31.88.49a.77.77 0 0 1 .4.63.72.72 0 0 1-.78.69 1.33 1.33 0 0 1-1-.72c-.14-.22-.22-.3-.29-.3s-.2.08-.2.37a1.67 1.67 0 0 0 .23.8 1.6 1.6 0 0 0 1.13.28 2.2 2.2 0 0 0 1-.21 1.32 1.32 0 0 0 .84-1.22c0-.66-.49-1-1.07-1.31s-1.06-.45-1.06-1a.68.68 0 0 1 .65-.66 1.08 1.08 0 0 1 .84.65c.1.2.2.3.25.3s.25-.25.25-.33a3.83 3.83 0 0 0 0-.61.5.5 0 0 0-.19-.22 2.92 2.92 0 0 0-.35-.1 2.23 2.23 0 0 0-.71-.09m3.69.19c-.08 0-.09-.09-.09-.13v-.55c0-.12-.06-.17-.1-.17a.75.75 0 0 0-.45.29 4.66 4.66 0 0 1-.8.67c-.1.09-.23.19-.23.24a.49.49 0 0 0 .33.32c.31 0 .35.06.35.18 0 1.06-.06 1.74-.06 2.52a1.48 1.48 0 0 0 .16.79 1.24 1.24 0 0 0 1 .52 2 2 0 0 0 1.14-.35.54.54 0 0 0 .27-.39c0-.09-.06-.17-.1-.17a2 2 0 0 0-.25.07 2 2 0 0 1-.51.1 1 1 0 0 1-.61-.25c-.13-.15-.18-.33-.16-.83v-2c0-.13.06-.17.08-.17h1.26c.12 0 .22 0 .26-.15a3.33 3.33 0 0 0 0-.35c0-.07-.07-.19-.15-.19h-1.37m3.88 3.92a.74.74 0 0 1-.74-.69c0-.28.1-.41.41-.52a11.57 11.57 0 0 1 1.19-.29s.09 0 .09.07v.71a1.18 1.18 0 0 1-.09.34 1.38 1.38 0 0 1-.85.38m.45-4a2.75 2.75 0 0 0-1.32.5c-.48.33-.8.68-.8.87a.32.32 0 0 0 .13.18 1.93 1.93 0 0 0 .47.05.78.78 0 0 0 .33-.09.36.36 0 0 0 .1-.24 1.1 1.1 0 0 1 .11-.55 1 1 0 0 1 .5-.14 1 1 0 0 1 1 .62.89.89 0 0 1 0 .29v.43a.2.2 0 0 1-.12.16 9.81 9.81 0 0 1-1.89.54 1 1 0 0 0-.45.32.84.84 0 0 0-.17.54 1.26 1.26 0 0 0 1.06 1.23 1.19 1.19 0 0 0 .59-.16 8.32 8.32 0 0 0 .86-.54s.11.05.11.06a.78.78 0 0 0 .8.69 1 1 0 0 0 .81-.4 1.66 1.66 0 0 0 .1-.29c0-.09-.05-.2-.1-.18a1.34 1.34 0 0 1-.38.1c-.21 0-.4-.18-.4-.55v-2.14a1.62 1.62 0 0 0-.38-1 1.34 1.34 0 0 0-.97-.35zm4.11.08c-.08 0-.09-.09-.09-.13v-.55c0-.12-.06-.17-.1-.17a.75.75 0 0 0-.45.29 4.66 4.66 0 0 1-.8.67c-.1.09-.23.19-.23.24a.49.49 0 0 0 .33.32c.31 0 .35.06.35.18 0 1.06-.06 1.74-.06 2.52a1.48 1.48 0 0 0 .16.79 1.24 1.24 0 0 0 1 .52 2 2 0 0 0 1.14-.35.54.54 0 0 0 .27-.39c0-.09-.06-.17-.11-.17s-.14 0-.24.07a2 2 0 0 1-.51.1 1 1 0 0 1-.61-.25c-.13-.15-.18-.33-.16-.83v-2c0-.13.06-.17.08-.17h1.26c.12 0 .22 0 .26-.15a3.33 3.33 0 0 0 0-.35c0-.07-.07-.19-.15-.19h-1.37m4.31.27c.59 0 .86.3.86.63s-.52.41-.94.41h-.81a.1.1 0 0 1-.07-.11 1.21 1.21 0 0 1 1-.9m.33-.4a2.36 2.36 0 0 0-1.3.38 2.45 2.45 0 0 0-1.08 2.11 2.09 2.09 0 0 0 2.18 2.3 2.22 2.22 0 0 0 1.6-.69.51.51 0 0 0 .14-.34c0-.13-.09-.18-.13-.15a2.22 2.22 0 0 1-1.13.43 1.7 1.7 0 0 1-1.7-1.76 1.08 1.08 0 0 1 0-.34.31.31 0 0 1 .18-.13h2.4c.11 0 .3-.21.3-.33a1.44 1.44 0 0 0-.19-.78 1.52 1.52 0 0 0-1.34-.73zm6.93 4.05a1.11 1.11 0 0 1-.59-.14c-.16-.13-.27-.26-.28-.86v-2.65c0-.23 0-.36-.11-.36s-.86.06-1.11.06c0 0-.34 0-.34.19s.11.19.23.26a.67.67 0 0 1 .42.49v2.69a1 1 0 0 0 .26.64 1.29 1.29 0 0 0 .88.38 2.88 2.88 0 0 0 1.74-.72h.1v.52c0 .08.08.19.12.19a3 3 0 0 0 .48-.08 6.82 6.82 0 0 1 .91-.16.29.29 0 0 0 .19-.3s-.06-.19-.09-.19l-.56.07s-.17 0-.18-.43 0-2.89 0-3.37c0-.12-.08-.26-.13-.26h-1.32c-.15 0-.28.11-.28.18s.11.19.26.24l.37.15c.08 0 .17.22.17.35v2.26a.83.83 0 0 1-.31.53 1.81 1.81 0 0 1-.81.24m5.8-3.34c1 0 1.43 1 1.43 1.86a2.1 2.1 0 0 1-.52 1.38 1.19 1.19 0 0 1-.87.36 1.37 1.37 0 0 1-1-.6c-.07-.1-.1-.25-.1-.9v-1.66a.33.33 0 0 1 .15-.21 1.5 1.5 0 0 1 .84-.23m.49-.65a1.84 1.84 0 0 0-.68.13 5.51 5.51 0 0 0-.74.37.08.08 0 0 1-.11-.06v-.44a.25.25 0 0 0-.16-.16 1.05 1.05 0 0 0-.38.17 5.73 5.73 0 0 1-.71.34c-.12.07-.26.21-.26.31s0 .09.2.19c.36.25.38.34.38.42v3c0 .69 0 1.29-.06 2 0 .38-.09.59-.62.74-.21.06-.3.16-.3.22s.19.2.32.2.71-.1 1.17-.1h1c.07 0 .31-.09.31-.21s-.07-.15-.33-.22c-.57-.17-.6-.29-.6-.45v-1.41c0-.09.07-.23.11-.22a2.49 2.49 0 0 0 .41 0 4.19 4.19 0 0 0 1.23-.23 2.54 2.54 0 0 0 1.68-2.42 2.33 2.33 0 0 0-.71-1.65 1.72 1.72 0 0 0-1.08-.52zm5.4.47a1.38 1.38 0 0 1 1.15.55 1.23 1.23 0 0 1 .09.44v2.1a.59.59 0 0 1-.11.28 1.65 1.65 0 0 1-.87.27 1.75 1.75 0 0 1-1.54-1.88 1.87 1.87 0 0 1 .53-1.45 1.13 1.13 0 0 1 .75-.31m.47-.48a3.28 3.28 0 0 0-1.55.44 2.46 2.46 0 0 0-1.24 2.17 2.06 2.06 0 0 0 2.12 2.15 3.43 3.43 0 0 0 1.38-.55.05.05 0 0 1 .08 0v.46c0 .13.14.14.2.14s.65-.15 1.42-.32a.42.42 0 0 0 .24-.3c0-.13-.09-.2-.15-.19a5.34 5.34 0 0 1-.62.06c-.09 0-.19-.09-.2-.44s0-.52 0-2.76v-3.13c0-.52 0-.68-.14-.68s-1.12.19-1.38.26-.23.12-.23.15a.28.28 0 0 0 .21.23c.49.13.54.16.57.53s0 1.59 0 1.66 0 .13-.09.12a3.39 3.39 0 0 0-.62 0zm4.89 4.05a.74.74 0 0 1-.74-.69c0-.28.1-.41.41-.52a11.57 11.57 0 0 1 1.19-.29s.09 0 .09.07v.71a1.18 1.18 0 0 1-.09.34 1.38 1.38 0 0 1-.85.38m.45-4a2.75 2.75 0 0 0-1.32.5c-.48.33-.8.68-.8.87a.32.32 0 0 0 .13.18 1.93 1.93 0 0 0 .47.05.78.78 0 0 0 .33-.09.42.42 0 0 0 .1-.24 1.1 1.1 0 0 1 .11-.55 1 1 0 0 1 .5-.14 1 1 0 0 1 1 .62.89.89 0 0 1 0 .29v.43a.2.2 0 0 1-.12.16 9.81 9.81 0 0 1-1.89.54 1 1 0 0 0-.45.32.84.84 0 0 0-.17.54 1.26 1.26 0 0 0 1.01 1.23 1.19 1.19 0 0 0 .59-.16 8.32 8.32 0 0 0 .86-.54s.11.05.11.06a.78.78 0 0 0 .8.69 1 1 0 0 0 .81-.4 1.66 1.66 0 0 0 .1-.29c0-.09-.06-.2-.1-.18a1.34 1.34 0 0 1-.38.1c-.21 0-.4-.18-.4-.55v-2.14a1.62 1.62 0 0 0-.38-1 1.34 1.34 0 0 0-.97-.35zm4.16.08c-.08 0-.09-.09-.09-.13v-.55c0-.12-.06-.17-.1-.17a.75.75 0 0 0-.45.29 4.66 4.66 0 0 1-.8.67c-.1.09-.23.19-.23.24a.49.49 0 0 0 .33.32c.31 0 .35.06.35.18 0 1.06-.06 1.74-.06 2.52a1.48 1.48 0 0 0 .16.79 1.24 1.24 0 0 0 1 .52 2 2 0 0 0 1.14-.35.52.52 0 0 0 .26-.39c0-.09-.05-.17-.09-.17a2 2 0 0 0-.25.07 2 2 0 0 1-.51.1 1 1 0 0 1-.61-.25c-.13-.15-.18-.33-.16-.83v-2c0-.13.06-.17.08-.17h1.26c.12 0 .22 0 .25-.15a1.68 1.68 0 0 0 0-.35c0-.07-.07-.19-.15-.19h-1.37m4.22.27c.59 0 .86.3.86.63s-.51.41-.94.41h-.81a.1.1 0 0 1-.07-.11 1.21 1.21 0 0 1 1-.9m.33-.4a2.36 2.36 0 0 0-1.3.38 2.45 2.45 0 0 0-1.08 2.11 2.09 2.09 0 0 0 2.18 2.3 2.22 2.22 0 0 0 1.6-.69.51.51 0 0 0 .14-.34c0-.13-.09-.18-.13-.15a2.22 2.22 0 0 1-1.13.43 1.7 1.7 0 0 1-1.7-1.76 1.08 1.08 0 0 1 0-.34.31.31 0 0 1 .18-.13h2.4c.11 0 .3-.21.3-.33a1.44 1.44 0 0 0-.19-.78 1.52 1.52 0 0 0-1.31-.73z" class="cls-5"/><path d="M215.17 52.2a.66.66 0 0 0-.69.62.52.52 0 0 0 .41.46c.23.07.4.17.4.41s-.07.53-.63.87c-.18.1-.22.19-.22.27s.12.17.27.17a1.68 1.68 0 0 0 1.37-1.62c0-.62-.39-1.18-.91-1.18m6.28 3.73c-.78 0-1.62-.33-1.62-1.1a.82.82 0 0 1 .47-.74 2.22 2.22 0 0 1 .89-.16 7.11 7.11 0 0 1 1 .06.85.85 0 0 1 .76.78 1 1 0 0 1-.56.93 2.07 2.07 0 0 1-.95.23m-.45-6.49a1.11 1.11 0 0 1 1.1 1.22 1.82 1.82 0 0 1-.26 1 .85.85 0 0 1-.58.23c-.47 0-1.07-.34-1.07-1.32.01-.54.26-1.13.82-1.13zm.16-.43a2.5 2.5 0 0 0-1.29.43 1.58 1.58 0 0 0-.63 1.32 1.56 1.56 0 0 0 .84 1.38v.1a3 3 0 0 1-.8.57s-.05.08-.05.11a.91.91 0 0 0 .32.76.83.83 0 0 0 .33.16v.11c0 .02-.51.41-.69.55a.93.93 0 0 0-.23.58c0 1.07 1.29 1.42 2 1.42a3.38 3.38 0 0 0 1.88-.51 2 2 0 0 0 1-1.6 1.32 1.32 0 0 0-.43-.93 1.33 1.33 0 0 0-.86-.33h-1.82c-.06 0-.42-.06-.42-.38a.52.52 0 0 1 .25-.34.24.24 0 0 1 .17-.06h.3a2.37 2.37 0 0 0 1.41-.45 1.56 1.56 0 0 0 .6-1.27 1.68 1.68 0 0 0-.21-.78c.24 0 .72.07 1 .07a.25.25 0 0 0 .13-.19c0-.16-.08-.46-.17-.46h-1.21a1.34 1.34 0 0 1-.41-.08 3.35 3.35 0 0 0-1-.18zm4.47-2.31a.61.61 0 0 0-.64.63.55.55 0 0 0 .11.34.69.69 0 0 0 .48.25.63.63 0 0 0 .59-.63.88.88 0 0 0-.19-.46.48.48 0 0 0-.35-.13m-1 2.8a.35.35 0 0 0 .12.22c.33.21.43.34.44.43s0 .64 0 .87v1.62c0 .46-.07.55-.56.67-.16.05-.27.13-.27.23s.11.16.34.16h1.87c.15 0 .32 0 .32-.14s-.11-.21-.26-.26c-.41-.11-.45-.22-.46-.31s0-.31-.05-1.77v-2.05s-.06-.17-.11-.17a5.61 5.61 0 0 0-1.2.36c-.07.03-.15.08-.15.14zm2.5-.23c0 .1.12.17.28.23a.77.77 0 0 1 .51.4c.08.13.75 1.68 1 2.25s.45 1.42.48 1.5a.4.4 0 0 0 .25.19.34.34 0 0 0 .28-.23c.09-.27.31-.9.6-1.6.42-1 .71-1.58.91-2a.81.81 0 0 1 .57-.5c.17 0 .29-.13.29-.25s-.11-.17-.28-.17-.58.06-.78.06h-.61c-.18 0-.33 0-.33.19s.06.18.31.23.36.23.26.51c-.2.54-.62 1.52-.89 2.17h-.09c-.47-1.14-.89-2.19-.93-2.3s0-.32.15-.35.37-.13.37-.27-.1-.17-.25-.17h-.87c-.26 0-.74-.06-.85-.06s-.34.12-.34.19m7.39.12c.59 0 .86.3.86.63s-.51.41-.94.41h-.81a.1.1 0 0 1-.07-.11 1.21 1.21 0 0 1 1-.9m.33-.4a2.36 2.36 0 0 0-1.3.38 2.45 2.45 0 0 0-1.08 2.11 2.09 2.09 0 0 0 2.18 2.3 2.22 2.22 0 0 0 1.6-.69.51.51 0 0 0 .14-.34c0-.13-.09-.18-.13-.15a2.22 2.22 0 0 1-1.13.43 1.7 1.7 0 0 1-1.7-1.76 1.08 1.08 0 0 1 .05-.34.31.31 0 0 1 .18-.13h2.4c.11 0 .3-.21.3-.33a1.35 1.35 0 0 0-.19-.78 1.52 1.52 0 0 0-1.36-.73zm4.08-.03a2.2 2.2 0 0 0-1 .29 1.25 1.25 0 0 0-.57 1 1.38 1.38 0 0 0 .81 1.21c.33.19.59.31.88.49a.77.77 0 0 1 .4.63.72.72 0 0 1-.78.69 1.33 1.33 0 0 1-1-.72c-.14-.22-.22-.3-.29-.3s-.2.08-.2.37a1.79 1.79 0 0 0 .23.8 1.6 1.6 0 0 0 1.13.28 2.2 2.2 0 0 0 1-.21 1.32 1.32 0 0 0 .84-1.22c0-.66-.49-1-1.07-1.31s-1.06-.45-1.06-1a.68.68 0 0 1 .65-.66 1.08 1.08 0 0 1 .84.65c.1.2.2.3.25.3s.24-.25.24-.33a5.72 5.72 0 0 0 0-.61.5.5 0 0 0-.19-.22 2.92 2.92 0 0 0-.35-.1 2.23 2.23 0 0 0-.71-.09m8.18 1.31a5 5 0 0 1-.73 2.14c-.23.33-.84 1-1.21 1-.13 0-.31-.2-.4-.38a.39.39 0 0 1 0-.22c.11-.54.51-2.15.68-2.89a.48.48 0 0 1 .17-.27 4 4 0 0 1 .88-.11.72.72 0 0 1 .65.76m.9.07a1.22 1.22 0 0 0-1.37-1.35c-.14 0-.59.07-1 .12 0 0-.08-.07-.08-.12a4.34 4.34 0 0 0 .12-.61c0-.14-.33-.35-.39-.35a.57.57 0 0 0-.28.17 3.1 3.1 0 0 0-.32 1s0 .06-.16.12a7.21 7.21 0 0 0-.79.36.77.77 0 0 0-.2.36.14.14 0 0 0 .18.09c.18-.07.55-.19.71-.23s.09.08.09.11c-.3 1.29-1 4.52-1.28 5.27-.13.34-.21.44-.81.55a.46.46 0 0 0-.29.32c0 .07.1.15.35.15h.88c.57 0 1.16.07 1.19.07.27 0 .43-.13.43-.25s-.19-.19-.32-.21c-.54-.14-.57-.28-.51-.67.09-.56.2-.94.33-1.46 0 0 .08-.09.12-.08a1.69 1.69 0 0 0 .55.15 2.81 2.81 0 0 0 1.31-.68 4.51 4.51 0 0 0 1.5-2.86zm4.52 6.05.24-.3a6.57 6.57 0 0 1-2.2-5.27 6.62 6.62 0 0 1 2.2-5.28l-.24-.3a6.69 6.69 0 0 0 0 11.15m3.56-7.43a1.91 1.91 0 0 0-1.16.52 1.56 1.56 0 0 0-.58 1.12c0 .27.12.4.22.4a1.16 1.16 0 0 0 .53-.31s.1-.14.09-.17a2.26 2.26 0 0 1-.08-.51.37.37 0 0 1 .36-.39 3.6 3.6 0 0 1 .94.23c.3.07.6.15.79.17v.14a32 32 0 0 0-2.5 2.24c-.53.57-.73.94-.73 1.09s.11.37.23.37a.38.38 0 0 0 .27-.22c.13-.26.39-.57.65-.57s.38.06.81.38.7.58 1.06.58a1.74 1.74 0 0 0 1-.51 1.42 1.42 0 0 0 .61-1c0-.3-.13-.63-.56-.63a.19.19 0 0 0-.14.19 1.52 1.52 0 0 1 .08.51c0 .56-.32.68-.47.68a1.13 1.13 0 0 1-.7-.27 2.4 2.4 0 0 0-1.35-.52s-.08-.06-.06-.09c.24-.28 2.61-2.32 3.27-2.86a.58.58 0 0 0 .26-.37.48.48 0 0 0-.21-.3.4.4 0 0 0-.25.15 1.74 1.74 0 0 1-.67.45 2.07 2.07 0 0 1-.62-.17 3.94 3.94 0 0 0-1.06-.34m4.67 2.2a.33.33 0 0 0-.27.21l-.27.58a.25.25 0 0 1-.1.08 4.52 4.52 0 0 0-.53 0 .41.41 0 0 0-.14.26c0 .07 0 .1.06.11h.52v.07c-.15.47-.53 1.84-.63 2.19a1.81 1.81 0 0 0-.06.38s.09.31.3.31a2.64 2.64 0 0 0 1.24-.86.49.49 0 0 0 .09-.29s-.08-.13-.11-.11c-.27.23-.59.49-.74.49s-.1-.07 0-.34c.24-.84.46-1.61.52-1.78a.17.17 0 0 1 .09-.08h.77s.17-.26.17-.32 0-.1-.06-.1h-.75c-.05 0-.08 0-.07-.07a6.42 6.42 0 0 0 .2-.73s-.12-.07-.24-.07m3.15-5.84h-.54v11.13h.54V45.28m6.33 4.76a.67.67 0 0 0 .25-.52.55.55 0 0 0-.52-.54 1.44 1.44 0 0 0-1.08.6 13.78 13.78 0 0 0-.89 1.09h-.1c-.06-.21-.16-.51-.23-.73-.12-.38-.28-.95-.74-.95s-1 .65-1.22 1a1.63 1.63 0 0 0-.14.29c0 .13.18.3.23.24.23-.33.65-.73.82-.73s.24.2.34.51.17.58.33 1.05a.93.93 0 0 1-.11.28c-.51.88-1 1.37-1.23 1.37a.54.54 0 0 1-.4-.37c0-.08-.2-.05-.24 0a1.08 1.08 0 0 0-.43.72.6.6 0 0 0 .57.54c.67 0 1.42-1.08 1.91-1.73h.14c.07.21.15.44.23.65.15.42.33 1 .85 1a1.5 1.5 0 0 0 1.28-1.24c0-.1-.08-.2-.13-.2s-.11 0-.22.18c-.28.38-.47.4-.6.4-.29 0-.5-.53-.79-1.55v-.23c.44-.68 1.12-1.48 1.32-1.48s.18.12.23.28.09.18.17.18a.6.6 0 0 0 .35-.13m.58 5.16c0 .08.11.13.27.13h1.9c.3 0 .24-.07.24-.12s-.08-.14-.19-.16c-.52-.11-.61-.15-.48-.7.08-.34.5-1.93.65-2.47.19-.71.33-1.12.37-1.25a.1.1 0 0 0-.09-.11h-.18a6.73 6.73 0 0 1-1.13.27c-.09 0-.21.08-.21.17s.13.12.21.13h.48s.06.1 0 .16-.08.37-.36 1.42c-.22.85-.36 1.24-.52 1.74s-.25.48-.68.56c-.17 0-.32.07-.32.18m4.44-3.67a.54.54 0 1 0 .53.54.53.53 0 0 0-.53-.54m0 2.49a.54.54 0 1 0 0 1.07.52.52 0 0 0 .53-.53.53.53 0 0 0-.53-.54zm2.98-2.78a.33.33 0 0 0-.28.21c-.06.12-.22.5-.27.58a.25.25 0 0 1-.1.08 4.52 4.52 0 0 0-.53 0 .41.41 0 0 0-.14.26c0 .07 0 .1.06.11h.52v.07c-.15.47-.53 1.84-.63 2.19a1.81 1.81 0 0 0-.06.38s.09.31.3.31a2.64 2.64 0 0 0 1.24-.86.49.49 0 0 0 .09-.29s-.08-.13-.11-.11c-.27.23-.59.49-.74.49s-.1-.07 0-.34c.24-.84.46-1.61.52-1.78a.17.17 0 0 1 .09-.08h.77s.17-.26.17-.32 0-.1-.06-.1h-.75c-.05 0-.08 0-.07-.07a6.42 6.42 0 0 0 .2-.73s-.12-.07-.23-.07m1.32 2.18a.28.28 0 0 0-.12.08.61.61 0 0 0-.1.29.15.15 0 0 0 .14.15c.36 0 1.06-.05 1.57-.08a.38.38 0 0 0 .13-.1.75.75 0 0 0 .08-.31s-.06-.16-.1-.16c-.21 0-1.43.1-1.6.13m1.78 1.9c0 .08.11.13.27.13h1.9c.3 0 .24-.07.24-.12s-.08-.14-.19-.16c-.52-.11-.61-.15-.48-.7.08-.34.5-1.93.65-2.47.19-.71.33-1.12.37-1.25a.1.1 0 0 0-.09-.11h-.18a6.73 6.73 0 0 1-1.13.27c-.09 0-.21.08-.21.17s.13.12.21.13h.48s.06.1 0 .16-.08.37-.36 1.42c-.22.85-.36 1.24-.52 1.74s-.25.48-.68.56c-.17 0-.32.07-.32.18m5.57 1.28a6.69 6.69 0 0 0 0-11.15l-.26.3a6.57 6.57 0 0 1 2.22 5.28 6.53 6.53 0 0 1-2.22 5.27l.26.3M86.31 66.77h1.4v-1.26h-1.4c-2.64 0-5.43-.61-6.51-2.9h-.3v.6c1.11 2.56 3.98 3.56 6.81 3.56"/><path d="M86.86 65.51v1.19h1.77v-1.19h-1.68"/><path d="M87.76 65.51v1.19h1.76v-1.19h-1.71"/><path d="M88.66 65.51v1.19h1.81v-1.19h-1.81"/><path d="M89.56 65.51v1.19h1.77v-1.19H89.6"/><path d="M90.46 65.51v1.19h1.82v-1.19H90.5"/><path d="M91.26 65.51v1.19h1.76v-1.19h-1.71"/><path d="M92.16 65.51v1.19h1.79v-1.19h-1.79"/><path d="M93.06 65.51v1.19h1.77v-1.19H93.1"/><path d="M93.95 65.51v1.19h1.82v-1.19H94"/><path d="M94.86 65.51v1.19h1.77v-1.19h-1.68"/><path d="M95.76 65.51v1.19h1.76v-1.19h-1.71"/><path d="M96.66 65.51v1.19h1.81v-1.19h-1.81"/><path d="M97.56 65.51v1.19h1.77v-1.19H97.6"/><path d="M98.46 65.51v1.19h1.82v-1.19H98.5"/><path d="M99.36 65.51v1.19h1.77v-1.19H99.4"/><path d="M100.26 65.51v1.19h1.76v-1.19h-1.76"/><path d="M101.06 65.51v1.19h1.77v-1.19h-1.77"/><path d="M101.95 65.51v1.19h1.82v-1.19h-1.82"/><path d="M102.86 65.51v1.19h1.77v-1.19h-1.68"/><path d="M103.76 65.51v1.19h1.76v-1.19h-1.76"/><path d="M104.66 65.51v1.19h1.81v-1.19h-1.81"/><path d="M105.56 65.51v1.19h1.77v-1.19h-1.77"/><path d="M106.46 65.51v1.19h1.82v-1.19h-1.82"/><path d="M107.36 65.51v1.19h1.77v-1.19h-1.77"/><path d="M108.26 65.51v1.19h1.76v-1.19h-1.76"/><path d="M109.16 65.51v1.19h1.79v-1.19h-1.81"/><path d="M110.06 65.51v1.19h1.77v-1.19h-1.77"/><path d="M110.95 65.51v1.19h1.82v-1.19h-1.82"/><path d="M111.76 65.51v1.19h1.76v-1.19h-1.76"/><path d="M112.66 65.51v1.19h1.81v-1.19h-1.81"/><path d="M113.56 65.51v1.19h1.77v-1.19h-1.77"/><path d="M114.46 65.51v1.19h1.82v-1.19h-1.82"/><path d="M115.36 65.51v1.19h1.77v-1.19h-1.77"/><path d="M116.26 65.51v1.19h1.76v-1.19h-1.76"/><path d="M117.16 65.51v1.19h1.79v-1.19h-1.81"/><path d="M118.06 65.51v1.19h1.77v-1.19h-1.77"/><path d="M118.95 65.51v1.19h1.81v-1.19h-1.81"/><path d="M119.86 65.51v1.19h1.77v-1.19h-1.68"/><path d="M120.76 65.51v1.19h1.77v-1.19h-1.77"/><path d="M121.56 65.51v1.19h1.77v-1.19h-1.77"/><path d="M122.46 65.51v1.19h1.81v-1.19h-1.81"/><path d="M123.36 65.51v1.19h1.77v-1.19h-1.77"/><path d="M124.26 65.51v1.19h1.77v-1.19h-1.77"/><path d="M125.16 65.51v1.19h1.79v-1.19h-1.81"/><path d="M126.06 65.51v1.19h1.77v-1.19h-1.77"/><path d="M126.95 65.51v1.19h1.81v-1.19h-1.81"/><path d="M127.86 65.51v1.19h1.82v-1.19h-1.73"/><path d="M128.76 65.51v1.19h1.77v-1.19h-1.77"/><path d="M129.66 65.51v1.19h1.76v-1.19h-1.76"/><path d="M130.56 65.51v1.19h1.82v-1.19h-1.82"/><path d="M131.46 65.51v1.19h1.86v-1.19h-1.86"/><path d="M132.26 65.51v1.19h1.77v-1.19h-1.77"/><path d="M133.16 65.51v1.19h1.79v-1.19h-1.76"/><path d="M134.06 65.51v1.19h1.82v-1.19h-1.82"/><path d="M134.95 65.51v1.19h1.86v-1.19h-1.86"/><path d="M135.86 65.51v1.19h1.82v-1.19h-1.73"/><path d="M136.76 65.51v1.19h1.77v-1.19h-1.77"/><path d="M137.66 65.51v1.19h1.76v-1.19h-1.76"/><path d="M138.56 65.51v1.19h1.82v-1.19h-1.82"/><path d="M139.46 65.51v1.19h1.86v-1.19h-1.86"/><path d="M140.36 65.51v1.19h1.82v-1.19h-1.82"/><path d="M141.26 65.51v1.19h1.77v-1.19h-1.77"/><path d="M142.06 65.51v1.19h1.82v-1.19h-1.82"/><path d="M142.95 65.51v1.19h1.86v-1.19h-1.86"/><path d="M143.86 65.51v1.19h1.82v-1.19h-1.73"/><path d="M144.76 65.51v1.19h1.77v-1.19h-1.77"/><path d="M145.66 65.51v1.19h1.76v-1.19h-1.76"/><path d="M146.56 65.51v1.19h1.82v-1.19h-1.82"/><path d="M147.46 65.51v1.19h1.86v-1.19h-1.86"/><path d="M148.36 65.51v1.19h1.82v-1.19h-1.82"/><path d="M149.26 65.51v1.19h1.77v-1.19h-1.77"/><path d="M150.16 65.51v1.19h1.79v-1.19h-1.76"/><path d="M151.06 65.51v1.19h1.82v-1.19h-1.82"/><path d="M151.95 65.51v1.19h1.86v-1.19h-1.86"/><path d="M152.76 65.51v1.19h1.77v-1.19h-1.77"/><path d="M153.66 65.51v1.19h1.76v-1.19h-1.76"/><path d="M154.56 65.51v1.19h1.82v-1.19h-1.82"/><path d="M155.46 65.51v1.19h1.86v-1.19h-1.86"/><path d="M156.36 65.51v1.19h1.82v-1.19h-1.82"/><path d="M157.26 65.51v1.19h1.77v-1.19h-1.77"/><path d="M158.16 65.51v1.19h1.79v-1.19h-1.76"/><path d="M159.06 65.51v1.19h1.82v-1.19h-1.82"/><path d="M159.95 65.51v1.19h1.86v-1.19h-1.86"/><path d="M160.86 65.51v1.19h1.82v-1.19h-1.73"/><path d="M161.76 65.51v1.19h1.77v-1.19h-1.77"/><path d="M162.56 65.51v1.19h1.82v-1.19h-1.82"/><path d="M163.46 65.51v1.19h1.86v-1.19h-1.86"/><path d="M164.36 65.51v1.19h1.82v-1.19h-1.82"/><path d="M165.26 65.51v1.19h1.77v-1.19h-1.77"/><path d="M166.16 65.51v1.19h1.79v-1.19h-1.76"/><path d="M167.06 65.51v1.19h1.82v-1.19h-1.82"/><path d="M167.95 65.51v1.19h1.86v-1.19h-1.86"/><path d="M168.86 65.51v1.19h1.82v-1.19h-1.73"/><path d="M169.76 65.51v1.19h1.77v-1.19h-1.77"/><path d="M170.66 65.51v1.19h1.76v-1.19h-1.76"/><path d="M171.56 65.51v1.19h1.82v-1.19h-1.82"/><path d="M172.46 65.51v1.19h1.86v-1.19h-1.86"/><path d="M173.26 65.51v1.19h1.77v-1.19h-1.77"/><path d="M174.16 65.51v1.19h1.79v-1.19h-1.76"/><path d="M175.06 65.51v1.19h1.82v-1.19h-1.82"/><path d="M175.95 65.51v1.19h1.86v-1.19h-1.86"/><path d="M176.86 65.51v1.19h1.82v-1.19h-1.73"/><path d="M177.76 65.51v1.19h1.77v-1.19h-1.77"/><path d="M178.66 65.51v1.19h1.76v-1.19h-1.76"/><path d="M179.56 65.51v1.19h1.82v-1.19h-1.82"/><path d="M180.46 65.51v1.19h1.86v-1.19h-1.86"/><path d="M181.36 65.51v1.19h1.82v-1.19h-1.82"/><path d="M182.26 65.51v1.19h1.77v-1.19h-1.77"/><path d="M183.06 65.51v1.19h1.82v-1.19h-1.82"/><path d="M183.95 65.51v1.19h1.86v-1.19h-1.86"/><path d="M184.86 65.51v1.19h1.82v-1.19h-1.73"/><path d="M185.76 65.51v1.19h1.77v-1.19h-1.77"/><path d="M186.66 65.51v1.19h1.76v-1.19h-1.76"/><path d="M187.56 65.51v1.19h1.82v-1.19h-1.82"/><path d="M188.46 65.51v1.19h1.86v-1.19h-1.86"/><path d="M189.36 65.51v1.19h1.82v-1.19h-1.82"/><path d="M206.41 66.77h1.35v-1.26h-1.35c-3.12 0-6.57.54-7 3-.45-2.46-3.9-3-7-3h-1.29v1.19h1.29c3.26 0 6.82.16 6.82 2.88h.3c0-2.72 3.57-2.88 6.82-2.88"/><path d="M207.06 65.51v1.19h1.82v-1.19h-1.82"/><path d="M207.95 65.51v1.19h1.86v-1.19h-1.86"/><path d="M208.86 65.51v1.19h1.82v-1.19h-1.73"/><path d="M209.76 65.51v1.19h1.77v-1.19h-1.77"/><path d="M210.66 65.51v1.19h1.76v-1.19h-1.76"/><path d="M211.46 65.51v1.19h1.86v-1.19h-1.86"/><path d="M212.36 65.51v1.19h1.82v-1.19h-1.82"/><path d="M213.26 65.51v1.19h1.77v-1.19h-1.77"/><path d="M214.16 65.51v1.19h1.79v-1.19h-1.76"/><path d="M215.06 65.51v1.19h1.82v-1.19h-1.82"/><path d="M215.95 65.51v1.19h1.86v-1.19h-1.86"/><path d="M216.86 65.51v1.19h1.82v-1.19h-1.73"/><path d="M217.76 65.51v1.19h1.77v-1.19h-1.77"/><path d="M218.66 65.51v1.19h1.76v-1.19h-1.76"/><path d="M219.56 65.51v1.19h1.82v-1.19h-1.82"/><path d="M220.46 65.51v1.19h1.86v-1.19h-1.86"/><path d="M221.36 65.51v1.19h1.82v-1.19h-1.82"/><path d="M222.16 65.51v1.19h1.79v-1.19h-1.76"/><path d="M223.06 65.51v1.19h1.82v-1.19h-1.82"/><path d="M223.95 65.51v1.19h1.86v-1.19h-1.86"/><path d="M224.86 65.51v1.19h1.82v-1.19h-1.73"/><path d="M225.76 65.51v1.19h1.77v-1.19h-1.77"/><path d="M226.66 65.51v1.19h1.76v-1.19h-1.76"/><path d="M227.56 65.51v1.19h1.82v-1.19h-1.82"/><path d="M228.46 65.51v1.19h1.86v-1.19h-1.86"/><path d="M229.36 65.51v1.19h1.82v-1.19h-1.82"/><path d="M230.26 65.51v1.19h1.77v-1.19h-1.77"/><path d="M231.16 65.51v1.19h1.79v-1.19h-1.76"/><path d="M231.95 65.51v1.19h1.86v-1.19h-1.86"/><path d="M232.86 65.51v1.19h1.82v-1.19h-1.73"/><path d="M233.76 65.51v1.19h1.77v-1.19h-1.77"/><path d="M234.66 65.51v1.19h1.76v-1.19h-1.76"/><path d="M235.56 65.51v1.19h1.82v-1.19h-1.82"/><path d="M236.46 65.51v1.19h1.86v-1.19h-1.86"/><path d="M237.36 65.51v1.19h1.82v-1.19h-1.82"/><path d="M238.26 65.51v1.19h1.77v-1.19h-1.77"/><path d="M239.16 65.51v1.19h1.79v-1.19h-1.76"/><path d="M240.06 65.51v1.19h1.82v-1.19h-1.82"/><path d="M240.95 65.51v1.19h1.86v-1.19h-1.86"/><path d="M241.76 65.51v1.19h1.77v-1.19h-1.77"/><path d="M242.66 65.51v1.19h1.76v-1.19h-1.76"/><path d="M243.56 65.51v1.19h1.82v-1.19h-1.82"/><path d="M244.46 65.51v1.19h1.86v-1.19h-1.86"/><path d="M245.36 65.51v1.19h1.82v-1.19h-1.82"/><path d="M246.26 65.51v1.19h1.77v-1.19h-1.77"/><path d="M247.16 65.51v1.19h1.79v-1.19h-1.77"/><path d="M248.06 65.51v1.19h1.81v-1.19h-1.81"/><path d="M248.95 65.51v1.19h1.86v-1.19h-1.86"/><path d="M249.86 65.51v1.19h1.82v-1.19h-1.73"/><path d="M250.76 65.51v1.19h1.77v-1.19h-1.77"/><path d="M251.66 65.51v1.19h1.77v-1.19h-1.77"/><path d="M252.46 65.51v1.19h1.86v-1.19h-1.86"/><path d="M253.36 65.51v1.19h1.82v-1.19h-1.82"/><path d="M254.26 65.51v1.19h1.82v-1.19h-1.82"/><path d="M255.16 65.51v1.19H257v-1.19h-1.82"/><path d="M256.06 65.51v1.19h1.86v-1.19h-1.86"/><path d="M256.95 65.51v1.19h1.86v-1.19h-1.86"/><path d="M257.86 65.51v1.19h1.77v-1.19h-1.68"/><path d="M258.76 65.51v1.19h1.82v-1.19h-1.82"/><path d="M259.66 65.51v1.19h1.82v-1.19h-1.82"/><path d="M260.56 65.51v1.19h1.86v-1.19h-1.86"/><path d="M261.46 65.51v1.19h1.86v-1.19h-1.86"/><path d="M262.26 65.51v1.19h1.82v-1.19h-1.82"/><path d="M263.16 65.51v1.19H265v-1.19h-1.82"/><path d="M264.06 65.51v1.19h1.86v-1.19h-1.86"/><path d="M264.95 65.51v1.19h1.86v-1.19h-1.86"/><path d="M265.86 65.51v1.19h1.77v-1.19h-1.68"/><path d="M266.76 65.51v1.19h1.82v-1.19h-1.82"/><path d="M267.66 65.51v1.19h1.82v-1.19h-1.82"/><path d="M268.56 65.51v1.19h1.86v-1.19h-1.86"/><path d="M269.46 65.51v1.19h1.86v-1.19h-1.86"/><path d="M270.36 65.51v1.19h1.77v-1.19h-1.77"/><path d="M271.26 65.51v1.19h1.82v-1.19h-1.82"/><path d="M272.16 65.51v1.19H274v-1.19h-1.82"/><path d="M272.95 65.51v1.19h1.86v-1.19h-1.86"/><path d="M273.86 65.51v1.19h1.77v-1.19h-1.68"/><path d="M274.76 65.51v1.19h1.82v-1.19h-1.82"/><path d="M275.66 65.51v1.19h1.82v-1.19h-1.82"/><path d="M276.56 65.51v1.19h1.86v-1.19h-1.86"/><path d="M277.46 65.51v1.19h1.86v-1.19h-1.86"/><path d="M278.36 65.51v1.19h1.77v-1.19h-1.77"/><path d="M279.26 65.51v1.19h1.82v-1.19h-1.82"/><path d="M280.16 65.51v1.19H282v-1.19h-1.82"/><path d="M281.06 65.51v1.19h1.86v-1.19h-1.86"/><path d="M281.95 65.51v1.19h1.86v-1.19h-1.86"/><path d="M282.76 65.51v1.19h1.82v-1.19h-1.82"/><path d="M283.66 65.51v1.19h1.82v-1.19h-1.82"/><path d="M284.56 65.51v1.19h1.86v-1.19h-1.86"/><path d="M285.46 65.51v1.19h1.86v-1.19h-1.86"/><path d="M286.36 65.51v1.19h1.77v-1.19h-1.77"/><path d="M287.26 65.51v1.19h1.82v-1.19h-1.82"/><path d="M288.16 65.51v1.19H290v-1.19h-1.82"/><path d="M289.06 65.51v1.19h1.86v-1.19h-1.86"/><path d="M289.95 65.51v1.19h1.86v-1.19h-1.86"/><path d="M290.86 65.51v1.19h1.77v-1.19h-1.68"/><path d="M291.76 65.51v1.19h1.82v-1.19h-1.82"/><path d="M292.66 65.51v1.19h1.82v-1.19h-1.82"/><path d="M293.46 65.51v1.19h1.86v-1.19h-1.86"/><path d="M294.36 65.51v1.19h1.77v-1.19h-1.77"/><path d="M295.26 65.51v1.19h1.82v-1.19h-1.82"/><path d="M296.16 65.51v1.19H298v-1.19h-1.82"/><path d="M297.06 65.51v1.19h1.86v-1.19h-1.86"/><path d="M297.95 65.51v1.19h1.86v-1.19h-1.86"/><path d="M298.86 65.51v1.19h1.77v-1.19h-1.68"/><path d="M299.76 65.51v1.19h1.82v-1.19h-1.82"/><path d="M300.66 65.51v1.19h1.82v-1.19h-1.82"/><path d="M301.56 65.51v1.19h1.86v-1.19h-1.86"/><path d="M302.46 65.51v1.19h1.86v-1.19h-1.86"/><path d="M303.26 65.51v1.19h1.82v-1.19h-1.82"/><path d="M304.16 65.51v1.19H306v-1.19h-1.82"/><path d="M305.06 65.51v1.19h1.86v-1.19h-1.86"/><path d="M305.95 65.51v1.19h1.86v-1.19h-1.86"/><path d="M306.86 65.51v1.19h1.77v-1.19h-1.68"/><path d="M307.76 65.51v1.19h1.82v-1.19h-1.82"/><path d="M308.66 65.51v1.19h1.82v-1.19h-1.82"/><path d="M309.56 65.51v1.19h1.86v-1.19h-1.86"/><path d="M312.42 65.47h-1.34v1.19h1.34c2.84 0 5.72-1 6.91-3.53v-.6h-.3c-.14 0-.76 2.93-6.58 2.93"/><path d="M108.84 78s0 .08.25.23a.52.52 0 0 1 .24.4v2.35c0 .42-.06.44-.49.62-.17.07-.27.14-.27.24s.12.19.31.19.5-.06.76-.06h1c.3 0 .28-.08.28-.19s0-.13-.25-.24a.51.51 0 0 1-.36-.49v-2.51a1 1 0 0 1 .13-.29 1.55 1.55 0 0 1 1-.3.87.87 0 0 1 1 .83v2.14c0 .44-.15.51-.45.62s-.28.13-.28.22.16.2.34.2h1.73c.13 0 .26-.07.26-.19s-.06-.19-.29-.26a.5.5 0 0 1-.39-.48V78.6a.64.64 0 0 1 .11-.34 1.86 1.86 0 0 1 1-.28.93.93 0 0 1 .81.37 1.42 1.42 0 0 1 .18.82v1.89a.44.44 0 0 1-.36.49c-.21.06-.27.18-.27.22s.14.19.32.19h1.68c.1 0 .25 0 .25-.18s-.12-.16-.26-.22-.42-.2-.42-.39 0-1.51-.08-2.21-.4-1.68-1.39-1.68a1.79 1.79 0 0 0-.77.15 5.76 5.76 0 0 0-.82.48.15.15 0 0 1-.15 0 1.3 1.3 0 0 0-1.17-.6 3 3 0 0 0-1.54.57s-.11 0-.11-.06v-.47a.26.26 0 0 0-.18-.12l-.12.07a4.85 4.85 0 0 1-.86.43.37.37 0 0 0-.19.27m10.63-.29c.59 0 .86.3.86.63s-.52.41-.94.41h-.81a.1.1 0 0 1-.07-.11 1.21 1.21 0 0 1 1-.9m.33-.4a2.36 2.36 0 0 0-1.3.38 2.45 2.45 0 0 0-1.12 2.05 2.09 2.09 0 0 0 2.18 2.3 2.22 2.22 0 0 0 1.6-.69.51.51 0 0 0 .14-.34c0-.13-.09-.18-.13-.15a2.22 2.22 0 0 1-1.13.43 1.7 1.7 0 0 1-1.7-1.76 1.08 1.08 0 0 1 0-.34.31.31 0 0 1 .18-.13h2.4c.11 0 .3-.21.3-.33a1.44 1.44 0 0 0-.19-.78 1.52 1.52 0 0 0-1.3-.67zm4.08 4.02a.74.74 0 0 1-.74-.69c0-.28.1-.41.41-.52a11.57 11.57 0 0 1 1.19-.29s.09 0 .09.07v.71a1.18 1.18 0 0 1-.09.34 1.38 1.38 0 0 1-.85.38m.45-4a2.75 2.75 0 0 0-1.32.5c-.48.33-.8.68-.8.87a.32.32 0 0 0 .13.18 1.93 1.93 0 0 0 .47 0 .78.78 0 0 0 .33-.09.42.42 0 0 0 .1-.24 1.1 1.1 0 0 1 .11-.55 1 1 0 0 1 .5-.14 1 1 0 0 1 1 .62.89.89 0 0 1 0 .29v.43a.2.2 0 0 1-.12.16 9.81 9.81 0 0 1-1.89.54 1 1 0 0 0-.45.32.84.84 0 0 0-.17.54 1.26 1.26 0 0 0 1.06 1.31 1.19 1.19 0 0 0 .59-.16 8.32 8.32 0 0 0 .86-.54s.11.05.11.06a.78.78 0 0 0 .8.69 1 1 0 0 0 .81-.4 1.66 1.66 0 0 0 .1-.29c0-.09 0-.2-.1-.18a1.34 1.34 0 0 1-.38.1c-.21 0-.4-.18-.4-.55v-2.14a1.62 1.62 0 0 0-.38-1 1.34 1.34 0 0 0-.97-.38zm4.64-.05a2.2 2.2 0 0 0-1 .29 1.25 1.25 0 0 0-.57 1 1.38 1.38 0 0 0 .81 1.21c.33.19.59.31.88.49a.77.77 0 0 1 .4.63.72.72 0 0 1-.78.69 1.33 1.33 0 0 1-1-.72c-.14-.22-.22-.3-.29-.3s-.2.08-.2.37a1.67 1.67 0 0 0 .23.8 1.6 1.6 0 0 0 1.13.28 2.2 2.2 0 0 0 1-.21 1.32 1.32 0 0 0 .84-1.22c0-.66-.49-1-1.07-1.31s-1.06-.45-1.06-1a.68.68 0 0 1 .65-.66 1.08 1.08 0 0 1 .84.65c.1.2.2.3.25.3s.25-.25.25-.33a3.83 3.83 0 0 0 0-.61.5.5 0 0 0-.19-.22 2.92 2.92 0 0 0-.35-.1 2.23 2.23 0 0 0-.71-.09m4.49 4.14a1.11 1.11 0 0 1-.59-.14c-.16-.13-.27-.26-.28-.86v-2.65c0-.23 0-.36-.11-.36s-.86.06-1.11.06c0 0-.34 0-.34.19s.11.19.23.26a.67.67 0 0 1 .42.49v2.7a1 1 0 0 0 .26.64 1.29 1.29 0 0 0 .88.38 2.88 2.88 0 0 0 1.74-.72h.1v.52c0 .08.07.19.12.19a3 3 0 0 0 .48-.08 6.82 6.82 0 0 1 .91-.16.29.29 0 0 0 .19-.3.42.42 0 0 0-.08-.19l-.58.07s-.16 0-.17-.43 0-2.89 0-3.37c0-.12-.08-.26-.13-.26h-1.32c-.15 0-.28.11-.28.18s.11.19.27.24l.36.15c.08 0 .17.22.17.35v2.26a.83.83 0 0 1-.31.53 1.81 1.81 0 0 1-.81.24m3.56-3.37c0 .07.12.17.24.26s.28.27.28.34v2.46c0 .26 0 .42-.48.58-.13.05-.26.11-.26.23s.1.18.31.18h2.14c.13 0 .28-.11.28-.2s-.15-.18-.41-.25c-.5-.14-.59-.25-.62-.77s0-2 0-2.11a.52.52 0 0 1 .1-.26.58.58 0 0 1 .51-.25.71.71 0 0 1 .4.13.43.43 0 0 0 .26.11.3.3 0 0 0 .18-.09 1.15 1.15 0 0 0 .44-.68c0-.12-.29-.34-.61-.34a1.76 1.76 0 0 0-1.2.66.07.07 0 0 1-.11 0v-.55c0-.16-.09-.15-.13-.15a.84.84 0 0 0-.33.11c-.23.12-.58.28-.75.38a.26.26 0 0 0-.16.23m5.84-.26c.59 0 .86.3.86.63s-.51.41-.94.41h-.81a.1.1 0 0 1-.07-.11 1.21 1.21 0 0 1 1-.9m.33-.4a2.36 2.36 0 0 0-1.3.38 2.45 2.45 0 0 0-1.12 2.05 2.09 2.09 0 0 0 2.18 2.3 2.22 2.22 0 0 0 1.6-.69.51.51 0 0 0 .14-.34c0-.13-.09-.18-.13-.15a2.22 2.22 0 0 1-1.13.43 1.7 1.7 0 0 1-1.7-1.76 1.08 1.08 0 0 1 0-.34.31.31 0 0 1 .18-.13h2.4c.11 0 .3-.21.3-.33a1.44 1.44 0 0 0-.19-.78 1.52 1.52 0 0 0-1.27-.67zm2.52.66s.05.08.25.23a.52.52 0 0 1 .24.4v2.35c0 .42-.06.44-.49.62-.17.07-.27.14-.27.24s.12.19.31.19.5-.06.76-.06h1c.3 0 .28-.08.28-.19s0-.13-.25-.24a.51.51 0 0 1-.36-.49v-2.51a1 1 0 0 1 .13-.29 1.56 1.56 0 0 1 1-.3 1 1 0 0 1 .86.34 1.16 1.16 0 0 1 .16.49v2.14c0 .44-.15.51-.45.62s-.28.13-.28.22.16.2.34.2h1.73c.13 0 .26-.07.26-.19s-.06-.19-.29-.26a.5.5 0 0 1-.39-.48V78.6a.64.64 0 0 1 .11-.34 1.89 1.89 0 0 1 1-.28.93.93 0 0 1 .82.37 1.42 1.42 0 0 1 .18.82v1.89a.44.44 0 0 1-.36.49c-.21.06-.27.18-.27.22s.14.19.32.19h1.68c.1 0 .25 0 .25-.18s-.12-.16-.26-.22-.42-.2-.42-.39 0-1.51-.08-2.21-.4-1.68-1.39-1.68a1.79 1.79 0 0 0-.77.15 5.76 5.76 0 0 0-.82.48.15.15 0 0 1-.15 0 1.3 1.3 0 0 0-1.17-.6 3 3 0 0 0-1.54.57c-.05 0-.11 0-.11-.06v-.47a.26.26 0 0 0-.18-.12l-.12.07a4.85 4.85 0 0 1-.86.43.37.37 0 0 0-.19.27m10.6-.29c.59 0 .86.3.86.63s-.52.41-.94.41h-.81a.1.1 0 0 1-.07-.11 1.21 1.21 0 0 1 1-.9m.33-.4a2.36 2.36 0 0 0-1.3.38 2.45 2.45 0 0 0-1.07 2.05 2.09 2.09 0 0 0 2.18 2.3 2.22 2.22 0 0 0 1.6-.69.51.51 0 0 0 .14-.34c0-.13-.09-.18-.13-.15a2.22 2.22 0 0 1-1.13.43 1.7 1.7 0 0 1-1.7-1.76 1.08 1.08 0 0 1 .05-.34.31.31 0 0 1 .18-.13h2.4c.11 0 .3-.21.3-.33a1.44 1.44 0 0 0-.19-.78 1.52 1.52 0 0 0-1.37-.67zm2.53.58s0 .07.16.17c.28.16.39.29.39.47 0 1.13 0 2-.07 2.51 0 .24-.08.38-.57.53-.11 0-.24.12-.24.24s.12.16.32.16h1.88c.2 0 .32-.09.32-.18s-.09-.18-.29-.26c-.45-.17-.44-.3-.44-.47V78.5a.48.48 0 0 1 .13-.28 1.78 1.78 0 0 1 1-.24.94.94 0 0 1 .8.3 2.37 2.37 0 0 1 .21 1.31v1.52a.45.45 0 0 1-.37.48c-.19.08-.25.17-.25.23s.16.18.3.18h1.54c.14 0 .33-.06.33-.18s-.08-.21-.34-.31-.28-.2-.29-.52v-1.67a2.7 2.7 0 0 0-.34-1.49 1.14 1.14 0 0 0-1-.52 2.77 2.77 0 0 0-1.59.57h-.07c.01 0 0-.43 0-.49s-.16-.13-.19-.13a1 1 0 0 0-.29.11c-.23.11-.52.21-.73.31a.42.42 0 0 0-.2.28m7.11-.52c-.08 0-.09-.09-.09-.13v-.55c0-.12-.06-.17-.1-.17a.75.75 0 0 0-.45.29 4.66 4.66 0 0 1-.8.67c-.1.09-.23.19-.23.24a.49.49 0 0 0 .33.32c.31 0 .35.06.35.18 0 1.06-.06 1.74-.06 2.52a1.48 1.48 0 0 0 .16.79 1.24 1.24 0 0 0 1 .52 2 2 0 0 0 1.14-.35.52.52 0 0 0 .26-.39c0-.09-.05-.17-.09-.17a2 2 0 0 0-.25.07 2 2 0 0 1-.51.1 1 1 0 0 1-.61-.25c-.13-.15-.18-.33-.16-.83v-2c0-.13.06-.17.08-.17h1.26c.12 0 .22 0 .25-.15a1.68 1.68 0 0 0 0-.35c0-.07-.07-.19-.15-.19h-1.37m6.72 3.95a1.11 1.11 0 0 1-.59-.14c-.16-.13-.27-.26-.28-.86v-2.65c0-.23 0-.36-.11-.36s-.86.06-1.11.06c0 0-.34 0-.34.19s.11.19.23.26a.67.67 0 0 1 .42.49v2.7a1 1 0 0 0 .26.64 1.29 1.29 0 0 0 .88.38 2.88 2.88 0 0 0 1.74-.72h.1v.52c0 .08.07.19.12.19a3 3 0 0 0 .48-.08 6.82 6.82 0 0 1 .91-.16.29.29 0 0 0 .19-.3.42.42 0 0 0-.08-.19l-.58.07s-.16 0-.17-.43 0-2.89 0-3.37c0-.12-.08-.26-.13-.26h-1.32c-.15 0-.28.11-.28.18s.11.19.27.24l.36.15c.08 0 .17.22.17.35v2.26a.83.83 0 0 1-.31.53 1.81 1.81 0 0 1-.81.24m5.9-3.35c1 0 1.43 1 1.43 1.86a2.1 2.1 0 0 1-.52 1.38 1.19 1.19 0 0 1-.87.36 1.37 1.37 0 0 1-1-.6c-.07-.1-.1-.25-.1-.9v-1.66a.36.36 0 0 1 .14-.21 1.56 1.56 0 0 1 .85-.23m.49-.65a1.84 1.84 0 0 0-.68.13 5.51 5.51 0 0 0-.74.37.08.08 0 0 1-.11-.06v-.44a.25.25 0 0 0-.16-.16 1.05 1.05 0 0 0-.38.17 5.73 5.73 0 0 1-.71.34c-.12.07-.26.21-.26.31s.05.09.2.19c.36.25.38.34.38.42v3c0 .69 0 1.29-.06 2 0 .38-.09.59-.62.74-.21.06-.3.16-.3.22s.19.2.32.2.71-.1 1.16-.1h1c.06 0 .31-.09.31-.21s-.07-.15-.33-.22c-.57-.17-.6-.29-.6-.45v-1.41c0-.09.08-.23.11-.22a2.49 2.49 0 0 0 .41 0 4.25 4.25 0 0 0 1.23-.23 2.54 2.54 0 0 0 1.68-2.42 2.33 2.33 0 0 0-.71-1.65 1.73 1.73 0 0 0-1.07-.52zm5.3.45a1.38 1.38 0 0 1 1.15.55 1.23 1.23 0 0 1 .09.44v2.1a.71.71 0 0 1-.11.28 1.65 1.65 0 0 1-.87.27 1.75 1.75 0 0 1-1.54-1.88 1.87 1.87 0 0 1 .53-1.45 1.13 1.13 0 0 1 .75-.31m.47-.48a3.28 3.28 0 0 0-1.55.44 2.46 2.46 0 0 0-1.24 2.17 2.06 2.06 0 0 0 2.12 2.18 3.43 3.43 0 0 0 1.38-.55.05.05 0 0 1 .08 0v.46c0 .13.14.14.2.14s.65-.15 1.42-.32a.42.42 0 0 0 .24-.3c0-.13-.09-.2-.15-.19a5.34 5.34 0 0 1-.62.06c-.09 0-.19-.09-.2-.44s0-.52 0-2.76v-3.13c0-.52 0-.68-.14-.68s-1.12.19-1.38.26-.23.12-.23.15a.28.28 0 0 0 .21.23c.49.13.54.16.57.53s0 1.59 0 1.66 0 .13-.09.12a3.39 3.39 0 0 0-.62-.01zm4.94 4.07a.74.74 0 0 1-.74-.69c0-.28.1-.41.41-.52a11.57 11.57 0 0 1 1.19-.29s.09 0 .09.07v.71a1.18 1.18 0 0 1-.09.34 1.38 1.38 0 0 1-.85.38m.45-4a2.75 2.75 0 0 0-1.31.41c-.48.33-.8.68-.8.87a.32.32 0 0 0 .13.18 1.93 1.93 0 0 0 .47 0 .78.78 0 0 0 .33-.09.36.36 0 0 0 .1-.24 1.1 1.1 0 0 1 .11-.55 1 1 0 0 1 .5-.14 1 1 0 0 1 1 .62.89.89 0 0 1 0 .29v.43a.2.2 0 0 1-.12.16 9.81 9.81 0 0 1-1.89.54 1 1 0 0 0-.45.32.84.84 0 0 0-.17.54 1.26 1.26 0 0 0 1.06 1.31 1.19 1.19 0 0 0 .59-.16 8.32 8.32 0 0 0 .86-.54s.11.05.11.06a.78.78 0 0 0 .8.69 1 1 0 0 0 .81-.4 1.66 1.66 0 0 0 .1-.29c0-.09-.05-.2-.1-.18a1.34 1.34 0 0 1-.38.1c-.21 0-.4-.18-.4-.55V78.6a1.62 1.62 0 0 0-.38-1 1.34 1.34 0 0 0-.98-.29zm4.11.08c-.08 0-.09-.09-.09-.13v-.55c0-.12-.06-.17-.1-.17a.75.75 0 0 0-.45.29 4.66 4.66 0 0 1-.8.67c-.1.09-.23.19-.23.24a.49.49 0 0 0 .33.32c.31 0 .35.06.35.18 0 1.06-.06 1.74-.06 2.52a1.48 1.48 0 0 0 .16.79 1.24 1.24 0 0 0 1 .52 2 2 0 0 0 1.14-.35.54.54 0 0 0 .27-.39c0-.09-.06-.17-.11-.17s-.14 0-.24.07a2 2 0 0 1-.51.1 1 1 0 0 1-.61-.25c-.13-.15-.18-.33-.16-.83v-2c0-.13.06-.17.08-.17h1.26c.12 0 .22 0 .26-.15a3.33 3.33 0 0 0 0-.35c0-.07-.07-.19-.15-.19h-1.37m4.31.27c.59 0 .86.3.86.63s-.52.41-.94.41h-.81a.1.1 0 0 1-.07-.11 1.21 1.21 0 0 1 1-.9m.33-.4a2.36 2.36 0 0 0-1.3.38 2.45 2.45 0 0 0-1.12 2.05 2.09 2.09 0 0 0 2.18 2.3 2.22 2.22 0 0 0 1.6-.69.51.51 0 0 0 .14-.34c0-.13-.09-.18-.13-.15a2.22 2.22 0 0 1-1.13.43 1.7 1.7 0 0 1-1.7-1.76 1.08 1.08 0 0 1 0-.34.31.31 0 0 1 .18-.13h2.4c.11 0 .3-.21.3-.33a1.44 1.44 0 0 0-.19-.78 1.52 1.52 0 0 0-1.3-.67z" class="cls-4"/><path d="M202.95 80.5a.66.66 0 0 0-.69.62.52.52 0 0 0 .41.46c.23.07.4.17.4.41s-.07.53-.63.87c-.18.1-.22.19-.22.27s.12.17.27.17a1.68 1.68 0 0 0 1.37-1.62c0-.62-.39-1.18-.91-1.18m6.4 3.73c-.78 0-1.62-.33-1.62-1.1a.82.82 0 0 1 .47-.74 2.22 2.22 0 0 1 .89-.16 7.11 7.11 0 0 1 1 .06.85.85 0 0 1 .81.78 1 1 0 0 1-.56.93 2.07 2.07 0 0 1-.95.23m-.44-6.46a1.11 1.11 0 0 1 1.1 1.22 1.82 1.82 0 0 1-.26 1 .85.85 0 0 1-.58.23c-.47 0-1.07-.34-1.07-1.32-.05-.57.21-1.13.81-1.13zm.16-.43a2.5 2.5 0 0 0-1.29.43 1.58 1.58 0 0 0-.63 1.32 1.56 1.56 0 0 0 .84 1.38v.1a3 3 0 0 1-.8.57v.11a.91.91 0 0 0 .32.76.83.83 0 0 0 .33.16v.11c-.2.17-.52.41-.7.55a.93.93 0 0 0-.23.58c0 1.07 1.29 1.42 2 1.42a3.38 3.38 0 0 0 1.88-.51 2 2 0 0 0 1-1.59 1.29 1.29 0 0 0-1.29-1.27h-1.82c-.06 0-.42-.06-.42-.38a.52.52 0 0 1 .25-.34.24.24 0 0 1 .17-.06h.3a2.37 2.37 0 0 0 1.41-.45 1.56 1.56 0 0 0 .6-1.27 1.68 1.68 0 0 0-.21-.78c.24 0 .72.07 1 .07a.25.25 0 0 0 .13-.19c0-.16-.08-.46-.17-.46h-1.21a1.34 1.34 0 0 1-.41-.08 3.35 3.35 0 0 0-1.1-.21zm4.31-2.34a.61.61 0 0 0-.65.63.56.56 0 0 0 .12.34.69.69 0 0 0 .48.25.63.63 0 0 0 .59-.63.88.88 0 0 0-.19-.46.48.48 0 0 0-.35-.13m-1 2.8a.35.35 0 0 0 .12.22c.33.21.43.34.44.43s0 .64 0 .87v1.62c-.05.46-.07.55-.56.67-.16 0-.27.13-.27.23s.11.16.34.16h1.87c.15 0 .32 0 .32-.14s-.11-.21-.26-.26c-.41-.11-.45-.22-.46-.31s0-.31 0-1.77v-2s-.06-.17-.11-.17a5.61 5.61 0 0 0-1.2.36c-.12-.02-.2.06-.2.06zm2.53-.23c0 .1.12.17.28.23a.77.77 0 0 1 .51.4c.08.13.75 1.68 1 2.25s.45 1.42.48 1.5a.4.4 0 0 0 .25.19.34.34 0 0 0 .28-.23c.09-.27.31-.9.59-1.6.43-1 .72-1.58.92-2a.81.81 0 0 1 .57-.5c.17 0 .29-.13.29-.25s-.11-.17-.28-.17-.58.06-.78.06h-.61c-.18 0-.33 0-.33.19s.06.18.31.23.36.23.26.51c-.2.54-.62 1.52-.89 2.17h-.09c-.47-1.14-.89-2.19-.93-2.3s0-.32.15-.35.37-.13.37-.27-.1-.17-.25-.17h-.87c-.26 0-.73-.06-.85-.06s-.34.12-.34.19m7.46.12c.59 0 .86.3.86.63s-.52.41-.94.41h-.81a.1.1 0 0 1-.07-.11 1.21 1.21 0 0 1 1-.9m.33-.4a2.36 2.36 0 0 0-1.3.38 2.45 2.45 0 0 0-1.12 2.05 2.09 2.09 0 0 0 2.18 2.3 2.22 2.22 0 0 0 1.6-.69.51.51 0 0 0 .14-.34c0-.13-.09-.18-.13-.15a2.22 2.22 0 0 1-1.13.43 1.7 1.7 0 0 1-1.7-1.76 1.08 1.08 0 0 1 .05-.34.31.31 0 0 1 .18-.13h2.4c.11 0 .3-.21.3-.33a1.44 1.44 0 0 0-.19-.78 1.52 1.52 0 0 0-1.32-.67zm4.13-.03a2.2 2.2 0 0 0-1 .29 1.25 1.25 0 0 0-.57 1 1.38 1.38 0 0 0 .81 1.21c.33.19.59.31.88.49a.77.77 0 0 1 .4.63.72.72 0 0 1-.78.69 1.33 1.33 0 0 1-1-.72c-.14-.22-.22-.3-.29-.3s-.2.08-.2.37a1.67 1.67 0 0 0 .23.8 1.6 1.6 0 0 0 1.13.28 2.2 2.2 0 0 0 1-.21 1.32 1.32 0 0 0 .84-1.22c0-.66-.49-1-1.07-1.31s-1.06-.45-1.06-1a.68.68 0 0 1 .65-.66 1.08 1.08 0 0 1 .84.65c.1.2.2.3.25.3s.25-.25.25-.33a3.83 3.83 0 0 0 0-.61.5.5 0 0 0-.19-.22 2.92 2.92 0 0 0-.35-.1 2.23 2.23 0 0 0-.71-.09m8.02 1.31a5 5 0 0 1-.73 2.14c-.23.33-.84 1-1.21 1-.13 0-.31-.2-.4-.38a.39.39 0 0 1 0-.22c.11-.54.51-2.15.68-2.89a.44.44 0 0 1 .18-.27 3.78 3.78 0 0 1 .87-.11.72.72 0 0 1 .65.76m.9.07a1.22 1.22 0 0 0-1.37-1.35c-.14 0-.59.07-1 .12 0 0-.08-.07-.08-.12a4.34 4.34 0 0 0 .12-.61c0-.14-.33-.35-.39-.35a.57.57 0 0 0-.28.17 3.1 3.1 0 0 0-.32 1s0 .06-.16.12a7.21 7.21 0 0 0-.79.36.77.77 0 0 0-.2.36.14.14 0 0 0 .18.09c.18-.07.55-.19.71-.23s.09.08.09.11c-.3 1.29-1 4.52-1.29 5.27-.12.34-.2.44-.8.55a.46.46 0 0 0-.29.32c0 .07.1.15.35.15h.88c.57 0 1.16.07 1.19.07.27 0 .43-.13.43-.25s-.19-.19-.32-.21c-.54-.14-.58-.28-.51-.67.09-.56.2-.94.32-1.46 0 0 .09-.09.13-.08a1.68 1.68 0 0 0 .56.15 2.83 2.83 0 0 0 1.3-.68 4.51 4.51 0 0 0 1.52-2.86zm4.52 6.05.24-.3a7.42 7.42 0 0 1 0-10.55l-.24-.3a6.69 6.69 0 0 0 0 11.15m6.53-6.37a.67.67 0 0 0 .25-.52.55.55 0 0 0-.52-.54 1.44 1.44 0 0 0-1.08.6 13.78 13.78 0 0 0-.89 1.09h-.1c-.06-.21-.16-.51-.23-.73-.12-.38-.28-.95-.74-.95s-1 .65-1.22 1a1.63 1.63 0 0 0-.14.29c0 .13.18.3.22.24.24-.33.66-.73.83-.73s.24.2.34.51.17.58.33 1.05a.93.93 0 0 1-.11.28c-.52.88-1 1.37-1.23 1.37a.54.54 0 0 1-.4-.37c0-.08-.2-.05-.23 0a1.05 1.05 0 0 0-.44.72.6.6 0 0 0 .57.54c.67 0 1.42-1.08 1.91-1.73h.14c.01 0 .15.44.23.65.15.42.33 1 .85 1a1.5 1.5 0 0 0 1.28-1.24c0-.1-.08-.2-.13-.2s-.11 0-.22.18c-.28.38-.47.4-.6.4-.29 0-.5-.53-.79-1.55 0-.06 0-.2.05-.23.44-.68 1.12-1.48 1.32-1.48s.18.12.23.28.09.18.17.18a.6.6 0 0 0 .35-.13m2 1.15a.31.31 0 0 0-.26.21c-.07.12-.24.5-.28.58a.25.25 0 0 1-.1.08 4.52 4.52 0 0 0-.53 0 .41.41 0 0 0-.14.26c0 .07 0 .1.06.11h.52v.07c-.15.47-.53 1.84-.63 2.19a1.81 1.81 0 0 0-.06.38s.09.31.3.31a2.64 2.64 0 0 0 1.24-.86.49.49 0 0 0 .09-.29s-.08-.13-.12-.11c-.26.23-.58.49-.73.49s-.1-.07 0-.34c.24-.84.46-1.61.52-1.78a.17.17 0 0 1 .09-.08h.77s.17-.26.17-.32 0-.1-.06-.1h-.75c-.05 0-.08 0-.07-.07a6.42 6.42 0 0 0 .2-.73s-.12-.07-.24-.07m3.94 2.37a2.57 2.57 0 0 1-.87 2s-.07.08-.07.14a.17.17 0 0 0 .15.15 2.64 2.64 0 0 0 1.11-2.22c0-.69-.27-1.21-.78-1.21a.64.64 0 1 0 0 1.28.76.76 0 0 0 .46-.14m3.7-4.49a1.91 1.91 0 0 0-1.16.52 1.56 1.56 0 0 0-.58 1.12c0 .27.12.4.22.4a1.1 1.1 0 0 0 .52-.31s.11-.14.09-.17a3 3 0 0 1-.07-.51.37.37 0 0 1 .36-.39 3.6 3.6 0 0 1 .94.23c.3.07.6.15.79.17s0 .11 0 .14a32 32 0 0 0-2.5 2.24c-.53.57-.73.94-.73 1.09s.11.37.23.37a.38.38 0 0 0 .27-.22c.13-.26.39-.57.64-.57s.4.06.82.38.7.58 1.06.58a1.77 1.77 0 0 0 1-.51 1.42 1.42 0 0 0 .61-1c0-.3-.13-.63-.56-.63a.19.19 0 0 0-.14.19 1.52 1.52 0 0 1 .08.51c0 .56-.32.68-.47.68a1.13 1.13 0 0 1-.7-.27 2.4 2.4 0 0 0-1.42-.55c.24-.28 2.62-2.32 3.27-2.86a.58.58 0 0 0 .26-.37.45.45 0 0 0-.21-.29.37.37 0 0 0-.25.14 1.74 1.74 0 0 1-.67.45 2 2 0 0 1-.62-.17 3.94 3.94 0 0 0-1.06-.34m4.66 2.14a.33.33 0 0 0-.28.21c-.06.12-.22.5-.27.58a.25.25 0 0 1-.1.08 4.52 4.52 0 0 0-.53 0 .41.41 0 0 0-.14.26c0 .07 0 .1.06.11h.52v.07c-.15.47-.53 1.84-.63 2.19a1.81 1.81 0 0 0-.06.38s.09.31.3.31a2.64 2.64 0 0 0 1.24-.86.49.49 0 0 0 .09-.29s-.08-.13-.11-.11c-.27.23-.59.49-.74.49s-.1-.07 0-.34c.24-.84.46-1.61.52-1.78a.17.17 0 0 1 .09-.08h.77s.17-.26.17-.32 0-.1-.06-.1h-.75c-.05 0-.08 0-.07-.07a6.42 6.42 0 0 0 .2-.73s-.12-.07-.23-.07m3.17-5.84h-.54v11.13h.54V73.58m6.33 4.76a.67.67 0 0 0 .25-.52.55.55 0 0 0-.52-.54 1.44 1.44 0 0 0-1.08.6 13.78 13.78 0 0 0-.89 1.09h-.1c-.06-.21-.16-.51-.23-.73-.12-.38-.28-.95-.74-.95s-1 .65-1.22 1a1.63 1.63 0 0 0-.14.29c0 .13.18.3.23.24.23-.33.65-.73.82-.73s.24.2.34.51.17.58.33 1.05a.93.93 0 0 1-.11.28c-.52.88-1 1.37-1.23 1.37a.54.54 0 0 1-.4-.37c0-.08-.2-.05-.24 0a1.08 1.08 0 0 0-.43.72.6.6 0 0 0 .57.54c.67 0 1.42-1.08 1.91-1.73h.14c.01 0 .15.44.23.65.15.42.33 1 .85 1a1.5 1.5 0 0 0 1.28-1.24c0-.1-.08-.2-.13-.2s-.11 0-.22.18c-.28.38-.47.4-.6.4-.29 0-.5-.53-.79-1.55 0-.06 0-.2.05-.23.44-.68 1.12-1.48 1.32-1.48s.18.12.23.28.09.18.17.18a.6.6 0 0 0 .35-.13m.5 5.16c0 .08.11.13.27.13h1.9c.3 0 .24-.07.24-.12s-.08-.14-.19-.16c-.52-.11-.61-.15-.48-.7.08-.34.5-1.93.65-2.47.19-.71.33-1.12.37-1.25a.1.1 0 0 0-.13-.14h-.18a6.73 6.73 0 0 1-1.13.27c-.09 0-.21.08-.21.17s.13.12.21.13h.48s.06.1 0 .16-.08.37-.36 1.42c-.22.85-.36 1.24-.51 1.74-.11.35-.26.48-.69.56-.17 0-.32.07-.32.18m4.51-3.63a.54.54 0 1 0 .53.54.53.53 0 0 0-.53-.54m0 2.49a.54.54 0 1 0 0 1.07.52.52 0 0 0 .53-.53.53.53 0 0 0-.53-.55zm2.98-2.79a.33.33 0 0 0-.28.21c-.06.12-.22.5-.27.58a.25.25 0 0 1-.1.08 4.61 4.61 0 0 0-.53 0 .37.37 0 0 0-.14.26c0 .07 0 .1.06.11h.52v.07c-.15.47-.53 1.84-.63 2.19a1.81 1.81 0 0 0-.06.38s.09.31.3.31a2.64 2.64 0 0 0 1.24-.86.49.49 0 0 0 .09-.29s-.08-.13-.11-.11c-.27.23-.59.49-.74.49s-.1-.07 0-.34c.24-.84.46-1.61.52-1.78a.17.17 0 0 1 .09-.08h.77s.17-.26.17-.32 0-.1-.06-.1h-.75c-.05 0-.08 0-.07-.07a6.42 6.42 0 0 0 .2-.73s-.12-.07-.23-.07m1.32 2.18a.28.28 0 0 0-.12.08.61.61 0 0 0-.1.29.15.15 0 0 0 .14.15c.36 0 1.06 0 1.57-.08a.38.38 0 0 0 .13-.1.75.75 0 0 0 .08-.31s-.06-.16-.1-.16c-.21 0-1.43.1-1.6.13m1.78 1.9c0 .08.11.13.27.13h1.9c.3 0 .24-.07.24-.12s-.08-.14-.19-.16c-.52-.11-.61-.15-.48-.7.08-.34.5-1.93.65-2.47.19-.71.33-1.12.37-1.25a.1.1 0 0 0-.09-.11h-.18a6.73 6.73 0 0 1-1.13.27c-.09 0-.21.08-.21.17s.13.12.21.13h.48s.06.1 0 .16-.08.37-.36 1.42c-.22.85-.36 1.24-.51 1.74-.11.35-.26.48-.69.56-.17 0-.32.07-.32.18m5.52 1.28a6.69 6.69 0 0 0 0-11.15l-.26.3a7.38 7.38 0 0 1 0 10.55l.26.3"/></g></g></svg>