<svg xmlns="http://www.w3.org/2000/svg" viewBox="0 0 452.79 125.35"><defs><clipPath id="a" transform="translate(-.64 -.44)"><path d="M0 0h454v126H0z" class="a"/></clipPath><clipPath id="b" transform="translate(-.64 -.44)"><path d="M39.51 0h5.65v12.54h-5.65z" class="a"/></clipPath><clipPath id="c" transform="translate(-.64 -.44)"><path d="M107.46 0h5.65v12.54h-5.65z" class="a"/></clipPath><clipPath id="e" transform="translate(-.64 -.44)"><path d="M19.08 17.81h12.56v5.65H19.08z" class="a"/></clipPath><clipPath id="f" transform="translate(-.64 -.44)"><path d="M19.08 41.59h12.56v5.65H19.08z" class="a"/></clipPath><clipPath id="h" transform="translate(-.64 -.44)"><path d="M141.41 0h5.65v12.54h-5.65z" class="a"/></clipPath><clipPath id="i" transform="translate(-.64 -.44)"><path d="M209.15 0h5.65v12.54h-5.65z" class="a"/></clipPath><clipPath id="k" transform="translate(-.64 -.44)"><path d="M120.98 17.81h12.56v5.65h-12.56z" class="a"/></clipPath><clipPath id="l" transform="translate(-.64 -.44)"><path d="M120.98 41.59h12.56v5.65h-12.56z" class="a"/></clipPath><clipPath id="n" transform="translate(-.64 -.44)"><path d="M239.4 0h5.65v12.54h-5.65z" class="a"/></clipPath><clipPath id="o" transform="translate(-.64 -.44)"><path d="M307.14 0h5.65v12.54h-5.65z" class="a"/></clipPath><clipPath id="q" transform="translate(-.64 -.44)"><path d="M352.05 0h5.65v12.54h-5.65z" class="a"/></clipPath><clipPath id="r" transform="translate(-.64 -.44)"><path d="M420 0h5.65v12.54H420z" class="a"/></clipPath><clipPath id="t" transform="translate(-.64 -.44)"><path d="M326.14 17.93h12.56v5.65h-12.56z" class="a"/></clipPath><clipPath id="u" transform="translate(-.64 -.44)"><path d="M326.14 41.59h12.56v5.65h-12.56z" class="a"/></clipPath><clipPath id="w" transform="translate(-.64 -.44)"><path d="M432.7 17.93h12.56v5.65H432.7z" class="a"/></clipPath><clipPath id="x" transform="translate(-.64 -.44)"><path d="M432.7 41.59h12.56v5.65H432.7z" class="a"/></clipPath><style>.a,.c,.t{fill:none}.b{clip-path:url(#a)}.c,.t{stroke:#000;stroke-miterlimit:10}.c{stroke-width:.72px}.t{stroke-width:.64px}</style></defs><g class="b"><path d="M21.76.15a10.59 10.59 0 0 1-1.69-.07c-.14 0-.31 0-.47-.06s-.24.16-.37.37a11.62 11.62 0 0 0-.64 1.89c0 .24 0 .47.2.47s.27-.09.42-.38a4 4 0 0 1 .77-1.06c.33-.33.71-.4 1.46-.43 1.05-.05 1.92-.05 3-.05.08 0 .08.18 0 .26-.32.36-5.52 6.19-7.67 8.32-.23.23-.12.54 0 .54.35 0 1.27-.09 2.22-.09.73 0 4.36.09 5 .09a2.69 2.69 0 0 0 1-.14 1.54 1.54 0 0 0 .46-.63 8 8 0 0 0 .66-1.75c0-.19 0-.4-.19-.4s-.29.1-.51.48a4.56 4.56 0 0 1-1.31 1.46 4.31 4.31 0 0 1-1.84.3c-.51 0-2.89-.16-3.15-.22-.09 0-.09-.13 0-.19 1.37-1.5 4.8-5.36 5.93-6.52s1.59-1.6 1.7-1.71a.76.76 0 0 0 .21-.43.29.29 0 0 0-.29-.2c-.14 0-3.43.15-4.94.15m5.64 11.99c0 .11.16.18.38.18s.91-.06 1.62-.06h1.06c.22 0 .33-.1.33-.18s-.11-.18-.26-.22c-.74-.15-.86-.21-.67-1 .1-.47.7-2.71.9-3.47.27-1 .47-1.56.53-1.75a.16.16 0 0 0-.13-.08 1.68 1.68 0 0 0-.24.08 11 11 0 0 1-1.59.38c-.13 0-.3.11-.3.23s.19.17.3.18.46 0 .67 0c.06 0 .08.14.06.22-.06.26-.11.52-.51 2-.31 1.19-.5 1.73-.72 2.44-.15.5-.36.68-1 .79-.24 0-.46.1-.46.26M123.66.15a10.59 10.59 0 0 1-1.69-.07c-.14 0-.31 0-.47-.06s-.24.16-.37.37a11.62 11.62 0 0 0-.64 1.89c0 .24 0 .47.2.47s.26-.09.42-.38a4 4 0 0 1 .77-1.06c.33-.33.71-.4 1.46-.43 1-.05 1.92-.05 3-.05.07 0 .07.18 0 .26-.32.36-5.52 6.19-7.66 8.32-.24.23-.13.54 0 .54.35 0 1.27-.09 2.22-.09.73 0 4.36.09 5 .09a2.74 2.74 0 0 0 1-.14 1.54 1.54 0 0 0 .46-.63 8 8 0 0 0 .66-1.75c0-.19 0-.4-.19-.4s-.29.1-.51.48a4.56 4.56 0 0 1-1.31 1.46 4.31 4.31 0 0 1-1.84.3c-.51 0-2.89-.16-3.15-.22-.09 0-.09-.13 0-.19 1.37-1.5 4.8-5.36 5.93-6.52s1.59-1.6 1.7-1.71a.76.76 0 0 0 .21-.43.29.29 0 0 0-.29-.2c-.14 0-3.43.15-4.94.15m8.35 5.41a2.72 2.72 0 0 0-2.23 1.41c-.07.14-.08.38.09.38a.46.46 0 0 0 .25-.17 2.46 2.46 0 0 1 1.54-.87 1 1 0 0 1 1 1.1c0 .83-.67 1.49-1.38 2.18s-1.75 1.62-2.57 2.29a.31.31 0 0 0-.1.25.36.36 0 0 0 .29.17h1.17c.76 0 1.6.06 2.3 0a1.09 1.09 0 0 0 .38-.16 4.32 4.32 0 0 0 .68-1.18c.06-.13.08-.41-.08-.41s-.18.08-.31.24a1.87 1.87 0 0 1-.81.61c-.37.05-1.17 0-2.19 0 0 0-.09 0-.06-.09 1-.85 2-1.75 2.59-2.25a2.7 2.7 0 0 0 1.11-1.91 1.62 1.62 0 0 0-1.67-1.59m99.05-.61a.86.86 0 1 0 0 1.71.86.86 0 1 0 0-1.71m-4.56 0a.86.86 0 1 0 0 1.71.86.86 0 1 0 0-1.71zm-4.56 0a.86.86 0 1 0 0 1.71.86.86 0 1 0 0-1.71zM323.36.15a10.59 10.59 0 0 1-1.69-.07c-.14 0-.31 0-.47-.06s-.24.16-.37.37a11.62 11.62 0 0 0-.64 1.89c0 .24 0 .47.2.47s.26-.09.42-.38a4 4 0 0 1 .77-1.06c.33-.33.71-.4 1.46-.43 1.05-.05 1.92-.05 3-.05.07 0 .07.18 0 .26-.32.36-5.52 6.19-7.66 8.32-.24.23-.13.54 0 .54.35 0 1.27-.09 2.22-.09.73 0 4.36.09 5 .09a2.74 2.74 0 0 0 1-.14 1.54 1.54 0 0 0 .46-.63 8 8 0 0 0 .66-1.75c0-.19 0-.4-.19-.4s-.29.1-.51.48a4.56 4.56 0 0 1-1.31 1.46 4.31 4.31 0 0 1-1.84.3c-.51 0-2.89-.16-3.15-.22-.09 0-.09-.13 0-.19 1.37-1.5 4.8-5.36 5.93-6.52s1.59-1.6 1.7-1.71a.76.76 0 0 0 .21-.43.29.29 0 0 0-.29-.2c-.14 0-3.43.15-4.94.15m7.66 6.35a.48.48 0 0 0-.38.29c-.09.18-.32.71-.39.82a.28.28 0 0 1-.13.11h-.75a.57.57 0 0 0-.2.37c0 .1 0 .15.09.16h.74v.1c-.21.66-.75 2.58-.88 3.07a3 3 0 0 0-.09.53c0 .08.13.44.42.44a3.63 3.63 0 0 0 1.74-1.21.67.67 0 0 0 .14-.4c0-.06-.12-.19-.17-.15-.37.32-.82.69-1 .69s-.13-.1 0-.48c.33-1.19.65-2.27.74-2.5a.18.18 0 0 1 .12-.11h1.08c.06 0 .24-.37.24-.45s0-.13-.08-.13h-1.06a.09.09 0 0 1-.1-.1 9.27 9.27 0 0 0 .29-.99s-.17-.1-.33-.1m2.06 3.27h5.27a.3.3 0 0 0 .3-.3.29.29 0 0 0-.3-.3h-5.25a.3.3 0 0 0-.31.3.31.31 0 0 0 .31.3m6.76 2.41c0 .11.16.18.38.18s.91-.06 1.62-.06h1.06c.22 0 .34-.1.34-.18s-.12-.18-.27-.22c-.74-.15-.86-.21-.67-1 .1-.47.7-2.71.9-3.47.27-1 .47-1.56.52-1.75a.14.14 0 0 0-.13-.16 1.68 1.68 0 0 0-.24.08 11 11 0 0 1-1.59.38c-.13 0-.3.11-.3.23s.19.17.3.18.46 0 .67 0c.06 0 .08.14.06.22-.06.26-.12.52-.5 2-.32 1.19-.51 1.73-.73 2.44-.15.5-.36.68-1 .79-.24 0-.46.1-.46.26M436.16.15a10.59 10.59 0 0 1-1.69-.07c-.14 0-.32 0-.47-.06s-.24.16-.37.37a11.62 11.62 0 0 0-.64 1.89c0 .24 0 .47.19.47s.28-.09.44-.38a3.75 3.75 0 0 1 .74-1.06c.33-.33.71-.4 1.46-.43 1-.05 1.92-.05 3-.05.08 0 .08.18 0 .26-.32.36-5.52 6.19-7.67 8.32-.23.23-.12.54 0 .54.35 0 1.27-.09 2.22-.09.73 0 4.36.09 5 .09a2.69 2.69 0 0 0 1-.14 1.54 1.54 0 0 0 .46-.63 8 8 0 0 0 .66-1.75c0-.19 0-.4-.19-.4s-.29.1-.51.48a4.56 4.56 0 0 1-1.31 1.46 4.31 4.31 0 0 1-1.84.3c-.51 0-2.89-.16-3.15-.22-.09 0-.09-.13 0-.19 1.37-1.5 4.8-5.36 5.93-6.52s1.59-1.6 1.7-1.71a.76.76 0 0 0 .24-.43.29.29 0 0 0-.29-.2c-.14 0-3.43.15-4.94.15m7.76 6.35a.47.47 0 0 0-.38.29c-.09.18-.32.71-.39.82a.28.28 0 0 1-.13.11h-.75a.57.57 0 0 0-.2.37c0 .1.05.15.09.16h.74v.1c-.21.66-.75 2.58-.88 3.07a3 3 0 0 0-.09.53c0 .08.13.44.42.44a3.63 3.63 0 0 0 1.74-1.21.67.67 0 0 0 .14-.4c0-.06-.12-.19-.17-.15-.37.32-.82.69-1 .69s-.13-.1 0-.48c.34-1.19.65-2.27.74-2.5a.18.18 0 0 1 .12-.11h1.08c.06 0 .24-.37.24-.45s0-.13-.08-.13h-1.06a.09.09 0 0 1-.1-.1 9.27 9.27 0 0 0 .28-1s-.17-.1-.33-.1M18.09 52.17c0 .14.19.22.43.29.57.16 1.08.27 1.38.89s1.05 2.21 1.46 3.21a.78.78 0 0 1 0 .43 25.86 25.86 0 0 1-2.8 3.05 4.09 4.09 0 0 1-2.06 1.08c-.4.08-.53.18-.53.32s.22.29.51.29h3.2c.37 0 .54-.11.54-.29s-.08-.24-.31-.32c-.76-.24-.73-.55-.66-.62a33.34 33.34 0 0 1 2.44-2.71.15.15 0 0 1 .23 0 23.17 23.17 0 0 1 1 2.19c.27.62.25.92-.51 1.08-.38.08-.44.24-.44.37s.19.27.46.27h3.36c.33 0 .57-.13.57-.27s-.11-.31-.41-.37a1.8 1.8 0 0 1-1.29-.7c-.17-.31-1.6-3.45-1.75-3.73a.56.56 0 0 1 .07-.42c.67-.76 1.79-2 2.43-2.65a3.9 3.9 0 0 1 2.18-1.08c.27-.06.49-.16.49-.35s-.16-.27-.49-.27c-.5 0-1.1.08-1.75.08h-1.32a.44.44 0 0 0-.41.35c0 .11.08.2.35.27.5.12.62.32.27.73-.64.76-1.47 1.62-2.1 2.3-.08.08-.18.07-.21 0a19.42 19.42 0 0 1-1.14-2.43c-.15-.33.09-.56.51-.65.2-.06.38-.1.38-.24a.37.37 0 0 0-.4-.33h-1.51c-.62 0-1.49-.08-1.65-.08s-.53.11-.53.3m9.49 11.78c0 .11.16.18.38.18s.91-.06 1.62-.06h1.06c.22 0 .33-.1.33-.18s-.11-.18-.26-.22c-.74-.16-.86-.21-.67-1 .1-.47.7-2.71.9-3.47.27-1 .47-1.56.53-1.75a.16.16 0 0 0-.14-.16 1.68 1.68 0 0 0-.24.08 11 11 0 0 1-1.59.38c-.13 0-.3.11-.3.23s.19.17.3.18.46 0 .67 0c.06 0 .08.14.06.22-.06.26-.11.52-.51 2-.31 1.19-.5 1.73-.72 2.44-.15.5-.36.68-1 .79-.24 0-.46.1-.46.26m92.46-11.69c0 .14.19.22.43.29.57.16 1.08.27 1.38.89s1 2.25 1.47 3.19a.78.78 0 0 1 0 .43 25.86 25.86 0 0 1-2.8 3.05 4.09 4.09 0 0 1-2.11 1.08c-.4.08-.53.18-.53.32s.23.29.51.29h3.2c.37 0 .54-.11.54-.29s-.08-.24-.31-.32c-.76-.24-.73-.55-.66-.62a33.45 33.45 0 0 1 2.45-2.71c0-.07.19 0 .22 0a23.17 23.17 0 0 1 1 2.19c.27.62.25.92-.51 1.08-.38.08-.44.24-.44.37s.19.27.46.27h3.36c.33 0 .57-.13.57-.27s-.11-.31-.41-.37a1.8 1.8 0 0 1-1.29-.7c-.17-.31-1.6-3.45-1.75-3.73a.56.56 0 0 1 .07-.42c.67-.76 1.79-2 2.43-2.65a3.9 3.9 0 0 1 2.18-1.08c.27-.06.49-.16.49-.35s-.16-.27-.49-.27c-.5 0-1.1.08-1.75.08h-1.32a.44.44 0 0 0-.41.35c0 .11.08.2.35.27.5.12.61.32.27.73-.64.76-1.47 1.62-2.1 2.3-.08.08-.18.07-.21 0a19.42 19.42 0 0 1-1.14-2.43c-.15-.33.09-.56.51-.65.2-.06.38-.1.38-.24a.37.37 0 0 0-.4-.33h-1.51c-.62 0-1.49-.08-1.65-.08s-.53.11-.53.3m12.34 5.18a2.72 2.72 0 0 0-2.23 1.41c-.07.14-.08.38.09.38a.46.46 0 0 0 .25-.17 2.46 2.46 0 0 1 1.54-.87 1 1 0 0 1 1 1.1c0 .83-.67 1.49-1.38 2.18s-1.75 1.62-2.57 2.29a.35.35 0 0 0-.1.25.37.37 0 0 0 .29.17h1.19c.76 0 1.6.06 2.3 0a1.09 1.09 0 0 0 .38-.16 4.4 4.4 0 0 0 .68-1.17c.06-.14.08-.42-.08-.42s-.18.08-.31.24a1.87 1.87 0 0 1-.81.61h-2.19s-.09 0-.06-.09c1-.85 2-1.75 2.59-2.25a2.7 2.7 0 0 0 1.11-1.91 1.62 1.62 0 0 0-1.67-1.65m187.39-5.09c0 .14.19.22.43.29.57.16 1.08.27 1.38.89s1.05 2.21 1.47 3.21a.78.78 0 0 1 0 .43 25.86 25.86 0 0 1-2.8 3.05 4.09 4.09 0 0 1-2.06 1.08c-.4.08-.53.18-.53.32s.22.29.51.29h3.2c.22 0 .54-.11.54-.29s-.08-.24-.31-.32c-.76-.24-.73-.55-.66-.62a35.31 35.31 0 0 1 2.44-2.71.15.15 0 0 1 .23 0 23.17 23.17 0 0 1 1 2.19c.27.62.25.92-.51 1.08-.38.08-.45.24-.45.37s.2.27.47.27h3.36c.34 0 .57-.13.57-.27s-.11-.31-.41-.37a1.8 1.8 0 0 1-1.29-.7c-.17-.31-1.6-3.45-1.75-3.73a.56.56 0 0 1 .07-.42c.66-.76 1.79-2 2.43-2.65a3.9 3.9 0 0 1 2.18-1.08c.27-.06.49-.16.49-.35s-.16-.27-.49-.27c-.5 0-1.1.08-1.75.08h-1.32a.44.44 0 0 0-.41.35c0 .11.08.2.35.27.5.12.61.32.27.73-.64.76-1.47 1.62-2.1 2.3-.08.08-.18.07-.21 0a19.42 19.42 0 0 1-1.14-2.43c-.15-.33.09-.56.51-.65.2-.06.38-.1.38-.24a.37.37 0 0 0-.4-.33h-1.51c-.62 0-1.49-.08-1.65-.08s-.53.11-.53.3m11.5 6.14a.48.48 0 0 0-.38.29c-.09.18-.32.71-.39.82a.28.28 0 0 1-.13.11h-.75a.54.54 0 0 0-.2.37c0 .1 0 .15.09.16h.74v.1c-.21.66-.75 2.58-.88 3.07a2.82 2.82 0 0 0-.09.53c0 .08.13.44.42.44a3.63 3.63 0 0 0 1.74-1.16.65.65 0 0 0 .14-.4c0-.07-.13-.19-.17-.15a2.85 2.85 0 0 1-1 .69c-.1 0-.13-.1 0-.48.34-1.18.65-2.27.74-2.5a.18.18 0 0 1 .12-.11h1.08c.06 0 .24-.37.24-.45s0-.13-.08-.13h-1.07a.09.09 0 0 1-.1-.1 9.27 9.27 0 0 0 .28-1s-.17-.1-.33-.1m2.08 3.26h5.25a.3.3 0 0 0 .3-.3.29.29 0 0 0-.3-.3h-5.25a.29.29 0 0 0-.3.3.3.3 0 0 0 .3.3m6.78 2.38c0 .11.16.18.38.18s.91-.06 1.62-.06h1.06c.22 0 .33-.1.33-.18s-.11-.18-.26-.22c-.74-.16-.86-.21-.67-1 .1-.47.7-2.71.9-3.47.27-1 .47-1.56.53-1.75a.16.16 0 0 0-.14-.16 1.68 1.68 0 0 0-.24.08 11 11 0 0 1-1.59.38c-.13 0-.3.11-.3.23s.19.17.3.18.46 0 .67 0c.06 0 .08.14.06.22-.06.26-.11.52-.51 2-.31 1.19-.5 1.73-.72 2.44-.15.5-.36.68-1 .79-.25 0-.46.1-.46.26m92.46-11.69c0 .14.19.22.43.29.57.16 1.08.27 1.38.89s1.06 2.21 1.47 3.21a.78.78 0 0 1 0 .43 25.86 25.86 0 0 1-2.8 3.05 4.09 4.09 0 0 1-2.06 1.08c-.4.08-.53.18-.53.32s.23.29.51.29h3.2c.37 0 .54-.11.54-.29s-.08-.24-.31-.32c-.76-.24-.73-.55-.66-.62a31.68 31.68 0 0 1 2.45-2.71c0-.07.19 0 .22 0a23.17 23.17 0 0 1 1 2.19c.27.62.25.92-.51 1.08-.38.08-.44.24-.44.37s.19.27.46.27h3.36c.33 0 .57-.13.57-.27s-.11-.31-.41-.37a1.8 1.8 0 0 1-1.29-.7c-.17-.31-1.6-3.45-1.75-3.73a.56.56 0 0 1 .07-.42c.66-.76 1.79-2 2.43-2.65a3.9 3.9 0 0 1 2.18-1.08c.27-.06.49-.16.49-.35s-.16-.27-.49-.27c-.5 0-1.1.08-1.75.08h-1.32a.44.44 0 0 0-.41.35c0 .11.08.2.35.27.5.12.62.32.27.73-.64.76-1.47 1.62-2.1 2.3-.08.08-.18.07-.21 0a19.42 19.42 0 0 1-1.14-2.43c-.15-.33.09-.56.51-.65.2-.06.38-.1.38-.24a.37.37 0 0 0-.4-.33h-1.51c-.62 0-1.49-.08-1.65-.08s-.53.11-.53.3m11.6 6.14a.48.48 0 0 0-.38.29c-.09.18-.32.71-.39.82a.28.28 0 0 1-.13.11h-.75a.54.54 0 0 0-.2.37c0 .1 0 .15.09.16h.74v.1c-.21.66-.75 2.58-.88 3.07a2.82 2.82 0 0 0-.09.53c0 .08.13.44.42.44a3.63 3.63 0 0 0 1.74-1.21.65.65 0 0 0 .14-.4c0-.07-.13-.19-.17-.15a2.85 2.85 0 0 1-1 .69c-.1 0-.13-.1 0-.48.33-1.18.65-2.27.74-2.5a.18.18 0 0 1 .12-.11h1.08c.06 0 .24-.37.24-.45s0-.13-.08-.13h-1.06a.09.09 0 0 1-.1-.1 9.27 9.27 0 0 0 .28-1s-.17-.1-.33-.1"/><path d="M44.52 5.81h62.3" class="c"/></g><g clip-path="url(#b)"><path d="M47.06 8.1a.36.36 0 0 0 .36.37.36.36 0 0 0 .29-.15 5.71 5.71 0 0 1 3.19-2.14.37.37 0 0 0 .31-.37.36.36 0 0 0-.31-.35 5.66 5.66 0 0 1-3.19-2.14.36.36 0 0 0-.29-.15.36.36 0 0 0-.36.39c0 .37 1.06 1.14 1.83 1.91h-8.65a.37.37 0 0 0-.37.36.36.36 0 0 0 .37.37h8.65c-.73.75-1.83 1.54-1.83 1.92"/></g><g clip-path="url(#c)"><path d="M107.3 3.56c0 .36 1.06 1.14 1.83 1.92h-8.65a.38.38 0 0 0-.37.37.38.38 0 0 0 .37.36h8.65c-.74.73-1.83 1.53-1.83 1.91a.36.36 0 0 0 .36.37.36.36 0 0 0 .29-.15 5.66 5.66 0 0 1 3.19-2.14.36.36 0 0 0 .31-.35.37.37 0 0 0-.31-.37 5.71 5.71 0 0 1-3.19-2.14.36.36 0 0 0-.29-.15.36.36 0 0 0-.36.37"/></g><g class="b"><path d="M24.72 23.01v18.13" class="c"/></g><g clip-path="url(#e)"><path d="M22.42 25.56a.36.36 0 0 0-.37.36.36.36 0 0 0 .15.29 5.71 5.71 0 0 1 2.16 3.19.37.37 0 0 0 .37.31.36.36 0 0 0 .35-.31 5.66 5.66 0 0 1 2.14-3.19.36.36 0 0 0 .15-.29.36.36 0 0 0-.37-.36c-.37 0-1.14 1.06-1.91 1.83v-8.65a.37.37 0 0 0-.36-.37.36.36 0 0 0-.37.37v8.65c-.75-.74-1.54-1.83-1.92-1.83"/></g><g clip-path="url(#f)"><path d="M27 41.7c-.36 0-1.14 1.06-1.92 1.83v-8.65a.38.38 0 0 0-.37-.37.38.38 0 0 0-.36.37v8.68c-.73-.74-1.53-1.83-1.91-1.83a.36.36 0 0 0-.37.36.36.36 0 0 0 .15.29 5.66 5.66 0 0 1 2.14 3.18.36.36 0 0 0 .35.31.37.37 0 0 0 .37-.31 5.71 5.71 0 0 1 2.14-3.19.36.36 0 0 0 .14-.31.36.36 0 0 0-.37-.36"/></g><g class="b"><path d="M146.42 5.81h62.09" class="c"/></g><g clip-path="url(#h)"><path d="M148.96 8.1a.36.36 0 0 0 .36.37.35.35 0 0 0 .29-.15 5.71 5.71 0 0 1 3.19-2.14.37.37 0 0 0 .31-.37.36.36 0 0 0-.31-.35 5.66 5.66 0 0 1-3.19-2.14.35.35 0 0 0-.29-.15.36.36 0 0 0-.36.37c0 .37 1.06 1.14 1.83 1.91h-8.65a.37.37 0 0 0-.37.36.36.36 0 0 0 .37.37h8.65c-.73.75-1.83 1.54-1.83 1.92"/></g><g clip-path="url(#i)"><path d="M209 3.56c0 .36 1.06 1.14 1.83 1.92h-8.65a.38.38 0 0 0-.37.37.38.38 0 0 0 .37.36h8.65c-.74.73-1.83 1.53-1.83 1.91a.36.36 0 0 0 .36.37.36.36 0 0 0 .29-.15 5.66 5.66 0 0 1 3.19-2.14.36.36 0 0 0 .31-.35.37.37 0 0 0-.31-.37 5.71 5.71 0 0 1-3.19-2.14.36.36 0 0 0-.29-.15.36.36 0 0 0-.36.37"/></g><g class="b"><path d="M126.62 23.01v18.13" class="c"/></g><g clip-path="url(#k)"><path d="M124.36 25.56a.36.36 0 0 0-.37.36.36.36 0 0 0 .15.29 5.71 5.71 0 0 1 2.14 3.19.37.37 0 0 0 .37.31.36.36 0 0 0 .35-.31 5.66 5.66 0 0 1 2.14-3.19.36.36 0 0 0 .15-.29.36.36 0 0 0-.37-.36c-.36 0-1.15 1.06-1.91 1.83v-8.65a.37.37 0 0 0-.36-.37.36.36 0 0 0-.37.37v8.65c-.75-.74-1.54-1.83-1.92-1.83"/></g><g clip-path="url(#l)"><path d="M128.9 41.7c-.36 0-1.14 1.06-1.92 1.83v-8.65a.38.38 0 0 0-.37-.37.38.38 0 0 0-.36.37v8.68c-.73-.74-1.53-1.83-1.91-1.83a.36.36 0 0 0-.37.36.36.36 0 0 0 .15.29 5.66 5.66 0 0 1 2.14 3.18.36.36 0 0 0 .35.31.37.37 0 0 0 .37-.31 5.71 5.71 0 0 1 2.14-3.19.36.36 0 0 0 .15-.29.36.36 0 0 0-.37-.36"/></g><g class="b"><path d="M244.41 5.81h62.09" class="c"/></g><g clip-path="url(#n)"><path d="M246.96 8.1a.36.36 0 0 0 .36.37.36.36 0 0 0 .29-.15 5.71 5.71 0 0 1 3.19-2.14.37.37 0 0 0 .31-.37.36.36 0 0 0-.31-.35 5.66 5.66 0 0 1-3.19-2.14.36.36 0 0 0-.29-.15.36.36 0 0 0-.36.37c0 .37 1.06 1.14 1.83 1.91h-8.65a.37.37 0 0 0-.37.36.36.36 0 0 0 .37.37h8.65c-.74.75-1.83 1.54-1.83 1.92"/></g><g clip-path="url(#o)"><path d="M307 3.56c0 .36 1.06 1.14 1.83 1.92h-8.65a.38.38 0 0 0-.37.37.38.38 0 0 0 .37.36h8.65c-.74.73-1.83 1.53-1.83 1.91a.36.36 0 0 0 .36.37.36.36 0 0 0 .29-.15 5.66 5.66 0 0 1 3.19-2.14.36.36 0 0 0 .31-.35.37.37 0 0 0-.31-.37 5.71 5.71 0 0 1-3.19-2.14.36.36 0 0 0-.29-.15.36.36 0 0 0-.36.37"/></g><g class="b"><path d="M357.06 5.81h62.3" class="c"/></g><g clip-path="url(#q)"><path d="M359.56 8.1a.36.36 0 0 0 .36.37.36.36 0 0 0 .29-.15 5.71 5.71 0 0 1 3.15-2.14.37.37 0 0 0 .31-.37.36.36 0 0 0-.31-.35 5.66 5.66 0 0 1-3.19-2.14.36.36 0 0 0-.29-.15.36.36 0 0 0-.36.37c0 .37 1.06 1.14 1.83 1.91h-8.65a.37.37 0 0 0-.37.36.36.36 0 0 0 .37.37h8.66c-.74.75-1.83 1.54-1.83 1.92"/></g><g clip-path="url(#r)"><path d="M419.9 3.56c0 .36 1.06 1.14 1.83 1.92h-8.65a.38.38 0 0 0-.37.37.38.38 0 0 0 .37.36h8.65c-.74.73-1.83 1.53-1.83 1.91a.36.36 0 0 0 .36.37.36.36 0 0 0 .29-.15 5.66 5.66 0 0 1 3.19-2.14.36.36 0 0 0 .31-.35.37.37 0 0 0-.31-.37 5.71 5.71 0 0 1-3.19-2.14.36.36 0 0 0-.29-.15.36.36 0 0 0-.36.37"/></g><g class="b"><path d="M331.78 23.14v1.25l1.37 1.66-2.73 3.32 2.73 3.31-2.73 3.32 1.36 1.66v3.48" class="c"/></g><g clip-path="url(#t)"><path d="M329.52 25.66a.36.36 0 0 0-.37.36.36.36 0 0 0 .15.29 5.71 5.71 0 0 1 2.14 3.19.37.37 0 0 0 .37.31.36.36 0 0 0 .35-.31 5.66 5.66 0 0 1 2.14-3.19.36.36 0 0 0 .15-.29.36.36 0 0 0-.37-.36c-.37 0-1.15 1.06-1.91 1.83v-8.65a.37.37 0 0 0-.36-.37.36.36 0 0 0-.37.37v8.65c-.75-.74-1.54-1.83-1.92-1.83"/></g><g clip-path="url(#u)"><path d="M334.1 41.7c-.36 0-1.14 1.06-1.92 1.83v-8.65a.38.38 0 0 0-.37-.37.38.38 0 0 0-.36.37v8.68c-.73-.74-1.53-1.83-1.91-1.83a.36.36 0 0 0-.37.36.36.36 0 0 0 .15.29 5.66 5.66 0 0 1 2.14 3.18.36.36 0 0 0 .35.31.37.37 0 0 0 .37-.31 5.71 5.71 0 0 1 2.18-3.21.36.36 0 0 0 .15-.29.36.36 0 0 0-.37-.36"/></g><g class="b"><path d="M438.34 23.14v1.25l1.36 1.66-2.72 3.32 2.72 3.31-2.72 3.32 1.36 1.66v3.48" class="c"/></g><g clip-path="url(#w)"><path d="M436.12 25.66a.36.36 0 0 0-.37.36.36.36 0 0 0 .15.29 5.71 5.71 0 0 1 2.14 3.19.37.37 0 0 0 .37.31.36.36 0 0 0 .35-.31 5.66 5.66 0 0 1 2.14-3.19.36.36 0 0 0 .15-.29.36.36 0 0 0-.37-.36c-.37 0-1.15 1.06-1.91 1.83v-8.65a.37.37 0 0 0-.36-.37.36.36 0 0 0-.37.37v8.65c-.75-.74-1.54-1.83-1.92-1.83"/></g><g clip-path="url(#x)"><path d="M440.6 41.7c-.36 0-1.14 1.06-1.92 1.83v-8.65a.38.38 0 0 0-.32-.32.38.38 0 0 0-.36.37v8.63c-.73-.74-1.53-1.83-1.91-1.83a.36.36 0 0 0-.37.36.36.36 0 0 0 .15.29 5.66 5.66 0 0 1 2.09 3.18.36.36 0 0 0 .35.31.37.37 0 0 0 .37-.31 5.71 5.71 0 0 1 2.14-3.19.36.36 0 0 0 .15-.29.36.36 0 0 0-.37-.36"/></g><g class="b"><path d="M9.74 69.75c2.39 4.78 8 8 15.94 8h34.05c8 0 13.55 3.19 15.94 8 2.39-4.78 8-8 15.94-8h34.05c8 0 13.55-3.19 15.94-8" class="t"/><path d="M8.13 92.24c0 .13.06.22.38.35s.47.24.51.43 0 1.72 0 3.86c0 2.74 0 3.72-.06 4s-.06.52-.79.79c-.29.1-.4.22-.4.38s.2.19.46.19.7-.06 1.32-.06c.41 0 1.06.05 1.51.05s.46-.1.46-.23-.08-.23-.33-.33c-.77-.29-.82-.3-.86-1v-8.63c0-.45-.06-.69-.19-.69a1.36 1.36 0 0 0-.33.07 13.62 13.62 0 0 0-1.43.51c-.11 0-.3.15-.3.28m6.75 9.08a1.06 1.06 0 0 1-1.07-1c0-.4.15-.57.59-.73a14.19 14.19 0 0 1 1.7-.41s.13 0 .13.09v1a1.76 1.76 0 0 1-.12.48 2 2 0 0 1-1.21.54m.61-5.7a3.83 3.83 0 0 0-1.87.71c-.69.48-1.15 1-1.15 1.24a.52.52 0 0 0 .19.26 2.66 2.66 0 0 0 .67.08 1.22 1.22 0 0 0 .46-.13.52.52 0 0 0 .15-.35 1.76 1.76 0 0 1 .15-.81 1.39 1.39 0 0 1 .72-.21 1.5 1.5 0 0 1 1.4.89 1.13 1.13 0 0 1 .05.42v.6a.3.3 0 0 1-.18.24 14.69 14.69 0 0 1-2.7.76 1.57 1.57 0 0 0-.64.46 1.23 1.23 0 0 0-.23.77 1.8 1.8 0 0 0 1.51 1.87 1.71 1.71 0 0 0 .84-.24 11.82 11.82 0 0 0 1.22-.76s.16.06.16.08a1.1 1.1 0 0 0 1.13 1 1.4 1.4 0 0 0 1.16-.57 2 2 0 0 0 .14-.41c0-.13-.08-.29-.14-.26a1.56 1.56 0 0 1-.54.15c-.3 0-.57-.26-.57-.78 0-1.78.06-2.45.06-3a2.34 2.34 0 0 0-.54-1.37 1.92 1.92 0 0 0-1.45-.64zm9.49 3.4a2.92 2.92 0 0 1-.76 2.33 2.13 2.13 0 0 1-1.07.28 1.52 1.52 0 0 1-1.57-.92 5.94 5.94 0 0 1-.16-2 12.55 12.55 0 0 1 0-1.67 1.4 1.4 0 0 1 .22-.32 1.47 1.47 0 0 1 1.07-.32 2.38 2.38 0 0 1 2.22 2.59m1.48-.19a3.3 3.3 0 0 0-1.02-2.45 2.85 2.85 0 0 0-2-.73 4.4 4.4 0 0 0-1.84.54c-.06 0-.16 0-.16-.11 0-1.77.07-3 .13-4.19 0-.19-.08-.38-.16-.38a.93.93 0 0 0-.35.1c-.43.21-1.16.41-1.48.54-.08 0-.22.25-.22.3s0 .13.24.26c.38.22.46.31.49.46a12.18 12.18 0 0 1 .08 2.32c0 1.86-.08 6.2-.08 6.32a.29.29 0 0 0 .24.29 2 2 0 0 1 .44 0 6 6 0 0 0 1.88.35 4 4 0 0 0 2.38-.79 3.61 3.61 0 0 0 1.48-2.8zm4.54-2.65c.84 0 1.22.43 1.22.9s-.73.58-1.33.58h-1.16a.17.17 0 0 1-.1-.15 1.75 1.75 0 0 1 1.37-1.29m.44-.57a3.38 3.38 0 0 0-1.86.54 3.48 3.48 0 0 0-1.54 3 3 3 0 0 0 3.11 3.29 3.17 3.17 0 0 0 2.27-1 .73.73 0 0 0 .21-.49c0-.17-.13-.25-.19-.2a3.31 3.31 0 0 1-1.61.6 2.43 2.43 0 0 1-2.39-2.53 1.48 1.48 0 0 1 .08-.49.43.43 0 0 1 .26-.17h3.41c.16 0 .43-.3.43-.48a2 2 0 0 0-.27-1.11 2.16 2.16 0 0 0-1.91-.96zm3.37-3.32c0 .13.06.22.38.35s.47.24.51.43 0 1.72 0 3.86c0 2.74 0 3.72-.06 4s-.06.52-.79.79c-.29.1-.4.22-.4.38s.2.19.46.19.7-.06 1.32-.06c.41 0 1.06.05 1.51.05s.46-.1.46-.23-.08-.23-.33-.33c-.77-.29-.82-.3-.86-1v-8.63c0-.45-.06-.69-.19-.69a1.36 1.36 0 0 0-.33.07 13.62 13.62 0 0 0-1.43.51c-.11 0-.3.15-.3.28m4.55.03c0 .13.06.22.38.35s.47.24.51.43 0 1.72 0 3.86c0 2.74 0 3.72-.06 4s-.06.52-.79.79c-.29.1-.4.22-.4.38s.2.19.46.19.7-.06 1.32-.06c.41 0 1.06.05 1.51.05s.46-.1.46-.23-.08-.23-.33-.33c-.77-.29-.82-.3-.86-1v-8.63c0-.45-.06-.69-.19-.69a1.36 1.36 0 0 0-.33.07 13.62 13.62 0 0 0-1.43.51c-.11 0-.3.15-.3.28m7.18 3.88c.84 0 1.22.43 1.22.9s-.73.58-1.33.58h-1.16a.17.17 0 0 1-.1-.15 1.75 1.75 0 0 1 1.37-1.33m.48-.57a3.38 3.38 0 0 0-1.86.54 3.48 3.48 0 0 0-1.54 3 3 3 0 0 0 3.11 3.29 3.17 3.17 0 0 0 2.27-1 .73.73 0 0 0 .21-.49c0-.17-.13-.25-.19-.2a3.31 3.31 0 0 1-1.61.6 2.43 2.43 0 0 1-2.43-2.5 1.48 1.48 0 0 1 .08-.49.43.43 0 0 1 .26-.17h3.41c.16 0 .43-.3.43-.48a2 2 0 0 0-.27-1.11 2.16 2.16 0 0 0-1.91-.95zm6.73.68a2 2 0 0 1 1.64.79 2 2 0 0 1 .12.62v3a.93.93 0 0 1-.15.4 2.44 2.44 0 0 1-1.25.4c-1.41 0-2.19-1.47-2.19-2.69a2.74 2.74 0 0 1 .75-2.07 1.66 1.66 0 0 1 1.08-.44m.67-.68a4.64 4.64 0 0 0-2.21.63 3.49 3.49 0 0 0-1.77 3.08 3 3 0 0 0 3 3.12 4.86 4.86 0 0 0 2-.79h.13v.65c0 .18.21.21.29.21.24 0 .92-.23 2-.47a.58.58 0 0 0 .35-.42c0-.18-.13-.29-.22-.27a8.47 8.47 0 0 1-.88.09c-.13 0-.27-.13-.29-.63s-.06-.74-.06-3.93c0-1.29.06-3.46.06-4.47 0-.73 0-1-.2-1s-1.59.27-2 .38-.33.16-.33.21a.41.41 0 0 0 .3.34c.7.17.77.22.81.74v2.37c0 .09-.06.19-.12.18a4.34 4.34 0 0 0-.86.01zm9.75.18c-.11 0-.12-.13-.12-.19v-.78c0-.17-.08-.24-.14-.24a1 1 0 0 0-.64.41 7.36 7.36 0 0 1-1.14 1c-.14.12-.33.27-.33.33a.71.71 0 0 0 .47.46c.45.06.49.08.49.25 0 1.52-.07 2.48-.07 3.6a2.09 2.09 0 0 0 .22 1.12 1.79 1.79 0 0 0 1.4.74 2.88 2.88 0 0 0 1.62-.5.78.78 0 0 0 .38-.55c0-.13-.08-.24-.14-.24a2.26 2.26 0 0 0-.35.09 2.43 2.43 0 0 1-.73.15 1.47 1.47 0 0 1-.86-.35c-.19-.22-.26-.48-.24-1.19l.05-2.9c0-.17.08-.24.11-.24h1.79c.18 0 .32 0 .37-.21a3.56 3.56 0 0 0 0-.51c0-.09-.1-.27-.21-.27-.37 0-1.78.07-2 .07m3.44.68c0 .09.18.24.35.36.38.27.4.38.4.48v3.51c0 .37-.06.61-.68.83-.19.06-.37.16-.37.33s.15.26.43.26c.45 0 .73-.05 1.29-.05s1.27.06 1.76.06c.19 0 .4-.14.4-.27s-.21-.27-.57-.36c-.71-.19-.84-.35-.89-1.1v-3a.84.84 0 0 1 .14-.37.86.86 0 0 1 .73-.36 1 1 0 0 1 .57.19.67.67 0 0 0 .37.16.43.43 0 0 0 .25-.13 1.63 1.63 0 0 0 .64-1c0-.18-.41-.49-.87-.49a2.56 2.56 0 0 0-1.72.93c0 .07-.16 0-.16 0v-.78s-.13-.22-.19-.22a1.21 1.21 0 0 0-.46.15c-.34.18-.83.4-1.08.54a.4.4 0 0 0-.23.34m7.76 4.84a1.06 1.06 0 0 1-1.07-1c0-.4.15-.57.59-.73a14.19 14.19 0 0 1 1.7-.41s.13 0 .13.09v1a1.45 1.45 0 0 1-.13.48 1.94 1.94 0 0 1-1.2.54m.61-5.7a3.83 3.83 0 0 0-1.87.71c-.69.48-1.15 1-1.15 1.24a.52.52 0 0 0 .19.26 2.66 2.66 0 0 0 .67.08 1.22 1.22 0 0 0 .46-.13.52.52 0 0 0 .15-.35 1.76 1.76 0 0 1 .15-.81 1.39 1.39 0 0 1 .72-.21 1.51 1.51 0 0 1 1.4.89 1.13 1.13 0 0 1 0 .42v.6a.3.3 0 0 1-.18.24 15 15 0 0 1-2.7.76 1.57 1.57 0 0 0-.64.46 1.23 1.23 0 0 0-.23.77 1.8 1.8 0 0 0 1.53 1.86 1.71 1.71 0 0 0 .84-.24 11.82 11.82 0 0 0 1.22-.76s.16.06.16.08a1.1 1.1 0 0 0 1.13 1 1.4 1.4 0 0 0 1.16-.57 2 2 0 0 0 .14-.41c0-.13-.08-.29-.14-.26a1.56 1.56 0 0 1-.54.15c-.3 0-.57-.26-.57-.78 0-1.78.06-2.45.06-3a2.34 2.34 0 0 0-.46-1.44 1.92 1.92 0 0 0-1.5-.56zm5.7-3.33a.87.87 0 0 0-.92.9.85.85 0 0 0 .15.48 1 1 0 0 0 .69.36.89.89 0 0 0 .84-.9 1.17 1.17 0 0 0-.27-.65.7.7 0 0 0-.49-.19m-1.38 4a.45.45 0 0 0 .18.33c.46.3.6.48.62.61s0 .92 0 1.24c0 .9 0 2-.07 2.32-.06.65-.09.78-.79 1-.22.06-.38.18-.38.32s.16.24.47.24.53-.05 1.34-.05c.35 0 1 .05 1.33.05s.46-.07.46-.21-.16-.3-.38-.37c-.57-.15-.63-.31-.65-.44s0-.44-.06-2.53v-2.98s-.1-.26-.16-.26a8.4 8.4 0 0 0-1.72.53c-.08.03-.19.11-.19.19zm4.3.16s0 .1.22.24c.39.24.55.41.55.67 0 1.62 0 2.81-.09 3.57 0 .35-.11.54-.81.76-.16.05-.35.18-.35.34s.17.24.46.24.76-.05 1.25-.05.86.05 1.39.05c.28 0 .44-.13.44-.26s-.12-.27-.41-.38c-.64-.24-.62-.43-.62-.67v-3.68a.67.67 0 0 1 .19-.4 2.39 2.39 0 0 1 1.37-.35 1.32 1.32 0 0 1 1.13.43 3.47 3.47 0 0 1 .3 1.87v2.17c0 .39-.13.54-.52.68s-.35.24-.35.33.22.26.43.26.54-.05 1-.05 1 .05 1.19.05.46-.1.46-.26-.11-.3-.48-.44-.39-.29-.41-.75v-2.38a3.88 3.88 0 0 0-.47-2.12 1.64 1.64 0 0 0-1.53-.7 3.92 3.92 0 0 0-2.26.81h-.11c.02 0 0-.62 0-.7s-.23-.19-.27-.19a1.84 1.84 0 0 0-.42.16c-.31.16-.73.3-1 .44a.6.6 0 0 0-.28.4m9.78-4.25a.87.87 0 0 0-.92.9.85.85 0 0 0 .15.48 1 1 0 0 0 .69.36.9.9 0 0 0 .84-.9 1.17 1.17 0 0 0-.27-.65.7.7 0 0 0-.49-.19m-1.38 4a.45.45 0 0 0 .17.31c.46.3.6.48.62.61s0 .92 0 1.24c0 .9 0 2-.07 2.32-.06.65-.09.78-.79 1-.23.06-.38.18-.38.32s.15.24.47.24.53-.05 1.34-.05c.35 0 1 .05 1.33.05s.46-.07.46-.21-.16-.3-.38-.37c-.57-.15-.63-.31-.65-.44s0-.44-.06-2.53v-2.96s-.1-.26-.16-.26a8.4 8.4 0 0 0-1.72.53c-.07.03-.18.11-.18.19zm4.4.16s0 .1.22.24c.39.24.55.41.55.67 0 1.62 0 2.81-.09 3.57 0 .35-.11.54-.81.76-.16.05-.35.18-.35.34s.17.24.46.24.76-.05 1.26-.05.85.05 1.38.05c.28 0 .44-.13.44-.26s-.12-.27-.41-.38c-.64-.24-.62-.43-.62-.67v-3.68a.67.67 0 0 1 .19-.4 2.39 2.39 0 0 1 1.37-.35 1.32 1.32 0 0 1 1.13.43 3.36 3.36 0 0 1 .3 1.87v2.17c0 .39-.12.54-.52.68s-.35.24-.35.33.22.26.43.26.54-.05 1-.05 1 .05 1.19.05.46-.1.46-.26-.11-.3-.47-.44-.4-.29-.42-.75v-2.38a3.88 3.88 0 0 0-.47-2.12 1.65 1.65 0 0 0-1.47-.74 3.91 3.91 0 0 0-2.25.81h-.11c.02 0 0-.62 0-.7s-.22-.19-.27-.19a1.68 1.68 0 0 0-.42.16c-.31.16-.73.3-1 .44a.6.6 0 0 0-.28.4m11.51 8.95c-1.11 0-2.3-.48-2.3-1.58a1.15 1.15 0 0 1 .67-1 3.2 3.2 0 0 1 1.27-.23 8.76 8.76 0 0 1 1.36.09c.56.1 1.13.4 1.15 1.11a1.41 1.41 0 0 1-.79 1.32 3 3 0 0 1-1.36.34m-.63-9.25a1.57 1.57 0 0 1 1.55 1.73 2.66 2.66 0 0 1-.36 1.38 1.21 1.21 0 0 1-.83.33c-.66 0-1.52-.49-1.52-1.89 0-.76.36-1.6 1.16-1.6zm.22-.62a3.59 3.59 0 0 0-1.84.62 2.31 2.31 0 0 0 .3 3.84v.15a4.77 4.77 0 0 1-1.13.81s-.08.11-.08.15a1.32 1.32 0 0 0 .46 1.09 1.27 1.27 0 0 0 .46.22v.16c-.27.24-.73.59-1 .78a1.39 1.39 0 0 0-.33.82c0 1.53 1.84 2 2.86 2a5 5 0 0 0 2.69-.73 2.86 2.86 0 0 0 1.38-2.28 1.83 1.83 0 0 0-.62-1.33 1.86 1.86 0 0 0-1.22-.46c-.5 0-1.64-.07-2.59-.07-.08 0-.61-.08-.61-.54a.8.8 0 0 1 .37-.49.35.35 0 0 1 .24-.08h.43a3.38 3.38 0 0 0 2-.64 2.25 2.25 0 0 0 .86-1.81 2.31 2.31 0 0 0-.31-1.11c.35 0 1 .09 1.39.09a.36.36 0 0 0 .19-.27c0-.22-.11-.65-.24-.65h-1.73a2.41 2.41 0 0 1-.59-.11 4.32 4.32 0 0 0-1.34-.17zm11.32.63a2 2 0 0 1 1.64.79 2 2 0 0 1 .12.62v3a.93.93 0 0 1-.15.4 2.43 2.43 0 0 1-1.24.4c-1.42 0-2.2-1.47-2.2-2.69a2.74 2.74 0 0 1 .75-2.07 1.66 1.66 0 0 1 1.08-.44m.67-.68a4.64 4.64 0 0 0-2.21.63 3.48 3.48 0 0 0-1.76 3.08 2.94 2.94 0 0 0 3 3.12 4.86 4.86 0 0 0 2-.79h.13v.65c0 .18.21.21.29.21.24 0 .92-.23 2-.47a.58.58 0 0 0 .35-.42c0-.18-.13-.29-.22-.27a8.47 8.47 0 0 1-.88.09c-.13 0-.27-.13-.28-.63s-.07-.74-.07-3.93c0-1.29.07-3.46.07-4.47 0-.73 0-1-.21-1a20 20 0 0 0-2 .38c-.27.08-.33.16-.33.21a.41.41 0 0 0 .3.34c.7.17.76.22.81.74v2.37c0 .09-.06.19-.12.18a4.34 4.34 0 0 0-.87.01zm6.99 5.76a1.06 1.06 0 0 1-1.07-1c0-.4.14-.57.59-.73a14.19 14.19 0 0 1 1.7-.41c.05 0 .13 0 .13.09v1a1.76 1.76 0 0 1-.12.48 2 2 0 0 1-1.21.54m.61-5.7a3.83 3.83 0 0 0-1.87.71c-.69.48-1.15 1-1.15 1.24a.52.52 0 0 0 .19.26 2.66 2.66 0 0 0 .67.08 1.22 1.22 0 0 0 .46-.13.48.48 0 0 0 .14-.35 1.64 1.64 0 0 1 .17-.78 1.31 1.31 0 0 1 .71-.21 1.5 1.5 0 0 1 1.4.89 1.13 1.13 0 0 1 .05.42v.6a.3.3 0 0 1-.18.24 14.69 14.69 0 0 1-2.7.76 1.57 1.57 0 0 0-.64.46 1.23 1.23 0 0 0-.23.77 1.8 1.8 0 0 0 1.51 1.87 1.71 1.71 0 0 0 .84-.24 11.82 11.82 0 0 0 1.22-.76s.16.06.16.08a1.1 1.1 0 0 0 1.13 1 1.4 1.4 0 0 0 1.16-.57 2 2 0 0 0 .14-.41c0-.13-.08-.29-.14-.26a1.56 1.56 0 0 1-.54.15c-.3 0-.57-.26-.57-.78 0-1.78.06-2.45.06-3a2.34 2.34 0 0 0-.54-1.37 1.92 1.92 0 0 0-1.45-.67zm5.93.15c-.11 0-.12-.13-.12-.19v-.78c0-.17-.08-.24-.14-.24a1 1 0 0 0-.64.41 7.36 7.36 0 0 1-1.14 1c-.14.12-.33.27-.33.33a.71.71 0 0 0 .47.46c.45.06.49.08.49.25 0 1.52-.07 2.48-.07 3.6a2.09 2.09 0 0 0 .22 1.12 1.79 1.79 0 0 0 1.4.74 2.88 2.88 0 0 0 1.62-.5.78.78 0 0 0 .38-.55c0-.13-.08-.24-.14-.24a2.26 2.26 0 0 0-.35.09 2.43 2.43 0 0 1-.73.15 1.49 1.49 0 0 1-.86-.35c-.19-.22-.26-.48-.24-1.19v-2.9c0-.17.08-.24.11-.24h1.79c.18 0 .32 0 .37-.21a3.56 3.56 0 0 0 0-.51c0-.09-.1-.27-.21-.27-.37 0-1.78.07-2 .07m5.66 5.53a1.06 1.06 0 0 1-1.07-1c0-.4.15-.57.59-.73a14.19 14.19 0 0 1 1.7-.41c.05 0 .13 0 .13.09v1a1.45 1.45 0 0 1-.13.48 1.94 1.94 0 0 1-1.2.54m.61-5.7a3.83 3.83 0 0 0-1.87.71c-.69.48-1.15 1-1.15 1.24a.46.46 0 0 0 .19.26 2.66 2.66 0 0 0 .67.08 1.22 1.22 0 0 0 .46-.13.52.52 0 0 0 .15-.35 1.57 1.57 0 0 1 .16-.78 1.31 1.31 0 0 1 .71-.21 1.5 1.5 0 0 1 1.4.89 1.13 1.13 0 0 1 0 .42v.6a.3.3 0 0 1-.18.24 14.69 14.69 0 0 1-2.7.76 1.57 1.57 0 0 0-.64.46 1.23 1.23 0 0 0-.23.77 1.8 1.8 0 0 0 1.51 1.87 1.71 1.71 0 0 0 .84-.24 11.82 11.82 0 0 0 1.22-.76s.16.06.16.08a1.1 1.1 0 0 0 1.13 1 1.4 1.4 0 0 0 1.16-.57 2 2 0 0 0 .14-.41c0-.13-.08-.29-.14-.26a1.56 1.56 0 0 1-.54.15c-.3 0-.57-.26-.57-.78 0-1.78.06-2.45.06-3a2.34 2.34 0 0 0-.54-1.37 1.92 1.92 0 0 0-1.4-.67zM.92 115.78a.28.28 0 0 1 .13.2c0 2.59 0 3.82-.05 4.07s-.19.48-.6.65c-.24.1-.4.18-.4.32s.18.29.51.29h2.86c.21 0 .52-.13.52-.32s-.2-.27-.47-.32c-.83-.13-1-.24-1-1-.06-1.24-.06-2.11-.06-3.48 0-.4.07-.48.14-.48h1.83c.1 0 .27-.27.27-.3s0-.67-.22-.67H2.55c-.08 0-.12-.1-.12-.42a7.35 7.35 0 0 1 .28-2.19 1.24 1.24 0 0 1 1.16-.94 2.57 2.57 0 0 1 1.15.59.82.82 0 0 0 .41.16.88.88 0 0 0 .63-.45.49.49 0 0 0 .08-.25.83.83 0 0 0-.11-.43 1.79 1.79 0 0 0-1.41-.49 3.47 3.47 0 0 0-1.77.65 4.45 4.45 0 0 0-1.22 1.37 5.15 5.15 0 0 0-.56 2.21s-.08.19-.14.2c-.65.29-.86.4-.86.62s.13.19.27.22l.62.12m7.4-.43c1.35 0 2.07 1.42 2.07 2.77a3.75 3.75 0 0 1-.43 2.13 1.67 1.67 0 0 1-1.21.62 2 2 0 0 1-1.21-.43 3.52 3.52 0 0 1-1-2.54 3.24 3.24 0 0 1 .65-2.1 1.73 1.73 0 0 1 1.13-.45m.24-.66a3.66 3.66 0 0 0-2.23.81 3.39 3.39 0 0 0-.33 5 3.62 3.62 0 0 0 2.51 1 3.47 3.47 0 0 0 2.4-1 3.43 3.43 0 0 0-2.35-5.88zm4.84.94c0 .09.18.24.35.36.38.27.4.38.4.48 0 .84 0 2.8-.05 3.51 0 .37-.06.61-.68.83-.19.06-.37.16-.37.33s.15.26.43.26h1.29c.56 0 1.27.06 1.76.06.19 0 .4-.14.4-.27s-.21-.27-.57-.36c-.72-.19-.84-.35-.89-1.1v-3a.84.84 0 0 1 .14-.37.86.86 0 0 1 .73-.36 1 1 0 0 1 .57.19.67.67 0 0 0 .37.16.43.43 0 0 0 .25-.13 1.63 1.63 0 0 0 .64-1c0-.18-.41-.49-.87-.49a2.56 2.56 0 0 0-1.72.93c-.05.07-.16 0-.16 0v-.78s-.13-.22-.19-.22a1.21 1.21 0 0 0-.46.15c-.34.18-.83.4-1.08.54a.4.4 0 0 0-.23.34"/><path fill="#046a38" d="M22.7 115.56s.07.11.35.33a.76.76 0 0 1 .31.67c0 1.46 0 2.75-.06 3.34s-.08.63-.7.88c-.24.1-.38.2-.38.34s.17.27.44.27.72-.08 1.08-.08h1.39c.39 0 .39-.11.39-.27s0-.19-.35-.35-.49-.26-.52-.7 0-.78 0-3.58a1.86 1.86 0 0 1 .17-.41 2.32 2.32 0 0 1 1.37-.43 1.46 1.46 0 0 1 1.22.49 1.52 1.52 0 0 1 .24.7l-.05 3c0 .62-.2.72-.63.88-.26.09-.4.19-.4.32s.22.28.48.28h2.46c.19 0 .38-.09.38-.27s-.09-.27-.41-.38a.7.7 0 0 1-.56-.68c0-.37-.05-1-.05-3.45a1 1 0 0 1 .16-.5 2.81 2.81 0 0 1 1.4-.39 1.34 1.34 0 0 1 1.16.52 2.06 2.06 0 0 1 .26 1.18v2.68a.62.62 0 0 1-.51.7c-.3.08-.38.26-.38.32s.19.27.45.27h2.4c.14 0 .35-.06.35-.25s-.16-.24-.37-.32-.6-.29-.6-.56-.07-2.14-.11-3.14-.58-2.4-2-2.4a2.53 2.53 0 0 0-1.1.22 7.25 7.25 0 0 0-1.18.68h-.2a1.9 1.9 0 0 0-1.67-.85 4.3 4.3 0 0 0-2.19.81.1.1 0 0 1-.16-.08v-.67a.38.38 0 0 0-.22-.12s-.06 0-.17.09a7 7 0 0 1-1.23.62.55.55 0 0 0-.27.38m15.43-.46c.84 0 1.22.43 1.22.9s-.73.58-1.33.58h-1.16a.17.17 0 0 1-.1-.15 1.75 1.75 0 0 1 1.37-1.29m.48-.57a3.38 3.38 0 0 0-1.86.54 3.48 3.48 0 0 0-1.54 3 3 3 0 0 0 3.16 3.25 3.17 3.17 0 0 0 2.27-1 .73.73 0 0 0 .21-.49c0-.17-.13-.25-.19-.2a3.31 3.31 0 0 1-1.61.6 2.43 2.43 0 0 1-2.43-2.5 1.48 1.48 0 0 1 .08-.49.43.43 0 0 1 .26-.17l3.41-.04c.16 0 .43-.3.43-.48a2 2 0 0 0-.27-1.11 2.16 2.16 0 0 0-1.92-.95zm5.83 5.73a1.06 1.06 0 0 1-1.07-1c0-.4.15-.57.59-.73a14.19 14.19 0 0 1 1.7-.41c.05 0 .13 0 .13.09v1a1.76 1.76 0 0 1-.12.48 2 2 0 0 1-1.21.54m.63-5.77a3.83 3.83 0 0 0-1.87.71c-.69.48-1.15 1-1.15 1.24a.52.52 0 0 0 .19.26 2.66 2.66 0 0 0 .67.08 1.22 1.22 0 0 0 .46-.13.52.52 0 0 0 .15-.35 1.76 1.76 0 0 1 .15-.78 1.39 1.39 0 0 1 .72-.21 1.5 1.5 0 0 1 1.4.89 1.13 1.13 0 0 1 0 .42v.6a.3.3 0 0 1-.18.24 14.69 14.69 0 0 1-2.7.76 1.57 1.57 0 0 0-.64.46 1.23 1.23 0 0 0-.23.77 1.8 1.8 0 0 0 1.51 1.87 1.71 1.71 0 0 0 .84-.24 11.82 11.82 0 0 0 1.22-.76s.16.06.16.08a1.1 1.1 0 0 0 1.13 1 1.4 1.4 0 0 0 1.16-.57 2 2 0 0 0 .14-.41c0-.13-.08-.29-.14-.26a1.56 1.56 0 0 1-.54.15c-.3 0-.57-.26-.57-.78 0-1.78.06-2.45.06-3a2.34 2.34 0 0 0-.54-1.37 1.92 1.92 0 0 0-1.42-.64zm6.65.03a3.15 3.15 0 0 0-1.39.41 1.81 1.81 0 0 0-.81 1.49 2 2 0 0 0 1.15 1.74c.48.27.84.44 1.25.7a1.08 1.08 0 0 1 .58.89 1 1 0 0 1-1.12 1 1.87 1.87 0 0 1-1.44-1c-.21-.31-.32-.43-.42-.43s-.28.12-.28.53a2.54 2.54 0 0 0 .32 1.14 2.34 2.34 0 0 0 1.62.4 3.23 3.23 0 0 0 1.36-.3 1.89 1.89 0 0 0 1.2-1.75c0-.94-.7-1.43-1.53-1.86s-1.51-.63-1.51-1.41a1 1 0 0 1 .92-.94 1.55 1.55 0 0 1 1.21.92c.14.29.29.43.35.43.22 0 .35-.35.35-.46a7.87 7.87 0 0 0 0-.88.88.88 0 0 0-.27-.31l-.51-.15a3.27 3.27 0 0 0-1-.12m6.45 5.77a1.63 1.63 0 0 1-.85-.2c-.22-.18-.38-.37-.39-1.23v-3.76c0-.34-.05-.51-.16-.51s-1.22.08-1.57.08c-.06 0-.49 0-.49.27s.16.27.33.36c.46.24.6.56.6.7v3.85a1.45 1.45 0 0 0 .37.92 1.87 1.87 0 0 0 1.25.54 4.14 4.14 0 0 0 2.48-1c.07 0 .15 0 .15.06 0 .21 0 .62.05.73s.11.27.17.27a3.74 3.74 0 0 0 .68-.11 12.27 12.27 0 0 1 1.31-.22.43.43 0 0 0 .27-.43.57.57 0 0 0-.13-.27c-.16 0-.7.09-.81.09s-.24 0-.26-.6 0-4.12 0-4.8c0-.17-.11-.38-.18-.38h-1.89c-.2 0-.4.16-.4.25s.16.27.39.35a5.11 5.11 0 0 1 .52.21c.11 0 .24.31.24.49 0 .76 0 2.7-.06 3.23a1.11 1.11 0 0 1-.43.74 2.48 2.48 0 0 1-1.16.35m5-4.85c0 .09.18.24.35.36.38.27.4.38.4.48v3.51c0 .37-.06.61-.68.83-.19.06-.37.16-.37.33s.15.26.43.26h1.29c.56 0 1.27.06 1.76.06.19 0 .4-.14.4-.27s-.21-.27-.57-.36c-.71-.19-.84-.35-.89-1.1v-3a.84.84 0 0 1 .14-.37.86.86 0 0 1 .73-.36 1 1 0 0 1 .57.19.67.67 0 0 0 .37.16.43.43 0 0 0 .25-.13 1.63 1.63 0 0 0 .64-1c0-.18-.41-.49-.87-.49a2.56 2.56 0 0 0-1.83.9c0 .07-.16 0-.16 0v-.78s-.13-.22-.19-.22a1.21 1.21 0 0 0-.46.15c-.34.18-.83.4-1.08.54a.4.4 0 0 0-.23.34m8.48-.4c.84 0 1.22.43 1.22.9s-.73.58-1.33.58h-1.16a.17.17 0 0 1-.1-.15 1.75 1.75 0 0 1 1.37-1.29m.48-.57a3.38 3.38 0 0 0-1.86.54 3.48 3.48 0 0 0-1.54 3 3 3 0 0 0 3.11 3.29 3.17 3.17 0 0 0 2.27-1 .73.73 0 0 0 .21-.49c0-.17-.13-.25-.19-.2a3.31 3.31 0 0 1-1.61.6 2.43 2.43 0 0 1-2.43-2.5 1.48 1.48 0 0 1 .08-.49.43.43 0 0 1 .26-.17l3.41-.05c.16 0 .43-.3.43-.48a2 2 0 0 0-.27-1.11 2.16 2.16 0 0 0-1.87-.98zm3.7.9s.07.11.35.33a.76.76 0 0 1 .35.58c0 1.46 0 2.75-.06 3.34s-.08.63-.7.88c-.24.1-.38.2-.38.34s.17.27.44.27.72-.08 1.08-.08h1.39c.23 0 .39-.11.39-.27s0-.19-.35-.35-.49-.26-.52-.7 0-.78 0-3.58a1.86 1.86 0 0 1 .17-.41 2.32 2.32 0 0 1 1.3-.35 1.46 1.46 0 0 1 1.22.49 1.52 1.52 0 0 1 .24.7v3c0 .62-.2.72-.63.88-.26.09-.4.19-.4.32s.22.28.48.28h2.46c.19 0 .38-.09.38-.27s-.09-.27-.41-.38a.7.7 0 0 1-.56-.68v-3.45a1 1 0 0 1 .15-.5 2.77 2.77 0 0 1 1.4-.39 1.34 1.34 0 0 1 1.16.52 2.06 2.06 0 0 1 .26 1.18v2.68a.63.63 0 0 1-.5.7c-.31.08-.39.26-.39.32s.19.27.45.27h2.4c.14 0 .35-.06.35-.25s-.16-.24-.37-.32-.6-.29-.6-.56-.07-2.14-.11-3.14-.58-2.4-2-2.4a2.53 2.53 0 0 0-1.1.22 7.25 7.25 0 0 0-1.18.68h-.2a1.9 1.9 0 0 0-1.67-.85 4.3 4.3 0 0 0-2.19.81.1.1 0 0 1-.16-.08v-.67a.38.38 0 0 0-.26-.17s-.06 0-.17.09a7 7 0 0 1-1.23.62.55.55 0 0 0-.27.38m15.51-.4c.84 0 1.22.43 1.22.9s-.73.58-1.33.58h-1.16a.17.17 0 0 1-.1-.15 1.75 1.75 0 0 1 1.37-1.29m.48-.57a3.38 3.38 0 0 0-1.86.54 3.48 3.48 0 0 0-1.54 3 3 3 0 0 0 3.11 3.29 3.17 3.17 0 0 0 2.27-1 .73.73 0 0 0 .21-.49c0-.17-.13-.25-.19-.2a3.27 3.27 0 0 1-1.61.6 2.43 2.43 0 0 1-2.43-2.5 1.48 1.48 0 0 1 .08-.49.43.43 0 0 1 .26-.17l3.41-.05c.16 0 .43-.3.43-.48a2 2 0 0 0-.27-1.11 2.16 2.16 0 0 0-1.87-.98zm3.58.83s0 .1.22.24c.39.24.55.41.55.67 0 1.62 0 2.81-.09 3.57 0 .35-.11.54-.81.76-.16 0-.35.18-.35.34s.17.24.46.24h2.64c.28 0 .44-.13.44-.26s-.12-.27-.41-.38c-.64-.24-.62-.43-.62-.67v-3.68a.67.67 0 0 1 .19-.4 2.39 2.39 0 0 1 1.37-.35 1.32 1.32 0 0 1 1.13.43 3.47 3.47 0 0 1 .3 1.87v2.17c0 .39-.13.54-.52.68s-.35.24-.35.33.22.26.43.26h2.19c.19 0 .46-.1.46-.26s-.11-.3-.48-.44-.39-.29-.41-.75v-2.38a3.88 3.88 0 0 0-.47-2.12 1.64 1.64 0 0 0-1.46-.74 3.92 3.92 0 0 0-2.26.81s-.13 0-.11-.05 0-.62 0-.7-.23-.19-.27-.19a1.84 1.84 0 0 0-.42.16c-.31.16-.73.3-1 .44a.6.6 0 0 0-.28.4m10.24-.68c-.11 0-.12-.13-.12-.19v-.78c0-.17-.08-.24-.14-.24a1 1 0 0 0-.64.41 7.36 7.36 0 0 1-1.14 1c-.14.12-.33.27-.33.33a.71.71 0 0 0 .47.46c.45.06.49.08.49.25 0 1.52-.07 2.48-.07 3.6a2.09 2.09 0 0 0 .22 1.12 1.79 1.79 0 0 0 1.4.74 2.88 2.88 0 0 0 1.62-.5.78.78 0 0 0 .38-.55c0-.13-.08-.24-.14-.24a2.26 2.26 0 0 0-.35.09 2.43 2.43 0 0 1-.73.15 1.49 1.49 0 0 1-.86-.35c-.19-.22-.26-.48-.24-1.19v-2.9c0-.17.08-.24.11-.24h1.79c.18 0 .32 0 .37-.21s0-.33 0-.51-.09-.27-.2-.27c-.37 0-1.78.07-2 .07m6.68.7s.07.11.35.33a.76.76 0 0 1 .35.58c0 1.46 0 2.75-.06 3.34s-.08.63-.7.88c-.24.1-.38.2-.38.34s.17.27.44.27.72-.08 1.08-.08h1.39c.23 0 .39-.11.39-.27s0-.19-.35-.35-.49-.26-.52-.7 0-.78 0-3.58a1.86 1.86 0 0 1 .17-.41 2.32 2.32 0 0 1 1.37-.43 1.46 1.46 0 0 1 1.22.49 1.52 1.52 0 0 1 .24.7v3c0 .62-.2.72-.63.88-.26.09-.4.19-.4.32s.22.28.48.28h2.46c.19 0 .38-.09.38-.27s-.09-.27-.41-.38a.7.7 0 0 1-.56-.68v-3.45a1 1 0 0 1 .15-.5 2.81 2.81 0 0 1 1.4-.39 1.34 1.34 0 0 1 1.16.52 2.06 2.06 0 0 1 .26 1.18v2.68a.62.62 0 0 1-.51.7c-.3.08-.38.26-.38.32s.19.27.45.27h2.4c.14 0 .35-.06.35-.25s-.16-.24-.37-.32-.6-.29-.6-.56-.07-2.14-.11-3.14-.58-2.4-2-2.4a2.53 2.53 0 0 0-1.1.22 7.25 7.25 0 0 0-1.18.68h-.2a1.9 1.9 0 0 0-1.67-.85 4.37 4.37 0 0 0-2.2.81c-.07.06-.15 0-.15-.08v-.67a.38.38 0 0 0-.26-.17s-.06 0-.17.09a7 7 0 0 1-1.23.62.55.55 0 0 0-.27.38m15.65-.23c1.35 0 2.07 1.42 2.07 2.77a3.75 3.75 0 0 1-.43 2.13 1.67 1.67 0 0 1-1.21.62 2 2 0 0 1-1.21-.43 3.52 3.52 0 0 1-1-2.54 3.24 3.24 0 0 1 .65-2.1 1.73 1.73 0 0 1 1.08-.45m.24-.66a3.66 3.66 0 0 0-2.23.81 3.39 3.39 0 0 0-.33 5 3.62 3.62 0 0 0 2.51 1 3.47 3.47 0 0 0 2.4-1 3.42 3.42 0 0 0-2.35-5.88zm8.19.68a2 2 0 0 1 1.64.79 2 2 0 0 1 .12.62v3a.93.93 0 0 1-.15.4 2.43 2.43 0 0 1-1.24.4c-1.42 0-2.2-1.47-2.2-2.69a2.74 2.74 0 0 1 .75-2.07 1.66 1.66 0 0 1 1.08-.44m.67-.68a4.64 4.64 0 0 0-2.21.63 3.48 3.48 0 0 0-1.76 3.08 2.94 2.94 0 0 0 3 3.12 4.86 4.86 0 0 0 2-.79h.13v.65c0 .18.21.21.29.21.24 0 .92-.23 2-.47a.58.58 0 0 0 .35-.42c0-.18-.13-.29-.22-.27a8.2 8.2 0 0 1-.88.09c-.13 0-.27-.13-.28-.63s-.07-.74-.07-3.93c0-1.29.07-3.46.07-4.47 0-.73 0-1-.21-1a20 20 0 0 0-2 .38c-.27.08-.33.16-.33.21a.41.41 0 0 0 .3.34c.7.17.77.22.81.74v2.37c0 .09-.06.19-.12.18a4.34 4.34 0 0 0-.87-.03zm7.38.56c.84 0 1.22.43 1.22.9s-.73.58-1.33.58h-1.16a.17.17 0 0 1-.1-.15 1.75 1.75 0 0 1 1.37-1.29m.48-.57a3.38 3.38 0 0 0-1.86.54 3.48 3.48 0 0 0-1.54 3 3 3 0 0 0 3.11 3.29 3.17 3.17 0 0 0 2.27-1 .73.73 0 0 0 .21-.49c0-.17-.13-.25-.19-.2a3.27 3.27 0 0 1-1.61.6 2.43 2.43 0 0 1-2.43-2.5 1.48 1.48 0 0 1 .08-.49.43.43 0 0 1 .26-.17l3.41-.05c.16 0 .43-.3.43-.48a2 2 0 0 0-.27-1.11 2.16 2.16 0 0 0-1.87-.98zm3.43-3.32c0 .13.06.22.38.35s.47.24.51.43 0 1.72 0 3.86c0 2.74 0 3.72-.06 4s-.06.52-.8.79c-.28.1-.39.22-.39.38s.2.19.46.19.7-.06 1.32-.06h1.51c.45 0 .46-.1.46-.23s-.08-.23-.33-.33c-.77-.29-.81-.3-.86-1v-8.63c0-.45-.06-.69-.19-.69a1.36 1.36 0 0 0-.33.07 13.62 13.62 0 0 0-1.43.51c-.11 0-.3.15-.3.28"/><path d="M311.36 69.87c2.39 4.79 8 8 15.94 8h38.71c8 0 13.55 3.18 15.94 8 2.39-4.79 8-8 15.94-8h38.67c8 0 13.55-3.19 15.94-8" class="t"/><path d="M317.97 96.4a2 2 0 0 1 1.64.79 2 2 0 0 1 .12.62v3a.93.93 0 0 1-.15.4 2.43 2.43 0 0 1-1.24.4c-1.42 0-2.2-1.47-2.2-2.69a2.74 2.74 0 0 1 .75-2.07 1.66 1.66 0 0 1 1.08-.44m.67-.68a4.64 4.64 0 0 0-2.21.63 3.48 3.48 0 0 0-1.76 3.08 2.94 2.94 0 0 0 3 3.12 4.86 4.86 0 0 0 2-.79h.13v.65c0 .18.21.21.29.21.24 0 .92-.23 2-.47a.58.58 0 0 0 .35-.42c0-.18-.13-.29-.22-.27a8.2 8.2 0 0 1-.88.09c-.13 0-.27-.13-.28-.63s-.07-.74-.07-3.93c0-1.29.07-3.46.07-4.47 0-.73-.05-1-.21-1s-1.59.27-2 .38-.33.16-.33.21a.41.41 0 0 0 .3.34c.7.17.76.22.81.74v2.37c0 .09-.06.19-.12.18a4.34 4.34 0 0 0-.87-.03zm6.52-3.3a.87.87 0 0 0-.92.9.85.85 0 0 0 .15.48 1 1 0 0 0 .69.36.89.89 0 0 0 .84-.9 1.17 1.17 0 0 0-.27-.65.7.7 0 0 0-.49-.19m-1.38 4a.45.45 0 0 0 .17.31c.46.3.6.48.62.61s0 .92 0 1.24c0 .9 0 2-.07 2.32-.06.65-.09.78-.79 1-.23.06-.38.18-.38.32s.15.24.47.24h2.67c.33 0 .46-.07.46-.21s-.16-.3-.38-.37c-.57-.15-.63-.31-.65-.44s-.05-.44-.06-2.53v-2.96c0-.05-.1-.26-.16-.26a8.4 8.4 0 0 0-1.72.53c-.07.03-.18.11-.18.19zm6.42-.54c-.08 0-.15-.11-.15-.24a4.82 4.82 0 0 1 .34-1.9 1.59 1.59 0 0 1 1.49-1.19 2.49 2.49 0 0 1 1.89.86.27.27 0 0 1 .07.27 6.23 6.23 0 0 0-.43 2c0 .08-.07.2-.15.21h-3.06m3 .86c.13 0 .14.25.14.27 0 1.84 0 3.8-.06 4a.73.73 0 0 1-.62.79c-.25 0-.46.19-.46.33s.29.26.46.26h3.05c.37 0 .48-.13.48-.29s-.18-.27-.45-.33c-.71-.16-1-.21-1-1 0-1.25-.07-2.57-.07-3.92a.17.17 0 0 1 .14-.16h1.77c.11 0 .3-.06.3-.17s0-.78-.2-.78h-1.82c-.08 0-.12-.14-.12-.24a7.93 7.93 0 0 1 .28-2.21 1.37 1.37 0 0 1 1.18-1 1.82 1.82 0 0 1 1.19.54.65.65 0 0 0 .33.21.84.84 0 0 0 .7-.75.66.66 0 0 0-.16-.41 1.68 1.68 0 0 0-1.32-.51 3.25 3.25 0 0 0-2.19 1 .15.15 0 0 1-.21 0 2.78 2.78 0 0 0-2-.73 3.76 3.76 0 0 0-2 .65 4 4 0 0 0-1.76 3.15.34.34 0 0 1-.16.25c-.41.21-.89.41-.89.63a.27.27 0 0 0 .19.23l.72.06a.25.25 0 0 1 .14.25c0 2.69-.05 3.74-.06 4 0 .44-.16.63-.66.79-.23 0-.44.19-.44.33s.29.26.46.26h2.78c.27 0 .48-.16.48-.32s-.14-.24-.43-.3c-.56-.15-.81-.24-.83-1v-3.92c0-.07 0-.16.19-.16zm7.32-.47c.84 0 1.22.43 1.22.9s-.73.58-1.33.58h-1.16a.17.17 0 0 1-.1-.15 1.75 1.75 0 0 1 1.37-1.29m.48-.57a3.38 3.38 0 0 0-1.86.54 3.48 3.48 0 0 0-1.54 3 3 3 0 0 0 3.11 3.29 3.17 3.17 0 0 0 2.27-1 .73.73 0 0 0 .21-.49c0-.17-.13-.25-.19-.2a3.27 3.27 0 0 1-1.61.6 2.43 2.43 0 0 1-2.43-2.5 1.48 1.48 0 0 1 .08-.49.43.43 0 0 1 .26-.17h3.41c.16 0 .43-.3.43-.48a2 2 0 0 0-.27-1.11 2.16 2.16 0 0 0-1.87-1.03zm3.54.88c0 .09.18.24.35.36.38.27.4.38.4.48 0 .84 0 2.8-.05 3.51 0 .37-.06.61-.68.83-.19.06-.37.16-.37.33s.15.26.43.26h1.29c.56 0 1.27.06 1.76.06.2 0 .4-.14.4-.27s-.2-.27-.57-.36c-.72-.19-.84-.35-.89-1.1-.05-.56 0-2.84 0-3a.84.84 0 0 1 .14-.37.86.86 0 0 1 .73-.36 1 1 0 0 1 .57.19.67.67 0 0 0 .37.16.43.43 0 0 0 .25-.13 1.63 1.63 0 0 0 .64-1c0-.18-.41-.49-.88-.49a2.56 2.56 0 0 0-1.71.93c-.05.07-.16 0-.16 0v-.78s-.13-.22-.19-.22a1.21 1.21 0 0 0-.46.15c-.34.18-.83.4-1.08.54a.4.4 0 0 0-.23.34m8.32-.41c.84 0 1.22.43 1.22.9s-.73.58-1.33.58h-1.16a.17.17 0 0 1-.1-.15 1.75 1.75 0 0 1 1.37-1.29m.48-.57a3.38 3.38 0 0 0-1.86.54 3.48 3.48 0 0 0-1.54 3 3 3 0 0 0 3.11 3.29 3.17 3.17 0 0 0 2.27-1 .73.73 0 0 0 .21-.49c0-.17-.13-.25-.19-.2a3.27 3.27 0 0 1-1.61.6 2.43 2.43 0 0 1-2.43-2.5 1.48 1.48 0 0 1 .08-.49.43.43 0 0 1 .26-.17h3.41c.16 0 .43-.3.43-.48a2 2 0 0 0-.27-1.11 2.16 2.16 0 0 0-1.91-1.03zm3.68.8s0 .1.22.24c.39.24.55.41.55.67 0 1.62 0 2.81-.09 3.57 0 .35-.11.54-.81.76-.16 0-.35.18-.35.34s.17.24.46.24h2.64c.28 0 .44-.13.44-.26s-.12-.27-.41-.38c-.64-.24-.62-.43-.62-.67v-3.65a.67.67 0 0 1 .19-.4 2.39 2.39 0 0 1 1.37-.35 1.32 1.32 0 0 1 1.13.43 3.36 3.36 0 0 1 .3 1.87v2.17c0 .39-.12.54-.52.68s-.35.24-.35.33.22.26.43.26h2.19c.19 0 .46-.1.46-.26s-.11-.3-.48-.44-.39-.29-.41-.75c0-.71 0-1.6-.05-2.38a3.88 3.88 0 0 0-.47-2.12 1.64 1.64 0 0 0-1.46-.74 3.92 3.92 0 0 0-2.26.81h-.11c.02 0 0-.62 0-.7s-.22-.19-.27-.19a1.84 1.84 0 0 0-.42.16c-.31.16-.73.3-1 .44a.6.6 0 0 0-.28.4m10.19-.73c-.11 0-.12-.13-.12-.19v-.78c0-.17-.08-.24-.14-.24a1 1 0 0 0-.64.41 7.36 7.36 0 0 1-1.14 1c-.14.12-.33.27-.33.33a.71.71 0 0 0 .47.46c.45.06.49.08.49.25 0 1.52-.07 2.48-.07 3.6a2.09 2.09 0 0 0 .22 1.12 1.79 1.79 0 0 0 1.4.74 2.88 2.88 0 0 0 1.62-.5.78.78 0 0 0 .38-.55c0-.13-.08-.24-.14-.24a2.26 2.26 0 0 0-.35.09 2.43 2.43 0 0 1-.73.15 1.47 1.47 0 0 1-.86-.35c-.19-.22-.26-.48-.24-1.19l.05-2.9c0-.17.08-.24.11-.24h1.79c.18 0 .32 0 .37-.21a3.56 3.56 0 0 0 0-.51c0-.09-.1-.27-.21-.27-.37 0-1.78.07-2 .07m6.52.68c0 .09.18.24.35.36.38.27.4.38.4.48 0 .84 0 2.8-.05 3.51 0 .37-.06.61-.68.83-.19.06-.37.16-.37.33s.15.26.43.26h1.29c.56 0 1.27.06 1.76.06.19 0 .4-.14.4-.27s-.21-.27-.57-.36c-.71-.19-.84-.35-.89-1.1-.05-.56 0-2.84 0-3a.84.84 0 0 1 .14-.37.86.86 0 0 1 .73-.36 1 1 0 0 1 .57.19.67.67 0 0 0 .37.16.41.41 0 0 0 .25-.13 1.63 1.63 0 0 0 .64-1c0-.18-.41-.49-.87-.49a2.56 2.56 0 0 0-1.72.93c0 .07-.16 0-.16 0v-.78s-.13-.22-.19-.22a1.21 1.21 0 0 0-.46.15c-.34.18-.83.4-1.08.54a.4.4 0 0 0-.23.34m8.42-.41c.84 0 1.22.43 1.22.9s-.73.58-1.33.58h-1.16a.17.17 0 0 1-.1-.15 1.75 1.75 0 0 1 1.37-1.29m.48-.57a3.38 3.38 0 0 0-1.86.54 3.48 3.48 0 0 0-1.54 3 3 3 0 0 0 3.11 3.29 3.17 3.17 0 0 0 2.27-1 .73.73 0 0 0 .21-.49c0-.17-.13-.25-.19-.2a3.31 3.31 0 0 1-1.61.6 2.43 2.43 0 0 1-2.43-2.5 1.48 1.48 0 0 1 .08-.49.43.43 0 0 1 .26-.17h3.41c.16 0 .43-.3.43-.48a2 2 0 0 0-.27-1.11 2.16 2.16 0 0 0-1.87-1.03zm3.33-3.32c0 .13.06.22.38.35s.47.24.51.43 0 1.72 0 3.86c0 2.74 0 3.72-.06 4s-.06.52-.79.79c-.29.1-.4.22-.4.38s.21.19.46.19.7-.06 1.32-.06h1.51c.45 0 .46-.1.46-.23s-.08-.23-.33-.33c-.77-.29-.82-.3-.86-1v-8.63c0-.45-.06-.69-.19-.69a1.36 1.36 0 0 0-.33.07 13.62 13.62 0 0 0-1.43.51c-.11 0-.3.15-.3.28m6.85 9.13a1.06 1.06 0 0 1-1.07-1c0-.4.14-.57.59-.73a14.19 14.19 0 0 1 1.7-.41c.05 0 .13 0 .13.09v1a1.45 1.45 0 0 1-.13.48 1.94 1.94 0 0 1-1.2.54m.63-5.77a3.83 3.83 0 0 0-1.87.71c-.69.48-1.15 1-1.15 1.24a.46.46 0 0 0 .19.26 2.66 2.66 0 0 0 .67.08 1.22 1.22 0 0 0 .46-.13.48.48 0 0 0 .14-.35 1.86 1.86 0 0 1 .16-.78 1.39 1.39 0 0 1 .72-.21 1.5 1.5 0 0 1 1.4.89 1.13 1.13 0 0 1 .05.42v.6a.3.3 0 0 1-.18.24 14.69 14.69 0 0 1-2.7.76 1.57 1.57 0 0 0-.64.46 1.23 1.23 0 0 0-.23.77 1.8 1.8 0 0 0 1.51 1.87 1.71 1.71 0 0 0 .84-.24 11.82 11.82 0 0 0 1.22-.76s.16.06.16.08a1.1 1.1 0 0 0 1.13 1 1.4 1.4 0 0 0 1.16-.57 2 2 0 0 0 .14-.41c0-.13-.08-.29-.14-.26a1.56 1.56 0 0 1-.54.15c-.3 0-.57-.26-.57-.78 0-1.78.06-2.45.06-3.05a2.34 2.34 0 0 0-.54-1.37 1.92 1.92 0 0 0-1.47-.59zm5.88.22c-.11 0-.12-.13-.12-.19v-.78c0-.17-.08-.24-.14-.24a1 1 0 0 0-.64.41 7.36 7.36 0 0 1-1.14 1c-.14.12-.33.27-.33.33a.71.71 0 0 0 .47.46c.45.06.49.08.49.25 0 1.52-.07 2.48-.07 3.6a2.09 2.09 0 0 0 .22 1.12 1.79 1.79 0 0 0 1.4.74 2.88 2.88 0 0 0 1.62-.5.78.78 0 0 0 .38-.55c0-.13-.08-.24-.14-.24a2.26 2.26 0 0 0-.35.09 2.43 2.43 0 0 1-.73.15 1.49 1.49 0 0 1-.86-.35c-.19-.22-.26-.48-.24-1.19l.05-2.9c0-.17.08-.24.11-.24h1.79c.18 0 .32 0 .37-.21s0-.33 0-.51-.09-.27-.2-.27c-.37 0-1.78.07-2 .07m4.96-3.53a.87.87 0 0 0-.92.9.85.85 0 0 0 .15.48 1 1 0 0 0 .69.36.9.9 0 0 0 .84-.9 1.17 1.17 0 0 0-.27-.65.7.7 0 0 0-.49-.19m-1.38 4a.45.45 0 0 0 .17.31c.46.3.6.48.62.61s0 .92 0 1.24c0 .9 0 2-.07 2.32-.06.65-.09.78-.79 1-.22.06-.38.18-.38.32s.16.24.47.24h2.67c.33 0 .46-.07.46-.21s-.16-.3-.38-.37c-.57-.15-.63-.31-.65-.44s-.05-.44-.06-2.53v-2.96c0-.05-.1-.26-.16-.26a8.4 8.4 0 0 0-1.72.53c-.07.03-.18.11-.18.19zm7.31-.05c1.35 0 2.07 1.42 2.07 2.77a3.75 3.75 0 0 1-.43 2.13 1.67 1.67 0 0 1-1.21.62 2 2 0 0 1-1.21-.43 3.52 3.52 0 0 1-.95-2.54 3.24 3.24 0 0 1 .65-2.1 1.73 1.73 0 0 1 1.08-.45m.24-.66a3.66 3.66 0 0 0-2.23.81 3.39 3.39 0 0 0-.33 5 3.62 3.62 0 0 0 2.51 1 3.47 3.47 0 0 0 2.4-.95 3.43 3.43 0 0 0-2.35-5.88zm4.85.84s0 .1.22.24c.39.24.55.41.55.67 0 1.62 0 2.81-.09 3.57 0 .35-.11.54-.81.76-.16 0-.35.18-.35.34s.17.24.46.24h2.64c.28 0 .44-.13.44-.26s-.12-.27-.41-.38c-.64-.24-.62-.43-.62-.67v-3.65a.67.67 0 0 1 .19-.4 2.39 2.39 0 0 1 1.37-.35 1.32 1.32 0 0 1 1.13.43 3.47 3.47 0 0 1 .3 1.87v2.17c0 .39-.13.54-.52.68s-.35.24-.35.33.22.26.43.26h2.19c.19 0 .46-.1.46-.26s-.11-.3-.47-.44-.4-.29-.42-.75c0-.71 0-1.6-.05-2.38a3.88 3.88 0 0 0-.47-2.12 1.64 1.64 0 0 0-1.46-.74 3.92 3.92 0 0 0-2.28.84h-.11c.02 0 0-.62 0-.7s-.23-.19-.27-.19a1.68 1.68 0 0 0-.42.16c-.31.16-.73.3-1 .44a.6.6 0 0 0-.28.4m10.75-.95a3.15 3.15 0 0 0-1.39.41 1.81 1.81 0 0 0-.81 1.49 2 2 0 0 0 1.15 1.74c.48.27.84.44 1.25.7a1.08 1.08 0 0 1 .58.89 1 1 0 0 1-1.12 1 1.89 1.89 0 0 1-1.44-1c-.21-.31-.32-.43-.42-.43s-.28.12-.28.53a2.54 2.54 0 0 0 .32 1.14 2.34 2.34 0 0 0 1.62.4 3.23 3.23 0 0 0 1.36-.3 1.89 1.89 0 0 0 1.2-1.75c0-.94-.7-1.43-1.53-1.86s-1.51-.63-1.51-1.41a1 1 0 0 1 .92-.94 1.55 1.55 0 0 1 1.21.92c.14.29.29.43.35.43.22 0 .35-.35.35-.46a7.87 7.87 0 0 0 0-.88.88.88 0 0 0-.27-.31l-.51-.15a3.27 3.27 0 0 0-1-.12m7.55-.04a2.57 2.57 0 0 0-1 .16 5.89 5.89 0 0 0-1.06.57s-.11 0-.11-.15c0-.71.05-3.41.05-4s-.13-.74-.2-.74a1.51 1.51 0 0 0-.48.13 10.11 10.11 0 0 1-1.11.43c-.17 0-.33.16-.33.32s.09.24.35.4.35.25.38.63.06 1.11.06 3.29c0 3.48-.06 4.07-.09 4.37s-.24.53-.7.67c-.25.08-.41.16-.41.33s.14.26.46.26h2.48a.38.38 0 0 0 .41-.34c0-.08-.13-.16-.32-.24-.38-.19-.54-.34-.54-.46v-3.94a1 1 0 0 1 .17-.38 1.84 1.84 0 0 1 1.42-.46 1.78 1.78 0 0 1 1.21.54 1.9 1.9 0 0 1 .33 1.08v2.77c0 .57-.09.7-.62.87-.25.1-.37.21-.37.3s.21.26.48.26h2.34c.17 0 .46 0 .46-.26s-.14-.28-.4-.36c-.51-.18-.57-.32-.57-.67s-.05-2-.05-2.56a3.38 3.38 0 0 0-.59-2.13 2 2 0 0 0-1.62-.71m5.72-3.27a.87.87 0 0 0-.92.9.85.85 0 0 0 .15.48 1 1 0 0 0 .69.36.9.9 0 0 0 .84-.9 1.17 1.17 0 0 0-.27-.65.7.7 0 0 0-.49-.19m-1.38 4a.45.45 0 0 0 .17.31c.46.3.6.48.62.61s0 .92 0 1.24c0 .9 0 2-.07 2.32-.06.65-.09.78-.79 1-.22.06-.38.18-.38.32s.16.24.47.24h2.67c.33 0 .46-.07.46-.21s-.16-.3-.38-.37c-.57-.15-.63-.31-.65-.44s-.05-.44-.06-2.53v-2.96c0-.05-.1-.26-.16-.26a8.4 8.4 0 0 0-1.72.53c-.07.03-.18.11-.18.19zm7.64.22c1.4 0 2 1.47 2 2.66a2.94 2.94 0 0 1-.75 2 1.7 1.7 0 0 1-1.24.51 2 2 0 0 1-1.37-.86c-.09-.14-.14-.35-.14-1.27 0-.65 0-1.85.05-2.37a.53.53 0 0 1 .21-.3 2.11 2.11 0 0 1 1.2-.34m.7-.92a2.71 2.71 0 0 0-1 .19 9.22 9.22 0 0 0-1.06.53c-.06 0-.16 0-.16-.08s.05-.51.05-.64a.4.4 0 0 0-.22-.22 1.33 1.33 0 0 0-.54.24 9.48 9.48 0 0 1-1 .49c-.18.1-.37.29-.37.43s.07.13.29.27c.51.37.54.49.54.6 0 .66.05 1.23 0 4.26 0 1 0 1.85-.09 2.8 0 .54-.13.84-.88 1-.3.08-.42.22-.42.32s.27.28.46.28 1-.14 1.65-.14h1.46c.12 0 .45-.13.45-.3s-.11-.21-.48-.32c-.81-.24-.86-.41-.86-.64v-2c0-.13.11-.33.16-.32a3.39 3.39 0 0 0 .59 0 5.75 5.75 0 0 0 1.75-.33 3.61 3.61 0 0 0 2.4-3.45 3.36 3.36 0 0 0-1-2.35 2.49 2.49 0 0 0-1.64-.65zm-118.92 24.8a1.06 1.06 0 0 1-1.07-1c0-.4.14-.57.59-.73a14.19 14.19 0 0 1 1.7-.41c.05 0 .13 0 .13.09v1a1.45 1.45 0 0 1-.13.48 1.94 1.94 0 0 1-1.2.54m.63-5.77a3.83 3.83 0 0 0-1.87.71c-.69.48-1.15 1-1.15 1.24a.46.46 0 0 0 .19.26 2.66 2.66 0 0 0 .67.08 1.22 1.22 0 0 0 .46-.13.48.48 0 0 0 .14-.35 1.86 1.86 0 0 1 .16-.78 1.39 1.39 0 0 1 .72-.21 1.5 1.5 0 0 1 1.4.89 1.13 1.13 0 0 1 .05.42v.6a.3.3 0 0 1-.18.24 14.69 14.69 0 0 1-2.7.76 1.57 1.57 0 0 0-.64.46 1.23 1.23 0 0 0-.23.77 1.8 1.8 0 0 0 1.51 1.87 1.71 1.71 0 0 0 .84-.24 11.82 11.82 0 0 0 1.22-.76s.16.06.16.08a1.1 1.1 0 0 0 1.13 1 1.4 1.4 0 0 0 1.16-.57 2 2 0 0 0 .14-.41c0-.13-.08-.29-.14-.26a1.56 1.56 0 0 1-.54.15c-.3 0-.57-.26-.57-.78 0-1.78.06-2.45.06-3a2.34 2.34 0 0 0-.54-1.37 1.92 1.92 0 0 0-1.5-.61zm5.88.25c-.11 0-.12-.13-.12-.19v-.78c0-.17-.08-.24-.14-.24a1 1 0 0 0-.64.41 7.36 7.36 0 0 1-1.14 1c-.14.12-.33.27-.33.33a.71.71 0 0 0 .47.46c.45.06.49.08.49.25 0 1.52-.07 2.48-.07 3.6a2.09 2.09 0 0 0 .22 1.12 1.79 1.79 0 0 0 1.4.74 2.88 2.88 0 0 0 1.62-.5.78.78 0 0 0 .38-.55c0-.13-.08-.24-.14-.24a2.26 2.26 0 0 0-.35.09 2.43 2.43 0 0 1-.73.15 1.49 1.49 0 0 1-.86-.35c-.19-.22-.26-.48-.24-1.19l.05-2.9c0-.17.08-.24.11-.24h1.79c.18 0 .32 0 .37-.21s0-.33 0-.51-.09-.27-.2-.27c-.37 0-1.78.07-2 .07m9.99.69c1.4 0 2 1.47 2 2.66a2.94 2.94 0 0 1-.75 2 1.7 1.7 0 0 1-1.24.51 2 2 0 0 1-1.37-.86c-.09-.14-.14-.35-.14-1.27 0-.65 0-1.85.05-2.37a.53.53 0 0 1 .21-.3 2.11 2.11 0 0 1 1.2-.34m.7-.92a2.68 2.68 0 0 0-1 .19 9.22 9.22 0 0 0-1.06.53c-.06 0-.16 0-.16-.08v-.64a.39.39 0 0 0-.23-.22 1.36 1.36 0 0 0-.53.24 9.48 9.48 0 0 1-1 .49c-.18.1-.37.29-.37.43s.07.13.29.27c.51.37.54.49.54.6 0 .66.05 1.23 0 4.26 0 1 0 1.85-.09 2.8 0 .54-.13.84-.87 1-.31.08-.43.22-.43.32s.27.28.46.28 1-.14 1.65-.14h1.46c.27 0 .45-.13.45-.3s-.11-.21-.48-.32c-.81-.24-.86-.41-.86-.64v-2c0-.13.11-.33.16-.32a3.39 3.39 0 0 0 .59 0 5.75 5.75 0 0 0 1.75-.33 3.61 3.61 0 0 0 2.4-3.45 3.36 3.36 0 0 0-1-2.35 2.49 2.49 0 0 0-1.63-.65zm4.26.88c0 .09.18.24.35.36.38.27.4.38.4.48 0 .84 0 2.8-.05 3.51 0 .37-.06.61-.68.83-.19.06-.37.16-.37.33s.15.26.43.26h1.29c.56 0 1.27.06 1.76.06.19 0 .4-.14.4-.27s-.21-.27-.57-.36c-.71-.19-.84-.35-.89-1.1-.05-.56 0-2.84 0-3a.84.84 0 0 1 .14-.37.86.86 0 0 1 .73-.36 1 1 0 0 1 .57.19.67.67 0 0 0 .37.16.41.41 0 0 0 .25-.13 1.63 1.63 0 0 0 .64-1c0-.18-.41-.49-.87-.49a2.56 2.56 0 0 0-1.72.93c0 .07-.16 0-.16 0v-.78c0-.05-.13-.22-.19-.22a1.21 1.21 0 0 0-.46.15c-.34.18-.83.4-1.08.54a.4.4 0 0 0-.23.34m8.42-.41c.84 0 1.22.43 1.22.9s-.73.58-1.33.58h-1.16a.17.17 0 0 1-.1-.15 1.75 1.75 0 0 1 1.37-1.29m.48-.57a3.38 3.38 0 0 0-1.86.54 3.48 3.48 0 0 0-1.54 3 3 3 0 0 0 3.11 3.29 3.17 3.17 0 0 0 2.27-1 .73.73 0 0 0 .21-.49c0-.17-.13-.25-.19-.2a3.31 3.31 0 0 1-1.61.6 2.43 2.43 0 0 1-2.43-2.5 1.48 1.48 0 0 1 .08-.49.43.43 0 0 1 .26-.17h3.41c.16 0 .43-.3.43-.48a2 2 0 0 0-.27-1.11 2.16 2.16 0 0 0-1.87-1.03zm6.66.64a2 2 0 0 1 1.64.79 2 2 0 0 1 .12.62v3a.93.93 0 0 1-.15.4 2.43 2.43 0 0 1-1.24.4c-1.42 0-2.2-1.47-2.2-2.69a2.74 2.74 0 0 1 .75-2.07 1.66 1.66 0 0 1 1.08-.44m.67-.68a4.64 4.64 0 0 0-2.21.63 3.49 3.49 0 0 0-1.76 3.1 3 3 0 0 0 3 3.12 4.86 4.86 0 0 0 2-.79h.13v.65c0 .18.21.21.29.21.24 0 .92-.23 2-.47a.58.58 0 0 0 .35-.42c0-.18-.13-.29-.22-.27a8.2 8.2 0 0 1-.88.09c-.13 0-.27-.13-.28-.63s-.07-.74-.07-3.93c0-1.29.07-3.46.07-4.47 0-.73-.05-1-.21-1s-1.59.27-2 .38-.33.16-.33.21a.41.41 0 0 0 .3.34c.7.17.76.22.81.74v2.37c0 .09-.06.19-.12.18a4.34 4.34 0 0 0-.86-.05zm6.43-3.27a.87.87 0 0 0-.92.9.85.85 0 0 0 .15.48 1 1 0 0 0 .69.36.89.89 0 0 0 .84-.9 1.17 1.17 0 0 0-.27-.65.7.7 0 0 0-.49-.19m-1.38 4a.45.45 0 0 0 .17.31c.46.3.6.48.62.61s0 .92 0 1.24c0 .9 0 2-.07 2.32-.06.65-.09.78-.79 1-.23.06-.38.18-.38.32s.15.24.47.24h2.67c.33 0 .46-.07.46-.21s-.16-.3-.38-.37c-.57-.15-.63-.31-.65-.44s-.05-.44-.06-2.53v-2.9s-.1-.26-.16-.26a8.4 8.4 0 0 0-1.72.53c-.07-.06-.18.02-.18.14zm7.74-.74a3.75 3.75 0 0 0-2.11.63 3.44 3.44 0 0 0-1.62 3 3.35 3.35 0 0 0 .9 2.35 3.08 3.08 0 0 0 2.13.83 2.89 2.89 0 0 0 2.34-1.07 1 1 0 0 0 .2-.61c0-.12-.19-.22-.28-.14a2.17 2.17 0 0 1-1.59.67 2.41 2.41 0 0 1-2.36-2.56 2.79 2.79 0 0 1 .55-1.88 1.38 1.38 0 0 1 1.06-.52 2 2 0 0 1 1.51.58 1.13 1.13 0 0 0 .54.37c.22 0 .51-.38.51-.83a.84.84 0 0 0-.14-.38 2.21 2.21 0 0 0-1.64-.47m5.27.22c-.11 0-.12-.13-.12-.19v-.78c0-.17-.08-.24-.14-.24a1 1 0 0 0-.64.41 7.36 7.36 0 0 1-1.14 1c-.14.12-.33.27-.33.33a.71.71 0 0 0 .47.46c.45.06.49.08.49.25 0 1.52-.07 2.48-.07 3.6a2.09 2.09 0 0 0 .22 1.12 1.79 1.79 0 0 0 1.4.74 2.88 2.88 0 0 0 1.62-.5.78.78 0 0 0 .38-.55c0-.13-.08-.24-.14-.24a2.26 2.26 0 0 0-.35.09 2.43 2.43 0 0 1-.73.15 1.49 1.49 0 0 1-.86-.35c-.19-.22-.26-.48-.24-1.19l.05-2.9c0-.17.08-.24.11-.24h1.79c.18 0 .32 0 .37-.21s0-.33 0-.51-.09-.27-.2-.27c-.37 0-1.78.07-2 .07m5.03-3.5a.87.87 0 0 0-.92.9.85.85 0 0 0 .15.48 1 1 0 0 0 .69.36.89.89 0 0 0 .84-.9 1.17 1.17 0 0 0-.27-.65.7.7 0 0 0-.49-.19m-1.38 4a.45.45 0 0 0 .17.31c.46.3.6.48.62.61s0 .92 0 1.24c0 .9 0 2-.07 2.32-.06.65-.09.78-.79 1-.23.06-.38.18-.38.32s.15.24.47.24h2.67c.33 0 .46-.07.46-.21s-.16-.3-.38-.37c-.57-.15-.63-.31-.65-.44s0-.44-.06-2.53v-2.9s-.1-.26-.16-.26a8.4 8.4 0 0 0-1.72.53c-.07-.06-.18.02-.18.14zm7.31-.08c1.35 0 2.07 1.42 2.07 2.77a3.75 3.75 0 0 1-.43 2.13 1.67 1.67 0 0 1-1.21.62 2 2 0 0 1-1.21-.43 3.52 3.52 0 0 1-1-2.54 3.24 3.24 0 0 1 .65-2.1 1.73 1.73 0 0 1 1.08-.45m.24-.66a3.66 3.66 0 0 0-2.23.81 3.39 3.39 0 0 0-.33 5 3.62 3.62 0 0 0 2.51 1 3.47 3.47 0 0 0 2.4-1 3.42 3.42 0 0 0-2.35-5.88zm4.9.87s0 .1.22.24c.39.24.55.41.55.67 0 1.62 0 2.81-.09 3.57 0 .35-.11.54-.81.76-.16 0-.35.18-.35.34s.17.24.46.24h2.64c.28 0 .44-.13.44-.26s-.12-.27-.41-.38c-.64-.24-.62-.43-.62-.67v-3.64a.67.67 0 0 1 .19-.4 2.39 2.39 0 0 1 1.37-.35 1.32 1.32 0 0 1 1.13.43 3.36 3.36 0 0 1 .3 1.87v2.17c0 .39-.12.54-.52.68s-.35.24-.35.33.22.26.43.26h2.19c.19 0 .46-.1.46-.26s-.11-.3-.48-.44-.39-.29-.41-.75c0-.71 0-1.6-.05-2.38a3.88 3.88 0 0 0-.47-2.12 1.64 1.64 0 0 0-1.46-.74 3.92 3.92 0 0 0-2.26.81h-.11c.02 0 0-.62 0-.7s-.22-.19-.27-.19a1.84 1.84 0 0 0-.42.16c-.31.16-.73.3-1 .44a.6.6 0 0 0-.28.4m13.69-.77c-.11 0-.12-.13-.12-.19v-.78c0-.17-.08-.24-.14-.24a1 1 0 0 0-.64.41 7.36 7.36 0 0 1-1.14 1c-.14.12-.33.27-.33.33a.71.71 0 0 0 .47.46c.45.06.49.08.49.25 0 1.52-.07 2.48-.07 3.6a2.09 2.09 0 0 0 .22 1.12 1.79 1.79 0 0 0 1.4.74 2.88 2.88 0 0 0 1.62-.5.78.78 0 0 0 .38-.55c0-.13-.08-.24-.14-.24a2.26 2.26 0 0 0-.35.09 2.43 2.43 0 0 1-.73.15 1.47 1.47 0 0 1-.86-.35c-.19-.22-.26-.48-.24-1.19l.05-2.9c0-.17.08-.24.11-.24h1.79c.18 0 .32 0 .37-.21a3.56 3.56 0 0 0 0-.51c0-.09-.1-.27-.21-.27-.37 0-1.78.07-2 .07m4.94-3.5a.87.87 0 0 0-.92.9.85.85 0 0 0 .15.48 1 1 0 0 0 .69.36.89.89 0 0 0 .84-.9 1.17 1.17 0 0 0-.27-.65.7.7 0 0 0-.49-.19m-1.38 4a.45.45 0 0 0 .17.31c.46.3.6.48.62.61s0 .92 0 1.24c0 .9 0 2-.07 2.32-.06.65-.09.78-.79 1-.23.06-.38.18-.38.32s.15.24.47.24h2.67c.33 0 .46-.07.46-.21s-.16-.3-.38-.37c-.57-.15-.63-.31-.65-.44s-.05-.44-.06-2.53v-2.9s-.1-.26-.16-.26a8.4 8.4 0 0 0-1.72.53c-.1-.06-.18.02-.18.14zm4.52.24c0 .05.07.11.35.33a.76.76 0 0 1 .35.58c0 1.46 0 2.75-.06 3.34s-.08.63-.7.88c-.24.1-.38.2-.38.34s.17.27.44.27.72-.08 1.08-.08h1.39c.23 0 .39-.11.39-.27s0-.19-.35-.35-.49-.26-.52-.7 0-.78 0-3.58a1.86 1.86 0 0 1 .17-.41 2.32 2.32 0 0 1 1.37-.43 1.46 1.46 0 0 1 1.22.49 1.52 1.52 0 0 1 .24.7v3c0 .62-.2.72-.63.88-.26.09-.4.19-.4.32s.22.28.48.28h2.46c.19 0 .38-.09.38-.27s-.09-.27-.41-.38a.7.7 0 0 1-.56-.68v-3.45a1 1 0 0 1 .15-.5 2.77 2.77 0 0 1 1.4-.39 1.34 1.34 0 0 1 1.16.52 2.06 2.06 0 0 1 .26 1.18v2.68a.62.62 0 0 1-.51.7c-.3.08-.38.26-.38.32s.19.27.45.27h2.4c.14 0 .35-.06.35-.25s-.16-.24-.37-.32-.6-.29-.6-.56-.07-2.14-.11-3.14-.58-2.4-2-2.4a2.53 2.53 0 0 0-1.1.22 7.25 7.25 0 0 0-1.18.68h-.2a1.9 1.9 0 0 0-1.67-.85 4.3 4.3 0 0 0-2.19.81.1.1 0 0 1-.16-.08v-.67a.38.38 0 0 0-.26-.17s-.06 0-.17.09a7 7 0 0 1-1.23.62.55.55 0 0 0-.27.38m15.34-.36c.84 0 1.22.43 1.22.9s-.73.58-1.33.58h-1.16a.17.17 0 0 1-.1-.15 1.75 1.75 0 0 1 1.37-1.29m.48-.57a3.38 3.38 0 0 0-1.86.54 3.48 3.48 0 0 0-1.54 3 3 3 0 0 0 3.11 3.29 3.17 3.17 0 0 0 2.27-1 .73.73 0 0 0 .21-.49c0-.17-.13-.25-.19-.2a3.31 3.31 0 0 1-1.61.6 2.43 2.43 0 0 1-2.43-2.5 1.48 1.48 0 0 1 .08-.49.43.43 0 0 1 .26-.17h3.41c.16 0 .43-.3.43-.48a2 2 0 0 0-.27-1.11 2.16 2.16 0 0 0-1.87-1.03z"/></g></svg>