<svg xmlns="http://www.w3.org/2000/svg" viewBox="0 0 155.37 144"><g data-name="Layer 2"><path d="M151.26 117a4.11 4.11 0 104.11 4.11 4.07 4.07 0 00-4.11-4.11zm0 7.61a3.5 3.5 0 113.5-3.5 3.46 3.46 0 01-3.5 3.49zm.9-3.09a1.24 1.24 0 00.93-1.22c0-.78-.53-1.24-1.42-1.24h-2v4.11h.71v-1.57h.91l1.1 1.57h.88l-1.16-1.63zm-1.78-.49v-1.34h1.18c.51 0 .8.24.8.65s-.3.69-.8.69zm-17-121H10.63A10.63 10.63 0 000 10.63v122.74A10.63 10.63 0 0010.63 144h122.74A10.63 10.63 0 00144 133.37V10.63A10.63 10.63 0 00133.37 0zM42.92 122.68H21.27V53.9h21.65zM32.1 44.37A12.25 12.25 0 0119.61 32 12.27 12.27 0 0132.1 19.51 12.27 12.27 0 0144.58 32 12.25 12.25 0 0132.1 44.37zm90.63 78.36h-21.65V85.17c0-11.09-4.71-14.51-10.78-14.51-6.43 0-12.73 4.84-12.73 14.78v37.29H55.93V54h20.82v9.53H77C79.12 59.25 86.43 52 97.6 52c12.08 0 25.13 7.17 25.13 28.17z" fill="#231f20" data-name="Layer 1"/></g></svg>