<?xml version="1.0" encoding="utf-8"?>
<svg version="1.1" id="Layer_1" xmlns="http://www.w3.org/2000/svg" xmlns:xlink="http://www.w3.org/1999/xlink" x="0px" y="0px"
	 viewBox="0 0 310 310" style="enable-background:new 0 0 310 310;" xml:space="preserve">
<style type="text/css">
	.st0{fill:none;stroke:#000000;stroke-width:3;stroke-miterlimit:10;}
</style>
<g>
	<path d="M61.8,74.8c6.7,0,37.4,1.1,39,1.1s4,2.7,4.5,3.7c1.1,4,4,10.7,9.6,23.8c5.9,13.6,35.8,75.8,43.3,89.2
		c0.3,1.1,2.1,1.1,3.7-1.9c2.7-5.6,37.1-74.8,43.8-88.4c5.6-11.5,8-17.6,9.6-22.2c0.3-1.6,3.2-4.3,4.8-4.3c4.5,0,28-1.3,36.6-1.3
		c2.7,0,8.8,1.1,8.8,5.1c0,2.7-1.6,4-8.3,5.6c-16,3.7-19.2,8-19.2,12.8c0,42.7,1.9,86,2.7,105.5c0.8,20,5.9,21.9,16.8,25.4
		c6.1,1.9,8.5,4.3,8.5,6.1c0,2.7-2.9,5.1-8,5.1c-3.2,0-29.1-1.6-37.4-1.6c-8.5,0-13.9,0.8-20.3,0.8c-4.5,0-8.3-2.4-8.3-4.8
		c0-2.9,3.5-4.8,8.5-6.1c10.1-2.9,11.7-5.9,12-20.6c0.3-6.9,0.3-64.1,0.5-89.7c0-1.6-2.7-0.5-3.2,0.3c-5.3,9.6-33.6,71-37.6,80.1
		c-3.2,6.7-10.7,24.6-13.6,32.3c-2.4,6.4-6.4,9.6-10.1,9.6c-2.4,0-4.8-4.5-6.9-9.1c-2.9-7.7-10.4-28.3-13.1-35.2
		c-10.1-25.6-26.2-57.9-33.6-76.4c-0.5-0.8-2.7-2.7-2.9-0.5c-2.4,24.6-4.5,74.2-4.5,87.8c0,16,3.2,17.9,16,21.4
		c6.1,1.6,7.2,3.7,7.2,6.1c0,2.9-4.3,4.8-8.5,4.8c-3.7,0-13.1-0.8-20.8-0.8c-8.5,0-25.9,1.3-29.4,1.3c-5.1,0-8.8-1.6-8.8-5.1
		c0-2.4,1.9-4.3,8.3-5.9c12.5-3.2,17.9-9.3,19.8-20.6c3.2-18.4,9.9-94.5,9.9-102c0-15-2.9-17.6-19.8-21.1c-4.3-0.8-7.5-2.7-7.5-4.5
		C53.8,77.8,58.1,74.8,61.8,74.8z"/>
</g>
<path class="st0" d="M42.5,294.5h225c14.9,0,27-12.1,27-27v-225c0-14.9-12.1-27-27-27h-225c-14.9,0-27,12.1-27,27v225
	C15.5,282.4,27.6,294.5,42.5,294.5z"/>
</svg>
