<svg xmlns="http://www.w3.org/2000/svg" xmlns:xlink="http://www.w3.org/1999/xlink" viewBox="0 0 302.34 86.19"><defs><clipPath id="a" transform="translate(-0.14 0.48)"><rect x="0.04" y="-0.67" width="303" height="87" fill="none"/></clipPath></defs><title>bayesian_graphical</title><g clip-path="url(#a)"><path d="M5.93,9.62a11.1,11.1,0,0,1-1.68-.06c-.15,0-.32,0-.48-.07s-.24.16-.36.37a12.32,12.32,0,0,0-.64,1.89c0,.24,0,.48.19.48s.27-.1.43-.38a3.8,3.8,0,0,1,.76-1.07c.34-.33.72-.39,1.47-.43,1,0,1.92,0,3,0,.08,0,.08.17,0,.25-.32.37-5.51,6.2-7.66,8.33-.24.22-.13.54,0,.54.35,0,1.27-.1,2.23-.1.73,0,4.35.1,5,.1a3.06,3.06,0,0,0,1-.14,1.7,1.7,0,0,0,.46-.64,7.16,7.16,0,0,0,.65-1.75c0-.19,0-.4-.19-.4s-.28.1-.51.48a4.34,4.34,0,0,1-1.3,1.46,4.17,4.17,0,0,1-1.85.31c-.5,0-2.89-.16-3.14-.23s-.1-.12,0-.19c1.36-1.49,4.8-5.35,5.92-6.51S10.84,10.21,11,10.1a.74.74,0,0,0,.2-.43c0-.11-.16-.19-.28-.19s-3.44.14-5,.14" transform="translate(-0.14 0.48)"/><path d="M11.45,21.61c0,.11.15.18.38.18s.9-.06,1.62-.06c.54,0,.63,0,1.06,0,.22,0,.33-.1.33-.18s-.11-.19-.27-.22c-.73-.16-.86-.22-.67-1,.1-.46.71-2.71.91-3.46.27-1,.47-1.57.52-1.76A.15.15,0,0,0,15.2,15a1,1,0,0,0-.25.08,10.66,10.66,0,0,1-1.58.37c-.14,0-.3.12-.3.24s.19.17.3.18.46,0,.67,0c.05,0,.08.15.05.22-.05.26-.11.53-.5,2-.31,1.19-.5,1.74-.72,2.44-.15.51-.36.68-1,.79-.25,0-.46.1-.46.26" transform="translate(-0.14 0.48)"/><path d="M34,4.52a5,5,0,0,1-.74,2.14c-.22.34-.83,1-1.2,1-.14,0-.31-.2-.4-.38A.42.42,0,0,1,31.63,7c.11-.54.51-2.14.68-2.89a.49.49,0,0,1,.18-.27,4,4,0,0,1,.87-.11.73.73,0,0,1,.66.76m.89.08a1.21,1.21,0,0,0-1.36-1.35c-.15,0-.59.07-1,.11,0,0-.09-.07-.09-.11a3.35,3.35,0,0,0,.12-.62c0-.14-.32-.34-.39-.34a.59.59,0,0,0-.28.17,3.16,3.16,0,0,0-.32,1s0,.07-.15.12-.7.27-.8.36a.92.92,0,0,0-.2.37.16.16,0,0,0,.18.09c.19-.08.56-.19.72-.24s.08.08.08.11c-.3,1.3-1,4.52-1.28,5.27-.12.35-.2.45-.8.56a.41.41,0,0,0-.29.31c0,.08.1.16.34.16s.58,0,.89,0c.56,0,1.16.07,1.19.07.27,0,.42-.12.42-.24s-.19-.19-.31-.22c-.55-.14-.58-.28-.51-.67.09-.55.2-.93.32-1.46,0,0,.09-.09.12-.08a1.68,1.68,0,0,0,.56.15,2.81,2.81,0,0,0,1.31-.68A4.45,4.45,0,0,0,34.91,4.6Z" transform="translate(-0.14 0.48)" fill="#003c71"/><path d="M39.48,10.68l.24-.3A6.6,6.6,0,0,1,37.51,5.1,6.63,6.63,0,0,1,39.72-.18l-.24-.3a6.54,6.54,0,0,0-3,5.58,6.51,6.51,0,0,0,3,5.58" transform="translate(-0.14 0.48)" fill="#003c71"/><path d="M43,3.25a1.91,1.91,0,0,0-1.16.51,1.58,1.58,0,0,0-.58,1.13c0,.27.13.39.23.39A1.15,1.15,0,0,0,42,5c0-.05.1-.15.09-.18a2.89,2.89,0,0,1-.08-.5.38.38,0,0,1,.37-.39,3.81,3.81,0,0,1,.94.22,6.35,6.35,0,0,0,.79.18s0,.1,0,.13a32,32,0,0,0-2.5,2.24c-.54.57-.74.94-.74,1.1s.11.37.24.37a.41.41,0,0,0,.26-.23c.14-.25.39-.57.65-.57s.39.06.82.38.7.58,1.06.58a1.73,1.73,0,0,0,1-.51,1.42,1.42,0,0,0,.6-1c0-.3-.12-.64-.56-.64a.19.19,0,0,0-.13.19,1.89,1.89,0,0,1,.08.52c0,.55-.33.68-.47.68a1.19,1.19,0,0,1-.7-.27,2.42,2.42,0,0,0-1.35-.53.07.07,0,0,1-.06-.09c.23-.27,2.61-2.32,3.27-2.85.13-.11.26-.26.26-.38a.46.46,0,0,0-.22-.29.37.37,0,0,0-.24.14,1.63,1.63,0,0,1-.67.45,2.13,2.13,0,0,1-.63-.17A4.12,4.12,0,0,0,43,3.25" transform="translate(-0.14 0.48)" fill="#003c71"/><path d="M48.2,4.73a1.92,1.92,0,0,0-1.59,1c0,.1-.06.27.07.27a.31.31,0,0,0,.17-.12A1.75,1.75,0,0,1,48,5.27a.72.72,0,0,1,.72.78c0,.59-.48,1.06-1,1.55s-1.25,1.16-1.83,1.63a.22.22,0,0,0-.07.19.27.27,0,0,0,.21.11h.83c.54,0,1.14,0,1.64,0a.83.83,0,0,0,.27-.12,3.1,3.1,0,0,0,.48-.84c0-.09.06-.29-.05-.29s-.13.06-.22.17a1.25,1.25,0,0,1-.59.43c-.26,0-.83,0-1.55,0,0,0-.07,0,0-.07.71-.61,1.44-1.24,1.84-1.6a1.93,1.93,0,0,0,.79-1.36A1.16,1.16,0,0,0,48.2,4.73" transform="translate(-0.14 0.48)" fill="#003c71"/><path d="M52.08-.48h-.54a0,0,0,0,0,0,0V10.66l0,0h.54a0,0,0,0,0,0,0V-.46a0,0,0,0,0,0,0" transform="translate(-0.14 0.48)" fill="#003c71"/><path d="M55.43,3.25a1.91,1.91,0,0,0-1.16.51,1.58,1.58,0,0,0-.58,1.13c0,.27.13.39.23.39a1.15,1.15,0,0,0,.52-.3c0-.05.1-.15.09-.18a2.89,2.89,0,0,1-.08-.5.38.38,0,0,1,.37-.39,3.81,3.81,0,0,1,.94.22,6.35,6.35,0,0,0,.79.18s0,.1,0,.13A32,32,0,0,0,54,6.68c-.54.57-.74.94-.74,1.1s.11.37.24.37a.41.41,0,0,0,.26-.23c.14-.25.39-.57.65-.57s.39.06.82.38.7.58,1.06.58a1.73,1.73,0,0,0,1-.51,1.42,1.42,0,0,0,.6-1c0-.3-.12-.64-.56-.64a.19.19,0,0,0-.13.19,1.89,1.89,0,0,1,.08.52c0,.55-.33.68-.47.68a1.19,1.19,0,0,1-.7-.27,2.42,2.42,0,0,0-1.35-.53.07.07,0,0,1-.06-.09C55,6.41,57.33,4.36,58,3.83c.13-.11.26-.26.26-.38A.46.46,0,0,0,58,3.16a.37.37,0,0,0-.24.14,1.63,1.63,0,0,1-.67.45,2.13,2.13,0,0,1-.63-.17,4.12,4.12,0,0,0-1.06-.33" transform="translate(-0.14 0.48)" fill="#003c71"/><path d="M58.6,9.45c0,.08.11.12.27.12s.65,0,1.15,0,.46,0,.76,0,.24-.07.24-.13-.08-.14-.19-.16c-.53-.11-.62-.15-.48-.7.07-.33.5-1.93.64-2.47.19-.71.34-1.11.38-1.25a.11.11,0,0,0-.1-.11.7.7,0,0,0-.17.06A8.23,8.23,0,0,1,60,5.07c-.1,0-.22.08-.22.16s.14.12.22.13l.48,0s0,.1,0,.15-.08.38-.35,1.42c-.23.85-.36,1.24-.52,1.74s-.25.48-.68.56c-.18,0-.33.08-.33.19" transform="translate(-0.14 0.48)" fill="#003c71"/><path d="M64.09,10.68a6.54,6.54,0,0,0,3-5.58,6.56,6.56,0,0,0-3-5.58l-.26.3A6.6,6.6,0,0,1,66.05,5.1a6.58,6.58,0,0,1-2.22,5.28l.26.3" transform="translate(-0.14 0.48)" fill="#003c71"/><path d="M37.16,14.92H26.55a.36.36,0,0,0-.36.36.38.38,0,0,0,.36.37H37.16a.37.37,0,0,0,.36-.37.35.35,0,0,0-.36-.36" transform="translate(-0.14 0.48)"/><path d="M44.36,14.92H33.75a.36.36,0,0,0-.36.36.38.38,0,0,0,.36.37H44.36a.37.37,0,0,0,.36-.37.35.35,0,0,0-.36-.36" transform="translate(-0.14 0.48)"/><path d="M54.46,14.92H43.85a.36.36,0,0,0-.36.36.38.38,0,0,0,.36.37H54.46a.37.37,0,0,0,.36-.37.35.35,0,0,0-.36-.36" transform="translate(-0.14 0.48)"/><path d="M64.56,14.92H54a.36.36,0,0,0-.36.36.38.38,0,0,0,.36.37H64.56a.37.37,0,0,0,.36-.37.35.35,0,0,0-.36-.36" transform="translate(-0.14 0.48)"/><path d="M68,13c0,.37,1.07,1.15,1.83,1.93H61.15a.36.36,0,0,0-.36.36.38.38,0,0,0,.36.37H69.8c-.73.73-1.83,1.52-1.83,1.9a.36.36,0,0,0,.37.37.38.38,0,0,0,.29-.14,5.68,5.68,0,0,1,3.19-2.15.36.36,0,0,0,0-.71,5.73,5.73,0,0,1-3.19-2.15.35.35,0,0,0-.29-.14A.36.36,0,0,0,68,13" transform="translate(-0.14 0.48)"/><path d="M90.4,14.57a1,1,0,0,0-1,1,1,1,0,1,0,2,0,1.07,1.07,0,0,0-1-1m-3.79,0a1,1,0,0,0-1,1,1,1,0,0,0,1,1,1,1,0,0,0,1-1A1,1,0,0,0,86.61,14.57Zm-3.75,0a1,1,0,0,0-1,1,1,1,0,0,0,1,1,1,1,0,0,0,1-1A1,1,0,0,0,82.86,14.57Z" transform="translate(-0.14 0.48)"/><path d="M108.82,4.52a5,5,0,0,1-.74,2.14c-.22.34-.83,1-1.2,1-.14,0-.31-.2-.4-.38a.42.42,0,0,1,0-.22c.11-.54.51-2.14.68-2.89a.49.49,0,0,1,.18-.27,4,4,0,0,1,.87-.11.73.73,0,0,1,.66.76m.89.08a1.21,1.21,0,0,0-1.36-1.35c-.14,0-.59.07-1,.11,0,0-.09-.07-.09-.11a3.35,3.35,0,0,0,.12-.62c0-.14-.32-.34-.39-.34a.59.59,0,0,0-.28.17,3.16,3.16,0,0,0-.32,1s0,.07-.15.12-.7.27-.8.36a.92.92,0,0,0-.2.37.16.16,0,0,0,.18.09c.19-.08.56-.19.72-.24s.08.08.08.11c-.3,1.3-1,4.52-1.28,5.27-.12.35-.2.45-.8.56a.41.41,0,0,0-.29.31c0,.08.1.16.34.16s.58,0,.89,0c.56,0,1.16.07,1.19.07.27,0,.42-.12.42-.24s-.19-.19-.31-.22c-.55-.14-.58-.28-.51-.67.09-.55.2-.93.32-1.46,0,0,.09-.09.12-.08a1.74,1.74,0,0,0,.56.15,2.85,2.85,0,0,0,1.31-.68A4.45,4.45,0,0,0,109.71,4.6Z" transform="translate(-0.14 0.48)" fill="#003c71"/><path d="M114.38,10.68l.24-.3a6.6,6.6,0,0,1-2.21-5.28,6.63,6.63,0,0,1,2.21-5.28l-.24-.3a6.54,6.54,0,0,0-3,5.58,6.51,6.51,0,0,0,3,5.58" transform="translate(-0.14 0.48)" fill="#003c71"/><path d="M117.83,3.25a1.89,1.89,0,0,0-1.16.51,1.58,1.58,0,0,0-.58,1.13c0,.27.13.39.23.39a1.15,1.15,0,0,0,.52-.3c0-.05.1-.15.09-.18a2.89,2.89,0,0,1-.08-.5.38.38,0,0,1,.37-.39,3.81,3.81,0,0,1,.94.22,6.35,6.35,0,0,0,.79.18s0,.1,0,.13a32,32,0,0,0-2.5,2.24c-.54.57-.74.94-.74,1.1s.11.37.24.37a.39.39,0,0,0,.26-.23c.14-.25.39-.57.65-.57s.39.06.82.38.7.58,1.06.58a1.73,1.73,0,0,0,1-.51,1.42,1.42,0,0,0,.6-1c0-.3-.12-.64-.56-.64a.19.19,0,0,0-.13.19,1.89,1.89,0,0,1,.08.52c0,.55-.33.68-.47.68a1.19,1.19,0,0,1-.7-.27,2.42,2.42,0,0,0-1.35-.53.07.07,0,0,1-.06-.09c.24-.27,2.61-2.32,3.27-2.85a.62.62,0,0,0,.25-.38.44.44,0,0,0-.21-.29.37.37,0,0,0-.24.14,1.63,1.63,0,0,1-.67.45,2.13,2.13,0,0,1-.63-.17,4.12,4.12,0,0,0-1.06-.33" transform="translate(-0.14 0.48)" fill="#003c71"/><path d="M122.51,5.43a.35.35,0,0,0-.27.21c-.06.13-.23.5-.28.58a.18.18,0,0,1-.09.08l-.53,0a.38.38,0,0,0-.15.27c0,.07,0,.1.07.11h.52s0,0,0,.07c-.16.47-.54,1.84-.63,2.19a2.4,2.4,0,0,0-.07.38c0,.06.1.31.3.31a2.55,2.55,0,0,0,1.24-.86.42.42,0,0,0,.1-.28s-.09-.14-.12-.11a2,2,0,0,1-.74.49c-.07,0-.09-.07,0-.34.23-.85.46-1.62.52-1.78a.12.12,0,0,1,.09-.08l.77,0s.17-.26.17-.32,0-.09-.06-.09h-.76a.08.08,0,0,1-.07-.07,5.84,5.84,0,0,0,.2-.74s-.12-.07-.23-.07" transform="translate(-0.14 0.48)" fill="#003c71"/><path d="M123.92,7.55a.33.33,0,0,0-.11.08.57.57,0,0,0-.1.28.15.15,0,0,0,.14.15c.35,0,1.05,0,1.57-.08l.12-.09a.84.84,0,0,0,.08-.32s-.05-.16-.1-.16c-.21,0-1.42.11-1.6.14" transform="translate(-0.14 0.48)" fill="#003c71"/><path d="M125.6,9.45c0,.08.11.12.27.12s.65,0,1.15,0,.46,0,.76,0,.24-.07.24-.13-.08-.14-.19-.16c-.53-.11-.62-.15-.48-.7.07-.33.5-1.93.64-2.47.19-.71.34-1.11.38-1.25a.11.11,0,0,0-.1-.11.7.7,0,0,0-.17.06,8.23,8.23,0,0,1-1.13.27c-.1,0-.22.08-.22.16s.14.12.22.13.32,0,.47,0,.06.1,0,.15-.08.38-.35,1.42c-.23.85-.36,1.24-.52,1.74s-.25.48-.68.56c-.18,0-.33.08-.33.19" transform="translate(-0.14 0.48)" fill="#003c71"/><path d="M131.48-.48h-.54l0,0V10.66l0,0h.54a0,0,0,0,0,0,0V-.46a0,0,0,0,0,0,0" transform="translate(-0.14 0.48)" fill="#003c71"/><path d="M134.83,3.25a1.89,1.89,0,0,0-1.16.51,1.58,1.58,0,0,0-.58,1.13c0,.27.13.39.23.39a1.15,1.15,0,0,0,.52-.3c0-.05.1-.15.09-.18a2.89,2.89,0,0,1-.08-.5.38.38,0,0,1,.37-.39,3.81,3.81,0,0,1,.94.22,6.35,6.35,0,0,0,.79.18s0,.1,0,.13a32,32,0,0,0-2.5,2.24c-.54.57-.74.94-.74,1.1s.11.37.24.37a.41.41,0,0,0,.26-.23c.14-.25.39-.57.65-.57s.39.06.82.38.7.58,1.06.58a1.73,1.73,0,0,0,1-.51,1.42,1.42,0,0,0,.6-1c0-.3-.12-.64-.56-.64a.19.19,0,0,0-.13.19,1.89,1.89,0,0,1,.08.52c0,.55-.33.68-.47.68a1.19,1.19,0,0,1-.7-.27,2.42,2.42,0,0,0-1.35-.53.07.07,0,0,1-.06-.09c.23-.27,2.61-2.32,3.27-2.85.13-.11.26-.26.26-.38a.46.46,0,0,0-.22-.29.37.37,0,0,0-.24.14,1.63,1.63,0,0,1-.67.45,2.13,2.13,0,0,1-.63-.17,4.12,4.12,0,0,0-1.06-.33" transform="translate(-0.14 0.48)" fill="#003c71"/><path d="M139.51,5.43a.35.35,0,0,0-.27.21c-.06.13-.23.5-.28.58a.18.18,0,0,1-.09.08l-.53,0a.38.38,0,0,0-.15.27c0,.07,0,.1.07.11h.52s0,0,0,.07c-.15.47-.53,1.84-.62,2.19a2.4,2.4,0,0,0-.07.38c0,.06.1.31.3.31a2.6,2.6,0,0,0,1.24-.86.42.42,0,0,0,.1-.28s-.09-.14-.12-.11a2,2,0,0,1-.74.49c-.07,0-.09-.07,0-.34.23-.85.46-1.62.52-1.78a.12.12,0,0,1,.09-.08l.77,0s.17-.26.17-.32,0-.09-.06-.09h-.76a.08.08,0,0,1-.07-.07,5.84,5.84,0,0,0,.2-.74s-.12-.07-.23-.07" transform="translate(-0.14 0.48)" fill="#003c71"/><path d="M140.82,7.55a.33.33,0,0,0-.11.08.57.57,0,0,0-.1.28.15.15,0,0,0,.13.15c.36,0,1.06,0,1.58-.08l.13-.09a1.07,1.07,0,0,0,.07-.32s-.05-.16-.1-.16c-.21,0-1.42.11-1.6.14" transform="translate(-0.14 0.48)" fill="#003c71"/><path d="M145,4.73a1.93,1.93,0,0,0-1.6,1c0,.1-.06.27.07.27a.31.31,0,0,0,.17-.12,1.75,1.75,0,0,1,1.1-.62.72.72,0,0,1,.72.78c0,.59-.48,1.06-1,1.55s-1.25,1.16-1.83,1.63a.22.22,0,0,0-.07.19.27.27,0,0,0,.21.11h.83c.54,0,1.14,0,1.64,0a.83.83,0,0,0,.27-.12A3.1,3.1,0,0,0,146,8.6c0-.09.06-.29,0-.29s-.13.06-.22.17a1.25,1.25,0,0,1-.59.43c-.26,0-.83,0-1.55,0,0,0-.07,0,0-.07.71-.61,1.45-1.24,1.84-1.6a1.93,1.93,0,0,0,.79-1.36A1.16,1.16,0,0,0,145,4.73" transform="translate(-0.14 0.48)" fill="#003c71"/><path d="M148.39,10.68a6.54,6.54,0,0,0,3-5.58,6.56,6.56,0,0,0-3-5.58l-.26.3a6.6,6.6,0,0,1,2.22,5.28,6.58,6.58,0,0,1-2.22,5.28l.26.3" transform="translate(-0.14 0.48)" fill="#003c71"/><path d="M112.26,14.92H101.65a.36.36,0,0,0-.36.36.38.38,0,0,0,.36.37h10.61a.37.37,0,0,0,.36-.37.35.35,0,0,0-.36-.36" transform="translate(-0.14 0.48)"/><path d="M118.86,14.92H108.25a.36.36,0,0,0-.36.36.38.38,0,0,0,.36.37h10.61a.37.37,0,0,0,.36-.37.35.35,0,0,0-.36-.36" transform="translate(-0.14 0.48)"/><path d="M129,14.92h-10.6a.36.36,0,0,0-.37.36.38.38,0,0,0,.37.37H129a.37.37,0,0,0,.36-.37.35.35,0,0,0-.36-.36" transform="translate(-0.14 0.48)"/><path d="M139.16,14.92H128.55a.36.36,0,0,0-.36.36.38.38,0,0,0,.36.37h10.61a.37.37,0,0,0,.36-.37.35.35,0,0,0-.36-.36" transform="translate(-0.14 0.48)"/><path d="M149.26,14.92H138.65a.36.36,0,0,0-.36.36.38.38,0,0,0,.36.37h10.61a.37.37,0,0,0,.36-.37.35.35,0,0,0-.36-.36" transform="translate(-0.14 0.48)"/><path d="M152.07,13c0,.37,1.07,1.15,1.83,1.93h-8.64a.36.36,0,0,0-.37.36.38.38,0,0,0,.37.37h8.64c-.73.73-1.83,1.52-1.83,1.9a.36.36,0,0,0,.37.37.38.38,0,0,0,.29-.14,5.68,5.68,0,0,1,3.19-2.15.36.36,0,0,0,0-.71,5.73,5.73,0,0,1-3.19-2.15.35.35,0,0,0-.29-.14.36.36,0,0,0-.37.36" transform="translate(-0.14 0.48)"/><path d="M170.63,9.62A11.1,11.1,0,0,1,169,9.56c-.15,0-.32,0-.48-.07s-.24.16-.36.37a12.32,12.32,0,0,0-.64,1.89c0,.24,0,.48.19.48s.27-.1.43-.38a3.8,3.8,0,0,1,.76-1.07c.34-.33.72-.39,1.47-.43,1,0,1.92,0,3,0,.08,0,.08.17,0,.25-.32.37-5.51,6.2-7.66,8.33-.24.22-.13.54,0,.54.35,0,1.27-.1,2.23-.1.73,0,4.35.1,5,.1a3.06,3.06,0,0,0,1-.14,1.7,1.7,0,0,0,.46-.64,7.6,7.6,0,0,0,.65-1.75c0-.19,0-.4-.19-.4s-.29.1-.51.48a4.34,4.34,0,0,1-1.3,1.46,4.15,4.15,0,0,1-1.84.31c-.51,0-2.9-.16-3.15-.23-.1,0-.1-.12,0-.19,1.36-1.49,4.8-5.35,5.93-6.51s1.58-1.61,1.7-1.72a.74.74,0,0,0,.2-.43c0-.11-.16-.19-.28-.19s-3.44.14-5,.14" transform="translate(-0.14 0.48)"/><path d="M178.37,16a.44.44,0,0,0-.38.29c-.09.18-.32.7-.39.81a.23.23,0,0,1-.13.11c-.11,0-.68,0-.75,0a.5.5,0,0,0-.2.36c0,.1,0,.15.09.16l.73,0s0,.07,0,.1c-.22.66-.75,2.58-.89,3.07a4.19,4.19,0,0,0-.09.54c0,.08.14.43.43.43a3.72,3.72,0,0,0,1.74-1.2.67.67,0,0,0,.13-.4c0-.07-.12-.19-.16-.16a2.85,2.85,0,0,1-1,.69c-.1,0-.14-.1,0-.48.33-1.18.64-2.26.73-2.5a.2.2,0,0,1,.13-.11l1.08,0a1,1,0,0,0,.23-.44c0-.07,0-.14-.08-.14h-1.06a.09.09,0,0,1-.1-.1,7.38,7.38,0,0,0,.28-1s-.17-.1-.32-.1" transform="translate(-0.14 0.48)"/><path d="M180.16,18.94a.67.67,0,0,0-.17.12.93.93,0,0,0-.13.4.21.21,0,0,0,.19.21c.5,0,1.48-.07,2.21-.11a.89.89,0,0,0,.18-.14,1.24,1.24,0,0,0,.11-.44c0-.05-.08-.22-.15-.22-.29,0-2,.14-2.24.18" transform="translate(-0.14 0.48)"/><path d="M182.55,21.61c0,.11.16.18.38.18s.9-.06,1.62-.06c.54,0,.63,0,1.06,0,.22,0,.33-.1.33-.18s-.11-.19-.27-.22c-.73-.16-.86-.22-.67-1,.1-.46.71-2.71.91-3.46.27-1,.47-1.57.52-1.76a.15.15,0,0,0-.13-.15,1,1,0,0,0-.25.08,10.66,10.66,0,0,1-1.58.37c-.14,0-.3.12-.3.24s.19.17.3.18.46,0,.67,0c.05,0,.08.15.05.22-.05.26-.11.53-.5,2-.31,1.19-.5,1.74-.72,2.44-.15.51-.36.68-1,.79-.25,0-.46.1-.46.26" transform="translate(-0.14 0.48)"/><path d="M204.92,4.52a5,5,0,0,1-.74,2.14c-.22.34-.83,1-1.2,1-.14,0-.31-.2-.4-.38a.42.42,0,0,1-.05-.22c.11-.54.51-2.14.68-2.89a.49.49,0,0,1,.18-.27,4,4,0,0,1,.87-.11.73.73,0,0,1,.66.76m.89.08a1.21,1.21,0,0,0-1.36-1.35c-.15,0-.59.07-1,.11,0,0-.09-.07-.09-.11a3.35,3.35,0,0,0,.12-.62c0-.14-.32-.34-.39-.34a.59.59,0,0,0-.28.17,3.16,3.16,0,0,0-.32,1s0,.07-.15.12-.7.27-.8.36a.92.92,0,0,0-.2.37.16.16,0,0,0,.18.09c.19-.08.56-.19.71-.24s.09.08.09.11c-.3,1.3-1,4.52-1.28,5.27-.12.35-.2.45-.8.56a.41.41,0,0,0-.29.31c0,.08.1.16.34.16s.58,0,.89,0c.56,0,1.16.07,1.19.07.27,0,.42-.12.42-.24s-.19-.19-.31-.22c-.55-.14-.58-.28-.51-.67.09-.55.2-.93.32-1.46,0,0,.09-.09.12-.08a1.68,1.68,0,0,0,.56.15,2.85,2.85,0,0,0,1.31-.68A4.45,4.45,0,0,0,205.81,4.6Z" transform="translate(-0.14 0.48)" fill="#003c71"/><path d="M210.38,10.68l.24-.3a6.6,6.6,0,0,1-2.21-5.28,6.63,6.63,0,0,1,2.21-5.28l-.24-.3a6.54,6.54,0,0,0-3,5.58,6.51,6.51,0,0,0,3,5.58" transform="translate(-0.14 0.48)" fill="#003c71"/><path d="M213.93,3.25a1.91,1.91,0,0,0-1.16.51,1.58,1.58,0,0,0-.58,1.13c0,.27.13.39.23.39a1.15,1.15,0,0,0,.52-.3c0-.05.1-.15.09-.18a2.89,2.89,0,0,1-.08-.5.38.38,0,0,1,.37-.39,3.81,3.81,0,0,1,.94.22,6.35,6.35,0,0,0,.79.18s0,.1,0,.13a32,32,0,0,0-2.5,2.24c-.54.57-.74.94-.74,1.1s.11.37.24.37a.39.39,0,0,0,.26-.23c.14-.25.39-.57.65-.57s.39.06.82.38.7.58,1.06.58a1.73,1.73,0,0,0,1-.51,1.42,1.42,0,0,0,.6-1c0-.3-.12-.64-.56-.64a.19.19,0,0,0-.13.19,1.89,1.89,0,0,1,.08.52c0,.55-.33.68-.47.68a1.19,1.19,0,0,1-.7-.27,2.42,2.42,0,0,0-1.35-.53.07.07,0,0,1-.06-.09c.24-.27,2.61-2.32,3.27-2.85a.62.62,0,0,0,.25-.38.44.44,0,0,0-.21-.29.37.37,0,0,0-.24.14,1.63,1.63,0,0,1-.67.45,2.13,2.13,0,0,1-.63-.17,4.12,4.12,0,0,0-1.06-.33" transform="translate(-0.14 0.48)" fill="#003c71"/><path d="M218.61,5.43a.35.35,0,0,0-.27.21c-.06.13-.23.5-.28.58a.18.18,0,0,1-.09.08l-.53,0a.38.38,0,0,0-.15.27c0,.07,0,.1.07.11h.52s0,0,0,.07c-.15.47-.53,1.84-.62,2.19a2.4,2.4,0,0,0-.07.38c0,.06.1.31.3.31a2.61,2.61,0,0,0,1.25-.86.46.46,0,0,0,.09-.28s-.09-.14-.12-.11a2,2,0,0,1-.74.49c-.07,0-.09-.07,0-.34.23-.85.46-1.62.52-1.78a.12.12,0,0,1,.09-.08l.77,0s.16-.26.16-.32,0-.09-.05-.09h-.76a.08.08,0,0,1-.07-.07,4.43,4.43,0,0,0,.2-.74s-.12-.07-.23-.07" transform="translate(-0.14 0.48)" fill="#003c71"/><path d="M221.78-.48h-.54a0,0,0,0,0,0,0V10.66a0,0,0,0,0,0,0h.54l0,0V-.46l0,0" transform="translate(-0.14 0.48)" fill="#003c71"/><path d="M225.13,3.25a1.91,1.91,0,0,0-1.16.51,1.58,1.58,0,0,0-.58,1.13c0,.27.13.39.23.39a1.15,1.15,0,0,0,.52-.3c0-.05.1-.15.09-.18a2.89,2.89,0,0,1-.08-.5.38.38,0,0,1,.37-.39,3.81,3.81,0,0,1,.94.22,6.35,6.35,0,0,0,.79.18s0,.1,0,.13a32,32,0,0,0-2.5,2.24c-.54.57-.74.94-.74,1.1s.11.37.24.37a.41.41,0,0,0,.26-.23c.14-.25.39-.57.65-.57s.39.06.82.38.7.58,1.06.58a1.73,1.73,0,0,0,1-.51,1.42,1.42,0,0,0,.6-1c0-.3-.12-.64-.56-.64a.19.19,0,0,0-.13.19,1.89,1.89,0,0,1,.08.52c0,.55-.33.68-.47.68a1.19,1.19,0,0,1-.7-.27,2.42,2.42,0,0,0-1.35-.53.07.07,0,0,1-.06-.09c.23-.27,2.61-2.32,3.27-2.85.13-.11.26-.26.26-.38a.46.46,0,0,0-.22-.29.37.37,0,0,0-.24.14,1.63,1.63,0,0,1-.67.45,2.13,2.13,0,0,1-.63-.17,4.12,4.12,0,0,0-1.06-.33" transform="translate(-0.14 0.48)" fill="#003c71"/><path d="M229.81,5.43a.35.35,0,0,0-.27.21c-.06.13-.23.5-.28.58a.18.18,0,0,1-.09.08l-.53,0a.38.38,0,0,0-.15.27c0,.07,0,.1.07.11h.52s0,0,0,.07c-.15.47-.53,1.84-.62,2.19a2.4,2.4,0,0,0-.07.38c0,.06.1.31.3.31A2.66,2.66,0,0,0,230,8.8a.46.46,0,0,0,.09-.28s-.09-.14-.12-.11a2,2,0,0,1-.74.49c-.07,0-.09-.07,0-.34.23-.85.46-1.62.52-1.78a.12.12,0,0,1,.09-.08l.77,0s.17-.26.17-.32,0-.09-.06-.09h-.76a.08.08,0,0,1-.07-.07,4.43,4.43,0,0,0,.2-.74s-.12-.07-.23-.07" transform="translate(-0.14 0.48)" fill="#003c71"/><path d="M231.12,7.55a.33.33,0,0,0-.11.08.57.57,0,0,0-.1.28.15.15,0,0,0,.13.15c.36,0,1.06,0,1.58-.08l.12-.09a.84.84,0,0,0,.08-.32s0-.16-.1-.16c-.21,0-1.42.11-1.6.14" transform="translate(-0.14 0.48)" fill="#003c71"/><path d="M232.9,9.45c0,.08.11.12.27.12s.65,0,1.15,0,.46,0,.76,0,.24-.07.24-.13-.08-.14-.19-.16c-.53-.11-.62-.15-.48-.7.07-.33.5-1.93.64-2.47.19-.71.34-1.11.38-1.25a.11.11,0,0,0-.1-.11.7.7,0,0,0-.17.06,8.23,8.23,0,0,1-1.13.27c-.1,0-.22.08-.22.16s.14.12.22.13.32,0,.47,0,.06.1,0,.15-.07.38-.35,1.42c-.22.85-.36,1.24-.52,1.74s-.25.48-.68.56c-.18,0-.33.08-.33.19" transform="translate(-0.14 0.48)" fill="#003c71"/><path d="M238.39,10.68a6.54,6.54,0,0,0,3-5.58,6.56,6.56,0,0,0-3-5.58l-.26.3a6.6,6.6,0,0,1,2.22,5.28,6.58,6.58,0,0,1-2.22,5.28l.26.3" transform="translate(-0.14 0.48)" fill="#003c71"/><path d="M208.26,14.92H197.65a.36.36,0,0,0-.36.36.38.38,0,0,0,.36.37h10.61a.37.37,0,0,0,.36-.37.35.35,0,0,0-.36-.36" transform="translate(-0.14 0.48)"/><path d="M216.86,14.92h-10.6a.36.36,0,0,0-.37.36.38.38,0,0,0,.37.37h10.6a.37.37,0,0,0,.36-.37.35.35,0,0,0-.36-.36" transform="translate(-0.14 0.48)"/><path d="M227.06,14.92h-10.6a.36.36,0,0,0-.37.36.38.38,0,0,0,.37.37h10.6a.37.37,0,0,0,.36-.37.35.35,0,0,0-.36-.36" transform="translate(-0.14 0.48)"/><path d="M237.16,14.92H226.55a.36.36,0,0,0-.36.36.38.38,0,0,0,.36.37h10.61a.37.37,0,0,0,.36-.37.35.35,0,0,0-.36-.36" transform="translate(-0.14 0.48)"/><path d="M242,13c0,.37,1.07,1.15,1.83,1.93h-8.65a.36.36,0,0,0-.36.36.38.38,0,0,0,.36.37h8.65c-.73.73-1.83,1.52-1.83,1.9a.36.36,0,0,0,.65.23,5.73,5.73,0,0,1,3.2-2.15.36.36,0,0,0,0-.71,5.78,5.78,0,0,1-3.2-2.15.34.34,0,0,0-.28-.14A.36.36,0,0,0,242,13" transform="translate(-0.14 0.48)"/><path d="M260.53,9.62a11.1,11.1,0,0,1-1.68-.06c-.15,0-.32,0-.48-.07s-.24.16-.36.37a12.32,12.32,0,0,0-.64,1.89c0,.24,0,.48.19.48s.27-.1.43-.38a3.8,3.8,0,0,1,.76-1.07c.34-.33.72-.39,1.47-.43,1,0,1.92,0,3,0,.08,0,.08.17,0,.25-.32.37-5.51,6.2-7.66,8.33-.24.22-.13.54,0,.54.35,0,1.27-.1,2.23-.1.73,0,4.35.1,5,.1a3.06,3.06,0,0,0,1-.14,1.7,1.7,0,0,0,.46-.64A7.16,7.16,0,0,0,265,16.9c0-.19,0-.4-.19-.4s-.28.1-.51.48a4.34,4.34,0,0,1-1.3,1.46,4.15,4.15,0,0,1-1.84.31c-.51,0-2.9-.16-3.15-.23-.1,0-.1-.12,0-.19,1.36-1.49,4.8-5.35,5.93-6.51s1.58-1.61,1.7-1.72a.74.74,0,0,0,.2-.43c0-.11-.16-.19-.28-.19s-3.44.14-5,.14" transform="translate(-0.14 0.48)"/><path d="M268.27,16a.44.44,0,0,0-.38.29c-.09.18-.32.7-.39.81a.23.23,0,0,1-.13.11c-.11,0-.67,0-.75,0a.5.5,0,0,0-.2.36c0,.1,0,.15.09.16l.73,0s.05.07,0,.1c-.22.66-.75,2.58-.89,3.07a4.19,4.19,0,0,0-.09.54c0,.08.14.43.43.43a3.72,3.72,0,0,0,1.74-1.2.67.67,0,0,0,.13-.4c0-.07-.12-.19-.16-.16a2.85,2.85,0,0,1-1,.69c-.1,0-.14-.1,0-.48.33-1.18.64-2.26.73-2.5a.2.2,0,0,1,.13-.11l1.08,0a1,1,0,0,0,.23-.44c0-.07,0-.14-.08-.14h-1.06a.09.09,0,0,1-.1-.1,7.38,7.38,0,0,0,.28-1s-.17-.1-.32-.1" transform="translate(-0.14 0.48)"/><path d="M9.25,38.82V30.13a.38.38,0,0,0-.37-.37.38.38,0,0,0-.36.37v8.69a.38.38,0,0,0,.36.37.38.38,0,0,0,.37-.37" transform="translate(-0.14 0.48)"/><path d="M9.25,47.22V38.53a.38.38,0,0,0-.37-.37.38.38,0,0,0-.36.37v8.69a.38.38,0,0,0,.36.37.38.38,0,0,0,.37-.37" transform="translate(-0.14 0.48)"/><path d="M9.25,55.52V46.83a.38.38,0,0,0-.37-.37.38.38,0,0,0-.36.37v8.69a.38.38,0,0,0,.36.37.38.38,0,0,0,.37-.37" transform="translate(-0.14 0.48)"/><path d="M11.17,59.77c-.36,0-1.14,1.07-1.92,1.83v-6a.36.36,0,0,0-.37-.37.37.37,0,0,0-.36.37v6c-.73-.73-1.53-1.83-1.91-1.83a.36.36,0,0,0-.22.65A5.67,5.67,0,0,1,8.53,63.6a.38.38,0,0,0,.35.32.37.37,0,0,0,.37-.32,5.69,5.69,0,0,1,2.15-3.18.4.4,0,0,0,.14-.28.36.36,0,0,0-.37-.37" transform="translate(-0.14 0.48)"/><path d="M17.72,46.52A5,5,0,0,1,17,48.66c-.22.34-.83,1-1.2,1-.14,0-.31-.2-.4-.38a.42.42,0,0,1-.05-.22c.11-.54.51-2.14.68-2.89a.49.49,0,0,1,.18-.27,4,4,0,0,1,.87-.11.73.73,0,0,1,.66.76m.89.08a1.21,1.21,0,0,0-1.36-1.35c-.15,0-.59.07-1,.11,0,0-.09-.07-.09-.11a3.35,3.35,0,0,0,.12-.62c0-.14-.32-.34-.39-.34a.59.59,0,0,0-.28.17,3.16,3.16,0,0,0-.32,1s0,.07-.15.12-.7.27-.8.36a.92.92,0,0,0-.2.37.16.16,0,0,0,.18.09c.19-.08.56-.19.72-.24s.08.08.08.11c-.3,1.3-1,4.52-1.28,5.27-.12.35-.2.45-.8.56a.41.41,0,0,0-.29.31c0,.08.1.16.34.16s.58,0,.89,0c.56,0,1.16.07,1.19.07.27,0,.42-.12.42-.24s-.19-.19-.31-.22c-.55-.14-.58-.28-.51-.67.09-.55.2-.93.32-1.46,0,0,.09-.09.12-.08a1.68,1.68,0,0,0,.56.15,2.81,2.81,0,0,0,1.31-.68A4.45,4.45,0,0,0,18.61,46.6Z" transform="translate(-0.14 0.48)" fill="#046a38"/><path d="M23.18,52.68l.24-.3a6.6,6.6,0,0,1-2.21-5.28,6.63,6.63,0,0,1,2.21-5.28l-.24-.3a6.7,6.7,0,0,0,0,11.16" transform="translate(-0.14 0.48)" fill="#046a38"/><path d="M29.7,46.31a.68.68,0,0,0,.26-.53.55.55,0,0,0-.53-.53,1.46,1.46,0,0,0-1.08.59c-.31.33-.63.77-.88,1.09,0,0-.08,0-.1,0-.07-.21-.17-.51-.23-.72-.13-.38-.28-1-.74-1s-1,.64-1.23,1a1.35,1.35,0,0,0-.13.3c0,.13.18.3.22.23.24-.32.66-.73.83-.73s.23.2.33.52.18.58.34,1a1,1,0,0,1-.11.28c-.52.88-1,1.37-1.23,1.37a.53.53,0,0,1-.4-.37c-.05-.09-.2-.06-.24,0a1.06,1.06,0,0,0-.43.71.6.6,0,0,0,.57.55c.66,0,1.41-1.09,1.9-1.73,0,0,.14-.06.15,0s.14.43.22.65c.16.41.34,1,.86,1a1.47,1.47,0,0,0,1.27-1.24c0-.1-.08-.2-.12-.2s-.11,0-.22.18c-.28.38-.47.4-.61.4-.29,0-.5-.52-.79-1.55,0-.06.05-.2.06-.22C28.07,46.78,28.75,46,29,46s.18.13.24.28.09.18.17.18a.63.63,0,0,0,.34-.12" transform="translate(-0.14 0.48)" fill="#046a38"/><path d="M30.2,51.45c0,.08.11.12.27.12s.65,0,1.15,0,.46,0,.76,0,.24-.07.24-.13-.08-.14-.19-.16c-.53-.11-.62-.15-.48-.7.07-.33.5-1.93.64-2.47.19-.71.34-1.11.38-1.25a.11.11,0,0,0-.1-.11.7.7,0,0,0-.17.06,8.23,8.23,0,0,1-1.13.27c-.1,0-.22.08-.22.16s.14.12.22.13.32,0,.48,0,.05.1,0,.15-.08.38-.35,1.42c-.23.85-.36,1.24-.52,1.74s-.25.48-.68.56c-.18,0-.33.08-.33.19" transform="translate(-0.14 0.48)" fill="#046a38"/><path d="M36.08,41.52h-.54l0,0V52.66a0,0,0,0,0,0,0h.54a0,0,0,0,0,0,0V41.54l0,0" transform="translate(-0.14 0.48)" fill="#046a38"/><path d="M39.43,45.25a1.91,1.91,0,0,0-1.16.51,1.58,1.58,0,0,0-.58,1.13c0,.27.13.39.23.39a1.15,1.15,0,0,0,.52-.3s.1-.15.09-.18a2.89,2.89,0,0,1-.08-.5.38.38,0,0,1,.37-.39,3.81,3.81,0,0,1,.94.22,6.35,6.35,0,0,0,.79.18s0,.1,0,.13A32,32,0,0,0,38,48.68c-.54.57-.74.94-.74,1.1s.11.37.24.37a.41.41,0,0,0,.26-.23c.14-.25.39-.57.65-.57s.39.06.82.38.7.58,1.06.58a1.73,1.73,0,0,0,1-.51,1.42,1.42,0,0,0,.6-1c0-.3-.12-.64-.56-.64a.19.19,0,0,0-.13.19,1.89,1.89,0,0,1,.08.52c0,.55-.33.68-.47.68a1.19,1.19,0,0,1-.7-.27,2.42,2.42,0,0,0-1.35-.53.07.07,0,0,1-.06-.09c.23-.27,2.61-2.32,3.27-2.85.13-.11.26-.26.26-.38a.46.46,0,0,0-.22-.29.37.37,0,0,0-.24.14,1.63,1.63,0,0,1-.67.45,2.13,2.13,0,0,1-.63-.17,4.12,4.12,0,0,0-1.06-.33" transform="translate(-0.14 0.48)" fill="#046a38"/><path d="M42.6,51.45c0,.08.11.12.27.12s.65,0,1.15,0,.46,0,.76,0,.24-.07.24-.13-.08-.14-.19-.16c-.53-.11-.62-.15-.48-.7.07-.33.5-1.93.64-2.47.19-.71.34-1.11.38-1.25a.11.11,0,0,0-.1-.11.7.7,0,0,0-.17.06,8.23,8.23,0,0,1-1.13.27c-.1,0-.22.08-.22.16s.14.12.22.13.32,0,.48,0,0,.1,0,.15-.08.38-.35,1.42c-.23.85-.36,1.24-.52,1.74s-.25.48-.68.56c-.18,0-.33.08-.33.19" transform="translate(-0.14 0.48)" fill="#046a38"/><path d="M48.09,52.68a6.7,6.7,0,0,0,0-11.16l-.26.3a6.6,6.6,0,0,1,2.22,5.28,6.58,6.58,0,0,1-2.22,5.28l.26.3" transform="translate(-0.14 0.48)" fill="#046a38"/><path d="M177.15,38.82V30.13a.38.38,0,0,0-.37-.37.38.38,0,0,0-.36.37v8.69a.38.38,0,0,0,.36.37.38.38,0,0,0,.37-.37" transform="translate(-0.14 0.48)"/><path d="M177.15,47.22V38.53a.38.38,0,0,0-.37-.37.38.38,0,0,0-.36.37v8.69a.38.38,0,0,0,.36.37.38.38,0,0,0,.37-.37" transform="translate(-0.14 0.48)"/><path d="M177.15,55.52V46.83a.38.38,0,0,0-.37-.37.38.38,0,0,0-.36.37v8.69a.38.38,0,0,0,.36.37.38.38,0,0,0,.37-.37" transform="translate(-0.14 0.48)"/><path d="M179.07,59.77c-.36,0-1.14,1.07-1.92,1.83v-6a.36.36,0,0,0-.37-.37.37.37,0,0,0-.36.37v6c-.73-.73-1.53-1.83-1.91-1.83a.36.36,0,0,0-.22.65,5.67,5.67,0,0,1,2.14,3.18.38.38,0,0,0,.35.32.37.37,0,0,0,.37-.32,5.72,5.72,0,0,1,2.14-3.18.38.38,0,0,0,.15-.28.37.37,0,0,0-.37-.37" transform="translate(-0.14 0.48)"/><path d="M185.62,46.52a5,5,0,0,1-.74,2.14c-.22.34-.84,1-1.2,1-.14,0-.31-.2-.4-.38a.42.42,0,0,1-.05-.22c.11-.54.51-2.14.68-2.89a.44.44,0,0,1,.18-.27,4,4,0,0,1,.87-.11.73.73,0,0,1,.66.76m.89.08a1.21,1.21,0,0,0-1.36-1.35c-.14,0-.59.07-1,.11,0,0-.09-.07-.09-.11a3.35,3.35,0,0,0,.12-.62c0-.14-.32-.34-.39-.34a.59.59,0,0,0-.28.17,3.16,3.16,0,0,0-.32,1s0,.07-.16.12-.69.27-.79.36a.92.92,0,0,0-.2.37.16.16,0,0,0,.18.09c.19-.08.56-.19.72-.24s.08.08.08.11c-.3,1.3-1,4.52-1.28,5.27-.12.35-.2.45-.8.56a.41.41,0,0,0-.29.31c0,.08.1.16.34.16s.58,0,.89,0c.56,0,1.15.07,1.19.07.27,0,.42-.12.42-.24s-.19-.19-.31-.22c-.55-.14-.58-.28-.51-.67.09-.55.2-.93.32-1.46,0,0,.09-.09.12-.08a1.68,1.68,0,0,0,.56.15,2.85,2.85,0,0,0,1.31-.68A4.45,4.45,0,0,0,186.51,46.6Z" transform="translate(-0.14 0.48)" fill="#046a38"/><path d="M191.07,52.68l.25-.3a6.6,6.6,0,0,1-2.21-5.28,6.63,6.63,0,0,1,2.21-5.28l-.25-.3a6.71,6.71,0,0,0,0,11.16" transform="translate(-0.14 0.48)" fill="#046a38"/><path d="M197.6,46.31a.68.68,0,0,0,.26-.53.55.55,0,0,0-.53-.53,1.46,1.46,0,0,0-1.08.59c-.31.33-.63.77-.88,1.09,0,0-.08,0-.1,0-.07-.21-.17-.51-.23-.72-.13-.38-.28-1-.74-1s-1,.64-1.23,1a2.17,2.17,0,0,0-.13.3c0,.13.18.3.22.23.24-.32.66-.73.83-.73s.23.2.33.52.18.58.34,1a.85.85,0,0,1-.12.28c-.51.88-.95,1.37-1.22,1.37a.53.53,0,0,1-.4-.37c0-.09-.2-.06-.24,0a1.06,1.06,0,0,0-.43.71.59.59,0,0,0,.57.55c.66,0,1.41-1.09,1.9-1.73,0,0,.14-.06.15,0s.14.43.22.65c.16.41.34,1,.86,1a1.47,1.47,0,0,0,1.27-1.24c0-.1-.08-.2-.12-.2s-.11,0-.22.18c-.28.38-.47.4-.61.4-.29,0-.5-.52-.79-1.55,0-.06.05-.2.06-.22.43-.68,1.11-1.49,1.31-1.49s.18.13.24.28.09.18.17.18a.63.63,0,0,0,.34-.12" transform="translate(-0.14 0.48)" fill="#046a38"/><path d="M199.61,47.43a.35.35,0,0,0-.27.21c-.06.13-.23.5-.28.58a.18.18,0,0,1-.09.08l-.53,0a.38.38,0,0,0-.15.27c0,.07,0,.1.07.11h.52s0,0,0,.07c-.15.47-.53,1.84-.62,2.19a2.4,2.4,0,0,0-.07.38c0,.06.1.31.3.31a2.61,2.61,0,0,0,1.25-.86.46.46,0,0,0,.09-.28c0-.05-.09-.14-.12-.11a2,2,0,0,1-.74.49c-.07,0-.09-.07,0-.34.23-.85.46-1.62.52-1.78a.12.12,0,0,1,.09-.08l.77,0s.16-.26.16-.32,0-.09-.05-.09h-.76a.08.08,0,0,1-.07-.07,4.43,4.43,0,0,0,.2-.74s-.12-.07-.23-.07" transform="translate(-0.14 0.48)" fill="#046a38"/><path d="M200.92,49.55a.49.49,0,0,0-.12.08.7.7,0,0,0-.09.28.15.15,0,0,0,.14.15c.35,0,1.05,0,1.57-.08l.12-.09a.84.84,0,0,0,.08-.32s-.05-.16-.1-.16c-.21,0-1.42.11-1.6.14" transform="translate(-0.14 0.48)" fill="#046a38"/><path d="M202.7,51.45c0,.08.11.12.27.12s.65,0,1.15,0,.46,0,.76,0,.24-.07.24-.13-.08-.14-.19-.16c-.53-.11-.62-.15-.48-.7.07-.33.5-1.93.64-2.47.19-.71.34-1.11.38-1.25a.11.11,0,0,0-.1-.11.7.7,0,0,0-.17.06,8.23,8.23,0,0,1-1.13.27c-.1,0-.22.08-.22.16s.14.12.22.13.32,0,.47,0,.06.1,0,.15-.07.38-.35,1.42c-.22.85-.36,1.24-.52,1.74s-.25.48-.68.56c-.18,0-.33.08-.33.19" transform="translate(-0.14 0.48)" fill="#046a38"/><path d="M208.48,41.52h-.54l0,0V52.66a0,0,0,0,0,0,0h.54a0,0,0,0,0,0,0V41.54a0,0,0,0,0,0,0" transform="translate(-0.14 0.48)" fill="#046a38"/><path d="M211.93,45.25a1.91,1.91,0,0,0-1.16.51,1.58,1.58,0,0,0-.58,1.13c0,.27.13.39.23.39a1.15,1.15,0,0,0,.52-.3s.1-.15.09-.18a2.89,2.89,0,0,1-.08-.5.38.38,0,0,1,.37-.39,3.81,3.81,0,0,1,.94.22,6.35,6.35,0,0,0,.79.18s0,.1,0,.13a32,32,0,0,0-2.5,2.24c-.54.57-.74.94-.74,1.1s.11.37.24.37a.39.39,0,0,0,.26-.23c.14-.25.39-.57.65-.57s.39.06.82.38.7.58,1.06.58a1.73,1.73,0,0,0,1-.51,1.42,1.42,0,0,0,.6-1c0-.3-.12-.64-.56-.64a.19.19,0,0,0-.13.19,1.89,1.89,0,0,1,.08.52c0,.55-.33.68-.47.68a1.19,1.19,0,0,1-.7-.27,2.42,2.42,0,0,0-1.35-.53.07.07,0,0,1-.06-.09c.24-.27,2.61-2.32,3.27-2.85a.62.62,0,0,0,.25-.38.44.44,0,0,0-.21-.29.37.37,0,0,0-.24.14,1.63,1.63,0,0,1-.67.45,2.13,2.13,0,0,1-.63-.17,4.12,4.12,0,0,0-1.06-.33" transform="translate(-0.14 0.48)" fill="#046a38"/><path d="M216.61,47.43a.35.35,0,0,0-.27.21c-.06.13-.23.5-.28.58a.18.18,0,0,1-.09.08l-.53,0a.38.38,0,0,0-.15.27c0,.07,0,.1.07.11h.52s0,0,0,.07c-.15.47-.53,1.84-.62,2.19a2.4,2.4,0,0,0-.07.38c0,.06.1.31.3.31a2.61,2.61,0,0,0,1.25-.86.46.46,0,0,0,.09-.28c0-.05-.09-.14-.12-.11a2,2,0,0,1-.74.49c-.07,0-.09-.07,0-.34.23-.85.46-1.62.52-1.78a.12.12,0,0,1,.09-.08l.77,0s.16-.26.16-.32,0-.09-.05-.09h-.76a.08.08,0,0,1-.07-.07,4.43,4.43,0,0,0,.2-.74s-.12-.07-.23-.07" transform="translate(-0.14 0.48)" fill="#046a38"/><path d="M217.92,49.55a.49.49,0,0,0-.12.08.7.7,0,0,0-.09.28.15.15,0,0,0,.14.15c.35,0,1.05,0,1.57-.08l.12-.09a.84.84,0,0,0,.08-.32s-.05-.16-.1-.16c-.21,0-1.42.11-1.6.14" transform="translate(-0.14 0.48)" fill="#046a38"/><path d="M219.6,51.45c0,.08.11.12.27.12s.65,0,1.15,0,.46,0,.76,0,.24-.07.24-.13-.08-.14-.19-.16c-.53-.11-.62-.15-.48-.7.07-.33.5-1.93.64-2.47.19-.71.34-1.11.38-1.25a.11.11,0,0,0-.1-.11.7.7,0,0,0-.17.06,8.23,8.23,0,0,1-1.13.27c-.1,0-.22.08-.22.16s.14.12.22.13.32,0,.48,0,.05.1,0,.15-.08.38-.35,1.42c-.23.85-.36,1.24-.52,1.74s-.25.48-.68.56c-.18,0-.33.08-.33.19" transform="translate(-0.14 0.48)" fill="#046a38"/><path d="M225.09,52.68a6.71,6.71,0,0,0,0-11.16l-.26.3a6.6,6.6,0,0,1,2.22,5.28,6.58,6.58,0,0,1-2.22,5.28l.26.3" transform="translate(-0.14 0.48)" fill="#046a38"/><path d="M263.05,38.82V30.13a.38.38,0,0,0-.37-.37.38.38,0,0,0-.36.37v8.69a.38.38,0,0,0,.36.37.38.38,0,0,0,.37-.37" transform="translate(-0.14 0.48)"/><path d="M263.05,47.22V38.53a.38.38,0,0,0-.37-.37.38.38,0,0,0-.36.37v8.69a.38.38,0,0,0,.36.37.38.38,0,0,0,.37-.37" transform="translate(-0.14 0.48)"/><path d="M263.05,55.52V46.83a.38.38,0,0,0-.37-.37.38.38,0,0,0-.36.37v8.69a.38.38,0,0,0,.36.37.38.38,0,0,0,.37-.37" transform="translate(-0.14 0.48)"/><path d="M265,59.77c-.36,0-1.14,1.07-1.92,1.83v-6a.36.36,0,0,0-.37-.37.37.37,0,0,0-.36.37v6c-.73-.73-1.53-1.83-1.91-1.83a.36.36,0,0,0-.22.65,5.67,5.67,0,0,1,2.14,3.18.38.38,0,0,0,.35.32.37.37,0,0,0,.37-.32,5.69,5.69,0,0,1,2.15-3.18.4.4,0,0,0,.14-.28.36.36,0,0,0-.37-.37" transform="translate(-0.14 0.48)"/><path d="M271.52,46.52a5,5,0,0,1-.74,2.14c-.22.34-.83,1-1.2,1-.14,0-.31-.2-.4-.38a.42.42,0,0,1-.05-.22c.11-.54.51-2.14.68-2.89a.49.49,0,0,1,.18-.27,4,4,0,0,1,.87-.11.73.73,0,0,1,.66.76m.89.08a1.21,1.21,0,0,0-1.36-1.35c-.15,0-.59.07-1,.11,0,0-.09-.07-.09-.11a3.35,3.35,0,0,0,.12-.62c0-.14-.32-.34-.39-.34a.59.59,0,0,0-.28.17,3.16,3.16,0,0,0-.32,1s0,.07-.15.12c-.27.14-.7.27-.8.36a.92.92,0,0,0-.2.37.16.16,0,0,0,.18.09c.19-.08.56-.19.72-.24s.08.08.08.11c-.3,1.3-1,4.52-1.28,5.27-.12.35-.2.45-.8.56a.41.41,0,0,0-.29.31c0,.08.1.16.34.16s.58,0,.89,0c.56,0,1.16.07,1.19.07.27,0,.42-.12.42-.24s-.19-.19-.31-.22c-.55-.14-.58-.28-.51-.67.09-.55.2-.93.32-1.46,0,0,.09-.09.12-.08a1.74,1.74,0,0,0,.56.15,2.85,2.85,0,0,0,1.31-.68A4.45,4.45,0,0,0,272.41,46.6Z" transform="translate(-0.14 0.48)" fill="#046a38"/><path d="M277,52.68l.24-.3A6.6,6.6,0,0,1,275,47.1a6.63,6.63,0,0,1,2.21-5.28l-.24-.3a6.7,6.7,0,0,0,0,11.16" transform="translate(-0.14 0.48)" fill="#046a38"/><path d="M283.5,46.31a.68.68,0,0,0,.26-.53.55.55,0,0,0-.53-.53,1.46,1.46,0,0,0-1.08.59c-.31.33-.63.77-.88,1.09,0,0-.08,0-.1,0-.07-.21-.17-.51-.23-.72-.13-.38-.28-1-.74-1s-1,.64-1.23,1a1.35,1.35,0,0,0-.13.3c0,.13.18.3.22.23.24-.32.66-.73.83-.73s.23.2.33.52.18.58.34,1a1,1,0,0,1-.11.28c-.52.88-1,1.37-1.23,1.37a.53.53,0,0,1-.4-.37c-.05-.09-.2-.06-.24,0a1.06,1.06,0,0,0-.43.71.59.59,0,0,0,.57.55c.66,0,1.41-1.09,1.9-1.73,0,0,.14-.06.15,0s.14.43.22.65c.16.41.34,1,.86,1a1.47,1.47,0,0,0,1.27-1.24c0-.1-.08-.2-.12-.2s-.11,0-.22.18c-.28.38-.47.4-.61.4-.29,0-.5-.52-.79-1.55,0-.06.05-.2.06-.22.43-.68,1.11-1.49,1.32-1.49s.17.13.23.28.09.18.17.18a.63.63,0,0,0,.34-.12" transform="translate(-0.14 0.48)" fill="#046a38"/><path d="M285.51,47.43a.35.35,0,0,0-.27.21c-.06.13-.23.5-.28.58a.18.18,0,0,1-.09.08l-.53,0a.38.38,0,0,0-.15.27c0,.07,0,.1.07.11h.52s0,0,0,.07c-.15.47-.53,1.84-.62,2.19a2.4,2.4,0,0,0-.07.38c0,.06.1.31.3.31a2.55,2.55,0,0,0,1.24-.86.42.42,0,0,0,.1-.28c0-.05-.09-.14-.12-.11a2,2,0,0,1-.74.49c-.07,0-.09-.07,0-.34.23-.85.46-1.62.52-1.78a.12.12,0,0,1,.09-.08l.77,0s.16-.26.16-.32,0-.09-.05-.09h-.76a.08.08,0,0,1-.07-.07,5.84,5.84,0,0,0,.2-.74s-.12-.07-.23-.07" transform="translate(-0.14 0.48)" fill="#046a38"/><path d="M288.68,41.52h-.54l0,0V52.66a0,0,0,0,0,0,0h.54a0,0,0,0,0,0,0V41.54l0,0" transform="translate(-0.14 0.48)" fill="#046a38"/><path d="M292,45.25a1.89,1.89,0,0,0-1.16.51,1.58,1.58,0,0,0-.58,1.13c0,.27.13.39.23.39A1.15,1.15,0,0,0,291,47s.1-.15.09-.18a2.89,2.89,0,0,1-.08-.5.38.38,0,0,1,.37-.39,3.81,3.81,0,0,1,.94.22,6.35,6.35,0,0,0,.79.18s0,.1,0,.13a32,32,0,0,0-2.5,2.24c-.54.57-.74.94-.74,1.1s.11.37.24.37a.41.41,0,0,0,.26-.23c.14-.25.39-.57.65-.57s.39.06.82.38.7.58,1.06.58a1.73,1.73,0,0,0,1-.51,1.42,1.42,0,0,0,.6-1c0-.3-.12-.64-.56-.64a.19.19,0,0,0-.13.19,1.89,1.89,0,0,1,.08.52c0,.55-.33.68-.47.68a1.19,1.19,0,0,1-.7-.27,2.42,2.42,0,0,0-1.35-.53.07.07,0,0,1-.06-.09c.23-.27,2.61-2.32,3.27-2.85.13-.11.26-.26.26-.38a.46.46,0,0,0-.22-.29.37.37,0,0,0-.24.14,1.63,1.63,0,0,1-.67.45,2.13,2.13,0,0,1-.63-.17,4.12,4.12,0,0,0-1.06-.33" transform="translate(-0.14 0.48)" fill="#046a38"/><path d="M296.71,47.43a.35.35,0,0,0-.27.21c-.06.13-.23.5-.28.58a.18.18,0,0,1-.09.08l-.53,0a.38.38,0,0,0-.15.27c0,.07,0,.1.07.11H296s0,0,0,.07c-.16.47-.54,1.84-.63,2.19a2.4,2.4,0,0,0-.07.38c0,.06.1.31.3.31a2.66,2.66,0,0,0,1.25-.86.46.46,0,0,0,.09-.28c0-.05-.09-.14-.12-.11a2,2,0,0,1-.74.49c-.07,0-.09-.07,0-.34.23-.85.46-1.62.52-1.78a.12.12,0,0,1,.09-.08l.77,0s.16-.26.16-.32,0-.09-.05-.09h-.76a.08.08,0,0,1-.07-.07,4.43,4.43,0,0,0,.2-.74s-.12-.07-.23-.07" transform="translate(-0.14 0.48)" fill="#046a38"/><path d="M299.49,52.68a6.7,6.7,0,0,0,0-11.16l-.26.3a6.6,6.6,0,0,1,2.22,5.28,6.58,6.58,0,0,1-2.22,5.28l.26.3" transform="translate(-0.14 0.48)" fill="#046a38"/><path d="M2.27,73.64c0,.15.19.23.43.29.57.16,1.08.27,1.38.89s1,2.26,1.46,3.2a.67.67,0,0,1,0,.42,26.75,26.75,0,0,1-2.8,3.06A4.2,4.2,0,0,1,.66,82.58c-.39.08-.52.17-.52.31s.22.29.51.29.71-.05,1.67-.05c.66,0,1.16.05,1.52.05s.54-.11.54-.29-.08-.23-.3-.31c-.76-.24-.73-.56-.67-.62a32,32,0,0,1,2.45-2.72.16.16,0,0,1,.22,0,21.55,21.55,0,0,1,1,2.2c.27.62.26.92-.5,1.08-.39.07-.45.23-.45.36s.19.27.46.27.83-.05,1.37-.05,1.84.05,2,.05c.33,0,.57-.13.57-.27s-.11-.3-.41-.36a1.88,1.88,0,0,1-1.29-.7c-.18-.32-1.61-3.45-1.75-3.74a.54.54,0,0,1,.06-.41c.67-.76,1.8-2,2.44-2.66A3.92,3.92,0,0,1,11.77,74c.27-.06.5-.16.5-.35s-.16-.27-.5-.27c-.49,0-1.09.08-1.74.08s-1,0-1.33,0a.45.45,0,0,0-.41.35c0,.11.08.21.35.27.51.13.62.32.27.73-.63.76-1.46,1.62-2.1,2.31-.08.08-.17.06-.2,0a20,20,0,0,1-1.15-2.43c-.14-.34.1-.56.51-.66.21-.06.38-.09.38-.24A.37.37,0,0,0,6,73.39c-.46,0-.89,0-1.51,0s-1.5-.08-1.66-.08-.52.11-.52.3" transform="translate(-0.14 0.48)"/><path d="M11.75,85.41c0,.11.15.18.38.18s.9-.06,1.62-.06c.54,0,.63,0,1.06,0,.22,0,.33-.1.33-.18s-.11-.19-.27-.22c-.73-.16-.86-.22-.67-1,.1-.46.71-2.71.91-3.46.27-1,.47-1.57.52-1.76a.15.15,0,0,0-.13-.15,1,1,0,0,0-.25.08,10.66,10.66,0,0,1-1.58.37c-.14,0-.3.12-.3.24s.19.17.3.18.46,0,.67,0c.05,0,.08.15.05.22-.05.26-.11.53-.5,2-.31,1.19-.5,1.74-.72,2.44-.15.51-.36.68-1,.79-.25,0-.46.1-.46.26" transform="translate(-0.14 0.48)"/><path d="M167,73.64c0,.15.19.23.43.29.57.16,1.08.27,1.38.89s1.05,2.26,1.46,3.2a.85.85,0,0,1,0,.42,26.75,26.75,0,0,1-2.8,3.06,4.2,4.2,0,0,1-2.07,1.08c-.39.08-.52.17-.52.31s.22.29.51.29.71-.05,1.67-.05c.66,0,1.16.05,1.52.05s.54-.11.54-.29-.08-.23-.3-.31c-.76-.24-.73-.56-.67-.62a32,32,0,0,1,2.45-2.72.16.16,0,0,1,.22,0,21.55,21.55,0,0,1,1,2.2c.27.62.26.92-.51,1.08-.38.07-.44.23-.44.36s.19.27.46.27.83-.05,1.37-.05,1.84.05,2,.05.57-.13.57-.27-.11-.3-.41-.36a1.88,1.88,0,0,1-1.29-.7c-.18-.32-1.61-3.45-1.75-3.74a.54.54,0,0,1,.06-.41c.67-.76,1.8-2,2.43-2.66A4,4,0,0,1,176.47,74c.27-.06.5-.16.5-.35s-.16-.27-.5-.27c-.49,0-1.09.08-1.74.08s-1,0-1.33,0a.45.45,0,0,0-.41.35c0,.11.08.21.35.27.51.13.62.32.27.73-.63.76-1.46,1.62-2.1,2.31-.08.08-.17.06-.2,0a20,20,0,0,1-1.15-2.43c-.14-.34.1-.56.51-.66.21-.06.38-.09.38-.24a.37.37,0,0,0-.39-.33c-.46,0-.89,0-1.51,0s-1.5-.08-1.66-.08-.52.11-.52.3" transform="translate(-0.14 0.48)"/><path d="M178.57,79.78a.44.44,0,0,0-.38.29c-.09.18-.32.7-.39.81a.23.23,0,0,1-.13.11c-.11,0-.68,0-.75,0a.5.5,0,0,0-.2.36c0,.1,0,.15.09.16l.73,0s.05.07,0,.1c-.22.66-.75,2.58-.88,3.07a3.34,3.34,0,0,0-.1.54c0,.08.14.43.43.43a3.72,3.72,0,0,0,1.74-1.2.67.67,0,0,0,.13-.4c0-.07-.12-.19-.16-.16a2.85,2.85,0,0,1-1,.69c-.1,0-.14-.1,0-.48.33-1.18.64-2.26.73-2.5a.2.2,0,0,1,.13-.11l1.08,0a1,1,0,0,0,.23-.44c0-.07,0-.14-.08-.14h-1.06a.09.09,0,0,1-.1-.1,7.38,7.38,0,0,0,.28-1s-.16-.1-.32-.1" transform="translate(-0.14 0.48)"/><path d="M180.36,82.74a.67.67,0,0,0-.17.12.93.93,0,0,0-.13.4.21.21,0,0,0,.19.21c.5,0,1.48-.07,2.21-.11a.89.89,0,0,0,.18-.14,1.24,1.24,0,0,0,.11-.44s-.08-.22-.15-.22c-.29,0-2,.14-2.24.18" transform="translate(-0.14 0.48)"/><path d="M182.85,85.41c0,.11.16.18.38.18s.9-.06,1.62-.06c.54,0,.63,0,1.06,0,.22,0,.33-.1.33-.18s-.11-.19-.27-.22c-.73-.16-.86-.22-.67-1,.1-.46.71-2.71.91-3.46.27-1,.47-1.57.52-1.76a.15.15,0,0,0-.13-.15,1,1,0,0,0-.25.08,10.66,10.66,0,0,1-1.58.37c-.14,0-.3.12-.3.24s.19.17.3.18.46,0,.67,0c.05,0,.08.15.05.22-.05.26-.11.53-.5,2-.31,1.19-.5,1.74-.72,2.44-.15.51-.36.68-1,.79-.25,0-.46.1-.46.26" transform="translate(-0.14 0.48)"/><path d="M256.87,73.64c0,.15.19.23.43.29.57.16,1.08.27,1.38.89s1.05,2.26,1.46,3.2a.85.85,0,0,1,0,.42,26.75,26.75,0,0,1-2.8,3.06,4.2,4.2,0,0,1-2.07,1.08c-.39.08-.52.17-.52.31s.22.29.51.29.71-.05,1.67-.05c.66,0,1.16.05,1.52.05s.54-.11.54-.29-.08-.23-.3-.31c-.76-.24-.73-.56-.67-.62a32,32,0,0,1,2.45-2.72.16.16,0,0,1,.22,0,21.55,21.55,0,0,1,1,2.2c.27.62.26.92-.51,1.08-.38.07-.44.23-.44.36s.19.27.46.27.83-.05,1.37-.05,1.84.05,2,.05c.33,0,.57-.13.57-.27s-.11-.3-.41-.36a1.88,1.88,0,0,1-1.29-.7c-.18-.32-1.61-3.45-1.75-3.74a.54.54,0,0,1,.06-.41c.67-.76,1.8-2,2.44-2.66A3.92,3.92,0,0,1,266.37,74c.27-.06.5-.16.5-.35s-.16-.27-.5-.27c-.49,0-1.09.08-1.75.08s-1,0-1.32,0a.45.45,0,0,0-.41.35c0,.11.08.21.35.27.51.13.62.32.27.73-.63.76-1.46,1.62-2.1,2.31-.08.08-.17.06-.2,0a20,20,0,0,1-1.15-2.43c-.14-.34.1-.56.51-.66.21-.06.38-.09.38-.24a.37.37,0,0,0-.39-.33c-.46,0-.89,0-1.51,0s-1.5-.08-1.66-.08-.52.11-.52.3" transform="translate(-0.14 0.48)"/><path d="M268.47,79.78a.44.44,0,0,0-.38.29c-.09.18-.32.7-.39.81a.23.23,0,0,1-.13.11c-.11,0-.68,0-.75,0a.5.5,0,0,0-.2.36c0,.1,0,.15.09.16l.73,0s.05.07,0,.1c-.22.66-.75,2.58-.88,3.07a2.86,2.86,0,0,0-.09.54c0,.08.13.43.42.43a3.72,3.72,0,0,0,1.74-1.2.67.67,0,0,0,.13-.4c0-.07-.12-.19-.16-.16a2.85,2.85,0,0,1-1,.69c-.1,0-.14-.1,0-.48.33-1.18.64-2.26.73-2.5a.2.2,0,0,1,.13-.11l1.08,0a1,1,0,0,0,.23-.44c0-.07,0-.14-.08-.14h-1.06a.09.09,0,0,1-.1-.1,7.38,7.38,0,0,0,.28-1s-.17-.1-.32-.1" transform="translate(-0.14 0.48)"/><path d="M151.54,42.83Z" transform="translate(-0.14 0.48)" fill="none" stroke="#000" stroke-miterlimit="10" stroke-width="0" opacity="0"/></g><polygon points="151.36 43.98 151.36 43.98 151.36 43.98 151.36 43.98 151.36 43.98 151.36 43.98 151.36 43.98 151.36 43.98 151.36 43.98 151.36 43.98 151.36 43.98 151.36 43.98 151.36 43.98 151.36 43.98 151.36 43.98 151.36 43.98 151.36 43.98 151.36 43.98 151.36 43.98 151.36 43.98 151.36 43.98 151.36 43.98 151.36 43.98 151.36 43.98 151.36 43.98 151.36 43.98 151.36 43.98 151.36 43.98 151.36 43.98 151.36 43.98 151.36 43.98 151.36 43.98 151.36 43.98 151.36 43.98 151.36 43.98 151.36 43.98 151.36 43.98 151.36 43.98 151.36 43.98 151.36 43.98 151.36 43.98 151.36 43.98 151.36 43.98 151.36 43.98 151.36 43.98 151.36 43.98 151.36 43.98 151.36 43.98 151.36 43.98 151.36 43.98 151.36 43.98 151.36 43.98 151.36 43.98 151.36 43.98 151.36 43.98 151.36 43.98 151.36 43.98 151.36 43.98 151.36 43.98 151.36 43.98 151.36 43.98 151.36 43.98 151.36 43.98 151.36 43.98 151.36 43.98 151.36 43.98 151.36 43.98 151.36 43.98 151.36 43.98 151.36 43.98 151.36 43.98 151.36 43.98 151.36 43.98 151.36 43.98 151.36 43.98 151.36 43.98 151.36 43.98 151.36 43.98 151.36 43.98 151.36 43.98 151.36 43.98 151.36 43.98 151.36 43.98 151.36 43.98 151.36 43.98 151.36 43.98 151.36 43.98 151.36 43.98 151.36 43.98 151.36 43.98 151.36 43.98 151.36 43.98 151.36 43.98 151.36 43.98 151.36 43.98 151.36 43.98 151.36 43.98 151.36 43.98 151.36 43.98 151.36 43.98 151.36 43.98 151.36 43.98 151.36 43.98 151.36 43.98 151.36 43.98 151.36 43.98 151.36 43.98 151.36 43.98 151.36 43.98 151.36 43.98 151.36 43.98 151.36 43.98 151.36 43.98 151.36 43.98 151.36 43.98 151.36 43.98 151.36 43.98 151.36 43.98 151.36 43.98 151.36 43.98 151.36 43.98 151.36 43.98 151.36 43.98 151.36 43.98 151.36 43.98 151.36 43.98 151.36 43.98 151.36 43.98 151.36 43.98 151.36 43.98 151.36 43.98 151.36 43.98 151.36 43.98 151.36 43.98 151.36 43.98 151.36 43.98 151.36 43.98 151.36 43.98 151.36 43.98 151.36 43.98 151.36 43.98 151.36 43.98 151.36 43.98 151.36 43.98 151.36 43.98 151.36 43.98 151.36 43.98 151.36 43.98 151.36 43.98 151.36 43.98 151.36 43.98 151.36 43.98 151.36 43.98 151.36 43.98 151.36 43.98 151.36 43.98 151.36 43.98 151.36 43.98 151.36 43.98 151.36 43.98 151.36 43.98 151.36 43.98 151.36 43.98 151.36 43.98 151.36 43.98 151.36 43.98 151.36 43.98 151.36 43.98 151.36 43.98 151.36 43.98 151.36 43.98 151.36 43.98 151.36 43.98 151.36 43.98 151.36 43.98 151.36 43.98 151.36 43.98 151.36 43.98 151.36 43.98 151.36 43.98 151.36 43.98 151.36 43.98 151.36 43.98 151.36 43.98 151.36 43.98 151.36 43.98 151.36 43.98 151.36 43.98 151.36 43.98 151.36 43.98 151.36 43.98 151.36 43.98 151.36 43.98 151.36 43.98 151.36 43.98 151.36 43.98 151.36 43.98 151.36 43.98 151.36 43.98 151.36 43.98 151.36 43.98" fill="none" stroke="#000" stroke-miterlimit="10" stroke-width="0" opacity="0"/></svg>