<svg viewBox="0 0 60.867 67.898"><path fill="currentColor" d="M23.52 55.97a1.04 1.04 0 1 1-1.99.61 1.04 1.04 0 1 1 1.99-.61M16.8 22.54c1.7-.52 2.66-2.33 2.14-4.03a3.224 3.224 0 0 0-4.03-2.14c-1.7.52-2.66 2.33-2.14 4.03s2.33 2.66 4.03 2.14m-.09 4.3a2.867 2.867 0 0 0-3.58-1.9 2.86 2.86 0 1 0 1.68 5.47 2.86 2.86 0 0 0 1.9-3.57m-.6 7.69a2.5 2.5 0 0 0-4.78 1.46 2.5 2.5 0 0 0 3.12 1.66 2.51 2.51 0 0 0 1.66-3.12m.85 6.87a2.133 2.133 0 0 0-4.08 1.24 2.124 2.124 0 0 0 2.66 1.41 2.114 2.114 0 0 0 1.42-2.65m1.84 5.93a1.767 1.767 0 0 0-2.21-1.17c-.93.28-1.46 1.27-1.17 2.21.29.93 1.27 1.46 2.21 1.17.93-.28 1.46-1.27 1.17-2.21m2.34 4.73a1.4 1.4 0 0 0-1.75-.93 1.4 1.4 0 0 0-.93 1.75 1.4 1.4 0 0 0 1.75.93c.74-.22 1.16-1.01.93-1.75m-.16-37.32a3.59 3.59 0 0 0 2.38-4.49 3.59 3.59 0 0 0-4.49-2.38c-1.9.58-2.97 2.59-2.38 4.49a3.6 3.6 0 0 0 4.49 2.38m1.85-9.48a3.95 3.95 0 0 0 4.94 2.62 3.95 3.95 0 0 0 2.62-4.94A3.957 3.957 0 0 0 25.45.31a3.97 3.97 0 0 0-2.62 4.95M21.45 41.76c-.22.53-.83.78-1.36.55-.53-.22-.78-.84-.55-1.36.22-.53.83-.78 1.36-.55.52.22.77.83.55 1.36m16.33-29.93c1.64.7 3.54-.07 4.23-1.71.7-1.64-.07-3.54-1.71-4.23-1.64-.7-3.54.07-4.23 1.71s.07 3.54 1.71 4.23m-2.84 3.24a2.85 2.85 0 0 0-1.52-3.75 2.85 2.85 0 0 0-3.75 1.52 2.85 2.85 0 0 0 1.52 3.75c1.46.61 3.14-.07 3.75-1.52m-5.39 5.5c.54-1.27-.06-2.74-1.33-3.28s-2.74.05-3.28 1.33c-.54 1.27.06 2.74 1.33 3.28 1.27.53 2.74-.06 3.28-1.33m-3.77 5.81c.46-1.08-.05-2.34-1.13-2.8s-2.34.05-2.8 1.13.05 2.34 1.13 2.8c1.09.46 2.34-.05 2.8-1.13m-2.4 5.73a1.77 1.77 0 1 0-3.262-1.38 1.77 1.77 0 0 0 3.262 1.38m-1.25 5.13a1.407 1.407 0 0 0-2.59-1.1c-.3.71.03 1.54.74 1.84.72.3 1.55-.03 1.85-.74M46 8.55a3.6 3.6 0 0 0 4.71-1.9 3.6 3.6 0 0 0-1.9-4.71c-1.83-.77-3.94.08-4.71 1.9-.78 1.82.07 3.93 1.9 4.71m7.51-6.08c-.85 2.01.09 4.33 2.1 5.19 2.01.85 4.33-.09 5.19-2.1s-.09-4.33-2.1-5.19c-2.01-.85-4.33.09-5.19 2.1M35.3 66.04c.48.31.62.96.31 1.44s-.96.62-1.44.31-.62-.96-.31-1.44c.32-.48.96-.62 1.44-.31M8.66 44.76c.97-1.5.54-3.49-.95-4.46a3.24 3.24 0 0 0-4.47.95c-.97 1.49-.54 3.49.95 4.46 1.5.97 3.5.54 4.47-.95m2.7 3.35c-1.33-.86-3.1-.48-3.96.84-.86 1.33-.48 3.1.84 3.96 1.33.86 3.1.48 3.96-.84s.48-3.1-.84-3.96m4.48 6.27a2.502 2.502 0 1 0 .74 3.46 2.52 2.52 0 0 0-.74-3.46m5.07 4.72a2.132 2.132 0 1 0-2.32 3.58c.99.64 2.31.36 2.95-.63.64-.98.35-2.31-.63-2.95m5.23 3.36c-.82-.53-1.91-.3-2.45.52-.53.82-.3 1.92.52 2.45s1.92.3 2.45-.52.29-1.91-.52-2.45m4.83 2.12c-.65-.42-1.52-.24-1.94.42a1.403 1.403 0 0 0 2.35 1.53c.42-.66.24-1.53-.41-1.95M6.86 36.1a3.59 3.59 0 0 0-1.06-4.97 3.59 3.59 0 0 0-4.97 1.06 3.59 3.59 0 0 0 1.06 4.97c1.66 1.07 3.89.6 4.97-1.06m-4.68-8.46c1.83 1.19 4.28.67 5.47-1.17 1.19-1.83.67-4.28-1.17-5.47a3.955 3.955 0 1 0-4.3 6.64"/></svg>