<svg xmlns="http://www.w3.org/2000/svg" viewBox="0 0 74.492 100.25"><path fill="none" d="m27.178 38.223 29.888-27.1a5.16 5.16 0 0 1 3.265-1.515 4 4 0 0 1 .544.037 6.62 6.62 0 0 1 4.18 3.251c.612 1.507.268 2.693-1.416 4.88L36.781 49.5Z"/><path fill="currentColor" d="M60.331 10.353a4 4 0 0 1 .448.03 5.92 5.92 0 0 1 3.581 2.791c.454 1.116.314 2.023-1.315 4.14L36.779 48.341l-8.558-10.047L57.57 11.678a4.4 4.4 0 0 1 2.761-1.321m0-1.5a5.77 5.77 0 0 0-3.689 1.642l-.041.033-.039.035-29.348 26.612-1.077.977.943 1.107 8.558 10.046 1.146 1.345 1.141-1.348 26.266-31.022.023-.027.021-.028c1.575-2.046 2.328-3.622 1.516-5.62a7.3 7.3 0 0 0-4.779-3.713 5 5 0 0 0-.64-.043Z"/><path fill="currentColor" d="M51.672 43.996 7.972 2.073S6.301.044 4.535.002A4.49 4.49 0 0 0 .305 2.72C-.383 4.371.111 5.529 1.62 7.69l34.775 42.2h-.017L10.494 81.683c-1.255 1.337-2.032 3.683-1.331 5.367a4.59 4.59 0 0 0 4.287 2.841 4.09 4.09 0 0 0 3.082-1.523l35.1-32.634a7.926 7.926 0 0 0 .04-11.738"/><path fill="none" d="M69.107 99.501a4.72 4.72 0 0 1-3.193-1.319l-44.508-42.39c-3.656-3.656-3.48-8.728.424-12.632l5.569-5.211 9.486 11.158 35.517 42.75a4.44 4.44 0 0 1 1.188 4.115 4.85 4.85 0 0 1-3.22 3.338 4.4 4.4 0 0 1-1.263.191"/><path fill="currentColor" d="m27.337 39.034 8.977 10.558 35.511 42.749c.873 1.093 1.419 2.186 1.047 3.418a4.09 4.09 0 0 1-2.721 2.837 3.6 3.6 0 0 1-1.045.159 4 4 0 0 1-2.687-1.124L21.924 55.249c-3.5-3.5-2.971-8.151.436-11.558zm.124-2.17-1.147 1.077-4.976 4.656c-4.192 4.191-4.372 9.816-.473 13.714l44.521 42.4a5.49 5.49 0 0 0 3.722 1.538 5.1 5.1 0 0 0 1.483-.224 5.59 5.59 0 0 0 3.719-3.838A5.18 5.18 0 0 0 73 91.399L37.47 48.632l-8.988-10.571-1.019-1.2Z"/></svg>