<svg xmlns="http://www.w3.org/2000/svg" viewBox="0 0 62.442 55.033"><path fill="currentColor" d="M73.29 127.287q25.281 2.58 39.746 18.475c.376.414 1.422 1.583 2.22 1.293s1.774-2.102 2.2-2.733c.67-.991 2.737-4.508 7.239-5.956s10.206.163 10.413.235c.39.134.782.31.558.623-.225.314-2.13 1.07-3.425 3.538-1.385 2.64-2.2 7.748-2.4 8.874a29.2 29.2 0 0 1-5.401 12.587c-4.8 6.428-12.208 10.857-20.817 11.612a29 29 0 0 1-13.356-1.965c4.976-.487 10.998-2.841 15.836-8.478 6.104-7.113-.576-3.42-6.312-4.361-4.019-.66-7.29-2.718-12.78-9.68 1.762-.49 5.233-1.09 8.034-1.208-5.18-1.186-12.052-4.452-15.092-9.482 2.443-.845 5.659-.538 8.227-.427-9.784-5.87-14.003-9.03-14.89-12.947m23.379-6.372c.578.28 9.295 4.053 13.505 9.703 5.88 7.893 6.099 15.496 4.501 13.758-3.753-4.084-7.204-6.699-11.472-9.63-3.267-2.245-5.45-8.643-6.534-13.831m30.193 19.056a1.587 1.587 0 1 0 .276 3.162 1.587 1.587 0 0 0-.276-3.162" style="fill:currentColor;stroke-width:.264583" transform="translate(-73.29 -120.915)"/></svg>