<?xml version="1.0" encoding="UTF-8" standalone="no"?>
<svg
   viewBox="0 0 144 144"
   version="1.1"
   id="svg13"
   sodipodi:docname="linkedin-logo.svg"
   width="144"
   height="144"
   inkscape:version="1.1.1 (c3084ef, 2021-09-22)"
   xmlns:inkscape="http://www.inkscape.org/namespaces/inkscape"
   xmlns:sodipodi="http://sodipodi.sourceforge.net/DTD/sodipodi-0.dtd"
   xmlns="http://www.w3.org/2000/svg"
   xmlns:svg="http://www.w3.org/2000/svg">
  <defs
     id="defs17" />
  <sodipodi:namedview
     id="namedview15"
     pagecolor="#ffffff"
     bordercolor="#666666"
     borderopacity="1.0"
     inkscape:pageshadow="2"
     inkscape:pageopacity="0.0"
     inkscape:pagecheckerboard="0"
     showgrid="false"
     fit-margin-top="0"
     fit-margin-left="0"
     fit-margin-right="0"
     fit-margin-bottom="0"
     inkscape:zoom="3.7547493"
     inkscape:cx="127.17227"
     inkscape:cy="70.444116"
     inkscape:window-width="1312"
     inkscape:window-height="847"
     inkscape:window-x="0"
     inkscape:window-y="25"
     inkscape:window-maximized="0"
     inkscape:current-layer="svg13" />
  <path
     d="M 133.38,0.03 H 10.63 C 4.7709089,0.02997667 0.01653553,4.7709322 0,10.63 V 133.37 C 0,139.24079 4.7592131,144 10.63,144 h 122.74 c 5.87079,0 10.63,-4.75921 10.63,-10.63 V 10.63 C 144,4.7592131 139.24079,0 133.37,0 Z M 42.92,122.68 H 21.27 V 53.9 H 42.92 Z M 32.1,44.37 C 25.193648,44.505679 19.541,38.90734 19.61,32 19.484239,25.050538 25.150538,19.384239 32.1,19.51 39.045557,19.389974 44.705589,25.054542 44.58,32 44.648851,38.903335 39.002455,44.499963 32.1,44.37 Z m 90.63,78.36 H 101.08 V 85.17 c 0,-11.09 -4.71,-14.51 -10.78,-14.51 -6.43,0 -12.73,4.84 -12.73,14.78 v 37.29 H 55.93 V 54 h 20.82 v 9.53 H 77 C 79.12,59.25 86.43,52 97.6,52 c 12.08,0 25.13,7.17 25.13,28.17 z"
     fill="#231f20"
     data-name="Layer 1"
     id="path9"
     sodipodi:nodetypes="cccsssssccccccccccccccsssccccccssc" />
</svg>
