<svg xmlns="http://www.w3.org/2000/svg" width="144" height="144"><path fill="#231f20" d="M133.38.03H10.63C4.77.03.017 4.77 0 10.63v122.74C0 139.24 4.76 144 10.63 144h122.74c5.87 0 10.63-4.76 10.63-10.63V10.63C144 4.76 139.24 0 133.37 0ZM42.92 122.68H21.27V53.9h21.65ZM32.1 44.37c-6.906.136-12.559-5.463-12.49-12.37-.126-6.95 5.54-12.616 12.49-12.49 6.946-.12 12.606 5.545 12.48 12.49.069 6.903-5.578 12.5-12.48 12.37m90.63 78.36h-21.65V85.17c0-11.09-4.71-14.51-10.78-14.51-6.43 0-12.73 4.84-12.73 14.78v37.29H55.93V54h20.82v9.53H77C79.12 59.25 86.43 52 97.6 52c12.08 0 25.13 7.17 25.13 28.17z" data-name="Layer 1"/></svg>