<svg xmlns="http://www.w3.org/2000/svg" viewBox="0 0 76.103 129.607"><path fill="currentColor" d="M59.045 105.76c-10.6.272-12.65-7.29-12.741-12.781V54.89h24.703V32.813H46.403V0H27.005c-.318 0-.874.275-.952.97C24.915 11.074 20.081 28.812 0 35.897V54.89h15.286v40.099c0 14.499 9.042 35.094 37.881 34.61 9.732-.161 20.543-4.152 22.936-7.591l-6.369-18.483c-2.465 1.14-7.17 2.14-10.689 2.23z"/><path fill="currentColor" d="M59.045 105.76c-10.6.272-12.65-7.29-12.741-12.781V54.89h24.703V32.813H46.403V0H27.005c-.318 0-.874.275-.952.97C24.915 11.074 20.081 28.812 0 35.897V54.89h15.286v40.099c0 14.499 9.042 35.094 37.881 34.61 9.732-.161 20.543-4.152 22.936-7.591l-6.369-18.483c-2.465 1.14-7.17 2.14-10.689 2.23z"/></svg>