<svg xmlns="http://www.w3.org/2000/svg" viewBox="0 0 64.78 55.03"><defs><style>.cls-1{fill:#7f7c9d;}.cls-2{fill:#ac2338;}.cls-3{fill:#3f84c5;}.cls-4{fill:#004583;}.cls-5{fill:#ea8c1c;}</style></defs><title>bibsAsset 1</title><g id="Layer_2" data-name="Layer 2"><g id="Layer_1-2" data-name="Layer 1"><path class="cls-1" d="M42.78,28.29a3.3,3.3,0,1,1-3.54-3,3.3,3.3,0,0,1,3.54,3"/><path class="cls-2" d="M43.89,24.28a31.79,31.79,0,0,0,1.85,4.6,25.64,25.64,0,0,1,19-2.51,24.19,24.19,0,0,0-3.81-11.11,25.16,25.16,0,0,0-1.83-2.53,25.67,25.67,0,0,1-15.2,11.55"/><path class="cls-2" d="M56.53,27.59a23.5,23.5,0,0,0-9.87,3,31.47,31.47,0,0,0,10.1,10.55,11.88,11.88,0,0,0,2.08-1c3.8-2.42,5.81-6.77,5.94-11.71a23.32,23.32,0,0,0-8.25-.81"/><path class="cls-3" d="M33.69,29.41a32.76,32.76,0,0,0,.91-4.34,25.66,25.66,0,0,1-22.77-21,23.39,23.39,0,0,0-9.4,8.71c-6,11.11,1,17.5,1,17.5a10.21,10.21,0,0,0,6.28,3.3l.28,0a23.3,23.3,0,0,1,23.71-4.19"/><path class="cls-3" d="M34.82,23.14a34.3,34.3,0,0,0,0-5.17A32.57,32.57,0,0,0,27.72,0,37,37,0,0,0,13.66,3.17a23.73,23.73,0,0,0,21.16,20"/><path class="cls-4" d="M45,31.64a23,23,0,0,0-3.44,2.86,23.21,23.21,0,0,1,6.69,12.94c2.73-.54,5.5-1.93,6.53-5.26A33,33,0,0,1,45,31.64"/><path class="cls-1" d="M34.89,32.09a34.9,34.9,0,0,1-6.12,10.68,7.51,7.51,0,0,0,4.36,3.75,25.64,25.64,0,0,1,5.65-11.88,20.87,20.87,0,0,0-3.89-2.55"/><path class="cls-4" d="M40.24,35.94a23.72,23.72,0,0,0-5.35,11.92l4.16,6.41a1.73,1.73,0,0,0,1.53.76h.89s.47,0,.47-.6h0l-.51-4.31-.25-1.49s-.3-.87.46-1a41.35,41.35,0,0,0,4.67.06,21.25,21.25,0,0,0-6.07-11.76"/><path class="cls-1" d="M23.65,29.87A21.1,21.1,0,0,0,12,34.44a9.7,9.7,0,0,0,1.59,3.94A9.21,9.21,0,0,0,18,42.11a12,12,0,0,0,3.58,1,11.47,11.47,0,0,0,4.51-.32,32.63,32.63,0,0,0,7-11.53,21.24,21.24,0,0,0-9.44-1.42"/><path class="cls-5" d="M36.78,23.24q1,0,2.13-.06c.87-.07,1.71-.19,2.54-.34a33.16,33.16,0,0,1-.85-5.32A32.81,32.81,0,0,1,43.05,2.25,43.23,43.23,0,0,0,30.17,0a34.53,34.53,0,0,1,6.61,17.82,35,35,0,0,1,0,5.42"/><path class="cls-5" d="M44.89,2.91a31.09,31.09,0,0,0-2.34,14.46,32,32,0,0,0,.81,5A23.66,23.66,0,0,0,57.72,11.21a35.61,35.61,0,0,0-12.83-8.3"/></g></g></svg>