<svg xmlns="http://www.w3.org/2000/svg" viewBox="0 0 256 223.5"><defs><style>.cls-1{fill:#0058aa;}.cls-2{fill:#009d4d;}.cls-3{fill:#c3252d;}</style></defs><title>kobeAsset 1</title><g id="Layer_2" data-name="Layer 2"><g id="svgRoot"><g id="g7"><path id="path9" class="cls-1" d="M156.22,0A105.48,105.48,0,1,1,41.49,157.39,112.17,112.17,0,1,0,156.22,0"/><path id="path11" class="cls-2" d="M131.48,3.8a98.77,98.77,0,0,0-95.68,123,91,91,0,0,1-.77-12,92,92,0,1,1,154.24,67.6A98.7,98.7,0,0,0,131.48,3.8"/><path id="path13" class="cls-3" d="M0,102.53c11.86,0,21.38,2.1,25.49,14.3,3.46,10.29,2.1,17.39,13.19,21.1,0,0-22.65,2.47-27-12.36C8.22,113.19,8.8,107.23,0,102.53"/><path id="path15" class="cls-3" d="M102.44,103.27c-23.23,0-35.65,4.39-41.89,16.37-7.42,14.28-12.08,19.84-33.8,24.47,0,0,36.86,5.25,46.87-14.52,7-14,10.47-20.91,28.82-26.32"/><path id="path17" class="cls-3" d="M0,189.21c11.86,0,21.38-2.16,25.49-14.52,3.46-10.19,2.1-17.3,13.19-21.31,0,0-22.65-2.16-27,12.66C8.22,178.4,8.8,184.27,0,189.21"/><path id="path19" class="cls-3" d="M102.44,188.29c-23.23,0-35.65-4.33-41.89-16.38-7.42-14.21-12.08-19.77-33.8-24.4,0,0,36.86-5.56,46.87,14.52,7,13.9,10.47,21,28.82,26.26"/></g></g></g></svg>