<svg xmlns="http://www.w3.org/2000/svg" viewBox="0 0 155.37 144"><defs><style>.cls-1{fill:#231f20;}</style></defs><title>in2Asset 2</title><g id="Layer_2" data-name="Layer 2"><g id="Layer_1-2" data-name="Layer 1"><path class="cls-1" d="M151.26,117a4.11,4.11,0,1,0,4.11,4.11A4.07,4.07,0,0,0,151.26,117Zm0,7.61a3.5,3.5,0,1,1,3.5-3.5A3.46,3.46,0,0,1,151.26,124.6Zm.9-3.09a1.24,1.24,0,0,0,.93-1.22c0-.78-.53-1.24-1.42-1.24h-2v4.11h.71v-1.57h.91l1.1,1.57h.88l-1.16-1.63Zm-1.78-.49v-1.34h1.18c.51,0,.8.24.8.65s-.3.69-.8.69Zm-17-121H10.63A10.63,10.63,0,0,0,0,10.63V133.37A10.63,10.63,0,0,0,10.63,144H133.37A10.63,10.63,0,0,0,144,133.37V10.63A10.63,10.63,0,0,0,133.37,0ZM42.92,122.68H21.27V53.9H42.92ZM32.1,44.37A12.25,12.25,0,0,1,19.61,32,12.27,12.27,0,0,1,32.1,19.51,12.27,12.27,0,0,1,44.58,32,12.25,12.25,0,0,1,32.1,44.37Zm90.63,78.36H101.08V85.17c0-11.09-4.71-14.51-10.78-14.51-6.43,0-12.73,4.84-12.73,14.78v37.29H55.93V54H76.75v9.53H77C79.12,59.25,86.43,52,97.6,52c12.08,0,25.13,7.17,25.13,28.17Z"/></g></g></svg>