<svg xmlns="http://www.w3.org/2000/svg" viewBox="0 0 256 256"><defs><style>.cls-1{fill:#fff;}</style></defs><title>orcidAsset 2</title><g id="Layer_2" data-name="Layer 2"><g id="Layer_1-2" data-name="Layer 1"><path d="M256,128A128,128,0,1,1,128,0,128,128,0,0,1,256,128Z"/><path class="cls-1" d="M86.3,186.2H70.9V79.1H86.3V186.2Z"/><path class="cls-1" d="M108.9,79.1h41.6c39.6,0,57,28.3,57,53.6,0,27.5-21.5,53.6-56.8,53.6H108.9Zm15.4,93.3h24.5c34.9,0,42.9-26.5,42.9-39.7C191.7,111.2,178,93,148,93H124.3v79.4Z"/><path class="cls-1" d="M88.7,56.8A10.1,10.1,0,1,1,78.6,46.7,10.14,10.14,0,0,1,88.7,56.8Z"/></g></g></svg>