<svg xmlns="http://www.w3.org/2000/svg" xmlns:xlink="http://www.w3.org/1999/xlink" viewBox="0 0 64.8 64"><defs><style>.cls-1{fill:none;}.cls-2{clip-path:url(#clip-path);}.cls-3{fill:#d5a619;}</style><clipPath id="clip-path" transform="translate(0 0)"><rect class="cls-1" width="64.8" height="64"/></clipPath></defs><title>purdue3Asset 1</title><g id="Layer_2" data-name="Layer 2"><g id="Layer_1-2" data-name="Layer 1"><g class="cls-2"><path class="cls-3" d="M59.69,24.49a2.73,2.73,0,0,0-.82,1.59,9.34,9.34,0,0,0,.68,4.73c.36.18.77.55,1.18.37-.32-.82-.95-1.5-1.23-2.32a2.09,2.09,0,0,1,.5-2.1c.32-.14.64-.5,1-.32a28,28,0,0,1,.6,3.92c.22.45-.09,1.23.5,1.45.45-.18.13-.72.27-1,.37.45.87,1,1.5.82,1.28-.87.91-2.6.78-3.92a4.7,4.7,0,0,0-2.1-3.28,3,3,0,0,0-2.86.1M63.37,27a1.82,1.82,0,0,1,.73,1.32c.05.5,0,1.14-.68,1.18-1-.13-1.46-1.36-1.73-2.18,0-.32-.27-.59,0-1a1.72,1.72,0,0,1,1.73.64" transform="translate(0 0)"/><path class="cls-3" d="M59.69,33a2.6,2.6,0,0,0-.55,1.73c.23.64,1,.23,1.41.73.18,1.87-1.91,2.64-3,3.87A7.89,7.89,0,0,0,57,42.15h.14a10.28,10.28,0,0,1,2.32-2.42c.27-.18.54-.59.86-.36a4.27,4.27,0,0,0,.77,1.91,1.87,1.87,0,0,0,1.19.55c.59.09,1-.46,1.36-.91a12.12,12.12,0,0,0,.55-4.51L64.6,36c0-.6.41-1.19.05-1.73a32.4,32.4,0,0,1-5-1.19m3.45,6.56a2.1,2.1,0,0,1-.91.09,3.41,3.41,0,0,1-1.18-3.33c.14-.18-.09-.68.32-.68a3,3,0,0,1,2.09,1.69c.09.72.32,1.68-.32,2.23" transform="translate(0 0)"/></g><path class="cls-3" d="M59.55,16.34a6.54,6.54,0,0,0-1.78-.68,2.42,2.42,0,0,0-2.09.59,3,3,0,0,0-.41,1.95,7.51,7.51,0,0,0,4,5,3.4,3.4,0,0,0,2.6-.45,2.22,2.22,0,0,0,.77-2,1.48,1.48,0,0,0-1-1.14c-.36.05,0,.55-.13.78a1.56,1.56,0,0,1-.73.77,3.31,3.31,0,0,1-3.05-.27,3,3,0,0,1-1.5-2.19c0-.5.5-.77.77-1a4.13,4.13,0,0,1,3.78.32c.18,0,.23-.09.27-.18a15.09,15.09,0,0,0-1.36-2.69l-.19-.09c-.18,0-.27.14-.32.23,0,.36.46.63.37,1" transform="translate(0 0)"/><path class="cls-3" d="M61.05,44.14c-1.91-.54-2.18,2-3.37,3a.93.93,0,0,1-.86.09c-.5-.14-.46-.73-.64-1.09A3.18,3.18,0,0,1,57,44.69c.32-.18.59.05.91.09.64,0,.77-1,1-1.45,0-.32-.27-.37-.59-.41-1-.09-1.64,1.13-2.23,1.86-.5,1.28-1.68,2.78-.82,4.1.27.27.64.68,1,.64,1.5-.05,1.91-1.73,2.68-2.73a.93.93,0,0,1,.91-.37,1.08,1.08,0,0,1,.6.91A1.37,1.37,0,0,1,60,48.52a1.3,1.3,0,0,1-1.09.13,1.8,1.8,0,0,0-.73,1.64c.32.23.69,0,1,0,1.69-1.18,2.14-3.09,2.51-5a1.73,1.73,0,0,0-.64-1.14" transform="translate(0 0)"/><path class="cls-3" d="M53.59,15.7l.23.09c.9-.54,1.54-1.45,2.45-2.09.46-.46,1.23-.68,1.55-1.23a3.3,3.3,0,0,0-1-1.32.34.34,0,0,0-.5-.18c-1,1.41-2.27,2.09-3.55,3.32-.13.59.59,1,.87,1.41" transform="translate(0 0)"/><path class="cls-3" d="M53.81,49.38c-.18-.14-.36-.27-.54-.14-.27.55-1.09.82-1,1.51A28.46,28.46,0,0,1,56,54c.64.28.82-.59,1.23-.86.09-.32.5-.46.41-.82-1.6-.23-2.69-1.91-3.83-3" transform="translate(0 0)"/><path class="cls-3" d="M52.72,55.43A5.41,5.41,0,0,0,50.49,53c-1.41-.55-2.59.64-3.5,1.64.09.32,0,.77.41.86.27-.45.27-1,.68-1.41a1,1,0,0,1,.78-.13,6.14,6.14,0,0,1,2.45,3.32c-.45.64-1.5.77-1.55,1.68,0,.09.1.37.28.28l1.41-1.19c.32-.18.54.23.77.46.64.13,1.14-.5,1.64-.91.32-.32-.14-.55-.27-.78l-.14-.36c.37-.46,1.23-.91,1-1.55-.64-.23-1.1,1.32-1.69.5" transform="translate(0 0)"/><path class="cls-3" d="M44.94,8.42c.41.32.82.82,1.32.77,1.18-1.27,2.55-2.54,4.23-2.32.87.23,2,.87,2.1,1.87a1.36,1.36,0,0,1-.32,1.14c-1.05,1.13-2.92,1.09-4.19.68v.18c1.27.73,2.05,2.14,3.51,2.23.4-.5-.5-.45-.64-.86a4.32,4.32,0,0,0,2.27-.55,2,2,0,0,0,1.05-2.09c-.64-2-2.82-3.28-4.69-3.78l-.18-.55c-.54-.27-1.09-1.13-1.68-.63a10.93,10.93,0,0,1-2.6,3.18c-.13.18-.45.5-.18.73" transform="translate(0 0)"/><path class="cls-3" d="M52.86,30.45a1.75,1.75,0,0,0-.55.59,1.77,1.77,0,0,1-1.59.45c-2.41-.45-4.92-1-7.37-1.5-.91,0-1.73-.41-2.51.09-.36.78-1.32,1.32-1.18,2.19.59.09.91-.87,1.59-.69,3.14.6,6.7,1.24,9.93,1.69,1.41-.14,1.27-1.69,1.82-2.59Z" transform="translate(0 0)"/><path class="cls-3" d="M50.9,39.55a8.31,8.31,0,0,0,1.19-2,.25.25,0,0,0-.28-.18c-.36.45-.86,1-1.5.72-2.36-.63-4.51-2.18-7-2.59-.46,0-.78.27-1.14.55-.32.59-1,1-1.14,1.63.41.64.73-.45,1.19-.36,2.45.55,4.86,1.68,7.32,2.37a2.24,2.24,0,0,0,1.32-.14" transform="translate(0 0)"/><path class="cls-3" d="M49,26.49c.72-.32.77-1.28,1.09-1.87.09-.27.32-.86-.09-.95-.41.32-.55.95-1.14,1.09a39.42,39.42,0,0,1-4.64-.5c-1.46-.18-3-.73-4.28.09-.5.77-1.32,1.5-1.23,2.41.59.09.55-.59,1.09-.68,3.1-.09,6.19.64,9.2.41" transform="translate(0 0)"/><path class="cls-3" d="M47.85,44.51c-1.36-1-2.27-2.14-3.68-3.28L43.44,41c-1,0-1.46,1-2.23,1.45l-.05.28c.46.5.87-.41,1.41-.09,1.28,1,2.73,2.09,4,3.23a1.8,1.8,0,0,0,1.27-.05,3.69,3.69,0,0,0,1.46-1.18c-.36-.37-1,.18-1.46-.14" transform="translate(0 0)"/><path class="cls-3" d="M46.44,60.53a4,4,0,0,0,.78-2.78A2.25,2.25,0,0,0,45.8,56.3c-1.68-.55-2.95.54-4.27,1.23-.55.22-.69.91-1.23,1a2,2,0,0,1-.46-1.19,1.41,1.41,0,0,1,.73-1.18c.82-.32,1.82-1.09,2.69-.32a1.67,1.67,0,0,0,1.45-.77c-.59-.73-1.64-.18-2.41-.14a6.92,6.92,0,0,0-3.55,2,3.38,3.38,0,0,0,.18,3,13.71,13.71,0,0,0,.91,2.64c.23.41.09,1,.64,1.23.5-.14,1.23-.19,1.37-.78-.73-1.59-1-3.68.31-5.14a2.46,2.46,0,0,1,2.23-.5,2.55,2.55,0,0,1,1,1.37A4.21,4.21,0,0,1,44,61.94c-.05.14-.09.28,0,.41,1.09-.36,2-.86,3.09-1.32a.67.67,0,0,0,.46-.73c-.41-.27-.82.37-1.19.23" transform="translate(0 0)"/><path class="cls-3" d="M41.62,6.74c.45,0,.27.5.54.68.55.14,1.05.45,1.64.18l.78-2.77a19.46,19.46,0,0,0,.63-1.92c-.13-.27-.45-.22-.68-.36-1.5-.77-1.09,1.27-1.78,1.82a3.39,3.39,0,0,1-2.91,1.68,1.68,1.68,0,0,1-1.63-.77,1.85,1.85,0,0,1,.13-1.64,3.45,3.45,0,0,1,3-1.59c.14-.09.23-.23.14-.37A17.37,17.37,0,0,0,39.16.87c-.45-.05-1-.41-1.46-.1-.18.55.6.5.82.73a4.58,4.58,0,0,0-2,1.09,2.33,2.33,0,0,0-.18,2.64c1.32,1.41,3.41,1.69,5.28,1.51" transform="translate(0 0)"/><g class="cls-2"><path class="cls-3" d="M32.06,14.47c-.13-.36-.23-1-.68-.91a11.25,11.25,0,0,1-2.46,2.23c-2.1,1.32-4.92.5-7,.82l-.64.23c-1,1-1.87,2.18-3.14,2.69-1.64.31-3.87-.37-5,1.22a20.42,20.42,0,0,0-2.69,5.15c.09.13.28.09.32.13a4.18,4.18,0,0,1,1.78-1L18.91,25,20,24.76a5.14,5.14,0,0,0,1.5-1.87c-.28-.45-.55.23-.87.23l-6.6.05A5.73,5.73,0,0,0,12,24a1.83,1.83,0,0,1,.23-.64c.86-2,3.27-1.14,4.82-1.5s1.91-2,3.19-2.64c1.91-.6,4.14-.32,6.05-.32,1.64-.14,2.5-1.73,3.6-2.73a.34.34,0,0,1,.59,0c1.09,1.64,0,3.46-.64,5-.09.28-.45.64-.14.91,1.19-.41,2.37.28,3.42-.63a11.34,11.34,0,0,0,1.23-2.69c-.5-.14-.55.68-1.05.91a3,3,0,0,1-1.78-.13,8.79,8.79,0,0,0,.55-5.06" transform="translate(0 0)"/><path class="cls-3" d="M25.92,5.83a10.37,10.37,0,0,0,5.14-.46c.23-.32.59-.77.5-1.23a6.7,6.7,0,0,1-2.82,1.14A1.57,1.57,0,0,1,27.1,4.6c-.05-.23-.32-.41-.14-.64,1.23-.55,2.64-.36,3.92-.68.45-.09,1.18.09,1.27-.55-.23-.45-.68,0-.91-.27C31.7,2,32.29,1.37,32,.73A1.5,1.5,0,0,0,30.79.05,8.68,8.68,0,0,0,26,1a3.89,3.89,0,0,0-1.27,2.5,2.4,2.4,0,0,0,1.23,2.37m1.59-4.46A2.12,2.12,0,0,1,29.06.68a1,1,0,0,1,.77.55,1.24,1.24,0,0,1-.41,1.09,4.58,4.58,0,0,1-2.6,1,2.22,2.22,0,0,1,.69-1.91" transform="translate(0 0)"/></g><path class="cls-3" d="M16.31,5.6C16,6.42,15.5,7.51,16,8.37A2.52,2.52,0,0,0,18.41,9.6c1.32-.5,2.82-.91,3.73-2.23.41-.22.54.23.91.09s1.41-.18,1.41-1a12.32,12.32,0,0,1-1.55-3.23C22.6,2.87,23.05,2,22.23,2c-.46.27-1.18.36-1.27,1a4.88,4.88,0,0,1,.41,3.73c-.41.77-1,1.78-1.87,1.91a1.68,1.68,0,0,1-1.37-.68A2.72,2.72,0,0,1,18,5.23c.14-.54.78-.81.87-1.36a.23.23,0,0,0-.28-.23A19.8,19.8,0,0,0,15.5,5.1l-.1.41c.28.45.55-.09.91.09" transform="translate(0 0)"/><g class="cls-2"><path class="cls-3" d="M19.59,35.18c.14.09.27,0,.37-.13.31-.69.54-1.42.9-2.1a10.38,10.38,0,0,0,1-3.78,4.42,4.42,0,0,0-1.64-3,4.51,4.51,0,0,0-4.09-.41c-1.14.41-1.92,1.37-3.1,1.64a3.78,3.78,0,0,0-1.77,2.09l.09.19c.54.13.68-.92,1.27-.78,0,.5-.64.87-.5,1.37.23.18.41-.05.64-.19.23-.54.86-.95,1.23-1.54.22-.37.22-.82.64-1.1a5,5,0,0,1,3-.5,3.93,3.93,0,0,1,2.74,2.32c.81,1.6-.32,3.19-.6,4.74a2.22,2.22,0,0,0-.18,1.18" transform="translate(0 0)"/><path class="cls-3" d="M38.16,35.64c-.68-3-2.14-5.69-2.28-8.79a12.48,12.48,0,0,1,1.32-7A1.34,1.34,0,0,1,38.34,19c1.91,0,4.23,0,6-.09,1-.32,1.19-1.41,1.51-2.23,0-.37.36-.78,0-1.14-.55,0-.36.64-.73.91a1.44,1.44,0,0,1-1.27.32c-1.87.23-4.19-.73-6,.45a21.76,21.76,0,0,0-3.42,9.24,13.09,13.09,0,0,0,0,4.19c0,.73.55,1.36.41,2.09a93.44,93.44,0,0,1-14.75,3.42c-1.54.36-2.68,1.86-4.09,2.55-3.73,2.86-7.88,5.05-11.56,7.73,0,1.32,1,2.46,1.64,3.6,2.73,4,6.82,7.32,10.87,9.92,4.24,1.82,8.38,3.73,13.11,4,.68,0,1.78.36,2.18-.46,1.28-2.27,3-4.46,3.92-6.91.36-1.46,1.32-2.74,1.5-4.28a35.31,35.31,0,0,0,.32-16.61M19.09,56.25A9.23,9.23,0,0,1,18.86,59a18.84,18.84,0,0,1-5-2.87,31.66,31.66,0,0,1-7.79-8.78L6.35,47c4.14-2.78,8.42-5.19,12.47-7.92l.13.18c.14,4.69.32,8.74.14,13.29.09,1.23,0,2.55,0,3.73m16.57-.36L34.2,59.07a9.22,9.22,0,0,1-2.32,2.83,36.12,36.12,0,0,1-10.79-2.1l-.18-.41c0-4.41-.18-8.14-.05-12.51,0-2.23.05-4.6.1-6.92,1.63,1,3.32,2.41,5,3.5,3.5,2.51,6.69,5.19,10.28,7.79,1,1.5-.13,3.18-.54,4.64m1.5-6.33-.28,0C31.61,45.69,26.55,42.05,21.5,38l.23-.18c3-.82,5.87-1.5,8.87-2.18l5.06-1.14c.45.14.45.55.68.86C37.2,38.19,37.2,41,37.7,44a18.58,18.58,0,0,1-.54,5.55" transform="translate(0 0)"/><path class="cls-3" d="M6.21,23.76h.32c.5-.32.64-.91.91-1.37-.14-.59-1-.5-1.09-1.09.59-1.23,1.91-1.41,2.86-2.09,1.14-1.19,1.41-2.73,2.51-3.87C13.63,14,16,12.47,15.86,9.79A2.5,2.5,0,0,0,14.13,7.6,2.57,2.57,0,0,0,12,7.92a10.77,10.77,0,0,0-3.14,3.41l-.64.09c-.32.32-.86.73-1,1.23A18.49,18.49,0,0,0,9,14.47c.41.73,1.27,1.23,1.32,2.14-.5.87-1.6.91-2.37,1.46l-.14-.14c0-.82.14-1.5-.31-2.18A1.42,1.42,0,0,0,6,15.16c-1.36.45-1.77,1.95-2.32,3.09-.18.64-.32,1.46-1.09,1.64-.09.5-.59.91-.32,1.41a21,21,0,0,1,4,2.46m4.32-13.43c.41-.59.87-1.27,1.64-1.18a1.93,1.93,0,0,1,1.46.59,3.15,3.15,0,0,1-.37,3.82,2.31,2.31,0,0,1-2.09.41,3.65,3.65,0,0,1-.64-3.64M5.3,17a1.21,1.21,0,0,1,1.14.77,3.35,3.35,0,0,1-.46,3L5.75,21c-.86-.23-1.22-1.23-1.45-2a2.15,2.15,0,0,1,1-2" transform="translate(0 0)"/><path class="cls-3" d="M.84,31.49A3.75,3.75,0,0,0,3,33.27a2,2,0,0,0,1.78-.55c1.23-1.45,1-3.82.73-5.59,0-.19.22-.23.36-.28.5-.45.18-1.14.41-1.77-.5-.46-1.32-.23-2-.32-1.14-.09-2.1-.5-3.19-.55a2.05,2.05,0,0,0,0,1.87,7.59,7.59,0,0,1,2.68,1c.69,1,1.59,2.05,1.09,3.28-.36.45-.68.91-1.32.82a2.77,2.77,0,0,1-2.27-1.64c-.27-.41-.14-1-.68-1.14C.16,29,.34,29.77.11,30.49a4,4,0,0,0,0,1.78c.64.27.32-.64.73-.78" transform="translate(0 0)"/><path class="cls-3" d="M9.21,39.73c-.77-.18-1.63.37-2.36.28l-.23-.19c-.27-2-.64-4.32-2.82-5.23a2.78,2.78,0,0,0-2.69.55c-1.27,1.68-.36,4,.18,5.73l0,.27a1.94,1.94,0,0,0,.64,1.69c2.32-.41,4.73-.91,7.19-1.14.73-.36.32-1.37.13-2m-3.82.41a3.2,3.2,0,0,1-3.23-.36,2.24,2.24,0,0,1-.87-1.87c0-.54.46-.86.82-1.18a2.86,2.86,0,0,1,2.69.32,2.51,2.51,0,0,1,.59,3.09" transform="translate(0 0)"/></g><path class="cls-3" d="M59.15,57a1.32,1.32,0,1,0,1.31,1.32A1.32,1.32,0,0,0,59.15,57m0,2.36a1,1,0,1,1,0-2.07,1,1,0,0,1,0,2.07" transform="translate(0 0)"/><path class="cls-3" d="M59.69,58.05a.45.45,0,0,0-.45-.45H58.6v1.51h.29v-.62h.2l.29.62h.31l-.3-.64a.46.46,0,0,0,.3-.42m-.45.16h-.35v-.33h.35a.18.18,0,0,1,.17.17.17.17,0,0,1-.17.16" transform="translate(0 0)"/></g></g></svg>