<?xml version="1.0" encoding="utf-8"?>
<!-- Generator: Adobe Illustrator 24.1.0, SVG Export Plug-In . SVG Version: 6.00 Build 0)  -->
<svg version="1.1" id="Layer_1" xmlns="http://www.w3.org/2000/svg" xmlns:xlink="http://www.w3.org/1999/xlink" x="0px" y="0px"
	 viewBox="0 0 212.2 212.2" style="enable-background:new 0 0 212.2 212.2;" xml:space="preserve">
<style type="text/css">
	.st0{fill:#231F20;}
	.st1{fill:#6A737B;}
	.st2{fill:#E31837;}
	.st3{fill-rule:evenodd;clip-rule:evenodd;fill:#6A737B;}
	.st4{fill:none;}
</style>
<path class="st0" d="M145.9,30.1c0.4,0.2,2.6,1.4,3.1,1.7c0.7,0.3,1.3,0.9,1.8,1.5c0.5,1,0.4,2.2-0.3,3.1c-0.4,0.7-1,1.3-1.8,1.6
	c-0.4,0.1-0.8,0.2-1.2,0.1l-0.2,1.7c-0.1,1.2-0.2,2.4-0.3,3.6l-0.1,0.1c-1.1-0.6-1.4-0.8-2.4-1.2l-0.1-0.1c0.1-0.7,0.1-0.9,0.6-3.6
	l0.1-1l-0.5-0.3c-0.7,1.2-1.4,2.5-2.1,3.8h-0.1c-1-0.6-1.2-0.7-2.2-1.2v-0.1c1-1.7,2-3.3,2.6-4.3s1.1-1.9,1.6-2.8
	S145.4,30.9,145.9,30.1L145.9,30.1z M146.4,36.1c0.7,0.2,1.5-0.2,1.7-0.9c0.2-0.3,0.3-0.6,0.3-1c0-0.4-0.3-0.8-0.7-0.9
	c-0.2-0.1-0.4-0.2-0.6-0.3c-0.9,1.5-0.9,1.6-1.6,2.7C145.9,35.9,146.1,36,146.4,36.1"/>
<path class="st0" d="M162.9,41.9l-0.3,0.4c-0.4,0.5-2.5,3-3,3.6l-0.7,0.8c-1.2,1.5-1.8,2.1-2.8,2.4c-1.2,0.3-2.5-0.1-3.4-1
	c-0.4-0.3-2.2-1.8-1.4-3.9c0.4-0.9,0.9-1.7,1.6-2.4l1.5-1.9c1.6-2,1.8-2.2,2.3-3h0.1c0.9,0.7,1.1,0.8,2.1,1.6v0.1
	c-1.4,1.7-2.8,3.4-4.1,5.1c-0.4,0.5-0.7,1-1,1.5c-0.3,0.5-0.1,1.2,0.4,1.6c0.3,0.2,0.6,0.3,1,0.3c0.6-0.1,1-0.6,1.8-1.5l2.9-3.6
	c0.6-0.8,0.8-1,1.3-1.6h0.1c0.7,0.6,0.9,0.8,1.7,1.3L162.9,41.9z"/>
<path class="st0" d="M161.6,56.3c-0.8-0.9-1-1.1-1.8-1.9v-0.1c1-0.8,1.1-0.9,2.8-2.5l2-1.8c1.1-1,1.3-1.2,2-1.9
	c-1-1.1-1.3-1.3-1.6-1.7v-0.1c0.6-0.5,0.7-0.6,1.3-1.2h0.1l2.4,2.5c1.2,1.3,1.8,1.9,2.5,2.7v0.1c-0.6,0.5-0.8,0.6-1.4,1.1h-0.1
	c-0.1-0.1-0.6-0.6-0.7-0.8c-0.2-0.3-0.5-0.6-0.8-0.9l-1.5,1.3c-1.8,1.6-3.5,3.3-5.2,5L161.6,56.3z"/>
<path class="st0" d="M174.2,63.8c-0.5,0.3-0.8,0.5-1.8,1.2c-0.8,0.5-1.6,1.1-2.4,1.7h-0.1c-0.9-0.6-1.6-1.4-2.2-2.2
	c-1-1.2-1.3-2.9-0.9-4.4c0.5-1.3,1.4-2.3,2.5-3.1c1.3-1,2.9-1.5,4.5-1.3c1.4,0.2,2.6,1,3.3,2.2c0.6,0.8,0.9,1.6,1.1,2.6l-0.1,0.1
	l-1,0.5c-0.3,0.2-0.6,0.3-0.8,0.5l-0.1-0.1c0.1-0.8-0.1-1.5-0.6-2.1c-1.1-1.7-3-1.5-4.8-0.2c-1.5,1-2.6,2.5-1.6,3.9
	c0.2,0.2,0.4,0.4,0.6,0.6c0.4-0.2,0.6-0.4,1.1-0.7s1.1-0.8,1.6-1.2h0.1C173.4,62.7,173.5,62.9,174.2,63.8L174.2,63.8z"/>
<path class="st0" d="M177.2,70.7l-2.6,1.3l0.3,0.6c0.8,1.5,1,1.9,1.3,2.5v0.1c-0.8,0.3-0.9,0.4-1.7,0.7h-0.1l-1.1-2.3
	c-0.9-1.8-1.1-2.1-1.6-3l0.1-0.1c1.1-0.5,1.9-0.9,3.7-1.8c2-1,4.6-2.3,6.1-3.1h0.1c0.9,1.8,1.8,3.6,2.6,5.3V71
	c-0.7,0.3-0.9,0.4-1.6,0.7h-0.1l-0.1-0.3c-0.2-0.4-0.4-0.9-0.6-1.3l-0.4-0.8l-0.3-0.5c-1,0.5-1.3,0.6-2.3,1.2l0.3,0.6
	c0.4,0.7,0.6,1.2,1.1,2.1v0.1c-0.8,0.3-0.9,0.3-1.6,0.7h-0.1c-0.3-0.7-0.6-1.4-1-2L177.2,70.7z"/>
<path class="st0" d="M186.4,76c0.2,0.5,1,2.8,1.1,3.3c0.3,0.7,0.4,1.5,0.4,2.3c-0.3,1.1-1.2,1.9-2.3,2.1c-0.8,0.3-1.6,0.3-2.4,0
	c-0.4-0.1-0.7-0.4-1-0.7l-1.3,1.2c-0.9,0.8-1.8,1.6-2.6,2.5h-0.1c-0.4-1.2-0.5-1.5-0.9-2.5l0.1-0.2c0.5-0.4,0.7-0.6,2.8-2.3l0.8-0.7
	c-0.1-0.3-0.1-0.3-0.2-0.6c-1.4,0.4-2.7,0.9-4,1.4h-0.1c-0.4-1.2-0.4-1.3-0.8-2.4l0.1-0.1c1.9-0.6,3.7-1.1,4.8-1.5s2.1-0.7,3.1-1
	s1.7-0.6,2.6-0.9L186.4,76z M182.8,80.8c0.4,0.6,1.2,0.8,1.9,0.5c0.3-0.1,0.6-0.3,0.9-0.5c0.3-0.3,0.3-0.8,0.1-1.1
	c-0.1-0.2-0.1-0.4-0.2-0.6l-3,1C182.6,80.3,182.7,80.6,182.8,80.8"/>
<path class="st0" d="M188.6,93.9c0.4-0.5,0.5-1.2,0.4-1.9c0-0.7-0.6-1.1-1.2-1.1c0,0-0.1,0-0.1,0c-0.5,0.1-0.9,0.5-1.1,1
	c-0.1,0.2-0.5,1.1-0.6,1.3c-0.4,1.2-1.4,2.1-2.6,2.3c-0.8,0.2-1.7,0-2.5-0.4c-0.9-0.6-1.5-1.6-1.6-2.8c-0.2-0.8-0.1-1.6,0.1-2.4
	l0.1-0.1c0.3,0,0.7-0.1,1-0.1s0.6-0.1,0.9-0.1l0.1,0.1c-0.4,0.6-0.5,1.3-0.4,2c0.1,0.7,0.7,1.3,1.4,1.2c0.1,0,0.1,0,0.2,0
	c0.7-0.1,1-0.6,1.4-1.4l0.3-0.7c0.4-1.2,1.4-2.1,2.7-2.3c0.8-0.2,1.7,0,2.5,0.5c0.7,0.6,1.2,1.5,1.3,2.4c0.1,0.8,0.1,1.6-0.1,2.4
	l-0.1,0.1c-0.3,0-0.7,0.1-1,0.1L188.6,93.9L188.6,93.9z"/>
<path class="st0" d="M180.6,109.4c0-1.2,0-1.5,0-2.6l0.1-0.1c1.3,0.1,1.4,0.1,3.7,0.2l2.7,0.1l2.8,0.1c0-1.5,0-1.8,0-2.3l0.1-0.1
	c0.8,0.1,0.9,0.1,1.8,0.1l0.1,0.1l-0.1,3.5c0,1.8-0.1,2.6-0.1,3.7l-0.1,0.1c-0.8-0.1-1-0.1-1.8-0.2l-0.1-0.1c0-0.2,0.1-0.8,0.1-1
	c0-0.4,0-0.8,0.1-1.2l-2-0.1c-2.4-0.1-4.8-0.1-7.2-0.1L180.6,109.4z"/>
<path class="st0" d="M179.4,120.2c1.8,0.3,2.8,0.6,4.8,0.9c0.1-0.4,0.1-0.7,0.2-1.1c0.1-0.7,0.2-1.2,0.2-1.5
	c-0.9-0.2-2.9-0.5-4.8-0.8l-0.1-0.1c0.2-1.2,0.3-1.5,0.4-2.5l0.1-0.1c1.7,0.3,3.5,0.7,5.2,1c2.6,0.5,4.1,0.7,5.6,0.9l0.1,0.1
	c-0.2,0.8-0.3,1.7-0.4,2.6l-0.1,0.1l-2.9-0.6l-1.2-0.2c-0.1,0.6-0.4,2.1-0.4,2.6c0.6,0.1,2.3,0.4,4,0.6l0.1,0.1
	c-0.2,1.3-0.2,1.4-0.4,2.5l-0.1,0.1c-1-0.2-2.3-0.4-4.5-0.8c-0.7-0.1-4.4-0.8-6.3-1l-0.1-0.1c0.2-1.1,0.2-1.3,0.4-2.5L179.4,120.2z"
	/>
<path class="st0" d="M181.5,131l-2.7-0.9l-0.2,0.6c-0.5,1.6-0.6,2-0.8,2.7l-0.1,0.1c-0.8-0.3-0.9-0.4-1.7-0.7l-0.1-0.1l0.8-2.4
	c0.6-1.9,0.8-2.3,1-3.2h0.1c1.2,0.4,2,0.7,3.9,1.3c2.1,0.7,4.9,1.6,6.5,2.1l0.1,0.1c-0.6,1.9-1.3,3.8-1.8,5.6h-0.1
	c-0.7-0.3-0.9-0.4-1.6-0.6l-0.1-0.1l0.1-0.3c0.1-0.4,0.3-0.9,0.5-1.4l0.3-0.9l0.2-0.6l-2.5-0.8l-0.2,0.6c-0.3,0.8-0.4,1.2-0.7,2.3
	l-0.1,0.1c-0.7-0.3-0.9-0.4-1.6-0.6l-0.1-0.1c0.2-0.7,0.5-1.4,0.7-2.1L181.5,131z"/>
<path class="st0" d="M177.1,149.9c0.6-0.2,1.2-0.6,1.5-1.2c0.4-0.5,0.3-1.3-0.2-1.7c0,0-0.1,0-0.1-0.1c-0.4-0.2-1-0.2-1.4,0
	c-0.5,0.2-0.9,0.4-1.3,0.6c-1.1,0.7-2.4,0.7-3.5,0.1c-0.8-0.4-1.3-1.1-1.6-1.9c-0.3-1.1-0.1-2.2,0.5-3.2c0.4-0.7,0.9-1.3,1.6-1.8
	h0.2c0.3,0.2,0.6,0.4,0.9,0.6s0.5,0.3,0.8,0.5v0.1c-0.7,0.2-1.3,0.7-1.6,1.3c-0.4,0.6-0.3,1.4,0.3,1.9c0.1,0,0.1,0.1,0.2,0.1
	c0.6,0.4,1.1,0.1,2-0.2l0.7-0.4c1.1-0.7,2.4-0.7,3.6-0.1c0.8,0.4,1.4,1.1,1.6,1.9c0.2,0.9,0,1.9-0.5,2.7c-0.4,0.7-0.9,1.3-1.6,1.8
	h-0.1l-0.8-0.6L177,150L177.1,149.9z"/>
<path class="st0" d="M164.6,152.3c0.8-1,0.9-1.2,1.5-2.1h0.1c1,0.8,1.1,0.9,2.9,2.3l2.1,1.6c1.2,1,1.4,1.1,2.2,1.7
	c0.9-1.2,1.1-1.5,1.4-1.9h0.2c0.6,0.5,0.7,0.6,1.4,1.1v0.1l-2.1,2.8c-1.1,1.4-1.6,2.1-2.2,2.9h-0.1c-0.6-0.5-0.8-0.7-1.4-1.2v-0.1
	c0.1-0.1,0.5-0.7,0.6-0.8c0.3-0.3,0.5-0.6,0.7-0.9c-0.6-0.5-0.9-0.7-1.6-1.2c-1.9-1.4-3.8-2.9-5.7-4.3L164.6,152.3z"/>
<path class="st0" d="M157.8,159.9c0.7,0.4,1.3,0.9,2.5,1.6c0.6-0.6,1.3-1.3,1.9-2c-0.5-0.8-1-1.7-1.6-2.5v-0.1
	c0.8-0.8,0.9-0.9,1.6-1.6h0.1c0.6,1.1,0.8,1.5,1.6,2.9l1.6,2.8c0.4,0.6,0.7,1.2,1.1,1.9l1.3,2.3v0.1c-0.9,0.9-1.2,1.2-2.1,2.2h-0.1
	l-0.5-0.3c-1.3-0.8-2.2-1.3-3.6-2.1l-2.6-1.5l-2.2-1.3l-0.9-0.5v-0.1c0.8-0.8,1-1.1,1.7-1.8L157.8,159.9z M163.3,161.1
	c-0.4,0.4-1,1-1.4,1.4l1.8,1.1c1,0.6,1.1,0.7,2.1,1.4c-0.6-0.9-0.8-1.2-1.4-2.2L163.3,161.1z"/>
<path class="st0" d="M151.1,165.6c1-0.7,1.2-0.9,2-1.6h0.1c0.8,1.1,0.8,1.1,2.3,3c0.6,0.7,1.1,1.4,1.6,2.1l1.7,2.2
	c1.2-0.9,1.4-1.1,1.8-1.5h0.1c0.5,0.7,0.5,0.8,1,1.4v0.1l-2.7,2.2c-1.4,1.1-2.1,1.6-2.9,2.3H156c-0.4-0.7-0.6-0.9-1-1.5v-0.1
	c0.1-0.1,0.7-0.5,0.8-0.6c0.3-0.2,0.6-0.5,0.9-0.7c-0.4-0.6-0.7-0.9-1.2-1.6c-1.5-1.9-3-3.7-4.5-5.6L151.1,165.6z"/>
<path class="st0" d="M146.8,174.3l-1.5-2.5l-0.6,0.3c-1.5,0.9-1.8,1.1-2.4,1.5h-0.1c-0.4-0.7-0.4-0.9-0.9-1.7v-0.1l2.2-1.3
	c1.7-1,2.1-1.2,2.9-1.8h0.1c0.6,1.1,1,1.9,2.1,3.6c1.1,1.9,2.6,4.4,3.6,5.8v0.1c-1.7,1-3.5,2.1-5.1,3h-0.1c-0.3-0.7-0.4-0.9-0.8-1.5
	v-0.1l0.2-0.1l1.2-0.7l0.8-0.5l0.5-0.3c-0.6-1-0.7-1.2-1.3-2.2l-0.6,0.4c-0.7,0.4-1.1,0.7-2,1.2h-0.1c-0.4-0.7-0.4-0.8-0.8-1.5v-0.1
	c0.7-0.4,1.3-0.8,2-1.1L146.8,174.3z"/>
<path class="st0" d="M129.3,188.6l-0.1-0.5c-0.2-0.6-1.2-3.8-1.4-4.5l-0.3-1c-0.6-1.8-0.8-2.6-0.5-3.7c0.4-1.2,1.4-2,2.7-2.3
	c0.5-0.2,2.7-0.9,4.1,0.9c0.5,0.8,0.9,1.7,1.1,2.6l0.8,2.3c0.8,2.4,0.9,2.7,1.2,3.6v0.1c-1.1,0.4-1.3,0.4-2.5,0.9l-0.1-0.1
	c-0.7-2.1-1.3-4.1-2-6.2c-0.2-0.6-0.4-1.2-0.7-1.7c-0.3-0.5-0.9-0.7-1.5-0.5c-0.4,0.1-0.7,0.4-0.8,0.7c-0.2,0.8-0.1,1.6,0.3,2.3
	l1.4,4.4c0.3,1,0.4,1.2,0.7,1.9v0.1c-0.9,0.3-1.1,0.4-2,0.7L129.3,188.6z"/>
<path class="st0" d="M120.8,186.5l-0.5-2.9c-0.4-2.1-0.5-2.6-0.8-4.1l0.1-0.1c1-0.1,1.2-0.2,2-0.4l0.1,0.1c0.1,1,0.2,1.8,0.4,2.8
	c0.2,1.5,0.7,4.4,0.9,5.3c0.1,0.4,0.3,1.5,0.5,2.7l-0.1,0.1c-1.2,0.2-1.3,0.2-2.4,0.4l-0.1-0.1c-0.6-0.8-0.8-1.1-2.4-3.2l-2.3-2.9
	l0.6,3.1l0.3,1.7c0.2,1,0.2,1.1,0.3,1.8l-0.1,0.1c-1,0.2-1.2,0.2-2,0.4l-0.1-0.1c-0.4-2.3-0.7-4.4-0.8-5.1c-0.2-1.2-0.6-3.9-1-5.8
	l0.1-0.1c1.1-0.2,1.2-0.2,2.2-0.4l0.1,0.1c0.5,0.6,0.6,0.8,2.1,2.7L120.8,186.5z"/>
<path class="st0" d="M106.7,180.7c1.1,0,1.4,0,2.6-0.1l0.1,0.1c0,2.1,0.1,4.1,0.1,6.2c0,1.5,0.1,2.4,0.2,4.8l-0.1,0.1
	c-1.1,0-1.4,0-2.6,0.1l-0.1-0.1c0-1.4,0-2.8,0-4.2c-0.1-2.3-0.1-4.5-0.3-6.8L106.7,180.7z"/>
<path class="st0" d="M98.1,180.2c1.3,0.1,1.6,0.1,2.7,0.2l0.1,0.1c0.1,0.6,0.1,0.8,0.3,1.7l0.2,1.4l0.6,3.5c0.1,0.6,0.2,1.2,0.3,1.8
	c0.1,0.9,0.3,1.9,0.5,2.6l-0.1,0.1c-1.2-0.1-1.5-0.1-2.6-0.1l-0.1-0.1c-0.2-2-0.3-3.2-0.6-5l-0.4-3.5l-1.2,3.8
	c-0.6,1.8-0.8,2.6-1.3,4.4l-0.1,0.1c-0.8-0.1-1.1-0.1-2.2-0.1V191c0.3-0.8,0.3-0.8,1.8-4.7l0.8-2.3
	C97.3,182.6,97.4,182.3,98.1,180.2L98.1,180.2z"/>
<path class="st0" d="M88.5,183.5l0.6-2.8l-0.6-0.1c-1.7-0.4-2.1-0.4-2.8-0.6l-0.1-0.1c0.2-0.8,0.3-1,0.5-1.8l0.1-0.1l2.4,0.6
	c1.9,0.4,2.3,0.5,3.3,0.7l0.1,0.1c-0.3,1.2-0.5,2.1-1,4c-0.5,2.2-1.1,5-1.4,6.7l-0.1,0.1c-1.9-0.5-4-0.9-5.8-1.3l-0.1-0.1
	c0.2-0.7,0.3-0.9,0.5-1.7l0.1-0.1l0.3,0.1l1.4,0.3l0.9,0.2l0.6,0.1c0.2-1.1,0.3-1.4,0.6-2.6l-0.7-0.1c-0.8-0.2-1.3-0.3-2.3-0.5
	l-0.1-0.1c0.2-0.8,0.3-0.9,0.5-1.6l0.1-0.1c0.7,0.2,1.5,0.4,2.2,0.5L88.5,183.5z"/>
<path class="st0" d="M78.5,187.3l-3.3-1.2c-0.7-0.2-1.4-0.6-2-1.2c-0.6-0.9-0.7-2.1-0.2-3.1c0.2-0.8,0.8-1.4,1.5-1.9
	c0.3-0.2,0.7-0.3,1.1-0.3l-0.1-1.7c-0.1-1.2-0.1-2.4-0.3-3.6l0.1-0.1c1.2,0.4,1.5,0.5,2.5,0.9l0.1,0.1c0,0.7,0,0.9,0,3.7v1
	c0.3,0.1,0.3,0.1,0.6,0.2c0.5-1.3,1-2.7,1.4-4l0.1-0.1c1.1,0.5,1.3,0.5,2.3,0.9l0.1,0.1c-0.8,1.9-1.4,3.6-1.8,4.6s-0.8,2-1.1,3.1
	S78.9,186.4,78.5,187.3L78.5,187.3z M77,181.5c-0.7-0.1-1.4,0.4-1.6,1.1c-0.1,0.3-0.2,0.7-0.1,1c0.1,0.4,0.4,0.7,0.8,0.8
	c0.2,0.1,0.4,0.1,0.7,0.2c0.6-1.6,0.7-1.7,1.2-2.9C77.6,181.6,77.3,181.5,77,181.5"/>
<path class="st0" d="M63.2,177.6c0.2,0.6,0.6,1.2,1.2,1.5c0.5,0.4,1.3,0.3,1.6-0.2c0,0,0.1-0.1,0.1-0.1c0.2-0.5,0.2-1-0.1-1.4
	c-0.1-0.2-0.5-1.1-0.6-1.3c-0.7-1-0.7-2.4-0.1-3.5c0.4-0.8,1.1-1.4,1.9-1.7c1.1-0.3,2.2-0.1,3.2,0.5c0.7,0.4,1.3,0.9,1.8,1.6v0.2
	c-0.2,0.3-0.4,0.6-0.6,0.9s-0.3,0.5-0.5,0.8H71c-0.2-0.7-0.7-1.3-1.3-1.6c-0.6-0.4-1.5-0.3-1.9,0.3c0,0.1-0.1,0.1-0.1,0.2
	c-0.3,0.6-0.1,1.1,0.3,2l0.4,0.7c0.7,1.1,0.7,2.4,0.1,3.6c-0.4,0.8-1.1,1.4-1.9,1.6c-0.9,0.2-1.9,0-2.7-0.5
	c-0.7-0.4-1.3-0.9-1.8-1.6v-0.1c0.2-0.3,0.4-0.5,0.5-0.8l0.5-0.8L63.2,177.6z"/>
<path class="st0" d="M61.6,166c0.9,0.7,1.1,0.8,2.1,1.5v0.1c-1.2,1.6-2.4,3.3-3.6,5c-0.9,1.2-1.4,1.9-2.7,3.9h-0.1
	c-0.9-0.6-1.2-0.8-2.2-1.5v-0.1c0.9-1.1,1.7-2.2,2.5-3.4c1.3-1.9,2.6-3.7,3.9-5.6L61.6,166z"/>
<path class="st0" d="M55.4,160.8c0.9,0.8,1.1,1,1.9,1.7v0.1c-0.9,0.9-1,1-2.5,2.8c-0.6,0.7-1.2,1.3-1.8,2l-1.9,2
	c1.1,1,1.4,1.2,1.8,1.5v0.1c-0.6,0.6-0.6,0.6-1.2,1.3h-0.1L49,170c-1.4-1.2-2-1.8-2.8-2.4v-0.1c0.6-0.6,0.7-0.7,1.3-1.2h0.1
	c0.1,0.1,0.6,0.6,0.7,0.7l0.9,0.8c0.5-0.5,0.8-0.9,1.3-1.5c1.6-1.8,3.2-3.6,4.7-5.4L55.4,160.8z"/>
<path class="st0" d="M45.7,157c0,0,2.5-2.2,3.2-2.9H49c0.8,0.9,1,1.2,1.7,1.9v0.1c-1.2,0.9-3,2.6-3.2,2.7l-1.3,2.8
	c-0.2,0.5-0.4,0.9-0.7,1.4c-0.7,1.5-0.8,1.6-1.1,2.4h-0.1c-0.8-0.9-1-1.1-1.8-1.9v-0.1c0.2-0.3,0.3-0.6,1.2-2.1l1.1-2.1l-1.8,0.6
	c-1,0.4-1.6,0.6-2.7,1h-0.1c-0.7-0.8-0.8-1-1.5-1.6v-0.1c0.6-0.1,0.8-0.2,1.6-0.4l2.5-0.7L45.7,157z"/>
<path class="st0" d="M31.8,142.3c0.6-0.6,1.3-1.1,2-1.4c0.6-0.4,1.3-0.6,2-0.8c2-0.8,4.3,0.1,5.2,2.1c0.7,1.1,0.8,2.4,0.3,3.6
	c-0.7,1.3-1.8,2.4-3.1,3.1c-3.2,1.8-5.9,1.5-7.4-1.2C29.8,145.9,30.2,143.6,31.8,142.3 M33.8,144.1c-0.7,0.5-1.8,1.5-1.2,2.6
	c0.8,1.5,3.2,0.4,4.3-0.2c0.8-0.4,1.6-1,2.2-1.8c0.4-0.5,0.5-1.2,0.2-1.7c-0.1-0.2-0.3-0.4-0.6-0.6c-1.1-0.6-3,0.4-3.7,0.8
	C34.6,143.5,34.2,143.8,33.8,144.1"/>
<path class="st0" d="M31,131.3c0.3,0.7,0.4,1.1,1,2.6c0.7-0.3,1.3-0.5,2.1-0.8l2.1-0.9l0.1,0.1c0.4,1,0.5,1.3,0.9,2.3l-0.1,0.1
	c-1,0.3-2.4,0.9-4.4,1.6c-2.8,1.1-3.7,1.4-5.9,2.3l-0.1-0.1l-0.6-1.5l-0.8-2c-0.5-1.1-0.5-1.2-0.8-2l0.1-0.1
	c0.8-0.2,1.1-0.3,1.7-0.5l0.1,0.1c0.3,0.8,0.3,1,0.9,2.6l0.2,0.5c1.3-0.4,1.5-0.5,2.6-1c-0.3-0.9-0.7-1.8-1.1-2.7v-0.1
	c0.7-0.2,0.9-0.3,1.7-0.5L31,131.3z"/>
<path class="st0" d="M25.5,119.7l2.9-0.5c2.1-0.3,2.6-0.4,4.1-0.7l0.1,0.1c0.1,1,0.2,1.2,0.3,2l-0.1,0.1c-1,0.1-1.8,0.2-2.8,0.4
	c-1.5,0.2-4.4,0.7-5.4,0.8c-0.4,0.1-1.5,0.2-2.7,0.5l-0.1-0.1c-0.2-1.2-0.2-1.3-0.4-2.4l0.1-0.1c0.8-0.6,1.1-0.8,3.2-2.4l2.9-2.2
	l-3.1,0.5l-1.7,0.3c-1,0.2-1.1,0.2-1.8,0.3l-0.1-0.1c-0.1-1-0.2-1.2-0.3-2l0.1-0.1l5.1-0.7c1.2-0.2,4-0.6,5.8-0.9l0.1,0.1
	c0.1,1.1,0.2,1.2,0.4,2.2l0,0.2c-0.6,0.5-0.8,0.6-2.7,2L25.5,119.7z"/>
<path class="st0" d="M26.7,105.6h2.9V105c0-1.7,0-2.1,0-2.8l0.1-0.1c0.8,0.1,1,0.1,1.9,0.2l0.1,0.1v2.5c0,2,0,2.4,0,3.4l-0.1,0.1
	c-1.2,0-2.1-0.1-4.1-0.1c-2.2,0-5.2-0.1-6.8,0l-0.1-0.1c0-2,0.1-4.1,0.1-5.9l0.1-0.1c0.8,0.1,1,0.1,1.8,0.1l0.1,0.1v0.3
	c0,0.5,0,1,0,1.4v0.9v0.6H25v-0.7c0-0.8,0-1.3,0-2.4l0.1-0.1c0.8,0.1,0.9,0.1,1.7,0.1l0.1,0.1c0,0.8,0,1.5-0.1,2.3L26.7,105.6z"/>
<path class="st0" d="M24.9,91.2l2.5,1l2.4,0.9l2.6,0.9l0.1,0.1c-0.2,1.2-0.3,1.6-0.5,2.8l-0.1,0.1h-3.2h-2.5h-2.2l-3.2,0.1l-0.1-0.1
	c0.2-1.1,0.2-1.4,0.4-2.5l0.1-0.1c1,0,1.3,0,3.3,0.1l3.4,0.1h2.1l-2.5-1c-2.5-0.9-3.5-1.3-5.7-2l-0.1-0.1c0.2-1.2,0.2-1.4,0.4-2.7
	l0.1-0.1h0.5c3.1,0.1,3.4,0.1,5.5,0.1h2.6l-2.3-0.8c-0.9-0.3-1.9-0.7-2.8-1s-2.1-0.8-3-1.1l-0.1-0.1c0.2-1,0.2-1.2,0.3-2.1l0.1-0.1
	c1.6,0.7,3.1,1.3,4.7,2l2.7,1.1c0.4,0.2,0.9,0.4,1.4,0.6c0.6,0.2,1.3,0.5,1.6,0.7l0.1,0.1c-0.2,1.2-0.3,1.5-0.5,2.9l-0.1,0.1
	c-0.2,0-0.4,0-0.6,0c-2.3-0.1-2.5-0.1-3.8-0.1L24.9,91.2z"/>
<path class="st0" d="M28.2,70.3c0.4,0.2,0.8,0.3,1.5,0.7l5.3,2.2c0.8,0.3,1.5,0.7,2.2,1.3c0.6,0.8,0.7,2,0.2,2.9
	c-0.2,0.4-0.4,0.7-0.6,1h-0.1L35.9,78c-0.3-0.2-0.7-0.3-1-0.4v-0.1c0.2-0.1,0.3-0.3,0.4-0.4c0-0.1,0-0.3,0-0.4
	c-0.1-0.5-0.6-0.8-1.7-1.2l-2.2-0.9l-4.2-1.7l0-0.1C27.6,71.7,27.7,71.4,28.2,70.3L28.2,70.3z"/>
<path class="st0" d="M37.3,66.3l2.5,1.4l0.3-0.6c0.8-1.5,1-1.8,1.3-2.5h0.1c0.7,0.5,0.8,0.6,1.6,1v0.1L41.9,68
	c-1,1.7-1.2,2.1-1.7,2.9h-0.1c-1.1-0.7-1.8-1.1-3.6-2.1c-1.9-1.1-4.5-2.6-6-3.3l0-0.1c1-1.7,2.1-3.5,3-5.1h0.1
	c0.6,0.4,0.8,0.5,1.5,1v0.1L35,61.6l-0.7,1.2l-0.5,0.8l-0.3,0.5l2.3,1.3l0.3-0.6c0.4-0.7,0.6-1.1,1.2-2.1h0.1
	c0.7,0.5,0.8,0.5,1.4,0.9v0.1c-0.4,0.6-0.8,1.3-1.2,2L37.3,66.3z"/>
<path class="st0" d="M36.7,55.7c0.3-0.4,1.8-2.3,2.2-2.8c0.4-0.6,1-1.2,1.7-1.6c1.1-0.3,2.2,0,3,0.7c0.7,0.5,1.1,1.2,1.3,2
	c0.1,0.4,0.1,0.8,0,1.2l1.7,0.4c1.2,0.3,2.3,0.6,3.5,0.8v0.1c-0.8,1-1,1.3-1.6,2.2l-0.2,0c-0.6-0.2-0.9-0.3-3.5-1.1l-1-0.3
	c-0.2,0.2-0.2,0.3-0.4,0.5c1.1,0.9,2.2,1.8,3.4,2.6v0.1c-0.8,0.9-0.9,1.1-1.5,2h-0.1c-1.5-1.3-3-2.5-3.9-3.2s-1.7-1.3-2.6-2
	s-1.4-1.1-2.2-1.6L36.7,55.7z M42.7,56c0.3-0.7,0-1.5-0.6-1.8c-0.3-0.2-0.6-0.4-0.9-0.4c-0.4,0-0.8,0.2-1,0.5
	c-0.2,0.2-0.3,0.4-0.4,0.5c1.3,1.1,1.5,1.2,2.5,2C42.4,56.6,42.6,56.3,42.7,56"/>
<path class="st0" d="M50.4,44c-0.7,0-1.3,0.2-1.8,0.7c-0.5,0.4-0.6,1.1-0.2,1.7c0,0,0.1,0.1,0.1,0.1c0.4,0.4,0.9,0.5,1.4,0.4
	c0.2,0,1.2-0.2,1.4-0.2c1.2-0.3,2.5,0,3.4,0.9c0.6,0.6,0.9,1.4,1,2.3c0,1.1-0.5,2.2-1.4,2.9c-0.6,0.6-1.3,1-2,1.3h-0.2l-0.7-0.8
	c-0.2-0.2-0.4-0.5-0.6-0.7l0.1-0.1c0.7,0,1.4-0.3,1.9-0.8c0.6-0.5,0.7-1.3,0.2-1.9c0,0-0.1-0.1-0.1-0.1c-0.5-0.5-1.1-0.5-2-0.3
	l-0.8,0.1c-1.2,0.3-2.5,0-3.4-0.9c-0.6-0.6-1-1.4-1-2.3c0.1-1,0.5-1.8,1.3-2.4c0.6-0.6,1.2-1,2-1.2l0.1,0l0.6,0.8L50.4,44L50.4,44z"
	/>
<path class="st0" d="M59.2,42l1.7,2.3l0.5-0.4c1.4-1,1.7-1.3,2.2-1.7h0.1c0.4,0.7,0.5,0.9,1,1.6v0.1l-2,1.5c-1.6,1.2-1.9,1.4-2.7,2
	h-0.1c-0.7-1-1.2-1.7-2.4-3.4c-1.3-1.8-3-4.2-4.1-5.5v-0.1c1.6-1.2,3.3-2.4,4.8-3.5h0.1c0.4,0.7,0.5,0.8,1,1.5v0.1L59,36.7l-1.2,0.8
	l-0.7,0.5l-0.5,0.3l1.5,2.1l0.5-0.4c0.7-0.5,1-0.8,1.9-1.4h0.1c0.4,0.7,0.5,0.8,0.9,1.4v0.1c-0.6,0.4-1.2,0.9-1.8,1.3L59.2,42z"/>
<path class="st0" d="M69.6,36c0,0,1.6,2.9,2.1,3.8v0.1c-1.1,0.6-1.3,0.7-2.2,1.3l-0.1,0c-0.6-1.4-1.8-3.5-2-3.8l-2.5-1.9
	c-0.4-0.3-0.8-0.6-1.2-0.9c-1.3-1-1.4-1.1-2.1-1.6v-0.1c1-0.6,1.2-0.7,2.3-1.4h0.1c0.3,0.3,0.6,0.5,1.8,1.6l1.8,1.5l-0.2-1.9
	c-0.1-1.1-0.2-1.7-0.4-2.8v-0.1c1-0.5,1.1-0.6,1.9-1.1l0.1,0.1c0,0.6,0,0.8,0.1,1.7c0.1,1.1,0.1,1.6,0.2,2.6L69.6,36z"/>
<path class="st1" d="M92.3,32.8c-1.3,0.2-1.6,0.3-2.6,0.6l-0.1-0.1c-0.4-2-0.7-3.5-1.1-5.6c-0.2-0.9-0.5-2.4-0.7-3.3
	c-0.5,0.1-0.6,0.2-1.1,0.3l-0.1-0.1c-0.2-0.8-0.2-0.9-0.3-1.7l0.1-0.1c1.4-0.5,1.6-0.6,3.6-1.3l0.1,0.1c0.2,0.7,0.8,4.2,1,5
	c0.4,2,0.9,4,1.4,6L92.3,32.8z"/>
<path class="st1" d="M99.4,22.7l-1,0.1c-1.2,0.1-1.7,0.2-3.3,0.4L95,23c0-0.8,0-1.1,0-2l0.1-0.1c0.6,0,1.3-0.1,1.7-0.1l2.4-0.2
	l3-0.3l0.1,0.1c0,0.2-0.1,0.3-0.1,0.5c-0.3,1.3-0.4,1.6-0.7,3.1l-0.7,3.4c-0.5,2.5-0.6,3.1-0.8,4.4l-0.1,0.1
	c-1.2,0.1-1.5,0.1-2.8,0.3L97,32c0.3-0.9,0.3-1.1,0.8-3.1c0.2-0.9,0.4-1.7,0.7-2.5L99.4,22.7z"/>
<path class="st1" d="M112.1,22.9c-0.4-0.4-1-0.7-1.6-0.7c-2.1-0.1-2.3,2.1-2.3,2.5c0.5-0.4,1.2-0.6,1.9-0.6c1.8,0.1,2.9,1.5,2.8,3.8
	s-1.4,4-3.9,3.9c-0.5,0-0.9-0.1-1.4-0.3c-1.7-0.7-2.4-2.6-2.3-5.3c0-0.8,0.1-1.5,0.3-2.3c0.2-1,0.7-2,1.4-2.7c0.9-0.8,2-1.2,3.2-1.1
	c0.7,0,1.4,0.2,2.1,0.5l0.1,0.1c-0.1,0.9-0.1,1-0.2,2L112.1,22.9z M108,28.1c0,0.6,0.2,1.7,1.1,1.7c0.2,0,0.3,0,0.5-0.1
	c0.6-0.4,0.7-1.3,0.7-1.6c0-1.2-0.5-1.7-1-1.8c-0.5,0-0.9,0.2-1.2,0.6C108.1,27.3,108.1,27.7,108,28.1"/>
<path class="st1" d="M124.5,24.7c-0.4-0.5-0.9-0.8-1.5-0.9c-2-0.4-2.5,1.7-2.6,2.2c0.6-0.3,1.3-0.4,2-0.3c1.7,0.3,2.7,2,2.2,4.1
	s-2,3.7-4.4,3.3c-0.5-0.1-0.9-0.2-1.3-0.5c-1.6-1-2-2.9-1.5-5.5c0.1-0.8,0.3-1.5,0.6-2.2c0.4-1,1-1.8,1.8-2.5c1-0.7,2.2-0.9,3.3-0.6
	c0.7,0.1,1.4,0.4,2,0.8l0.1,0.2c-0.2,0.9-0.3,1-0.5,1.9L124.5,24.7z M119.7,29.3c0,0.6,0,1.7,0.8,1.9c0.2,0,0.3,0,0.5,0
	c0.7-0.3,0.9-1.2,0.9-1.5c0.2-1.2-0.2-1.8-0.8-1.9c-0.5,0-1,0.1-1.3,0.4C119.8,28.5,119.7,28.9,119.7,29.3"/>
<path class="st2" d="M106.1,197.9c-50.7,0-91.8-41.1-91.8-91.8s41.1-91.8,91.8-91.8s91.8,41.1,91.8,91.8c0,0,0,0,0,0
	C197.8,156.8,156.7,197.8,106.1,197.9 M106.1,16.4c-49.6,0-89.7,40.2-89.7,89.7s40.2,89.7,89.7,89.7s89.7-40.2,89.7-89.7
	c0,0,0,0,0,0C195.7,56.6,155.6,16.4,106.1,16.4"/>
<path class="st3" d="M5.3,108.9c-1.9-1-3.8-1.4-4.9-3.3c-1.1-2.4,0.4-6.3,0.4-6.3c0.9,1.8,2.6,3.2,4.5,3.8c1.9,1,3.8,1.5,4.9,3.3
	c1.1,2.4-0.4,6.4-0.4,6.4C8.9,111,7.3,109.6,5.3,108.9"/>
<rect class="st4" width="212.2" height="212.2"/>
<path class="st3" d="M5.6,98.4C3.8,97.2,2,96.6,1,94.6c-0.9-2.5,1-6.3,1-6.3c0.8,1.9,2.3,3.5,4.1,4.3c1.8,1.2,3.6,1.9,4.5,3.8
	c0.9,2.5-1,6.3-1,6.3C9,100.8,7.5,99.2,5.6,98.4"/>
<path class="st3" d="M7,87.9c-1.7-1.4-3.4-2.2-4.1-4.2c-0.6-2.6,1.7-6.1,1.7-6.1c0.5,2,1.8,3.7,3.6,4.7c1.7,1.4,3.4,2.2,4.1,4.3
	c0.6,2.6-1.7,6.1-1.7,6.1C10.1,90.7,8.8,89,7,87.9"/>
<path class="st3" d="M9.4,77.7c-1.5-1.5-3.1-2.5-3.7-4.7c-0.3-2.7,2.3-5.9,2.3-5.9c0.3,2,1.5,3.8,3.1,5.1c1.5,1.5,3.1,2.6,3.6,4.7
	c0.3,2.7-2.3,5.9-2.3,5.9C12.2,80.7,11.1,78.9,9.4,77.7"/>
<path class="st3" d="M12.9,67.7c-1.4-1.7-2.9-2.8-3.2-5C9.7,60,12.7,57,12.7,57c0.1,2.1,1.1,4,2.6,5.4c1.4,1.7,2.8,2.9,3.1,5
	c0,2.7-2.9,5.6-2.9,5.6C15.3,71,14.4,69.1,12.9,67.7"/>
<path class="st3" d="M17.4,58.2c-1.2-1.8-2.5-3.1-2.6-5.3c0.2-2.7,3.5-5.3,3.5-5.3c-0.1,2.1,0.6,4.1,2,5.6c1.2,1.8,2.5,3.2,2.6,5.3
	c-0.2,2.7-3.5,5.3-3.5,5.3C19.5,61.7,18.8,59.7,17.4,58.2"/>
<path class="st3" d="M22.9,49.2c-1-1.9-2.2-3.4-2-5.6c0.5-2.6,4-4.9,4-4.9c-0.3,2,0.2,4.1,1.4,5.8c1,1.9,2.2,3.4,2,5.6
	c-0.5,2.6-4,4.9-4,4.9C24.6,52.9,24.1,50.8,22.9,49.2"/>
<path class="st3" d="M29.3,40.8c-0.8-2-1.8-3.6-1.4-5.7c0.8-2.6,4.5-4.5,4.5-4.5c-0.5,2-0.2,4.1,0.8,5.9c0.8,2,1.8,3.6,1.4,5.8
	c-0.8,2.5-4.5,4.5-4.5,4.5C30.6,44.7,30.3,42.6,29.3,40.8"/>
<path class="st3" d="M36.6,33.1c-0.6-2.1-1.5-3.8-0.8-5.9c1-2.5,5-4,5-4c-0.7,1.9-0.7,4.1,0.2,5.9c0.6,2.1,1.4,3.8,0.8,5.9
	c-1,2.5-5,4-5,4C37.5,37.1,37.4,35,36.6,33.1"/>
<path class="st3" d="M44.6,26.2c-0.3-2.1-1-3.9-0.2-5.9c1.3-2.3,5.3-3.4,5.3-3.4c-0.9,1.8-1.1,4-0.4,5.9c0.3,2.1,1,3.9,0.2,5.9
	c-1.3,2.3-5.3,3.4-5.3,3.4C45,30.3,45.2,28.2,44.6,26.2"/>
<path class="st3" d="M53.2,20.3c-0.1-2.2-0.6-4,0.4-5.9c1.5-2.2,5.7-2.9,5.7-2.9c-1.1,1.7-1.5,3.8-1,5.9c0.1,2.1,0.6,4-0.4,5.9
	c-1.5,2.2-5.7,2.8-5.7,2.8C53.3,24.4,53.7,22.3,53.2,20.3"/>
<path class="st3" d="M62.5,15.2c0.1-2.2-0.2-4,1-5.8c1.8-2,6-2.2,6-2.2c-1.3,1.6-1.9,3.7-1.7,5.7c-0.1,2.2,0.2,4-1,5.9
	c-1.8,2-6,2.2-6,2.2C62.2,19.3,62.8,17.3,62.5,15.2"/>
<path class="st3" d="M72.2,11.1c0.3-2.1,0.2-4,1.6-5.7C75.8,3.6,80,3.8,80,3.8c-1.4,1.5-2.3,3.4-2.3,5.5c-0.3,2.1-0.2,4-1.7,5.7
	c-2,1.8-6.2,1.6-6.2,1.6C71.4,15.2,72.2,13.2,72.2,11.1"/>
<path class="st3" d="M82.4,8.1c0.6-2.1,0.6-4,2.2-5.5c2.1-1.6,6.3-1,6.3-1c-1.6,1.3-2.7,3.2-2.9,5.3c-0.6,2.1-0.7,4-2.2,5.5
	c-2.1,1.6-6.3,1-6.3,1C81.1,12.1,82.1,10.2,82.4,8.1"/>
<path class="st3" d="M92.7,6.2c0.8-2,1-3.9,2.8-5.2c2.3-1.4,6.3-0.3,6.3-0.3c-1.7,1.1-2.9,2.9-3.3,4.9c-0.8,2-1.1,3.9-2.8,5.2
	c-2.3,1.4-6.3,0.3-6.3,0.3C91.1,10,92.3,8.2,92.7,6.2"/>
<path class="st3" d="M103.2,5.3c1-1.9,1.4-3.8,3.3-4.9c2.5-1.1,6.3,0.4,6.3,0.4c-1.8,0.9-3.2,2.6-3.8,4.5c-1,1.9-1.5,3.8-3.3,4.9
	c-2.4,1.1-6.3-0.4-6.3-0.4C101.2,8.9,102.6,7.3,103.2,5.3"/>
<rect class="st4" width="212.2" height="212.2"/>
<path class="st3" d="M113.8,5.6c1.2-1.8,1.8-3.6,3.8-4.6c2.5-0.9,6.3,1,6.3,1c-1.9,0.8-3.5,2.2-4.3,4.1c-1.2,1.8-1.9,3.6-3.8,4.5
	c-2.5,0.9-6.3-1-6.3-1C111.4,9,112.9,7.5,113.8,5.6"/>
<path class="st3" d="M124.2,7c1.3-1.7,2.2-3.4,4.2-4.1c2.6-0.6,6.1,1.7,6.1,1.7c-2,0.5-3.7,1.9-4.7,3.6c-1.4,1.7-2.2,3.4-4.3,4.1
	c-2.6,0.6-6.1-1.7-6.1-1.7C121.5,10.1,123.2,8.8,124.2,7"/>
<path class="st3" d="M134.5,9.4c1.5-1.5,2.5-3.1,4.7-3.7c2.6-0.3,5.9,2.3,5.9,2.3c-2,0.3-3.9,1.4-5.1,3.1c-1.5,1.5-2.6,3.1-4.7,3.6
	c-2.6,0.3-5.9-2.3-5.9-2.3C131.4,12.2,133.3,11.1,134.5,9.4"/>
<path class="st3" d="M144.5,12.9c1.7-1.4,2.8-2.9,5-3.2c2.7-0.1,5.6,2.9,5.6,2.9c-2.1,0.1-4,1.1-5.4,2.6c-1.7,1.4-2.9,2.8-5.1,3.1
	c-2.7,0-5.6-2.9-5.6-2.9C141.1,15.3,143.1,14.4,144.5,12.9"/>
<path class="st3" d="M154,17.4c1.8-1.2,3.1-2.6,5.3-2.6c2.7,0.2,5.3,3.5,5.3,3.5c-2.1-0.1-4.1,0.6-5.6,2c-1.8,1.2-3.2,2.5-5.4,2.6
	c-2.7-0.2-5.3-3.5-5.3-3.5C150.4,19.5,152.5,18.8,154,17.4"/>
<path class="st3" d="M163,22.9c1.9-1,3.4-2.2,5.6-2c2.6,0.5,4.9,4,4.9,4c-2-0.3-4.1,0.2-5.8,1.4c-1.9,1-3.4,2.2-5.6,2
	c-2.6-0.5-4.9-4-4.9-4C159.2,24.6,161.3,24.1,163,22.9"/>
<path class="st3" d="M171.4,29.3c2-0.8,3.6-1.8,5.8-1.5c2.6,0.8,4.5,4.5,4.5,4.5c-2-0.5-4.1-0.2-5.9,0.8c-2,0.8-3.6,1.8-5.8,1.4
	c-2.6-0.8-4.5-4.5-4.5-4.5C167.5,30.6,169.6,30.3,171.4,29.3"/>
<path class="st3" d="M179,36.6c2.1-0.6,3.8-1.5,5.9-0.8c2.5,1,4,5,4,5c-1.9-0.7-4.1-0.7-5.9,0.2c-2.1,0.6-3.8,1.4-5.9,0.8
	c-2.5-1-4-5-4-5C175,37.5,177.1,37.4,179,36.6"/>
<path class="st3" d="M185.9,44.6c2.1-0.3,3.9-1,5.9-0.2c2.3,1.3,3.4,5.4,3.4,5.4c-1.8-0.9-4-1.1-5.9-0.4c-2.1,0.3-3.9,1-5.9,0.2
	c-2.3-1.3-3.4-5.4-3.4-5.4C181.8,45,183.9,45.2,185.9,44.6"/>
<path class="st3" d="M191.9,53.2c2.2-0.1,4-0.6,5.9,0.4c2.2,1.5,2.9,5.7,2.9,5.7c-1.7-1.1-3.9-1.5-5.9-1c-2.1,0.1-4,0.6-5.9-0.4
	c-2.2-1.5-2.8-5.7-2.8-5.7C187.8,53.3,189.9,53.7,191.9,53.2"/>
<path class="st3" d="M197,62.5c2.2,0.1,4-0.2,5.8,1c2,1.7,2.2,6,2.2,6c-1.6-1.3-3.7-1.9-5.7-1.7c-2.2-0.1-4,0.2-5.9-1
	c-2-1.7-2.2-6-2.2-6C192.9,62.1,194.9,62.7,197,62.5"/>
<path class="st3" d="M201,72.2c2.1,0.3,4,0.2,5.7,1.6c1.8,2,1.6,6.2,1.6,6.2c-1.5-1.5-3.4-2.3-5.5-2.2c-2.1-0.3-4-0.2-5.7-1.7
	c-1.8-2-1.6-6.2-1.6-6.2C197,71.4,198.9,72.2,201,72.2"/>
<path class="st3" d="M204,82.4c2.1,0.6,4,0.6,5.5,2.2c1.6,2.1,0.9,6.3,0.9,6.3c-1.3-1.6-3.2-2.6-5.2-2.8c-2.1-0.6-4-0.7-5.5-2.2
	c-1.6-2.1-1-6.3-1-6.3C200,81.1,201.9,82.1,204,82.4"/>
<path class="st3" d="M206,92.7c2,0.8,3.9,1,5.2,2.8c1.4,2.3,0.3,6.4,0.3,6.4c-1.1-1.7-2.9-2.9-4.9-3.3c-2-0.8-3.9-1.1-5.2-2.8
	c-1.4-2.3-0.3-6.4-0.3-6.4C202.2,91.1,204,92.3,206,92.7"/>
<path class="st3" d="M206.8,103.2c1.9,1,3.8,1.4,4.9,3.3c1.1,2.4-0.4,6.3-0.4,6.3c-0.9-1.8-2.6-3.2-4.5-3.8c-1.9-1-3.8-1.5-4.9-3.3
	c-1.1-2.4,0.4-6.3,0.4-6.3C203.2,101.2,204.9,102.6,206.8,103.2"/>
<rect class="st4" width="212.2" height="212.2"/>
<path class="st3" d="M206.6,113.8c1.8,1.2,3.6,1.8,4.6,3.8c0.9,2.5-1,6.3-1,6.3c-0.8-1.9-2.2-3.5-4.1-4.3c-1.8-1.2-3.6-1.8-4.5-3.8
	c-0.9-2.5,1-6.3,1-6.3C203.2,111.4,204.7,112.9,206.6,113.8"/>
<path class="st3" d="M205.2,124.2c1.7,1.4,3.4,2.2,4.1,4.2c0.6,2.6-1.7,6.1-1.7,6.1c-0.5-2-1.8-3.7-3.6-4.7
	c-1.7-1.4-3.4-2.2-4.1-4.3c-0.6-2.6,1.7-6.1,1.7-6.1C202.1,121.5,203.4,123.2,205.2,124.2"/>
<path class="st3" d="M202.8,134.5c1.5,1.5,3.1,2.5,3.7,4.7c0.3,2.6-2.3,5.9-2.3,5.9c-0.3-2-1.4-3.9-3.1-5.1
	c-1.5-1.5-3.1-2.6-3.6-4.7c-0.3-2.6,2.3-5.9,2.3-5.9C200,131.4,201.1,133.2,202.8,134.5"/>
<path class="st3" d="M199.3,144.4c1.4,1.7,2.9,2.9,3.1,5c0.1,2.7-2.9,5.6-2.9,5.6c-0.1-2.1-1.1-4-2.6-5.4c-1.4-1.7-2.8-2.9-3.1-5
	c0-2.7,2.9-5.6,2.9-5.6C196.8,141.2,197.7,143.1,199.3,144.4"/>
<path class="st3" d="M194.8,154c1.2,1.8,2.5,3.1,2.6,5.3c-0.2,2.7-3.5,5.3-3.5,5.3c0.1-2.1-0.6-4.1-2-5.6c-1.2-1.8-2.5-3.2-2.6-5.4
	c0.2-2.7,3.5-5.3,3.5-5.3C192.7,150.4,193.4,152.5,194.8,154"/>
<path class="st3" d="M189.3,163c1,1.9,2.2,3.4,2,5.6c-0.5,2.6-4,4.9-4,4.9c0.3-2-0.2-4.1-1.4-5.8c-1-1.9-2.2-3.4-2-5.6
	c0.5-2.6,4-4.9,4-4.9C187.5,159.2,188,161.3,189.3,163"/>
<path class="st3" d="M182.9,171.4c0.8,2,1.8,3.6,1.4,5.8c-0.8,2.6-4.5,4.5-4.5,4.5c0.5-2,0.2-4.1-0.8-5.9c-0.8-2-1.8-3.6-1.4-5.8
	c0.8-2.6,4.5-4.5,4.5-4.5C181.5,167.5,181.8,169.6,182.9,171.4"/>
<path class="st3" d="M175.6,179c0.6,2.1,1.5,3.8,0.8,5.9c-1,2.5-5,4-5,4c0.7-1.9,0.7-4.1-0.2-5.9c-0.6-2.1-1.4-3.8-0.8-5.9
	c1-2.4,5-4,5-4C174.7,175,174.8,177.1,175.6,179"/>
<path class="st3" d="M167.6,185.9c0.4,2.1,1.1,3.9,0.2,5.9c-1.3,2.3-5.4,3.4-5.4,3.4c0.9-1.8,1.1-4,0.4-5.9c-0.4-2.1-1-3.9-0.2-5.9
	c1.3-2.3,5.4-3.4,5.4-3.4C167.1,181.8,167,183.9,167.6,185.9"/>
<path class="st3" d="M158.9,191.9c0.1,2.2,0.6,4-0.4,5.9c-1.5,2.2-5.7,2.9-5.7,2.9c1.1-1.7,1.5-3.8,1.1-5.9c-0.1-2.2-0.6-4,0.4-5.9
	c1.5-2.2,5.7-2.9,5.7-2.9C158.9,187.7,158.5,189.8,158.9,191.9"/>
<path class="st3" d="M149.7,197c-0.1,2.2,0.2,4-1,5.8c-1.8,2-6,2.2-6,2.2c1.3-1.6,1.9-3.7,1.7-5.7c0.1-2.2-0.2-4,1-5.8
	c1.7-2,6-2.2,6-2.2C150,192.9,149.4,194.9,149.7,197"/>
<path class="st3" d="M139.9,201c-0.3,2.1-0.2,4-1.6,5.7c-1.9,1.8-6.2,1.6-6.2,1.6c1.5-1.5,2.3-3.4,2.2-5.5c0.3-2.1,0.2-4,1.7-5.7
	c1.9-1.8,6.2-1.6,6.2-1.6C140.8,197,139.9,198.9,139.9,201"/>
<path class="st3" d="M129.8,204c-0.6,2.1-0.6,4-2.2,5.5c-2.1,1.6-6.3,0.9-6.3,0.9c1.6-1.3,2.6-3.2,2.8-5.2c0.6-2.1,0.7-4,2.2-5.5
	c2.1-1.6,6.3-1,6.3-1C131.1,200,130,201.9,129.8,204"/>
<path class="st3" d="M119.5,206c-0.8,2-1,3.9-2.8,5.2c-2.3,1.4-6.4,0.3-6.4,0.3c1.7-1.1,2.9-2.9,3.3-4.9c0.8-2,1.1-3.9,2.8-5.2
	c2.3-1.4,6.3-0.3,6.3-0.3C121.1,202.2,119.9,204,119.5,206"/>
<path class="st3" d="M108.9,206.8c-1,1.9-1.4,3.8-3.3,4.9c-2.4,1.1-6.3-0.4-6.3-0.4c1.8-0.9,3.2-2.6,3.8-4.5c1-1.9,1.5-3.8,3.3-4.9
	c2.4-1.1,6.4,0.4,6.4,0.4C111,203.2,109.6,204.9,108.9,206.8"/>
<rect class="st4" width="212.2" height="212.2"/>
<path class="st3" d="M98.4,206.6c-1.2,1.8-1.8,3.6-3.8,4.6c-2.5,0.9-6.3-1-6.3-1c1.9-0.8,3.5-2.2,4.3-4.1c1.2-1.8,1.8-3.6,3.8-4.5
	c2.5-0.9,6.3,1,6.3,1C100.8,203.2,99.2,204.7,98.4,206.6"/>
<path class="st3" d="M87.9,205.2c-1.4,1.7-2.2,3.4-4.3,4.1c-2.6,0.6-6.1-1.7-6.1-1.7c2-0.5,3.7-1.9,4.7-3.6c1.4-1.7,2.2-3.4,4.3-4.1
	c2.6-0.6,6.1,1.7,6.1,1.7C90.7,202.1,89,203.4,87.9,205.2"/>
<path class="st3" d="M77.7,202.8c-1.5,1.5-2.5,3.1-4.7,3.7c-2.7,0.3-5.9-2.3-5.9-2.3c2-0.3,3.8-1.5,5-3.1c1.5-1.5,2.6-3.1,4.7-3.6
	c2.7-0.3,5.9,2.3,5.9,2.3C80.7,200,78.8,201.1,77.7,202.8"/>
<path class="st3" d="M67.7,199.3c-1.7,1.4-2.8,2.9-5,3.1c-2.7,0-5.6-2.9-5.6-2.9c2.1-0.1,4-1,5.3-2.6c1.7-1.4,2.9-2.8,5-3.1
	c2.7,0,5.6,2.9,5.6,2.9C71,196.8,69.1,197.7,67.7,199.3"/>
<path class="st3" d="M58.2,194.8c-1.8,1.2-3.1,2.5-5.3,2.6c-2.7-0.2-5.3-3.5-5.3-3.5c2.1,0.1,4.1-0.6,5.6-2c1.8-1.2,3.2-2.5,5.3-2.6
	c2.7,0.2,5.3,3.5,5.3,3.5C61.7,192.7,59.7,193.4,58.2,194.8"/>
<path class="st3" d="M49.2,189.3c-1.9,1-3.4,2.2-5.6,2.1c-2.6-0.5-4.9-4-4.9-4c2,0.3,4.1-0.2,5.8-1.4c1.9-1,3.4-2.2,5.6-2
	c2.6,0.5,4.9,4,4.9,4C52.9,187.6,50.9,188.1,49.2,189.3"/>
<path class="st3" d="M40.8,182.9c-2,0.8-3.6,1.8-5.7,1.4c-2.6-0.8-4.5-4.5-4.5-4.5c2,0.5,4.1,0.2,5.9-0.8c2-0.8,3.6-1.8,5.8-1.4
	c2.5,0.8,4.5,4.5,4.5,4.5C44.7,181.6,42.6,181.8,40.8,182.9"/>
<path class="st3" d="M33.1,175.6c-2.1,0.6-3.8,1.4-5.9,0.8c-2.5-1-4-5-4-5c1.9,0.7,4.1,0.7,5.9-0.2c2.1-0.6,3.8-1.4,5.9-0.8
	c2.5,1,4,5,4,5C37.2,174.7,35,174.8,33.1,175.6"/>
<path class="st3" d="M26.3,167.6c-2.1,0.4-3.9,1.1-5.9,0.2c-2.3-1.3-3.4-5.4-3.4-5.4c1.8,0.9,4,1.1,5.9,0.4c2.1-0.4,3.9-1,5.9-0.2
	c2.3,1.3,3.4,5.4,3.4,5.4C30.4,167.1,28.2,167,26.3,167.6"/>
<path class="st3" d="M20.3,158.9c-2.1,0.1-4,0.6-5.9-0.4c-2.2-1.5-2.9-5.7-2.9-5.7c1.7,1.1,3.8,1.5,5.9,1.1c2.2-0.1,4-0.6,5.9,0.4
	c2.2,1.5,2.9,5.7,2.9,5.7C24.4,158.9,22.3,158.5,20.3,158.9"/>
<path class="st3" d="M15.2,149.7c-2.2-0.1-4,0.2-5.8-1c-2-1.8-2.2-5.9-2.2-5.9c1.6,1.3,3.7,1.9,5.7,1.7c2.2,0.1,4-0.2,5.8,1
	c2,1.7,2.2,6,2.2,6C19.3,150.1,17.3,149.5,15.2,149.7"/>
<path class="st3" d="M11.2,139.9c-2.1-0.3-4-0.2-5.7-1.6c-1.8-1.9-1.6-6.1-1.6-6.1c1.5,1.4,3.4,2.3,5.5,2.2c2.1,0.3,4,0.2,5.7,1.6
	c1.8,2,1.6,6.1,1.6,6.1C15.2,140.8,13.2,139.9,11.2,139.9"/>
<path class="st3" d="M8.1,129.8c-2.1-0.6-4-0.6-5.5-2.2c-1.6-2.1-1-6.3-1-6.3c1.3,1.6,3.2,2.6,5.2,2.8c2.1,0.6,4,0.7,5.5,2.2
	c1.6,2.1,1,6.3,1,6.3C12.1,131.1,10.2,130.1,8.1,129.8"/>
<path class="st3" d="M6.2,119.5c-2-0.8-3.9-1-5.2-2.8c-1.4-2.3-0.3-6.4-0.3-6.4c1.1,1.7,2.9,2.9,4.9,3.3c2,0.8,3.9,1.1,5.2,2.8
	c1.4,2.3,0.3,6.3,0.3,6.3C10,121.1,8.2,119.9,6.2,119.5"/>
<rect class="st4" width="212.2" height="212.2"/>
<path class="st2" d="M88.2,37.7c5.7-1.5,11.6-2.3,17.5-2.3l-3,43.7l-0.7,0.1L88.2,37.7z M71.1,44.7c5.1-2.9,10.6-5.2,16.3-6.8
	l8.4,43l-0.6,0.3L71.1,44.7z M56.4,55.8c4.2-4.2,8.9-7.8,14-10.8l19.3,39.4l-0.6,0.4L56.4,55.8z M45,70.3c3-5.1,6.6-9.8,10.8-14
	l28.8,33l-0.4,0.6L45,70.3z M37.9,87.3c1.6-5.7,3.8-11.2,6.8-16.3L81,95.5l-0.2,0.7L37.9,87.3z M35.4,105.6c0-5.9,0.8-11.8,2.3-17.5
	l41.5,14.2l-0.1,0.7L35.4,105.6z M37.6,124c-1.5-5.7-2.3-11.6-2.3-17.5l43.8,3l0.1,0.7L37.6,124z M44.6,141.1
	c-2.9-5.1-5.2-10.6-6.8-16.3l43.1-8.5l0.3,0.7L44.6,141.1z M55.8,155.8c-4.2-4.2-7.8-8.9-10.8-14l39.4-19.3l0.4,0.6L55.8,155.8z
	 M70.4,167.1c-5.1-3-9.8-6.6-14-10.8l33.1-28.9L90,128L70.4,167.1z M87.4,174.3c-5.7-1.6-11.2-3.8-16.3-6.8l24.5-36.5l0.7,0.3
	L87.4,174.3z M105.7,176.8c-5.9,0-11.8-0.8-17.5-2.3l14.3-41.5l0.7,0.1L105.7,176.8z M124,174.5c-5.7,1.5-11.6,2.3-17.5,2.3l3-43.8
	l0.7-0.1L124,174.5z M141.1,167.5c-5.1,2.9-10.6,5.2-16.3,6.8l-8.4-43.1l0.7-0.3L141.1,167.5z M155.8,156.3
	c-4.2,4.2-8.9,7.8-14,10.8l-19.3-39.4l0.6-0.4L155.8,156.3z M167.1,141.7c-3,5.1-6.6,9.8-10.7,14l-28.8-33.1l0.4-0.6L167.1,141.7z
	 M174.3,124.7c-1.5,5.7-3.8,11.2-6.7,16.3l-36.4-24.5l0.3-0.7L174.3,124.7z M176.8,106.4c0,5.9-0.8,11.8-2.2,17.5L133,109.7l0.1-0.7
	L176.8,106.4z M174.5,88.1c1.5,5.7,2.3,11.6,2.3,17.5l-43.7-3l-0.1-0.7L174.5,88.1z M167.5,71.1c2.9,5.1,5.2,10.6,6.8,16.3l-43,8.4
	l-0.3-0.7L167.5,71.1z M156.4,56.3c4.1,4.2,7.8,8.9,10.7,14l-39.3,19.2l-0.4-0.6L156.4,56.3z M141.8,45c5.1,3,9.8,6.6,14,10.7
	l-33,28.8l-0.6-0.4L141.8,45z M124.8,37.8c5.7,1.6,11.2,3.8,16.3,6.7l-24.5,36.4l-0.7-0.3L124.8,37.8z M106.5,35.3
	c5.9,0,11.8,0.8,17.5,2.3l-14.2,41.4l-0.7-0.1L106.5,35.3z"/>
</svg>
